<?xml version="1.0" encoding="utf-8"?>
<!-- Generator: Adobe Illustrator 28.3.0, SVG Export Plug-In . SVG Version: 6.00 Build 0)  -->
<svg version="1.1" id="Layer_1" xmlns="http://www.w3.org/2000/svg" xmlns:xlink="http://www.w3.org/1999/xlink" x="0px" y="0px"
	 viewBox="0 0 167.66 68.13" style="enable-background:new 0 0 167.66 68.13;" xml:space="preserve">
<style type="text/css">
	.st0{fill:#231F20;}
	.st1{fill:url(#SVGID_1_);}
	.st2{enable-background:new    ;}
	.st3{fill:#FEFEFE;}
	.st4{fill:#B2B2B2;}
	.st5{fill:#E7E7E7;}
	.st6{fill:#FCFCFC;}
	.st7{fill:#FBFBFB;}
	.st8{fill:#F9F9F9;}
	.st9{fill:#FAFAFA;}
	.st10{fill:#E9E9E9;}
	.st11{fill:#E1E1E1;}
	.st12{fill:#CECECE;}
	.st13{fill:#070707;}
	.st14{fill:#121212;}
	.st15{fill:#0A0A0A;}
	.st16{fill:#191919;}
	.st17{fill:#181818;}
	.st18{fill:#FFFFFF;}
	.st19{fill:#2D2D2D;}
	.st20{fill:url(#Vector_00000137815897201368854880000012153399034654267054_);}
	.st21{fill:url(#Vector_2_00000144309740320825689450000006570337049862185634_);}
	.st22{fill:#CFCFCF;}
	.st23{opacity:0.972;fill-rule:evenodd;clip-rule:evenodd;enable-background:new    ;}
	.st24{opacity:0.977;fill-rule:evenodd;clip-rule:evenodd;enable-background:new    ;}
	.st25{opacity:0.971;fill-rule:evenodd;clip-rule:evenodd;enable-background:new    ;}
	.st26{opacity:0.984;fill-rule:evenodd;clip-rule:evenodd;enable-background:new    ;}
	.st27{opacity:0.975;fill-rule:evenodd;clip-rule:evenodd;enable-background:new    ;}
	.st28{opacity:0.987;fill-rule:evenodd;clip-rule:evenodd;enable-background:new    ;}
	.st29{opacity:0.979;fill-rule:evenodd;clip-rule:evenodd;enable-background:new    ;}
	.st30{opacity:0.978;fill-rule:evenodd;clip-rule:evenodd;enable-background:new    ;}
	.st31{opacity:0.921;fill-rule:evenodd;clip-rule:evenodd;enable-background:new    ;}
	.st32{opacity:0.92;fill-rule:evenodd;clip-rule:evenodd;enable-background:new    ;}
	.st33{opacity:0.95;fill-rule:evenodd;clip-rule:evenodd;enable-background:new    ;}
	.st34{opacity:0.964;fill-rule:evenodd;clip-rule:evenodd;enable-background:new    ;}
	.st35{opacity:0.945;fill-rule:evenodd;clip-rule:evenodd;enable-background:new    ;}
	.st36{opacity:0.959;fill-rule:evenodd;clip-rule:evenodd;enable-background:new    ;}
	.st37{opacity:0.948;fill-rule:evenodd;clip-rule:evenodd;enable-background:new    ;}
	.st38{fill-rule:evenodd;clip-rule:evenodd;fill:#24201D;}
	.st39{fill:#24201D;}
	.st40{fill:#105AF4;}
	.st41{fill:#4393F1;}
	.st42{fill:#98C6FB;}
	.st43{fill:#90C8FD;}
	.st44{fill:#80889E;}
	.st45{fill:#80879E;}
	.st46{fill:#C5CAD6;}
	.st47{fill:#2A2F59;}
	.st48{fill:#525E81;}
	.st49{fill:#7F889E;}
	.st50{fill:#242744;}
	.st51{fill:#7F879E;}
	.st52{fill:#525E80;}
	.st53{fill:#242644;}
	.st54{fill:#242743;}
	.st55{fill:#252744;}
	.st56{fill:#252845;}
	.st57{fill:#252844;}
	.st58{fill:#252644;}
	.st59{fill:#FDFEFD;}
	.st60{fill:#FDFDFD;}
	.st61{fill:#FCFCFB;}
	.st62{fill:#FDFEFE;}
	.st63{fill:#252F38;}
	.st64{fill:#A6493A;}
	.st65{fill:#A7493A;}
	.st66{fill:#A74A3B;}
	.st67{fill:#A74B3C;}
	.st68{fill:#FEFDFD;}
</style>
<g>
	<g>
		<g>
			<path class="st0" d="M47.81,34.19v11.04h-4.09V18.1h4.67c2.28,0,4,0.14,5.14,0.48c1.19,0.33,2.19,0.9,3.09,1.81
				c1.57,1.52,2.33,3.43,2.33,5.76c0,2.48-0.81,4.47-2.48,5.9c-1.67,1.48-3.9,2.19-6.76,2.19L47.81,34.19L47.81,34.19z M47.81,30.43
				h1.57c3.76,0,5.66-1.43,5.66-4.33c0-2.81-1.95-4.19-5.81-4.19h-1.33v8.52H47.81z"/>
			<path class="st0" d="M63.14,31.53c0-3.81,1.38-7.09,4.19-9.85s6.14-4.09,10.04-4.09c3.86,0,7.19,1.38,9.95,4.14
				s4.19,6.09,4.19,10s-1.38,7.24-4.19,9.95c-2.81,2.71-6.19,4.09-10.14,4.09c-3.52,0-6.66-1.24-9.43-3.67
				C64.66,39.43,63.14,35.91,63.14,31.53z M67.28,31.62c0,3,1,5.47,3.05,7.43c2,1.95,4.33,2.9,6.95,2.9c2.86,0,5.24-1,7.24-2.95
				c1.95-2,2.95-4.43,2.95-7.28c0-2.9-0.95-5.33-2.9-7.28c-1.9-1.95-4.28-2.95-7.14-2.95c-2.81,0-5.24,1-7.14,2.95
				C68.23,26.34,67.28,28.72,67.28,31.62z"/>
			<path class="st0" d="M101.22,18.1v23.33h8v3.86H97.13V18.1H101.22z"/>
			<path class="st0" d="M118.98,18.1v23.33h8v3.86h-12.09V18.1H118.98z"/>
			<path class="st0" d="M128.35,31.53c0-3.81,1.38-7.09,4.19-9.85c2.81-2.76,6.14-4.09,10.04-4.09c3.86,0,7.19,1.38,9.95,4.14
				c2.76,2.76,4.19,6.09,4.19,10s-1.38,7.24-4.19,9.95c-2.81,2.71-6.19,4.09-10.14,4.09c-3.52,0-6.66-1.24-9.43-3.67
				C129.88,39.43,128.35,35.91,128.35,31.53z M132.5,31.62c0,3,1,5.47,3.05,7.43c2,1.95,4.33,2.9,6.95,2.9c2.86,0,5.24-1,7.24-2.95
				c1.95-2,2.95-4.43,2.95-7.28c0-2.9-0.95-5.33-2.9-7.28c-1.9-1.95-4.28-2.95-7.14-2.95c-2.81,0-5.24,1-7.14,2.95
				C133.45,26.34,132.5,28.72,132.5,31.62z"/>
		</g>
	</g>
	<g>
		<g>
			<path class="st0" d="M12.3,45.24H7.49L21.77,18.1h3.19l13.95,27.13H34.2L23.25,24.82L12.3,45.24z"/>
		</g>
	</g>
	
		<linearGradient id="SVGID_1_" gradientUnits="userSpaceOnUse" x1="23.1289" y1="749.5601" x2="23.1289" y2="760.9254" gradientTransform="matrix(1 0 0 1 0 -704)">
		<stop  offset="0" style="stop-color:#2A4094"/>
		<stop  offset="1" style="stop-color:#299AD4"/>
	</linearGradient>
	<polygon class="st1" points="16.63,45.28 29.63,45.24 23.15,57.04 	"/>
	<circle class="st0" cx="23.2" cy="32.67" r="2.24"/>
	<g class="st2">
		<path d="M118.64,51.38c-0.43-0.48-0.86-0.81-1.33-1c-0.48-0.24-1-0.33-1.57-0.33c-0.48,0-0.9,0.1-1.38,0.29
			c-0.43,0.19-0.81,0.48-1.14,0.81c-0.33,0.33-0.57,0.76-0.76,1.19c-0.19,0.43-0.24,0.9-0.24,1.43c0,0.43,0.05,0.81,0.14,1.14
			c0.1,0.33,0.24,0.67,0.48,0.95c0.33,0.52,0.81,0.9,1.29,1.14c0.52,0.29,1.09,0.43,1.67,0.43c0.57,0,1.09-0.1,1.57-0.33
			c0.48-0.24,0.9-0.57,1.33-1.05v1.38c-0.43,0.33-0.9,0.57-1.43,0.71c-0.52,0.14-1.05,0.24-1.57,0.24c-0.48,0-0.9-0.05-1.38-0.19
			c-0.43-0.14-0.86-0.33-1.24-0.62c-0.67-0.43-1.14-1-1.48-1.67c-0.33-0.67-0.52-1.38-0.52-2.14c0-0.67,0.1-1.29,0.33-1.86
			c0.24-0.57,0.57-1.05,1.05-1.52c0.43-0.43,0.95-0.76,1.48-1c0.57-0.24,1.14-0.33,1.81-0.33c0.52,0,1,0.1,1.48,0.24
			c0.48,0.14,0.95,0.38,1.43,0.71V51.38z"/>
		<path d="M120.45,58.09v-8.85h2.09c0.57,0,1.05,0.05,1.29,0.1c0.29,0.05,0.52,0.19,0.71,0.33c0.29,0.19,0.48,0.48,0.62,0.81
			s0.24,0.71,0.24,1.14c0,0.71-0.19,1.29-0.62,1.67c-0.43,0.38-1,0.57-1.76,0.57h-0.19l3.38,4.24h-1.33l-3.24-4.24h-0.14v4.24
			L120.45,58.09z M121.45,50.14v2.95h0.81c0.81,0,1.38-0.1,1.67-0.33c0.29-0.19,0.43-0.57,0.43-1.09c0-0.57-0.14-0.95-0.43-1.19
			s-0.81-0.33-1.62-0.33H121.45z"/>
		<path d="M128.78,58.09v-4.05l-3-4.81h1.24l2.33,3.86l2.28-3.86h1.19l-3,4.81v4.05H128.78z"/>
		<path d="M134.92,54.14v3.95h-1.05v-8.85h1.86c0.67,0,1.14,0.05,1.43,0.1c0.29,0.05,0.57,0.19,0.81,0.33
			c0.29,0.19,0.52,0.48,0.67,0.81c0.14,0.33,0.24,0.76,0.24,1.19s-0.1,0.81-0.24,1.19c-0.14,0.33-0.38,0.62-0.67,0.81
			c-0.24,0.14-0.48,0.29-0.81,0.33c-0.29,0.05-0.76,0.1-1.43,0.1h-0.29h-0.52V54.14z M134.92,53.19h0.52c0.9,0,1.52-0.1,1.81-0.33
			c0.33-0.19,0.48-0.57,0.48-1.09c0-0.57-0.14-0.95-0.48-1.19s-0.9-0.33-1.81-0.33h-0.52V53.19z"/>
		<path d="M141.73,58.09v-7.81h-2.52v-1h6.05v1h-2.48v7.85h-1.05V58.09z"/>
		<path d="M154.87,53.71c0,0.62-0.1,1.24-0.33,1.81c-0.24,0.57-0.57,1.05-1,1.48s-0.95,0.76-1.52,1s-1.19,0.33-1.81,0.33
			s-1.24-0.1-1.81-0.33s-1.09-0.57-1.52-1c-0.43-0.43-0.81-0.95-1.05-1.48c-0.24-0.57-0.33-1.14-0.33-1.76
			c0-0.62,0.1-1.24,0.33-1.81c0.24-0.57,0.57-1.05,1.05-1.52c0.43-0.43,0.95-0.76,1.52-1c0.57-0.24,1.19-0.33,1.81-0.33
			s1.24,0.1,1.81,0.33c0.57,0.24,1.09,0.57,1.52,1c0.43,0.43,0.81,0.95,1,1.48C154.73,52.47,154.87,53.04,154.87,53.71z
			 M150.11,57.33c0.48,0,0.95-0.1,1.38-0.29c0.43-0.19,0.81-0.43,1.19-0.81c0.33-0.33,0.62-0.76,0.81-1.19
			c0.19-0.43,0.29-0.9,0.29-1.38c0-0.48-0.1-0.95-0.29-1.43c-0.19-0.48-0.43-0.86-0.81-1.19c-0.33-0.33-0.76-0.62-1.19-0.81
			c-0.43-0.19-0.9-0.29-1.38-0.29c-0.48,0-0.95,0.1-1.38,0.29s-0.81,0.43-1.19,0.81c-0.33,0.33-0.62,0.76-0.81,1.19
			c-0.19,0.43-0.29,0.9-0.29,1.43c0,0.48,0.1,0.95,0.29,1.38c0.19,0.43,0.43,0.81,0.81,1.19c0.33,0.33,0.76,0.62,1.19,0.81
			C149.16,57.28,149.63,57.33,150.11,57.33z"/>
	</g>
</g>
</svg>
