<?xml version="1.0" standalone="no"?>
<!DOCTYPE svg PUBLIC "-//W3C//DTD SVG 20010904//EN"
 "http://www.w3.org/TR/2001/REC-SVG-20010904/DTD/svg10.dtd">
<svg version="1.0" xmlns="http://www.w3.org/2000/svg"
 width="300.000000pt" height="83.000000pt" viewBox="0 0 300.000000 83.000000"
 preserveAspectRatio="xMidYMid meet">

<g transform="translate(0.000000,83.000000) scale(0.100000,-0.100000)"
fill="#000000" stroke="none">
<path d="M213 792 c-67 -33 -72 -38 -75 -71 -3 -31 -7 -37 -32 -41 -26 -5 -31
-14 -66 -111 -35 -97 -37 -108 -22 -123 14 -14 14 -17 -3 -36 -18 -20 -18 -22
8 -76 20 -39 36 -59 62 -71 32 -15 34 -18 19 -34 -14 -16 -11 -21 32 -70 26
-30 58 -60 71 -67 19 -10 21 -16 13 -32 -9 -16 -5 -22 22 -37 18 -9 57 -18 86
-19 51 -2 53 -1 74 37 29 53 59 53 89 0 20 -37 25 -39 68 -39 25 0 63 7 84 16
32 13 37 19 33 38 -5 17 -1 26 13 33 11 6 40 36 66 66 40 46 45 57 35 70 -11
13 -10 18 6 30 10 8 26 17 35 20 16 5 59 85 59 109 0 7 -7 19 -15 26 -12 10
-12 15 1 35 14 21 12 31 -23 126 -35 96 -40 104 -68 109 -27 5 -30 9 -30 40 0
34 -3 37 -75 72 -100 50 -157 52 -194 7 -21 -25 -26 -41 -26 -85 0 -41 -4 -54
-15 -54 -12 0 -15 13 -15 58 -1 118 -78 145 -217 74z m76 5 c-2 -1 -29 -24
-61 -50 -31 -26 -59 -47 -62 -47 -3 0 -6 10 -6 23 0 18 13 29 63 54 34 17 64
29 66 27 2 -2 2 -5 0 -7z m87 -4 c-3 -10 -12 -49 -20 -86 -7 -37 -16 -70 -18
-72 -3 -3 -39 7 -82 21 -42 14 -76 28 -74 29 2 2 37 30 78 64 75 60 127 80
116 44z m253 -42 c40 -32 73 -62 72 -67 -2 -9 -66 -33 -122 -47 -26 -7 -27 -5
-43 76 -9 45 -16 85 -16 90 0 21 43 1 109 -52z m111 -19 c0 -4 -4 -13 -9 -20
-6 -10 -23 0 -69 38 -34 29 -62 54 -62 56 0 2 32 -12 70 -31 39 -19 70 -39 70
-43z m-330 -17 c0 -44 -4 -56 -20 -65 -24 -13 -26 3 -8 79 14 63 28 56 28 -14z
m109 -14 c6 -30 9 -56 7 -58 -2 -3 -14 0 -25 7 -17 9 -21 20 -21 64 0 90 19
83 39 -13z m-427 -146 c-57 -132 -77 -126 -32 9 28 84 34 96 55 96 22 0 22 -2
-23 -105z m167 80 l54 -18 -34 -18 c-49 -26 -56 -24 -80 22 -14 29 -17 40 -7
37 7 -3 37 -13 67 -23z m436 -15 c-9 -17 -22 -33 -30 -36 -13 -6 -80 24 -73
32 7 6 113 42 116 39 2 -2 -4 -17 -13 -35z m141 -60 c22 -61 30 -98 24 -104
-12 -12 -10 -16 -53 86 -55 129 -53 120 -27 116 18 -2 28 -20 56 -98z m-647
41 l20 -37 -62 -47 c-33 -26 -62 -45 -64 -44 -6 7 71 175 79 171 5 -3 17 -22
27 -43z m588 -38 c18 -42 33 -80 33 -85 0 -8 -32 12 -104 67 -20 15 -20 16 2
61 13 26 26 44 29 40 4 -3 21 -40 40 -83z m-367 52 c0 -23 -2 -25 -22 -14 -21
11 -21 12 -3 25 25 18 25 18 25 -11z m50 -5 c0 -20 -5 -30 -15 -30 -10 0 -15
10 -15 30 0 20 5 30 15 30 10 0 15 -10 15 -30z m53 13 c8 -7 -11 -33 -24 -33
-5 0 -9 9 -9 20 0 19 20 27 33 13z m-103 -100 c0 -41 -1 -42 -42 -53 -24 -6
-58 -15 -75 -20 -18 -5 -33 -7 -33 -5 0 3 21 38 46 80 l46 75 29 -17 c25 -15
29 -23 29 -60z m180 -2 c22 -37 40 -70 40 -73 0 -4 -15 -3 -32 2 -18 5 -52 14
-75 20 -41 10 -43 12 -43 50 0 30 6 42 27 58 15 11 31 18 35 16 4 -3 26 -35
48 -73z m-291 32 c-13 -21 -28 -46 -33 -55 -17 -29 -26 -21 -26 22 0 35 4 42
33 54 48 21 51 19 26 -21z m321 21 c41 -17 44 -23 31 -76 -6 -27 -7 -26 -43
32 -20 33 -35 60 -33 60 3 0 23 -7 45 -16z m-160 -55 c0 -52 -24 -48 -28 4 -2
28 1 37 12 37 12 0 16 -11 16 -41z m-236 -26 c3 -25 4 -48 2 -50 -2 -2 -34 -3
-71 -1 l-68 3 59 47 c33 26 62 47 65 48 4 0 9 -21 13 -47z m576 -49 c0 -2 -29
-4 -65 -4 l-65 0 0 34 c0 68 7 70 71 20 32 -25 59 -47 59 -50z m-390 -39 c0
-43 -6 -64 -26 -95 -15 -22 -28 -40 -29 -40 -5 0 -85 129 -87 141 -2 10 89 42
135 48 4 1 7 -24 7 -54z m50 0 c0 -42 -3 -55 -15 -55 -12 0 -15 13 -15 55 0
42 3 55 15 55 12 0 15 -13 15 -55z m105 34 c28 -6 54 -15 59 -20 7 -7 -72
-149 -84 -149 -3 0 -17 20 -32 44 -21 33 -28 56 -28 95 0 45 2 52 18 47 9 -3
40 -10 67 -17z m-335 -65 c0 -46 0 -46 -22 -32 -13 8 -44 27 -70 42 -27 15
-48 30 -48 32 0 2 32 4 70 4 l70 0 0 -46z m515 2 c-39 -24 -73 -42 -77 -39 -5
2 -8 22 -8 44 l0 39 77 0 77 0 -69 -44z m-610 -12 c42 -25 75 -47 73 -49 -2
-1 -35 -5 -74 -8 l-71 -6 -21 43 c-15 32 -18 46 -9 55 16 16 19 15 102 -35z
m724 32 c10 -11 8 -23 -9 -56 -21 -41 -23 -42 -58 -36 -20 3 -53 6 -71 6 -43
0 -36 8 50 61 73 44 73 44 88 25z m-554 -89 c10 -16 14 -28 9 -25 -60 27 -64
32 -64 67 l0 36 19 -24 c10 -14 27 -38 36 -54z m335 38 c0 -28 -5 -37 -30 -50
-16 -9 -30 -13 -30 -11 0 6 54 96 57 96 2 0 3 -16 3 -35z m-180 -95 c0 -64 -3
-80 -15 -80 -12 0 -15 16 -15 80 0 64 3 80 15 80 12 0 15 -16 15 -80z m50 23
l21 -36 -25 -26 -26 -26 0 63 c0 34 2 62 4 62 2 0 14 -16 26 -37z m-100 -30
l0 -58 -20 25 c-11 14 -20 29 -20 33 0 9 30 57 36 57 2 0 4 -26 4 -57z m-242
31 c-11 -11 -25 -14 -42 -10 -40 10 -31 26 16 26 39 0 41 -1 26 -16z m62 -74
c0 -65 -3 -90 -12 -90 -14 0 -103 99 -96 106 7 7 103 74 105 74 2 0 3 -40 3
-90z m64 69 c20 -12 36 -26 36 -32 0 -7 -18 -39 -40 -72 l-40 -60 0 93 c0 50
2 92 4 92 3 0 21 -9 40 -21z m356 -71 l-1 -93 -23 29 c-13 15 -33 46 -45 67
l-22 38 38 25 c21 14 41 26 45 26 5 0 8 -42 8 -92z m140 83 c0 -16 -38 -23
-60 -11 -29 16 -25 20 20 20 22 0 40 -4 40 -9z m-64 -33 c24 -17 44 -35 44
-40 0 -11 -80 -98 -91 -98 -4 0 -9 38 -11 85 -2 47 1 85 5 85 5 0 29 -14 53
-32z m-376 -98 l0 -50 -40 0 -40 0 32 50 c18 27 36 50 41 50 4 0 7 -22 7 -50z
m60 -24 c0 -19 -5 -26 -20 -26 -17 0 -20 7 -20 51 l0 52 20 -26 c11 -14 20
-37 20 -51z m114 21 c-5 -37 -11 -47 -25 -47 -26 0 -25 34 2 72 12 16 23 27
25 25 2 -2 1 -25 -2 -50z m80 -19 l17 -28 -40 0 c-45 0 -47 6 -34 70 l6 33 17
-24 c10 -12 25 -35 34 -51z m-144 -3 c0 -16 -6 -25 -15 -25 -15 0 -21 31 -8
43 13 14 23 6 23 -18z m-72 -70 c-6 -14 -16 -25 -22 -25 -13 0 -76 37 -76 45
0 3 25 5 55 5 l55 0 -12 -25z m222 21 c0 -6 -70 -46 -79 -46 -5 0 -16 11 -25
25 l-16 25 60 0 c33 0 60 -2 60 -4z m-325 -28 c25 -11 34 -28 15 -28 -16 0
-60 23 -60 32 0 11 14 10 45 -4z m365 4 c0 -10 -45 -32 -63 -32 -16 1 34 39
51 40 6 0 12 -4 12 -8z"/>
<path d="M1433 725 c-47 -20 -73 -68 -73 -135 0 -68 26 -115 75 -136 46 -19
73 -18 118 5 29 15 37 16 37 5 0 -8 7 -14 15 -14 12 0 15 15 15 75 l0 75 -60
0 c-47 0 -60 -3 -60 -15 0 -11 11 -15 39 -15 49 0 56 -11 37 -49 -22 -41 -72
-57 -119 -37 -44 18 -59 46 -59 106 0 53 20 91 58 108 35 17 54 15 99 -8 23
-12 43 -16 48 -11 13 13 2 26 -37 45 -41 19 -90 20 -133 1z"/>
<path d="M1000 590 l0 -140 75 0 c87 0 119 12 136 52 13 33 1 74 -26 84 -13 5
-12 10 5 31 25 33 25 54 -1 87 -19 24 -26 26 -105 26 l-84 0 0 -140z m158 98
c7 -7 12 -21 12 -33 0 -34 -20 -45 -82 -45 l-58 0 0 45 0 45 58 0 c32 0 63 -5
70 -12z m0 -124 c12 -8 22 -24 22 -34 0 -35 -28 -50 -91 -50 l-59 0 0 50 0 50
53 0 c31 0 61 -6 75 -16z"/>
<path d="M1270 590 c0 -133 1 -140 20 -140 19 0 20 7 20 140 0 133 -1 140 -20
140 -19 0 -20 -7 -20 -140z"/>
<path d="M1830 590 l0 -140 84 0 c75 0 88 3 112 23 34 30 38 82 6 107 -19 16
-19 18 -5 33 22 21 21 72 -2 97 -16 17 -31 20 -107 20 l-88 0 0 -140z m168 98
c7 -7 12 -21 12 -33 0 -34 -20 -45 -82 -45 l-58 0 0 45 0 45 58 0 c32 0 63 -5
70 -12z m0 -124 c12 -8 22 -24 22 -34 0 -35 -28 -50 -91 -50 l-59 0 0 50 0 50
53 0 c31 0 61 -6 75 -16z"/>
<path d="M2110 590 c0 -116 3 -140 15 -140 10 0 15 15 17 58 3 56 3 57 35 60
29 3 36 -2 75 -57 31 -43 49 -61 66 -61 21 0 20 3 -19 56 l-42 57 32 24 c40
31 44 88 8 121 -20 19 -35 22 -105 22 l-82 0 0 -140z m164 94 c20 -20 20 -48
0 -68 -10 -11 -34 -16 -75 -16 l-59 0 0 50 0 50 59 0 c41 0 65 -5 75 -16z"/>
<path d="M2423 627 c-23 -56 -49 -119 -57 -139 -15 -36 -15 -38 2 -38 11 0 25
14 35 35 l17 35 70 0 70 0 14 -35 c10 -23 22 -35 35 -35 18 0 15 11 -34 130
-65 157 -61 150 -88 150 -18 0 -29 -17 -64 -103z m96 -5 c12 -29 21 -57 21
-62 0 -6 -22 -10 -50 -10 -32 0 -50 4 -50 12 0 23 45 127 52 120 3 -4 16 -31
27 -60z"/>
<path d="M2670 590 c0 -118 2 -140 15 -140 13 0 15 22 15 140 0 118 -2 140
-15 140 -13 0 -15 -22 -15 -140z"/>
<path d="M2770 590 c0 -116 2 -140 15 -140 12 0 15 21 17 110 l3 111 79 -111
c110 -152 116 -151 116 30 0 118 -2 140 -15 140 -12 0 -15 -18 -15 -105 0 -58
-3 -105 -7 -105 -5 0 -41 48 -82 105 -104 147 -111 145 -111 -35z"/>
<path d="M1355 385 c-22 -8 -41 -15 -42 -15 -1 0 -11 -15 -22 -34 -47 -75 -17
-179 59 -210 52 -21 75 -20 127 3 50 23 75 65 75 126 0 61 -25 103 -75 126
-50 22 -69 23 -122 4z m95 -55 c45 -24 44 -126 0 -150 -58 -31 -110 5 -110 75
0 70 52 106 110 75z"/>
<path d="M2563 389 c-17 -5 -43 -23 -57 -39 -93 -111 18 -280 147 -226 21 8
37 11 37 5 0 -5 11 -9 25 -9 25 0 25 1 25 80 l0 80 -60 0 -60 0 0 -30 c0 -27
3 -30 30 -30 35 0 41 -23 11 -40 -30 -15 -66 -12 -92 9 -19 15 -24 29 -24 66
0 37 5 51 24 66 28 23 69 25 98 4 18 -13 22 -12 38 5 21 23 13 38 -31 56 -37
16 -64 16 -111 3z"/>
<path d="M2836 390 c-46 -14 -66 -39 -66 -81 0 -46 23 -65 102 -83 42 -9 53
-16 53 -31 0 -16 -8 -21 -38 -23 -20 -2 -51 3 -67 11 -27 14 -30 14 -45 -9
-14 -22 -14 -24 7 -38 56 -35 149 -31 192 9 53 49 19 127 -60 140 -22 3 -50
11 -63 16 -19 8 -21 12 -11 24 15 18 59 19 95 3 22 -10 29 -9 47 9 l21 21 -29
15 c-39 20 -103 28 -138 17z"/>
<path d="M990 255 l0 -135 35 0 35 0 0 55 0 55 55 0 55 0 0 -55 0 -55 35 0 35
0 0 135 0 135 -34 0 -35 0 -3 -52 -3 -53 -50 0 -50 0 -3 53 -3 52 -35 0 -34 0
0 -135z"/>
<path d="M1590 255 l0 -135 95 0 95 0 0 30 0 30 -65 0 -65 0 0 105 0 105 -30
0 -30 0 0 -135z"/>
<path d="M1800 255 l0 -135 76 0 c120 0 168 33 180 122 3 30 0 53 -13 78 -26
51 -72 70 -165 70 l-78 0 0 -135z m167 63 c19 -16 26 -73 12 -99 -17 -33 -28
-39 -71 -39 l-38 0 0 73 c0 41 3 77 7 81 9 9 74 -2 90 -16z"/>
<path d="M2090 255 l0 -135 35 0 35 0 0 135 0 135 -35 0 -35 0 0 -135z"/>
<path d="M2200 255 l0 -135 30 0 29 0 3 78 3 77 55 -78 c49 -69 57 -77 87 -77
l33 0 0 135 0 135 -30 0 -30 0 0 -75 c0 -41 -3 -75 -7 -75 -5 0 -30 34 -57 75
-44 69 -51 75 -82 75 l-34 0 0 -135z"/>
</g>
</svg>
