<svg width="151" height="70" viewBox="0 0 151 70" fill="none" xmlns="http://www.w3.org/2000/svg">
<rect x="0.793945" width="150.206" height="70" rx="7.77778" fill="white"/>
<g clip-path="url(#clip0_83_1681)">
<path d="M29.8672 12H122.898V59H29.8672V12ZM60.8673 39.6284C60.9519 39.5649 61.0057 39.5014 61.0672 39.4775C61.8591 39.2076 62.3281 38.6201 62.5818 37.8182C62.6126 37.7309 62.6587 37.6515 62.6972 37.5642C63.12 36.6432 63.1815 36.7703 62.4972 36.0875C62.4742 36.0637 62.4588 36.024 62.4281 35.9684C62.4819 35.897 62.5203 35.8096 62.5818 35.762C62.9355 35.4921 62.9586 35.1745 62.8048 34.7537C62.405 33.6502 62.0436 32.5307 61.6823 31.4193C61.59 31.1414 61.4516 30.9826 61.1518 30.927C60.3368 30.7682 60.3291 30.7524 60.429 29.9029C60.4598 29.6091 60.3675 29.4265 60.1138 29.2995C59.6371 29.0693 59.1604 28.847 58.6991 28.585C58.0456 28.2277 57.3767 28.0292 56.6232 27.9816C55.8544 27.926 55.3392 28.1404 54.9087 28.7834C54.6857 29.1169 54.5319 29.4186 54.555 29.8314C54.5858 30.2998 54.555 30.7762 54.555 31.2525C54.1629 31.2525 54.2552 30.9905 54.2628 30.8318C54.3167 29.8632 54.3244 28.9184 53.4709 28.2515C53.4632 28.2515 53.4556 28.2277 53.4479 28.2198C53.271 28.1324 53.0942 27.9895 52.9174 27.9816C51.864 27.934 50.8568 28.061 49.9419 28.6723C49.619 28.8867 49.2576 29.0216 48.9116 29.1963C48.3811 29.4583 48.3658 29.49 48.4426 30.0775C48.5272 30.7444 48.5272 30.7682 47.8968 30.8556C47.4585 30.9191 47.2355 31.1255 47.1048 31.5622C46.7973 32.5863 46.4667 33.6025 46.09 34.5949C45.8977 35.0951 45.8977 35.4762 46.3437 35.8017C46.3898 35.8334 46.3975 35.9128 46.4667 36.0399C46.3129 36.1748 46.1284 36.286 46.0054 36.4527C45.9208 36.5718 45.8439 36.7861 45.8977 36.9052C46.1592 37.5324 46.4513 38.1596 46.7665 38.763C46.8434 38.9059 47.028 39.0012 47.1817 39.0965C47.4431 39.2552 47.7199 39.3902 48.0121 39.5569C47.9429 39.6363 47.9121 39.6919 47.866 39.7316C47.4739 40.073 47.4585 40.1524 47.7968 40.5176C48.5195 41.3115 49.0731 42.288 50.0572 42.8041C50.0726 42.812 50.0726 42.8517 50.088 42.8993C50.0265 43.0105 49.9035 43.1296 49.8958 43.2566C49.8804 43.3995 49.9188 43.6535 50.0111 43.6932C50.6877 44.0108 51.3028 44.5824 52.1639 44.2966C52.3484 44.2331 52.5944 44.2966 52.802 44.3601C53.1096 44.4554 53.2864 44.3522 53.4248 44.0743C53.5939 43.7488 53.7862 43.4312 53.9784 43.1216C54.2013 42.7485 54.678 42.7485 54.9087 43.1216C55.1163 43.4709 55.3008 43.8361 55.5315 44.1696C55.616 44.2887 55.8082 44.4475 55.9082 44.4236C56.3926 44.2807 56.8693 44.3204 57.3536 44.4236C57.469 44.4475 57.6074 44.3839 57.7227 44.3363C57.9918 44.2172 58.2609 44.0823 58.5223 43.9552C59.1681 43.6456 59.1835 43.598 58.8375 42.9708C58.8298 42.947 58.8375 42.9231 58.8375 42.9867C59.3142 42.5182 59.7601 42.0895 60.183 41.6449C60.4598 41.3512 60.7058 41.0336 60.9749 40.724C61.4593 40.1524 61.4593 40.1524 60.9057 39.6204L60.8673 39.6284ZM88.8458 39.0568C88.8842 39.0488 88.9227 39.0329 88.9611 39.025C89.4301 39.7475 89.9529 40.4382 90.3604 41.1924C90.7064 41.8275 91.137 42.0895 91.8366 42.0022C92.1365 41.9625 92.2287 41.8831 92.2287 41.5814C92.2134 40.2318 92.2287 38.8821 92.2287 37.5404C92.2287 36.5639 92.3979 36.675 91.3215 36.6671C91.0524 36.6671 90.9601 36.7782 90.9678 37.0481C90.9832 37.7785 90.9678 38.501 90.9678 39.2314C90.9678 39.3664 90.9524 39.5093 90.9371 39.7633C90.791 39.5569 90.7141 39.4617 90.6526 39.3505C90.2297 38.7074 89.7684 38.0802 89.3994 37.4054C89.0765 36.802 88.6536 36.5797 88.0001 36.6591C87.6848 36.6988 87.5849 36.7941 87.5849 37.1117C87.6003 38.4296 87.5849 39.7554 87.5849 41.0812C87.5849 42.0895 87.5849 42.0816 88.5536 42.0022C88.792 41.9784 88.815 41.8593 88.815 41.6688C88.815 40.9383 88.815 40.2159 88.815 39.4855C88.815 39.3505 88.8304 39.2076 88.8304 39.0726L88.8458 39.0568ZM96.7342 39.9777C96.7727 40.0253 96.8111 40.073 96.8419 40.1206C96.6881 40.327 96.5728 40.5811 96.3805 40.7319C95.8577 41.1368 94.9966 41.0336 94.543 40.5493C93.9971 39.9698 93.9587 38.8503 94.4584 38.2073C94.9274 37.6039 95.8654 37.4848 96.542 38.0008C96.8419 38.2311 97.0033 38.1755 97.2032 37.9135C97.2724 37.8182 97.357 37.7389 97.4492 37.6595C97.6415 37.4927 97.5953 37.3578 97.4262 37.2069C96.9802 36.8179 96.4574 36.6274 95.8885 36.5559C94.4815 36.3733 93.2436 37.1275 92.8746 38.4454C92.3825 40.2238 93.3436 42.3515 95.6886 42.0657C96.0807 42.0181 96.4574 41.8117 96.8495 41.6767C96.9341 42.1689 97.3262 41.9307 97.603 41.9704C97.8106 42.0022 97.9029 41.899 97.9029 41.6767C97.9029 40.859 97.9029 40.0333 97.9029 39.2155C97.9029 38.9774 97.8106 38.89 97.5799 38.89C97.0802 38.898 96.5804 38.89 96.0807 38.89C95.6655 38.89 95.463 39.1097 95.4733 39.549C95.4733 39.5649 95.4733 39.5728 95.4733 39.5887C95.4425 39.8586 95.5579 39.9777 95.8193 39.9698C96.1268 39.9539 96.4267 39.9698 96.7342 39.9698V39.9777ZM72.6845 42.1054C74.3145 42.1054 75.4293 41.0019 75.4293 39.3664C75.4293 37.6992 74.3376 36.5639 72.7076 36.548C71.0853 36.54 69.932 37.6833 69.9244 39.3188C69.9244 40.9542 71.0546 42.1054 72.6845 42.1054ZM80.0732 39.3505C80.0732 40.1206 80.0655 40.8828 80.0809 41.6529C80.0809 41.764 80.2193 41.9784 80.2885 41.9704C81.2419 41.9466 82.2183 41.9863 83.1563 41.8196C84.2788 41.6211 84.9785 40.5414 84.9708 39.3029C84.9631 38.0247 84.3173 37.0243 83.1794 36.8258C82.2414 36.6591 81.2726 36.7068 80.3115 36.6909C80.2347 36.6909 80.0886 36.9211 80.0886 37.0481C80.0655 37.8182 80.0809 38.5804 80.0809 39.3505H80.0732ZM68.056 38.7233C67.441 38.7233 66.8797 38.7312 66.3184 38.7074C66.2416 38.7074 66.1109 38.5328 66.1032 38.4296C66.0724 38.1279 66.1032 37.8262 66.0878 37.5166C66.0724 36.5718 66.2492 36.6909 65.2421 36.6591C64.8807 36.6512 64.75 36.7544 64.7577 37.1434C64.7807 38.4296 64.7654 39.7078 64.7654 40.9939C64.7654 42.0736 64.7654 42.0657 65.811 41.9943C66.0263 41.9784 66.0955 41.899 66.0955 41.6767C66.0878 41.1845 66.0955 40.7002 66.0955 40.2079C66.0955 39.9698 66.18 39.8745 66.4107 39.8745C66.872 39.8745 67.3333 39.8586 67.7946 39.8904C67.8869 39.8904 68.0407 40.0571 68.056 40.1603C68.0945 40.4461 68.0714 40.7399 68.0714 41.0336C68.0714 42.0022 68.0714 41.9863 69.0017 41.9943C69.3247 41.9943 69.4169 41.891 69.4169 41.5655C69.4015 40.2397 69.4169 38.9218 69.4092 37.5959C69.4015 36.5321 69.6014 36.6829 68.4943 36.6591C68.1791 36.6591 68.056 36.7544 68.0714 37.0958C68.0945 37.6198 68.0714 38.1437 68.0714 38.7233H68.056ZM102.747 37.3816C102.701 37.3101 102.677 37.2625 102.639 37.2307C102.585 37.1752 102.524 37.1275 102.454 37.0878C101.44 36.4845 100.371 36.3812 99.2791 36.81C98.8409 36.9846 98.5333 37.3101 98.3949 37.7944C98.1566 38.6519 98.5718 39.4061 99.4713 39.684C99.9634 39.8348 100.471 39.9142 100.971 40.0412C101.209 40.1047 101.478 40.1841 101.463 40.5096C101.447 40.8431 101.178 40.9145 100.917 40.9622C100.302 41.0574 99.725 40.9463 99.1792 40.6208C99.0715 40.5573 98.8562 40.5334 98.787 40.597C98.5718 40.8113 98.4026 41.0812 98.2181 41.3194C99.1407 42.2721 101.309 42.4071 102.27 41.5973C102.608 41.3194 102.793 40.9542 102.808 40.5017C102.847 39.6046 102.393 39.025 101.463 38.8027C100.986 38.6916 100.502 38.628 100.033 38.4931C99.8865 38.4534 99.6789 38.247 99.6943 38.1437C99.7174 37.9929 99.8865 37.8341 100.033 37.7389C100.14 37.6674 100.309 37.6356 100.44 37.6674C100.894 37.7785 101.34 37.9294 101.793 38.0405C101.916 38.0723 102.108 38.0961 102.185 38.0247C102.393 37.8421 102.554 37.5959 102.739 37.3816H102.747ZM68.1714 32.6578C68.8018 32.1814 68.9787 31.5701 68.7326 30.8635C68.4866 30.141 67.8638 30.022 67.2334 29.9981C66.5337 29.9743 65.8264 29.9981 65.119 29.9981C64.9268 29.9981 64.7654 30.0061 64.7654 30.284C64.7654 31.9591 64.7654 33.6422 64.7807 35.3174C64.7807 35.4127 64.9345 35.5873 65.0114 35.5873C65.9571 35.5794 66.9028 35.5715 67.8485 35.4921C68.3713 35.4444 68.7557 35.0872 68.9402 34.5552C69.217 33.7693 69.0171 33.2453 68.1791 32.6657L68.1714 32.6578ZM84.0482 32.6816C84.6786 32.1973 84.8555 31.6098 84.6479 30.9191C84.4403 30.2284 83.879 30.0299 83.2639 30.0061C82.4951 29.9743 81.7262 29.9823 80.9651 30.0061C80.8651 30.0061 80.696 30.1807 80.696 30.276C80.6806 31.9512 80.6806 33.6343 80.696 35.3095C80.696 35.4047 80.8651 35.5873 80.9574 35.5873C81.8492 35.5873 82.7488 35.5873 83.6407 35.5079C84.348 35.4524 84.7863 34.976 84.917 34.2774C85.0554 33.539 84.7632 33.023 84.0559 32.6816H84.0482ZM75.9983 35.0236C76.0214 35.1904 76.0367 35.2618 76.0367 35.3412C76.0444 35.5873 76.2213 35.635 76.3827 35.5873C76.4904 35.5556 76.6441 35.4127 76.6518 35.3095C76.6749 34.4997 76.6749 33.6978 76.6518 32.888C76.6518 32.7927 76.475 32.626 76.375 32.626C75.7599 32.6022 75.1449 32.6181 74.5298 32.6101C74.2991 32.6101 74.2607 32.753 74.2607 32.9436C74.2607 33.1579 74.3222 33.2611 74.5452 33.2611C74.8527 33.2532 75.1602 33.2611 75.4678 33.2611C76.0598 33.2611 76.1059 33.3326 75.9291 33.928C75.9214 33.9677 75.8983 33.9995 75.8906 34.0392C75.6292 34.722 75.0449 35.0792 74.2222 35.0554C73.4303 35.0316 72.7999 34.5791 72.5692 33.809C72.4769 33.5073 72.4154 33.1897 72.4154 32.8721C72.4077 31.975 72.6307 31.1652 73.4765 30.7444C74.2991 30.3316 75.1064 30.4666 75.8061 31.0858C76.0521 31.3002 76.1828 31.197 76.352 31.0302C76.5672 30.8159 76.3673 30.6968 76.252 30.5777C75.5216 29.8314 74.13 29.6488 73.1228 30.1331C71.2314 31.0461 71.3621 33.9757 72.4001 34.9601C72.7076 35.2539 73.1074 35.5 73.5072 35.6191C74.3914 35.8811 75.2294 35.7144 75.9906 35.0236H75.9983ZM88.7074 33.2294C88.9381 33.1262 89.0918 33.0627 89.2379 32.9833C89.8376 32.6498 90.099 32.0782 90.0068 31.3081C89.9376 30.7206 89.4993 30.2363 88.8996 30.0775C88.6997 30.0299 88.4921 29.9902 88.2922 29.9902C87.6003 29.9823 86.9083 29.9902 86.2163 29.9823C85.9703 29.9823 85.878 30.0775 85.878 30.3316C85.878 31.9671 85.8857 33.6105 85.878 35.2459C85.878 35.5476 86.0241 35.5873 86.2625 35.5873C86.5008 35.5873 86.6238 35.5238 86.6161 35.2539C86.6007 34.841 86.6161 34.4361 86.6161 34.0233C86.6238 33.1421 86.5085 33.277 87.3773 33.2373C87.731 33.2215 87.9693 33.3247 88.1692 33.6422C88.4998 34.1742 88.8766 34.6743 89.2379 35.1904C89.5378 35.6191 89.7146 35.6747 90.2989 35.4841C89.7684 34.7299 89.2533 33.9836 88.7151 33.2056L88.7074 33.2294ZM102.162 34.1662C102.124 34.1821 102.085 34.198 102.047 34.2139C101.824 33.8963 101.601 33.5787 101.378 33.2691C100.671 32.2608 99.9557 31.2605 99.2637 30.2443C99.0638 29.9584 98.8101 29.9584 98.5487 30.0061C98.2488 30.0617 98.3565 30.3395 98.3565 30.5301C98.3488 32.0544 98.3565 33.5708 98.3565 35.0951C98.3565 35.3412 98.3104 35.6032 98.7025 35.6032C99.11 35.6032 99.0254 35.3174 99.0254 35.0792C99.0254 33.9836 99.0254 32.8801 99.0254 31.7845C99.0254 31.6495 99.0408 31.5145 99.0485 31.3796C99.4252 31.7527 99.7097 32.1497 99.9941 32.5546C100.648 33.4834 101.309 34.4123 101.947 35.3571C102.132 35.627 102.378 35.6508 102.624 35.5715C102.724 35.5397 102.8 35.2856 102.8 35.1348C102.816 33.547 102.8 31.9591 102.808 30.3713C102.808 30.1014 102.731 29.9902 102.454 29.9902C102.185 29.9902 102.132 30.1331 102.147 30.3713C102.155 30.5698 102.147 30.7682 102.147 30.9667C102.147 32.0385 102.147 33.1024 102.147 34.1742L102.162 34.1662ZM79.7733 41.9625C79.7733 41.6846 79.7657 41.4385 79.7733 41.1845C79.7887 40.9225 79.6734 40.8351 79.4351 40.8431C78.8584 40.851 78.2818 40.8351 77.7051 40.851C77.4053 40.859 77.2976 40.7637 77.3053 40.4461C77.3207 39.5093 77.3207 38.5645 77.3053 37.6277C77.29 36.5242 77.4745 36.6909 76.3673 36.6671C76.0598 36.6671 75.9675 36.7861 75.9675 37.0878C75.9752 38.5804 75.9829 40.0809 75.9675 41.5735C75.9675 41.9149 76.0905 42.0022 76.3981 41.9943C77.3822 41.9784 78.374 41.9943 79.3582 41.9943C79.4812 41.9943 79.6042 41.9784 79.7733 41.9625ZM95.7578 35.5238C95.7116 35.3809 95.6809 35.2698 95.6348 35.1666C94.9889 33.5708 94.3431 31.975 93.7049 30.3713C93.5896 30.0696 93.4205 29.9902 93.1283 29.9902C92.8284 29.9902 92.6747 30.1014 92.5594 30.3872C91.9443 31.9512 91.3061 33.5152 90.6757 35.0713C90.6142 35.2221 90.5757 35.3809 90.5219 35.5397C91.16 35.6747 91.2062 35.6508 91.4138 35.1189C91.5137 34.8728 91.5829 34.6108 91.7136 34.3885C91.7828 34.2694 91.9443 34.1424 92.075 34.1345C92.5055 34.1027 92.9438 34.1186 93.382 34.1186C94.0842 34.1186 94.5686 34.4547 94.8352 35.1269C95.0427 35.6508 95.1427 35.6985 95.7578 35.5318V35.5238ZM86.8314 39.3664C86.8314 38.7551 86.8314 38.1517 86.8314 37.5404C86.816 36.5559 86.9852 36.6909 85.9703 36.6591C85.6089 36.6512 85.509 36.7861 85.5167 37.1434C85.532 38.4375 85.5167 39.7316 85.5244 41.0336C85.5397 42.1451 85.3091 41.9704 86.4931 41.9943C86.7622 41.9943 86.8468 41.899 86.8468 41.6291C86.8314 40.8748 86.8468 40.1206 86.8468 39.3664H86.8314ZM97.1801 32.8166C97.1801 31.9988 97.1725 31.1811 97.1801 30.3633C97.1801 30.0617 97.0571 29.9823 96.788 29.9823C96.5036 29.9823 96.4497 30.1172 96.4497 30.3713C96.4497 31.9829 96.4574 33.5946 96.4497 35.1983C96.4497 35.4841 96.5266 35.5953 96.8188 35.6032C97.1186 35.6032 97.1878 35.4682 97.1801 35.1904C97.1725 34.3965 97.1801 33.6105 97.1801 32.8166ZM70.0012 32.7372C70.0012 33.5708 70.0012 34.4044 70.0012 35.2301C70.0012 35.5079 70.0935 35.6032 70.3549 35.6032C70.624 35.6032 70.7086 35.4921 70.7086 35.2301C70.7009 33.6025 70.7009 31.9829 70.7086 30.3554C70.7086 30.0775 70.6163 29.9823 70.3549 29.9823C70.0858 29.9823 70.0012 30.0855 70.0012 30.3554C70.0166 31.1493 70.0012 31.9432 70.0012 32.7292V32.7372Z" fill="black"/>
<path d="M60.8675 39.6284C61.4211 40.1603 61.4211 40.1603 60.9367 40.7319C60.6753 41.0416 60.4292 41.3591 60.1448 41.6529C59.7219 42.0975 59.276 42.5183 58.7993 42.9946C58.7993 42.9311 58.7839 42.9629 58.7993 42.9787C59.1452 43.6059 59.1299 43.6536 58.484 43.9632C58.2149 44.0902 57.9535 44.2252 57.6844 44.3443C57.5691 44.3919 57.4307 44.4554 57.3154 44.4316C56.831 44.3363 56.362 44.2966 55.8699 44.4316C55.77 44.4634 55.5701 44.3046 55.4932 44.1775C55.2702 43.8441 55.0857 43.4789 54.8704 43.1296C54.6475 42.7564 54.1631 42.7564 53.9401 43.1296C53.7479 43.4471 53.5557 43.7568 53.3865 44.0823C53.2405 44.3601 53.0636 44.4554 52.7638 44.3681C52.5639 44.3046 52.3178 44.2411 52.1256 44.3046C51.2722 44.5904 50.6571 44.0188 49.9728 43.7012C49.8883 43.6615 49.8421 43.4074 49.8575 43.2645C49.8729 43.1375 49.9882 43.0184 50.0497 42.9073C50.0344 42.8596 50.0344 42.8199 50.019 42.812C49.0348 42.296 48.489 41.3115 47.7586 40.5255C47.4203 40.1603 47.4433 40.0809 47.8278 39.7395C47.8739 39.6998 47.9046 39.6443 47.9738 39.5649C47.6817 39.4061 47.4049 39.2632 47.1435 39.1044C46.9897 39.0091 46.8052 38.9139 46.7283 38.771C46.4131 38.1676 46.1286 37.5483 45.8595 36.9132C45.8134 36.7941 45.8826 36.5797 45.9671 36.4607C46.0901 36.2939 46.2747 36.1828 46.4284 36.0478C46.3669 35.9208 46.3516 35.8414 46.3054 35.8096C45.8595 35.4841 45.8595 35.1031 46.0517 34.6029C46.4284 33.6105 46.759 32.5863 47.0666 31.5701C47.1973 31.1255 47.4203 30.9191 47.8585 30.8635C48.4967 30.7762 48.489 30.7524 48.4044 30.0855C48.3275 29.498 48.3429 29.4742 48.8734 29.2042C49.2194 29.0296 49.5884 28.8946 49.9037 28.6803C50.8186 28.0689 51.8335 27.9419 52.8791 27.9895C53.0559 27.9975 53.2328 28.1404 53.4096 28.2277C53.4173 28.2277 53.425 28.2515 53.4327 28.2595C54.2861 28.9264 54.2707 29.8711 54.2246 30.8397C54.2169 30.9985 54.1246 31.2684 54.5168 31.2605C54.5168 30.7762 54.5398 30.3078 54.5168 29.8394C54.4937 29.4265 54.6475 29.1248 54.8704 28.7914C55.301 28.1483 55.8161 27.934 56.585 27.9895C57.3384 28.0451 58.0073 28.2357 58.6609 28.5929C59.1222 28.847 59.5989 29.0772 60.0756 29.3074C60.3293 29.4345 60.4215 29.6091 60.3908 29.9108C60.2908 30.7683 60.2985 30.7841 61.1135 30.935C61.4134 30.9906 61.5518 31.1493 61.644 31.4272C62.0054 32.5387 62.3667 33.6581 62.7665 34.7617C62.9203 35.1824 62.8972 35.4921 62.5436 35.7699C62.4744 35.8176 62.4359 35.9129 62.3898 35.9764C62.4206 36.024 62.4282 36.0637 62.459 36.0955C63.1433 36.7862 63.0818 36.6512 62.6589 37.5721C62.6205 37.6595 62.5743 37.7389 62.5436 37.8262C62.2899 38.6201 61.8209 39.2076 61.0289 39.4855C60.9597 39.5093 60.9136 39.5728 60.829 39.6363L60.8675 39.6284ZM56.5388 31.8639C57.4615 31.5542 58.2995 31.2684 59.2375 30.9509C58.2918 30.1728 57.4384 29.4504 56.5542 28.7517C56.4158 28.6485 56.1775 28.6882 55.9084 28.6485C56.1314 29.76 56.3313 30.7841 56.5465 31.8559L56.5388 31.8639ZM52.9329 28.7438C52.8945 28.6961 52.8637 28.6485 52.8253 28.6009C52.5793 28.6961 52.3025 28.7438 52.0949 28.9025C51.3722 29.4662 50.6725 30.0696 49.9652 30.6492C49.8652 30.7286 49.7422 30.7683 49.6269 30.8238C49.6653 30.8715 49.6961 30.927 49.7345 30.9747C50.5802 31.2605 51.4183 31.5384 52.3102 31.84C52.5254 30.7683 52.7253 29.752 52.9252 28.7358L52.9329 28.7438ZM52.6331 38.7948C53.6326 37.8659 53.794 36.7623 53.5711 35.5C52.7407 35.7223 51.9257 35.9367 51.0416 36.1748C51.6028 37.0958 52.1179 37.9453 52.6331 38.7948ZM55.2856 35.5238C55.0473 36.7862 55.2241 37.8976 56.2159 38.8265C56.7387 37.9691 57.2616 37.1117 57.8151 36.1987C56.9156 35.9605 56.1006 35.7461 55.2856 35.5318V35.5238ZM52.6715 32.7848C52.1487 33.6661 51.6489 34.5076 51.1492 35.3492C51.2184 35.3809 51.2415 35.4047 51.2645 35.3968C51.7258 35.2857 52.1795 35.1666 52.6408 35.0554C53.7325 34.7934 53.7402 34.7934 53.6326 33.6264C53.6249 33.5152 53.548 33.3723 53.4634 33.3088C53.2328 33.1262 52.9714 32.9833 52.6715 32.7848ZM56.1775 32.7848C55.7546 33.15 55.1318 33.1976 55.2087 33.9836C55.2856 34.8172 55.2241 34.8172 56.0237 35.0237C56.5696 35.1666 57.1232 35.3015 57.7844 35.4683C57.2154 34.5076 56.708 33.6661 56.1852 32.7769L56.1775 32.7848ZM48.3352 40.2159C48.9733 40.8272 49.3501 41.5735 50.1189 42.0737V38.9059C49.5115 39.3505 48.9503 39.7634 48.3352 40.2159ZM58.7378 41.9943C58.7916 42.026 58.8377 42.0578 58.8915 42.0975C59.422 41.4941 59.9449 40.8828 60.5061 40.2397C59.9064 39.8031 59.3451 39.3902 58.7301 38.9456V42.0022L58.7378 41.9943ZM49.4885 38.0882C49.427 37.9929 49.4193 37.9453 49.3885 37.9294C48.6427 37.461 47.8969 37.0005 47.1512 36.5321C46.8513 36.3416 46.5976 36.7068 46.6207 36.7782C46.8129 37.2863 47.082 37.7547 47.3203 38.247C48.0277 38.1993 48.735 38.1517 49.4808 38.0961L49.4885 38.0882ZM59.3759 38.0088L59.4143 38.1041C59.768 38.1358 60.1217 38.1835 60.4831 38.2073C61.7286 38.2867 61.7363 38.2867 62.1976 37.0879C62.2437 36.9688 62.1745 36.7306 62.0746 36.6353C61.9977 36.5559 61.767 36.54 61.6594 36.5956C61.0828 36.9291 60.5138 37.2943 59.9525 37.6515C59.7603 37.7706 59.5681 37.8897 59.3836 38.0167L59.3759 38.0088ZM59.8987 31.8242C59.6219 32.3402 59.399 32.7451 59.1914 33.1659C59.1683 33.2215 59.2144 33.3564 59.2683 33.3961C59.8526 33.8645 60.4369 34.325 61.0289 34.7855C61.0597 34.7617 61.0904 34.7458 61.1135 34.722C60.7291 33.7931 60.337 32.8563 59.9064 31.8242H59.8987ZM49.0195 31.9194C48.981 31.9194 48.9426 31.9194 48.9041 31.9274C48.5197 32.8563 48.1276 33.7852 47.7432 34.714C47.7739 34.7299 47.797 34.7537 47.8278 34.7696C48.4121 34.3091 49.0041 33.8487 49.5884 33.3803C49.6422 33.3326 49.6884 33.1818 49.6576 33.1183C49.4577 32.7134 49.2348 32.3085 49.0272 31.9115L49.0195 31.9194ZM58.0073 41.764V38.8504C57.523 39.16 57.1155 39.414 56.6849 39.6919C57.1309 40.3906 57.546 41.0336 58.0073 41.764ZM52.1718 39.6601C51.7105 39.3743 51.303 39.1203 50.8263 38.8186V41.6211C50.8493 41.6211 50.8724 41.637 50.8955 41.637C51.3107 40.9939 51.7258 40.3509 52.1718 39.6522V39.6601ZM60.7368 35.5715C60.7521 35.5318 60.7675 35.4921 60.7829 35.4524C60.1832 34.984 59.5835 34.5156 58.9069 33.9836C58.8377 34.5076 58.7762 34.9363 58.7454 35.365C58.7454 35.4286 58.8761 35.5635 58.953 35.5635C59.5451 35.5794 60.1448 35.5715 60.7368 35.5715ZM60.7906 36.3495C60.7829 36.3098 60.7675 36.2781 60.7598 36.2384C60.1294 36.2384 59.4989 36.2384 58.8608 36.2463C58.7839 36.2463 58.6609 36.3813 58.6532 36.4527C58.6301 36.81 58.6455 37.1752 58.6455 37.6674C59.4297 37.1831 60.114 36.7623 60.7906 36.3416V36.3495ZM50.142 35.5159C50.0728 34.984 50.0036 34.5156 49.9267 33.9678C49.2578 34.4997 48.6581 34.9681 48.0584 35.4444C48.0738 35.4683 48.0892 35.4921 48.0969 35.5238H50.1343L50.142 35.5159ZM50.1804 37.6357C50.1804 37.1434 50.1804 36.7703 50.1804 36.3892C50.1804 36.3257 50.0805 36.2225 50.019 36.2225C49.3808 36.2066 48.735 36.2225 48.0969 36.2225C48.0892 36.2542 48.0815 36.2939 48.0738 36.3257C48.7427 36.7385 49.4116 37.1593 50.1881 37.6436L50.1804 37.6357ZM60.4984 31.5701C61.0289 32.8324 61.5364 34.0551 62.0515 35.2777C62.0976 35.2618 62.1438 35.246 62.1976 35.238C62.1822 35.1269 62.1976 34.9998 62.1591 34.8966C61.8362 33.9042 61.4902 32.9277 61.175 31.9353C61.0674 31.6019 60.8829 31.4987 60.5061 31.5781L60.4984 31.5701ZM48.3583 31.5463C48.0046 31.5145 47.8124 31.5463 47.7047 31.8639C47.3818 32.8721 47.0281 33.8804 46.6975 34.8887C46.6668 34.9919 46.6822 35.1189 46.6745 35.2301C46.7129 35.238 46.759 35.2539 46.7975 35.2618C47.3049 34.0392 47.8201 32.8245 48.3506 31.5463H48.3583ZM57.5768 42.3118C57.2001 41.7243 56.8771 41.2162 56.5542 40.7161C56.5235 40.7319 56.485 40.7478 56.4543 40.7637C56.4158 41.1765 56.3697 41.5973 56.3543 42.0101C56.3543 42.0895 56.4773 42.2404 56.5619 42.2483C56.8618 42.288 57.1693 42.288 57.5768 42.3118ZM51.4644 32.364C51.4644 32.3323 51.4644 32.3005 51.4644 32.2688C50.8955 32.0782 50.3188 31.8877 49.7499 31.6892C49.8729 32.102 50.0267 32.4275 50.2112 32.7451C50.2496 32.8086 50.3957 32.8801 50.4495 32.8563C50.7955 32.7054 51.1261 32.5308 51.4644 32.364ZM51.2722 42.2721C51.7028 42.2483 52.018 42.2324 52.3332 42.2007C52.3947 42.2007 52.487 42.0895 52.487 42.026C52.4716 41.5894 52.4332 41.1527 52.4024 40.724L52.2871 40.7002C51.9796 41.1845 51.6643 41.6688 51.2799 42.2721H51.2722ZM57.4076 32.2767C57.4076 32.3164 57.4076 32.3482 57.4 32.3879C57.7229 32.5466 58.0381 32.7134 58.361 32.8563C58.4302 32.888 58.584 32.8563 58.6147 32.8007C58.8146 32.4752 58.9838 32.1259 59.1683 31.7924C59.1452 31.7686 59.1222 31.7448 59.0991 31.713C58.5379 31.9036 57.9766 32.0941 57.4076 32.2767ZM54.5552 39.4617C54.5552 39.0488 54.5552 38.6439 54.5552 38.2311C54.5552 38.1517 54.4706 38.0803 54.4168 38.0009C54.363 38.0803 54.2707 38.1517 54.2707 38.2311C54.263 39.0488 54.263 39.8666 54.2707 40.6922C54.2707 40.7716 54.363 40.8431 54.4168 40.9225C54.4629 40.8431 54.5475 40.7716 54.5475 40.6922C54.5629 40.2794 54.5475 39.8745 54.5475 39.4617H54.5552ZM57.1924 33.0389C57.1693 33.0706 57.1539 33.1024 57.1309 33.1341C57.4384 33.6502 57.7536 34.1742 58.0612 34.6902C58.1919 34.3647 58.238 34.063 58.2611 33.7693C58.2611 33.6819 58.2072 33.547 58.1457 33.5152C57.8382 33.3485 57.5076 33.1977 57.1924 33.0468V33.0389ZM50.7648 34.6902C51.0954 34.1424 51.3952 33.6264 51.7258 33.0706C50.6494 33.2612 50.3803 33.7137 50.7648 34.6902ZM53.6326 29.4265C53.5788 29.4265 53.5173 29.4265 53.4634 29.4265C53.325 30.1172 53.1866 30.8 53.0483 31.5066C53.5557 31.4431 53.6326 31.3637 53.6326 30.935C53.6326 30.4269 53.6326 29.9267 53.6326 29.4186V29.4265ZM55.3856 29.4424C55.3471 29.4424 55.301 29.4424 55.2625 29.4424C55.2472 29.5615 55.2241 29.6806 55.2241 29.7997C55.2241 30.1966 55.2241 30.5936 55.2241 30.9906C55.2241 31.3875 55.3317 31.4828 55.8007 31.4907C55.6623 30.8 55.524 30.1172 55.3933 29.4345L55.3856 29.4424ZM57.0386 43.0661C57.0309 43.0343 57.0232 42.9946 57.0078 42.9629C56.5312 42.939 56.0545 42.9073 55.4855 42.8755C55.6393 43.1455 55.7239 43.3201 55.8392 43.471C55.893 43.5424 56.0468 43.6059 56.1083 43.5742C56.4235 43.4233 56.7234 43.2407 57.0309 43.0661H57.0386ZM53.2712 42.9152H51.8488C51.8642 42.9946 51.8642 43.0264 51.8796 43.0343C52.0334 43.1296 52.1871 43.2248 52.3409 43.3122C52.9714 43.6694 53.0021 43.6615 53.2866 42.947C53.2866 42.939 53.2866 42.9232 53.2789 42.9073L53.2712 42.9152ZM50.7571 29.1487C50.7417 29.1248 50.7263 29.0931 50.7109 29.0693C50.2804 29.2836 49.8575 29.5218 49.4193 29.7044C49.0733 29.8553 49.0348 30.0617 49.204 30.4348C49.7345 29.9902 50.2419 29.5694 50.7571 29.1487ZM58.1457 29.0693C58.1227 29.0931 58.1073 29.1169 58.0842 29.1407C58.6071 29.5694 59.1222 29.9982 59.645 30.4269C59.6911 30.3951 59.7373 30.3634 59.7911 30.3316C59.7219 30.149 59.7065 29.8791 59.5835 29.8076C59.1222 29.5297 58.6301 29.3074 58.1457 29.0693ZM54.2784 36.3257C54.2784 36.5877 54.2707 36.8497 54.2784 37.1117C54.2784 37.1752 54.3707 37.2387 54.4245 37.3022C54.4706 37.2387 54.5552 37.1752 54.5552 37.1117C54.5629 36.6115 54.5629 36.1113 54.5552 35.6112C54.5552 35.5476 54.4706 35.4841 54.4245 35.4286C54.3784 35.4921 54.2861 35.5556 54.2861 35.6191C54.2707 35.8573 54.2861 36.0955 54.2861 36.3257H54.2784ZM53.5941 40.2556V38.7392C52.9252 39.676 52.9022 39.4617 53.5941 40.2556ZM53.0944 40.9304C53.1175 41.2639 53.1251 41.5973 53.1713 41.9308C53.1866 42.0181 53.3174 42.0895 53.3942 42.1689C53.4788 42.0816 53.6172 42.0101 53.6403 41.9069C53.7402 41.4623 53.4711 41.1765 53.1021 40.9225L53.0944 40.9304ZM55.7854 40.9384C55.4086 41.2083 55.1395 41.502 55.2395 41.9625C55.2625 42.0498 55.3779 42.161 55.4624 42.1848C55.524 42.2007 55.6777 42.0895 55.6931 42.0181C55.7469 41.6608 55.7623 41.3036 55.7931 40.9384H55.7854ZM55.2625 38.771V40.2873C55.9314 39.549 55.9468 39.6602 55.2625 38.771ZM57.9382 37.2546C57.6767 37.6912 57.4461 38.0723 57.177 38.5248C58.0381 38.1596 58.1457 37.985 57.9382 37.2546ZM51.6951 38.4931C51.4183 38.0326 51.1876 37.6515 50.9185 37.2149C50.7417 37.985 50.8417 38.1517 51.6951 38.4931ZM54.2169 34.1027C54.24 34.1107 54.263 34.1186 54.2784 34.1265C54.2784 34.2615 54.263 34.3965 54.2784 34.5235C54.2938 34.5949 54.3707 34.6505 54.4245 34.7061C54.4706 34.6426 54.5398 34.5791 54.5552 34.5156C54.5783 34.3885 54.5783 34.2456 54.5552 34.1186C54.5245 33.936 54.4629 33.7613 54.4091 33.5787C54.3399 33.7534 54.2707 33.9281 54.2015 34.1027H54.2169ZM54.4399 32.9039C54.4706 32.888 54.5091 32.8721 54.5398 32.8483C54.5475 32.761 54.5783 32.6657 54.5629 32.5784C54.5245 32.372 54.4706 32.1656 54.4168 31.9591C54.3707 32.1814 54.3015 32.4037 54.2784 32.626C54.2784 32.7134 54.3784 32.8086 54.4322 32.9039H54.4399ZM48.2045 38.8662C48.6966 39.1838 48.7734 39.1679 48.9887 38.7789C48.7504 38.8027 48.5274 38.8265 48.2045 38.8662ZM54.6398 41.9069C54.5552 41.7879 54.4937 41.7005 54.4322 41.6132C54.3784 41.7005 54.2861 41.7879 54.2938 41.8752C54.2938 41.9784 54.3861 42.0816 54.4322 42.1769C54.4937 42.0975 54.5552 42.0181 54.6398 41.899V41.9069ZM60.6906 38.8821C60.36 38.8662 60.1371 38.8504 59.8218 38.8345C60.0781 39.0726 60.3677 39.0885 60.6906 38.8821ZM51.4567 43.6853C51.4721 43.6536 51.4952 43.6218 51.5106 43.59C51.2568 43.4551 50.9954 43.3122 50.7417 43.1772L50.6879 43.2804C50.7494 43.3201 50.8032 43.3757 50.8724 43.4074C51.0646 43.5027 51.2645 43.59 51.4567 43.6853Z" fill="white"/>
<path d="M88.8461 39.0567C88.8461 39.1917 88.8307 39.3346 88.8307 39.4695C88.8307 40.1999 88.8307 40.9224 88.8307 41.6528C88.8307 41.8433 88.8077 41.9704 88.5693 41.9863C87.6006 42.0656 87.6006 42.0736 87.6006 41.0653C87.6006 39.7395 87.6083 38.4216 87.6006 37.0957C87.6006 36.7781 87.7005 36.6829 88.0158 36.6432C88.6693 36.5638 89.0845 36.7861 89.4151 37.3895C89.7841 38.0643 90.2454 38.6915 90.6683 39.3346C90.7375 39.4378 90.8144 39.541 90.9528 39.7474C90.9682 39.4933 90.9835 39.3584 90.9835 39.2155C90.9835 38.4851 90.9912 37.7626 90.9835 37.0322C90.9835 36.7623 91.0681 36.6511 91.3372 36.6511C92.4136 36.667 92.2368 36.5479 92.2444 37.5244C92.2521 38.8741 92.2444 40.2238 92.2444 41.5655C92.2444 41.8672 92.1522 41.9466 91.8523 41.9863C91.1527 42.0815 90.7221 41.8195 90.3761 41.1765C89.9686 40.4222 89.4458 39.7315 88.9768 39.0091C88.9384 39.017 88.8999 39.0329 88.8615 39.0408L88.8461 39.0567Z" fill="white"/>
<path d="M96.734 39.9697C96.4264 39.9697 96.1266 39.9618 95.819 39.9697C95.5499 39.9776 95.4423 39.8665 95.473 39.5886C95.473 39.5728 95.473 39.5648 95.473 39.5489C95.4679 39.1149 95.6704 38.8953 96.0804 38.89C96.5802 38.89 97.0799 38.89 97.5797 38.89C97.8104 38.89 97.9026 38.9694 97.9026 39.2155C97.9026 40.0332 97.9026 40.8589 97.9026 41.6766C97.9026 41.8989 97.8104 42.0021 97.6028 41.9704C97.326 41.9307 96.9262 42.1609 96.8493 41.6766C96.4572 41.8116 96.0804 42.018 95.6883 42.0657C93.3433 42.3515 92.3823 40.2238 92.8743 38.4454C93.2434 37.1275 94.4735 36.3733 95.8882 36.5559C96.4572 36.6273 96.98 36.8179 97.4259 37.2069C97.5951 37.3577 97.6412 37.4927 97.449 37.6594C97.3644 37.7388 97.2722 37.8182 97.203 37.9135C97.0031 38.1675 96.8416 38.2231 96.5418 38.0008C95.8652 37.4847 94.9272 37.6038 94.4582 38.2072C93.9507 38.8503 93.9969 39.9777 94.5427 40.5493C94.9964 41.0336 95.8575 41.1368 96.3803 40.7319C96.5725 40.581 96.6878 40.327 96.8416 40.1206C96.8032 40.0729 96.7647 40.0253 96.734 39.9776V39.9697Z" fill="white"/>
<path d="M72.684 42.0975C71.054 42.0975 69.9238 40.9463 69.9238 39.3109C69.9238 37.6833 71.0848 36.5321 72.7071 36.5401C74.337 36.548 75.4365 37.6913 75.4288 39.3585C75.4288 40.994 74.314 42.0975 72.684 42.0975ZM74.0833 39.3188C74.0833 38.5725 73.7527 37.993 73.2145 37.7707C72.1843 37.3499 71.1847 38.2073 71.277 39.422C71.3385 40.2477 71.7537 40.8193 72.3995 40.9384C73.376 41.121 74.091 40.4382 74.0833 39.3109V39.3188Z" fill="white"/>
<path d="M80.0731 39.3425C80.0731 38.5724 80.0654 37.8102 80.0808 37.0401C80.0808 36.9131 80.2269 36.6829 80.3037 36.6829C81.2648 36.6987 82.2336 36.6511 83.1716 36.8178C84.3095 37.0163 84.9553 38.0166 84.963 39.2949C84.9707 40.5413 84.271 41.621 83.1485 41.8116C82.2105 41.9783 81.2417 41.9386 80.2807 41.9624C80.2115 41.9624 80.0808 41.756 80.0731 41.6449C80.0577 40.8748 80.0654 40.1126 80.0654 39.3425H80.0731ZM82.0567 37.7785C81.6262 37.7785 81.4109 37.9981 81.4109 38.4374C81.4109 38.9773 81.4109 39.5251 81.4109 40.065C81.4109 40.9144 81.4109 40.9065 82.2566 40.8589C82.7641 40.8271 83.1792 40.6525 83.4253 40.1682C84.0327 38.9535 83.3638 37.7864 82.0567 37.7785Z" fill="white"/>
<path d="M68.0559 38.7073C68.0559 38.1357 68.0713 37.6117 68.0559 37.0798C68.0406 36.7464 68.1636 36.6431 68.4788 36.6431C69.586 36.667 69.386 36.5161 69.3937 37.58C69.4091 38.9058 69.3937 40.2237 69.4014 41.5496C69.4014 41.8751 69.3092 41.9783 68.9862 41.9783C68.0559 41.9783 68.0559 41.9783 68.0559 41.0176C68.0559 40.7239 68.079 40.4301 68.0406 40.1443C68.0252 40.0411 67.8791 39.8823 67.7792 39.8744C67.3178 39.8426 66.8565 39.8744 66.3952 39.8585C66.1646 39.8585 66.08 39.9458 66.08 40.192C66.0954 40.6842 66.08 41.1685 66.08 41.6607C66.08 41.8751 66.0108 41.9624 65.7955 41.9783C64.7499 42.0497 64.7499 42.0577 64.7499 40.9779C64.7499 39.6918 64.7653 38.4136 64.7422 37.1274C64.7422 36.7305 64.8729 36.6273 65.2266 36.6431C66.2338 36.667 66.0569 36.5558 66.0723 37.5006C66.0723 37.8023 66.0569 38.1119 66.0877 38.4136C66.0954 38.5168 66.2261 38.6915 66.303 38.6915C66.8642 38.7153 67.4255 38.7073 68.0406 38.7073H68.0559Z" fill="white"/>
<path d="M102.746 37.3658C102.562 37.5881 102.4 37.8263 102.193 38.0089C102.116 38.0804 101.924 38.0566 101.801 38.0248C101.347 37.9057 100.901 37.7549 100.448 37.6517C100.325 37.6199 100.148 37.6517 100.04 37.7231C99.894 37.8184 99.7248 37.9772 99.7018 38.128C99.6864 38.2312 99.9017 38.4376 100.04 38.4773C100.509 38.6123 100.993 38.6758 101.47 38.787C102.408 39.0093 102.854 39.5809 102.816 40.4859C102.8 40.9385 102.616 41.3037 102.277 41.5816C101.316 42.3834 99.1482 42.2564 98.2256 41.3037C98.4101 41.0655 98.5793 40.7956 98.7945 40.5812C98.856 40.5177 99.079 40.5415 99.1867 40.605C99.7325 40.9305 100.309 41.0417 100.924 40.9464C101.186 40.9067 101.455 40.8273 101.47 40.4939C101.486 40.1763 101.216 40.089 100.978 40.0255C100.478 39.8984 99.9709 39.8191 99.4788 39.6682C98.5793 39.3903 98.1641 38.6361 98.4024 37.7787C98.5331 37.2944 98.8484 36.9609 99.2866 36.7942C100.378 36.3655 101.447 36.4687 102.462 37.0721C102.531 37.1118 102.585 37.1594 102.646 37.215C102.685 37.2468 102.708 37.2944 102.754 37.3658H102.746Z" fill="white"/>
<path d="M68.1715 32.65C69.0096 33.2295 69.2095 33.7535 68.9327 34.5395C68.7482 35.0714 68.3637 35.4287 67.8409 35.4763C66.9029 35.5557 65.9495 35.5636 65.0038 35.5716C64.927 35.5716 64.7732 35.3969 64.7732 35.3017C64.7578 33.6265 64.7732 31.9434 64.7578 30.2682C64.7578 29.9903 64.9193 29.9824 65.1115 29.9824C65.8188 29.9824 66.5185 29.9665 67.2258 29.9824C67.8563 30.0062 68.4791 30.1253 68.7251 30.8478C68.9711 31.5623 68.7943 32.1736 68.1638 32.642L68.1715 32.65ZM66.5339 34.9682C66.9029 34.9365 67.2796 34.9365 67.6333 34.8571C68.1254 34.7459 68.3022 34.4363 68.2792 33.8885C68.2638 33.4439 68.0485 33.174 67.5718 33.1104C67.1413 33.0469 66.7107 33.031 66.2725 33.039C65.3652 33.039 65.4805 32.8961 65.4728 33.8408C65.4728 34.9365 65.4728 34.9365 66.5339 34.9682ZM66.5031 30.6493C66.5031 30.6493 66.5031 30.6334 66.5031 30.6255C66.2494 30.6255 65.988 30.6017 65.7343 30.6334C65.642 30.6493 65.4882 30.7843 65.4805 30.8716C65.4575 31.3082 65.4575 31.7449 65.4805 32.1736C65.4805 32.253 65.6036 32.4039 65.6651 32.4039C66.2648 32.4039 66.8645 32.4118 67.4565 32.3403C67.9101 32.2848 68.1331 31.9275 68.11 31.4591C68.0869 30.9986 67.8409 30.7049 67.3719 30.6493C67.0797 30.6175 66.7876 30.6493 66.4954 30.6493H66.5031Z" fill="white"/>
<path d="M84.0482 32.6656C84.7555 33.007 85.04 33.5231 84.9093 34.2614C84.7786 34.9601 84.3403 35.4285 83.633 35.492C82.7411 35.5634 81.8493 35.5634 80.9497 35.5714C80.8574 35.5714 80.6883 35.3888 80.6883 35.2935C80.6729 33.6183 80.6729 31.9352 80.6883 30.2601C80.6883 30.1648 80.8651 29.9981 80.9574 29.9901C81.7262 29.9743 82.4951 29.9663 83.2563 29.9901C83.879 30.0139 84.4326 30.2124 84.6402 30.9031C84.8478 31.5938 84.6709 32.1813 84.0405 32.6656H84.0482ZM82.4259 34.9759C82.818 34.9283 83.2178 34.9204 83.5945 34.833C84.0328 34.7219 84.2096 34.3964 84.1789 33.8962C84.1558 33.4675 83.9405 33.1817 83.5023 33.1182C83.0487 33.0547 82.5874 33.0388 82.126 33.0308C81.2572 33.0308 81.3572 32.9118 81.3572 33.8327C81.3572 34.9362 81.3572 34.9362 82.4182 34.9759H82.4259ZM82.3336 32.4433C82.6642 32.4195 83.0025 32.4195 83.3255 32.356C83.8175 32.2607 84.0174 31.967 84.002 31.4589C83.9867 30.9746 83.7406 30.6967 83.2332 30.6411C82.8795 30.6094 82.5182 30.6173 82.1568 30.6173C81.3572 30.6173 81.3572 30.6173 81.3572 31.4271C81.3572 32.2369 81.3572 32.4195 82.3336 32.4433Z" fill="white"/>
<path d="M75.9904 35.0079C75.2216 35.6986 74.3835 35.8653 73.507 35.6033C73.1072 35.4842 72.7074 35.2381 72.3999 34.9443C71.3619 33.9599 71.2312 31.0224 73.1226 30.1173C74.1298 29.633 75.5291 29.8156 76.2518 30.5619C76.3671 30.681 76.567 30.8001 76.3518 31.0144C76.1826 31.1812 76.0442 31.2844 75.8059 31.07C75.1062 30.4587 74.3066 30.3158 73.4763 30.7286C72.6305 31.1494 72.4076 31.9671 72.4152 32.8563C72.4152 33.166 72.4768 33.4915 72.569 33.7932C72.7997 34.5553 73.4301 35.0158 74.222 35.0396C75.0447 35.0634 75.629 34.7062 75.8905 34.0234C75.9058 33.9837 75.9212 33.9519 75.9289 33.9122C76.1057 33.3168 76.0596 33.2454 75.4676 33.2454C75.16 33.2454 74.8525 33.2374 74.545 33.2454C74.322 33.2454 74.2528 33.1421 74.2605 32.9278C74.2605 32.7293 74.2989 32.5864 74.5296 32.5943C75.1447 32.5943 75.7598 32.5864 76.3748 32.6102C76.4748 32.6102 76.6439 32.7769 76.6516 32.8722C76.6747 33.682 76.6747 34.4839 76.6516 35.2937C76.6516 35.3889 76.4978 35.5318 76.3825 35.5715C76.2134 35.6192 76.0442 35.5715 76.0365 35.3254C76.0365 35.246 76.0212 35.1746 75.9981 35.0079H75.9904Z" fill="white"/>
<path d="M88.7072 33.2215C89.2531 33.9996 89.7682 34.7459 90.291 35.5001C89.7067 35.6827 89.5298 35.6351 89.23 35.2063C88.8686 34.6903 88.4919 34.1901 88.1613 33.6582C87.9614 33.3327 87.723 33.2374 87.3694 33.2533C86.5006 33.2851 86.6159 33.158 86.6082 34.0393C86.6082 34.4521 86.6005 34.857 86.6082 35.2698C86.6159 35.5398 86.4929 35.6112 86.2545 35.6033C86.0162 35.6033 85.8701 35.5636 85.8701 35.2619C85.8778 33.6264 85.8701 31.983 85.8701 30.3476C85.8701 30.0935 85.9624 29.9903 86.2084 29.9982C86.9004 30.0062 87.5923 29.9982 88.2843 30.0062C88.4842 30.0062 88.6918 30.0459 88.8917 30.0935C89.4914 30.2443 89.9296 30.7366 89.9988 31.3241C90.0911 32.0862 89.8374 32.6579 89.23 32.9992C89.0839 33.0786 88.9301 33.1421 88.6995 33.2454L88.7072 33.2215ZM86.6159 31.6337C86.6159 31.8878 86.6005 32.1339 86.6236 32.3879C86.6313 32.4832 86.7543 32.642 86.8158 32.642C87.4232 32.6261 88.046 32.6261 88.6457 32.5308C89.0916 32.4594 89.3069 32.1101 89.3069 31.6416C89.3069 31.1653 89.1224 30.8398 88.6764 30.7286C88.3381 30.6413 87.9691 30.6175 87.6154 30.6095C86.6082 30.5937 86.6082 30.6095 86.6082 31.6416L86.6159 31.6337Z" fill="white"/>
<path d="M102.162 34.1582C102.162 33.0865 102.162 32.0226 102.162 30.9508C102.162 30.7523 102.17 30.5538 102.162 30.3554C102.147 30.1172 102.201 29.9822 102.47 29.9743C102.747 29.9743 102.823 30.0854 102.823 30.3554C102.823 31.9432 102.823 33.531 102.816 35.1189C102.816 35.2697 102.731 35.5238 102.639 35.5555C102.401 35.6349 102.155 35.6111 101.962 35.3412C101.324 34.3964 100.663 33.4755 100.009 32.5386C99.7249 32.1337 99.4405 31.7368 99.0637 31.3636C99.056 31.4986 99.0407 31.6336 99.0407 31.7685C99.0407 32.8642 99.0407 33.9677 99.0407 35.0633C99.0407 35.3015 99.1252 35.5873 98.7178 35.5873C98.3256 35.5873 98.3718 35.3332 98.3718 35.0792C98.3718 33.5549 98.3718 32.0385 98.3718 30.5142C98.3718 30.3236 98.2564 30.0457 98.564 29.9902C98.8254 29.9425 99.0791 29.9346 99.279 30.2283C99.971 31.2446 100.686 32.2449 101.393 33.2532C101.616 33.5707 101.839 33.8883 102.062 34.1979C102.101 34.1821 102.139 34.1662 102.178 34.1503L102.162 34.1582Z" fill="white"/>
<path d="M79.7658 41.9467C79.5966 41.9625 79.4736 41.9784 79.3506 41.9784C78.3665 41.9784 77.3746 41.9705 76.3905 41.9784C76.083 41.9784 75.96 41.899 75.96 41.5576C75.9753 40.0651 75.9753 38.5646 75.96 37.072C75.96 36.7703 76.0522 36.6433 76.3598 36.6512C77.4746 36.675 77.2901 36.5083 77.2978 37.6119C77.3055 38.5487 77.3131 39.4935 77.2978 40.4303C77.2978 40.7479 77.3977 40.8431 77.6976 40.8352C78.2742 40.8114 78.8508 40.8352 79.4275 40.8272C79.6735 40.8272 79.7812 40.9066 79.7658 41.1686C79.7504 41.4147 79.7658 41.6688 79.7658 41.9467Z" fill="white"/>
<path d="M95.7496 35.5079C95.1345 35.6746 95.0345 35.627 94.8269 35.103C94.5604 34.4308 94.076 34.0947 93.3738 34.0947C92.9356 34.0947 92.505 34.0788 92.0668 34.1106C91.936 34.1185 91.7746 34.2455 91.7054 34.3646C91.5747 34.5869 91.5055 34.8489 91.4055 35.095C91.1903 35.6269 91.1518 35.6508 90.5137 35.5158C90.5675 35.357 90.6059 35.1982 90.6674 35.0474C91.2979 33.4834 91.936 31.9273 92.5511 30.3633C92.6665 30.0695 92.8202 29.9663 93.1201 29.9663C93.4122 29.9663 93.5814 30.0536 93.6967 30.3474C94.3272 31.9511 94.9807 33.5469 95.6265 35.1427C95.6727 35.2538 95.7034 35.365 95.7496 35.4999V35.5079ZM92.0744 33.4278H94.1734C93.8274 32.5545 93.5045 31.7288 93.1739 30.9031C93.1355 30.9031 93.1047 30.9031 93.0663 30.9031C92.7433 31.7288 92.4127 32.5545 92.0744 33.4199V33.4278Z" fill="white"/>
<path d="M86.8233 39.3585C86.8233 40.1127 86.8156 40.8669 86.8233 41.6211C86.8233 41.8911 86.7464 41.9943 86.4696 41.9863C85.2933 41.9625 85.5162 42.1372 85.5009 41.0257C85.4855 39.7316 85.5009 38.4375 85.4932 37.1355C85.4932 36.7782 85.5931 36.6433 85.9468 36.6512C86.9694 36.675 86.8002 36.548 86.8079 37.5325C86.8156 38.1438 86.8079 38.7472 86.8079 39.3585H86.8233Z" fill="white"/>
<path d="M97.1728 32.8087C97.1728 33.6026 97.1728 34.3886 97.1728 35.1825C97.1728 35.4524 97.1113 35.5953 96.8114 35.5953C96.5193 35.5953 96.4424 35.4762 96.4424 35.1904C96.4501 33.5788 96.4501 31.9671 96.4424 30.3634C96.4424 30.1093 96.4962 29.9744 96.7807 29.9744C97.0498 29.9744 97.1805 30.0538 97.1728 30.3554C97.1574 31.1732 97.1728 31.9909 97.1728 32.8087Z" fill="white"/>
<path d="M69.9936 32.7293C69.9936 31.9354 70.0013 31.1415 69.9936 30.3555C69.9936 30.0855 70.0705 29.9744 70.3473 29.9823C70.6087 29.9823 70.7009 30.0776 70.7009 30.3555C70.6933 31.983 70.6933 33.6026 70.7009 35.2301C70.7009 35.5001 70.6241 35.6033 70.3473 35.6033C70.0782 35.6033 69.9859 35.508 69.9936 35.2301C70.009 34.3965 69.9936 33.5629 69.9936 32.7372V32.7293Z" fill="white"/>
<path d="M56.5307 31.8639C56.3154 30.7921 56.1155 29.768 55.8926 28.6565C56.1617 28.6962 56.4077 28.6565 56.5384 28.7597C57.4226 29.4504 58.276 30.1729 59.2217 30.9589C58.2914 31.2764 57.4457 31.5622 56.523 31.8719L56.5307 31.8639Z" fill="black"/>
<path d="M52.9253 28.7439C52.7254 29.7601 52.5255 30.7683 52.3102 31.8481C51.4184 31.5464 50.5726 31.2685 49.7346 30.9827C49.6961 30.9351 49.6654 30.8795 49.627 30.8319C49.7423 30.7763 49.8653 30.7366 49.9652 30.6572C50.6726 30.0776 51.3722 29.4743 52.095 28.9106C52.2949 28.7518 52.5793 28.7042 52.8254 28.6089C52.8638 28.6565 52.8946 28.7042 52.933 28.7518L52.9253 28.7439Z" fill="black"/>
<path d="M52.6325 38.787C52.1174 37.9375 51.6023 37.088 51.041 36.167C51.9252 35.9288 52.7479 35.7145 53.5705 35.4922C53.7935 36.7545 53.632 37.8581 52.6325 38.787Z" fill="black"/>
<path d="M55.2851 35.516C56.1001 35.7304 56.9151 35.9447 57.8147 36.1829C57.2611 37.0959 56.7383 37.9533 56.2155 38.8108C55.2236 37.8898 55.0468 36.7783 55.2851 35.5081V35.516Z" fill="black"/>
<path d="M52.6639 32.7769C52.9638 32.9674 53.2175 33.1182 53.4558 33.3008C53.5404 33.3644 53.6173 33.5073 53.625 33.6184C53.7326 34.7855 53.7249 34.7855 52.6332 35.0475C52.1719 35.1586 51.7182 35.2777 51.2569 35.3888C51.2416 35.3888 51.2108 35.373 51.1416 35.3412C51.6414 34.4997 52.1411 33.666 52.6639 32.7769Z" fill="black"/>
<path d="M56.1771 32.7849C56.6999 33.6662 57.2074 34.5157 57.7763 35.4763C57.1151 35.3096 56.5615 35.1667 56.0157 35.0317C55.2237 34.8253 55.2776 34.8253 55.2007 33.9917C55.1315 33.2057 55.7466 33.1581 56.1694 32.7929L56.1771 32.7849Z" fill="black"/>
<path d="M48.335 40.2079C48.9577 39.7554 49.5113 39.3425 50.1187 38.8979V42.0657C49.3498 41.5655 48.9731 40.8113 48.335 40.2079Z" fill="black"/>
<path d="M58.7373 41.9943V38.9377C59.3447 39.3823 59.906 39.7952 60.5134 40.2318C59.9521 40.8828 59.4216 41.4862 58.8988 42.0896C58.8449 42.0578 58.7988 42.0261 58.745 41.9864L58.7373 41.9943Z" fill="black"/>
<path d="M49.4885 38.0883C48.7428 38.1439 48.0354 38.1915 47.3281 38.2391C47.082 37.7549 46.8206 37.2785 46.6284 36.7704C46.6053 36.6989 46.8591 36.3417 47.1589 36.5243C47.9047 36.9848 48.6505 37.4532 49.3963 37.9216C49.427 37.9375 49.4347 37.9851 49.4962 38.0804L49.4885 38.0883Z" fill="black"/>
<path d="M59.3759 38.0088C59.5681 37.8897 59.7526 37.7627 59.9448 37.6436C60.5138 37.2864 61.075 36.9212 61.6517 36.5877C61.7593 36.5242 61.9899 36.5401 62.0668 36.6274C62.1668 36.7306 62.236 36.9608 62.1898 37.0799C61.7285 38.2788 61.7208 38.2788 60.4753 38.1994C60.1216 38.1755 59.768 38.1358 59.4066 38.0962L59.3682 38.0009L59.3759 38.0088Z" fill="black"/>
<path d="M59.8989 31.8242C60.3294 32.8643 60.7215 33.7931 61.106 34.722C61.0752 34.7458 61.0444 34.7617 61.0214 34.7855C60.4371 34.3251 59.845 33.8646 59.2607 33.3962C59.2069 33.3565 59.1608 33.2136 59.1838 33.1659C59.3914 32.7452 59.6144 32.3403 59.8912 31.8242H59.8989Z" fill="black"/>
<path d="M49.0193 31.9116C49.2346 32.3165 49.4499 32.7135 49.6498 33.1184C49.6805 33.1819 49.6421 33.3327 49.5806 33.3804C49.004 33.8488 48.4119 34.3093 47.8199 34.7697C47.7892 34.7538 47.7661 34.73 47.7354 34.7142C48.1198 33.7853 48.5119 32.8564 48.8963 31.9275C48.9348 31.9275 48.9732 31.9275 49.0116 31.9196L49.0193 31.9116Z" fill="black"/>
<path d="M58.007 41.7562C57.538 41.0258 57.1305 40.3827 56.6846 39.6841C57.1151 39.4062 57.5226 39.1522 58.007 38.8425V41.7562Z" fill="black"/>
<path d="M52.1717 39.6522C51.7257 40.3509 51.3105 40.9939 50.8954 41.637C50.8723 41.637 50.8492 41.6211 50.8262 41.6211V38.8186C51.3029 39.1203 51.7104 39.3664 52.1717 39.6602V39.6522Z" fill="black"/>
<path d="M60.7364 35.5637C60.1444 35.5637 59.5447 35.5637 58.9527 35.5557C58.8758 35.5557 58.7451 35.4208 58.7451 35.3573C58.7759 34.9285 58.8451 34.5078 58.9066 33.9758C59.5832 34.5078 60.1829 34.9762 60.7826 35.4446C60.7672 35.4843 60.7518 35.524 60.7364 35.5637Z" fill="black"/>
<path d="M60.7907 36.3415C60.1142 36.7623 59.4376 37.1751 58.6456 37.6674C58.6456 37.1751 58.6303 36.8099 58.6533 36.4527C58.6533 36.3733 58.784 36.2463 58.8609 36.2463C59.4914 36.2304 60.1218 36.2383 60.76 36.2383C60.7677 36.278 60.7831 36.3098 60.7907 36.3495V36.3415Z" fill="black"/>
<path d="M50.1413 35.508H48.1039C48.0885 35.4842 48.0731 35.4604 48.0654 35.4286C48.6651 34.9522 49.2648 34.4838 49.9337 33.9519C50.0106 34.4997 50.0721 34.9761 50.149 35.5L50.1413 35.508Z" fill="black"/>
<path d="M50.1798 37.6277C49.4032 37.1434 48.7343 36.7305 48.0654 36.3098C48.0731 36.278 48.0808 36.2383 48.0885 36.2065C48.7266 36.2065 49.3725 36.2065 50.0106 36.2065C50.0644 36.2065 50.1644 36.3177 50.1721 36.3733C50.1875 36.7464 50.1721 37.1275 50.1721 37.6197L50.1798 37.6277Z" fill="black"/>
<path d="M60.4979 31.5701C60.8747 31.4907 61.0592 31.5939 61.1668 31.9274C61.4821 32.9198 61.828 33.9042 62.151 34.8887C62.1894 34.9919 62.1817 35.1189 62.1894 35.2301C62.1433 35.2459 62.0971 35.2618 62.0433 35.2698C61.5282 34.0471 61.0207 32.8245 60.4902 31.5622L60.4979 31.5701Z" fill="black"/>
<path d="M48.3578 31.5463C47.8273 32.8166 47.3122 34.0392 46.8048 35.2619C46.7663 35.2539 46.7202 35.238 46.6817 35.2301C46.6817 35.119 46.6664 34.9919 46.7048 34.8887C47.0354 33.8804 47.3891 32.8722 47.712 31.8639C47.812 31.5463 48.0119 31.5146 48.3655 31.5463H48.3578Z" fill="black"/>
<path d="M57.577 42.3038C57.1618 42.28 56.8619 42.28 56.5621 42.2403C56.4775 42.2323 56.3545 42.0815 56.3545 42.0021C56.3699 41.5813 56.416 41.1685 56.4544 40.7556C56.4852 40.7398 56.5236 40.7239 56.5544 40.708C56.8773 41.2161 57.2002 41.7163 57.577 42.3038Z" fill="black"/>
<path d="M51.4645 32.356C51.1262 32.5227 50.788 32.6974 50.4497 32.8482C50.3881 32.872 50.2498 32.8085 50.2113 32.7371C50.0268 32.4274 49.8653 32.1019 49.75 31.6812C50.319 31.8717 50.8956 32.0622 51.4645 32.2607C51.4645 32.2925 51.4645 32.3242 51.4645 32.356Z" fill="black"/>
<path d="M51.2723 42.2722C51.6568 41.6688 51.9643 41.1845 52.2795 40.7002L52.3949 40.724C52.4256 41.1607 52.4641 41.5973 52.4794 42.026C52.4794 42.0816 52.3872 42.1928 52.3257 42.2007C52.0181 42.2325 51.7029 42.2483 51.2646 42.2722H51.2723Z" fill="black"/>
<path d="M57.4071 32.2768C57.9684 32.0863 58.5296 31.8957 59.0986 31.7131C59.1216 31.737 59.1447 31.7608 59.1678 31.7925C58.9832 32.1339 58.8141 32.4753 58.6142 32.8008C58.5834 32.8564 58.4297 32.8881 58.3605 32.8564C58.0376 32.7135 57.7146 32.5467 57.3994 32.388C57.3994 32.3483 57.3994 32.3165 57.4071 32.2768Z" fill="black"/>
<path d="M54.561 39.4618C54.561 39.8746 54.561 40.2795 54.561 40.6924C54.561 40.7718 54.477 40.8432 54.4312 40.9226C54.3777 40.8432 54.286 40.7718 54.286 40.6924C54.2784 39.8746 54.2784 39.0569 54.286 38.2312C54.286 38.1518 54.3777 38.0804 54.4312 38.001C54.477 38.0804 54.561 38.1518 54.5687 38.2312C54.5839 38.6441 54.5687 39.0489 54.5687 39.4618H54.561Z" fill="black"/>
<path d="M57.1924 33.0309C57.5153 33.1817 57.8382 33.3246 58.1457 33.4993C58.2149 33.539 58.2688 33.674 58.2611 33.7534C58.238 34.055 58.1919 34.3488 58.0612 34.6743C57.7536 34.1583 57.4384 33.6343 57.1309 33.1182C57.1539 33.0865 57.1693 33.0547 57.1924 33.0229V33.0309Z" fill="black"/>
<path d="M50.7645 34.6823C50.3801 33.7058 50.6492 33.2533 51.7256 33.0627C51.395 33.6185 51.0874 34.1266 50.7645 34.6823Z" fill="black"/>
<path d="M53.6322 29.4187C53.6322 29.9268 53.6322 30.427 53.6322 30.9351C53.6322 31.3638 53.5553 31.4432 53.0479 31.5067C53.1862 30.8001 53.3246 30.1174 53.463 29.4266C53.5169 29.4266 53.5784 29.4266 53.6322 29.4266V29.4187Z" fill="black"/>
<path d="M55.385 29.4346C55.5234 30.1173 55.6541 30.8001 55.7925 31.4908C55.3235 31.4829 55.2235 31.3876 55.2158 30.9907C55.2158 30.5937 55.2158 30.1967 55.2158 29.7998C55.2158 29.6807 55.2389 29.5616 55.2543 29.4425C55.2927 29.4425 55.3388 29.4425 55.3773 29.4425L55.385 29.4346Z" fill="black"/>
<path d="M57.0307 43.0582C56.7232 43.2329 56.4233 43.4155 56.1081 43.5663C56.0466 43.5981 55.8928 43.5346 55.839 43.4631C55.7237 43.3123 55.6391 43.1376 55.4854 42.8677C56.0543 42.8994 56.531 42.9233 57.0077 42.955C57.0154 42.9868 57.0231 43.0265 57.0384 43.0582H57.0307Z" fill="black"/>
<path d="M53.2631 42.9072C53.2631 42.9231 53.2784 42.939 53.2708 42.9469C52.9863 43.6535 52.9632 43.6694 52.3251 43.3121C52.1713 43.2248 52.0175 43.1295 51.8638 43.0343C51.8484 43.0263 51.8561 42.9866 51.833 42.9152H53.2554L53.2631 42.9072Z" fill="black"/>
<path d="M50.7487 29.1487C50.2413 29.5695 49.7261 29.9982 49.1956 30.4349C49.0188 30.0617 49.0572 29.8553 49.4109 29.7045C49.8492 29.5139 50.272 29.2837 50.7026 29.0693C50.718 29.0932 50.7333 29.1249 50.7487 29.1487Z" fill="black"/>
<path d="M58.1377 29.0693C58.6221 29.3075 59.1141 29.5298 59.5754 29.8077C59.6984 29.8871 59.7138 30.1491 59.783 30.3317C59.7369 30.3634 59.6908 30.3952 59.6369 30.4269C59.1141 29.9982 58.599 29.5695 58.0762 29.1408C58.0992 29.117 58.1146 29.0932 58.1377 29.0693Z" fill="black"/>
<path d="M54.2703 36.3178C54.2703 36.0796 54.2627 35.8414 54.2703 35.6112C54.2703 35.5477 54.362 35.4842 54.4078 35.4207C54.4536 35.4842 54.5377 35.5397 54.5377 35.6033C54.5453 36.1034 54.5529 36.6036 54.5377 37.1038C54.5377 37.1673 54.4536 37.2308 54.4078 37.2943C54.3543 37.2308 54.2703 37.1752 54.2626 37.1038C54.2474 36.8418 54.2626 36.5798 54.2626 36.3178H54.2703Z" fill="black"/>
<path d="M53.5865 40.2476C52.8946 39.4537 52.9176 39.668 53.5865 38.7312V40.2476Z" fill="black"/>
<path d="M53.0868 40.9226C53.4482 41.1767 53.7172 41.4625 53.625 41.9071C53.6019 42.0103 53.4635 42.0817 53.379 42.1691C53.3021 42.0897 53.1714 42.0182 53.156 41.9309C53.1099 41.5974 53.1022 41.264 53.0791 40.9305L53.0868 40.9226Z" fill="black"/>
<path d="M55.7777 40.9385C55.7469 41.2957 55.7316 41.6609 55.6778 42.0182C55.6701 42.0897 55.5163 42.2008 55.4471 42.1849C55.3625 42.1691 55.2472 42.0579 55.2241 41.9626C55.1242 41.5022 55.3933 41.2084 55.77 40.9385H55.7777Z" fill="black"/>
<path d="M55.2549 38.771C55.9392 39.6522 55.9238 39.549 55.2549 40.2874V38.771Z" fill="black"/>
<path d="M57.9301 37.2546C58.1377 37.985 58.0301 38.1676 57.1689 38.5249C57.438 38.0724 57.6687 37.6913 57.9301 37.2546Z" fill="black"/>
<path d="M51.6799 38.4931C50.8341 38.1596 50.7265 37.9849 50.9033 37.2148C51.1647 37.6515 51.3954 38.0246 51.6799 38.4931Z" fill="black"/>
<path d="M54.2012 34.1028C54.2699 33.9282 54.3387 33.7535 54.4074 33.5789C54.4533 33.7615 54.5144 33.9361 54.5526 34.1187C54.5755 34.2458 54.5679 34.3807 54.5526 34.5157C54.5373 34.5871 54.4686 34.6427 54.4227 34.7062C54.3692 34.6427 54.2928 34.5871 54.2776 34.5236C54.2546 34.3966 54.2776 34.2616 54.2776 34.1267C54.2546 34.1187 54.2317 34.1108 54.2165 34.1028H54.2012Z" fill="black"/>
<path d="M54.4305 32.9118C54.377 32.8165 54.2701 32.7213 54.2777 32.6339C54.293 32.4116 54.3618 32.1893 54.4152 31.967C54.4611 32.1735 54.5222 32.3799 54.5604 32.5863C54.5757 32.6736 54.5451 32.761 54.5375 32.8562C54.5069 32.8721 54.4687 32.888 54.4382 32.9118H54.4305Z" fill="black"/>
<path d="M48.1963 38.8742C48.5192 38.8424 48.7422 38.8186 48.9805 38.7869C48.7652 39.1759 48.6884 39.1838 48.1963 38.8742Z" fill="black"/>
<path d="M54.6299 41.915C54.5382 42.034 54.4848 42.1134 54.4236 42.1928C54.3702 42.0896 54.2861 41.9944 54.2861 41.8911C54.2861 41.8038 54.3778 41.7165 54.4236 41.6292C54.4848 41.7165 54.5535 41.8038 54.6299 41.9229V41.915Z" fill="black"/>
<path d="M60.6823 38.8902C60.3645 39.0966 60.0749 39.0807 59.8135 38.8425C60.1287 38.8584 60.344 38.8743 60.6823 38.8902Z" fill="black"/>
<path d="M51.4407 43.6932C51.2485 43.5979 51.0486 43.5106 50.8564 43.4153C50.7949 43.3835 50.7334 43.328 50.6719 43.2883L50.7257 43.1851C50.9794 43.32 51.2408 43.4629 51.4945 43.5979C51.4792 43.6297 51.4561 43.6614 51.4407 43.6932Z" fill="black"/>
<path d="M74.0837 39.3189C74.0837 40.4383 73.3764 41.1211 72.3999 40.9464C71.7618 40.8273 71.3389 40.2637 71.2774 39.43C71.1852 38.2074 72.1847 37.3579 73.2149 37.7787C73.7531 37.9931 74.0837 38.5806 74.0837 39.3268V39.3189Z" fill="black"/>
<path d="M82.057 37.7786C83.364 37.7786 84.0329 38.9536 83.4255 40.1683C83.1795 40.6525 82.772 40.8352 82.2569 40.859C81.4111 40.9066 81.4111 40.9145 81.4111 40.065C81.4111 39.5252 81.4111 38.9774 81.4111 38.4375C81.4111 37.9982 81.6264 37.7786 82.057 37.7786Z" fill="black"/>
<path d="M66.5337 34.9682C65.4727 34.9364 65.4727 34.9364 65.4727 33.8408C65.4727 32.8961 65.3651 33.039 66.2723 33.039C66.7029 33.039 67.1411 33.0548 67.5717 33.1104C68.0484 33.1819 68.2636 33.4439 68.279 33.8885C68.3021 34.4283 68.1176 34.7459 67.6332 34.857C67.2795 34.9364 66.9028 34.9364 66.5337 34.9682Z" fill="black"/>
<path d="M66.5031 30.6413C66.7952 30.6413 67.0951 30.6095 67.3796 30.6413C67.8486 30.6969 68.0946 30.9906 68.1177 31.4511C68.1407 31.9115 67.9178 32.2768 67.4641 32.3323C66.8721 32.4038 66.2647 32.3958 65.6727 32.3958C65.6112 32.3958 65.4882 32.2529 65.4882 32.1656C65.4728 31.7289 65.4651 31.2923 65.4882 30.8636C65.4882 30.7762 65.642 30.6413 65.7419 30.6254C65.9956 30.5936 66.2494 30.6175 66.5108 30.6175C66.5108 30.6175 66.5108 30.6333 66.5108 30.6413H66.5031Z" fill="black"/>
<path d="M82.4258 34.976C81.3571 34.9363 81.3571 34.9363 81.3648 33.8328C81.3648 32.9118 81.2649 33.0309 82.1337 33.0309C82.595 33.0309 83.0563 33.0547 83.5099 33.1182C83.9482 33.1818 84.1634 33.4676 84.1865 33.8963C84.2096 34.3885 84.0327 34.722 83.6022 34.8331C83.2254 34.9284 82.818 34.9363 82.4335 34.976H82.4258Z" fill="black"/>
<path d="M82.3339 32.4434C81.6829 32.4275 81.3574 32.0887 81.3574 31.4271C81.3574 30.6173 81.3574 30.6173 82.157 30.6173C82.5184 30.6173 82.8721 30.6094 83.2334 30.6412C83.7409 30.6888 83.9869 30.9746 84.0023 31.4589C84.0176 31.967 83.8177 32.2607 83.3257 32.356C83.0028 32.4195 82.6645 32.4195 82.3339 32.4434Z" fill="black"/>
<path d="M86.608 31.6336C86.608 30.6015 86.608 30.5856 87.6152 30.6015C87.9689 30.6015 88.3303 30.6332 88.6762 30.7205C89.1222 30.8396 89.3144 31.1572 89.3067 31.6336C89.3067 32.102 89.0914 32.4513 88.6455 32.5227C88.0458 32.618 87.423 32.618 86.8156 32.6339C86.7464 32.6339 86.6311 32.4751 86.6234 32.3798C86.5927 32.1337 86.6157 31.8797 86.6157 31.6256L86.608 31.6336Z" fill="black"/>
<path d="M92.0752 33.4279C92.4212 32.5545 92.7441 31.7368 93.067 30.9111C93.1055 30.9111 93.1362 30.9111 93.1747 30.9111C93.4976 31.7368 93.8282 32.5625 94.1742 33.4358H92.0752V33.4279Z" fill="black"/>
</g>
<defs>
<clipPath id="clip0_83_1681">
<rect width="93.031" height="47" fill="white" transform="translate(29.8672 12)"/>
</clipPath>
</defs>
</svg>
