<?xml version="1.0" encoding="utf-8"?>
<!-- Generator: Adobe Illustrator 28.3.0, SVG Export Plug-In . SVG Version: 6.00 Build 0)  -->
<svg version="1.1" id="Layer_1" xmlns="http://www.w3.org/2000/svg" xmlns:xlink="http://www.w3.org/1999/xlink" x="0px" y="0px"
	 viewBox="0 0 1920 1080" style="enable-background:new 0 0 1920 1080;" xml:space="preserve">
<style type="text/css">
	.st0{fill:#FFFFFF;}
</style>
<g>
	<g>
		<path class="st0" d="M1859.29,723.1c0,14.96,0,29.91,0,44.87c-599.47,0-1198.95,0-1798.59,0c0-151.98,0-303.96,0-455.94
			c72.38,0,144.88,0,217.38,0c-1.16,0.25-2.3,0.66-3.47,0.74c-35.53,2.47-68.57,12.91-99.48,30.52
			C89.69,391.94,45.24,492.35,66.87,588.17c22.56,99.96,110.84,173.67,213.31,177.87c54.2,2.22,103.59-12.1,147.7-43.86
			c2.36-1.7,3.87-1.6,6.19,0.05c76.15,54.01,171.96,58.76,252.96,12.63c85.46-48.66,129.86-149.71,107.84-245.47
			c-20.61-89.64-93.99-158.66-184.96-173.84c-8.68-1.45-17.45-2.36-26.18-3.52c425.19,0,850.38,0,1275.57,0
			c0,132.83,0,265.67,0,398.5c-2.89-12.59-9.98-22.14-21.07-28.7c-4.37-2.59-8.83-5.04-13.29-7.47c-5.51-3-11.13-5.83-16.6-8.9
			c-3.35-1.89-5.68-4.72-4.61-8.83c1.09-4.15,4.49-5.72,8.45-6.26c6.35-0.86,11.79,1.43,16.74,5.08c2.83,2.09,5.49,4.41,7.1,5.72
			c7.09-6.67,13.81-13,20.66-19.44c-11.4-14.65-26.19-21.93-44.79-21.14c-17.51,0.74-32,10.89-37.02,25.81
			c-5.13,15.24-0.19,30.67,14.47,41.93c6.7,5.15,14.5,8.86,21.79,13.25c4.22,2.54,8.61,4.85,12.57,7.75
			c3.79,2.77,6.48,6.67,4.73,11.62c-1.71,4.85-5.94,6.91-10.84,7.51c-6.43,0.79-12.2-1.34-17.41-4.74
			c-4.33-2.83-8.26-6.26-12.54-9.57c-6.38,7.12-12.83,14.31-19.25,21.47c7.75,10.31,17.17,17.52,29.29,20.38
			c17.18,4.06,33.65,2.94,48.02-8.79C1853.35,740.96,1857.18,732.5,1859.29,723.1z M998.71,419.16c1.32-0.73,2.36-1.3,3.4-1.88
			c6.7-3.81,13-8.12,16.86-15.05c8.6-15.46,5.89-37.63-6.08-50.72c-9.09-9.93-20.95-13.95-33.83-14.25
			c-23.81-0.56-47.63-0.3-71.45-0.36c-0.69,0-1.38,0.3-2.06,0.45c0,56.72,0,113.2,0,170.2c1.85,0,3.46,0,5.06,0
			c20.67,0,41.35,0.04,62.02-0.03c4.48-0.02,8.99-0.18,13.44-0.7c20.24-2.36,36.81-18.51,39.75-38.78
			c2.91-20.04-3.88-41.9-26.49-48.26C999.2,419.76,999.11,419.59,998.71,419.16z M1343.49,493.6c-0.36,4.14-0.71,7.55-0.95,10.97
			c-0.74,10.44-6.31,17.74-16.04,20.48c-7.47,2.1-15.57,2.68-23.39,2.68c-8.53,0-16.46-2.91-22.78-9.14
			c-0.49-0.49-1.27-0.98-1.92-0.98c-11.15-0.06-22.3-0.04-33.88-0.04c5.34,15.75,15.01,27.05,29.78,32.97
			c23.19,9.3,46.84,9.06,70.07,0.04c16.02-6.22,26.31-18.09,29.54-35.12c1.61-8.46,2.57-17.17,2.64-25.78
			c0.3-33.65,0.12-67.31,0.11-100.96c0-1.44-0.15-2.89-0.24-4.41c-11.19,0-22.03,0-33.37,0c0,4.38,0,8.45,0,13.13
			c-1.77-1.43-2.92-2.36-4.06-3.3c-23.74-19.52-56.85-17.47-77.83,5c-14.66,15.71-18.48,34.75-15.89,55.38
			c2.92,23.25,15.1,40.49,36.75,49.25c21.12,8.55,41.69,6.62,59.55-9.26C1341.87,494.26,1342.31,494.16,1343.49,493.6z
			 M1172.39,698.85c0.98-18.04-1.75-34.57-11.82-49.26c-17.39-25.37-46.86-33.33-75.53-27.35c-29.37,6.12-49.45,29.51-52.63,59.61
			c-3.08,29.11,10.01,55.56,35.33,67.99c24.43,12,49.5,11.36,73.95-0.71c8.94-4.41,15.9-11.36,21.88-19.87
			c-9.11-4.19-17.74-8.26-26.49-12.07c-0.97-0.42-2.9,0.25-3.86,1.04c-11.32,9.41-24.29,12.35-38.66,10.26
			c-15.65-2.28-27.94-14.41-29.61-29.64C1100.6,698.85,1136.22,698.85,1172.39,698.85z M1753.96,698.75
			c2.83-23.35-5.57-46.33-22.41-61.36c-15.07-13.45-33.19-17.87-52.89-16.71c-28.02,1.64-48.64,15.26-59.15,41.05
			c-10.55,25.87-7.76,51.01,10.77,73.15c25.8,30.83,78.27,28.12,101.13,9.03c5.06-4.22,9.48-9.2,14.71-14.33
			c-9.78-4.5-18.28-8.51-26.9-12.24c-1.09-0.47-3.2,0.13-4.23,0.97c-11.37,9.31-24.33,12.28-38.7,10.16
			c-15.67-2.31-28.54-15.13-29.38-29.73C1682.54,698.75,1718.13,698.75,1753.96,698.75z M903,581.93c0,1-0.1,1.47,0.01,1.88
			c15.81,57.12,31.66,114.23,47.41,171.37c0.66,2.39,1.81,2.97,4.09,2.93c7.49-0.12,14.98-0.21,22.46,0.03
			c3.12,0.1,4.33-0.84,5.11-3.91c12.16-47.59,24.47-95.14,36.75-142.7c2.49-9.65,4.97-19.31,7.63-29.63c-10,0-19.41,0.17-28.8-0.09
			c-3.3-0.09-4.28,1.22-4.99,4.12c-8.58,35.1-17.28,70.17-25.95,105.24c-0.31,1.23-0.73,2.44-1.4,4.69
			c-2.74-10.63-5.2-20.16-7.64-29.7c-6.87-26.75-13.72-53.51-20.68-80.24c-0.38-1.46-1.72-3.8-2.66-3.83
			C923.91,581.83,913.47,581.93,903,581.93z M1227.75,757.81c0-2.02-0.01-3.78,0-5.54c0.15-20.03,0.01-40.07,0.64-60.08
			c0.2-6.45,1.88-13.02,3.88-19.21c2.78-8.65,11.92-13.97,21.63-13.6c7.23,0.27,13.86,6.36,16.21,15.19
			c0.73,2.72,1.23,5.58,1.28,8.39c0.37,23.16,0.6,46.32,0.87,69.49c0.02,1.74,0,3.49,0,5.4c11.07,0,21.62,0,32.38,0
			c0.13-0.9,0.32-1.61,0.32-2.32c-0.08-29.75,0.04-59.5-0.37-89.24c-0.15-10.55-3.61-20.25-11.41-27.93
			c-15.67-15.44-38.92-16.65-58.35-3.01c-2.86,2.01-5.63,4.16-9.12,6.74c0-4.72,0-8.55,0-12.58c-10.46,0-20.52,0-30.53,0
			c0,43.02,0,85.67,0,128.3C1206.15,757.81,1216.72,757.81,1227.75,757.81z M1219.16,510.07c0.13-0.92,0.31-1.63,0.31-2.34
			c-0.04-29.46,0.26-58.93-0.28-88.38c-0.39-21.45-14.12-37.26-34.27-40.58c-15.2-2.5-28.31,2.53-39.98,12.05
			c-1.29,1.05-2.65,2.02-4.81,3.65c0-5.04,0-8.86,0-12.84c-10.38,0-20.33,0-30.48,0c0,42.94,0,85.61,0,128.47
			c10.88,0,21.44,0,32.58,0c0-1.96-0.01-3.7,0-5.45c0.2-20.49,0.07-40.98,0.79-61.45c0.22-6.42,2.1-12.99,4.31-19.1
			c2.96-8.17,12.03-12.96,21.44-12.46c6.75,0.36,13.1,6,15.5,14.24c0.95,3.27,1.64,6.73,1.7,10.12c0.4,22.87,0.6,45.75,0.85,68.62
			c0.02,1.75,0,3.5,0,5.46C1197.87,510.07,1208.42,510.07,1219.16,510.07z M1485.73,626.23c0,1.92,0,3.53,0,5.15
			c0,17.79,0.08,35.58-0.05,53.37c-0.05,6.56-0.14,13.19-1.06,19.67c-1.76,12.44-10.22,19.58-22.28,19.58
			c-11.81,0-19.92-7.1-22.03-19.38c-0.43-2.5-0.84-5.03-0.87-7.55c-0.25-21.82-0.41-43.64-0.59-65.46c-0.01-1.74,0-3.47,0-5.36
			c-10.84,0-21.08,0-31.23,0c-0.22,0.52-0.42,0.79-0.42,1.05c0.3,26.75,0.18,53.51,1.11,80.24c0.54,15.58,6.25,29.48,18.8,39.71
			c11.77,9.59,25.73,11.48,40.23,10.65c15.69-0.9,28.93-6.78,38.53-19.8c8.12-11.01,10.47-23.74,10.8-36.84
			c0.6-23.91,0.56-47.83,0.76-71.74c0.01-1.01-0.19-2.02-0.32-3.27C1506.79,626.23,1496.67,626.23,1485.73,626.23z M1393.04,663.44
			c0-10.77,0-20.73,0-31.24c-6.19,0-12.09,0-18.38,0c0-10.64,0-20.74,0-30.88c-11.6,0-22.76,0-34.55,0c0,10.45,0,20.66,0,31.21
			c-5.51,0-10.41,0-15.4,0c0,10.41,0,20.46,0,30.97c5.2,0,10.09,0,15.65,0c0,31.73,0,63.01,0,94.28c11.84,0,23,0,34.61,0
			c0-31.46,0-62.65,0-94.35C1381.18,663.44,1386.95,663.44,1393.04,663.44z M1536.95,627.07c0,42.92,0,85.43,0,128.03
			c11.33,0,22.34,0,33.8,0c0-1.83,0-3.44,0-5.04c-0.01-20.48-0.37-40.97,0.15-61.44c0.23-8.87,1.31-17.97,3.75-26.46
			c3.1-10.8,10.06-13.33,20.5-9.29c0.24,0.09,0.57-0.04,1.17-0.1c1.5-4.21,3.06-8.54,4.57-12.89c1.55-4.45,3.05-8.91,4.61-13.48
			c-7.56-3.73-14.75-4.12-22.15-1.27c-7.38,2.85-12.14,8.56-16.91,14.84c0-4.24,0-8.49,0-12.89
			C1556.39,627.07,1546.85,627.07,1536.95,627.07z M1051.59,383.85c0,40.52,0,80.52,0,120.71c11,0,21.7,0,32.51,0
			c0-40.39,0-80.52,0-120.71C1073.15,383.85,1062.54,383.85,1051.59,383.85z M1051.66,334.28c0,11.15,0,21.79,0,32.43
			c11.06,0,21.75,0,32.46,0c0-10.99,0-21.66,0-32.43C1073.21,334.28,1062.62,334.28,1051.66,334.28z"/>
		<path d="M583.72,312.03c8.73,1.16,17.5,2.07,26.18,3.52c90.97,15.18,164.36,84.2,184.96,173.84
			c22.01,95.75-22.38,196.8-107.84,245.47c-81,46.13-176.81,41.37-252.96-12.63c-2.33-1.65-3.83-1.75-6.19-0.05
			c-44.11,31.76-93.5,46.08-147.7,43.86c-102.46-4.2-190.75-77.91-213.31-177.87c-21.63-95.83,22.83-196.23,108.26-244.89
			c30.91-17.61,63.95-28.05,99.48-30.52c1.17-0.08,2.31-0.48,3.47-0.74c9.29,0,18.58,0,27.87,0c1.14,0.25,2.27,0.65,3.43,0.74
			c43.23,3.29,82.47,17.57,117.67,42.79c2.88,2.06,4.67,2.28,7.69,0.09c28.66-20.74,60.48-34.16,95.4-40.08
			c8.82-1.49,17.74-2.38,26.62-3.55C565.74,312.03,574.73,312.03,583.72,312.03z M235.53,427.7c0.83,1.73,1.32,2.92,1.94,4.05
			c37.39,67.78,74.6,135.66,112.42,203.21c5.46,9.75,12.65,19.28,21.1,26.51c47.53,40.65,116.12,34.87,154.47-16.53
			c24.06-32.25,47.9-64.67,71.84-97.01c4.61-6.22,9.24-12.43,14.02-18.86c17.46,11.47,34.65,22.77,52.79,34.68
			c-3-60.93-5.96-120.83-8.95-181.53c-56.77,21.45-112.79,42.62-169.57,64.07c17.99,11.85,35.17,23.17,52.45,34.55
			c-30.95,44.31-61.57,88.15-92.5,132.43c-1.21-1.84-2.13-3.15-2.98-4.52c-36.41-59.04-72.84-118.07-109.14-177.18
			c-1.81-2.94-3.67-3.96-7.09-3.95c-28.61,0.15-57.22,0.08-85.83,0.08C239.03,427.7,237.58,427.7,235.53,427.7z"/>
		<path d="M1859.29,723.1c-2.11,9.4-5.94,17.86-13.6,24.11c-14.37,11.73-30.84,12.85-48.02,8.79
			c-12.12-2.86-21.54-10.07-29.29-20.38c6.42-7.15,12.87-14.35,19.25-21.47c4.29,3.31,8.22,6.74,12.54,9.57
			c5.21,3.4,10.98,5.53,17.41,4.74c4.91-0.61,9.13-2.67,10.84-7.51c1.75-4.95-0.94-8.85-4.73-11.62c-3.96-2.9-8.35-5.21-12.57-7.75
			c-7.29-4.39-15.09-8.1-21.79-13.25c-14.66-11.27-19.6-26.7-14.47-41.93c5.02-14.91,19.51-25.07,37.02-25.81
			c18.59-0.79,33.39,6.5,44.79,21.14c-6.85,6.44-13.57,12.77-20.66,19.44c-1.61-1.31-4.27-3.63-7.1-5.72
			c-4.95-3.66-10.39-5.95-16.74-5.08c-3.96,0.54-7.36,2.11-8.45,6.26c-1.08,4.11,1.25,6.94,4.61,8.83c5.47,3.08,11.08,5.9,16.6,8.9
			c4.46,2.43,8.92,4.88,13.29,7.47c11.09,6.57,18.17,16.12,21.07,28.7C1859.29,714.72,1859.29,718.91,1859.29,723.1z"/>
		<path class="st0" d="M556.75,312.03c-8.87,1.17-17.8,2.06-26.62,3.55c-34.92,5.91-66.74,19.34-95.4,40.08
			c-3.02,2.18-4.81,1.97-7.69-0.09c-35.2-25.23-74.44-39.51-117.67-42.79c-1.16-0.09-2.29-0.49-3.43-0.74
			C389.55,312.03,473.15,312.03,556.75,312.03z"/>
		<path d="M998.71,419.16c0.4,0.42,0.48,0.6,0.61,0.63c22.61,6.36,29.4,28.22,26.49,48.26c-2.94,20.27-19.5,36.42-39.75,38.78
			c-4.45,0.52-8.96,0.69-13.44,0.7c-20.67,0.07-41.35,0.03-62.02,0.03c-1.6,0-3.21,0-5.06,0c0-57,0-113.48,0-170.2
			c0.69-0.16,1.38-0.46,2.06-0.45c23.82,0.06,47.64-0.21,71.45,0.36c12.88,0.31,24.74,4.32,33.83,14.25
			c11.97,13.08,14.68,35.25,6.08,50.72c-3.85,6.93-10.16,11.24-16.86,15.05C1001.08,417.87,1000.04,418.43,998.71,419.16z
			 M938.6,479.74c9.78,0,19.19,0.02,28.59-0.02c1.64-0.01,3.28-0.22,4.9-0.45c10.94-1.56,17.58-9.72,17.71-21.71
			c0.13-12.23-6.43-21.05-17.77-21.89c-10.98-0.82-22.07-0.18-33.43-0.18C938.6,449.96,938.6,464.52,938.6,479.74z M938.53,407.06
			c11.38,0,22.3,0.45,33.17-0.13c10.37-0.55,17.13-8.81,18.02-20.54c0.85-11.28-5.07-21.4-15.28-22.49
			c-11.76-1.25-23.76-0.29-35.91-0.29C938.53,377.82,938.53,392.24,938.53,407.06z"/>
		<path d="M1343.49,493.6c-1.18,0.56-1.62,0.66-1.92,0.92c-17.86,15.88-38.43,17.81-59.55,9.26c-21.65-8.77-33.83-26-36.75-49.25
			c-2.59-20.63,1.23-39.67,15.89-55.38c20.98-22.48,54.09-24.53,77.83-5c1.14,0.94,2.29,1.86,4.06,3.3c0-4.68,0-8.75,0-13.13
			c11.34,0,22.18,0,33.37,0c0.08,1.52,0.23,2.96,0.24,4.41c0.01,33.66,0.18,67.31-0.11,100.96c-0.08,8.61-1.04,17.32-2.64,25.78
			c-3.23,17.03-13.52,28.9-29.54,35.12c-23.23,9.02-46.88,9.26-70.07-0.04c-14.78-5.93-24.44-17.22-29.78-32.97
			c11.58,0,22.73-0.02,33.88,0.04c0.65,0,1.42,0.49,1.92,0.98c6.33,6.23,14.25,9.13,22.78,9.14c7.82,0,15.92-0.58,23.39-2.68
			c9.73-2.74,15.3-10.03,16.04-20.48C1342.78,501.16,1343.13,497.75,1343.49,493.6z M1310.95,480.1
			c20.02,0.06,33.96-14.39,34.07-35.32c0.11-20.97-13.95-35.71-34.18-35.8c-20.1-0.1-34.85,14.87-34.83,35.33
			C1276.03,465.06,1290.66,480.04,1310.95,480.1z"/>
		<path d="M1172.39,698.85c-36.17,0-71.79,0-107.44,0c1.67,15.23,13.96,27.36,29.61,29.64c14.37,2.09,27.34-0.85,38.66-10.26
			c0.96-0.8,2.89-1.47,3.86-1.04c8.75,3.81,17.38,7.87,26.49,12.07c-5.98,8.52-12.94,15.46-21.88,19.87
			c-24.45,12.07-49.52,12.71-73.95,0.71c-25.32-12.43-38.41-38.89-35.33-67.99c3.18-30.1,23.26-53.49,52.63-59.61
			c28.68-5.98,58.14,1.97,75.53,27.35C1170.65,664.28,1173.37,680.81,1172.39,698.85z M1134.84,674.23
			c-1.75-12.63-16.08-23.4-31.48-23.86c-17.32-0.52-32.42,9.66-35.21,23.86C1090.39,674.23,1112.6,674.23,1134.84,674.23z"/>
		<path d="M1753.96,698.75c-35.84,0-71.42,0-107.03,0c0.84,14.6,13.71,27.41,29.38,29.73c14.37,2.12,27.32-0.85,38.7-10.16
			c1.03-0.84,3.14-1.44,4.23-0.97c8.62,3.73,17.12,7.74,26.9,12.24c-5.23,5.13-9.65,10.11-14.71,14.33
			c-22.86,19.09-75.33,21.8-101.13-9.03c-18.53-22.14-21.32-47.28-10.77-73.15c10.52-25.79,31.13-39.41,59.15-41.05
			c19.7-1.16,37.82,3.26,52.89,16.71C1748.4,652.43,1756.79,675.4,1753.96,698.75z M1717.01,674.21
			c-4.23-15.35-18.5-24.59-36.17-23.83c-14.68,0.63-28.43,11.18-30.8,23.83C1672.3,674.21,1694.51,674.21,1717.01,674.21z"/>
		<path d="M903,581.93c10.47,0,20.9-0.1,31.33,0.17c0.94,0.02,2.28,2.36,2.66,3.83c6.96,26.73,13.81,53.49,20.68,80.24
			c2.45,9.53,4.91,19.06,7.64,29.7c0.68-2.25,1.1-3.46,1.4-4.69c8.68-35.07,17.37-70.14,25.95-105.24c0.71-2.89,1.69-4.21,4.99-4.12
			c9.39,0.26,18.79,0.09,28.8,0.09c-2.66,10.32-5.14,19.98-7.63,29.63c-12.27,47.56-24.58,95.11-36.75,142.7
			c-0.78,3.07-1.99,4.02-5.11,3.91c-7.48-0.24-14.98-0.15-22.46-0.03c-2.28,0.04-3.43-0.54-4.09-2.93
			c-15.76-57.13-31.6-114.25-47.41-171.37C902.9,583.41,903,582.94,903,581.93z"/>
		<path d="M1227.75,757.81c-11.03,0-21.6,0-32.55,0c0-42.63,0-85.29,0-128.3c10.01,0,20.07,0,30.53,0c0,4.03,0,7.85,0,12.58
			c3.49-2.58,6.25-4.73,9.12-6.74c19.43-13.64,42.68-12.42,58.35,3.01c7.8,7.69,11.26,17.38,11.41,27.93
			c0.41,29.74,0.3,59.49,0.37,89.24c0,0.71-0.19,1.41-0.32,2.32c-10.75,0-21.31,0-32.38,0c0-1.91,0.02-3.65,0-5.4
			c-0.27-23.16-0.51-46.33-0.87-69.49c-0.04-2.81-0.55-5.67-1.28-8.39c-2.36-8.83-8.98-14.92-16.21-15.19
			c-9.71-0.37-18.85,4.95-21.63,13.6c-1.99,6.2-3.67,12.76-3.88,19.21c-0.63,20.02-0.49,40.05-0.64,60.08
			C1227.74,754.03,1227.75,755.79,1227.75,757.81z"/>
		<path d="M1219.16,510.07c-10.74,0-21.29,0-32.33,0c0-1.96,0.02-3.71,0-5.46c-0.26-22.88-0.46-45.75-0.85-68.62
			c-0.06-3.39-0.74-6.85-1.7-10.12c-2.4-8.24-8.75-13.88-15.5-14.24c-9.41-0.5-18.48,4.29-21.44,12.46
			c-2.21,6.11-4.09,12.67-4.31,19.1c-0.72,20.47-0.59,40.96-0.79,61.45c-0.02,1.74,0,3.48,0,5.45c-11.14,0-21.7,0-32.58,0
			c0-42.85,0-85.52,0-128.47c10.15,0,20.11,0,30.48,0c0,3.98,0,7.8,0,12.84c2.16-1.64,3.52-2.6,4.81-3.65
			c11.67-9.52,24.77-14.55,39.98-12.05c20.15,3.32,33.88,19.13,34.27,40.58c0.53,29.45,0.23,58.92,0.28,88.38
			C1219.47,508.43,1219.28,509.15,1219.16,510.07z"/>
		<path d="M1485.73,626.23c10.94,0,21.06,0,31.37,0c0.13,1.25,0.33,2.26,0.32,3.27c-0.21,23.92-0.17,47.84-0.76,71.74
			c-0.33,13.09-2.68,25.82-10.8,36.84c-9.6,13.02-22.84,18.91-38.53,19.8c-14.5,0.83-28.46-1.06-40.23-10.65
			c-12.55-10.23-18.26-24.12-18.8-39.71c-0.92-26.73-0.8-53.49-1.11-80.24c0-0.26,0.21-0.53,0.42-1.05c10.15,0,20.39,0,31.23,0
			c0,1.89-0.01,3.62,0,5.36c0.18,21.82,0.34,43.64,0.59,65.46c0.03,2.52,0.44,5.06,0.87,7.55c2.12,12.28,10.22,19.38,22.03,19.38
			c12.06,0,20.52-7.14,22.28-19.58c0.92-6.48,1.01-13.11,1.06-19.67c0.14-17.79,0.05-35.58,0.05-53.37
			C1485.73,629.76,1485.73,628.14,1485.73,626.23z"/>
		<path d="M1393.04,663.44c-6.09,0-11.86,0-18.08,0c0,31.7,0,62.88,0,94.35c-11.61,0-22.77,0-34.61,0c0-31.27,0-62.55,0-94.28
			c-5.56,0-10.45,0-15.65,0c0-10.51,0-20.56,0-30.97c4.99,0,9.89,0,15.4,0c0-10.54,0-20.75,0-31.21c11.79,0,22.95,0,34.55,0
			c0,10.14,0,20.23,0,30.88c6.3,0,12.19,0,18.38,0C1393.04,642.71,1393.04,652.67,1393.04,663.44z"/>
		<path d="M1536.95,627.07c9.9,0,19.44,0,29.5,0c0,4.4,0,8.64,0,12.89c4.77-6.28,9.53-11.99,16.91-14.84
			c7.39-2.85,14.58-2.46,22.15,1.27c-1.56,4.58-3.06,9.04-4.61,13.48c-1.51,4.35-3.07,8.67-4.57,12.89c-0.6,0.06-0.93,0.2-1.17,0.1
			c-10.44-4.04-17.4-1.51-20.5,9.29c-2.44,8.5-3.52,17.59-3.75,26.46c-0.52,20.47-0.16,40.96-0.15,61.44c0,1.61,0,3.22,0,5.04
			c-11.46,0-22.47,0-33.8,0C1536.95,712.51,1536.95,670,1536.95,627.07z"/>
		<path d="M1051.59,383.85c10.95,0,21.56,0,32.51,0c0,40.19,0,80.31,0,120.71c-10.8,0-21.5,0-32.51,0
			C1051.59,464.37,1051.59,424.37,1051.59,383.85z"/>
		<path d="M1051.66,334.28c10.96,0,21.55,0,32.46,0c0,10.76,0,21.44,0,32.43c-10.71,0-21.4,0-32.46,0
			C1051.66,356.07,1051.66,345.43,1051.66,334.28z"/>
		<path class="st0" d="M235.53,427.7c2.05,0,3.5,0,4.95,0c28.61,0,57.22,0.06,85.83-0.08c3.42-0.02,5.28,1,7.09,3.95
			c36.3,59.11,72.73,118.14,109.14,177.18c0.84,1.36,1.76,2.68,2.98,4.52c30.93-44.28,61.56-88.13,92.5-132.43
			c-17.28-11.39-34.46-22.7-52.45-34.55c56.78-21.45,112.8-42.62,169.57-64.07c2.99,60.7,5.95,120.6,8.95,181.53
			c-18.13-11.91-35.33-23.21-52.79-34.68c-4.78,6.43-9.41,12.64-14.02,18.86c-23.94,32.34-47.78,64.76-71.84,97.01
			c-38.35,51.41-106.94,57.18-154.47,16.53c-8.45-7.23-15.64-16.75-21.1-26.51c-37.82-67.54-75.03-135.43-112.42-203.21
			C236.85,430.62,236.35,429.43,235.53,427.7z"/>
		<path class="st0" d="M938.6,479.74c0-15.22,0-29.78,0-44.25c11.37,0,22.45-0.64,33.43,0.18c11.35,0.85,17.9,9.67,17.77,21.89
			c-0.12,12-6.76,20.16-17.71,21.71c-1.62,0.23-3.27,0.44-4.9,0.45C957.78,479.76,948.38,479.74,938.6,479.74z"/>
		<path class="st0" d="M938.53,407.06c0-14.82,0-29.24,0-43.45c12.15,0,24.15-0.96,35.91,0.29c10.21,1.08,16.13,11.21,15.28,22.49
			c-0.89,11.73-7.65,19.99-18.02,20.54C960.83,407.51,949.91,407.06,938.53,407.06z"/>
		<path class="st0" d="M1310.95,480.1c-20.29-0.06-34.92-15.05-34.94-35.79c-0.02-20.46,14.73-35.42,34.83-35.33
			c20.23,0.1,34.29,14.83,34.18,35.8C1344.91,465.71,1330.97,480.16,1310.95,480.1z"/>
		<path class="st0" d="M1134.84,674.23c-22.24,0-44.45,0-66.69,0c2.79-14.2,17.89-24.38,35.21-23.86
			C1118.76,650.83,1133.09,661.6,1134.84,674.23z"/>
		<path class="st0" d="M1717.01,674.21c-22.51,0-44.72,0-66.97,0c2.37-12.65,16.12-23.19,30.8-23.83
			C1698.51,649.62,1712.78,658.86,1717.01,674.21z"/>
	</g>
</g>
</svg>
