<?xml version="1.0" standalone="no"?>
<!DOCTYPE svg PUBLIC "-//W3C//DTD SVG 20010904//EN"
 "http://www.w3.org/TR/2001/REC-SVG-20010904/DTD/svg10.dtd">
<svg version="1.0" xmlns="http://www.w3.org/2000/svg"
 width="959.000000pt" height="271.000000pt" viewBox="0 0 959.000000 271.000000"
 preserveAspectRatio="xMidYMid meet">

<g transform="translate(0.000000,271.000000) scale(0.100000,-0.100000)"
fill="#000000" stroke="none">
<path d="M325 2391 c-8 -25 3 -141 13 -141 4 -1 120 -5 257 -9 274 -9 301 -15
348 -70 60 -72 58 -162 -7 -227 -44 -44 -89 -54 -253 -54 l-143 0 0 38 c0 20
-3 61 -6 90 l-7 52 -98 0 -99 0 0 -451 0 -451 313 4 312 3 55 26 c79 37 129
84 162 154 25 53 28 71 28 155 0 134 -32 196 -148 287 l-24 19 38 24 c112 73
151 218 99 372 -23 66 -76 122 -149 158 l-64 32 -310 5 -310 6 -7 -22z m571
-693 c136 -73 138 -254 3 -333 -29 -17 -56 -20 -196 -23 l-163 -4 0 192 0 192
163 -4 c127 -3 169 -7 193 -20z"/>
<path d="M1605 2319 c-4 -51 -3 -330 1 -620 l7 -529 407 0 407 0 7 52 c3 29 6
68 6 86 l0 32 -315 0 -315 0 0 474 c0 260 -3 501 -6 535 l-7 61 -92 0 -92 0
-8 -91z"/>
<path d="M2824 2403 c-15 -10 -30 -860 -19 -1086 l7 -157 87 0 c47 0 93 5 101
10 13 8 15 72 18 457 1 246 -1 522 -5 613 l-8 165 -85 3 c-47 1 -90 -1 -96 -5z"/>
<path d="M3396 2394 c-3 -9 -6 -47 -6 -85 l0 -69 299 0 c165 0 302 -4 305 -9
7 -10 16 4 -234 -351 -107 -151 -234 -333 -282 -405 -94 -138 -95 -141 -82
-252 l7 -53 412 0 412 0 7 52 c3 29 6 68 6 86 l0 32 -305 0 -306 0 13 24 c7
13 35 55 61 93 48 67 212 303 428 614 l109 157 0 91 0 91 -419 0 c-373 0 -420
-2 -425 -16z"/>
<path d="M4590 2325 l0 -84 295 -3 c179 -2 298 -7 303 -13 8 -8 -320 -490
-533 -782 -61 -83 -69 -109 -60 -198 l7 -75 412 0 413 0 7 53 c3 28 6 67 6 85
l0 32 -305 0 c-168 0 -305 3 -305 6 0 3 55 84 123 180 67 96 160 230 206 297
46 67 125 178 174 247 97 134 105 154 106 283 l1 57 -425 0 -425 0 0 -85z"/>
<path d="M6176 2378 c-14 -33 -42 -118 -239 -728 -151 -464 -152 -470 -136
-481 16 -10 132 -12 178 -3 29 6 33 12 57 93 112 372 265 865 269 869 15 16
14 20 281 -844 33 -107 35 -112 65 -118 46 -9 162 -7 178 3 15 10 8 32 -288
941 l-96 295 -128 3 -128 3 -13 -33z"/>
<path d="M7215 1794 c4 -341 8 -620 9 -621 1 -1 46 -5 99 -9 l97 -7 0 272 0
271 114 0 113 0 101 -217 c55 -120 110 -239 121 -265 16 -37 25 -47 51 -53 43
-9 180 4 180 17 0 6 -54 123 -120 261 -66 138 -120 256 -120 262 0 6 23 22 51
35 61 29 122 93 155 163 20 44 24 67 24 152 0 89 -3 106 -29 160 -30 65 -96
132 -166 168 -37 19 -61 21 -364 25 l-324 5 8 -619z m588 417 c53 -32 81 -91
81 -166 -1 -72 -19 -112 -73 -154 l-39 -31 -176 0 -176 0 0 191 0 191 173 -4
c160 -3 175 -5 210 -27z"/>
<path d="M8488 2404 c-5 -4 -8 -35 -8 -69 0 -46 4 -66 17 -76 12 -11 74 -15
262 -19 212 -5 251 -8 284 -24 46 -23 94 -79 107 -126 12 -44 13 -541 0 -594
-11 -50 -36 -83 -89 -121 l-43 -30 -156 0 -157 0 -6 315 c-4 173 -7 336 -8
363 l-1 47 -99 0 -99 0 -7 -363 c-4 -200 -4 -405 0 -455 l7 -92 202 0 c283 1
393 12 471 49 69 32 135 93 168 156 21 39 22 49 22 425 l0 385 -27 46 c-38 65
-118 134 -186 160 -53 21 -76 23 -352 27 -162 2 -298 1 -302 -4z"/>
<path d="M406 528 c-15 -25 -81 -227 -92 -284 -8 -43 13 -47 27 -4 11 30 12
30 84 30 72 0 73 0 84 -30 5 -17 17 -30 26 -30 13 0 15 6 10 32 -15 68 -101
302 -112 305 -6 3 -18 -6 -27 -19z m55 -127 c28 -87 23 -101 -35 -101 -25 0
-48 4 -51 10 -5 8 29 141 42 163 9 16 23 -6 44 -72z"/>
<path d="M678 544 c-7 -10 54 -216 84 -286 21 -49 41 -61 52 -31 35 90 96 298
92 309 -11 29 -25 2 -66 -126 -23 -72 -45 -130 -49 -130 -4 0 -22 52 -40 115
-32 110 -61 169 -73 149z"/>
<path d="M1132 513 c-22 -43 -92 -263 -92 -287 0 -28 28 -17 39 14 10 29 12
30 73 30 70 0 84 -6 89 -35 5 -26 39 -33 38 -8 -1 33 -104 317 -116 321 -7 2
-21 -14 -31 -35z m62 -121 c14 -42 26 -80 26 -85 0 -4 -28 -7 -61 -7 l-61 0 5
28 c9 45 48 142 57 142 5 0 20 -35 34 -78z"/>
<path d="M1465 510 c-4 -23 -4 -100 0 -170 l7 -127 61 -7 c82 -8 109 -7 127 4
27 18 -9 30 -86 30 l-71 0 -7 148 c-8 151 -19 195 -31 122z"/>
<path d="M1942 537 c-6 -7 -31 -78 -57 -159 -50 -158 -56 -211 -16 -145 23 37
23 37 91 37 68 0 68 0 91 -37 50 -83 30 22 -42 223 -30 82 -48 104 -67 81z
m38 -99 c6 -24 15 -56 20 -72 17 -51 14 -56 -40 -56 -40 0 -50 3 -50 16 0 30
41 154 50 154 5 0 14 -19 20 -42z"/>
<path d="M2265 509 c-8 -49 4 -299 15 -299 7 0 20 121 20 192 0 21 4 38 9 38
5 0 42 -52 82 -115 39 -64 77 -114 83 -112 12 4 22 298 11 326 -12 32 -20 -7
-25 -122 l-5 -122 -76 115 c-41 63 -83 121 -91 128 -14 11 -17 8 -23 -29z"/>
<path d="M2742 533 c-45 -22 -50 -36 -58 -145 -6 -81 -4 -100 11 -125 22 -37
40 -49 91 -57 35 -6 45 -4 73 19 41 35 56 64 42 78 -8 8 -20 1 -45 -26 -39
-43 -70 -47 -110 -16 -25 19 -26 25 -26 114 0 84 2 96 22 115 22 20 72 27 94
12 6 -4 19 -22 28 -39 18 -35 33 -42 42 -19 9 24 -23 72 -60 90 -42 20 -62 20
-104 -1z"/>
<path d="M3090 525 c-18 -48 -6 -315 15 -315 12 0 25 63 25 122 l0 29 73 -3
72 -3 3 -55 c7 -165 30 -114 31 70 1 142 -5 192 -20 168 -5 -7 -9 -41 -9 -74
0 -67 -6 -74 -75 -74 -66 0 -72 6 -79 81 -8 75 -21 95 -36 54z"/>
<path d="M3528 543 c-10 -2 -21 -16 -24 -30 -6 -20 4 -294 10 -300 8 -9 184
-12 196 -4 27 19 -8 31 -92 31 l-78 0 0 60 0 60 53 0 c28 0 58 4 66 9 22 14
-19 31 -73 31 l-46 0 0 55 0 55 78 0 c83 0 119 12 92 30 -15 10 -149 12 -182
3z"/>
<path d="M4140 543 c-32 -13 -36 -48 -23 -236 l6 -97 98 0 c54 0 100 4 103 9
9 15 -21 21 -100 21 l-74 0 0 60 0 60 53 0 c61 0 91 14 67 30 -8 5 -39 10 -67
10 l-53 0 0 55 0 55 78 0 c83 0 119 12 92 30 -16 10 -154 12 -180 3z"/>
<path d="M4564 540 c-55 -22 -81 -102 -68 -206 13 -107 79 -156 158 -119 42
20 70 63 55 86 -8 12 -12 11 -22 -5 -37 -60 -84 -72 -131 -35 -25 19 -26 25
-26 115 0 107 14 134 71 134 42 0 65 -15 77 -50 12 -33 29 -39 39 -14 9 23
-20 65 -59 86 -35 19 -61 22 -94 8z"/>
<path d="M4949 527 l-44 -24 0 -120 c0 -104 3 -124 19 -142 45 -50 127 -48
177 5 22 23 24 34 24 129 0 114 -9 135 -72 161 -43 19 -53 18 -104 -9z m107
-25 c24 -16 34 -54 34 -130 0 -100 -20 -132 -80 -132 -60 0 -80 32 -80 132 0
110 16 138 80 138 19 0 40 -4 46 -8z"/>
<path d="M5360 532 c-19 -9 -41 -29 -49 -44 -22 -38 -2 -68 71 -109 114 -65
132 -91 86 -123 -49 -34 -105 -15 -145 50 -10 16 -14 17 -22 5 -20 -30 23 -85
80 -102 71 -22 139 21 139 86 0 43 -6 49 -95 98 -60 33 -81 50 -83 67 -5 30
21 50 64 50 47 0 63 -9 80 -42 19 -36 40 -24 30 17 -5 18 -20 32 -49 45 -52
24 -63 24 -107 2z"/>
<path d="M5685 540 c-3 -6 8 -34 25 -62 43 -69 60 -120 60 -179 0 -26 5 -60
11 -76 10 -27 11 -27 25 -9 9 13 14 44 14 86 0 59 5 76 45 152 49 93 46 128
-4 56 -17 -24 -37 -53 -46 -65 -9 -13 -19 -23 -23 -23 -4 0 -23 25 -41 55 -39
63 -56 81 -66 65z"/>
<path d="M6123 536 c-55 -25 -71 -86 -30 -123 12 -11 38 -28 57 -38 56 -28
100 -65 100 -84 0 -28 -33 -51 -72 -51 -30 0 -42 7 -72 42 -28 35 -36 40 -41
26 -10 -27 17 -71 55 -91 45 -23 103 -17 136 14 21 19 24 31 22 68 -3 45 -4
45 -81 90 -85 50 -106 82 -72 108 38 27 125 5 125 -32 0 -17 17 -28 29 -20 15
9 -8 64 -33 80 -34 22 -88 26 -123 11z"/>
<path d="M6467 544 c-31 -9 -12 -29 30 -32 l40 -3 7 -147 c4 -81 9 -149 12
-151 12 -12 17 21 21 153 l6 146 43 0 c40 0 64 12 47 23 -12 8 -186 16 -206
11z"/>
<path d="M6880 543 c-32 -13 -36 -48 -23 -236 l6 -97 98 0 c54 0 100 4 103 9
9 15 -21 21 -100 21 l-74 0 0 60 0 60 53 0 c28 0 58 4 66 9 22 14 -19 31 -73
31 l-46 0 0 55 0 55 78 0 c83 0 119 12 92 30 -16 10 -154 12 -180 3z"/>
<path d="M7255 503 c-8 -54 4 -293 15 -293 7 0 20 121 20 192 0 48 15 47 49
-5 29 -44 57 -48 72 -10 12 31 37 63 51 63 4 0 8 -28 9 -62 1 -35 4 -88 8
-118 6 -48 8 -39 14 77 5 72 5 148 1 167 -5 32 -8 35 -22 24 -8 -7 -30 -37
-49 -65 -18 -29 -37 -53 -41 -53 -14 0 -27 15 -66 73 -21 31 -42 57 -46 57 -4
0 -11 -21 -15 -47z"/>
<path d="M7930 541 c-19 -13 -28 -270 -10 -316 17 -44 30 -15 30 68 l0 67 53
0 c28 0 59 4 67 10 22 14 -37 33 -82 26 l-38 -6 0 60 0 60 78 0 c72 0 115 11
95 23 -18 11 -178 18 -193 8z"/>
<path d="M8304 526 c-3 -14 -5 -78 -3 -141 4 -114 4 -115 37 -147 27 -27 40
-33 76 -33 54 0 91 31 107 88 10 37 3 230 -9 251 -13 23 -22 -30 -22 -137 0
-112 -1 -119 -25 -142 -27 -28 -71 -33 -100 -11 -16 11 -20 34 -26 146 -8 132
-21 180 -35 126z"/>
<path d="M8716 519 c-10 -50 -7 -265 4 -294 18 -48 30 -15 31 88 1 153 6 157
67 56 66 -108 101 -159 111 -159 11 0 25 270 16 310 -14 61 -25 16 -25 -101 0
-65 -4 -119 -9 -119 -5 0 -37 46 -72 103 -62 101 -96 147 -109 147 -4 0 -10
-14 -14 -31z"/>
<path d="M9156 534 c-17 -17 -18 -31 -12 -168 4 -83 10 -153 12 -156 3 -3 34
-5 69 -4 107 1 145 46 145 166 0 131 -25 163 -138 174 -48 5 -61 3 -76 -12z
m154 -43 c5 -11 10 -65 10 -120 0 -120 -7 -131 -84 -131 l-53 0 -6 113 c-9
155 -8 157 64 157 47 0 60 -4 69 -19z"/>
</g>
</svg>
