<svg width="151" height="70" viewBox="0 0 151 70" fill="none" xmlns="http://www.w3.org/2000/svg">
<rect width="150.206" height="70" rx="7.77778" fill="white"/>
<g clip-path="url(#clip0_83_1758)">
<path d="M21.0293 14H129.178V56H21.0293C21.0293 32.9378 21.0293 37.0622 21.0293 14ZM37.562 30.5885C37.7152 30.4978 37.832 30.4374 37.9414 30.3694C38.6491 29.9464 39.0796 29.3119 39.2182 28.4809C39.3131 27.9144 39.2839 27.3478 39.1599 26.7964C38.9702 25.9504 38.5178 25.3158 37.7809 24.8928C37.1243 24.5151 36.4093 24.3489 35.6724 24.3338C34.0964 24.3112 32.5278 24.3187 30.9519 24.3187C30.6454 24.3187 30.5944 24.3716 30.5871 24.704C30.5871 25.0061 30.5871 25.3083 30.5871 25.6104C30.5871 26.1468 30.6235 26.1845 31.1416 26.1845C32.4913 26.1845 33.8411 26.1845 35.1981 26.1996C35.4608 26.1996 35.738 26.2299 35.9934 26.3054C36.796 26.5245 37.2264 27.1665 37.2191 28.0579C37.2191 28.8964 36.7668 29.4781 35.9569 29.6971C35.8329 29.7273 35.7088 29.7651 35.5775 29.7651C34.7385 29.7802 33.8994 29.7953 33.0604 29.8029C32.6956 29.8029 32.6883 29.7878 32.681 29.4176C32.681 29.0097 32.681 28.5942 32.681 28.1863C32.681 27.8842 32.608 27.8086 32.3381 27.8086C31.8639 27.8011 31.3823 27.8011 30.9081 27.8086C30.6673 27.8086 30.6016 27.8917 30.5798 28.1335C30.5725 28.2392 30.5798 28.3525 30.5798 28.4583C30.5798 30.4374 30.5798 32.4165 30.5871 34.3957C30.5871 35.2266 30.5871 36.0576 30.5871 36.896C30.5871 37.2964 30.6381 37.3493 31.0029 37.3493C32.4913 37.3493 33.987 37.3568 35.4754 37.3493C36.3217 37.3417 37.1389 37.1755 37.8904 36.7223C38.7148 36.2237 39.2401 35.5061 39.3787 34.5241C39.4298 34.1691 39.4517 33.8065 39.4371 33.4439C39.386 32.2881 38.8826 31.3968 37.8976 30.8151C37.8028 30.7547 37.708 30.6942 37.5693 30.6112L37.562 30.5885ZM105.969 31.5932C106.137 31.5252 106.261 31.4723 106.392 31.4194C107.407 30.9813 108.078 30.2183 108.333 29.1155C108.421 28.7227 108.443 28.2996 108.435 27.8993C108.406 26.1543 107.283 24.4396 105.057 24.3414C103.35 24.2658 101.635 24.3187 99.9209 24.3263C99.6364 24.3263 99.5853 24.3867 99.5707 24.6888C99.5707 24.7493 99.5707 24.8097 99.5707 24.8701C99.5707 28.836 99.5707 32.8094 99.5707 36.7752C99.5707 36.8583 99.5707 36.9414 99.5707 37.032C99.5926 37.2586 99.651 37.3342 99.8772 37.3342C100.381 37.3417 100.877 37.3417 101.38 37.3342C101.592 37.3342 101.643 37.2662 101.657 37.0471C101.657 36.9489 101.657 36.8507 101.657 36.7601C101.657 35.2417 101.657 33.7234 101.657 32.1975C101.657 32.0615 101.672 31.918 101.679 31.782C101.76 31.7669 101.803 31.7442 101.847 31.7442C102.475 31.7442 103.102 31.7442 103.737 31.7442C103.919 31.7442 104.007 31.8349 104.072 31.9935C104.306 32.5299 104.547 33.0662 104.78 33.6025C105.283 34.7432 105.794 35.8838 106.298 37.0245C106.378 37.1982 106.458 37.3417 106.677 37.3417C107.224 37.3417 107.771 37.3417 108.319 37.3417C108.399 37.3417 108.472 37.2813 108.581 37.236C107.698 35.3399 106.83 33.4892 105.955 31.6158L105.969 31.5932ZM112.331 32.5525C112.331 34.0029 112.331 35.4457 112.331 36.896C112.331 37.2888 112.375 37.3266 112.755 37.3266C114.163 37.3266 115.571 37.3417 116.986 37.3191C117.482 37.3115 117.993 37.2435 118.467 37.1151C120.145 36.6619 121.167 35.3777 121.196 33.6629C121.225 31.7594 121.233 29.8482 121.196 27.9446C121.167 26.5245 120.51 25.4669 119.27 24.8173C118.584 24.4547 117.84 24.3112 117.074 24.3036C116.257 24.3036 115.44 24.3036 114.63 24.3036C113.98 24.3036 113.324 24.3036 112.674 24.3036C112.39 24.3036 112.346 24.3489 112.339 24.636C112.339 25.0363 112.339 25.4291 112.339 25.8295C112.339 26.0788 112.412 26.1468 112.652 26.1619C112.747 26.1694 112.842 26.1619 112.93 26.1619C114.279 26.1619 115.629 26.1619 116.986 26.1619C117.315 26.1619 117.636 26.2072 117.942 26.3507C118.759 26.7435 119.095 27.4612 119.109 28.3374C119.139 29.9691 119.146 31.5932 119.109 33.2248C119.073 34.6676 118.183 35.4683 116.913 35.4457C116.249 35.4306 115.585 35.4457 114.922 35.4457C114.841 35.4457 114.761 35.4457 114.681 35.4457C114.535 35.4306 114.447 35.3475 114.44 35.1888C114.44 35.0906 114.44 34.9924 114.44 34.9018C114.44 32.7414 114.44 30.5809 114.44 28.4281C114.44 28.3223 114.44 28.209 114.44 28.1032C114.433 27.9219 114.345 27.8011 114.163 27.8011C113.652 27.8011 113.134 27.7935 112.623 27.8011C112.426 27.8011 112.368 27.8842 112.353 28.1032C112.353 28.1863 112.353 28.2694 112.353 28.3601C112.353 29.7576 112.353 31.155 112.353 32.5601L112.331 32.5525ZM90.5383 27.0457H90.6039C90.6477 27.159 90.6915 27.2799 90.728 27.4007C91.6837 30.5885 92.6395 33.7763 93.588 36.964C93.6901 37.3115 93.7047 37.3191 94.0477 37.3266C94.4781 37.3266 94.9086 37.3266 95.339 37.3266C95.9154 37.3266 95.93 37.3115 95.7549 36.745C94.7043 33.3759 93.6537 29.9993 92.603 26.6302C92.3988 25.9655 92.1872 25.3007 91.9829 24.636C91.9318 24.4698 91.888 24.3112 91.6692 24.3187C90.9469 24.3187 90.2245 24.3187 89.5022 24.3187C89.349 24.3187 89.2615 24.3867 89.2104 24.5302C89.1812 24.6133 89.1593 24.6888 89.1301 24.7719C87.9993 28.4205 86.8684 32.0691 85.7375 35.7176C85.6062 36.1406 85.4676 36.5637 85.3435 36.9942C85.2706 37.236 85.3289 37.3266 85.5551 37.3342C86.1242 37.3417 86.6933 37.3342 87.2697 37.3342C87.4156 37.3342 87.5104 37.2511 87.5542 37.1076C87.5907 36.9942 87.6199 36.8809 87.6564 36.7601C88.5684 33.6705 89.4804 30.5809 90.3924 27.4914C90.4361 27.3403 90.4872 27.1968 90.531 27.0532L90.5383 27.0457ZM75.6909 35.4306C75.7858 35.2795 75.8368 35.1737 75.9025 35.0831C77.0407 33.391 78.1862 31.6989 79.3243 30.0144C80.105 28.8586 80.8857 27.7029 81.6663 26.5396C81.7539 26.4036 81.8487 26.245 81.856 26.0863C81.8779 25.5953 81.8706 25.0968 81.856 24.6058C81.856 24.3716 81.7831 24.3263 81.5496 24.3112C81.4766 24.3112 81.411 24.3112 81.338 24.3112C78.8574 24.3112 76.3767 24.3112 73.8961 24.3112C73.8158 24.3112 73.7356 24.3112 73.648 24.3112C73.3927 24.3263 73.3416 24.3716 73.3343 24.636C73.327 25.0061 73.3343 25.3838 73.3343 25.754C73.3343 26.1317 73.3781 26.1694 73.7356 26.177C73.8086 26.177 73.8742 26.177 73.9472 26.177C75.6471 26.177 77.3471 26.177 79.0471 26.177C79.1784 26.177 79.3097 26.1921 79.4921 26.1996C79.4046 26.3432 79.3608 26.4338 79.3024 26.5245C78.5072 27.7029 77.7119 28.8737 76.9166 30.0522C75.7858 31.7216 74.6622 33.391 73.5313 35.0604C73.4219 35.2191 73.327 35.3777 73.327 35.5817C73.3343 36.0424 73.327 36.4957 73.327 36.9565C73.327 37.2511 73.3927 37.304 73.6845 37.3191C73.7429 37.3191 73.8013 37.3191 73.8596 37.3191C76.3549 37.3191 78.8428 37.3191 81.338 37.3191C81.411 37.3191 81.4766 37.3191 81.5496 37.3191C81.7685 37.2964 81.8414 37.236 81.8414 37.0018C81.8487 36.5939 81.8487 36.1784 81.8414 35.7705C81.8414 35.5137 81.7758 35.4608 81.5277 35.4457C81.4475 35.4457 81.3672 35.4457 81.2797 35.4457C79.5578 35.4457 77.8287 35.4457 76.1068 35.4457C75.9828 35.4457 75.8587 35.4381 75.6763 35.4306H75.6909ZM67.3881 26.177C67.4027 26.2072 67.4173 26.2374 67.4319 26.2601C67.3662 26.3658 67.3005 26.4791 67.2276 26.5849C66.4031 27.8086 65.5714 29.0399 64.7469 30.2637C63.6671 31.8651 62.5873 33.4665 61.5002 35.068C61.3689 35.2644 61.2959 35.4608 61.3032 35.7025C61.3178 36.1104 61.3032 36.5259 61.3032 36.9338C61.3032 37.2662 61.3543 37.3115 61.6607 37.3191C61.7337 37.3191 61.7993 37.3191 61.8723 37.3191C64.3383 37.3191 66.8117 37.3191 69.2777 37.3191C69.358 37.3191 69.4383 37.3191 69.5258 37.3191C69.7301 37.304 69.8103 37.236 69.8176 37.0396C69.8322 36.609 69.8322 36.1709 69.8176 35.7403C69.8176 35.5288 69.7374 35.4759 69.5331 35.4608C69.4528 35.4608 69.3726 35.4608 69.285 35.4608C67.5486 35.4608 65.8121 35.4608 64.0757 35.4608C63.9517 35.4608 63.8276 35.4608 63.6452 35.4608C63.7328 35.3097 63.7766 35.2115 63.8276 35.1284C64.3967 34.2748 64.9731 33.4288 65.5495 32.5752C66.8992 30.5809 68.249 28.5867 69.5915 26.5849C69.6863 26.4489 69.7958 26.2903 69.8031 26.1392C69.8322 25.6255 69.8176 25.1043 69.8176 24.5831C69.8176 24.4169 69.7228 24.3187 69.555 24.3112C69.4601 24.3112 69.3653 24.3112 69.2777 24.3112C66.9795 24.3112 64.6886 24.3112 62.3903 24.3112C62.1423 24.3112 61.9015 24.3112 61.6534 24.3112C61.347 24.3112 61.3032 24.3565 61.3032 24.6662C61.3032 25.0514 61.3032 25.4367 61.3032 25.8219C61.3032 26.1241 61.3616 26.1694 61.6534 26.177C61.7337 26.177 61.8139 26.177 61.9015 26.177C63.6015 26.177 65.3014 26.177 67.0014 26.177C67.1254 26.177 67.2495 26.177 67.3735 26.177H67.3881ZM45.449 35.4532V34.9849C45.449 32.5223 45.449 30.0673 45.449 27.6047C45.449 26.6755 45.449 25.7464 45.449 24.8173C45.449 24.3036 45.449 24.3036 44.9383 24.3036C44.5881 24.3036 44.2379 24.3036 43.8877 24.3036C43.5326 24.3036 43.3551 24.4924 43.3551 24.8701C43.3551 28.8209 43.3551 32.7791 43.3551 36.7299C43.3551 36.8129 43.3551 36.896 43.3551 36.9867C43.3696 37.2435 43.428 37.2964 43.6761 37.3115C43.7782 37.3115 43.8877 37.3115 43.9898 37.3115C46.4121 37.3115 48.8343 37.3115 51.2566 37.3115C51.3296 37.3115 51.3952 37.3115 51.4682 37.3115C51.7017 37.2964 51.76 37.236 51.7673 37.0094C51.7746 36.5863 51.7746 36.1633 51.7673 35.7403C51.7673 35.4986 51.709 35.4608 51.4682 35.4457C51.3661 35.4457 51.2566 35.4457 51.1545 35.4457C49.4107 35.4457 47.6597 35.4457 45.9159 35.4457C45.7773 35.4457 45.646 35.4457 45.4636 35.4457L45.449 35.4532ZM57.5458 30.7924C57.5458 28.7906 57.5458 26.7888 57.5458 24.7871C57.5458 24.3263 57.5312 24.3112 57.1007 24.3112C56.7286 24.3112 56.3565 24.3112 55.9844 24.3112C55.6342 24.3112 55.4591 24.4899 55.4591 24.8475C55.4591 28.8284 55.4591 32.8018 55.4591 36.7827C55.4591 36.8658 55.4591 36.9489 55.4591 37.0396C55.4591 37.2133 55.5467 37.3191 55.7145 37.3191C56.2398 37.3191 56.7651 37.3191 57.2831 37.3191C57.4509 37.3191 57.5385 37.2284 57.5458 37.0471C57.5458 36.9489 57.5458 36.8507 57.5458 36.7601C57.5458 34.7734 57.5458 32.7791 57.5458 30.7924ZM100.322 44.6086C100.351 44.6011 100.381 44.586 100.41 44.5784C100.446 44.6237 100.49 44.6615 100.519 44.7068C100.687 44.9712 100.848 45.2356 101.023 45.4924C101.19 45.7417 101.293 45.7417 101.46 45.4773C101.628 45.2205 101.789 44.9561 101.964 44.6917C101.993 44.6388 102.051 44.6086 102.154 44.5104V47.1996C102.263 47.1996 102.329 47.1996 102.394 47.1996C102.423 47.1996 102.453 47.1694 102.475 47.1543C102.547 46.4291 102.569 43.9817 102.416 43.7852C102.292 43.6266 102.117 43.8079 102.008 43.9741C101.767 44.3669 101.519 44.7522 101.242 45.1752C101.139 45.0241 101.059 44.9183 100.993 44.8126C100.796 44.5104 100.607 44.2083 100.417 43.9061C100.308 43.7324 100.176 43.6946 99.9939 43.7928V47.1845H100.315V44.6086H100.322ZM117.008 47.1392C117.008 46.0741 117.008 45.009 117.008 43.9363C117.008 43.7399 116.972 43.7248 116.673 43.7928C116.651 44.6313 116.68 45.4773 116.621 46.3309C116.512 46.2403 116.439 46.1421 116.373 46.0288C115.965 45.3414 115.556 44.654 115.148 43.9665C114.994 43.7097 114.994 43.7173 114.688 43.7928V47.177C114.783 47.177 114.885 47.1921 115.002 47.1996C115.053 46.3234 114.973 45.4849 115.089 44.6388C115.199 44.7371 115.272 44.8353 115.337 44.9486C115.746 45.636 116.155 46.3234 116.563 47.0108C116.694 47.2299 116.702 47.2299 117.015 47.1392H117.008ZM50.3519 47.1996C50.3738 46.3158 50.3227 45.4773 50.4176 44.6388C50.5197 44.7219 50.5854 44.8126 50.6438 44.9108C51.0596 45.6058 51.4682 46.3083 51.8914 47.0032C52.0373 47.245 52.0519 47.2374 52.3291 47.1317V43.7399C52.2124 43.7399 52.1175 43.755 52.0081 43.755C51.9643 44.6313 52.0373 45.4773 51.9351 46.3234C51.833 46.2327 51.7673 46.1421 51.709 46.0439C51.2931 45.3489 50.8772 44.6464 50.4614 43.9514C50.3592 43.7777 50.2425 43.6719 50.0236 43.7852V47.1845C50.133 47.1845 50.2206 47.1921 50.3446 47.1996H50.3519ZM60.1723 45.2885H58.6329V43.755H58.2973V47.177H58.6402V45.6284C59.1728 45.6209 59.6689 45.5982 60.1869 45.6435V47.1996C60.3183 47.1921 60.4131 47.1845 60.5298 47.177C60.5298 46.0817 60.5298 45.0241 60.5298 43.9665C60.5298 43.7324 60.5007 43.7248 60.1723 43.8004V45.2885ZM88.1087 46.127C88.0358 46.6331 88.1817 46.9352 88.5902 47.1165C88.9915 47.2978 89.4074 47.2978 89.816 47.1392C90.2464 46.973 90.4507 46.5198 90.3194 46.0817C90.2464 45.8399 90.0713 45.6662 89.8671 45.5529C89.6117 45.4169 89.3344 45.3036 89.0718 45.1752C88.9259 45.0996 88.7726 45.0392 88.6486 44.9335C88.4224 44.7446 88.4297 44.3594 88.6486 44.1705C88.955 43.9137 89.6409 43.9817 89.8597 44.314C89.9473 44.45 89.9692 44.6237 90.0276 44.7899C90.064 44.7899 90.1078 44.805 90.1516 44.805C90.2027 44.805 90.261 44.7824 90.3048 44.7673C90.3267 44.2234 90.1297 43.9212 89.6628 43.7701C89.3563 43.6719 89.0426 43.6719 88.7362 43.7701C88.4078 43.8683 88.189 44.0799 88.1525 44.45C88.1087 44.8277 88.24 45.1147 88.5611 45.296C88.7654 45.4094 88.9842 45.4924 89.1958 45.5982C89.3928 45.6964 89.5971 45.7946 89.7795 45.9155C89.9619 46.0363 90.0276 46.2252 89.9911 46.4518C89.9546 46.6633 89.8306 46.8144 89.6409 46.8597C89.4293 46.905 89.2031 46.9201 88.9842 46.8975C88.6194 46.8522 88.4735 46.6633 88.4151 46.2781C88.4151 46.2327 88.3932 46.1874 88.3787 46.1345H88.116L88.1087 46.127ZM82.644 44.7975C82.6878 44.2989 82.52 43.9892 82.126 43.8155C81.8342 43.687 81.535 43.687 81.2359 43.7324C80.8127 43.7928 80.5428 44.0647 80.4844 44.4727C80.4333 44.8353 80.6011 45.145 80.9732 45.3414C81.2359 45.4773 81.5058 45.5831 81.7685 45.7115C81.9144 45.787 82.0603 45.8626 82.1844 45.9759C82.4178 46.195 82.4032 46.5727 82.1552 46.7615C81.856 46.9881 81.5131 46.9504 81.1848 46.8522C80.893 46.7615 80.7616 46.5349 80.747 46.2252C80.747 46.195 80.7252 46.1647 80.7033 46.1119C80.6157 46.1194 80.5282 46.127 80.4479 46.1345C80.3968 46.6406 80.5646 46.9579 80.9805 47.1317C81.2943 47.2601 81.6153 47.2752 81.9436 47.2072C82.3595 47.1241 82.6294 46.8673 82.6951 46.4971C82.7607 46.1119 82.6148 45.787 82.2354 45.568C81.9874 45.4169 81.7101 45.3111 81.4475 45.1827C81.3015 45.1072 81.1483 45.0468 81.017 44.9486C80.7689 44.7597 80.7616 44.3971 80.9805 44.1932C81.3161 43.8759 82.2792 43.9665 82.3303 44.6162C82.3303 44.6766 82.3595 44.7295 82.3741 44.7899H82.644V44.7975ZM78.675 45.4698C78.675 45.2281 78.6896 44.9863 78.675 44.7446C78.6312 44.0799 78.1789 43.687 77.4857 43.7097C76.851 43.7248 76.4278 44.1478 76.4132 44.7899C76.4059 45.2507 76.4059 45.704 76.4132 46.1647C76.4278 46.8144 76.8729 47.2374 77.5295 47.245C78.1862 47.245 78.6385 46.8446 78.675 46.195C78.6896 45.9532 78.675 45.7115 78.675 45.4698ZM68.6284 43.7399C68.5481 44.095 68.5554 46.905 68.6284 47.1845H70.7005C70.7734 47.0032 70.7296 46.8975 70.5545 46.8975C70.2846 46.8975 70.0219 46.8975 69.752 46.8975C69.4893 46.8975 69.2267 46.8975 68.9421 46.8975V45.636H70.1679C70.2043 45.3263 70.2043 45.3187 69.9782 45.3111C69.6425 45.3111 69.3069 45.3111 68.9494 45.3111V44.0723C69.1464 44.0723 69.3215 44.0723 69.4893 44.0723C69.8541 44.0723 70.2116 44.0723 70.5764 44.0723C70.6932 44.0723 70.7661 44.0119 70.7369 43.8986C70.7223 43.8381 70.6348 43.755 70.5837 43.755C69.9344 43.7475 69.285 43.755 68.6357 43.755L68.6284 43.7399ZM96.3824 45.6133H97.6665C97.6519 45.4773 97.6446 45.4018 97.63 45.2885H96.3824V44.0647H98.1772C98.1626 43.9288 98.1553 43.8381 98.148 43.755C97.4841 43.6946 96.2875 43.7173 96.0322 43.7928V47.1921C96.7545 47.2072 97.4549 47.2072 98.1845 47.1921C98.1699 47.0637 98.1626 46.9806 98.148 46.8673H96.3824V45.6058V45.6133ZM62.8281 46.8824V45.6133H64.0757V45.3263C63.6525 45.2583 63.2294 45.3489 62.8208 45.2734V44.0647H64.601C64.601 43.9363 64.5864 43.8457 64.5864 43.7626C63.9881 43.7022 62.7332 43.7248 62.4706 43.8004V47.1921H64.601C64.601 47.0863 64.5937 47.0032 64.5864 46.8824H62.8354H62.8281ZM118.963 43.7777V47.1845C119.452 47.1845 119.919 47.2147 120.379 47.177C120.846 47.1392 121.138 46.7842 121.152 46.3083C121.167 45.7568 121.167 45.1978 121.152 44.6464C121.138 44.1705 120.875 43.8381 120.415 43.7928C119.948 43.7475 119.474 43.7852 118.971 43.7852L118.963 43.7777ZM112.419 43.7626C112.419 43.9363 112.419 44.0799 112.419 44.2234C112.419 44.8655 112.419 45.5 112.419 46.1421C112.419 46.5878 112.156 46.8748 111.748 46.9201C111.208 46.9806 110.858 46.6633 110.85 46.0817C110.843 45.4396 110.85 44.805 110.85 44.1629C110.85 44.0345 110.836 43.9061 110.836 43.7626H110.558C110.537 43.8079 110.522 43.8306 110.522 43.8532C110.522 44.6464 110.515 45.4471 110.522 46.2403C110.522 46.5122 110.631 46.7615 110.836 46.9428C111.244 47.2978 111.704 47.3356 112.178 47.1392C112.616 46.9579 112.791 46.5802 112.791 46.0968C112.791 45.4245 112.791 44.7446 112.791 44.0723C112.791 43.9817 112.784 43.8835 112.776 43.7777C112.718 43.7626 112.674 43.7399 112.631 43.7399C112.587 43.7399 112.543 43.7475 112.441 43.7626H112.419ZM46.7696 43.7475C46.4121 44.8957 46.0546 46.0288 45.6971 47.1845H46.0546C46.1275 46.9655 46.2005 46.7691 46.2735 46.5576H47.7108C47.7618 46.7162 47.7983 46.8522 47.8494 46.9881C47.9296 47.2223 47.9588 47.2299 48.2653 47.1317C47.9078 46.0061 47.5503 44.873 47.2 43.7475H46.7696ZM38.7367 43.7701C38.3865 44.8881 38.029 46.0212 37.6715 47.1694C37.9049 47.1946 38.0533 47.1165 38.1165 46.9352C38.1603 46.8144 38.1968 46.686 38.2406 46.5651H39.6779C39.7508 46.7842 39.8238 46.9881 39.8895 47.1845H40.2324C40.1959 47.0486 40.174 46.9504 40.1448 46.8446C39.853 45.9155 39.5611 44.9939 39.2693 44.0647C39.1599 43.7097 39.1526 43.7097 38.7367 43.7626V43.7701ZM32.9145 47.1921C32.5497 46.0288 32.1922 44.8881 31.8347 43.7626H31.4042C31.0467 44.9032 30.6965 46.0288 30.339 47.1694C30.5725 47.2097 30.7184 47.1392 30.7768 46.9579C30.8205 46.8219 30.8643 46.6935 30.9081 46.5727H32.3381C32.3819 46.686 32.4111 46.7842 32.4475 46.8899C32.484 46.9881 32.5205 47.0939 32.557 47.2072H32.9145V47.1921ZM56.4951 46.1043C56.3127 46.127 56.2179 46.1345 56.1303 46.1421C56.1085 46.2176 56.1012 46.2478 56.0939 46.2856C55.9844 46.754 55.6926 46.9655 55.2256 46.9201C54.8171 46.8824 54.569 46.5953 54.5617 46.1421C54.5544 45.6813 54.5471 45.2281 54.5617 44.7673C54.5763 44.3669 54.7952 44.1101 55.16 44.0345C55.6123 43.9363 55.9771 44.1856 56.0866 44.6691C56.1012 44.7219 56.1303 44.7748 56.1595 44.8579C56.2617 44.8277 56.3565 44.7975 56.4368 44.7748C56.4076 44.3971 56.3638 44.246 56.2033 44.0723C55.8385 43.6719 55.3935 43.6266 54.9192 43.7701C54.4669 43.8986 54.2188 44.246 54.1969 44.7597C54.1823 45.2281 54.1969 45.6964 54.1969 46.1647C54.1969 46.2252 54.2042 46.2856 54.2188 46.346C54.2991 46.8371 54.6128 47.1468 55.1089 47.2299C55.6415 47.3205 56.1376 47.109 56.3346 46.6784C56.4076 46.5273 56.4222 46.346 56.4879 46.0968L56.4951 46.1043ZM74.312 46.1119C74.2901 46.195 74.2755 46.2403 74.2682 46.2856C74.1588 46.7464 73.8596 46.9655 73.4 46.9201C72.9841 46.8748 72.7433 46.6029 72.7287 46.1421C72.7142 45.6813 72.7142 45.2281 72.7287 44.7673C72.7433 44.3291 73.0206 44.0572 73.4365 44.0194C73.845 43.9817 74.1588 44.2158 74.2609 44.6313C74.2755 44.6993 74.2974 44.7597 74.3266 44.8428C74.3995 44.8428 74.4579 44.8428 74.509 44.8277C74.5382 44.8277 74.5673 44.7975 74.5965 44.7824C74.6111 44.45 74.5527 44.246 74.363 44.0496C74.0055 43.6719 73.5605 43.6342 73.1008 43.7626C72.6412 43.891 72.4004 44.2385 72.3712 44.7144C72.3421 45.2205 72.3421 45.7266 72.3712 46.2327C72.3931 46.6558 72.5974 46.9881 72.9987 47.1543C73.3489 47.2978 73.7064 47.2903 74.0493 47.1241C74.4068 46.9504 74.5965 46.6482 74.6038 46.2403C74.6038 46.2101 74.5819 46.1723 74.5673 46.127C74.4871 46.127 74.4141 46.1194 74.3047 46.1119H74.312ZM35.3295 46.5576C35.3076 46.5576 35.2857 46.5576 35.2565 46.5576C35.2127 46.4367 35.1689 46.3158 35.1325 46.195C34.9063 45.4622 34.6947 44.7219 34.4685 43.9892C34.381 43.7173 34.3664 43.7097 34.0745 43.8079C34.0745 43.8306 34.0672 43.8608 34.0745 43.8759C34.3956 44.9183 34.7166 45.9683 35.0376 47.0108C35.1033 47.2299 35.1179 47.2299 35.4754 47.1694C35.8256 46.0514 36.1758 44.9259 36.5333 43.7626H36.1685C36.0226 44.2385 35.884 44.6993 35.7453 45.1525C35.6067 45.6209 35.4681 46.0892 35.3222 46.5576H35.3295ZM108.764 43.755C107.932 43.687 106.889 43.7173 106.641 43.8079V47.177H106.954C107.013 46.6558 106.932 46.1496 107.005 45.6133H108.26C108.253 45.4924 108.246 45.4094 108.238 45.296H106.998V44.0572H108.756V43.755H108.764ZM86.5693 43.7928C86.3285 43.6795 86.2045 43.755 86.1096 43.9439C85.9345 44.2989 85.7375 44.6388 85.5551 44.9863C85.5113 45.0619 85.453 45.1299 85.3873 45.2281C85.307 45.0921 85.2414 44.9939 85.183 44.8957C85.0079 44.5709 84.8328 44.246 84.665 43.9137C84.5702 43.7324 84.4461 43.6946 84.2418 43.7701C84.2783 43.8683 84.3075 43.9514 84.3513 44.0345C84.5556 44.4122 84.7453 44.805 84.9641 45.1676C85.1611 45.5 85.256 45.8399 85.2268 46.2252C85.2049 46.5349 85.2268 46.8446 85.2268 47.1845C85.3727 47.177 85.4676 47.1694 85.577 47.1619C85.577 46.7388 85.5843 46.3536 85.577 45.9683C85.577 45.7568 85.6208 45.568 85.7229 45.3867C86.0075 44.8655 86.2847 44.3367 86.5838 43.7777L86.5693 43.7928ZM42.0199 47.1845H44.0482C44.1211 46.9881 44.0774 46.8899 43.8804 46.8899C43.6469 46.8899 43.4134 46.8899 43.18 46.8899C42.9173 46.8899 42.6546 46.8899 42.3409 46.8899C42.3409 46.7086 42.3409 46.5651 42.3409 46.4216C42.3409 45.6133 42.3409 44.8126 42.3409 44.0043C42.3409 43.7173 42.3263 43.7173 42.0199 43.8004V47.1921V47.1845ZM94.2446 43.755H91.961C91.961 43.8683 91.9683 43.9514 91.9756 44.0874H92.9168V47.1921C93.0481 47.1845 93.143 47.177 93.2597 47.1694C93.2597 46.6331 93.2597 46.127 93.2597 45.6209C93.2597 45.1072 93.2597 44.5935 93.2597 44.0496H94.2155C94.2228 43.9363 94.2301 43.8608 94.2374 43.7475L94.2446 43.755Z" fill="#FF434C"/>
<path d="M37.5618 30.5886C37.6932 30.6717 37.788 30.7321 37.8902 30.7925C38.8751 31.3742 39.3785 32.258 39.4296 33.4213C39.4442 33.7763 39.4296 34.1465 39.3712 34.5015C39.2253 35.4835 38.7073 36.2087 37.8829 36.6997C37.1387 37.1454 36.3142 37.3192 35.4679 37.3267C33.9795 37.3418 32.4838 37.3267 30.9954 37.3267C30.6306 37.3267 30.5869 37.2738 30.5796 36.8735C30.5796 36.0425 30.5796 35.2116 30.5796 34.3731C30.5796 32.394 30.5796 30.4148 30.5723 28.4357C30.5723 28.3299 30.5723 28.2166 30.5723 28.1109C30.5942 27.8692 30.6598 27.7936 30.9006 27.7861C31.3748 27.7785 31.8564 27.7785 32.3306 27.7861C32.6006 27.7861 32.6662 27.8616 32.6735 28.1638C32.6808 28.5717 32.6735 28.9871 32.6735 29.3951C32.6735 29.7652 32.6881 29.7803 33.0529 29.7803C33.8919 29.7803 34.731 29.7652 35.57 29.7425C35.6941 29.7425 35.8254 29.7048 35.9494 29.6745C36.7593 29.4555 37.2043 28.8738 37.2116 28.0353C37.2116 27.144 36.7812 26.5094 35.9859 26.2828C35.7305 26.2148 35.4606 26.1771 35.1906 26.1771C33.8409 26.162 32.4911 26.1695 31.1341 26.162C30.616 26.162 30.5796 26.1242 30.5796 25.5879C30.5796 25.2857 30.5796 24.9835 30.5796 24.6814C30.5796 24.349 30.6379 24.2961 30.9444 24.2961C32.5203 24.2961 34.0889 24.2886 35.6649 24.3112C36.4018 24.3263 37.1168 24.4925 37.7734 24.8702C38.5103 25.2933 38.97 25.9278 39.1524 26.7738C39.2764 27.3328 39.3056 27.8994 39.2107 28.4584C39.0721 29.2893 38.6489 29.9238 37.9339 30.3468C37.8245 30.4148 37.715 30.4753 37.5545 30.5659L37.5618 30.5886ZM32.7319 31.6159C32.6589 31.9861 32.6662 35.1361 32.7465 35.4307C32.8413 35.4307 32.9435 35.4458 33.0456 35.4458C33.746 35.4458 34.4391 35.4458 35.1396 35.4458C35.373 35.4458 35.6065 35.4307 35.8327 35.3853C36.5112 35.2569 37.0365 34.8943 37.2408 34.1918C37.591 32.9832 37.0949 31.7443 35.6722 31.6235C34.7164 31.5479 33.746 31.6008 32.7757 31.5933C32.7684 31.5933 32.7538 31.6008 32.7246 31.6159H32.7319Z" fill="#FEFCFC"/>
<path d="M105.969 31.6008C106.845 33.4742 107.706 35.3249 108.596 37.2209C108.486 37.2662 108.406 37.3267 108.333 37.3267C107.786 37.3342 107.239 37.3267 106.692 37.3267C106.48 37.3267 106.392 37.1832 106.312 37.0094C105.809 35.8688 105.305 34.7281 104.795 33.5875C104.554 33.0511 104.313 32.5148 104.087 31.9785C104.021 31.8198 103.934 31.7292 103.751 31.7292C103.124 31.7292 102.496 31.7292 101.862 31.7292C101.818 31.7292 101.774 31.7443 101.694 31.767C101.687 31.9029 101.672 32.0465 101.672 32.1824C101.672 33.7008 101.672 35.2191 101.672 36.745C101.672 36.8432 101.672 36.9414 101.672 37.0321C101.657 37.2436 101.606 37.3116 101.395 37.3191C100.891 37.3267 100.395 37.3267 99.8917 37.3191C99.6655 37.3191 99.6072 37.2436 99.5853 37.017C99.578 36.9339 99.5853 36.8508 99.5853 36.7601C99.5853 32.7943 99.5853 28.8209 99.5853 24.8551C99.5853 24.7947 99.5853 24.7342 99.5853 24.6738C99.5999 24.3641 99.6436 24.3112 99.9355 24.3112C101.65 24.3112 103.365 24.2508 105.072 24.3263C107.304 24.4245 108.421 26.1393 108.45 27.8842C108.45 28.2922 108.435 28.7076 108.348 29.1004C108.092 30.2109 107.428 30.9738 106.407 31.4044C106.283 31.4573 106.152 31.5101 105.984 31.5781L105.969 31.6008ZM101.687 29.9993C101.738 30.022 101.759 30.0371 101.781 30.0371C102.774 30.0371 103.759 30.0673 104.751 30.022C105.539 29.9918 106.166 29.3875 106.312 28.6019C106.597 27.0155 105.553 26.1619 104.466 26.1846C103.642 26.1997 102.81 26.1846 101.986 26.1846C101.898 26.1846 101.803 26.1997 101.694 26.2148V29.9918L101.687 29.9993Z" fill="#FEFCFC"/>
<path d="M112.338 32.5526C112.338 31.1551 112.338 29.7577 112.338 28.3526C112.338 28.2695 112.338 28.1864 112.338 28.0958C112.353 27.8767 112.411 27.8012 112.608 27.7936C113.119 27.7861 113.637 27.7936 114.148 27.7936C114.33 27.7936 114.418 27.9145 114.425 28.0958C114.425 28.2015 114.425 28.3148 114.425 28.4206C114.425 30.581 114.425 32.7415 114.425 34.8943C114.425 34.9925 114.425 35.0907 114.425 35.1814C114.425 35.34 114.527 35.4231 114.666 35.4382C114.746 35.4458 114.826 35.4382 114.906 35.4382C115.57 35.4382 116.234 35.4231 116.898 35.4382C118.161 35.4684 119.058 34.6602 119.094 33.2174C119.131 31.5933 119.124 29.9616 119.094 28.33C119.08 27.4537 118.744 26.7361 117.927 26.3433C117.628 26.1997 117.307 26.1544 116.971 26.1544C115.621 26.1544 114.272 26.1544 112.915 26.1544C112.82 26.1544 112.725 26.1544 112.637 26.1544C112.397 26.1318 112.331 26.0638 112.324 25.822C112.316 25.4217 112.316 25.0289 112.324 24.6285C112.324 24.3415 112.375 24.2961 112.659 24.2961C113.309 24.2961 113.965 24.2961 114.615 24.2961C115.432 24.2961 116.249 24.2961 117.059 24.2961C117.825 24.2961 118.569 24.4472 119.255 24.8098C120.488 25.4519 121.152 26.5095 121.181 27.9371C121.218 29.8407 121.21 31.7519 121.181 33.6555C121.152 35.3702 120.138 36.6469 118.452 37.1077C117.971 37.2361 117.467 37.3041 116.971 37.3116C115.563 37.3418 114.155 37.3192 112.74 37.3192C112.353 37.3192 112.316 37.2814 112.316 36.8886C112.316 35.4382 112.316 33.9954 112.316 32.5451L112.338 32.5526Z" fill="#FEFCFC"/>
<path d="M90.545 27.0531C90.5013 27.1967 90.4502 27.3477 90.4064 27.4913C89.4944 30.5808 88.5824 33.6704 87.6704 36.76C87.6339 36.8733 87.6047 36.9941 87.5683 37.1074C87.5245 37.251 87.4296 37.3341 87.2837 37.3341C86.7146 37.3341 86.1455 37.3341 85.5692 37.3341C85.343 37.3341 85.2919 37.2434 85.3576 36.9941C85.4816 36.5636 85.6202 36.1481 85.7516 35.7175C86.8824 32.069 88.0133 28.4204 89.1442 24.7718C89.1661 24.6887 89.1953 24.6132 89.2245 24.5301C89.2682 24.3866 89.3631 24.3186 89.5163 24.3186C90.2386 24.3186 90.9609 24.3186 91.6832 24.3186C91.9021 24.3186 91.9459 24.4772 91.9969 24.6359C92.2085 25.3006 92.4128 25.9654 92.6171 26.6301C93.6677 29.9992 94.7183 33.3758 95.769 36.7449C95.9441 37.3114 95.9295 37.3341 95.3531 37.3265C94.9226 37.3265 94.4922 37.3265 94.0617 37.3265C93.7115 37.3265 93.7042 37.3114 93.6021 36.9639C92.6463 33.7762 91.6978 30.5884 90.742 27.4006C90.7055 27.2798 90.6618 27.1589 90.618 27.0456H90.5523L90.545 27.0531Z" fill="#FEFCFC"/>
<path d="M75.6911 35.438C75.8735 35.4456 75.9975 35.4531 76.1216 35.4531C77.8434 35.4531 79.5726 35.4531 81.2944 35.4531C83.0163 35.4531 81.455 35.4531 81.5425 35.4531C81.7906 35.4682 81.8562 35.5211 81.8562 35.778C81.8635 36.1859 81.8635 36.6013 81.8562 37.0093C81.8562 37.2359 81.7833 37.3039 81.5644 37.3265C81.4914 37.3265 81.4258 37.3265 81.3528 37.3265C78.8576 37.3265 76.3696 37.3265 73.8744 37.3265C73.816 37.3265 73.7577 37.3265 73.6993 37.3265C73.4075 37.3114 73.3491 37.2585 73.3418 36.9639C73.3418 36.5031 73.3418 36.0499 73.3418 35.5891C73.3418 35.3776 73.4366 35.2265 73.5461 35.0679C74.677 33.3985 75.8005 31.729 76.9314 30.0596C77.7267 28.8812 78.522 27.7103 79.3172 26.5319C79.3756 26.4488 79.4267 26.3506 79.5069 26.2071C79.3318 26.1995 79.1932 26.1844 79.0619 26.1844C77.3619 26.1844 75.6619 26.1844 73.962 26.1844C73.889 26.1844 73.8233 26.1844 73.7504 26.1844C73.3929 26.1844 73.3491 26.1391 73.3491 25.7614C73.3491 25.3913 73.3491 25.0136 73.3491 24.6434C73.3491 24.379 73.4075 24.3337 73.6628 24.3186C73.7431 24.3186 73.8233 24.3186 73.9109 24.3186C76.3915 24.3186 78.8722 24.3186 81.3528 24.3186C81.4258 24.3186 81.4914 24.3186 81.5644 24.3186C81.7979 24.3337 81.8635 24.3866 81.8708 24.6132C81.8781 25.1042 81.8854 25.6028 81.8708 26.0938C81.8635 26.2449 81.7687 26.411 81.6811 26.547C80.9077 27.7103 80.1198 28.8661 79.3391 30.0218C78.2009 31.7139 77.0555 33.406 75.9173 35.0905C75.8516 35.1812 75.8006 35.2869 75.7057 35.438H75.6911Z" fill="#FEFCFC"/>
<path d="M67.3886 26.1844C67.2646 26.1844 67.1406 26.1844 67.0165 26.1844C65.3166 26.1844 63.6166 26.1844 61.9166 26.1844C61.8364 26.1844 61.7561 26.1844 61.6686 26.1844C61.3694 26.1693 61.3184 26.124 61.3184 25.8294C61.3184 25.4441 61.3184 25.0589 61.3184 24.6736C61.3184 24.3715 61.3694 24.3262 61.6686 24.3186C61.9166 24.3186 62.1574 24.3186 62.4055 24.3186C64.7037 24.3186 66.9946 24.3186 69.2929 24.3186C69.3877 24.3186 69.4826 24.3186 69.5701 24.3186C69.7379 24.3186 69.8328 24.4244 69.8328 24.5905C69.8328 25.1118 69.8474 25.6254 69.8182 26.1467C69.8109 26.2977 69.7015 26.4564 69.6066 26.5923C68.2642 28.5941 66.9144 30.5884 65.5646 32.5826C64.9882 33.4362 64.4192 34.2823 63.8428 35.1359C63.7844 35.219 63.7406 35.3096 63.6604 35.4682C63.8428 35.4682 63.9668 35.4682 64.0908 35.4682C65.8273 35.4682 67.5637 35.4682 69.3002 35.4682C69.3804 35.4682 69.4607 35.4682 69.5482 35.4682C69.7598 35.4834 69.8328 35.5362 69.8328 35.7477C69.8474 36.1783 69.8401 36.6164 69.8328 37.047C69.8328 37.2434 69.7452 37.3114 69.541 37.3265C69.4607 37.3265 69.3804 37.3265 69.2929 37.3265C66.8268 37.3265 64.3535 37.3265 61.8874 37.3265C61.8145 37.3265 61.7488 37.3265 61.6759 37.3265C61.3621 37.3114 61.3184 37.2736 61.3184 36.9413C61.3184 36.5334 61.3257 36.1179 61.3184 35.71C61.3184 35.4682 61.384 35.2718 61.5154 35.0754C62.6025 33.474 63.6823 31.8726 64.7621 30.2711C65.5865 29.0474 66.4183 27.8236 67.2427 26.5923C67.3157 26.4866 67.3813 26.3808 67.447 26.2675C67.4324 26.2373 67.4178 26.2071 67.4032 26.1844H67.3886Z" fill="#FEFCFC"/>
<path d="M45.4484 35.4607C45.6308 35.4607 45.7694 35.4607 45.9007 35.4607C47.6445 35.4607 49.3955 35.4607 51.1393 35.4607C51.2414 35.4607 51.3509 35.4607 51.453 35.4607C51.6938 35.4758 51.7521 35.5136 51.7521 35.7553C51.7594 36.1783 51.7594 36.6013 51.7521 37.0244C51.7521 37.2585 51.6865 37.3114 51.453 37.3265C51.38 37.3265 51.3144 37.3265 51.2414 37.3265C48.8191 37.3265 46.3969 37.3265 43.9746 37.3265C43.8725 37.3265 43.763 37.3265 43.6609 37.3265C43.4128 37.3114 43.3617 37.251 43.3398 37.0017C43.3398 36.9186 43.3398 36.8355 43.3398 36.7449C43.3398 32.7941 43.3398 28.8359 43.3398 24.8852C43.3398 24.5075 43.5174 24.3186 43.8725 24.3186C44.2227 24.3186 44.5729 24.3186 44.9231 24.3186C45.4338 24.3186 45.4338 24.3186 45.4338 24.8323C45.4338 25.7614 45.4338 26.6905 45.4338 27.6197C45.4338 30.0823 45.4338 32.5373 45.4338 34.9999V35.4682L45.4484 35.4607Z" fill="#FEFCFC"/>
<path d="M57.5456 30.7923C57.5456 32.779 57.5456 34.7733 57.5456 36.76C57.5456 36.8582 57.5456 36.9564 57.5456 37.047C57.5456 37.2283 57.4508 37.3189 57.283 37.3189C56.7577 37.3189 56.2324 37.3189 55.7143 37.3189C55.5465 37.3189 55.4663 37.2056 55.459 37.0395C55.459 36.9564 55.459 36.8733 55.459 36.7826C55.459 32.8017 55.459 28.8283 55.459 24.8474C55.459 24.4898 55.6341 24.311 55.9843 24.311C56.3564 24.311 56.7285 24.311 57.1006 24.311C57.531 24.311 57.5456 24.3261 57.5456 24.7869C57.5456 26.7887 57.5456 28.7905 57.5456 30.7923Z" fill="#FEFCFC"/>
<path d="M100.33 44.6086V47.1845H100.009V43.7928C100.198 43.6946 100.33 43.7324 100.432 43.9061C100.622 44.2083 100.811 44.5104 101.008 44.8126C101.081 44.9184 101.154 45.0241 101.256 45.1752C101.526 44.7522 101.774 44.3594 102.022 43.9741C102.125 43.8079 102.3 43.6266 102.431 43.7853C102.584 43.9817 102.562 46.4291 102.489 47.1543C102.468 47.1694 102.438 47.1997 102.409 47.1997C102.344 47.1997 102.278 47.1997 102.168 47.1997V44.5104C102.059 44.6086 102.008 44.6464 101.979 44.6917C101.811 44.9486 101.65 45.2205 101.475 45.4774C101.307 45.7342 101.205 45.7417 101.038 45.4925C100.862 45.2356 100.702 44.9712 100.534 44.7068C100.505 44.6615 100.461 44.6238 100.425 44.5784C100.395 44.586 100.366 44.6011 100.337 44.6086H100.33Z" fill="#FEFCFC"/>
<path d="M117.016 47.1393C116.702 47.2224 116.695 47.2299 116.564 47.0109C116.155 46.3235 115.746 45.6361 115.338 44.9487C115.272 44.8429 115.199 44.7371 115.09 44.6389C114.973 45.485 115.053 46.331 115.002 47.1997C114.885 47.1922 114.783 47.1846 114.688 47.1771V43.7929C114.988 43.7174 114.995 43.7174 115.148 43.9666C115.557 44.654 115.965 45.3415 116.374 46.0289C116.44 46.1346 116.512 46.2328 116.622 46.331C116.688 45.4774 116.651 44.6238 116.673 43.7929C116.972 43.7249 117.009 43.7325 117.009 43.9364C117.009 45.0091 117.009 46.0817 117.009 47.1393H117.016Z" fill="#FEFCFC"/>
<path d="M50.3591 47.1996C50.2351 47.1996 50.1475 47.192 50.0381 47.1845V43.7852C50.257 43.6719 50.3737 43.7852 50.4758 43.9514C50.8844 44.6539 51.3076 45.3489 51.7235 46.0438C51.7818 46.142 51.8475 46.2327 51.9496 46.3233C52.0518 45.4773 51.9788 44.6312 52.0226 43.755C52.1247 43.755 52.2196 43.7399 52.3436 43.7399V47.1316C52.0664 47.2374 52.0518 47.2374 51.9059 47.0032C51.49 46.3082 51.0741 45.6057 50.6582 44.9107C50.5999 44.8125 50.5342 44.7219 50.4321 44.6388C50.3372 45.4773 50.3883 46.3158 50.3664 47.1996H50.3591Z" fill="#FEFCFC"/>
<path d="M60.1719 45.2886V43.8005C60.493 43.7249 60.5222 43.7325 60.5295 43.9666C60.5295 45.0242 60.5295 46.0893 60.5295 47.1771C60.4127 47.1771 60.3179 47.1922 60.1865 47.1997V45.6436C59.6685 45.5983 59.1724 45.621 58.6398 45.6285V47.1771H58.2969V43.7551H58.6325V45.2886H60.1719Z" fill="#FEFCFC"/>
<path d="M88.1084 46.127H88.371C88.3856 46.1798 88.4002 46.2252 88.4075 46.2705C88.4659 46.6557 88.6118 46.837 88.9766 46.8899C89.1882 46.9201 89.4143 46.8975 89.6332 46.8521C89.8302 46.8144 89.9469 46.6557 89.9834 46.4442C90.0199 46.2176 89.9542 46.0288 89.7718 45.9079C89.5894 45.787 89.3852 45.6888 89.1882 45.5906C88.9766 45.4849 88.7577 45.4018 88.5534 45.2885C88.2324 45.1072 88.1011 44.8201 88.1448 44.4424C88.1886 44.0723 88.4002 43.8608 88.7285 43.7626C89.035 43.6719 89.3487 43.6719 89.6551 43.7626C90.1221 43.9136 90.319 44.2158 90.2972 44.7597C90.2534 44.7748 90.195 44.7899 90.1439 44.7975C90.1002 44.7975 90.0564 44.7899 90.0199 44.7823C89.9615 44.6162 89.9397 44.4349 89.8521 44.3065C89.6332 43.9741 88.9474 43.9061 88.641 44.1629C88.4221 44.3518 88.4075 44.7295 88.641 44.9259C88.765 45.0316 88.9182 45.0996 89.0641 45.1676C89.3268 45.296 89.5967 45.4093 89.8594 45.5453C90.071 45.6586 90.2388 45.8248 90.3117 46.0741C90.4431 46.5122 90.2388 46.9579 89.8083 47.1316C89.3998 47.2903 88.9839 47.2903 88.5826 47.109C88.1813 46.9277 88.0354 46.6255 88.1011 46.1194L88.1084 46.127Z" fill="#FEFCFC"/>
<path d="M82.6445 44.7974H82.3746C82.36 44.7295 82.3381 44.6766 82.3308 44.6237C82.2797 43.9665 81.3167 43.8834 80.981 44.2007C80.7622 44.4046 80.7695 44.7672 81.0175 44.9561C81.1488 45.0543 81.3021 45.1223 81.448 45.1902C81.7106 45.3187 81.9879 45.4244 82.2359 45.5755C82.6153 45.8021 82.7613 46.1194 82.6956 46.5046C82.6299 46.8672 82.36 47.1316 81.9441 47.2147C81.6158 47.2827 81.2948 47.2676 80.981 47.1392C80.5652 46.973 80.3901 46.6557 80.4484 46.142C80.5287 46.1345 80.6162 46.1269 80.7038 46.1194C80.7257 46.1647 80.7476 46.1949 80.7476 46.2327C80.7622 46.5424 80.8935 46.769 81.1853 46.8597C81.5136 46.9654 81.8566 46.9956 82.1557 46.769C82.4111 46.5802 82.4256 46.1949 82.1849 45.9834C82.0681 45.8701 81.9149 45.7946 81.769 45.719C81.5063 45.5906 81.2364 45.4849 80.9737 45.3489C80.6016 45.1525 80.4338 44.8428 80.4849 44.4802C80.5433 44.0798 80.8059 43.8003 81.2364 43.7399C81.5355 43.6946 81.842 43.6946 82.1265 43.823C82.5205 43.9967 82.6883 44.3064 82.6445 44.805V44.7974Z" fill="#FEFCFC"/>
<path d="M78.6676 45.47C78.6676 45.7117 78.6822 45.9534 78.6676 46.1951C78.6311 46.8448 78.1788 47.2527 77.5221 47.2451C76.8655 47.2451 76.4205 46.8146 76.4059 46.1649C76.3986 45.7041 76.3986 45.2509 76.4059 44.7901C76.4205 44.148 76.8436 43.725 77.4784 43.7099C78.1715 43.6948 78.6238 44.0876 78.6676 44.7448C78.6822 44.9865 78.6676 45.2282 78.6676 45.47ZM76.7488 45.4473C76.7488 45.689 76.7415 45.9308 76.7488 46.1725C76.7707 46.6333 77.0698 46.9203 77.5221 46.9279C77.9745 46.9279 78.2882 46.6559 78.3101 46.1951C78.332 45.7268 78.332 45.2585 78.3101 44.7826C78.2882 44.3067 77.9599 44.0045 77.5076 44.0196C77.0698 44.0347 76.7707 44.3369 76.7488 44.7977C76.7415 45.0167 76.7488 45.2282 76.7488 45.4473Z" fill="#FEFCFC"/>
<path d="M68.621 43.74C69.2631 43.74 69.9197 43.74 70.5691 43.74C70.6201 43.74 70.7077 43.8231 70.7223 43.8835C70.7515 43.9968 70.6785 44.0572 70.5618 44.0572C70.197 44.0572 69.8395 44.0572 69.4747 44.0572C69.2996 44.0572 69.1318 44.0572 68.9348 44.0572V45.2961C69.2923 45.2961 69.6279 45.2961 69.9635 45.2961C70.1897 45.2961 70.1897 45.3112 70.1532 45.6209H68.9275V46.8824C69.212 46.8824 69.4747 46.8824 69.7373 46.8824C70.0073 46.8824 70.2699 46.8824 70.5399 46.8824C70.715 46.8824 70.7588 46.9882 70.6858 47.1695H68.6137C68.5335 46.89 68.5262 44.0799 68.6137 43.7249L68.621 43.74Z" fill="#FEFCFC"/>
<path d="M96.3746 45.6133V46.8748H98.1403C98.1548 46.9957 98.1621 47.0712 98.1767 47.1997C97.4544 47.2072 96.754 47.2148 96.0244 47.1997V43.8004C96.2798 43.7248 97.4763 43.7022 98.1403 43.7626C98.1475 43.8457 98.1548 43.9288 98.1694 44.0723H96.3746V45.2961H97.6222C97.6368 45.4094 97.6441 45.4849 97.6587 45.6209H96.3746V45.6133Z" fill="#FEFCFC"/>
<path d="M62.8277 46.8824H64.5787C64.5787 47.0033 64.586 47.0864 64.5933 47.1921H62.4629V43.8004C62.7255 43.7248 63.9805 43.7022 64.5787 43.7626C64.5787 43.8457 64.586 43.9364 64.5933 44.0648H62.8131V45.2734C63.2217 45.3565 63.6375 45.2658 64.068 45.3263V45.6133H62.8204V46.8824H62.8277Z" fill="#FEFCFC"/>
<path d="M118.957 43.7777C119.46 43.7777 119.934 43.7399 120.401 43.7852C120.861 43.8306 121.131 44.1705 121.138 44.6388C121.153 45.1903 121.153 45.7493 121.138 46.3007C121.123 46.7842 120.832 47.1317 120.365 47.1694C119.905 47.2072 119.438 47.177 118.949 47.177V43.7701L118.957 43.7777ZM119.299 46.8824C119.642 46.8824 119.941 46.905 120.241 46.8824C120.569 46.8522 120.781 46.6255 120.795 46.2932C120.81 45.7493 120.81 45.2129 120.795 44.6691C120.788 44.3896 120.635 44.1705 120.372 44.1176C120.022 44.0421 119.664 44.0647 119.307 44.1101V46.8975L119.299 46.8824Z" fill="#FEFCFC"/>
<path d="M112.411 43.7627C112.513 43.7475 112.557 43.74 112.601 43.74C112.645 43.74 112.689 43.7627 112.747 43.7778C112.747 43.8835 112.762 43.9742 112.762 44.0724C112.762 44.7447 112.762 45.4245 112.762 46.0968C112.762 46.5803 112.586 46.9504 112.149 47.1393C111.674 47.3357 111.208 47.2979 110.806 46.9429C110.602 46.7616 110.493 46.5123 110.493 46.2403C110.485 45.4472 110.493 44.6465 110.493 43.8533C110.493 43.8306 110.514 43.808 110.529 43.7627H110.806C110.806 43.9062 110.821 44.0346 110.821 44.163C110.821 44.8051 110.821 45.4396 110.821 46.0817C110.828 46.6558 111.178 46.9806 111.718 46.9202C112.127 46.8749 112.389 46.5878 112.389 46.1421C112.397 45.5001 112.389 44.8655 112.389 44.2234C112.389 44.0799 112.389 43.9364 112.389 43.7627H112.411Z" fill="#FEFCFC"/>
<path d="M46.7629 43.7476H47.1934C47.5509 44.8731 47.9084 46.0062 48.2586 47.1317C47.9522 47.2299 47.923 47.2224 47.8427 46.9882C47.7917 46.8522 47.7552 46.7163 47.7041 46.5576H46.2668C46.1939 46.7616 46.1209 46.9655 46.0479 47.1846H45.6904C46.0552 46.0289 46.4054 44.8958 46.7629 43.7476ZM47.0183 44.3217C46.9891 44.3217 46.9599 44.3217 46.9307 44.3292C46.7411 44.9411 46.5587 45.5605 46.3544 46.2253C46.7921 46.2253 47.1788 46.2404 47.602 46.2101C47.3977 45.5378 47.208 44.926 47.0183 44.3217Z" fill="#FEFCFC"/>
<path d="M38.7293 43.7702C39.1524 43.7173 39.1524 43.7173 39.2619 44.0724C39.5537 44.994 39.8456 45.9231 40.1374 46.8522C40.1666 46.9504 40.1885 47.0562 40.225 47.1922H39.882C39.8164 46.9882 39.7434 46.7918 39.6705 46.5727H38.2332C38.1894 46.7012 38.1456 46.822 38.1091 46.9429C38.0508 47.1242 37.9024 47.2022 37.6641 47.1771C38.0216 46.0289 38.3791 44.8958 38.7293 43.7778V43.7702ZM38.9919 44.3217C38.9627 44.3217 38.9409 44.3217 38.9117 44.3217C38.722 44.9411 38.5323 45.5605 38.3353 46.1875C38.7293 46.2706 39.2911 46.2555 39.5537 46.1648C39.364 45.553 39.1743 44.9411 38.9846 44.3292L38.9919 44.3217Z" fill="#FEFCFC"/>
<path d="M32.9075 47.1846H32.55C32.5135 47.0713 32.4771 46.9731 32.4406 46.8673C32.4041 46.7691 32.3676 46.6634 32.3311 46.5501H30.9011C30.8573 46.6709 30.8136 46.8069 30.7698 46.9353C30.7114 47.1166 30.5655 47.1871 30.332 47.1468C30.6895 46.0137 31.0397 44.8806 31.3972 43.74H31.8277C32.1852 44.8731 32.5427 46.0062 32.9075 47.1695V47.1846ZM32.2363 46.2101C32.0247 45.5454 31.8569 44.9184 31.6015 44.3216C31.3754 44.9486 31.1711 45.5605 30.996 46.2101H32.2363Z" fill="#FEFCFC"/>
<path d="M56.4957 46.0967C56.43 46.346 56.4154 46.5273 56.3425 46.6784C56.1455 47.1014 55.6493 47.3129 55.1167 47.2298C54.6206 47.1467 54.3069 46.837 54.2266 46.346C54.2193 46.2856 54.2047 46.2251 54.2047 46.1647C54.2047 45.6964 54.1901 45.228 54.2047 44.7597C54.2266 44.246 54.4674 43.8985 54.927 43.7701C55.4013 43.6341 55.8536 43.6795 56.2111 44.0723C56.3716 44.246 56.4154 44.3971 56.4446 44.7748C56.3643 44.7974 56.2695 44.8277 56.1674 44.8579C56.1382 44.7748 56.109 44.7219 56.0944 44.669C55.9777 44.1856 55.6201 43.9363 55.1678 44.0345C54.803 44.11 54.5768 44.3669 54.5695 44.7672C54.5549 45.228 54.5622 45.6813 54.5695 46.142C54.5768 46.5953 54.8249 46.8823 55.2335 46.9201C55.7004 46.9654 55.9922 46.7539 56.1017 46.2856C56.109 46.2478 56.1163 46.2176 56.1382 46.142C56.2184 46.1345 56.3133 46.1194 56.503 46.1043L56.4957 46.0967Z" fill="#FEFCFC"/>
<path d="M74.3127 46.1119C74.4222 46.1119 74.5024 46.127 74.5754 46.127C74.59 46.1724 74.6119 46.2026 74.6119 46.2403C74.6046 46.6558 74.4222 46.9504 74.0574 47.1242C73.7145 47.2903 73.357 47.2903 73.0068 47.1544C72.6055 46.9957 72.4012 46.6634 72.3793 46.2328C72.3501 45.7267 72.3501 45.2206 72.3793 44.7144C72.4085 44.2385 72.6493 43.8911 73.1089 43.7626C73.5686 43.6342 74.0136 43.672 74.3711 44.0497C74.5608 44.2461 74.6192 44.4501 74.6046 44.7824C74.5754 44.7975 74.5462 44.8202 74.517 44.8277C74.4587 44.8353 74.4076 44.8353 74.3346 44.8429C74.3127 44.7673 74.2909 44.6993 74.269 44.6313C74.1741 44.2234 73.8531 43.9893 73.4445 44.0195C73.0214 44.0572 72.7514 44.3216 72.7368 44.7673C72.7149 45.2206 72.7222 45.6813 72.7368 46.1421C72.7514 46.6029 72.9995 46.8749 73.408 46.9202C73.8677 46.9731 74.1668 46.754 74.2763 46.2857C74.2836 46.2403 74.2982 46.195 74.32 46.1119H74.3127Z" fill="#FEFCFC"/>
<path d="M35.3296 46.5577C35.4683 46.0893 35.6069 45.621 35.7528 45.1526C35.8914 44.6918 36.0301 44.2311 36.176 43.7627H36.5408C36.1833 44.926 35.8258 46.0516 35.4829 47.1695C35.1254 47.23 35.1108 47.23 35.0451 47.0109C34.7168 45.9685 34.4031 44.926 34.082 43.876C34.082 43.8534 34.082 43.8307 34.082 43.808C34.3739 43.7098 34.3958 43.7174 34.476 43.9893C34.7022 44.7221 34.9211 45.4624 35.14 46.1951C35.1764 46.316 35.2202 46.4368 35.264 46.5577C35.2859 46.5577 35.3078 46.5577 35.3369 46.5577H35.3296Z" fill="#FEFCFC"/>
<path d="M108.756 43.7552V44.0573H106.998V45.2962H108.238C108.238 45.417 108.253 45.4926 108.26 45.6134H107.005C106.932 46.1498 107.005 46.6483 106.954 47.1771H106.641V43.808C106.889 43.7174 107.932 43.6947 108.764 43.7552H108.756Z" fill="#FEFCFC"/>
<path d="M86.5617 43.793C86.2626 44.352 85.9927 44.8808 85.7008 45.402C85.5987 45.5833 85.5476 45.7721 85.5549 45.9836C85.5622 46.3689 85.5549 46.7541 85.5549 47.1772C85.4455 47.1772 85.3506 47.1923 85.2047 47.1998C85.2047 46.8599 85.1901 46.5502 85.2047 46.2405C85.2339 45.8477 85.139 45.5153 84.942 45.1829C84.7232 44.8128 84.5335 44.4275 84.3292 44.0498C84.2854 43.9667 84.2562 43.8836 84.2197 43.7854C84.424 43.7023 84.5553 43.7477 84.6429 43.929C84.8107 44.2613 84.9858 44.5862 85.1609 44.911C85.2193 45.0167 85.2776 45.1149 85.3652 45.2433C85.4382 45.1451 85.4965 45.0772 85.533 45.0016C85.7227 44.6541 85.9124 44.3142 86.0875 43.9592C86.1824 43.7703 86.3064 43.6948 86.5472 43.8081L86.5617 43.793Z" fill="#FEFCFC"/>
<path d="M42.0127 47.1845V43.7928C42.3264 43.7097 42.3337 43.7172 42.3337 43.9967C42.3337 44.805 42.3337 45.6057 42.3337 46.414C42.3337 46.5575 42.3337 46.6935 42.3337 46.8823C42.6402 46.8823 42.9101 46.8823 43.1728 46.8823C43.4062 46.8823 43.6397 46.8823 43.8732 46.8823C44.0629 46.8823 44.1139 46.9881 44.041 47.177H42.0127V47.1845Z" fill="#FEFCFC"/>
<path d="M94.2373 43.7551C94.23 43.8684 94.2227 43.9515 94.2154 44.0573H93.2596C93.2596 44.6012 93.2596 45.1148 93.2596 45.6285C93.2596 46.1346 93.2596 46.6407 93.2596 47.1771C93.1429 47.1771 93.048 47.1922 92.9167 47.1997V44.0951H91.9755C91.9755 43.9591 91.9682 43.876 91.9609 43.7627H94.2446L94.2373 43.7551Z" fill="#FEFCFC"/>
<path d="M32.7326 31.616C32.7618 31.6009 32.7764 31.5933 32.7837 31.5933C33.7468 31.5933 34.7171 31.548 35.6802 31.6235C37.0956 31.7368 37.5991 32.9832 37.2488 34.1919C37.0446 34.8944 36.5192 35.257 35.8407 35.3854C35.6145 35.4307 35.3811 35.4383 35.1476 35.4458C34.4472 35.4534 33.7541 35.4458 33.0536 35.4458C32.9515 35.4458 32.8494 35.4307 32.7545 35.4307C32.6743 35.1361 32.6597 31.9861 32.7399 31.616H32.7326Z" fill="#FF434C"/>
<path d="M101.687 29.9917V26.2147C101.796 26.2072 101.891 26.1845 101.979 26.1845C102.803 26.1845 103.635 26.1996 104.459 26.1845C105.554 26.1619 106.59 27.0155 106.305 28.6018C106.167 29.3874 105.539 29.9917 104.744 30.0219C103.759 30.0673 102.767 30.037 101.775 30.037C101.753 30.037 101.731 30.0219 101.68 29.9993L101.687 29.9917Z" fill="#FF434C"/>
<path d="M76.7555 45.4473C76.7555 45.2282 76.7482 45.0167 76.7555 44.7977C76.7774 44.3369 77.0765 44.0347 77.5143 44.0196C77.9666 44.0045 78.3023 44.2991 78.3169 44.7825C78.3387 45.2509 78.3387 45.7192 78.3169 46.1951C78.295 46.6559 77.9812 46.9354 77.5289 46.9279C77.0765 46.9279 76.7774 46.6333 76.7555 46.1725C76.7409 45.9307 76.7555 45.689 76.7555 45.4473Z" fill="#FF434C"/>
<path d="M119.299 46.875V44.0876C119.657 44.0423 120.014 44.0272 120.365 44.0951C120.627 44.148 120.78 44.3671 120.788 44.6466C120.802 45.1905 120.802 45.7344 120.788 46.2707C120.78 46.6031 120.561 46.8372 120.233 46.8599C119.934 46.8826 119.635 46.8599 119.292 46.8599L119.299 46.875Z" fill="#FF434C"/>
<path d="M47.0175 44.3215C47.2071 44.9334 47.3968 45.5453 47.6011 46.21C47.178 46.2402 46.7913 46.2251 46.3535 46.2251C46.5578 45.5604 46.7402 44.9485 46.9299 44.3291C46.9591 44.3291 46.9883 44.3291 47.0175 44.3215Z" fill="#FF434C"/>
<path d="M38.9921 44.3215C39.1818 44.9334 39.3715 45.5453 39.5612 46.1571C39.2985 46.2478 38.7368 46.2629 38.3428 46.1798C38.5325 45.5528 38.7295 44.9334 38.9192 44.314C38.9483 44.314 38.9702 44.314 38.9994 44.314L38.9921 44.3215Z" fill="#FF434C"/>
<path d="M32.2354 46.2176H30.9951C31.1629 45.568 31.3745 44.9561 31.6007 44.3291C31.856 44.9259 32.0166 45.5453 32.2354 46.2176Z" fill="#FF434C"/>
</g>
<defs>
<clipPath id="clip0_83_1758">
<rect width="108.149" height="42" fill="white" transform="translate(21.0293 14)"/>
</clipPath>
</defs>
</svg>
