<svg width="151" height="70" viewBox="0 0 151 70" fill="none" xmlns="http://www.w3.org/2000/svg">
<rect width="150.206" height="70" rx="7.77778" fill="white"/>
<path d="M23.0987 39.2298C23.3123 39.7293 23.6034 40.1888 23.9528 40.5884C23.1958 41.0079 22.4194 41.2077 21.5459 41.2077C18.9837 41.2077 17.1396 39.4496 17.1396 36.6326C17.1396 33.7956 19.0807 32.0375 21.5459 32.0375C22.4194 32.0375 23.1182 32.2373 23.8169 32.6169C23.487 33.0364 23.2152 33.5159 23.0211 34.0354C22.5941 33.8555 22.167 33.7756 21.7206 33.7756C20.2065 33.7756 19.0225 34.7945 19.0225 36.6326C19.0225 38.3707 20.1677 39.4895 21.7788 39.4895C22.2641 39.4895 22.6911 39.4096 23.0987 39.2298ZM28.2426 32.0575C30.766 32.0575 32.5712 33.9155 32.5712 36.6526C32.5712 39.3697 30.7466 41.2277 28.2426 41.2277C25.7386 41.2277 23.9334 39.3697 23.9334 36.6526C23.9334 33.9155 25.758 32.0575 28.2426 32.0575ZM28.2426 33.7357C26.845 33.7357 25.8163 34.8545 25.8163 36.6526C25.8163 38.4107 26.845 39.5495 28.2426 39.5495C29.679 39.5495 30.6884 38.4307 30.6884 36.6526C30.6884 34.8545 29.6984 33.7357 28.2426 33.7357ZM33.7747 41.0079V32.2373H35.6575V41.0079H33.7747ZM33.5417 29.5601C33.5417 28.8808 34.0852 28.3614 34.7064 28.3614C35.3275 28.3614 35.871 28.9008 35.871 29.5601C35.871 30.2594 35.3275 30.7988 34.7064 30.7988C34.0852 30.7988 33.5417 30.2394 33.5417 29.5601ZM37.288 32.7967C38.4527 32.3172 39.9085 32.0375 41.1313 32.0375C43.2665 32.0375 44.6447 32.8966 44.6447 35.3539V40.9879H42.7813V35.5537C42.7813 34.2951 42.0242 33.8356 40.9761 33.8356C40.3161 33.8356 39.6561 33.9355 39.1514 34.0953V41.0279H37.2686V32.7967H37.288ZM46.217 27.5623H48.0998V32.497C48.488 32.2772 49.2644 32.0575 50.0215 32.0575C52.4478 32.0575 54.2724 33.6757 54.2724 36.4927C54.2724 39.3297 52.4672 41.2277 49.3615 41.2277C48.158 41.2277 47.0904 40.968 46.2364 40.6483V27.5623H46.217ZM48.0804 39.3497C48.4492 39.4696 48.9151 39.5295 49.3809 39.5295C51.1085 39.5295 52.3313 38.5306 52.3313 36.5127C52.3313 34.8145 51.1667 33.7956 49.7497 33.7956C49.0121 33.7956 48.4492 33.9954 48.061 34.2152V39.3497H48.0804ZM59.6492 35.1342C59.6492 34.1752 58.9698 33.7557 58.0381 33.7557C57.0676 33.7557 56.3106 34.0553 55.6118 34.4749V32.7567C56.3494 32.3172 57.3005 32.0375 58.3293 32.0375C60.1733 32.0375 61.4738 32.8366 61.4738 35.0343V40.8281C60.678 41.0479 59.5521 41.1877 58.601 41.1877C56.427 41.1877 54.8353 40.4885 54.8353 38.5106C54.8353 36.7325 56.2911 35.8534 58.7175 35.8534H59.6492V35.1342ZM59.6492 37.172H58.8534C57.5528 37.172 56.6988 37.5716 56.6988 38.4506C56.6988 39.3697 57.4946 39.7093 58.6398 39.7093C58.931 39.7093 59.3192 39.6693 59.6686 39.6094L59.6492 37.172ZM62.852 38.6305C63.6284 39.2498 64.5601 39.6294 65.4142 39.6294C66.2489 39.6294 66.7924 39.3297 66.7924 38.6305C66.7924 37.9112 66.3071 37.6515 65.2201 37.3718C63.4731 36.9522 62.7355 36.233 62.7355 34.6947C62.7355 32.9165 64.0166 32.0375 65.7248 32.0375C66.6759 32.0375 67.4329 32.2572 68.1317 32.7168V34.5148C67.3941 33.9554 66.6759 33.6158 65.783 33.6158C64.9677 33.6158 64.5407 34.0353 64.5407 34.6147C64.5407 35.1941 64.9095 35.4938 65.8606 35.7535C67.7823 36.1931 68.5976 36.9323 68.5976 38.5306C68.5976 40.3686 67.2582 41.2077 65.4336 41.2077C64.4437 41.2077 63.4731 40.928 62.8326 40.4885V38.6305H62.852ZM71.1792 37.0721V37.1121C71.2957 38.6704 72.5768 39.5295 73.8967 39.5295C75.0613 39.5295 75.8766 39.2498 76.7113 38.6704V40.3886C75.9542 40.948 74.8284 41.2077 73.7608 41.2077C71.1404 41.2077 69.374 39.4696 69.374 36.6925C69.374 33.8955 71.121 32.0375 73.4308 32.0375C75.8766 32.0375 77.0218 33.6757 77.0218 36.0732V37.0721H71.1792ZM75.2554 35.8135C75.2166 34.4549 74.5761 33.6957 73.3532 33.6957C72.2662 33.6957 71.4703 34.4949 71.2374 35.8135H75.2554Z" fill="#0667D0"/>
<path d="M83.6992 27.1428H83.8739C84.0486 27.1428 84.1845 27.2827 84.1845 27.4625V45.4433C84.1845 45.6231 84.0486 45.763 83.8739 45.763H83.6992C83.5245 45.763 83.3887 45.6231 83.3887 45.4433V27.4625C83.3887 27.2827 83.544 27.1428 83.6992 27.1428Z" fill="#AAB4C0"/>
<path d="M94.5116 41.0278H93.4634L90.2412 32.1772H91.1923L94.0263 40.1088L96.8603 32.1772H97.7726L94.5116 41.0278ZM102.878 37.8312H98.219V37.8512C98.219 39.4495 99.306 40.3885 100.509 40.3885C101.383 40.3885 101.985 40.1487 102.606 39.6493V40.5483C102.062 40.9878 101.267 41.1677 100.509 41.1677C98.7237 41.1677 97.365 39.889 97.365 37.7713C97.365 35.8134 98.6267 34.3749 100.296 34.3749C101.849 34.3749 102.878 35.3539 102.878 37.2119V37.8312ZM98.2773 37.072H102.043C101.985 35.7135 101.286 35.174 100.257 35.174C99.306 35.174 98.5296 35.8533 98.2773 37.072ZM103.829 41.0278V34.8744C104.644 34.5547 105.576 34.3749 106.41 34.3749C107.963 34.3749 108.914 35.0142 108.914 36.6325V41.0078H108.06V36.8123C108.06 35.4937 107.167 35.194 106.333 35.194C105.692 35.194 105.11 35.3139 104.663 35.4338V41.0078H103.829V41.0278ZM109.438 35.2939V34.5347H110.39V32.9564H111.244V34.5347H112.971V35.2939H111.244V39.2497C111.244 40.0888 111.554 40.4085 112.137 40.4085C112.525 40.4085 112.855 40.2686 113.282 40.0488V40.848C112.913 41.0478 112.486 41.1677 111.962 41.1677C111.069 41.1677 110.409 40.6682 110.409 39.3296V35.2739H109.438V35.2939ZM118.872 34.5347V40.9479C118.115 41.0877 117.358 41.1677 116.717 41.1677C114.932 41.1677 113.922 40.5283 113.922 38.9101V34.5347H114.776V38.8701C114.776 40.0888 115.689 40.4085 116.679 40.4085C117.106 40.4085 117.591 40.3885 118.037 40.3285V34.5547H118.872V34.5347ZM121.163 35.6136V41.0278H120.308V35.1341C120.949 34.6946 121.745 34.4348 122.599 34.4348C122.929 34.4348 123.278 34.4748 123.628 34.5747V35.4538C123.259 35.3139 122.832 35.2939 122.541 35.2939C121.939 35.2739 121.473 35.4138 121.163 35.6136ZM129.121 37.8312H124.462V37.8512C124.462 39.4495 125.549 40.3885 126.753 40.3885C127.626 40.3885 128.228 40.1487 128.849 39.6493V40.5483C128.306 40.9878 127.51 41.1677 126.753 41.1677C124.967 41.1677 123.608 39.889 123.608 37.7713C123.608 35.8134 124.87 34.3749 126.539 34.3749C128.092 34.3749 129.121 35.3539 129.121 37.2119V37.8312ZM124.521 37.072H128.286C128.228 35.7135 127.529 35.174 126.5 35.174C125.53 35.174 124.754 35.8533 124.521 37.072ZM129.761 40.6482V39.6293C130.286 40.1288 130.829 40.4085 131.489 40.4085C132.265 40.4085 132.751 40.0888 132.751 39.3696C132.751 38.5904 132.207 38.3906 131.237 38.051C130.15 37.6714 129.684 37.1919 129.684 36.153C129.684 35.0142 130.499 34.3949 131.625 34.3949C132.227 34.3949 132.828 34.5347 133.314 34.8943V35.8533C132.828 35.4338 132.343 35.1541 131.625 35.1541C130.946 35.1541 130.519 35.5337 130.519 36.153C130.519 36.7524 130.848 37.052 131.8 37.3717C132.867 37.7113 133.585 38.1509 133.585 39.3296C133.585 40.6083 132.634 41.1876 131.489 41.1876C130.81 41.1677 130.15 40.9679 129.761 40.6482Z" fill="#2E3742"/>
</svg>
