<?xml version="1.0" encoding="utf-8"?>
<!-- Generator: Adobe Illustrator 28.3.0, SVG Export Plug-In . SVG Version: 6.00 Build 0)  -->
<svg version="1.1" id="Layer_1" xmlns="http://www.w3.org/2000/svg" xmlns:xlink="http://www.w3.org/1999/xlink" x="0px" y="0px"
	 viewBox="0 0 130.08 89.87" style="enable-background:new 0 0 130.08 89.87;" xml:space="preserve">
<style type="text/css">
	.st0{fill:#231F20;}
	.st1{fill:url(#SVGID_1_);}
	.st2{enable-background:new    ;}
	.st3{fill:#FEFEFE;}
	.st4{fill:#B2B2B2;}
	.st5{fill:#E7E7E7;}
	.st6{fill:#FCFCFC;}
	.st7{fill:#FBFBFB;}
	.st8{fill:#F9F9F9;}
	.st9{fill:#FAFAFA;}
	.st10{fill:#E9E9E9;}
	.st11{fill:#E1E1E1;}
	.st12{fill:#CECECE;}
	.st13{fill:#070707;}
	.st14{fill:#121212;}
	.st15{fill:#0A0A0A;}
	.st16{fill:#191919;}
	.st17{fill:#181818;}
	.st18{fill:#FFFFFF;}
	.st19{fill:#2D2D2D;}
	.st20{fill:url(#Vector_00000096764340607459064080000014779924013318912955_);}
	.st21{fill:url(#Vector_2_00000139996256426654828870000015657045539547336324_);}
	.st22{fill:#CFCFCF;}
	.st23{opacity:0.972;fill-rule:evenodd;clip-rule:evenodd;enable-background:new    ;}
	.st24{opacity:0.977;fill-rule:evenodd;clip-rule:evenodd;enable-background:new    ;}
	.st25{opacity:0.971;fill-rule:evenodd;clip-rule:evenodd;enable-background:new    ;}
	.st26{opacity:0.984;fill-rule:evenodd;clip-rule:evenodd;enable-background:new    ;}
	.st27{opacity:0.975;fill-rule:evenodd;clip-rule:evenodd;enable-background:new    ;}
	.st28{opacity:0.987;fill-rule:evenodd;clip-rule:evenodd;enable-background:new    ;}
	.st29{opacity:0.979;fill-rule:evenodd;clip-rule:evenodd;enable-background:new    ;}
	.st30{opacity:0.978;fill-rule:evenodd;clip-rule:evenodd;enable-background:new    ;}
	.st31{opacity:0.921;fill-rule:evenodd;clip-rule:evenodd;enable-background:new    ;}
	.st32{opacity:0.92;fill-rule:evenodd;clip-rule:evenodd;enable-background:new    ;}
	.st33{opacity:0.95;fill-rule:evenodd;clip-rule:evenodd;enable-background:new    ;}
	.st34{opacity:0.964;fill-rule:evenodd;clip-rule:evenodd;enable-background:new    ;}
	.st35{opacity:0.945;fill-rule:evenodd;clip-rule:evenodd;enable-background:new    ;}
	.st36{opacity:0.959;fill-rule:evenodd;clip-rule:evenodd;enable-background:new    ;}
	.st37{opacity:0.948;fill-rule:evenodd;clip-rule:evenodd;enable-background:new    ;}
	.st38{fill-rule:evenodd;clip-rule:evenodd;fill:#24201D;}
	.st39{fill:#24201D;}
	.st40{fill:#105AF4;}
	.st41{fill:#4393F1;}
	.st42{fill:#98C6FB;}
	.st43{fill:#90C8FD;}
	.st44{fill:#80889E;}
	.st45{fill:#80879E;}
	.st46{fill:#C5CAD6;}
	.st47{fill:#2A2F59;}
	.st48{fill:#525E81;}
	.st49{fill:#7F889E;}
	.st50{fill:#242744;}
	.st51{fill:#7F879E;}
	.st52{fill:#525E80;}
	.st53{fill:#242644;}
	.st54{fill:#242743;}
	.st55{fill:#252744;}
	.st56{fill:#252845;}
	.st57{fill:#252844;}
	.st58{fill:#252644;}
	.st59{fill:#FDFEFD;}
	.st60{fill:#FDFDFD;}
	.st61{fill:#FCFCFB;}
	.st62{fill:#FDFEFE;}
	.st63{fill:#252F38;}
	.st64{fill:#A6493A;}
	.st65{fill:#A7493A;}
	.st66{fill:#A74A3B;}
	.st67{fill:#A74B3C;}
	.st68{fill:#FEFDFD;}
</style>
<g>
	<g>
		<path class="st18" d="M38.53,81.58c-9.75,0-19.51,0-29.26,0c0-24.88,0-49.76,0-74.64c37.3,0,74.6,0,111.9,0
			c0,23.32,0,46.63,0,69.95c-0.21-0.15-0.45-0.28-0.63-0.47c-0.9-0.91-2.36-1.1-3.4-0.41c-0.86,0.57-0.95,1.53-0.17,2.19
			c0.34,0.28,0.77,0.47,1.18,0.65c0.48,0.2,1.01,0.31,1.5,0.5c0.48,0.19,0.52,0.67,0.11,0.98c-0.66,0.49-1.37,0.46-1.99-0.08
			c-0.18-0.16-0.34-0.34-0.53-0.46c-0.29-0.19-0.6-0.26-0.88,0.07c0.19,0.73,0.6,1.24,1.31,1.49c0.78,0.27,1.55,0.17,2.27-0.22
			c0.44-0.24,0.82-0.57,1.23-0.86c0,0.44,0,0.87,0,1.31c-13.65,0-27.29,0-40.94,0c0.98-0.29,1.76-0.79,2.13-2.04
			c-0.44,0.1-0.77,0.12-1.05,0.25c-0.3,0.15-0.55,0.41-0.84,0.61c-0.84,0.56-2.38,0-2.66-0.98c-0.03-0.1,0.01-0.21,0.02-0.41
			c0.23-0.05,0.47-0.14,0.7-0.14c0.98-0.02,1.96-0.01,2.94-0.01c0.32,0,0.64,0,0.93,0c0.5-2.02-1.46-3.76-3.51-3.23
			c-1.25,0.33-2.02,1.31-2.09,2.67c-0.07,1.39,0.72,2.59,2,3.06c0.18,0.07,0.37,0.14,0.55,0.21c-13.46,0-26.93,0-40.39,0
			c0.12-0.1,0.25-0.19,0.39-0.3c0.05-1.11,0.11-2.21,0.15-3.32c0.04-1,0.78-1.64,1.79-1.52c0.77,0.09,1.3,0.68,1.3,1.46
			c0,0.94,0,1.89,0,2.83c0,0.21,0.05,0.42,0.08,0.66c0.33,0.02,0.61,0.04,0.93,0.06c0-0.35,0-0.62,0-0.89
			c0.02-0.85-0.04-1.71,0.08-2.55c0.18-1.3,1.07-1.82,2.33-1.47c0.56,0.15,0.81,0.5,0.81,1.07c-0.01,0.87,0,1.74,0,2.62
			c0,0.36,0,0.72,0,1.14c0.37,0.03,0.65,0.05,1.01,0.07c0.05-1.47,0.18-2.84-0.09-4.21c-0.19-0.93-0.79-1.39-1.64-1.62
			c-0.83-0.23-1.54-0.04-2.15,0.58c-0.15,0.15-0.31,0.28-0.52,0.48c-1.17-1.36-2.47-1.42-3.88-0.36c-0.2-0.53-0.48-0.79-1.03-0.51
			C38.53,77.71,38.53,79.64,38.53,81.58z M10.41,65.3c0.29,0.05,0.47,0.1,0.66,0.1c6.06,0,12.12-0.01,18.18-0.03
			c0.64,0,1.27-0.04,1.91-0.08c2.74-0.19,5.23-1.05,7.36-2.83c1.77-1.49,2.88-3.45,3.8-5.53c2-4.52,3.96-9.06,5.91-13.6
			C53.35,31.42,58.48,19.5,63.6,7.58c0.06-0.14,0.1-0.3,0.17-0.51c-0.24,0-0.42,0-0.59,0c-5.48,0-10.95-0.02-16.43-0.01
			c-1.33,0-2.66,0-3.98,0.11c-4.01,0.35-7.2,2.15-9.26,5.65c-1.14,1.93-2.14,3.97-3.04,6.03C24.34,32.96,18.26,47.1,12.16,61.23
			C11.59,62.55,11.03,63.86,10.41,65.3z M104.68,7.07c-0.28,0-0.46,0-0.64,0c-4.88,0-9.75-0.02-14.63-0.01
			c-1.87,0-3.75-0.03-5.61,0.12c-2.85,0.23-5.39,1.27-7.54,3.2c-1.6,1.44-2.58,3.29-3.43,5.19c-1.97,4.39-3.88,8.82-5.79,13.24
			c-5.17,11.96-10.33,23.92-15.5,35.88c-0.08,0.19-0.14,0.39-0.24,0.67c0.3,0.02,0.51,0.05,0.72,0.05c3.62,0,7.24,0,10.86-0.01
			c2.82-0.01,5.64,0,8.46-0.1c2.27-0.08,4.47-0.58,6.46-1.75c2.38-1.41,3.95-3.53,5.06-5.99c1.98-4.39,3.88-8.81,5.79-13.23
			c4.66-10.79,9.3-21.59,13.95-32.39C103.28,10.35,103.95,8.76,104.68,7.07z M92.2,65.32c0.19,0.03,0.33,0.07,0.46,0.07
			c1.58,0,3.16,0.01,4.75,0c4.22-0.02,8.44-0.02,12.65-0.09c2.71-0.04,5.04-1.1,7.04-2.92c3.2-2.92,4.22-7.68,2.34-11.47
			c-1.82-3.66-4.89-5.59-8.92-5.79c-4.67-0.22-8.53,1.43-10.85,5.69c-2.52,4.65-4.89,9.37-7.32,14.07
			C92.3,65,92.27,65.14,92.2,65.32z M27.52,81.42c0-0.39,0-0.69,0-1c0.01-0.78-0.02-1.57,0.07-2.34c0.12-1.1,0.7-1.65,1.6-1.67
			c0.9-0.01,1.44,0.48,1.61,1.58c0.11,0.75,0.11,1.52,0.15,2.28c0.02,0.37,0,0.74,0,1.2c0.36-0.05,0.58-0.09,0.82-0.12
			c0-0.24-0.01-0.42,0-0.6c0.05-1.02,0.05-2.04,0.17-3.04c0.1-0.83,0.83-1.37,1.61-1.33c0.77,0.03,1.32,0.54,1.38,1.41
			c0.06,0.92,0.04,1.85,0.05,2.77c0,0.26,0,0.52,0,0.84c0.4,0,0.7,0,1.08,0c0.07-1.34,0.19-2.65-0.1-3.96
			c-0.18-0.84-0.59-1.54-1.5-1.77c-0.95-0.24-1.85-0.19-2.53,0.65c-0.11,0.13-0.25,0.24-0.43,0.4c-1.1-1.5-2.37-1.55-3.75-0.44
			c-0.23-0.28-0.43-0.51-0.66-0.77c-0.15,0.05-0.29,0.1-0.41,0.14c0,1.97,0,3.88,0,5.84C26.97,81.46,27.2,81.45,27.52,81.42z
			 M54.75,76.45c-1.33-0.93-2.62-1.53-3.93-0.19c-1.01,1.04-1.3,2.92-0.52,4c1.25,1.74,2.83,1.49,4.44,0.41
			c0.06,0.29,0.11,0.51,0.18,0.81c0.31-0.04,0.58-0.08,0.88-0.11c0-1.91,0-3.75,0-5.64c-0.33-0.02-0.61-0.04-0.9-0.06
			C54.84,75.93,54.8,76.14,54.75,76.45z M16.67,76.27c-0.44-1.54-2-2.43-3.71-2.2c-1.94,0.26-3.59,2.02-3.59,3.81
			c0.01,1.71,1.64,3.35,3.59,3.59c1.68,0.21,3.27-0.69,3.65-2.09c-0.34-0.3-0.68-0.17-0.99,0.03c-0.35,0.23-0.67,0.5-1.01,0.75
			c-0.78,0.58-1.61,0.6-2.46,0.18c-0.91-0.45-1.37-1.22-1.55-2.18c-0.24-1.24,0.37-2.47,1.44-2.96c1.25-0.57,2.51-0.3,3.31,0.77
			C15.73,76.46,16.16,76.31,16.67,76.27z M114.42,79.85c-0.33-0.32-0.67-0.29-1.01-0.01c-0.15,0.13-0.28,0.29-0.42,0.42
			c-0.49,0.46-1.28,0.54-1.94,0.22c-0.66-0.33-1.04-0.88-0.98-1.59c1.49,0,2.99,0,4.47,0c0.27-1.64-0.64-2.99-2.13-3.28
			c-1.62-0.32-3.11,0.65-3.45,2.25c-0.36,1.68,0.59,3.2,2.22,3.57C112.54,81.73,114.16,80.95,114.42,79.85z M21.59,81.49
			c1.67,0.01,3.04-1.3,3.06-2.92c0.02-1.62-1.33-2.97-2.99-2.99c-1.69-0.02-3.08,1.31-3.08,2.95
			C18.57,80.15,19.92,81.48,21.59,81.49z M58.84,79.25c-0.1-0.01-0.27-0.04-0.42-0.02c-0.43,0.04-0.61,0.4-0.34,0.73
			c0.69,0.85,1.54,1.44,2.67,1.5c1.04,0.05,2-0.55,2.35-1.45c0.32-0.83,0.03-1.64-0.86-2.37c-0.11-0.09-0.27-0.11-0.41-0.16
			c0.25-0.26,0.34-0.32,0.43-0.38c1.08-0.7,1.07-2.28,0-2.97c-1.15-0.75-2.98-0.42-3.78,0.69c-0.14,0.2-0.24,0.54-0.17,0.74
			c0.07,0.19,0.4,0.28,0.67,0.44c0.13-0.25,0.21-0.41,0.29-0.57c0.51-1.1,1.89-1.24,2.63-0.27c0.37,0.49,0.36,1.06-0.15,1.39
			c-0.36,0.23-0.82,0.34-1.25,0.42c-0.41,0.07-0.7,0.18-0.6,0.78c0.32,0.04,0.64,0.1,0.97,0.13c0.5,0.04,0.99,0.11,1.27,0.6
			c0.3,0.54,0.02,1.43-0.59,1.94c-0.55,0.45-1.24,0.49-1.74,0.02C59.46,80.11,59.21,79.71,58.84,79.25z M74.16,74.16
			c-0.74,2.03-1.47,4.02-2.19,6.01c-0.06-0.01-0.12-0.01-0.18-0.02c-0.25-0.68-0.49-1.36-0.74-2.03c-0.44-1.17-0.87-2.35-1.33-3.52
			c-0.25-0.64-0.64-0.71-1.15-0.21c0.9,2.31,1.82,4.65,2.74,6.99c0.42,0,0.78,0,1.15,0c0.93-2.4,1.84-4.77,2.79-7.22
			C74.84,74.16,74.53,74.16,74.16,74.16z M89.74,81.39c0-1.21,0.03-2.35-0.01-3.49c-0.06-1.91-1.6-2.85-3.36-2.08
			c-0.25,0.11-0.48,0.23-0.75,0.36c-0.28-0.44-0.57-0.79-1.08-0.39c0,1.87,0,3.71,0,5.6c0.32,0,0.6,0,0.95,0
			c0-0.29-0.01-0.56,0-0.83c0.03-0.96-0.01-1.93,0.12-2.88c0.12-0.89,0.85-1.34,1.75-1.25c0.86,0.08,1.45,0.72,1.47,1.6
			c0.01,0.36-0.01,0.73-0.01,1.09c0,0.74,0,1.48,0,2.26C89.18,81.39,89.44,81.39,89.74,81.39z M101.05,75.73
			c0.04,0.46,0.09,0.82,0.09,1.18c0,0.78,0.05,1.57-0.07,2.33c-0.12,0.74-0.63,1.26-1.4,1.42c-0.6,0.13-1.27-0.21-1.62-0.87
			c-0.17-0.34-0.21-0.76-0.24-1.15c-0.06-0.76-0.06-1.52-0.11-2.28c-0.02-0.22-0.14-0.43-0.23-0.68c-0.21,0.02-0.36,0.04-0.55,0.06
			c-0.15,1.34-0.28,2.64,0.01,3.93c0.4,1.78,2.1,2.42,3.62,1.38c0.14-0.1,0.29-0.18,0.48-0.29c0.09,0.27,0.15,0.47,0.26,0.81
			c0.21-0.15,0.45-0.22,0.52-0.37c0.13-0.27,0.22-0.59,0.23-0.88c0.04-1.18,0.04-2.36,0.04-3.53c0-0.36-0.05-0.71-0.07-1.13
			C101.69,75.67,101.42,75.69,101.05,75.73z M93.34,74.1c-0.46,0.16-0.81,0.27-1.1,0.38c0.11,0.39,0.18,0.68,0.26,0.97
			c-0.4,0.25-0.72,0.45-1.13,0.71c0.42,0.19,0.74,0.34,1.09,0.5c-0.02,0.22-0.06,0.42-0.05,0.61c0.04,1.04-0.01,2.11,0.19,3.13
			c0.19,1,1.48,1.38,2.42,0.81c-0.03-0.17-0.07-0.37-0.1-0.57c-0.51-0.06-0.96-0.12-1.44-0.17c0-1.41,0-2.71,0-4.07
			c0.49,0.08,0.9,0.14,1.38,0.21c0.06-0.34,0.1-0.59,0.15-0.91c-0.55-0.04-1.03-0.08-1.54-0.11C93.41,75.1,93.38,74.66,93.34,74.1z
			 M104.63,75.58c0,2,0,3.87,0,5.82c0.29,0,0.58,0,0.94,0c-0.03-0.46-0.07-0.85-0.09-1.25c-0.02-0.42-0.04-0.84-0.03-1.25
			c0.05-1.57,0.4-2.02,1.87-2.41c0.02,0,0.03-0.02,0.06-0.05c0-0.28,0-0.57,0-0.87c-0.81-0.12-1.25,0.37-1.72,0.92
			c-0.11-0.29-0.18-0.49-0.27-0.73C105.18,75.71,104.96,75.66,104.63,75.58z"/>
		<path d="M38.53,81.58c0-1.94,0-3.87,0-5.81c0.55-0.28,0.83-0.02,1.03,0.51c1.41-1.06,2.71-1,3.88,0.36
			c0.21-0.19,0.38-0.33,0.52-0.48c0.6-0.62,1.32-0.8,2.15-0.58c0.85,0.23,1.45,0.69,1.64,1.62c0.28,1.37,0.14,2.74,0.09,4.21
			c-0.36-0.03-0.65-0.05-1.01-0.07c0-0.43,0-0.79,0-1.14c0-0.87-0.01-1.74,0-2.62c0-0.57-0.25-0.91-0.81-1.07
			c-1.26-0.35-2.15,0.16-2.33,1.47c-0.11,0.84-0.06,1.7-0.08,2.55c-0.01,0.27,0,0.53,0,0.89c-0.32-0.02-0.6-0.04-0.93-0.06
			c-0.03-0.24-0.08-0.45-0.08-0.66c-0.01-0.94,0-1.89,0-2.83c0-0.78-0.53-1.37-1.3-1.46c-1.01-0.11-1.75,0.52-1.79,1.52
			c-0.04,1.11-0.1,2.21-0.15,3.32c-0.14,0.11-0.26,0.21-0.39,0.3C38.82,81.58,38.67,81.58,38.53,81.58z"/>
		<path d="M79.36,81.58c-0.18-0.07-0.36-0.14-0.55-0.21c-1.28-0.47-2.07-1.67-2-3.06c0.06-1.35,0.84-2.34,2.09-2.67
			c2.05-0.53,4.01,1.21,3.51,3.23c-0.29,0-0.61,0-0.93,0c-0.98,0-1.96-0.01-2.94,0.01c-0.24,0-0.47,0.09-0.7,0.14
			c-0.01,0.2-0.04,0.31-0.02,0.41c0.28,0.97,1.82,1.54,2.66,0.98c0.29-0.19,0.53-0.46,0.84-0.61c0.28-0.13,0.61-0.15,1.05-0.25
			c-0.37,1.24-1.15,1.75-2.13,2.04C79.94,81.58,79.65,81.58,79.36,81.58z M81.4,78.06c0.03-0.66-0.2-1.11-0.7-1.39
			c-0.68-0.38-1.37-0.33-2.01,0.1c-0.44,0.29-0.79,0.68-0.75,1.29C79.1,78.06,80.21,78.06,81.4,78.06z"/>
		<path d="M121.17,80.27c-0.41,0.29-0.79,0.63-1.23,0.86c-0.71,0.39-1.48,0.49-2.27,0.22c-0.7-0.25-1.12-0.76-1.31-1.49
			c0.28-0.33,0.59-0.26,0.88-0.07c0.2,0.13,0.36,0.31,0.53,0.46c0.61,0.55,1.32,0.57,1.99,0.08c0.41-0.31,0.37-0.79-0.11-0.98
			c-0.49-0.19-1.01-0.3-1.5-0.5c-0.41-0.17-0.85-0.36-1.18-0.65c-0.79-0.66-0.69-1.62,0.17-2.19c1.04-0.69,2.5-0.51,3.4,0.41
			c0.18,0.18,0.42,0.31,0.63,0.47c0,0.11,0,0.22,0,0.33c-0.93,0.39-1.05,0.35-1.6-0.43c-0.32-0.45-0.84-0.43-1.29-0.31
			c-0.28,0.07-0.51,0.34-0.76,0.52c0.24,0.29,0.46,0.6,0.73,0.86c0.13,0.13,0.34,0.19,0.52,0.29c0.8,0.42,1.6,0.83,2.4,1.25
			C121.17,79.69,121.17,79.98,121.17,80.27z"/>
		<path class="st18" d="M121.17,79.4c-0.8-0.42-1.6-0.83-2.4-1.25c-0.18-0.09-0.39-0.15-0.52-0.29c-0.26-0.27-0.49-0.57-0.73-0.86
			c0.25-0.18,0.48-0.45,0.76-0.52c0.45-0.12,0.97-0.14,1.29,0.31c0.55,0.77,0.67,0.82,1.6,0.43
			C121.17,77.94,121.17,78.67,121.17,79.4z"/>
		<path d="M10.41,65.3c0.62-1.44,1.18-2.75,1.75-4.07c6.1-14.13,12.19-28.27,18.32-42.39c0.9-2.06,1.9-4.09,3.04-6.03
			c2.06-3.49,5.25-5.3,9.26-5.65c1.32-0.11,2.65-0.11,3.98-0.11c5.48-0.01,10.95,0.01,16.43,0.01c0.18,0,0.35,0,0.59,0
			c-0.07,0.21-0.11,0.37-0.17,0.51C58.48,19.5,53.35,31.42,48.22,43.34c-1.96,4.54-3.92,9.08-5.91,13.6
			c-0.92,2.07-2.02,4.04-3.8,5.53c-2.12,1.78-4.62,2.64-7.36,2.83c-0.63,0.04-1.27,0.08-1.91,0.08c-6.06,0.02-12.12,0.02-18.18,0.03
			C10.88,65.4,10.7,65.35,10.41,65.3z"/>
		<path d="M104.68,7.07c-0.72,1.69-1.4,3.28-2.08,4.86c-4.65,10.8-9.29,21.6-13.95,32.39c-1.91,4.42-3.81,8.84-5.79,13.23
			c-1.11,2.46-2.68,4.58-5.06,5.99c-1.99,1.18-4.19,1.67-6.46,1.75c-2.82,0.1-5.64,0.08-8.46,0.1c-3.62,0.02-7.24,0.01-10.86,0.01
			c-0.21,0-0.42-0.03-0.72-0.05c0.1-0.28,0.16-0.48,0.24-0.67c5.16-11.96,10.32-23.92,15.5-35.88c1.91-4.42,3.82-8.84,5.79-13.24
			c0.85-1.91,1.84-3.76,3.43-5.19c2.15-1.93,4.69-2.98,7.54-3.2c1.86-0.15,3.74-0.12,5.61-0.12c4.88-0.01,9.75,0.01,14.63,0.01
			C104.21,7.07,104.39,7.07,104.68,7.07z"/>
		<path d="M92.2,65.32c0.07-0.18,0.1-0.32,0.16-0.44c2.43-4.69,4.8-9.42,7.32-14.07c2.31-4.27,6.18-5.92,10.85-5.69
			c4.03,0.19,7.1,2.13,8.92,5.79c1.88,3.79,0.86,8.55-2.34,11.47c-2,1.82-4.33,2.88-7.04,2.92c-4.22,0.07-8.44,0.07-12.65,0.09
			c-1.58,0.01-3.16,0-4.75,0C92.53,65.39,92.39,65.35,92.2,65.32z"/>
		<path d="M27.52,81.42c-0.32,0.02-0.55,0.03-0.83,0.05c0-1.96,0-3.87,0-5.84c0.12-0.04,0.26-0.09,0.41-0.14
			c0.23,0.27,0.42,0.5,0.66,0.77c1.39-1.11,2.65-1.06,3.75,0.44c0.17-0.16,0.32-0.26,0.43-0.4c0.68-0.85,1.58-0.89,2.53-0.65
			c0.91,0.23,1.31,0.93,1.5,1.77c0.29,1.31,0.17,2.63,0.1,3.96c-0.38,0-0.68,0-1.08,0c0-0.31,0-0.58,0-0.84
			c-0.01-0.92,0.01-1.85-0.05-2.77c-0.06-0.86-0.61-1.37-1.38-1.41c-0.78-0.03-1.51,0.51-1.61,1.33c-0.12,1.01-0.12,2.03-0.17,3.04
			c-0.01,0.18,0,0.36,0,0.6c-0.24,0.04-0.46,0.07-0.82,0.12c0-0.46,0.01-0.83,0-1.2c-0.04-0.76-0.03-1.53-0.15-2.28
			c-0.16-1.1-0.71-1.6-1.61-1.58c-0.9,0.01-1.48,0.57-1.6,1.67c-0.08,0.77-0.05,1.56-0.07,2.34C27.51,80.73,27.52,81.04,27.52,81.42
			z"/>
		<path d="M54.75,76.45c0.05-0.31,0.09-0.52,0.14-0.79c0.3,0.02,0.58,0.04,0.9,0.06c0,1.89,0,3.74,0,5.64
			c-0.3,0.04-0.57,0.07-0.88,0.11c-0.07-0.3-0.12-0.52-0.18-0.81c-1.61,1.08-3.18,1.33-4.44-0.41c-0.78-1.08-0.49-2.96,0.52-4
			C52.12,74.91,53.42,75.52,54.75,76.45z M54.78,78.52c0-1.16-0.9-2.11-1.98-2.1c-1.06,0.01-1.92,0.95-1.92,2.1
			c-0.01,1.17,0.87,2.12,1.95,2.13C53.9,80.64,54.78,79.69,54.78,78.52z"/>
		<path d="M16.67,76.27c-0.51,0.05-0.94,0.19-1.31-0.3c-0.8-1.07-2.07-1.34-3.31-0.77c-1.07,0.49-1.68,1.72-1.44,2.96
			c0.18,0.96,0.64,1.73,1.55,2.18c0.86,0.43,1.68,0.4,2.46-0.18c0.34-0.25,0.66-0.52,1.01-0.75c0.31-0.2,0.65-0.33,0.99-0.03
			c-0.38,1.4-1.97,2.31-3.65,2.09c-1.95-0.25-3.58-1.88-3.59-3.59c-0.01-1.79,1.65-3.55,3.59-3.81
			C14.67,73.83,16.23,74.73,16.67,76.27z"/>
		<path d="M114.42,79.85c-0.26,1.1-1.88,1.88-3.23,1.58c-1.63-0.37-2.58-1.89-2.22-3.57c0.34-1.6,1.83-2.56,3.45-2.25
			c1.48,0.29,2.4,1.64,2.13,3.28c-1.48,0-2.99,0-4.47,0c-0.06,0.71,0.32,1.26,0.98,1.59c0.66,0.33,1.45,0.24,1.94-0.22
			c0.15-0.14,0.27-0.3,0.42-0.42C113.75,79.56,114.09,79.53,114.42,79.85z M113.53,78.04c0.04-0.92-0.51-1.54-1.37-1.6
			c-1.06-0.07-2.11,0.68-2.16,1.6C111.17,78.04,112.33,78.04,113.53,78.04z"/>
		<path d="M21.59,81.49c-1.67-0.01-3.02-1.34-3.01-2.96c0-1.65,1.39-2.97,3.08-2.95c1.66,0.02,3.01,1.37,2.99,2.99
			C24.63,80.19,23.26,81.5,21.59,81.49z M21.58,76.42c-1.06,0-1.91,0.94-1.92,2.1c-0.01,1.17,0.88,2.13,1.96,2.12
			c1.05-0.01,1.92-0.95,1.93-2.1C23.55,77.38,22.66,76.42,21.58,76.42z"/>
		<path d="M58.84,79.25c0.37,0.46,0.62,0.86,0.96,1.18c0.5,0.47,1.18,0.43,1.74-0.02c0.62-0.51,0.9-1.4,0.59-1.94
			c-0.28-0.49-0.76-0.56-1.27-0.6c-0.33-0.03-0.66-0.09-0.97-0.13c-0.09-0.6,0.19-0.7,0.6-0.78c0.43-0.08,0.89-0.19,1.25-0.42
			c0.5-0.33,0.51-0.9,0.15-1.39c-0.74-0.97-2.12-0.83-2.63,0.27c-0.07,0.16-0.16,0.31-0.29,0.57c-0.27-0.16-0.6-0.25-0.67-0.44
			c-0.08-0.2,0.03-0.54,0.17-0.74c0.79-1.12,2.63-1.44,3.78-0.69c1.08,0.7,1.08,2.28,0,2.97c-0.09,0.06-0.17,0.12-0.43,0.38
			c0.14,0.05,0.3,0.07,0.41,0.16c0.9,0.74,1.19,1.55,0.86,2.37c-0.35,0.9-1.31,1.5-2.35,1.45c-1.14-0.05-1.98-0.65-2.67-1.5
			c-0.27-0.33-0.09-0.69,0.34-0.73C58.58,79.21,58.74,79.24,58.84,79.25z"/>
		<path d="M74.16,74.16c0.37,0,0.68,0,1.09,0c-0.95,2.46-1.86,4.82-2.79,7.22c-0.38,0-0.73,0-1.15,0c-0.91-2.34-1.83-4.68-2.74-6.99
			c0.51-0.5,0.9-0.43,1.15,0.21c0.46,1.17,0.89,2.34,1.33,3.52c0.25,0.67,0.49,1.35,0.74,2.03c0.06,0.01,0.12,0.01,0.18,0.02
			C72.69,78.18,73.42,76.19,74.16,74.16z"/>
		<path d="M89.74,81.39c-0.31,0-0.56,0-0.91,0c0-0.78,0-1.52,0-2.26c0-0.36,0.01-0.73,0.01-1.09c-0.02-0.88-0.6-1.51-1.47-1.6
			c-0.9-0.09-1.63,0.37-1.75,1.25c-0.12,0.95-0.09,1.92-0.12,2.88c-0.01,0.27,0,0.53,0,0.83c-0.35,0-0.63,0-0.95,0
			c0-1.9,0-3.74,0-5.6c0.51-0.4,0.8-0.05,1.08,0.39c0.26-0.13,0.5-0.25,0.75-0.36c1.76-0.77,3.3,0.17,3.36,2.08
			C89.77,79.03,89.74,80.18,89.74,81.39z"/>
		<path d="M101.05,75.73c0.37-0.03,0.65-0.05,0.98-0.08c0.03,0.42,0.07,0.77,0.07,1.13c0,1.18-0.01,2.36-0.04,3.53
			c-0.01,0.3-0.1,0.61-0.23,0.88c-0.07,0.15-0.31,0.23-0.52,0.37c-0.11-0.34-0.17-0.54-0.26-0.81c-0.19,0.11-0.34,0.2-0.48,0.29
			c-1.52,1.04-3.22,0.4-3.62-1.38c-0.29-1.29-0.16-2.59-0.01-3.93c0.19-0.02,0.34-0.03,0.55-0.06c0.09,0.25,0.21,0.46,0.23,0.68
			c0.05,0.76,0.05,1.52,0.11,2.28c0.03,0.39,0.07,0.81,0.24,1.15c0.34,0.66,1.02,1,1.62,0.87c0.77-0.16,1.29-0.68,1.4-1.42
			c0.12-0.76,0.07-1.55,0.07-2.33C101.14,76.55,101.09,76.19,101.05,75.73z"/>
		<path d="M93.34,74.1c0.04,0.56,0.08,1,0.11,1.49c0.51,0.04,0.99,0.07,1.54,0.11c-0.05,0.32-0.09,0.57-0.15,0.91
			c-0.48-0.07-0.89-0.14-1.38-0.21c0,1.35,0,2.66,0,4.07c0.48,0.06,0.93,0.11,1.44,0.17c0.04,0.19,0.07,0.39,0.1,0.57
			c-0.94,0.57-2.23,0.19-2.42-0.81c-0.2-1.02-0.14-2.08-0.19-3.13c-0.01-0.19,0.03-0.39,0.05-0.61c-0.35-0.16-0.66-0.31-1.09-0.5
			c0.42-0.26,0.73-0.46,1.13-0.71c-0.08-0.29-0.16-0.58-0.26-0.97C92.53,74.37,92.87,74.25,93.34,74.1z"/>
		<path d="M104.63,75.58c0.33,0.08,0.55,0.13,0.75,0.18c0.09,0.24,0.16,0.44,0.27,0.73c0.47-0.55,0.91-1.04,1.72-0.92
			c0,0.3,0,0.59,0,0.87c-0.03,0.03-0.04,0.04-0.06,0.05c-1.46,0.39-1.82,0.84-1.87,2.41c-0.01,0.42,0.01,0.84,0.03,1.25
			c0.02,0.4,0.06,0.79,0.09,1.25c-0.36,0-0.64,0-0.94,0C104.63,79.45,104.63,77.58,104.63,75.58z"/>
		<path class="st18" d="M81.4,78.06c-1.18,0-2.3,0-3.46,0c-0.04-0.62,0.3-1,0.75-1.29c0.64-0.42,1.33-0.47,2.01-0.1
			C81.2,76.95,81.43,77.4,81.4,78.06z"/>
		<path class="st18" d="M54.78,78.52c0,1.17-0.88,2.13-1.95,2.13c-1.08,0-1.96-0.96-1.95-2.13c0.01-1.15,0.87-2.09,1.92-2.1
			C53.88,76.41,54.78,77.36,54.78,78.52z"/>
		<path class="st18" d="M113.53,78.04c-1.2,0-2.36,0-3.53,0c0.05-0.92,1.1-1.66,2.16-1.6C113.02,76.49,113.57,77.12,113.53,78.04z"
			/>
		<path class="st18" d="M21.58,76.42c1.08,0,1.97,0.96,1.96,2.12c-0.01,1.15-0.87,2.09-1.93,2.1c-1.08,0.01-1.97-0.96-1.96-2.12
			C19.67,77.35,20.52,76.42,21.58,76.42z"/>
	</g>
</g>
</svg>
