<?xml version="1.0" encoding="utf-8"?>
<!-- Generator: Adobe Illustrator 28.3.0, SVG Export Plug-In . SVG Version: 6.00 Build 0)  -->
<svg version="1.1" id="Layer_1" xmlns="http://www.w3.org/2000/svg" xmlns:xlink="http://www.w3.org/1999/xlink" x="0px" y="0px"
	 viewBox="0 0 186.84 66.93" style="enable-background:new 0 0 186.84 66.93;" xml:space="preserve">
<style type="text/css">
	.st0{fill:#231F20;}
	.st1{fill:url(#SVGID_1_);}
	.st2{enable-background:new    ;}
	.st3{fill:#FEFEFE;}
	.st4{fill:#B2B2B2;}
	.st5{fill:#E7E7E7;}
	.st6{fill:#FCFCFC;}
	.st7{fill:#FBFBFB;}
	.st8{fill:#F9F9F9;}
	.st9{fill:#FAFAFA;}
	.st10{fill:#E9E9E9;}
	.st11{fill:#E1E1E1;}
	.st12{fill:#CECECE;}
	.st13{fill:#070707;}
	.st14{fill:#121212;}
	.st15{fill:#0A0A0A;}
	.st16{fill:#191919;}
	.st17{fill:#181818;}
	.st18{fill:#FFFFFF;}
	.st19{fill:#2D2D2D;}
	.st20{fill:url(#Vector_00000150794651977386035850000016012411719276904379_);}
	.st21{fill:url(#Vector_2_00000111154513519184077020000013485281491101235391_);}
	.st22{fill:#CFCFCF;}
	.st23{opacity:0.972;fill-rule:evenodd;clip-rule:evenodd;enable-background:new    ;}
	.st24{opacity:0.977;fill-rule:evenodd;clip-rule:evenodd;enable-background:new    ;}
	.st25{opacity:0.971;fill-rule:evenodd;clip-rule:evenodd;enable-background:new    ;}
	.st26{opacity:0.984;fill-rule:evenodd;clip-rule:evenodd;enable-background:new    ;}
	.st27{opacity:0.975;fill-rule:evenodd;clip-rule:evenodd;enable-background:new    ;}
	.st28{opacity:0.987;fill-rule:evenodd;clip-rule:evenodd;enable-background:new    ;}
	.st29{opacity:0.979;fill-rule:evenodd;clip-rule:evenodd;enable-background:new    ;}
	.st30{opacity:0.978;fill-rule:evenodd;clip-rule:evenodd;enable-background:new    ;}
	.st31{opacity:0.921;fill-rule:evenodd;clip-rule:evenodd;enable-background:new    ;}
	.st32{opacity:0.92;fill-rule:evenodd;clip-rule:evenodd;enable-background:new    ;}
	.st33{opacity:0.95;fill-rule:evenodd;clip-rule:evenodd;enable-background:new    ;}
	.st34{opacity:0.964;fill-rule:evenodd;clip-rule:evenodd;enable-background:new    ;}
	.st35{opacity:0.945;fill-rule:evenodd;clip-rule:evenodd;enable-background:new    ;}
	.st36{opacity:0.959;fill-rule:evenodd;clip-rule:evenodd;enable-background:new    ;}
	.st37{opacity:0.948;fill-rule:evenodd;clip-rule:evenodd;enable-background:new    ;}
	.st38{fill-rule:evenodd;clip-rule:evenodd;fill:#24201D;}
	.st39{fill:#24201D;}
	.st40{fill:#105AF4;}
	.st41{fill:#4393F1;}
	.st42{fill:#98C6FB;}
	.st43{fill:#90C8FD;}
	.st44{fill:#80889E;}
	.st45{fill:#80879E;}
	.st46{fill:#C5CAD6;}
	.st47{fill:#2A2F59;}
	.st48{fill:#525E81;}
	.st49{fill:#7F889E;}
	.st50{fill:#242744;}
	.st51{fill:#7F879E;}
	.st52{fill:#525E80;}
	.st53{fill:#242644;}
	.st54{fill:#242743;}
	.st55{fill:#252744;}
	.st56{fill:#252845;}
	.st57{fill:#252844;}
	.st58{fill:#252644;}
	.st59{fill:#FDFEFD;}
	.st60{fill:#FDFDFD;}
	.st61{fill:#FCFCFB;}
	.st62{fill:#FDFEFE;}
	.st63{fill:#252F38;}
	.st64{fill:#A6493A;}
	.st65{fill:#A7493A;}
	.st66{fill:#A74A3B;}
	.st67{fill:#A74B3C;}
	.st68{fill:#FEFDFD;}
</style>
<g id="MmwQO6_00000147934748658981248180000014247691460758769803_">
	<g>
		<g>
			<path class="st3" d="M94.44-7.33c33.1,0,66.2,0,99.29-0.01c0.49,0,0.6,0.11,0.6,0.6c-0.01,25.65-0.01,51.3,0,76.95
				c0,0.49-0.11,0.6-0.6,0.6c-66.2-0.01-132.39-0.01-198.59,0c-0.49,0-0.6-0.11-0.6-0.6c0.01-25.65,0.01-51.3,0-76.95
				c0-0.49,0.11-0.6,0.6-0.6C28.25-7.33,61.34-7.33,94.44-7.33z"/>
			<path class="st44" d="M68.37,45.02c0.05,0.21-0.11,0.32-0.23,0.44c-2.77,2.77-5.55,5.55-8.32,8.32c-0.09,0.09-0.17,0.2-0.38,0.19
				c0-5.83,0-11.64,0-17.57c-0.33,0.29-0.57,0.49-0.81,0.69c-0.36-0.49-0.87-0.59-1.43-0.59c-1.9,0-3.8,0.01-5.7,0
				c-0.32,0-0.65,0.05-0.94-0.17c-0.04-0.08-0.03-0.16,0.04-0.22c0.32-0.19,0.67-0.14,1.01-0.14c2.23-0.01,4.46,0,6.69,0
				c0.88,0,0.9-0.03,0.9-0.92c0-2.21,0-4.41,0-6.62c0-0.32-0.03-0.65,0.08-0.96c0.03-0.07,0.08-0.13,0.14-0.17
				c0.12-0.02,0.23,0.04,0.24,0.15c0.02,0.16-0.07,0.28,0.22,0.15c0.36-0.17,0.45,0.11,0.39,0.42c-0.37,2.16-0.08,4.34-0.16,6.51
				c0,0.09,0.03,0.17,0.12,0.23c0.34-0.05,0.49-0.5,0.88-0.47c0.23,0.08,0.16,0.24,0.06,0.35c-0.39,0.44-0.74,0.94-1.3,1.19
				c-0.06,0-0.13-0.09-0.15-0.06c-0.07,0.06,0.03,0.14,0.01,0.21c-0.03,0.4,0.25,0.63,0.49,0.87c2.6,2.6,5.2,5.2,7.8,7.8
				C68.16,44.75,68.31,44.84,68.37,45.02z"/>
			<path class="st45" d="M32.85,27.04c2.73-2.75,5.47-5.49,8.2-8.24c0.17-0.17,0.3-0.37,0.54-0.46c0.23,0.26,0.16,0.57,0.16,0.87
				c0.01,2.4,0,4.79,0,7.19c0,0.3-0.02,0.61,0.08,0.9c0.11,0.45,0.07,0.91,0.07,1.36c0,2.1,0,4.21,0,6.31
				c0,0.37,0.03,0.74-0.11,1.09c-0.04,0.07-0.08,0.14-0.14,0.2c-0.06,0.05-0.13,0.07-0.21,0.06c-0.79-0.71-1.51-1.49-2.26-2.24
				c-2.07-2.06-4.14-4.13-6.28-6.28c0.01,5.75-0.01,11.4,0.02,17.05c-0.02,0.13-0.09,0.2-0.21,0.23c-0.18,0.02-0.29-0.07-0.35-0.23
				c-0.1-0.67-0.39-1.32,0-2c0.12-0.21,0.04-0.51,0.04-0.77c-0.01-4.81,0.02-9.63-0.02-14.44c0-0.11,0.03-0.21,0.08-0.3
				C32.54,27.19,32.69,27.11,32.85,27.04z"/>
			<path class="st46" d="M5.9,54.11c-0.23-0.18-0.14-0.44-0.14-0.67c0-5.55,0-11.11-0.01-16.66c0-0.34,0.06-0.61,0.32-0.87
				c2.82-2.8,5.62-5.61,8.43-8.42c0.07-0.07,0.17-0.12,0.26-0.18c0.25,0.29,0.19,0.65,0.19,0.99c0.01,2.57-0.01,5.14,0.01,7.7
				c0,0.13,0.05,0.25,0.07,0.37c0.12,2.39,0.03,4.78,0.05,7.17c0,0.45,0.06,0.91-0.09,1.35c-0.18,0.3-0.4,0.17-0.61,0.03
				c-0.22-0.15-0.39-0.34-0.57-0.53c-2.39-2.39-4.78-4.78-7.17-7.17c-0.15-0.15-0.29-0.32-0.51-0.46c-0.11,0.18-0.05,0.37-0.06,0.55
				c0,5.27,0,10.53-0.01,15.8C6.07,53.45,6.14,53.81,5.9,54.11z"/>
			<path class="st47" d="M68.37,9.48c0.18-0.24,0.44-0.13,0.66-0.13c5.73-0.01,11.46,0,17.19,0c0.09,0.07,0.08,0.16,0.06,0.25
				C86.2,9.83,86,9.98,85.84,10.15c-2.54,2.54-5.08,5.08-7.62,7.62c-0.2,0.2-0.38,0.42-0.66,0.52c-0.06,0.02-0.12,0.02-0.18,0.03
				c-0.26-0.01-0.44-0.17-0.61-0.34c-2.75-2.75-5.51-5.5-8.25-8.26c-0.05-0.05-0.08-0.1-0.11-0.16C68.39,9.53,68.38,9.5,68.37,9.48z
				"/>
			<path class="st46" d="M68.37,45.02c-0.22-0.02-0.33-0.19-0.47-0.32c-2.68-2.67-5.35-5.35-8.03-8.02
				c-0.22-0.22-0.46-0.43-0.19-0.76c0.02-0.06,0.06-0.1,0.12-0.12c0.52-0.44,1-0.92,1.44-1.44c0.02-0.21,0.17-0.34,0.31-0.48
				c2.07-2.08,4.15-4.16,6.23-6.23c0.11-0.11,0.22-0.21,0.35-0.29c0.25-0.14,0.35-0.01,0.42,0.22c0.07,2.83,0.1,5.66-0.01,8.49
				c-0.03,0.08-0.07,0.15-0.13,0.21c0.04,0.21,0.11,0.42,0.11,0.63c0.01,2.53,0.01,5.06,0,7.59C68.51,44.67,68.57,44.88,68.37,45.02
				z"/>
			<path class="st46" d="M59.54,18.35c0.1-0.14,0.19-0.28,0.31-0.4c2.77-2.77,5.54-5.55,8.32-8.32c0.06-0.06,0.14-0.1,0.2-0.16
				c0,0,0.03-0.02,0.03-0.02l0.03,0.01c0.17,0.36,0.17,0.75,0.17,1.14c0,2.52-0.01,5.04,0.01,7.56c0,0.13,0.05,0.24,0.07,0.37
				c0.11,1.75,0.04,3.51,0.05,5.27c0.01,1.04,0.06,2.08-0.04,3.12c-0.13,0.43-0.4,0.42-0.68,0.17c-0.23-0.2-0.42-0.43-0.63-0.65
				c-2.34-2.43-4.85-4.7-7.23-7.1c-0.24-0.24-0.52-0.46-0.64-0.81C59.49,18.47,59.5,18.41,59.54,18.35z"/>
			<path class="st48" d="M32.45,44.88c0.06,0.12,0.17,0.13,0.28,0.15c0.01,0.1-0.03,0.16-0.13,0.18c-0.3,0.15-0.63,0.14-0.96,0.14
				c-1.69,0-3.38-0.02-5.07,0.01c-0.83,0.02-1.89-0.37-2.44,0.2c-0.55,0.57-0.17,1.62-0.19,2.46c-0.03,1.69-0.01,3.38-0.01,5.07
				c0,0.34,0.03,0.7-0.22,0.99c-2.99,0.01-5.98,0.01-8.97,0.02c-0.04-0.14,0.03-0.24,0.1-0.34c2.68-2.72,5.4-5.4,8.09-8.11
				c0.2-0.2,0.42-0.38,0.55-0.64c0.04-0.1,0.03-0.2,0.04-0.3c0-2.42,0-4.84,0-7.26c0-0.3-0.02-0.61,0.04-0.9
				c0.07-0.27,0.2-0.37,0.46-0.2c0.18,0.12,0.33,0.28,0.48,0.43c2.45,2.45,4.9,4.89,7.34,7.34C32.08,44.36,32.34,44.56,32.45,44.88z
				"/>
			<path class="st47" d="M41.71,27.31c-0.18-0.12-0.13-0.3-0.13-0.47c0-2.83,0.01-5.66,0.01-8.49c0.37-0.01,0.73-0.03,1.1-0.03
				c5.33,0,10.67,0,16,0c0.24,0,0.48,0.02,0.71,0.03c0.06,0.29-0.17,0.43-0.33,0.59c-2.65,2.65-5.3,5.3-7.95,7.95
				c-0.18,0.18-0.35,0.39-0.66,0.35c-0.32-0.11-0.52-0.38-0.75-0.61c-2.49-2.48-4.97-4.97-7.46-7.45c-0.15-0.15-0.28-0.33-0.51-0.46
				c0.14,0.18,0.12,0.35,0.12,0.52c0,2.47,0,4.94,0,7.42c0,0.19,0,0.39-0.09,0.57C41.76,27.26,41.73,27.29,41.71,27.31z"/>
			<path class="st44" d="M23.7,44.97c-0.04,0.06-0.08,0.13-0.12,0.19c-0.33,0.2-0.7,0.18-1.07,0.18c-2.53,0.01-5.05-0.01-7.58,0.01
				c-0.51,0.19-0.83,0.63-1.18,0.99c-1.18,1.23-2.41,2.41-3.6,3.62c-0.85,0.86-1.69,1.72-2.57,2.55c-0.53,0.5-1.02,1.06-1.54,1.58
				c-0.04,0-0.09,0.01-0.13,0.01c-0.01-5.85-0.01-11.7-0.01-17.54c0-0.06,0.03-0.11,0.04-0.19c0.27,0.06,0.39,0.28,0.55,0.44
				c2.59,2.58,5.18,5.18,7.77,7.76c0.18,0.18,0.31,0.43,0.61,0.44c0.25-0.22,0.56-0.22,0.86-0.22c2.39,0,4.77,0,7.16,0
				C23.17,44.8,23.46,44.78,23.7,44.97z"/>
			<path class="st46" d="M86.23,9.6c0-0.08-0.01-0.17-0.01-0.25c0.25,0.11,0.16,0.33,0.16,0.51c0,5.67-0.01,11.35-0.02,17.02
				c0,0.15,0.02,0.31-0.1,0.43c-0.03-0.01-0.06-0.02-0.09-0.03c-0.27-0.14-0.48-0.36-0.69-0.58c-2.52-2.52-5.04-5.04-7.56-7.56
				c-0.22-0.22-0.6-0.41-0.4-0.85c0.07-0.03,0.14-0.05,0.21-0.08c0.32-0.12,0.64-0.09,0.97-0.09c2.15,0,4.29,0,6.44,0
				c0.84,0,0.89-0.04,0.89-0.87c0.01-2.19,0-4.38,0-6.57C86.03,10.3,86.02,9.93,86.23,9.6z"/>
			<path class="st49" d="M23.72,54.08c0.01-2.71,0.03-5.42,0.01-8.14c-0.01-0.62,0.18-0.82,0.81-0.82c2.73,0.02,5.47-0.01,8.2-0.02
				c0.29-0.16,0.61-0.18,0.94-0.18c2.33,0,4.66,0,6.99,0c0.32,0,0.66-0.05,0.91,0.22c-0.2,0.19-0.46,0.1-0.68,0.1
				c-2.54,0.01-5.07,0.02-7.61-0.01c-0.48,0-0.8,0.14-1.13,0.48c-2.58,2.6-5.17,5.19-7.77,7.77C24.18,53.7,24.01,53.96,23.72,54.08z
				"/>
			<path class="st50" d="M6.03,54.11c-0.07-0.21,0.07-0.31,0.19-0.44c2.81-2.8,5.61-5.59,8.41-8.39c0.27-0.13,0.29,0.08,0.32,0.24
				c0.08,0.4,0.12,0.81,0.12,1.23c0,1.91,0,3.81,0,5.72c0,0.48-0.06,0.95-0.19,1.41c-0.05,0.07-0.1,0.15-0.14,0.22
				C11.84,54.1,8.94,54.1,6.03,54.11z"/>
			<path class="st51" d="M32.6,27.27c-0.04,0.06-0.08,0.12-0.12,0.18c-0.04,0.01-0.08,0.01-0.13,0.02c-0.3,0.04-0.6,0.04-0.91,0.04
				c-5.12,0-10.23,0-15.35,0c-0.35,0-0.69,0.02-1.03-0.08c-0.08-0.03-0.15-0.08-0.2-0.15c0.21-0.16,0.46-0.08,0.69-0.08
				c2.51-0.02,5.02-0.04,7.53-0.02c0.54,0,0.64-0.18,0.64-0.67c-0.02-2.53-0.01-5.06,0-7.6c0-0.24-0.1-0.52,0.15-0.72
				c0.05,0.03,0.09,0.08,0.13,0.13c0.16,0.29,0.4,0.51,0.63,0.74c2.49,2.49,4.99,4.99,7.48,7.48C32.31,26.75,32.6,26.91,32.6,27.27z
				"/>
			<path class="st47" d="M68.4,36.26c0.02-0.04,0.03-0.07,0.03-0.11c0.08-0.26,0.26-0.44,0.44-0.63c2.62-2.62,5.23-5.23,7.86-7.84
				c0.18-0.18,0.33-0.49,0.69-0.34c0.05,0.06,0.08,0.13,0.11,0.2c0.13,0.99,0.05,1.98,0.06,2.97c0.01,1.55,0,3.1,0,4.65
				c0,0.35,0,0.69-0.21,0.99c-0.2,0.19-0.45,0.1-0.68,0.1C73.94,36.26,71.17,36.26,68.4,36.26z"/>
			<path class="st46" d="M32.6,27.27c-2.77-2.78-5.54-5.55-8.3-8.33c-0.18-0.18-0.43-0.32-0.43-0.62c0.25-0.22,0.56-0.21,0.86-0.21
				c2.39,0,4.78-0.01,7.18,0c0.28,0,0.57-0.02,0.8,0.19c0.01,2.67,0.01,5.34,0.02,8.01c0,0.24-0.11,0.52,0.13,0.73
				C32.8,27.16,32.74,27.25,32.6,27.27z"/>
			<path class="st52" d="M50.56,27.18c0.86-0.84,1.74-1.68,2.59-2.53c2.09-2.09,4.17-4.2,6.25-6.3c0.05,0,0.09,0,0.14,0
				c-0.01,0.04-0.01,0.08,0,0.11c0.16,0.31,0.22,0.65,0.22,1c0,2.27,0,4.55-0.01,6.82c0,0.34,0.02,0.7-0.22,0.99
				c-0.04,0-0.08,0.01-0.12,0.03c-0.21,0.19-0.47,0.2-0.73,0.2c-2.47,0.01-4.94,0.01-7.41,0c-0.22,0-0.43-0.01-0.63-0.12
				C50.55,27.34,50.52,27.27,50.56,27.18z"/>
			<path class="st44" d="M32.69,18.3c-2.94,0.01-5.89,0.01-8.83,0.02c0-0.04,0-0.08,0-0.13c2.49-2.5,4.98-5,7.46-7.5
				c0.41-0.41,0.77-0.86,1.15-1.3c0.07,0.04,0.15,0.08,0.22,0.12C32.69,12.45,32.69,15.37,32.69,18.3z"/>
			<path class="st50" d="M14.86,27.28c0.05,0.02,0.1,0.04,0.15,0.05c0.35,0.14,0.6,0.42,0.86,0.68c2.45,2.44,4.89,4.89,7.34,7.33
				c0.14,0.14,0.28,0.27,0.38,0.44c0.15,0.27,0.07,0.45-0.23,0.53c-2.64,0.06-5.28,0.01-7.92,0.02c-0.24,0-0.48-0.03-0.66-0.2
				c0-2.94,0-5.88-0.01-8.82C14.79,27.3,14.83,27.29,14.86,27.28z"/>
			<path class="st50" d="M41.58,45.15c-2.64-0.01-5.29-0.02-7.93-0.02c-0.3,0-0.61-0.01-0.91-0.02c-0.01-0.03-0.01-0.05,0-0.08
				c0.04-0.05,0.08-0.1,0.12-0.14c0.03-0.26,0.24-0.41,0.4-0.57c2.54-2.54,5.08-5.08,7.62-7.62c0.16-0.16,0.31-0.37,0.57-0.4
				c0.04,0,0.08,0,0.12-0.01c0.41,0.23,0.32,0.63,0.32,0.98c0.01,2.55,0.05,5.1-0.09,7.64c-0.01,0.08-0.05,0.15-0.1,0.21
				C41.66,45.13,41.62,45.14,41.58,45.15z"/>
			<path class="st52" d="M41.7,45.12c0-0.04,0.01-0.07,0.01-0.11c0.09-0.33,0.36-0.53,0.59-0.76c2.42-2.42,4.84-4.84,7.25-7.26
				c0.15-0.15,0.31-0.3,0.51-0.54c-1.46,0-2.83,0-4.21,0c-0.24,0-0.48,0.03-0.71-0.06c-0.28-0.12-0.27-0.25,0.01-0.37
				c1.65-0.14,3.29-0.06,4.94-0.04c0.17,0,0.35,0.05,0.46,0.21c0,0.04,0.01,0.07,0.02,0.11c0.22,0.25,0.2,0.56,0.2,0.86
				c0,2.35,0,4.7,0,7.05c0,0.33-0.01,0.65-0.22,0.92c-1.31,0.11-2.63,0.04-3.94,0.04C44.97,45.17,43.33,45.14,41.7,45.12z"/>
			<path class="st48" d="M77.38,36.15c0-2.95,0-5.91,0-8.86c0.03-0.03,0.07-0.05,0.1-0.08c0.28-0.14,0.59-0.11,0.89-0.11
				c2.28,0,4.55,0,6.83,0c0.34,0,0.7-0.04,0.99,0.21c0.02,0,0.04,0,0.07,0C83.33,30.28,80.4,33.26,77.38,36.15z"/>
			<path class="st51" d="M50.55,45.12c0.01-2.94,0.01-5.89,0.02-8.83c2.34,0,4.68,0,7.02,0c0.66,0,1.05,0.3,1.05,0.78
				c-2.06,2.07-4.1,4.15-6.17,6.21C51.84,43.91,51.27,44.59,50.55,45.12z"/>
			<path class="st50" d="M147.77,19.17c1.21,0.65,1.65,1.57,1.36,2.75c-0.24,0.96-1.19,1.61-2.39,1.61c-1.21,0-2.43-0.01-3.64,0.01
				c-0.36,0.01-0.48-0.09-0.48-0.47c0.02-2.51,0.02-5.03,0-7.54c0-0.47,0.18-0.53,0.57-0.52c1.15,0.02,2.3,0,3.45,0.01
				c1.07,0,1.72,0.44,2.06,1.34c0.35,0.95,0.14,1.87-0.6,2.54C147.99,19,147.89,19.07,147.77,19.17z"/>
			<path class="st50" d="M140.57,47.43c0-1.84,0.01-3.68-0.01-5.53c-0.01-0.48,0.03-0.73,0.64-0.73c0.69-0.01,0.51,0.41,0.51,0.76
				c0.01,2.36,0.01,4.73-0.01,7.09c0,0.22,0.18,0.59-0.17,0.65c-0.36,0.07-0.73,0.12-1.04-0.29c-1.01-1.32-2.07-2.61-3.12-3.92
				c-0.54-0.67-1.08-1.33-1.74-2.15c0,1.46,0,2.72,0,3.99c0,0.65-0.03,1.3,0.01,1.95c0.03,0.5-0.27,0.43-0.58,0.43
				c-0.31,0-0.58,0.04-0.57-0.44c0.02-2.56,0.01-5.12,0.01-7.67c0-0.16-0.07-0.4,0.17-0.42c0.33-0.04,0.66-0.09,0.93,0.26
				c0.84,1.1,1.72,2.17,2.58,3.26c0.75,0.94,1.5,1.88,2.25,2.82C140.48,47.47,140.52,47.45,140.57,47.43z"/>
			<path class="st50" d="M158.36,49.61c-0.88,0.26-1.47,0.03-1.81-0.78c-0.11-0.28-0.32-0.51-0.48-0.77c-0.9-1.43-0.9-1.41-2.57-1.4
				c-0.43,0-0.5,0.15-0.49,0.53c0.03,0.69-0.02,1.39,0.02,2.08c0.03,0.57-0.37,0.39-0.65,0.42c-0.32,0.03-0.51,0-0.51-0.42
				c0.02-2.56,0.01-5.11,0.01-7.67c0-0.19-0.09-0.47,0.27-0.46c1.28,0.04,2.56-0.12,3.83,0.09c1.07,0.17,1.93,1.12,2.13,2.26
				c0.18,1.1-0.33,2.26-1.28,2.76c-0.37,0.19-0.41,0.3-0.17,0.65C157.23,47.77,157.77,48.68,158.36,49.61z"/>
			<path class="st50" d="M102.64,19.27c0-1.24,0.02-2.47-0.01-3.7c-0.01-0.48,0.16-0.57,0.59-0.55c0.76,0.03,1.52,0,2.28,0.01
				c2.64,0.02,4.23,1.63,4.22,4.27c-0.01,2.21-1.11,3.74-3.15,4.15c-1.21,0.25-2.46,0.05-3.7,0.08c-0.34,0.01-0.23-0.26-0.23-0.42
				C102.64,21.82,102.64,20.55,102.64,19.27z"/>
			<path class="st50" d="M176.09,19.26c0-1.26,0-2.52,0-3.77c0-0.19-0.11-0.47,0.26-0.46c1.26,0.03,2.53-0.14,3.76,0.11
				c1.86,0.37,2.96,1.81,3.05,3.91c0.14,3.16-2.02,4.63-4.25,4.5c-0.8-0.05-1.61-0.02-2.41,0c-0.35,0.01-0.43-0.11-0.43-0.44
				C176.1,21.82,176.09,20.54,176.09,19.26z"/>
			<path class="st50" d="M137.25,23.46c-0.86,0.23-1.47,0.05-1.81-0.78c-0.11-0.28-0.32-0.51-0.48-0.77c-0.9-1.43-0.9-1.42-2.57-1.4
				c-0.43,0-0.5,0.16-0.48,0.53c0.02,0.69-0.02,1.39,0.01,2.08c0.03,0.59-0.38,0.37-0.66,0.41c-0.31,0.04-0.51,0.01-0.51-0.42
				c0.02-2.56,0.02-5.11,0-7.67c0-0.36,0.13-0.43,0.45-0.43c1.06,0.02,2.12-0.01,3.19,0.01c1.29,0.03,2.22,0.84,2.55,2.17
				c0.28,1.13-0.23,2.36-1.29,2.92c-0.36,0.19-0.33,0.31-0.14,0.6C136.12,21.62,136.67,22.54,137.25,23.46z"/>
			<path class="st50" d="M124.89,49.63c-0.85,0.26-1.37-0.05-1.74-0.8c-0.28-0.58-0.71-1.09-1.02-1.66c-0.22-0.4-0.5-0.51-0.94-0.51
				c-1.58,0.02-1.58,0.01-1.58,1.58c0,0.26-0.03,0.53,0.01,0.78c0.08,0.55-0.14,0.71-0.68,0.68c-0.37-0.02-0.48-0.13-0.47-0.49
				c0.01-2.54,0.01-5.08,0-7.61c0-0.37,0.11-0.49,0.48-0.48c0.95,0.02,1.91,0,2.86,0.01c1.4,0.01,2.44,0.75,2.79,1.98
				c0.38,1.29-0.08,2.45-1.32,3.19c-0.35,0.21-0.18,0.36-0.06,0.55c0.56,0.9,1.12,1.8,1.67,2.7
				C124.92,49.57,124.9,49.6,124.89,49.63z"/>
			<path class="st50" d="M144.18,45.34c0-1.24,0.02-2.47-0.01-3.71c-0.01-0.41,0.12-0.51,0.51-0.5c1.56,0.02,3.12,0.03,4.68,0
				c0.47-0.01,0.51,0.19,0.53,0.58c0.01,0.42-0.15,0.51-0.53,0.5c-1.15-0.02-2.3,0.02-3.45-0.02c-0.51-0.02-0.64,0.15-0.6,0.62
				c0.04,0.52,0.04,1.04,0,1.56c-0.04,0.45,0.15,0.53,0.55,0.52c0.98-0.03,1.95,0.01,2.93-0.02c0.35-0.01,0.49,0.07,0.48,0.46
				c0,0.36-0.09,0.48-0.47,0.47c-1.02-0.03-2.04,0.01-3.06-0.02c-0.35-0.01-0.44,0.1-0.43,0.44c0.02,0.67,0.03,1.34,0,2.02
				c-0.01,0.35,0.11,0.44,0.45,0.43c1.24-0.02,2.47,0.01,3.71-0.02c0.43-0.01,0.49,0.15,0.5,0.53c0,0.38-0.08,0.53-0.5,0.52
				c-1.6-0.03-3.21-0.03-4.81,0c-0.44,0.01-0.49-0.16-0.48-0.53C144.19,47.89,144.18,46.61,144.18,45.34z"/>
			<path class="st53" d="M162.84,41.12c0.98-0.04,1.77,0.26,2.53,0.71c0.52,0.31,0.13,0.56,0.02,0.84
				c-0.15,0.39-0.35,0.22-0.58,0.07c-0.9-0.59-1.87-0.76-2.91-0.47c-0.56,0.16-0.86,0.57-0.91,1.13c-0.05,0.58,0.27,0.95,0.79,1.12
				c0.68,0.22,1.37,0.38,2.05,0.58c0.33,0.1,0.66,0.2,0.98,0.34c0.98,0.45,1.35,1.15,1.24,2.32c-0.08,0.9-0.8,1.66-1.87,1.9
				c-1.53,0.34-2.96,0.07-4.28-0.77c-0.15-0.1-0.42-0.18-0.34-0.41c0.1-0.28,0.25-0.56,0.45-0.78c0.11-0.12,0.25,0.11,0.36,0.19
				c1,0.71,2.1,0.99,3.31,0.79c0.73-0.12,1.16-0.5,1.2-1.08c0.04-0.63-0.33-1.02-0.89-1.21c-0.63-0.22-1.28-0.39-1.92-0.58
				c-0.25-0.07-0.5-0.14-0.74-0.23c-1.07-0.4-1.5-0.93-1.52-1.86c-0.02-1.11,0.52-1.95,1.52-2.34
				C161.84,41.18,162.37,41.06,162.84,41.12z"/>
			<path class="st50" d="M115.08,21.49c1.15,0.86,2.37,1.33,3.79,1.01c0.55-0.12,0.97-0.39,1.04-1c0.07-0.61-0.25-0.98-0.77-1.22
				c-0.53-0.25-1.11-0.36-1.66-0.52c-0.37-0.11-0.75-0.2-1.12-0.33c-0.8-0.28-1.41-0.74-1.48-1.69c-0.07-1.08,0.3-1.94,1.3-2.4
				c1.47-0.67,2.9-0.48,4.26,0.37c0.58,0.36,0.04,0.61-0.06,0.89c-0.15,0.42-0.34,0.11-0.52,0c-0.88-0.56-1.82-0.77-2.85-0.49
				c-0.59,0.16-0.92,0.54-0.98,1.15c-0.06,0.63,0.32,0.98,0.84,1.16c0.55,0.19,1.13,0.3,1.69,0.45c0.33,0.09,0.67,0.18,0.99,0.3
				c1.16,0.44,1.63,1.14,1.56,2.32c-0.06,0.95-0.78,1.77-1.83,2.02c-1.34,0.31-2.62,0.15-3.84-0.47
				C114.44,22.51,114.45,22.5,115.08,21.49z"/>
			<path class="st50" d="M168.4,19.24c0-1.24,0.01-2.47-0.01-3.71c-0.01-0.37,0.05-0.53,0.48-0.52c1.58,0.03,3.17,0.03,4.75,0
				c0.44-0.01,0.48,0.18,0.49,0.54c0.01,0.38-0.13,0.48-0.49,0.48c-1.19-0.02-2.39,0.01-3.58-0.02c-0.4-0.01-0.53,0.11-0.51,0.51
				c0.03,0.56,0.03,1.13,0,1.69c-0.02,0.39,0.08,0.53,0.5,0.51c1-0.03,1.99,0.01,2.99-0.02c0.38-0.01,0.47,0.11,0.47,0.48
				c-0.01,0.34-0.06,0.5-0.46,0.49c-1-0.03-2,0.01-2.99-0.02c-0.41-0.01-0.53,0.12-0.51,0.52c0.03,0.63,0.03,1.26,0,1.89
				c-0.02,0.38,0.13,0.47,0.48,0.46c1.21-0.02,2.43,0,3.64-0.01c0.38-0.01,0.59,0.04,0.59,0.51c0.01,0.47-0.19,0.52-0.57,0.51
				c-1.58-0.02-3.17-0.02-4.75,0c-0.41,0.01-0.55-0.09-0.54-0.53C168.42,21.75,168.4,20.5,168.4,19.24z"/>
			<path class="st50" d="M102.64,45.42c0-1.26,0.02-2.51-0.01-3.77c-0.01-0.44,0.14-0.54,0.55-0.53c0.93,0.03,1.86,0,2.79,0.01
				c1.69,0.03,2.81,1.2,2.79,2.91c-0.02,1.57-1.16,2.63-2.82,2.63c-0.58,0-1.17,0.01-1.75-0.01c-0.31-0.01-0.42,0.09-0.41,0.4
				c0.02,0.65-0.01,1.3,0.01,1.95c0.02,0.45-0.02,0.7-0.6,0.7c-0.57,0-0.56-0.25-0.55-0.66C102.66,47.85,102.64,46.63,102.64,45.42z
				"/>
			<path class="st54" d="M158.25,17.98c-0.07,0.83,0.1,1.83-0.13,2.82c-0.42,1.84-1.73,2.88-3.57,2.83
				c-1.91-0.06-3.19-1.21-3.45-3.12c-0.24-1.7-0.06-3.42-0.11-5.13c-0.02-0.54,0.4-0.32,0.65-0.35c0.26-0.03,0.51-0.06,0.5,0.36
				c-0.02,1.28,0,2.56-0.01,3.83c-0.01,0.46,0.05,0.91,0.15,1.35c0.28,1.33,1.27,2.09,2.55,1.99c1.28-0.1,2.19-1.04,2.25-2.48
				c0.06-1.49,0.05-2.99,0.02-4.48c-0.01-0.52,0.19-0.58,0.64-0.6c0.52-0.02,0.54,0.22,0.53,0.61
				C158.23,16.35,158.25,17.09,158.25,17.98z"/>
			<path class="st50" d="M110.21,36.6c0.56-1.37,1.11-2.72,1.67-4.07c0.56-1.36,1.13-2.71,1.66-4.07c0.12-0.31,0.29-0.39,0.58-0.37
				c0.27,0.02,0.52-0.05,0.68,0.32c1.09,2.72,2.21,5.42,3.32,8.14c-1.11,0.24-1.14,0.22-1.54-0.76c-0.65-1.62-0.65-1.62-2.45-1.62
				c-1.74,0-1.74,0-2.36,1.57C111.39,36.73,111.39,36.73,110.21,36.6z"/>
			<path class="st50" d="M144.51,36.64c-0.47,0.14-0.65-0.14-0.78-0.53c-0.17-0.47-0.4-0.91-0.55-1.38c-0.13-0.4-0.3-0.59-0.77-0.56
				c-0.84,0.05-1.69,0.03-2.54,0c-0.34-0.01-0.5,0.11-0.61,0.42c-0.19,0.55-0.42,1.09-0.64,1.63c-0.15,0.36-0.94,0.63-1.23,0.41
				c-0.23-0.17-0.01-0.36,0.05-0.51c0.87-2.16,1.76-4.32,2.65-6.47c0.14-0.34,0.31-0.67,0.42-1.02c0.12-0.37,0.28-0.55,0.72-0.55
				c0.43,0,0.54,0.2,0.67,0.53c1.01,2.48,2.02,4.95,3.05,7.42C145.14,36.5,145.15,36.78,144.51,36.64z"/>
			<path class="st54" d="M119.66,32.31c0-1.23,0.01-2.47-0.01-3.7c-0.01-0.38,0.08-0.53,0.5-0.52c1.06,0.03,2.12-0.01,3.19,0.01
				c1.41,0.03,2.51,1.32,2.48,2.87c-0.03,1.47-1.11,2.58-2.51,2.59c-0.69,0-1.39,0.02-2.08-0.01c-0.35-0.01-0.45,0.11-0.44,0.44
				c0.02,0.74-0.02,1.47,0.01,2.21c0.02,0.47-0.24,0.46-0.57,0.46c-0.32,0-0.59,0.03-0.58-0.45
				C119.68,34.91,119.66,33.61,119.66,32.31z"/>
			<path class="st50" d="M109.03,49.65c0.48-1.19,0.96-2.37,1.44-3.54c0.63-1.54,1.28-3.07,1.89-4.61c0.14-0.35,0.35-0.37,0.65-0.37
				c0.29,0,0.47,0.04,0.6,0.35c1.06,2.64,2.15,5.28,3.23,7.91c0.03,0.08,0.03,0.17,0.04,0.25c-1.12,0.11-1.11,0.11-1.51-0.86
				c-0.21-0.52-0.31-1.26-0.7-1.48c-0.46-0.26-1.18-0.09-1.78-0.09c-1.66,0-1.66,0-2.26,1.52
				C110.21,49.75,110.21,49.75,109.03,49.65z"/>
			<path class="st53" d="M103.24,32.41c0.01,0.95,0.34,1.78,1.01,2.45c1.18,1.18,3.07,1.07,4.01-0.31c0.39-0.56,0.64-0.18,0.94-0.04
				c0.44,0.21,0.13,0.47,0,0.68c-0.77,1.15-2.63,1.78-4.06,1.38c-1.73-0.49-2.98-2.18-3.07-4.15c-0.08-1.82,1.01-3.52,2.66-4.15
				c1.58-0.6,3.43-0.1,4.31,1.17c0.17,0.25,0.43,0.49-0.04,0.71c-0.29,0.14-0.48,0.5-0.84-0.04c-1.13-1.67-3.72-1.28-4.6,0.66
				C103.33,31.29,103.25,31.85,103.24,32.41z"/>
			<path class="st55" d="M133.25,32.9c0-1.11-0.01-2.21,0.01-3.32c0.01-0.36-0.09-0.49-0.47-0.47c-0.65,0.03-1.3-0.01-1.95,0.02
				c-0.39,0.02-0.52-0.1-0.53-0.5c0-0.43,0.13-0.55,0.55-0.54c1.97,0.02,3.95,0.02,5.92,0c0.41,0,0.52,0.12,0.5,0.51
				c-0.01,0.35-0.02,0.57-0.48,0.54c-0.63-0.04-1.26,0.02-1.89-0.02c-0.44-0.03-0.54,0.12-0.53,0.54c0.02,2.13,0,4.25,0.02,6.38
				c0,0.45-0.06,0.65-0.59,0.64c-0.53,0-0.6-0.19-0.59-0.65C133.28,34.99,133.25,33.94,133.25,32.9z"/>
			<path class="st56" d="M128.83,45.9c0-1.04-0.03-2.08,0.01-3.12c0.02-0.51-0.16-0.62-0.63-0.6c-0.63,0.04-1.26-0.01-1.88,0.02
				c-0.43,0.02-0.43-0.22-0.42-0.53c0.01-0.29-0.05-0.56,0.41-0.55c2.06,0.02,4.12,0.02,6.18,0c0.49,0,0.35,0.32,0.37,0.57
				c0.01,0.25,0.07,0.52-0.36,0.5c-0.67-0.03-1.34,0.02-2.01-0.02c-0.41-0.02-0.51,0.12-0.5,0.51c0.02,2.15-0.01,4.29,0.02,6.44
				c0.01,0.47-0.14,0.58-0.58,0.57c-0.42-0.01-0.62-0.06-0.6-0.56C128.85,48.07,128.83,46.98,128.83,45.9z"/>
			<path class="st50" d="M162.68,19.82c0-1.08-0.02-2.17,0.01-3.25c0.01-0.41-0.08-0.58-0.53-0.55c-0.65,0.04-1.3-0.01-1.95,0.02
				c-0.39,0.02-0.43-0.17-0.4-0.47c0.02-0.26-0.1-0.56,0.38-0.55c2.06,0.02,4.12,0.02,6.18,0c0.47,0,0.37,0.28,0.39,0.55
				c0.02,0.31-0.05,0.48-0.42,0.46c-0.65-0.03-1.3,0.02-1.95-0.02c-0.47-0.03-0.57,0.15-0.57,0.59c0.02,2.08,0.01,4.16,0.01,6.24
				c0,0.41,0.06,0.71-0.56,0.72c-0.65,0-0.61-0.31-0.6-0.75C162.7,21.81,162.68,20.82,162.68,19.82z"/>
			<path class="st50" d="M126.21,19.78c0,1.04-0.02,2.08,0.01,3.12c0.01,0.43-0.03,0.64-0.57,0.65c-0.57,0.01-0.61-0.23-0.6-0.68
				c0.02-2.08-0.01-4.16,0.02-6.24c0.01-0.48-0.1-0.65-0.6-0.62c-0.65,0.05-1.3-0.01-1.95,0.02c-0.42,0.02-0.38-0.23-0.38-0.5
				c0-0.25-0.07-0.52,0.36-0.52c2.1,0.01,4.21,0.01,6.31,0c0.45,0,0.3,0.32,0.32,0.55c0.02,0.24,0.04,0.48-0.34,0.46
				c-0.69-0.02-1.39,0.02-2.08-0.01c-0.42-0.02-0.51,0.13-0.5,0.52C126.22,17.62,126.21,18.7,126.21,19.78z"/>
			<path class="st57" d="M146.69,32.38c0-1.24,0.02-2.47-0.01-3.71c-0.01-0.45,0.1-0.6,0.57-0.59c0.44,0.01,0.59,0.1,0.59,0.57
				c-0.03,2.12,0,4.25-0.02,6.37c0,0.45,0.11,0.59,0.57,0.58c1.24-0.03,2.47,0.01,3.71-0.02c0.45-0.01,0.48,0.19,0.48,0.54
				c0,0.37-0.06,0.55-0.49,0.54c-1.63-0.02-3.25-0.03-4.88,0c-0.47,0.01-0.53-0.19-0.52-0.58C146.7,34.85,146.69,33.61,146.69,32.38
				z"/>
			<path class="st58" d="M94.38,59.01c0-18.19,0-36.37,0-54.56c0.05,0,0.1,0,0.15,0c0,18.19,0,36.37,0,54.56
				C94.48,59.01,94.43,59.01,94.38,59.01z"/>
			<path class="st57" d="M128.69,32.37c0,1.26-0.02,2.51,0.01,3.77c0.01,0.45-0.15,0.55-0.56,0.52c-0.34-0.02-0.61,0.03-0.61-0.49
				c0.03-2.53,0.03-5.07,0-7.6c-0.01-0.53,0.28-0.46,0.61-0.48c0.39-0.03,0.57,0.05,0.56,0.51
				C128.67,29.85,128.69,31.11,128.69,32.37z"/>
			<path class="st56" d="M111.64,19.29c0-1.24,0.02-2.47-0.01-3.71c-0.01-0.46,0.12-0.59,0.57-0.58c0.42,0.01,0.61,0.06,0.6,0.55
				c-0.03,2.47-0.03,4.95,0,7.42c0,0.46-0.13,0.56-0.57,0.57c-0.49,0.01-0.62-0.12-0.61-0.61
				C111.66,21.72,111.64,20.51,111.64,19.29z"/>
			<path class="st53" d="M140.19,19.33c0,1.23-0.02,2.47,0.01,3.7c0.01,0.48-0.19,0.52-0.57,0.5c-0.34-0.01-0.6,0.03-0.59-0.48
				c0.03-2.51,0.03-5.02,0-7.53c0-0.46,0.18-0.53,0.57-0.52c0.35,0.01,0.61-0.01,0.59,0.49C140.17,16.78,140.19,18.06,140.19,19.33z
				"/>
			<path class="st3" d="M50.55,36.18c-1.86,0-3.73,0-5.59,0c-0.67,0.37-1.39,0.14-2.08,0.18c-0.44,0.02-0.91,0.11-1.3-0.2
				c0.15-0.26,0.09-0.55,0.1-0.82c0.02-2.67,0.03-5.34,0.04-8.01c0,0-0.01-0.02-0.01-0.02c0.23-0.2,0.52-0.19,0.8-0.19
				c2.39-0.01,4.79,0,7.18,0c0.31,0,0.6,0.04,0.87,0.19c2.95,0.01,5.9,0.02,8.85,0.02c0.01,2.8,0,5.6,0.03,8.39
				c0.01,0.53-0.29,0.47-0.62,0.47C56.06,36.17,53.31,36.18,50.55,36.18z"/>
			<path class="st45" d="M59.52,27.28c0-2.94,0.01-5.88,0.01-8.82c2.74,2.71,5.47,5.43,8.22,8.13c0.22,0.22,0.33,0.66,0.79,0.56
				c0.3-0.24,0.66-0.18,1-0.18c2.21-0.01,4.42,0,6.63,0c0.84,0,0.87-0.04,0.88-0.88c0-2.17,0-4.33,0-6.5c0-0.89-0.03-0.92-0.9-0.92
				c-2.21,0-4.42,0-6.63,0c-0.34,0-0.7,0.04-0.99-0.21c-0.04-0.05-0.07-0.09-0.11-0.14c0.25-0.22,0.57-0.19,0.87-0.19
				c2.34-0.01,4.68,0.01,7.02-0.01c0.37,0,0.71,0.21,1.08,0.09c0.04-0.01,0.09-0.01,0.13,0c0.05,0.02,0.06,0.05,0.05,0.07
				c-0.02,0.02-0.03,0.03-0.05,0.03c0,0.06-0.01,0.11-0.01,0.17c0.16,1.03,0.08,2.07,0.08,3.11c0.01,1.6,0.01,3.2,0,4.81
				c0,0.32,0.03,0.66-0.22,0.92c0,0,0-0.01,0-0.01c-0.05,0.01-0.09,0.03-0.14,0.04c-0.32,0.17-0.66,0.18-1.01,0.18
				c-2.29,0-4.57,0-6.86,0c-0.34,0-0.7,0.04-0.99-0.21c-2.21,2.19-4.41,4.37-6.62,6.56c-0.17,0.17-0.35,0.32-0.52,0.48
				c-0.4,0.02-0.54,0.39-0.81,0.6c-0.12,0.09-0.23,0.22-0.4,0.12c-0.14-0.08-0.11-0.22-0.11-0.35c0-2.07,0-4.14-0.01-6.22
				c0-0.25,0.17-0.38,0.24-0.58c0.04-0.1,0.08-0.28-0.15-0.24c-0.02,0-0.45-0.08-0.09,0.19c0.11,0.08-0.07,0.12-0.13,0.14
				c-0.13,0.04-0.21-0.05-0.23-0.16C59.52,27.66,59.68,27.46,59.52,27.28z"/>
			<path class="st45" d="M59.81,35.78c-0.04,0.04-0.08,0.08-0.12,0.12c-0.18-0.11-0.1-0.24-0.02-0.36c0.02-0.03,0.06-0.04,0.09-0.06
				C59.77,35.59,59.79,35.68,59.81,35.78z"/>
			<path class="st51" d="M58.72,36.51c-0.03-0.02-0.09-0.05-0.12-0.09c-0.05-0.08,0.03-0.11,0.09-0.1c0.05,0.01,0.12,0.04,0.14,0.08
				C58.87,36.46,58.82,36.5,58.72,36.51z"/>
			<path class="st45" d="M14.77,36.13c2.94,0.07,5.89,0.07,8.83-0.01c0.87-1.13,1.97-2.05,2.97-3.07c1.62-1.65,3.26-3.27,4.9-4.9
				c0.29-0.29,0.48-0.74,1-0.72c0,0,0.02,0.01,0.02,0.01c0.04,0.38,0.1,0.76,0.1,1.14c0.01,4.67,0.01,9.35,0,14.02
				c0,0.29,0.06,0.59-0.26,0.81c-0.19,0.13-0.11,0.41,0.01,0.52c0.31,0.3,0.12,0.63,0.12,0.94c-1.17-1.15-2.35-2.3-3.52-3.46
				c-1.57-1.56-3.12-3.13-4.69-4.68c-0.17-0.17-0.3-0.38-0.55-0.44c-0.25,0.24-0.56,0.2-0.86,0.2c-2.36,0.01-4.72,0.01-7.08,0
				c-0.3,0-0.61,0.03-0.87-0.19C14.85,36.25,14.81,36.19,14.77,36.13z"/>
			<path class="st46" d="M41.45,36.3c-2.87,2.86-5.73,5.73-8.6,8.59c-0.19-0.11-0.14-0.3-0.14-0.47c0-5.57,0-11.14,0-16.71
				c0-0.06,0.02-0.12,0.04-0.18c0.22-0.01,0.3,0.17,0.42,0.28c2.64,2.63,5.27,5.27,7.91,7.91C41.24,35.89,41.47,36.02,41.45,36.3z"
				/>
			<path class="st47" d="M41.57,36.15c1.13,0.01,2.26,0.02,3.38,0.03c0.21,0.18,0.46,0.1,0.69,0.1c1.55,0.01,3.11,0,4.65,0
				c0.07,0.21-0.08,0.27-0.16,0.36c-2.71,2.71-5.42,5.42-8.13,8.13c-0.09,0.09-0.2,0.16-0.3,0.24c-0.2-0.4-0.14-0.85-0.1-1.25
				c0.22-2.33,0.03-4.65,0.09-6.98c0-0.16-0.08-0.33-0.12-0.49C41.57,36.24,41.57,36.2,41.57,36.15z"/>
			<path class="st3" d="M14.89,36.3c2.94,0,5.87-0.01,8.81-0.01c0,2.89,0,5.79,0,8.68c-0.73,0.13-1.47,0.05-2.2,0.05
				c-2.21,0.01-4.42,0-6.63-0.01C14.88,42.11,14.88,39.21,14.89,36.3z"/>
			<path class="st50" d="M77.38,18.19c-0.12,0.19-0.31,0.11-0.47,0.11c-2.83,0-5.66,0-8.5,0c0.01-2.95,0.01-5.89,0.02-8.84
				c2.76,2.75,5.52,5.5,8.28,8.25C76.91,17.91,77.06,18.18,77.38,18.19z"/>
			<path class="st48" d="M77.51,18.3c0.01-0.03,0.01-0.07,0-0.1c0.65-0.63,1.31-1.25,1.95-1.89c2.1-2.09,4.19-4.19,6.29-6.28
				c0.15-0.15,0.32-0.28,0.49-0.42c0.01,2.77,0.02,5.55,0.04,8.32c0,0.32-0.14,0.4-0.43,0.4C83.06,18.31,80.29,18.3,77.51,18.3z"/>
			<path class="st50" d="M68.39,27.3c2.95,0.01,5.9,0.02,8.85,0.03c-1.55,1.57-3.1,3.14-4.66,4.7c-1.38,1.38-2.76,2.74-4.15,4.11
				c-0.01-2.3-0.03-4.59-0.04-6.89C68.39,28.61,68.39,27.95,68.39,27.3z"/>
			<path class="st3" d="M68.52,18.44c2.73,0,5.46,0,8.19-0.02c0.42,0,0.55,0.12,0.55,0.55c-0.02,2.55-0.02,5.11,0,7.66
				c0,0.48-0.16,0.57-0.59,0.56c-2.71-0.03-5.41-0.03-8.12-0.05C68.53,24.25,68.53,21.35,68.52,18.44z"/>
			<path class="st47" d="M14.89,53.87c-0.28-0.35,0-0.71,0-1.06c-0.02-2.12,0-4.24-0.02-6.36c0-0.4-0.03-0.81-0.23-1.17
				c0.13-0.17,0.31-0.12,0.48-0.12c2.82,0,5.64,0,8.46,0.01c-0.28,0.3-0.54,0.61-0.83,0.9c-2.44,2.45-4.89,4.89-7.34,7.33
				C15.25,53.56,15.06,53.72,14.89,53.87z"/>
			<path class="st50" d="M50.55,27.28c-2.95,0-5.9,0-8.85,0.01c0-2.9,0-5.8,0-8.73c0.3,0.01,0.42,0.24,0.57,0.39
				c2.59,2.58,5.18,5.17,7.76,7.75c0.17,0.17,0.36,0.31,0.53,0.47C50.56,27.21,50.55,27.25,50.55,27.28z"/>
			<path class="st47" d="M77.37,27.3c0-2.73,0-5.45,0-8.18c0-0.22-0.11-0.48,0.13-0.66c2.82,2.83,5.65,5.66,8.47,8.49
				c0.1,0.1,0.28,0.16,0.22,0.36C83.25,27.31,80.31,27.3,77.37,27.3z"/>
			<path class="st47" d="M32.46,27.44c-1.75,1.74-3.5,3.47-5.25,5.21c-1.13,1.13-2.25,2.27-3.38,3.4c-0.05,0.05-0.15,0.05-0.23,0.08
				c-0.02-0.3-0.27-0.43-0.45-0.61c-2.66-2.63-5.24-5.34-7.97-7.91c-0.08-0.07-0.12-0.18-0.17-0.27c5.51-0.01,11.02-0.03,16.53-0.02
				C31.85,27.31,32.19,27.15,32.46,27.44z"/>
			<path class="st59" d="M145.5,19.72c0.39,0,0.78-0.01,1.17,0c0.8,0.02,1.32,0.53,1.38,1.33c0.05,0.71-0.46,1.35-1.19,1.45
				c-0.9,0.13-1.81,0.02-2.72,0.06c-0.3,0.01-0.36-0.14-0.35-0.39c0.01-0.69,0.02-1.38,0-2.08c-0.01-0.34,0.13-0.4,0.42-0.38
				C144.63,19.74,145.07,19.72,145.5,19.72z"/>
			<path class="st60" d="M145.26,18.74c-0.41-0.06-1.09,0.23-1.39-0.12c-0.25-0.3-0.08-0.95-0.09-1.45c-0.01-1.15,0-1.15,1.15-1.15
				c0.52,0,1.04-0.02,1.56,0.01c0.76,0.04,1.23,0.6,1.21,1.4c-0.02,0.75-0.52,1.28-1.24,1.31C146.1,18.75,145.73,18.74,145.26,18.74
				z"/>
			<path class="st3" d="M153.05,43.91c0.02-0.55-0.29-1.28,0.08-1.62c0.37-0.33,1.08-0.09,1.64-0.09c1.33-0.01,1.79,0.26,2.09,1.19
				c0.38,1.18-0.38,2.26-1.62,2.28c-0.15,0-0.3,0.01-0.46,0c-0.58-0.04-1.35,0.25-1.68-0.12C152.83,45.23,153.05,44.47,153.05,43.91
				z"/>
			<path class="st3" d="M103.79,19.3c0-0.93,0.01-1.86-0.01-2.79c-0.01-0.34,0.06-0.52,0.46-0.49c0.79,0.04,1.6-0.06,2.38,0.2
				c0.81,0.26,1.39,0.79,1.67,1.59c0.4,1.1,0.38,2.21-0.15,3.27c-0.43,0.86-1.16,1.33-2.1,1.42c-0.62,0.06-1.25,0.01-1.88,0.04
				c-0.35,0.02-0.38-0.16-0.38-0.43C103.79,21.16,103.79,20.23,103.79,19.3z"/>
			<path class="st3" d="M178.44,22.52c-1.21,0-1.21,0-1.21-1.21c0-1.58,0.02-3.16-0.01-4.75c-0.01-0.44,0.13-0.55,0.55-0.54
				c0.71,0.02,1.44-0.04,2.13,0.13c1.39,0.35,2.24,1.73,2.1,3.31C181.8,21.69,180.84,22.52,178.44,22.52z"/>
			<path class="st3" d="M131.96,17.79c0-0.56-0.22-1.43,0.05-1.62c0.55-0.39,1.37-0.14,2.08-0.13c1.33,0.01,2.1,1.18,1.65,2.42
				c-0.25,0.68-0.74,1.03-1.48,1.03c-0.63,0-1.26-0.02-1.88,0.01c-0.39,0.02-0.48-0.13-0.46-0.48c0.03-0.41,0.01-0.82,0.01-1.23
				C131.93,17.79,131.95,17.79,131.96,17.79z"/>
			<path class="st60" d="M119.6,43.95c0.09-0.59-0.23-1.3,0.15-1.66c0.34-0.32,1.03-0.08,1.57-0.09c0.51-0.01,1.05-0.08,1.51,0.24
				c0.62,0.43,0.89,1.31,0.65,2.09c-0.23,0.75-0.76,1.11-1.62,1.13c-0.15,0-0.3,0.01-0.46,0c-0.58-0.04-1.34,0.25-1.68-0.12
				C119.44,45.22,119.62,44.47,119.6,43.95z"/>
			<path class="st3" d="M103.83,43.89c0-0.54-0.22-1.35,0.05-1.56c0.47-0.38,1.24-0.07,1.88-0.14c1.48-0.17,2.16,1.31,1.73,2.45
				c-0.25,0.64-0.7,0.98-1.36,1.01c-0.65,0.03-1.3-0.01-1.95,0.01c-0.33,0.01-0.41-0.11-0.39-0.41c0.02-0.45,0.01-0.91,0.01-1.37
				C103.8,43.89,103.82,43.89,103.83,43.89z"/>
			<path class="st61" d="M112.66,33.25c0.51-1.28,0.99-2.47,1.51-3.77c0.47,1.2,0.92,2.33,1.36,3.45c0.11,0.29-0.06,0.32-0.29,0.32
				C114.41,33.24,113.59,33.25,112.66,33.25z"/>
			<path class="st6" d="M141.21,29.48c0.47,1.21,0.87,2.25,1.29,3.29c0.14,0.34,0.16,0.51-0.3,0.49c-0.69-0.03-1.39-0.01-2.08-0.01
				c-0.24,0-0.46,0.02-0.31-0.34C140.26,31.82,140.7,30.73,141.21,29.48z"/>
			<path class="st62" d="M120.79,30.69c0.05-0.44-0.23-1.14,0.1-1.46c0.36-0.34,1.07-0.1,1.62-0.11c1.3-0.02,1.81,0.29,2.08,1.19
				c0.36,1.2-0.38,2.22-1.63,2.23c-0.52,0-1.04-0.04-1.56,0.01c-0.54,0.05-0.67-0.17-0.63-0.66
				C120.82,31.53,120.79,31.16,120.79,30.69z"/>
			<path class="st60" d="M112.99,42.54c0.51,1.32,0.97,2.51,1.46,3.76c-1.02,0-1.94,0-2.96,0
				C111.97,45.06,112.46,43.86,112.99,42.54z"/>
		</g>
	</g>
</g>
</svg>
