<svg width="151" height="70" viewBox="0 0 151 70" fill="none" xmlns="http://www.w3.org/2000/svg">
<rect width="150.206" height="70" rx="7.77778" fill="white"/>
<path d="M15.3226 30.8759C14.917 30.8759 14.6691 30.5968 14.6691 30.2014V29.5268H14.0156C13.61 29.5268 13.3621 29.2477 13.3621 28.8523V28.1777H6.78223V41.7154H13.3621V41.0409C13.3621 40.6454 13.6325 40.3663 14.0156 40.3663H14.6691V39.6917C14.6691 39.2963 14.9395 39.0172 15.3226 39.0172H15.9761V30.8759H15.3226ZM14.6691 31.5505V38.3194C14.6691 38.7148 14.3987 38.9939 14.0156 38.9939H13.3621V39.6685C13.3621 40.0639 13.0917 40.343 12.7086 40.343H8.74268C8.33707 40.343 8.08919 40.0639 8.08919 39.6685V30.1781C8.08919 29.7827 8.3596 29.5036 8.74268 29.5036H12.6861C13.0917 29.5036 13.3396 29.7827 13.3396 30.1781V30.8527H13.9931C14.3987 30.8759 14.6691 31.1318 14.6691 31.5505ZM17.9816 28.1544V41.7154H19.2886V28.1544H17.9816ZM29.2035 28.1544V30.1781C29.2035 30.5735 28.9331 30.8527 28.55 30.8527H27.8965V34.2487C27.8965 34.6442 27.6261 34.9233 27.243 34.9233H26.5895V38.3194C26.5895 38.7148 26.3191 38.9939 25.9361 38.9939C25.5305 38.9939 25.2826 38.7148 25.2826 38.3194V34.9233H24.6291C24.2235 34.9233 23.9756 34.6442 23.9756 34.2487V30.8527H23.3221C22.9165 30.8527 22.6686 30.5735 22.6686 30.1781V28.1544H21.3617V30.8759H22.0152C22.4208 30.8759 22.6686 31.1551 22.6686 31.5505V34.9466H23.3221C23.7277 34.9466 23.9756 35.2257 23.9756 35.6211V39.0172H24.6291C25.0347 39.0172 25.2826 39.2963 25.2826 39.6917V41.7154H26.5895V39.6917C26.5895 39.2963 26.86 39.0172 27.243 39.0172H27.8965V35.6211C27.8965 35.2257 28.1669 34.9466 28.55 34.9466H29.2035V31.5505C29.2035 31.1551 29.4739 30.8759 29.857 30.8759H30.5104V28.1544H29.2035ZM33.8455 32.8996V30.1781C33.8455 29.7827 34.1159 29.5036 34.499 29.5036H40.4254V28.1544H32.516V41.7154H40.4254V40.3663H34.499C34.0933 40.3663 33.8455 40.0872 33.8455 39.6917V35.6211C33.8455 35.2257 34.1159 34.9466 34.499 34.9466H39.1184V33.5742H34.499C34.1159 33.5742 33.8455 33.3183 33.8455 32.8996ZM49.6868 29.5036C49.2812 29.5036 49.0333 29.2244 49.0333 28.829V28.1544H42.4534V41.7154H43.7604V36.9702C43.7604 36.5748 44.0308 36.2957 44.4139 36.2957H45.7208C46.1265 36.2957 46.3743 36.5748 46.3743 36.9702V37.6448H47.0278C47.4334 37.6448 47.6813 37.9239 47.6813 38.3194V40.343H48.3348C48.7404 40.343 48.9883 40.6222 48.9883 41.0176V41.6922H50.2952V40.343H49.6417C49.2361 40.343 48.9883 40.0639 48.9883 39.6685V37.6448H48.3348C47.9292 37.6448 47.6813 37.3657 47.6813 36.9702C47.6813 36.5748 47.9517 36.2957 48.3348 36.2957H48.9883V35.6211C48.9883 35.2257 49.2587 34.9466 49.6417 34.9466H50.2952V29.5268H49.6868V29.5036ZM49.0333 30.2014V34.272C49.0333 34.6674 48.7629 34.9466 48.3798 34.9466H44.4364C44.0308 34.9466 43.7829 34.6674 43.7829 34.272V30.2014C43.7829 29.8059 44.0533 29.5268 44.4364 29.5268H48.3798C48.7629 29.5036 49.0333 29.7827 49.0333 30.2014ZM62.8917 32.2251V30.8759H62.2382C61.8326 30.8759 61.5847 30.5968 61.5847 30.2014V29.5268H60.9312C60.5256 29.5268 60.2778 29.2477 60.2778 28.8523V28.1777H55.0048V28.8523C55.0048 29.2477 54.7344 29.5268 54.3513 29.5268H53.6979V30.2014C53.6979 30.5968 53.4274 30.8759 53.0444 30.8759H52.3909V39.0172H53.0444C53.45 39.0172 53.6979 39.2963 53.6979 39.6917V40.3663H54.3513C54.7569 40.3663 55.0048 40.6454 55.0048 41.0409V41.7154H60.2778V41.0409C60.2778 40.6454 60.5482 40.3663 60.9312 40.3663C61.3369 40.3663 61.5847 40.6454 61.5847 41.0409V41.7154H62.8917V34.9466H57.6188V36.2957H60.9087C61.3143 36.2957 61.5622 36.5748 61.5622 36.9702V38.3194C61.5622 38.7148 61.2918 38.9939 60.9087 38.9939H60.2552V39.6685C60.2552 40.0639 59.9848 40.343 59.6017 40.343H55.6583C55.2527 40.343 55.0048 40.0639 55.0048 39.6685V38.9939H54.3513C53.9457 38.9939 53.6979 38.7148 53.6979 38.3194V31.5505C53.6979 31.1551 53.9683 30.8759 54.3513 30.8759H55.0048V30.2014C55.0048 29.8059 55.2752 29.5268 55.6583 29.5268H59.6017C60.0074 29.5268 60.2552 29.8059 60.2552 30.2014V30.8759H60.9087C61.3143 30.8759 61.5622 31.1551 61.5622 31.5505V32.2251H62.8917ZM66.2042 32.8996V30.1781C66.2042 29.7827 66.4746 29.5036 66.8577 29.5036H72.7841V28.1544H64.8747V41.7154H72.7841V40.3663H66.8577C66.4521 40.3663 66.2042 40.0872 66.2042 39.6917V35.6211C66.2042 35.2257 66.4746 34.9466 66.8577 34.9466H71.4771V33.5742H66.8577C66.4746 33.5742 66.2042 33.3183 66.2042 32.8996ZM82.699 28.1544V36.9702C82.699 37.3657 82.4286 37.6448 82.0455 37.6448C81.6399 37.6448 81.3921 37.3657 81.3921 36.9702V36.2957H80.7386C80.333 36.2957 80.0851 36.0165 80.0851 35.6211V33.5742H79.4316C79.026 33.5742 78.7781 33.295 78.7781 32.8996V32.2251H78.1246C77.719 32.2251 77.4711 31.9459 77.4711 31.5505V29.5268H76.8177C76.4121 29.5268 76.1642 29.2477 76.1642 28.8523V28.1777H74.8572V41.7154H76.1642V32.8996C76.1642 32.5042 76.4346 32.2251 76.8177 32.2251C77.2007 32.2251 77.4711 32.5042 77.4711 32.8996V33.5742H78.1246C78.5302 33.5742 78.7781 33.8533 78.7781 34.2487V36.2724H79.4316C79.8372 36.2724 80.0851 36.5515 80.0851 36.947V37.6215H80.7386C81.1442 37.6215 81.3921 37.9007 81.3921 38.2961V40.3198H82.0455C82.4511 40.3198 82.699 40.5989 82.699 40.9943V41.6689H84.006V28.1079H82.699V28.1544ZM96.5574 32.2251V30.8759H95.9039C95.4983 30.8759 95.2504 30.5968 95.2504 30.2014V29.5268H94.5969C94.1913 29.5268 93.9434 29.2477 93.9434 28.8523V28.1777H88.6705V28.8523C88.6705 29.2477 88.4001 29.5268 88.017 29.5268H87.3635V30.2014C87.3635 30.5968 87.0931 30.8759 86.7101 30.8759H86.0566V39.0172H86.7101C87.1157 39.0172 87.3635 39.2963 87.3635 39.6917V40.3663H88.017C88.4226 40.3663 88.6705 40.6454 88.6705 41.0409V41.7154H93.9209V41.0409C93.9209 40.6454 94.1913 40.3663 94.5744 40.3663H95.2279V39.6917C95.2279 39.2963 95.4983 39.0172 95.8814 39.0172H96.5349V37.6681H95.2279V38.3426C95.2279 38.7381 94.9575 39.0172 94.5744 39.0172H93.9209V39.6917C93.9209 40.0872 93.6505 40.3663 93.2674 40.3663H89.324C88.9184 40.3663 88.6705 40.0872 88.6705 39.6917V39.0172H88.017C87.6114 39.0172 87.3635 38.7381 87.3635 38.3426V31.5738C87.3635 31.1783 87.6339 30.8992 88.017 30.8992H88.6705V30.2246C88.6705 29.8292 88.9409 29.5501 89.324 29.5501H93.2674C93.673 29.5501 93.9209 29.8292 93.9209 30.2246V30.8992H94.5744C94.98 30.8992 95.2279 31.1783 95.2279 31.5738V32.2483H96.5574V32.2251ZM99.8699 32.8996V30.1781C99.8699 29.7827 100.14 29.5036 100.523 29.5036H106.45V28.1544H98.5404V41.7154H106.45V40.3663H100.523C100.118 40.3663 99.8699 40.0872 99.8699 39.6917V35.6211C99.8699 35.2257 100.14 34.9466 100.523 34.9466H105.143V33.5742H100.523C100.118 33.5742 99.8699 33.3183 99.8699 32.8996Z" fill="#323232"/>
<path d="M114.251 28L112.022 34.8187H111.279L108.892 28H109.635L111.639 33.7016L113.508 28H114.251ZM115.963 34.167C116.346 34.167 116.661 34.074 116.864 33.8645C117.089 33.6551 117.224 33.4223 117.269 33.1431H118.012C117.99 33.4456 117.877 33.7249 117.674 34.0041C117.494 34.2834 117.246 34.4929 116.931 34.6558C116.638 34.8187 116.301 34.8885 115.94 34.8885C115.535 34.8885 115.152 34.7954 114.814 34.5859C114.476 34.3765 114.229 34.0972 114.026 33.7016C113.846 33.3293 113.733 32.8638 113.733 32.3518C113.733 31.8864 113.823 31.4675 114.026 31.0952C114.229 30.7228 114.476 30.4203 114.814 30.2108C115.152 30.0014 115.512 29.885 115.918 29.885C116.548 29.885 117.044 30.0945 117.427 30.5134C117.809 30.9323 118.012 31.5839 118.012 32.5147H114.499C114.522 33.05 114.657 33.4689 114.904 33.7482C115.197 34.0274 115.535 34.167 115.963 34.167ZM115.963 30.6763C115.625 30.6763 115.332 30.7694 115.085 30.9788C114.837 31.1882 114.679 31.4675 114.589 31.8399H117.291C117.224 31.4675 117.089 31.165 116.886 30.9788C116.661 30.7694 116.368 30.6763 115.963 30.6763ZM122.674 34.8187H121.931V32.282C121.931 31.7235 121.863 31.3279 121.705 31.0719C121.548 30.8159 121.3 30.6763 120.94 30.6763C120.489 30.6763 120.151 30.8392 119.881 31.1417C119.611 31.4442 119.476 31.8864 119.476 32.4915V34.8187H118.688V29.9548H119.431V30.7926C119.611 30.4901 119.836 30.2806 120.106 30.141C120.377 30.0014 120.669 29.9316 120.985 29.9316C121.593 29.9316 122.021 30.141 122.268 30.5366C122.516 30.9323 122.651 31.5373 122.651 32.3053L122.674 34.8187ZM124.25 30.6297V33.7947C124.25 33.9343 124.273 34.0041 124.318 34.0507C124.363 34.074 124.43 34.0972 124.543 34.0972H125.286V34.8187H124.543C124.228 34.8187 123.98 34.7954 123.845 34.7488C123.71 34.679 123.62 34.5859 123.574 34.4463C123.529 34.3067 123.507 34.074 123.507 33.7482V30.6297H122.854V29.9548H123.507V28.8843H124.25V29.9548H125.286V30.6297H124.25ZM130.015 29.9316V34.7954H129.272V34.0972C128.979 34.6092 128.529 34.8652 127.898 34.8652C127.268 34.8652 126.817 34.6558 126.502 34.2136C126.209 33.7714 126.052 33.1896 126.052 32.4217V29.885H126.795V32.4217C126.795 32.9569 126.907 33.3525 127.11 33.6551C127.313 33.9343 127.606 34.074 127.988 34.074C128.844 34.074 129.272 33.4689 129.272 32.2355V29.885H130.015V29.9316ZM131.524 30.8159C131.884 30.2341 132.447 29.9548 133.258 29.9548V30.7228C132.717 30.7228 132.29 30.8624 131.974 31.165C131.659 31.4442 131.501 31.8864 131.501 32.4682V34.7954H130.758V29.9316H131.501V30.8159H131.524ZM135.735 34.167C136.118 34.167 136.433 34.074 136.636 33.8645C136.861 33.6551 136.996 33.4223 137.041 33.1431H137.784C137.762 33.4456 137.649 33.7249 137.447 34.0041C137.266 34.2834 137.019 34.4929 136.703 34.6558C136.411 34.8187 136.073 34.8885 135.713 34.8885C135.307 34.8885 134.924 34.7954 134.587 34.5859C134.249 34.3765 134.001 34.0972 133.798 33.7016C133.618 33.3293 133.506 32.8638 133.506 32.3518C133.506 31.8864 133.596 31.4675 133.798 31.0952C134.001 30.7228 134.249 30.4203 134.587 30.2108C134.924 30.0014 135.285 29.885 135.69 29.885C136.321 29.885 136.816 30.0945 137.199 30.5134C137.582 30.9323 137.784 31.5839 137.784 32.5147H134.271C134.294 33.05 134.429 33.4689 134.677 33.7482C134.992 34.0274 135.33 34.167 135.735 34.167ZM135.735 30.6763C135.397 30.6763 135.105 30.7694 134.857 30.9788C134.609 31.1882 134.451 31.4675 134.361 31.8399H137.064C136.996 31.4675 136.861 31.165 136.658 30.9788C136.456 30.7694 136.14 30.6763 135.735 30.6763ZM138.257 33.2594C138.302 33.8412 138.505 34.2601 138.843 34.5161C139.203 34.7721 139.631 34.9118 140.126 34.9118C140.667 34.9118 141.117 34.7954 141.433 34.5859C141.77 34.3765 141.928 34.0041 141.928 33.5154C141.928 33.0965 141.793 32.7707 141.545 32.538C141.298 32.282 140.892 32.1191 140.329 32.0493C139.473 31.9562 139.046 31.7235 139.046 31.3279C139.046 31.0253 139.158 30.8392 139.361 30.7228C139.586 30.6065 139.834 30.5366 140.126 30.5366C140.442 30.5366 140.689 30.6297 140.87 30.7926C141.05 30.9788 141.162 31.1882 141.207 31.4442H141.906C141.86 30.909 141.68 30.5134 141.365 30.2574C141.05 29.9781 140.644 29.8385 140.126 29.8385C139.654 29.8385 139.248 29.9548 138.888 30.1643C138.528 30.3737 138.347 30.7694 138.347 31.2813C138.347 31.7002 138.46 32.0028 138.708 32.2122C138.955 32.4217 139.338 32.5613 139.856 32.6311C140.352 32.7009 140.712 32.8173 140.915 32.9569C141.117 33.0965 141.23 33.2594 141.23 33.4922C141.23 33.7714 141.14 33.9576 140.96 34.074C140.78 34.167 140.509 34.2369 140.149 34.2369C139.473 34.2369 139.091 33.9111 139.023 33.2594H138.257Z" fill="#323232"/>
</svg>
