<?xml version="1.0" encoding="utf-8"?>
<!-- Generator: Adobe Illustrator 28.3.0, SVG Export Plug-In . SVG Version: 6.00 Build 0)  -->
<svg version="1.1" id="Layer_1" xmlns="http://www.w3.org/2000/svg" xmlns:xlink="http://www.w3.org/1999/xlink" x="0px" y="0px"
	 viewBox="0 0 361.31 154.55" style="enable-background:new 0 0 361.31 154.55;" xml:space="preserve">
<style type="text/css">
	.st0{fill:#231F20;}
	.st1{fill:url(#SVGID_1_);}
	.st2{enable-background:new    ;}
	.st3{fill:#FEFEFE;}
	.st4{fill:#B2B2B2;}
	.st5{fill:#E7E7E7;}
	.st6{fill:#FCFCFC;}
	.st7{fill:#FBFBFB;}
	.st8{fill:#F9F9F9;}
	.st9{fill:#FAFAFA;}
	.st10{fill:#E9E9E9;}
	.st11{fill:#E1E1E1;}
	.st12{fill:#CECECE;}
	.st13{fill:#070707;}
	.st14{fill:#121212;}
	.st15{fill:#0A0A0A;}
	.st16{fill:#191919;}
	.st17{fill:#181818;}
	.st18{fill:#FFFFFF;}
	.st19{fill:#2D2D2D;}
	.st20{fill:url(#Vector_00000093866968022676725490000013435735862608509117_);}
	.st21{fill:url(#Vector_2_00000034068036063582583180000002923743473729603248_);}
	.st22{fill:#CFCFCF;}
	.st23{opacity:0.972;fill-rule:evenodd;clip-rule:evenodd;enable-background:new    ;}
	.st24{opacity:0.977;fill-rule:evenodd;clip-rule:evenodd;enable-background:new    ;}
	.st25{opacity:0.971;fill-rule:evenodd;clip-rule:evenodd;enable-background:new    ;}
	.st26{opacity:0.984;fill-rule:evenodd;clip-rule:evenodd;enable-background:new    ;}
	.st27{opacity:0.975;fill-rule:evenodd;clip-rule:evenodd;enable-background:new    ;}
	.st28{opacity:0.987;fill-rule:evenodd;clip-rule:evenodd;enable-background:new    ;}
	.st29{opacity:0.979;fill-rule:evenodd;clip-rule:evenodd;enable-background:new    ;}
	.st30{opacity:0.978;fill-rule:evenodd;clip-rule:evenodd;enable-background:new    ;}
	.st31{opacity:0.921;fill-rule:evenodd;clip-rule:evenodd;enable-background:new    ;}
	.st32{opacity:0.92;fill-rule:evenodd;clip-rule:evenodd;enable-background:new    ;}
	.st33{opacity:0.95;fill-rule:evenodd;clip-rule:evenodd;enable-background:new    ;}
	.st34{opacity:0.964;fill-rule:evenodd;clip-rule:evenodd;enable-background:new    ;}
	.st35{opacity:0.945;fill-rule:evenodd;clip-rule:evenodd;enable-background:new    ;}
	.st36{opacity:0.959;fill-rule:evenodd;clip-rule:evenodd;enable-background:new    ;}
	.st37{opacity:0.948;fill-rule:evenodd;clip-rule:evenodd;enable-background:new    ;}
	.st38{fill-rule:evenodd;clip-rule:evenodd;fill:#24201D;}
	.st39{fill:#24201D;}
	.st40{fill:#105AF4;}
	.st41{fill:#4393F1;}
	.st42{fill:#98C6FB;}
	.st43{fill:#90C8FD;}
	.st44{fill:#80889E;}
	.st45{fill:#80879E;}
	.st46{fill:#C5CAD6;}
	.st47{fill:#2A2F59;}
	.st48{fill:#525E81;}
	.st49{fill:#7F889E;}
	.st50{fill:#242744;}
	.st51{fill:#7F879E;}
	.st52{fill:#525E80;}
	.st53{fill:#242644;}
	.st54{fill:#242743;}
	.st55{fill:#252744;}
	.st56{fill:#252845;}
	.st57{fill:#252844;}
	.st58{fill:#252644;}
	.st59{fill:#FDFEFD;}
	.st60{fill:#FDFDFD;}
	.st61{fill:#FCFCFB;}
	.st62{fill:#FDFEFE;}
	.st63{fill:#252F38;}
	.st64{fill:#A6493A;}
	.st65{fill:#A7493A;}
	.st66{fill:#A74A3B;}
	.st67{fill:#A74B3C;}
	.st68{fill:#FEFDFD;}
</style>
<g>
	<path d="M141.54,12.47H67.43v24.59h74.11V12.47z"/>
	<path d="M141.54,110.84H67.43v24.59h74.11V110.84z"/>
	<path d="M166.24,86.25h-24.7v24.59h24.7V86.25z"/>
	<path d="M141.54,61.66h-24.7v24.59h24.7V61.66z"/>
	<path d="M67.43,86.25h-24.7v24.59h24.7V86.25z"/>
	<path d="M67.43,37.06h-24.7v24.59h24.7V37.06z"/>
	<path d="M42.73,61.66h-24.7v24.59h24.7V61.66z"/>
	<path d="M187.32,142.68h19.43v5.03h-19.43V142.68z"/>
	<path d="M212.05,104.83h20.42v5.25h-14.71v7.43h13.61v5.25h-13.61v12.68h-5.71V104.83z"/>
	<path d="M243.09,104.83h5.71v30.61h-5.71V104.83z"/>
	<path d="M261.01,104.83h20.64v5.25h-14.93v7.43h14.05v5.25h-14.05v7.43h14.93v5.25h-20.64V104.83z"/>
	<path d="M293.62,104.83h5.71v25.14h14.35v5.47h-20.06V104.83z"/>
	<path d="M323.24,104.83h11.2c8.32,0,14.93,6.56,14.93,15.3s-6.64,15.3-14.93,15.3h-11.2V104.83z M334.44,129.97
		c5.27,0,9.22-3.88,9.22-9.84c0-5.96-3.95-9.84-9.22-9.84h-5.49v19.68H334.44z"/>
	<path d="M211.31,82.78h-0.22c-0.58,0.74-1.32,1.39-2.17,1.97c-1.54,1.01-3.68,1.94-6.78,1.94c-8.26,0-14.85-6.48-14.85-15.66
		c0-9.18,6.59-15.66,14.85-15.66c8.26,0,12.71,6.09,13.75,10.88h-5.9c-1.32-2.84-3.76-5.44-7.88-5.44c-5.24,0-9.17,3.96-9.17,10.22
		c0,6.26,3.92,10.22,9.17,10.22c5.68,0,8.29-4.56,8.29-6.53V74.5h-7.63v-4.34h13.31v16.1h-4.36l-0.44-3.47H211.31z"/>
	<path d="M227.01,55.84h13.97c5.41,0,9.61,4.13,9.61,10.22s-4.14,9.56-8.95,9.78l9.83,10.44h-7.19l-9.83-10.44h-1.76v10.44h-5.68
		V55.84z M240.76,70.62c2.17,0,4.15-1.97,4.15-4.56c0-2.81-1.98-4.78-4.15-4.78h-8.07v9.35H240.76z"/>
	<path d="M260.71,55.84h20.53v5.22h-14.85v7.41h13.97v5.22h-13.97v7.38h14.85v5.22h-20.53V55.84z"/>
	<path d="M292.22,55.84h20.53v5.22H297.9v7.41h13.97v5.22H297.9v7.38h14.85v5.22h-20.53V55.84z"/>
	<path d="M323.92,55.84h7.63l11.14,21.07h0.88V55.84h5.68v30.44h-7.63l-11.14-21.1h-0.88v21.1h-5.68V55.84z"/>
</g>
</svg>
