<svg width="151" height="70" viewBox="0 0 151 70" fill="none" xmlns="http://www.w3.org/2000/svg">
<rect width="150.206" height="70" rx="7.77778" fill="white"/>
<g clip-path="url(#clip0_83_1572)">
<path d="M19.5264 9.33325H129.928V61.1821H19.5264C19.5264 31.4909 19.5264 39.0245 19.5264 9.33325ZM46.1255 34.1409C46.0998 34.1409 46.0827 34.1409 46.057 34.1409C46.057 33.6535 46.0399 33.166 46.057 32.6785C46.0741 32.3417 45.9372 32.1911 45.6376 32.0758C43.6778 31.2959 41.6581 31.0123 39.5613 31.03C37.1735 31.0477 35.0596 31.8011 33.2025 33.3433C31.6791 34.6107 30.6264 36.2237 30.1044 38.1647C29.4796 40.4957 29.6679 42.7913 30.6179 44.9982C32.107 48.4459 34.7858 50.2008 38.3374 50.573C39.587 50.706 40.8365 50.5996 42.0774 50.2894C43.7719 49.8551 45.3039 49.1283 46.502 47.7723C46.6475 47.6039 46.7502 47.338 46.7588 47.1076C46.793 46.4606 46.7759 45.8047 46.7588 45.1577C46.7588 45.0159 46.6646 44.8829 46.6133 44.75C46.502 44.8564 46.3737 44.9361 46.2881 45.0602C45.9372 45.5743 45.6462 46.1415 45.244 46.6201C43.8062 48.3218 41.9405 49.0663 39.7923 49.1549C38.8253 49.1904 37.8924 49.022 37.0109 48.5788C34.8029 47.4621 33.5106 45.592 32.8602 43.1901C32.4237 41.577 32.4665 39.9374 32.7917 38.3243C33.057 37.0126 33.5619 35.7983 34.4263 34.7791C35.9155 33.0153 37.8667 32.386 40.0491 32.3949C41.949 32.3949 43.5152 33.1483 44.6449 34.7613C44.8674 35.0804 45.0129 35.4704 45.2696 35.754C45.4151 35.9135 45.7061 35.9401 45.9372 35.9756C45.9714 35.9756 46.0827 35.6742 46.0912 35.5147C46.1169 35.0538 46.0912 34.6018 46.0912 34.1409H46.1255ZM82.4125 22.9292C82.4125 22.6899 82.4125 22.486 82.4125 22.2822C82.4296 21.7238 82.2499 21.6174 81.7535 21.8745C81.3427 22.0872 80.9405 22.291 80.5212 22.4772C80.1874 22.6367 79.8365 22.7519 79.4942 22.9114C79.2117 23.0355 79.2032 23.3014 79.2802 23.5496C79.3059 23.6205 79.5113 23.6737 79.6225 23.6559C80.4698 23.5141 80.795 23.718 80.8293 24.6131C80.8806 26.2617 80.8635 27.9191 80.8549 29.5765C80.8549 30.0285 80.5896 30.2589 80.1446 30.3121C80.0333 30.321 79.8878 30.2855 79.8108 30.3387C79.691 30.4184 79.5455 30.5691 79.5455 30.6843C79.5455 30.7996 79.7167 31.0123 79.8194 31.0123C81.1459 31.03 82.4724 31.0211 83.799 31.03C84.0557 31.03 84.1499 30.897 84.1327 30.64C84.1156 30.321 83.9188 30.3121 83.6877 30.3032C82.6778 30.2589 82.5067 30.0816 82.5067 29.0269C82.5067 27.6354 82.5067 26.2528 82.5067 24.8613C82.5067 23.9484 82.6693 23.6914 83.4909 23.3457C83.6792 23.266 83.8674 23.1951 84.0557 23.133C85.4507 22.681 86.5719 23.5141 86.5975 25.0297C86.6061 25.854 86.5975 26.6871 86.5975 27.5114C86.5975 28.0697 86.6146 28.637 86.5975 29.1953C86.5719 29.9576 86.298 30.25 85.5791 30.321C85.2967 30.3475 85.1255 30.6046 85.2624 30.835C85.3309 30.9502 85.5363 31.0211 85.6818 31.0211C86.9056 31.03 88.138 31.0211 89.3618 31.0211C89.6015 31.0211 89.824 31.0654 89.8326 30.6932C89.8326 30.3387 89.6528 30.2944 89.3704 30.2944C88.4632 30.2855 88.2065 30.0107 88.2065 29.0713C88.2065 27.6975 88.2065 26.3237 88.2065 24.9499C88.2065 23.7268 88.3092 23.5762 89.4218 23.1862C89.4988 23.1596 89.5844 23.133 89.6699 23.1064C90.7483 22.7785 92.0577 23.4787 92.1604 24.6131C92.3059 26.2351 92.2717 27.8836 92.2545 29.5144C92.2545 30.0373 91.8865 30.3919 91.3388 30.3298C91.0735 30.3032 90.9451 30.4362 90.9451 30.7198C90.9451 31.03 91.142 31.03 91.3474 31.03C92.614 31.03 93.8892 31.03 95.1558 31.03C95.4125 31.03 95.5238 30.9502 95.5238 30.6843C95.5238 30.4184 95.4125 30.3298 95.1558 30.321C94.2572 30.2855 93.9833 29.9753 93.9833 29.0269C93.9833 27.8482 94.0175 26.6605 93.9662 25.4817C93.9405 24.8702 93.8378 24.2498 93.6667 23.6648C93.3329 22.5481 92.3059 21.8124 91.1848 21.7504C90.0294 21.6883 89.0709 22.1581 88.2065 22.876C87.9754 23.071 87.847 23.0621 87.6502 22.8317C86.7259 21.7592 85.5705 21.4579 84.2782 21.9897C83.662 22.2467 83.0886 22.5924 82.4211 22.9292H82.4125ZM55.2914 35.5945C56.5494 35.5679 57.7219 35.4349 58.689 34.5929C59.5277 33.8662 59.7759 32.9001 59.5705 31.8365C59.3822 30.8705 58.6976 30.321 57.8161 30.0905C57.1057 29.9044 56.3612 29.8246 55.6337 29.7183C55.1117 29.6385 54.581 29.6119 54.0675 29.5233C53.6396 29.4435 53.4428 29.1422 53.5455 28.8142C53.6824 28.3799 54.2045 27.99 54.6324 28.0609C55.3085 28.1672 55.9418 28.0166 56.558 27.7684C58.4579 27.0062 58.8431 25.0208 58.1156 23.4078C57.9787 23.0976 58.0557 23.0444 58.3296 23.0444C58.6462 23.0444 58.9543 23.0444 59.271 23.0444C59.7417 23.0444 59.8187 22.9292 59.8273 22.3265C59.8273 21.8922 59.5106 22.0429 59.3052 22.0251C59.1084 22.0074 58.903 22.0251 58.7061 22.0251C57.7733 22.0074 56.8404 22.0517 55.899 21.8302C55.0945 21.6352 54.2558 21.7149 53.4685 22.096C52.5613 22.5392 51.8595 23.1685 51.6969 24.2498C51.4915 25.6147 51.928 26.7137 53.032 27.5114C53.2631 27.6798 53.2716 27.7684 53.032 27.9545C52.6982 28.2027 52.3816 28.4863 52.1248 28.8142C51.6969 29.3637 51.7568 30.0639 52.2104 30.5868C52.4557 30.8705 52.4215 31.1068 52.1077 31.2959C51.4915 31.6681 51.0465 32.1556 51.0978 32.9533C51.1577 33.8041 51.5514 34.46 52.2532 34.912C53.2032 35.5236 54.2729 35.5767 55.2828 35.5856L55.2914 35.5945ZM77.4402 42.0999C77.4402 41.8695 77.4402 41.6834 77.4402 41.4973C77.4402 40.9921 77.269 40.8768 76.8069 41.0896C76.0794 41.4175 75.352 41.7543 74.6074 42.0556C74.2736 42.1974 74.2308 42.4456 74.2993 42.7292C74.3763 43.0572 74.6159 42.871 74.7957 42.8444C75.3862 42.7381 75.6943 42.9242 75.8227 43.5358C75.8911 43.8814 75.9082 44.2359 75.9082 44.5905C75.9082 47.2316 75.9082 49.8728 75.9082 52.5229C75.9082 53.7283 75.8911 53.7371 74.7443 53.9321C74.6245 53.9498 74.4533 54.1714 74.4533 54.2955C74.4533 54.4196 74.6416 54.65 74.7529 54.65C76.1051 54.6766 77.4573 54.6766 78.8095 54.65C78.9122 54.65 79.0919 54.4639 79.109 54.3398C79.1775 53.8435 78.8095 53.9055 78.5185 53.9055C77.7312 53.8878 77.5258 53.6839 77.5258 52.8774C77.5258 52.195 77.5258 51.5214 77.5258 50.8389C77.5258 50.2185 77.5686 50.183 78.1676 50.3426C79.7766 50.7857 81.2657 50.5376 82.558 49.4385C83.9873 48.2243 84.398 46.5581 84.2098 44.7411C83.953 42.1531 81.8562 40.2387 79.1604 41.32C78.6127 41.5416 78.0735 41.8163 77.4487 42.1088L77.4402 42.0999ZM74.6759 29.7005C74.5817 29.7094 74.5218 29.7094 74.4705 29.7271C73.5119 29.9398 73.3408 29.8158 73.3408 28.8142C73.3408 26.6251 73.3408 24.4448 73.3493 22.2556C73.3493 21.7415 73.1953 21.6352 72.7246 21.839C71.9714 22.1492 71.2269 22.4772 70.4652 22.7785C70.1485 22.9026 70.1229 23.1507 70.1656 23.4255C70.217 23.7712 70.4566 23.6116 70.6364 23.585C71.2098 23.5053 71.5606 23.7623 71.5692 24.365C71.6034 25.7565 71.612 27.1391 71.612 28.5306C71.612 28.6813 71.5264 28.9029 71.4152 28.9826C70.9188 29.346 70.431 29.7892 69.8747 29.993C68.7364 30.4096 68.009 30.0905 67.5982 29.1156C67.4784 28.8231 67.3928 28.4863 67.3928 28.1761C67.3842 26.2262 67.3928 24.2764 67.4184 22.3265C67.4184 21.7947 67.2986 21.6352 66.8194 21.8213C66.0577 22.1226 65.3131 22.4417 64.5771 22.8051C64.4487 22.8671 64.4316 23.1951 64.3717 23.3989C64.5086 23.4432 64.6541 23.5407 64.7825 23.523C65.4158 23.461 65.7325 23.718 65.7496 24.3738C65.7667 25.526 65.741 26.6782 65.7838 27.8304C65.8095 28.442 65.9036 29.0624 66.0577 29.6562C66.323 30.6666 67.2473 31.3225 68.2486 31.3934C69.4382 31.4731 70.3539 30.8971 71.244 30.2057C71.3638 30.1082 71.5093 30.0373 71.6548 29.9487C71.7489 30.3741 71.8174 30.7109 71.903 31.0566C71.9886 31.3757 72.1683 31.42 72.4593 31.287C73.084 31.0034 73.7173 30.7287 74.3592 30.4982C74.7614 30.3564 74.8128 30.1171 74.6844 29.7183L74.6759 29.7005ZM98.2796 45.7781C98.1512 48.3041 100.274 50.6173 102.747 50.6616C105.28 50.706 107.386 48.5345 107.42 45.9376C107.454 43.1369 105.374 41.1161 103.021 41.0098C100.428 40.8857 98.2197 43.199 98.2796 45.787V45.7781ZM66.8108 48.1091C66.768 48.1091 66.7252 48.1091 66.6824 48.1002C66.6482 48.0382 66.6054 47.985 66.5797 47.923C65.9379 46.3808 65.3046 44.8386 64.6541 43.2965C64.3032 42.4545 64.3803 42.2595 65.1847 41.967C65.3046 41.9227 65.3901 41.7011 65.4244 41.5416C65.4329 41.4973 65.219 41.3289 65.0992 41.3289C63.9609 41.3111 62.8227 41.3111 61.6844 41.3289C61.556 41.3289 61.4362 41.4973 61.3164 41.5859C61.4191 41.7188 61.5047 41.9404 61.6159 41.9581C62.1551 42.029 62.4375 42.357 62.6429 42.8444C63.6699 45.2906 64.7055 47.728 65.7325 50.1742C65.7924 50.316 65.8608 50.511 65.818 50.6351C65.4843 51.6366 65.1248 52.6292 64.2861 53.3472C63.9438 53.6396 63.5672 53.6485 63.1992 53.5156C62.9767 53.4358 62.8227 53.1699 62.6258 53.0104C62.5488 52.9395 62.4375 52.8863 62.3434 52.8863C62.3006 52.8863 62.2236 53.0458 62.2236 53.1344C62.2236 53.5953 62.2236 54.0473 62.2578 54.5082C62.2578 54.6057 62.3776 54.783 62.4546 54.783C63.3019 54.8007 64.192 54.9868 64.8852 54.2866C65.2019 53.9764 65.5527 53.6396 65.7239 53.2408C66.3487 51.7607 66.9306 50.2628 67.4784 48.7472C68.1459 46.8683 68.7621 44.9716 69.404 43.0926C69.5922 42.5431 69.9003 42.1088 70.4994 41.967C70.6107 41.9404 70.7219 41.7277 70.7391 41.5948C70.7391 41.5238 70.5337 41.3643 70.4224 41.3554C69.481 41.3377 68.5396 41.3377 67.6067 41.3554C67.4869 41.3554 67.3671 41.5238 67.2473 41.6125C67.35 41.7366 67.4356 41.9493 67.5554 41.9759C68.1972 42.1265 68.4026 42.4013 68.2315 43.0749C67.8891 44.4132 67.5126 45.7427 67.1446 47.0721C67.0504 47.4266 66.9306 47.7812 66.8194 48.1357L66.8108 48.1091ZM110.929 48.8181H110.946C110.946 49.1549 110.946 49.5006 110.946 49.8374C110.946 50.0856 111.031 50.2274 111.271 50.2717C111.408 50.2983 111.545 50.3514 111.682 50.3869C112.948 50.6971 114.189 50.7946 115.456 50.2805C117.356 49.5095 117.587 46.7708 116.132 45.7249C115.636 45.3704 115.054 45.1311 114.515 44.8386C114.035 44.5816 113.522 44.3689 113.102 44.0321C112.478 43.518 112.546 42.7381 113.188 42.224C113.659 41.8518 114.489 41.8075 115.011 42.1177C115.49 42.4013 115.747 42.8444 115.824 43.4028C115.867 43.6864 115.987 43.8903 116.295 43.8637C116.611 43.8282 116.492 43.5623 116.492 43.3762C116.492 42.871 116.457 42.3747 116.474 41.8695C116.483 41.5416 116.355 41.382 116.072 41.2934C114.848 40.9389 113.633 40.8414 112.435 41.4086C111.134 42.0202 110.578 43.5446 111.228 44.8032C111.571 45.459 112.187 45.787 112.82 46.0883C113.522 46.4163 114.232 46.7176 114.917 47.081C115.465 47.3735 115.636 47.8787 115.533 48.4991C115.439 49.0663 115.097 49.3765 114.617 49.5626C113.727 49.9172 112.683 49.5892 112.11 48.7561C111.896 48.437 111.793 48.0382 111.579 47.7103C111.494 47.5684 111.271 47.5241 111.108 47.4355C111.04 47.5596 110.937 47.6837 110.92 47.8166C110.894 48.1534 110.912 48.4991 110.912 48.8359L110.929 48.8181ZM94.2058 41.3377C94.0518 41.32 93.9576 41.2934 93.8635 41.2934C93.1959 41.2934 92.5198 41.2757 91.8523 41.3023C91.4672 41.32 91.3046 41.2048 91.3131 40.7793C91.3388 40.1146 91.3302 39.4499 91.3131 38.7852C91.3131 38.6256 91.1933 38.475 91.1248 38.3243C90.9708 38.4306 90.7825 38.5015 90.6798 38.6434C90.2947 39.1751 89.9952 39.769 89.5672 40.2653C89.0965 40.8059 88.5146 41.2491 88.0011 41.7543C87.8898 41.8606 87.8556 42.0379 87.7786 42.1886C87.9155 42.2418 88.0524 42.3392 88.1894 42.3481C88.5146 42.3747 88.8483 42.3836 89.1736 42.3481C89.5929 42.3038 89.7213 42.4545 89.7127 42.8888C89.6871 44.3512 89.6956 45.8136 89.7127 47.2671C89.7127 48.0736 89.8753 48.8536 90.3375 49.5272C90.7911 50.2008 91.4415 50.4933 92.2117 50.6262C92.9478 50.7503 93.4698 50.5021 93.9063 49.8994C94.086 49.6513 94.3342 49.4651 94.5225 49.2258C94.6081 49.1106 94.6937 48.889 94.6423 48.8004C94.531 48.5966 94.3428 48.6231 94.1374 48.7561C93.1703 49.3942 91.51 49.1018 91.4329 47.4975C91.4244 47.2937 91.3902 47.0898 91.3902 46.8771C91.3902 45.5477 91.3902 44.2182 91.3816 42.8976C91.3816 42.5165 91.51 42.357 91.8694 42.3658C92.4428 42.3747 93.0077 42.3836 93.5811 42.3658C93.7351 42.3658 93.932 42.2418 94.009 42.1088C94.1202 41.905 94.1459 41.6391 94.2315 41.3466L94.2058 41.3377ZM54.3243 43.0128C54.2986 42.9951 54.2644 42.9774 54.2387 42.9597C54.2558 42.5963 54.2815 42.2418 54.2986 41.8784C54.3243 41.3111 54.0932 41.1605 53.5968 41.4264C53.4342 41.515 53.2887 41.6479 53.1261 41.7366C52.5527 42.0556 51.9708 42.3658 51.3888 42.676C51.0893 42.8267 50.9951 43.1015 51.0893 43.3762C51.2005 43.6953 51.423 43.4471 51.5856 43.3851C52.1933 43.1724 52.5185 43.3585 52.6212 44.0144C52.6725 44.36 52.6982 44.7145 52.7068 45.0691C52.7153 46.239 52.6982 47.4 52.7153 48.57C52.7325 49.3411 52.5613 49.8994 51.6284 49.8994C51.5343 49.8994 51.3802 50.1033 51.3546 50.2362C51.3118 50.4401 51.4059 50.5996 51.6627 50.5996C53.0149 50.5996 54.3671 50.5996 55.7193 50.5819C55.8305 50.5819 56.0274 50.3603 56.0359 50.2451C56.0359 50.121 55.8648 49.9703 55.745 49.864C55.6936 49.8197 55.5824 49.8551 55.4968 49.8462C54.581 49.8374 54.3329 49.5804 54.3329 48.6231C54.3329 47.471 54.3329 46.3188 54.3329 45.1666C54.3329 44.4221 54.6495 43.8194 55.1373 43.323C55.7878 42.6583 56.6179 42.6583 57.3282 43.2433C57.4138 43.3142 57.5764 43.3851 57.662 43.3408C57.739 43.3053 57.7818 43.1281 57.7818 43.0128C57.7989 42.5963 57.7818 42.1886 57.7989 41.772C57.8161 41.4618 57.6706 41.3643 57.3967 41.3377C56.1643 41.2225 55.2486 41.7543 54.5639 42.7824C54.504 42.871 54.4184 42.9419 54.3414 43.0217L54.3243 43.0128ZM99.9827 23.9041C100.111 23.8687 100.214 23.8598 100.299 23.8243C101.052 23.5053 101.412 23.6471 101.463 24.4979C101.557 26.111 101.574 27.7329 101.54 29.3549C101.523 30.0551 101.224 30.2678 100.522 30.321C100.239 30.3387 100.205 30.4982 100.197 30.7287C100.197 31.0034 100.359 31.03 100.565 31.03C101.848 31.03 103.132 31.03 104.407 31.03C104.655 31.03 104.775 30.9591 104.784 30.6843C104.784 30.3919 104.673 30.3032 104.399 30.2944C103.534 30.2678 103.175 29.8601 103.175 28.9649C103.175 26.7226 103.175 24.4802 103.175 22.2379C103.175 21.7681 103.038 21.6618 102.61 21.7947C102.473 21.839 102.353 21.9188 102.225 21.9808C101.592 22.3265 100.975 22.6987 100.334 23.0001C99.9313 23.1862 99.8543 23.4432 99.9741 23.8952L99.9827 23.9041ZM101.07 18.7901C101.07 19.446 101.574 19.96 102.208 19.9512C102.841 19.9512 103.355 19.4017 103.363 18.7281C103.363 18.1077 102.815 17.567 102.191 17.5759C101.523 17.5848 101.061 18.0811 101.07 18.7901Z" fill="white"/>
<path d="M46.1251 34.141C46.1251 34.6019 46.1422 35.0539 46.1251 35.5148C46.1251 35.6743 46.0053 35.9845 45.971 35.9757C45.74 35.9402 45.449 35.9136 45.3035 35.7541C45.0467 35.4705 44.9012 35.0805 44.6787 34.7614C43.5405 33.1572 41.9743 32.4038 40.0829 32.395C37.9006 32.395 35.9493 33.0154 34.4602 34.7791C33.5958 35.8073 33.0908 37.0215 32.8255 38.3244C32.5003 39.9463 32.4661 41.5771 32.894 43.1902C33.5444 45.5921 34.8367 47.4622 37.0448 48.5789C37.9177 49.0221 38.8506 49.1905 39.8262 49.155C41.9743 49.0752 43.84 48.3219 45.2778 46.6202C45.6801 46.1504 45.971 45.5832 46.3219 45.0603C46.4075 44.9362 46.5359 44.8476 46.6471 44.7501C46.6985 44.883 46.7926 45.0248 46.7926 45.1578C46.8097 45.8048 46.8269 46.4606 46.7926 47.1076C46.7841 47.3381 46.6814 47.604 46.5359 47.7724C45.3377 49.1284 43.8143 49.8552 42.1113 50.2895C40.8789 50.5997 39.6294 50.706 38.3713 50.5731C34.8111 50.192 32.1409 48.4371 30.6517 44.9982C29.7018 42.8002 29.5049 40.4958 30.1382 38.1648C30.6603 36.2238 31.713 34.6107 33.2363 33.3433C35.0935 31.8012 37.2074 31.0567 39.5951 31.0301C41.6833 31.0123 43.7117 31.296 45.6715 32.0759C45.971 32.2 46.108 32.3418 46.0908 32.6786C46.0652 33.1661 46.0908 33.6535 46.0908 34.141C46.1165 34.141 46.1336 34.141 46.1593 34.141H46.1251Z" fill="black"/>
<path d="M82.4129 22.929C83.0804 22.5833 83.6538 22.2465 84.27 21.9895C85.5538 21.4577 86.7177 21.7502 87.642 22.8315C87.8388 23.0619 87.9672 23.0708 88.1983 22.8758C89.0712 22.1667 90.0212 21.6881 91.1766 21.7502C92.2977 21.8122 93.3247 22.5478 93.6585 23.6646C93.8296 24.2496 93.9323 24.87 93.958 25.4815C94.0008 26.6603 93.9666 27.8479 93.9751 29.0267C93.9751 29.9751 94.249 30.2853 95.1476 30.3207C95.4043 30.3296 95.5156 30.4182 95.5156 30.6841C95.5156 30.9589 95.4043 31.0298 95.1476 31.0298C93.881 31.0209 92.6058 31.0298 91.3392 31.0298C91.1252 31.0298 90.9369 31.0298 90.9369 30.7196C90.9369 30.436 91.0739 30.303 91.3306 30.3296C91.8783 30.3916 92.2463 30.0371 92.2463 29.5142C92.2549 27.8834 92.2891 26.2349 92.1522 24.6129C92.0495 23.4696 90.7401 22.7694 89.6617 23.1062C89.5762 23.1328 89.4991 23.1594 89.4135 23.186C88.2924 23.5848 88.1983 23.7266 88.1983 24.9497C88.1983 26.3235 88.1983 27.6973 88.1983 29.071C88.1983 30.0194 88.455 30.2853 89.3622 30.2942C89.6446 30.2942 89.8329 30.3385 89.8243 30.693C89.8243 31.0652 89.5933 31.0209 89.3536 31.0209C88.1298 31.0209 86.8974 31.0298 85.6736 31.0209C85.5281 31.0209 85.3227 30.95 85.2542 30.8348C85.1087 30.6044 85.2885 30.3473 85.5709 30.3207C86.2898 30.241 86.5636 29.9574 86.5893 29.1951C86.6064 28.6368 86.5893 28.0695 86.5893 27.5112C86.5893 26.6869 86.5979 25.8538 86.5893 25.0295C86.5636 23.5139 85.4511 22.6897 84.0475 23.1328C83.8592 23.1948 83.6709 23.2658 83.4827 23.3455C82.6611 23.6912 82.4985 23.9482 82.4985 24.8611C82.4985 26.2526 82.4985 27.6352 82.4985 29.0267C82.4985 30.0726 82.6611 30.2587 83.6795 30.303C83.9106 30.3119 84.116 30.3207 84.1245 30.6398C84.1331 30.8968 84.0475 31.0298 83.7908 31.0298C82.4642 31.0298 81.1377 31.0298 79.8112 31.0121C79.7085 31.0121 79.5373 30.7993 79.5373 30.6841C79.5373 30.5689 79.6828 30.4182 79.8026 30.3385C79.8796 30.2853 80.0251 30.3207 80.1364 30.3119C80.5729 30.2676 80.8382 30.0283 80.8467 29.5762C80.8553 27.9189 80.8724 26.2703 80.821 24.6129C80.7954 23.7178 80.4616 23.5228 79.6143 23.6557C79.5031 23.6735 79.2977 23.6203 79.272 23.5494C79.195 23.3012 79.2035 23.0353 79.486 22.9112C79.8283 22.7606 80.1792 22.6365 80.5129 22.4769C80.9323 22.282 81.3345 22.0781 81.7453 21.8743C82.2417 21.6172 82.4214 21.7236 82.4043 22.282C82.4043 22.4858 82.4043 22.6897 82.4043 22.929H82.4129Z" fill="black"/>
<path d="M55.2916 35.5945C54.2731 35.5945 53.2119 35.5325 52.2619 34.9209C51.5602 34.4689 51.1579 33.813 51.1066 32.9622C51.0552 32.1645 51.5002 31.677 52.1164 31.3048C52.4245 31.1157 52.4588 30.8794 52.2191 30.5958C51.7656 30.0728 51.7056 29.3727 52.1336 28.8231C52.3903 28.4952 52.707 28.2116 53.0407 27.9634C53.2889 27.7773 53.2718 27.6798 53.0407 27.5203C51.9367 26.7226 51.5088 25.6147 51.7056 24.2587C51.8683 23.1774 52.57 22.5392 53.4772 22.105C54.256 21.7327 55.0947 21.6441 55.9078 21.8391C56.8406 22.0606 57.7735 22.0163 58.7149 22.0341C58.9117 22.0341 59.1171 22.0163 59.314 22.0341C59.5193 22.0518 59.8446 21.9011 59.836 22.3354C59.836 22.9381 59.759 23.0444 59.2797 23.0533C58.9631 23.0533 58.655 23.0533 58.3383 23.0533C58.0644 23.0533 57.9874 23.1065 58.1244 23.4167C58.8518 25.0298 58.4667 27.0151 56.5667 27.7773C55.9505 28.0255 55.3172 28.1761 54.6411 28.0698C54.2132 27.9989 53.6826 28.3889 53.5542 28.8231C53.4515 29.1511 53.6484 29.4524 54.0763 29.5322C54.5983 29.6208 55.129 29.6474 55.6425 29.7272C56.3699 29.8335 57.1145 29.9044 57.8248 30.0994C58.6978 30.3299 59.391 30.8794 59.5793 31.8454C59.7847 32.909 59.5279 33.8662 58.6978 34.6019C57.7307 35.4438 56.5582 35.5768 55.3001 35.6034L55.2916 35.5945ZM55.0091 31.3137C54.8123 31.3225 54.4529 31.3314 54.0934 31.358C53.2804 31.4289 52.57 32.0493 52.4417 32.7938C52.339 33.4142 52.7412 34.0701 53.52 34.4157C53.8966 34.5841 54.3074 34.6728 54.7096 34.7259C55.6852 34.85 56.6523 34.8323 57.5509 34.3626C58.5608 33.8396 58.6464 32.714 57.7563 31.9961C56.9861 31.3846 56.0789 31.3048 55.0006 31.3225L55.0091 31.3137ZM56.8321 25.1804C56.8663 25.1716 56.9005 25.1538 56.9348 25.145C56.7807 24.6309 56.6866 24.0991 56.464 23.6205C56.1816 23.0001 55.6767 22.6367 54.9664 22.6456C54.2988 22.6456 53.8794 23.0356 53.597 23.6028C53.1178 24.5512 53.3146 25.9692 54.0164 26.7492C54.5384 27.3253 55.4114 27.4405 56.0361 26.9974C56.6438 26.5631 56.8492 25.9338 56.8235 25.1893L56.8321 25.1804Z" fill="black"/>
<path d="M77.4313 42.1085C78.0647 41.816 78.5953 41.5412 79.143 41.3197C81.8389 40.2472 83.9356 42.1617 84.1924 44.7408C84.3721 46.5666 83.9699 48.224 82.5406 49.4382C81.2483 50.5372 79.7592 50.7854 78.1502 50.3423C77.5512 50.1739 77.5084 50.2093 77.5084 50.8386C77.5084 51.521 77.5084 52.1946 77.5084 52.8771C77.5084 53.6836 77.7138 53.8875 78.5011 53.9052C78.7921 53.9052 79.1601 53.8432 79.0916 54.3395C79.0745 54.4636 78.8948 54.6497 78.7921 54.6497C77.4399 54.6674 76.0877 54.6674 74.7355 54.6497C74.6242 54.6497 74.4359 54.4193 74.4359 54.2952C74.4359 54.1711 74.6071 53.9495 74.7269 53.9318C75.8823 53.7368 75.8909 53.7279 75.8909 52.5226C75.8909 49.8814 75.8909 47.2402 75.8909 44.5901C75.8909 44.2356 75.8823 43.8811 75.8053 43.5354C75.6769 42.915 75.3688 42.7378 74.7783 42.8441C74.6071 42.8707 74.3589 43.0568 74.2819 42.7289C74.2134 42.4453 74.2477 42.1882 74.59 42.0553C75.326 41.754 76.0535 41.4172 76.7895 41.0892C77.2516 40.8854 77.4228 40.9917 77.4228 41.4969C77.4228 41.6831 77.4228 41.8692 77.4228 42.0996L77.4313 42.1085ZM77.5169 45.9905C77.5169 46.7882 77.5084 47.5858 77.5169 48.3747C77.5169 48.5519 77.594 48.7558 77.7052 48.8798C78.6038 49.8902 80.2984 50.0055 81.3339 49.1369C82.4551 48.1974 82.7032 46.9034 82.592 45.5119C82.3866 43.0125 80.1871 41.4792 77.9363 42.8973C77.6453 43.0834 77.4913 43.2873 77.5084 43.6772C77.5426 44.4395 77.5169 45.2105 77.5169 45.9728V45.9905Z" fill="black"/>
<path d="M74.6672 29.7006C74.7956 30.0994 74.7442 30.3387 74.342 30.4806C73.7001 30.711 73.0668 30.9857 72.4421 31.2694C72.1511 31.4023 71.9714 31.358 71.8858 31.0389C71.8002 30.7021 71.7317 30.3565 71.6376 29.931C71.4921 30.0197 71.3466 30.0906 71.2268 30.1881C70.3367 30.8883 69.421 31.4555 68.2314 31.3757C67.2301 31.3137 66.2972 30.649 66.0405 29.6386C65.8864 29.0447 65.7923 28.4243 65.7666 27.8128C65.7153 26.6606 65.7495 25.5084 65.7324 24.3562C65.7238 23.6915 65.3986 23.4344 64.7653 23.5053C64.6284 23.5231 64.4914 23.4256 64.3545 23.3813C64.423 23.1774 64.4315 22.8495 64.5599 22.7874C65.2873 22.424 66.0405 22.0961 66.8022 21.8036C67.2814 21.6175 67.4012 21.777 67.4012 22.3088C67.3756 24.2587 67.367 26.2086 67.3756 28.1584C67.3756 28.4775 67.4611 28.8054 67.581 29.0979C67.9918 30.0729 68.7192 30.3919 69.8575 29.9754C70.4137 29.7715 70.9016 29.3284 71.3979 28.965C71.5092 28.8763 71.5948 28.6636 71.5948 28.513C71.5948 27.1215 71.5862 25.7388 71.552 24.3473C71.5349 23.7446 71.1926 23.4876 70.6191 23.5674C70.4394 23.594 70.1998 23.7535 70.1484 23.4078C70.1142 23.1331 70.1313 22.8849 70.448 22.7608C71.2011 22.4595 71.9542 22.1404 72.7074 21.8214C73.1781 21.6264 73.3321 21.7239 73.3321 22.2379C73.3321 24.4271 73.315 26.6074 73.3236 28.7966C73.3236 29.7981 73.4947 29.9222 74.4533 29.7095C74.5046 29.7006 74.5645 29.7006 74.6587 29.6829L74.6672 29.7006Z" fill="black"/>
<path d="M98.2712 45.7781C98.2113 43.199 100.419 40.8857 103.012 41.001C105.357 41.1073 107.437 43.137 107.411 45.9288C107.386 48.5257 105.272 50.6971 102.739 50.6528C100.265 50.6085 98.1428 48.2952 98.2712 45.7693V45.7781ZM100.086 45.4768C100.06 46.7353 100.308 47.8078 101.07 48.6941C101.96 49.7399 103.808 50.2806 104.887 48.6498C105.905 47.1165 105.82 44.5107 104.69 43.0749C103.483 41.5327 101.455 41.6657 100.565 43.3585C100.205 44.041 100.034 44.7855 100.086 45.4768Z" fill="black"/>
<path d="M66.8106 48.118C66.9218 47.7634 67.0331 47.4089 67.1358 47.0544C67.5038 45.7249 67.8718 44.3955 68.2227 43.0572C68.3939 42.3836 68.1885 42.1088 67.5466 41.9582C67.4268 41.9316 67.3412 41.7188 67.2385 41.5948C67.3583 41.5061 67.4781 41.3377 67.5979 41.3377C68.5394 41.3111 69.4808 41.32 70.4136 41.3377C70.5249 41.3377 70.7388 41.5061 70.7303 41.577C70.7217 41.71 70.6019 41.9227 70.4906 41.9493C69.8916 42.1 69.5835 42.5254 69.3952 43.0749C68.7533 44.9627 68.1371 46.8594 67.4696 48.7295C66.9304 50.2451 66.3399 51.743 65.7151 53.2231C65.544 53.6219 65.1931 53.9587 64.8764 54.2689C64.1746 54.9691 63.2846 54.783 62.4459 54.7653C62.3774 54.7653 62.2576 54.588 62.249 54.4905C62.2234 54.0385 62.2148 53.5776 62.2148 53.1167C62.2148 53.0281 62.2918 52.8686 62.3346 52.8686C62.4288 52.8686 62.54 52.9306 62.617 52.9926C62.8139 53.161 62.9679 53.4181 63.1904 53.4978C63.5499 53.6308 63.935 53.6131 64.2773 53.3294C65.1075 52.6204 65.4669 51.6277 65.8093 50.6173C65.8521 50.4844 65.7836 50.2983 65.7237 50.1565C64.6967 47.7103 63.6611 45.2729 62.6341 42.8267C62.4288 42.3481 62.1463 42.0202 61.6072 41.9404C61.4959 41.9227 61.4103 41.7011 61.3076 41.5682C61.4274 41.4795 61.5558 41.32 61.6756 41.3111C62.8139 41.2934 63.9521 41.2934 65.0904 41.3111C65.2016 41.3111 65.4241 41.4795 65.4156 41.5239C65.3814 41.6834 65.2958 41.905 65.176 41.9493C64.3715 42.2506 64.2859 42.4456 64.6453 43.2787C65.2958 44.8209 65.9291 46.3631 66.571 47.9053C66.5966 47.9673 66.6394 48.0293 66.6737 48.0825C66.7164 48.0825 66.7592 48.0825 66.802 48.0914L66.8106 48.118Z" fill="black"/>
<path d="M110.928 48.8269C110.928 48.4901 110.911 48.1444 110.937 47.8076C110.946 47.6747 111.057 47.5595 111.125 47.4265C111.288 47.5151 111.502 47.5683 111.596 47.7013C111.801 48.0292 111.904 48.428 112.127 48.7471C112.7 49.5891 113.744 49.9082 114.634 49.5536C115.113 49.3675 115.456 49.0484 115.55 48.4901C115.653 47.8608 115.481 47.3556 114.934 47.072C114.249 46.7086 113.539 46.4073 112.837 46.0793C112.212 45.7868 111.596 45.4589 111.245 44.7942C110.586 43.5445 111.142 42.0201 112.452 41.3996C113.65 40.8324 114.865 40.9299 116.089 41.2844C116.38 41.3642 116.508 41.5326 116.491 41.8605C116.474 42.3657 116.508 42.862 116.508 43.3672C116.508 43.5534 116.628 43.8193 116.312 43.8547C116.003 43.8902 115.884 43.6774 115.841 43.3938C115.764 42.8355 115.499 42.4012 115.028 42.1087C114.506 41.7896 113.676 41.8428 113.205 42.215C112.563 42.7202 112.495 43.5002 113.119 44.0231C113.53 44.3688 114.052 44.5726 114.531 44.8296C115.071 45.1221 115.653 45.3614 116.149 45.7159C117.604 46.7529 117.373 49.4916 115.473 50.2715C114.206 50.7856 112.965 50.6881 111.699 50.3779C111.562 50.3425 111.425 50.2893 111.288 50.2627C111.048 50.2184 110.954 50.0766 110.963 49.8284C110.971 49.4916 110.963 49.1459 110.963 48.8091H110.946L110.928 48.8269Z" fill="black"/>
<path d="M94.2059 41.3465C94.1288 41.6479 94.1032 41.9049 93.9833 42.1087C93.9149 42.2417 93.7095 42.3569 93.5554 42.3658C92.9906 42.3924 92.4172 42.3835 91.8438 42.3658C91.4758 42.3658 91.3474 42.5164 91.356 42.8976C91.3731 44.227 91.356 45.5565 91.3645 46.8771C91.3645 47.0809 91.3988 47.2848 91.4073 47.4975C91.4843 49.1017 93.1446 49.3942 94.1117 48.756C94.3171 48.6142 94.5054 48.5965 94.6167 48.8003C94.668 48.889 94.5824 49.1194 94.4968 49.2258C94.3086 49.4651 94.0604 49.6512 93.8806 49.8994C93.4527 50.502 92.9221 50.7413 92.1861 50.6261C91.4159 50.502 90.7654 50.2007 90.3118 49.5271C89.8583 48.8535 89.6957 48.0736 89.6871 47.267C89.6785 45.8046 89.67 44.3422 89.6871 42.8887C89.6871 42.4544 89.5673 42.3037 89.1479 42.348C88.8227 42.3835 88.4889 42.3746 88.1637 42.348C88.0268 42.3392 87.8899 42.2417 87.7529 42.1885C87.8214 42.0467 87.8642 41.8606 87.9754 41.7542C88.4889 41.249 89.0709 40.8059 89.5416 40.2652C89.9695 39.7778 90.2691 39.1751 90.6542 38.6433C90.7569 38.5015 90.9452 38.4306 91.0992 38.3242C91.1677 38.4749 91.2789 38.6344 91.2875 38.7851C91.3132 39.4498 91.3132 40.1146 91.2875 40.7793C91.2704 41.1958 91.4415 41.3111 91.8267 41.3022C92.4942 41.2756 93.1618 41.2933 93.8379 41.2933C93.932 41.2933 94.0261 41.3199 94.1802 41.3377L94.2059 41.3465Z" fill="black"/>
<path d="M54.3243 43.0215C54.4013 42.9417 54.4869 42.8797 54.5468 42.7822C55.2315 41.754 56.1472 41.2223 57.3796 41.3375C57.6535 41.3641 57.7989 41.4616 57.7818 41.7718C57.7647 42.1883 57.7818 42.596 57.7647 43.0126C57.7647 43.1278 57.7219 43.3051 57.6449 43.3405C57.5593 43.376 57.3967 43.3139 57.3111 43.243C56.6008 42.6581 55.7706 42.6581 55.1202 43.3228C54.6324 43.8191 54.3157 44.4218 54.3157 45.1663C54.3157 46.3185 54.3157 47.4707 54.3157 48.6229C54.3157 49.5713 54.5639 49.8283 55.4797 49.846C55.5652 49.846 55.6765 49.8194 55.7278 49.8637C55.8477 49.9701 56.0188 50.1208 56.0188 50.2448C56.0188 50.3689 55.822 50.5816 55.7022 50.5816C54.35 50.6082 52.9978 50.5905 51.6456 50.5994C51.3888 50.5994 51.2947 50.4487 51.3375 50.236C51.3631 50.103 51.5172 49.8992 51.6113 49.8992C52.5442 49.8992 52.7153 49.3408 52.6982 48.5697C52.6811 47.3998 52.6982 46.2388 52.6897 45.0688C52.6897 44.7143 52.6554 44.3598 52.6041 44.0141C52.5014 43.3583 52.1762 43.1721 51.5685 43.3849C51.4059 43.438 51.1834 43.6951 51.0721 43.376C50.978 43.1012 51.0721 42.8265 51.3717 42.6758C51.9537 42.3745 52.5356 42.0554 53.109 41.7363C53.2716 41.6477 53.4086 41.5147 53.5797 41.4261C54.0847 41.1602 54.3157 41.3109 54.2815 41.8781C54.2644 42.2415 54.2387 42.596 54.2216 42.9594C54.2473 42.9771 54.2815 42.9949 54.3072 43.0126L54.3243 43.0215Z" fill="black"/>
<path d="M99.9822 23.9041C99.8624 23.452 99.9394 23.195 100.342 23.0089C100.992 22.7075 101.6 22.3353 102.233 21.9896C102.361 21.9187 102.481 21.839 102.618 21.8035C103.055 21.6617 103.183 21.7681 103.183 22.2467C103.183 24.489 103.183 26.7314 103.183 28.9737C103.183 29.8689 103.542 30.2766 104.407 30.3032C104.672 30.312 104.801 30.4007 104.792 30.6932C104.792 30.9679 104.664 31.0388 104.415 31.0388C103.132 31.0388 101.848 31.0388 100.573 31.0388C100.367 31.0388 100.205 31.0122 100.205 30.7375C100.205 30.507 100.248 30.3475 100.53 30.3298C101.232 30.2766 101.54 30.0639 101.548 29.3637C101.583 27.7418 101.557 26.1198 101.471 24.5067C101.42 23.6648 101.061 23.5141 100.307 23.8332C100.222 23.8686 100.119 23.8863 99.9908 23.9129L99.9822 23.9041Z" fill="black"/>
<path d="M101.07 18.7899C101.07 18.0809 101.532 17.5845 102.191 17.5757C102.816 17.5757 103.364 18.1075 103.364 18.7279C103.364 19.4015 102.842 19.9421 102.209 19.951C101.575 19.951 101.07 19.4458 101.07 18.7899Z" fill="black"/>
<path d="M55.0093 31.3136C56.0876 31.2958 56.9948 31.3756 57.7651 31.9871C58.6551 32.6962 58.5695 33.8307 57.5597 34.3536C56.661 34.8233 55.694 34.8499 54.7183 34.717C54.3161 34.6638 53.8967 34.5752 53.5287 34.4068C52.7499 34.0611 52.3477 33.4052 52.4504 32.7848C52.5787 32.0492 53.2891 31.4199 54.1021 31.349C54.453 31.3224 54.8125 31.3136 55.0179 31.3047L55.0093 31.3136Z" fill="white"/>
<path d="M56.8322 25.1892C56.8579 25.9248 56.6525 26.563 56.0449 26.9973C55.4116 27.4404 54.5472 27.3252 54.0251 26.7491C53.3233 25.978 53.1265 24.5511 53.6058 23.6027C53.8967 23.0355 54.3075 22.6544 54.9751 22.6455C55.6854 22.6455 56.1904 23 56.4728 23.6204C56.6953 24.099 56.7894 24.6397 56.9435 25.1449C56.9092 25.1538 56.875 25.1715 56.8408 25.1803L56.8322 25.1892Z" fill="white"/>
<path d="M77.5167 45.9821C77.5167 45.2199 77.5424 44.4488 77.5081 43.6866C77.491 43.2966 77.6451 43.0927 77.936 42.9066C80.1869 41.4797 82.3863 43.013 82.5917 45.5212C82.7116 46.9127 82.4634 48.2067 81.3337 49.1462C80.2981 50.0148 78.6036 49.8907 77.705 48.8892C77.5937 48.7651 77.5252 48.5524 77.5167 48.384C77.4996 47.5863 77.5167 46.7886 77.5081 45.9998L77.5167 45.9821Z" fill="white"/>
<path d="M100.085 45.4768C100.034 44.7854 100.205 44.041 100.564 43.3585C101.454 41.6657 103.483 41.5327 104.689 43.0749C105.819 44.5107 105.905 47.1253 104.886 48.6497C103.799 50.2805 101.959 49.7399 101.069 48.6941C100.316 47.8077 100.059 46.7353 100.085 45.4768Z" fill="white"/>
</g>
<defs>
<clipPath id="clip0_83_1572">
<rect width="110.402" height="51.8488" fill="white" transform="translate(19.5264 9.33325)"/>
</clipPath>
</defs>
</svg>
