<?xml version="1.0" encoding="UTF-8"?>
<!DOCTYPE svg PUBLIC "-//W3C//DTD SVG 1.1//EN" "http://www.w3.org/Graphics/SVG/1.1/DTD/svg11.dtd">
<svg xmlns="http://www.w3.org/2000/svg" version="1.1" width="1227px" height="571px" style="shape-rendering:geometricPrecision; text-rendering:geometricPrecision; image-rendering:optimizeQuality; fill-rule:evenodd; clip-rule:evenodd" xmlns:xlink="http://www.w3.org/1999/xlink">
<g><path style="opacity:0.98" fill="#2190cf" d="M 301.5,83.5 C 282.53,117.114 263.197,150.448 243.5,183.5C 233.893,165.24 223.893,147.24 213.5,129.5C 235.664,116.197 257.997,103.03 280.5,90C 287.046,86.3178 294.046,84.1512 301.5,83.5 Z"/></g>
<g><path style="opacity:1" fill="#88cbf1" d="M 306.5,83.5 C 307.833,83.5 309.167,83.5 310.5,83.5C 327.167,112.5 343.833,141.5 360.5,170.5C 346.163,170.333 331.829,170.5 317.5,171C 313.703,171.409 310.036,172.242 306.5,173.5C 306.5,143.5 306.5,113.5 306.5,83.5 Z"/></g>
<g><path style="opacity:0.979" fill="#42b9ea" d="M 310.5,83.5 C 317.958,84.1525 324.958,86.3192 331.5,90C 355.23,103.86 378.896,117.693 402.5,131.5C 400.983,131.511 399.816,132.177 399,133.5C 391.223,146.726 383.723,160.059 376.5,173.5C 375.599,174.29 374.932,175.29 374.5,176.5C 374.167,176.5 373.833,176.5 373.5,176.5C 370.201,174.517 366.534,173.517 362.5,173.5C 361.833,172.5 361.167,171.5 360.5,170.5C 343.833,141.5 327.167,112.5 310.5,83.5 Z"/></g>
<g><path style="opacity:1" fill="#6fa9dc" d="M 301.5,83.5 C 302.833,83.5 304.167,83.5 305.5,83.5C 305.667,115.835 305.5,148.168 305,180.5C 303.198,181.789 302.031,183.456 301.5,185.5C 300.833,185.5 300.167,185.5 299.5,185.5C 295.167,185.5 290.833,185.5 286.5,185.5C 272.833,185.5 259.167,185.5 245.5,185.5C 244.5,185.5 243.5,185.5 242.5,185.5C 242.833,184.833 243.167,184.167 243.5,183.5C 263.197,150.448 282.53,117.114 301.5,83.5 Z"/></g>
<g><path style="opacity:0.91" fill="#82bae6" d="M 305.5,83.5 C 305.833,83.5 306.167,83.5 306.5,83.5C 306.5,113.5 306.5,143.5 306.5,173.5C 306.5,175.5 306.5,177.5 306.5,179.5C 306.5,181.5 306.5,183.5 306.5,185.5C 306.167,185.5 305.833,185.5 305.5,185.5C 304.167,185.5 302.833,185.5 301.5,185.5C 302.031,183.456 303.198,181.789 305,180.5C 305.5,148.168 305.667,115.835 305.5,83.5 Z"/></g>
<g><path style="opacity:1" fill="#4786c6" d="M 213.5,129.5 C 223.893,147.24 233.893,165.24 243.5,183.5C 243.167,184.167 242.833,184.833 242.5,185.5C 242.167,185.5 241.833,185.5 241.5,185.5C 202.833,185.5 164.167,185.5 125.5,185.5C 128.935,180.23 133.269,175.73 138.5,172C 163.406,157.577 188.406,143.411 213.5,129.5 Z"/></g>
<g><path style="opacity:1" fill="#917eb9" d="M 402.5,131.5 C 425.473,144.655 448.473,157.822 471.5,171C 476.286,173.62 480.286,177.12 483.5,181.5C 483.511,183.017 484.177,184.184 485.5,185C 453.495,185.833 421.495,185.667 389.5,184.5C 385.776,179.972 381.442,176.306 376.5,173.5C 383.723,160.059 391.223,146.726 399,133.5C 399.816,132.177 400.983,131.511 402.5,131.5 Z"/></g>
<g><path style="opacity:1" fill="#96d0f2" d="M 360.5,170.5 C 361.167,171.5 361.833,172.5 362.5,173.5C 363.11,174.391 363.443,175.391 363.5,176.5C 348.199,175.381 332.865,175.214 317.5,176C 313.463,176.113 309.796,177.279 306.5,179.5C 306.5,177.5 306.5,175.5 306.5,173.5C 310.036,172.242 313.703,171.409 317.5,171C 331.829,170.5 346.163,170.333 360.5,170.5 Z"/></g>
<g><path style="opacity:1" fill="#6fc2ee" d="M 362.5,173.5 C 366.534,173.517 370.201,174.517 373.5,176.5C 373.167,177.833 372.833,179.167 372.5,180.5C 371.512,181.795 370.512,183.128 369.5,184.5C 367.5,181.833 365.5,179.167 363.5,176.5C 363.443,175.391 363.11,174.391 362.5,173.5 Z"/></g>
<g><path style="opacity:1" fill="#a7d6f4" d="M 363.5,176.5 C 365.5,179.167 367.5,181.833 369.5,184.5C 369.5,184.833 369.5,185.167 369.5,185.5C 368.5,185.5 367.5,185.5 366.5,185.5C 366.119,184.069 365.119,183.236 363.5,183C 347.5,182.333 331.5,182.333 315.5,183C 313.509,183.374 311.842,184.207 310.5,185.5C 309.167,185.5 307.833,185.5 306.5,185.5C 306.5,183.5 306.5,181.5 306.5,179.5C 309.796,177.279 313.463,176.113 317.5,176C 332.865,175.214 348.199,175.381 363.5,176.5 Z"/></g>
<g><path style="opacity:0.888" fill="#000000" d="M 734.5,177.5 C 740.34,176.579 744.007,178.913 745.5,184.5C 743.969,191.044 739.969,193.211 733.5,191C 727.954,186.097 728.288,181.597 734.5,177.5 Z"/></g>
<g><path style="opacity:0.96" fill="#000000" d="M 772.5,177.5 C 774.5,177.5 776.5,177.5 778.5,177.5C 778.5,211.167 778.5,244.833 778.5,278.5C 773.833,278.5 769.167,278.5 764.5,278.5C 764.333,246.165 764.5,213.832 765,181.5C 767.633,180.248 770.133,178.914 772.5,177.5 Z"/></g>
<g><path style="opacity:1" fill="#c1e1f7" d="M 366.5,185.5 C 347.833,185.5 329.167,185.5 310.5,185.5C 311.842,184.207 313.509,183.374 315.5,183C 331.5,182.333 347.5,182.333 363.5,183C 365.119,183.236 366.119,184.069 366.5,185.5 Z"/></g>
<g><path style="opacity:1" fill="#5f91cc" d="M 125.5,185.5 C 164.167,185.5 202.833,185.5 241.5,185.5C 232.5,201.5 223.5,217.5 214.5,233.5C 213.833,233.5 213.5,233.833 213.5,234.5C 210.772,234.171 208.438,234.837 206.5,236.5C 204.716,236.107 203.05,235.441 201.5,234.5C 175.217,219.53 149.217,204.197 123.5,188.5C 123.427,186.973 124.094,185.973 125.5,185.5 Z"/></g>
<g><path style="opacity:1" fill="#bccae9" d="M 241.5,185.5 C 241.833,185.5 242.167,185.5 242.5,185.5C 243.5,185.5 244.5,185.5 245.5,185.5C 246.572,189.756 248.739,193.422 252,196.5C 253.871,203.351 257.204,209.351 262,214.5C 263.447,220.73 266.447,226.064 271,230.5C 274.078,238.326 277.911,245.659 282.5,252.5C 284.904,256.255 286.904,260.255 288.5,264.5C 286.712,265.622 284.712,265.789 282.5,265C 264.468,254.986 246.468,244.986 228.5,235C 223.831,233.355 219.164,232.855 214.5,233.5C 223.5,217.5 232.5,201.5 241.5,185.5 Z"/></g>
<g><path style="opacity:1" fill="#b5ceec" d="M 245.5,185.5 C 259.167,185.5 272.833,185.5 286.5,185.5C 286.769,187.429 286.269,189.095 285,190.5C 284.667,209.167 284.333,227.833 284,246.5C 283.495,248.518 282.995,250.518 282.5,252.5C 277.911,245.659 274.078,238.326 271,230.5C 266.447,226.064 263.447,220.73 262,214.5C 257.204,209.351 253.871,203.351 252,196.5C 248.739,193.422 246.572,189.756 245.5,185.5 Z"/></g>
<g><path style="opacity:1" fill="#b9d1ee" d="M 286.5,185.5 C 290.833,185.5 295.167,185.5 299.5,185.5C 297.799,188.925 296.633,192.591 296,196.5C 294.831,218.48 294.164,240.48 294,262.5C 293.963,264.974 293.13,266.974 291.5,268.5C 290.488,267.128 289.488,265.795 288.5,264.5C 286.904,260.255 284.904,256.255 282.5,252.5C 282.995,250.518 283.495,248.518 284,246.5C 284.333,227.833 284.667,209.167 285,190.5C 286.269,189.095 286.769,187.429 286.5,185.5 Z"/></g>
<g><path style="opacity:1" fill="#fefefe" d="M 305.5,185.5 C 305.833,185.5 306.167,185.5 306.5,185.5C 307.833,185.5 309.167,185.5 310.5,185.5C 329.167,185.5 347.833,185.5 366.5,185.5C 367.5,185.5 368.5,185.5 369.5,185.5C 369.733,187.062 370.4,188.395 371.5,189.5C 380.929,206.034 390.596,222.367 400.5,238.5C 400.5,239.167 400.5,239.833 400.5,240.5C 399.833,240.833 399.167,241.167 398.5,241.5C 395.167,243.5 391.833,245.5 388.5,247.5C 361.054,263.106 333.721,278.939 306.5,295C 333.726,310.777 361.059,326.277 388.5,341.5C 391.976,344.623 395.976,346.957 400.5,348.5C 400.5,348.833 400.5,349.167 400.5,349.5C 399.559,351.05 398.893,352.716 398.5,354.5C 397.599,355.29 396.932,356.29 396.5,357.5C 387.584,372.329 378.917,387.329 370.5,402.5C 369.833,402.5 369.5,402.833 369.5,403.5C 369.5,404.167 369.167,404.5 368.5,404.5C 349.5,404.5 330.5,404.5 311.5,404.5C 309.833,404.5 308.167,404.5 306.5,404.5C 306.167,404.5 305.833,404.5 305.5,404.5C 305.5,404.167 305.5,403.833 305.5,403.5C 305.5,402.5 305.5,401.5 305.5,400.5C 305.5,398.5 305.5,396.5 305.5,394.5C 305.5,367.5 305.5,340.5 305.5,313.5C 305.666,307.491 305.499,301.491 305,295.5C 275.354,313.067 245.854,330.733 216.5,348.5C 214.703,349.73 212.703,350.396 210.5,350.5C 210.068,349.29 209.401,348.29 208.5,347.5C 199.335,330.498 189.668,313.831 179.5,297.5C 179.5,296.833 179.167,296.5 178.5,296.5C 178.5,295.5 178.5,294.5 178.5,293.5C 182.988,287.201 186.988,280.534 190.5,273.5C 196.07,264.701 201.404,255.701 206.5,246.5C 207.11,245.609 207.443,244.609 207.5,243.5C 208.401,242.71 209.068,241.71 209.5,240.5C 210.167,240.5 210.833,240.5 211.5,240.5C 214.331,242.417 217.331,244.083 220.5,245.5C 248.522,261.933 276.689,278.266 305,294.5C 305.5,260.835 305.667,227.168 305.5,193.5C 305.5,192.167 305.5,190.833 305.5,189.5C 305.5,188.167 305.5,186.833 305.5,185.5 Z"/></g>
<g><path style="opacity:1" fill="#9b89c0" d="M 376.5,173.5 C 381.442,176.306 385.776,179.972 389.5,184.5C 421.495,185.667 453.495,185.833 485.5,185C 484.177,184.184 483.511,183.017 483.5,181.5C 485.975,183.77 487.975,186.437 489.5,189.5C 464.237,203.442 439.237,217.775 414.5,232.5C 414.167,232.5 413.833,232.5 413.5,232.5C 407.153,215.975 398.82,200.475 388.5,186C 386.833,185.667 385.167,185.333 383.5,185C 381.399,182.23 378.732,180.23 375.5,179C 374.748,178.329 374.414,177.496 374.5,176.5C 374.932,175.29 375.599,174.29 376.5,173.5 Z"/></g>
<g><path style="opacity:1" fill="#a494c6" d="M 373.5,176.5 C 373.833,176.5 374.167,176.5 374.5,176.5C 374.414,177.496 374.748,178.329 375.5,179C 378.732,180.23 381.399,182.23 383.5,185C 385.167,185.333 386.833,185.667 388.5,186C 398.82,200.475 407.153,215.975 413.5,232.5C 411.999,233.752 410.332,234.752 408.5,235.5C 407.5,236.167 406.5,236.833 405.5,237.5C 405.33,236.178 405.663,235.011 406.5,234C 404.934,231.07 404.1,227.903 404,224.5C 398.089,214.67 392.755,204.67 388,194.5C 385.453,193.527 383.953,191.693 383.5,189C 379.63,186.249 375.963,183.415 372.5,180.5C 372.833,179.167 373.167,177.833 373.5,176.5 Z"/></g>
<g><path style="opacity:0.916" fill="#000000" d="M 876.5,188.5 C 878.167,188.5 879.833,188.5 881.5,188.5C 881.5,196.167 881.5,203.833 881.5,211.5C 886.5,211.5 891.5,211.5 896.5,211.5C 896.5,213.833 896.5,216.167 896.5,218.5C 891.5,218.5 886.5,218.5 881.5,218.5C 881.333,234.503 881.5,250.503 882,266.5C 883.097,269.265 885.097,270.931 888,271.5C 890.707,270.563 893.207,269.23 895.5,267.5C 897.002,268.083 898.335,268.916 899.5,270C 893.156,279.56 884.489,282.56 873.5,279C 870.865,277.039 869.031,274.539 868,271.5C 867.5,253.836 867.333,236.17 867.5,218.5C 863.5,218.5 859.5,218.5 855.5,218.5C 855.5,216.833 855.5,215.167 855.5,213.5C 861.944,214.029 867.111,211.695 871,206.5C 873.946,200.83 875.779,194.83 876.5,188.5 Z"/></g>
<g><path style="opacity:1" fill="#4591ce" d="M 123.5,188.5 C 149.217,204.197 175.217,219.53 201.5,234.5C 197.194,239.733 192.861,245.066 188.5,250.5C 182.501,260.332 177.168,270.499 172.5,281C 173.559,285.489 173.559,289.989 172.5,294.5C 170.5,294.5 168.5,294.5 166.5,294.5C 167.261,288.422 168.095,282.422 169,276.5C 153.311,248.442 137.145,220.775 120.5,193.5C 120.75,191.326 121.75,189.659 123.5,188.5 Z"/></g>
<g><path style="opacity:1" fill="#95358c" d="M 489.5,189.5 C 490.167,190.833 490.833,192.167 491.5,193.5C 471.596,226.967 451.929,260.634 432.5,294.5C 432.167,294.5 431.833,294.5 431.5,294.5C 424.668,281.498 417.335,268.832 409.5,256.5C 409.5,255.833 409.5,255.167 409.5,254.5C 412.521,251.16 414.354,247.16 415,242.5C 415.659,239.112 415.492,235.779 414.5,232.5C 439.237,217.775 464.237,203.442 489.5,189.5 Z"/></g>
<g><path style="opacity:1" fill="#c9d8f0" d="M 299.5,185.5 C 300.167,185.5 300.833,185.5 301.5,185.5C 302.833,185.5 304.167,185.5 305.5,185.5C 305.5,186.833 305.5,188.167 305.5,189.5C 302.494,192.802 300.994,196.802 301,201.5C 299.816,225.147 299.15,248.814 299,272.5C 298.417,274.002 297.584,275.335 296.5,276.5C 294.744,275.593 292.911,275.593 291,276.5C 288.46,275.815 285.96,274.981 283.5,274C 265.631,264.075 247.964,254.075 230.5,244C 224.172,242.597 217.838,241.431 211.5,240.5C 212.519,238.899 214.019,237.899 216,237.5C 220.337,238.083 224.504,239.25 228.5,241C 247.802,251.652 267.135,262.319 286.5,273C 289.053,273.851 291.386,273.518 293.5,272C 292.695,270.887 292.028,269.721 291.5,268.5C 293.13,266.974 293.963,264.974 294,262.5C 294.164,240.48 294.831,218.48 296,196.5C 296.633,192.591 297.799,188.925 299.5,185.5 Z"/></g>
<g><path style="opacity:0.92" fill="#000000" d="M 563.5,191.5 C 568.833,191.5 574.167,191.5 579.5,191.5C 579.5,204.833 579.5,218.167 579.5,231.5C 593.5,231.5 607.5,231.5 621.5,231.5C 621.5,218.167 621.5,204.833 621.5,191.5C 626.833,191.5 632.167,191.5 637.5,191.5C 637.5,220.5 637.5,249.5 637.5,278.5C 632.167,278.5 626.833,278.5 621.5,278.5C 621.5,264.833 621.5,251.167 621.5,237.5C 607.5,237.5 593.5,237.5 579.5,237.5C 579.5,251.167 579.5,264.833 579.5,278.5C 574.167,278.5 568.833,278.5 563.5,278.5C 563.5,249.5 563.5,220.5 563.5,191.5 Z"/></g>
<g><path style="opacity:0.998" fill="#2287c8" d="M 120.5,193.5 C 137.145,220.775 153.311,248.442 169,276.5C 168.095,282.422 167.261,288.422 166.5,294.5C 149.833,294.5 133.167,294.5 116.5,294.5C 116.333,264.165 116.5,233.832 117,203.5C 117.679,199.961 118.846,196.628 120.5,193.5 Z"/></g>
<g><path style="opacity:0.987" fill="#8a1d81" d="M 491.5,193.5 C 493.122,196.979 494.289,200.645 495,204.5C 495.5,234.498 495.667,264.498 495.5,294.5C 474.5,294.5 453.5,294.5 432.5,294.5C 451.929,260.634 471.596,226.967 491.5,193.5 Z"/></g>
<g><path style="opacity:1" fill="#c9bfdf" d="M 371.5,189.5 C 374.959,190.436 377.793,192.436 380,195.5C 385.919,205.002 391.586,214.669 397,224.5C 399.075,228.97 400.242,233.636 400.5,238.5C 390.596,222.367 380.929,206.034 371.5,189.5 Z"/></g>
<g><path style="opacity:0.925" fill="#000000" d="M 675.5,210.5 C 681.842,210.334 688.175,210.5 694.5,211C 699.8,212.229 703.967,215.062 707,219.5C 708.463,239.099 708.963,258.766 708.5,278.5C 703.833,278.5 699.167,278.5 694.5,278.5C 694.808,276.076 694.474,273.743 693.5,271.5C 685.227,279.485 675.56,281.985 664.5,279C 653.971,272.367 651.805,263.534 658,252.5C 668.178,242.711 680.345,237.045 694.5,235.5C 695.49,228.268 693.49,222.102 688.5,217C 676.469,213.434 670.636,217.934 671,230.5C 668.947,234.292 665.781,235.458 661.5,234C 658.484,232.471 657.151,229.971 657.5,226.5C 657.672,221.317 660.006,217.484 664.5,215C 668.157,213.178 671.824,211.678 675.5,210.5 Z M 693.5,240.5 C 694.656,248.323 694.823,256.323 694,264.5C 690.403,267.1 686.57,269.266 682.5,271C 674.695,271.545 670.028,267.878 668.5,260C 670.683,254.478 674.349,250.145 679.5,247C 684.137,244.511 688.804,242.344 693.5,240.5 Z"/></g>
<g><path style="opacity:0.942" fill="#000000" d="M 737.5,210.5 C 739.833,210.5 742.167,210.5 744.5,210.5C 744.5,233.167 744.5,255.833 744.5,278.5C 739.833,278.5 735.167,278.5 730.5,278.5C 730.167,256.823 730.5,235.156 731.5,213.5C 733.78,212.864 735.78,211.864 737.5,210.5 Z"/></g>
<g><path style="opacity:0.899" fill="#000000" d="M 812.5,210.5 C 825.789,207.755 836.123,211.921 843.5,223C 842.003,224.662 840.337,226.162 838.5,227.5C 833.931,220.715 827.598,216.715 819.5,215.5C 812.091,215.746 808.257,219.413 808,226.5C 809.122,228.624 810.622,230.457 812.5,232C 820.014,235.923 827.681,239.59 835.5,243C 846.977,250.103 849.477,259.603 843,271.5C 838.931,276.285 833.764,279.119 827.5,280C 813.974,282.724 803.307,278.557 795.5,267.5C 796.871,265.295 798.704,263.628 801,262.5C 804.47,266.299 808.303,269.799 812.5,273C 817.527,274.939 822.527,274.939 827.5,273C 834.017,267.71 834.017,262.376 827.5,257C 819.374,252.851 811.374,248.518 803.5,244C 793.566,232.603 794.566,222.27 806.5,213C 808.723,212.434 810.723,211.6 812.5,210.5 Z"/></g>
<g><path style="opacity:0.919" fill="#000000" d="M 935.5,210.5 C 950.442,208.021 962.942,212.354 973,223.5C 983.197,242.487 980.363,259.32 964.5,274C 946.338,284.373 929.838,282.206 915,267.5C 906.022,254.262 905.355,240.595 913,226.5C 918.761,218.551 926.261,213.217 935.5,210.5 Z M 936.5,216.5 C 950.656,215.812 959.156,222.478 962,236.5C 964.661,246.897 963.661,256.897 959,266.5C 947.988,277.647 937.988,276.647 929,263.5C 921.511,249.21 921.844,235.21 930,221.5C 932.326,219.934 934.492,218.268 936.5,216.5 Z"/></g>
<g><path style="opacity:0.947" fill="#000000" d="M 1027.5,210.5 C 1038.39,208.358 1045.89,212.358 1050,222.5C 1051.45,241.112 1051.95,259.778 1051.5,278.5C 1046.83,278.5 1042.17,278.5 1037.5,278.5C 1037.67,262.497 1037.5,246.497 1037,230.5C 1036.23,224.233 1032.73,220.899 1026.5,220.5C 1019.78,221.775 1013.95,224.775 1009,229.5C 1008.5,245.83 1008.33,262.163 1008.5,278.5C 1003.83,278.5 999.167,278.5 994.5,278.5C 994.5,256.167 994.5,233.833 994.5,211.5C 999.167,211.5 1003.83,211.5 1008.5,211.5C 1008.33,215.182 1008.5,218.848 1009,222.5C 1014.04,216.595 1020.21,212.595 1027.5,210.5 Z"/></g>
<g><path style="opacity:0.894" fill="#000000" d="M 1092.5,210.5 C 1109.21,207.607 1121.38,213.607 1129,228.5C 1130.24,232.06 1130.74,235.727 1130.5,239.5C 1114.17,239.5 1097.83,239.5 1081.5,239.5C 1081.06,255.667 1088.56,265.667 1104,269.5C 1110.99,268.949 1117.16,266.449 1122.5,262C 1124.7,258.972 1127.04,256.138 1129.5,253.5C 1131.27,253.434 1132.27,254.268 1132.5,256C 1123.98,276.427 1108.98,283.76 1087.5,278C 1074.44,272.052 1067.77,261.885 1067.5,247.5C 1067.66,229.39 1075.99,217.056 1092.5,210.5 Z M 1092.5,216.5 C 1103.72,215.734 1110.72,220.734 1113.5,231.5C 1102.83,232.833 1092.17,232.833 1081.5,231.5C 1083.02,224.749 1086.68,219.749 1092.5,216.5 Z"/></g>
<g><path style="opacity:1" fill="#aea1ce" d="M 372.5,180.5 C 375.963,183.415 379.63,186.249 383.5,189C 383.953,191.693 385.453,193.527 388,194.5C 392.755,204.67 398.089,214.67 404,224.5C 404.1,227.903 404.934,231.07 406.5,234C 405.663,235.011 405.33,236.178 405.5,237.5C 405.167,237.5 404.833,237.5 404.5,237.5C 400.053,222.94 393.22,209.606 384,197.5C 382.91,188.906 378.077,184.906 369.5,185.5C 369.5,185.167 369.5,184.833 369.5,184.5C 370.512,183.128 371.512,181.795 372.5,180.5 Z"/></g>
<g><path style="opacity:1" fill="#baadd5" d="M 369.5,185.5 C 378.077,184.906 382.91,188.906 384,197.5C 393.22,209.606 400.053,222.94 404.5,237.5C 402.771,238.236 401.771,239.57 401.5,241.5C 400.833,241.5 400.5,241.167 400.5,240.5C 400.5,239.833 400.5,239.167 400.5,238.5C 400.242,233.636 399.075,228.97 397,224.5C 391.586,214.669 385.919,205.002 380,195.5C 377.793,192.436 374.959,190.436 371.5,189.5C 370.4,188.395 369.733,187.062 369.5,185.5 Z"/></g>
<g><path style="opacity:1" fill="#c4d1ec" d="M 288.5,264.5 C 289.488,265.795 290.488,267.128 291.5,268.5C 292.028,269.721 292.695,270.887 293.5,272C 291.386,273.518 289.053,273.851 286.5,273C 267.135,262.319 247.802,251.652 228.5,241C 224.504,239.25 220.337,238.083 216,237.5C 214.019,237.899 212.519,238.899 211.5,240.5C 210.833,240.5 210.167,240.5 209.5,240.5C 211.226,238.772 212.559,236.772 213.5,234.5C 213.5,233.833 213.833,233.5 214.5,233.5C 219.164,232.855 223.831,233.355 228.5,235C 246.468,244.986 264.468,254.986 282.5,265C 284.712,265.789 286.712,265.622 288.5,264.5 Z"/></g>
<g><path style="opacity:1" fill="#9c4694" d="M 413.5,232.5 C 413.833,232.5 414.167,232.5 414.5,232.5C 415.492,235.779 415.659,239.112 415,242.5C 414.354,247.16 412.521,251.16 409.5,254.5C 408.11,253.101 407.11,251.434 406.5,249.5C 407.554,244.893 408.221,240.227 408.5,235.5C 410.332,234.752 411.999,233.752 413.5,232.5 Z"/></g>
<g><path style="opacity:1" fill="#a75fa2" d="M 408.5,235.5 C 408.221,240.227 407.554,244.893 406.5,249.5C 406.167,249.5 405.833,249.5 405.5,249.5C 405.25,247.326 404.25,245.659 402.5,244.5C 402.443,243.391 402.11,242.391 401.5,241.5C 401.771,239.57 402.771,238.236 404.5,237.5C 404.833,237.5 405.167,237.5 405.5,237.5C 406.5,236.833 407.5,236.167 408.5,235.5 Z"/></g>
<g><path style="opacity:1" fill="#dac2de" d="M 400.5,240.5 C 400.5,241.167 400.833,241.5 401.5,241.5C 402.11,242.391 402.443,243.391 402.5,244.5C 400.872,249.969 397.539,254.135 392.5,257C 373.769,268.027 355.102,279.027 336.5,290C 335.117,291.271 334.117,292.771 333.5,294.5C 331.833,294.5 330.167,294.5 328.5,294.5C 328.139,292.395 329.139,290.562 331.5,289C 337.16,286.171 342.494,282.838 347.5,279C 348.448,278.517 349.448,278.351 350.5,278.5C 350.33,277.178 350.663,276.011 351.5,275C 365.223,267.765 378.557,259.931 391.5,251.5C 394.663,248.683 396.996,245.35 398.5,241.5C 399.167,241.167 399.833,240.833 400.5,240.5 Z"/></g>
<g><path style="opacity:1" fill="#d3b4d7" d="M 402.5,244.5 C 404.25,245.659 405.25,247.326 405.5,249.5C 403.046,253.789 399.712,257.289 395.5,260C 380.599,268.947 365.599,277.613 350.5,286C 346.538,288.14 343.204,290.973 340.5,294.5C 339.5,294.5 338.5,294.5 337.5,294.5C 336.167,294.5 334.833,294.5 333.5,294.5C 334.117,292.771 335.117,291.271 336.5,290C 355.102,279.027 373.769,268.027 392.5,257C 397.539,254.135 400.872,249.969 402.5,244.5 Z"/></g>
<g><path style="opacity:1" fill="#cdaad0" d="M 405.5,249.5 C 405.833,249.5 406.167,249.5 406.5,249.5C 407.11,251.434 408.11,253.101 409.5,254.5C 409.5,255.167 409.5,255.833 409.5,256.5C 405.759,260.218 401.759,263.718 397.5,267C 382.07,275.703 367.07,284.87 352.5,294.5C 348.5,294.5 344.5,294.5 340.5,294.5C 343.204,290.973 346.538,288.14 350.5,286C 365.599,277.613 380.599,268.947 395.5,260C 399.712,257.289 403.046,253.789 405.5,249.5 Z"/></g>
<g><path style="opacity:1" fill="#caa3cc" d="M 409.5,256.5 C 417.335,268.832 424.668,281.498 431.5,294.5C 405.167,294.5 378.833,294.5 352.5,294.5C 367.07,284.87 382.07,275.703 397.5,267C 401.759,263.718 405.759,260.218 409.5,256.5 Z"/></g>
<g><path style="opacity:1" fill="#a2bee5" d="M 206.5,246.5 C 201.404,255.701 196.07,264.701 190.5,273.5C 192.377,267.766 194.544,262.1 197,256.5C 199.392,253.772 201.392,250.772 203,247.5C 204.011,246.663 205.178,246.33 206.5,246.5 Z"/></g>
<g><path style="opacity:1" fill="#609cd4" d="M 201.5,234.5 C 203.05,235.441 204.716,236.107 206.5,236.5C 202.25,240.927 198.083,245.593 194,250.5C 189.296,258.588 184.63,266.588 180,274.5C 178.403,278.269 176.57,281.936 174.5,285.5C 175.407,288.421 175.74,291.421 175.5,294.5C 174.5,294.5 173.5,294.5 172.5,294.5C 173.559,289.989 173.559,285.489 172.5,281C 177.168,270.499 182.501,260.332 188.5,250.5C 192.861,245.066 197.194,239.733 201.5,234.5 Z"/></g>
<g><path style="opacity:1" fill="#dde5f6" d="M 305.5,193.5 C 305.667,227.168 305.5,260.835 305,294.5C 276.689,278.266 248.522,261.933 220.5,245.5C 222.655,245.372 224.655,245.872 226.5,247C 246.856,259.179 267.523,270.846 288.5,282C 291.634,283.252 294.634,283.252 297.5,282C 297.876,280.16 299.043,278.327 301,276.5C 301.333,273.5 301.667,270.5 302,267.5C 302.333,244.5 302.667,221.5 303,198.5C 303.757,196.685 304.59,195.019 305.5,193.5 Z"/></g>
<g><path style="opacity:1" fill="#d2ddf2" d="M 305.5,189.5 C 305.5,190.833 305.5,192.167 305.5,193.5C 304.59,195.019 303.757,196.685 303,198.5C 302.667,221.5 302.333,244.5 302,267.5C 301.667,270.5 301.333,273.5 301,276.5C 299.043,278.327 297.876,280.16 297.5,282C 294.634,283.252 291.634,283.252 288.5,282C 267.523,270.846 246.856,259.179 226.5,247C 224.655,245.872 222.655,245.372 220.5,245.5C 217.331,244.083 214.331,242.417 211.5,240.5C 217.838,241.431 224.172,242.597 230.5,244C 247.964,254.075 265.631,264.075 283.5,274C 285.96,274.981 288.46,275.815 291,276.5C 292.911,275.593 294.744,275.593 296.5,276.5C 297.584,275.335 298.417,274.002 299,272.5C 299.15,248.814 299.816,225.147 301,201.5C 300.994,196.802 302.494,192.802 305.5,189.5 Z"/></g>
<g><path style="opacity:1" fill="#78a9db" d="M 213.5,234.5 C 212.559,236.772 211.226,238.772 209.5,240.5C 209.068,241.71 208.401,242.71 207.5,243.5C 204.357,244.134 201.857,245.8 200,248.5C 197.974,252.044 195.808,255.544 193.5,259C 192.061,261.705 191.061,264.538 190.5,267.5C 189.325,267.281 188.325,267.614 187.5,268.5C 184.579,274.13 181.745,279.797 179,285.5C 178.503,288.146 178.336,290.813 178.5,293.5C 178.5,294.5 178.5,295.5 178.5,296.5C 177.833,297.833 177.167,299.167 176.5,300.5C 174.992,302.181 173.992,304.181 173.5,306.5C 172.167,308.167 170.833,309.833 169.5,311.5C 166.462,306.201 165.462,300.534 166.5,294.5C 168.5,294.5 170.5,294.5 172.5,294.5C 173.5,294.5 174.5,294.5 175.5,294.5C 175.74,291.421 175.407,288.421 174.5,285.5C 176.57,281.936 178.403,278.269 180,274.5C 184.63,266.588 189.296,258.588 194,250.5C 198.083,245.593 202.25,240.927 206.5,236.5C 208.438,234.837 210.772,234.171 213.5,234.5 Z"/></g>
<g><path style="opacity:1" fill="#96b7e1" d="M 207.5,243.5 C 207.443,244.609 207.11,245.609 206.5,246.5C 205.178,246.33 204.011,246.663 203,247.5C 201.392,250.772 199.392,253.772 197,256.5C 194.544,262.1 192.377,267.766 190.5,273.5C 186.988,280.534 182.988,287.201 178.5,293.5C 178.336,290.813 178.503,288.146 179,285.5C 181.745,279.797 184.579,274.13 187.5,268.5C 188.325,267.614 189.325,267.281 190.5,267.5C 191.061,264.538 192.061,261.705 193.5,259C 195.808,255.544 197.974,252.044 200,248.5C 201.857,245.8 204.357,244.134 207.5,243.5 Z"/></g>
<g><path style="opacity:1" fill="#e4cbe3" d="M 328.5,294.5 C 330.167,294.5 331.833,294.5 333.5,294.5C 335.77,299.173 339.104,303.006 343.5,306C 361.363,316.095 379.03,326.428 396.5,337C 399.876,338.938 401.876,341.771 402.5,345.5C 402.167,346.833 401.833,348.167 401.5,349.5C 401.167,349.5 400.833,349.5 400.5,349.5C 400.5,349.167 400.5,348.833 400.5,348.5C 399.589,344.75 397.589,341.75 394.5,339.5C 375.57,328.038 356.57,316.871 337.5,306C 334.023,303.86 331.689,300.86 330.5,297C 330.833,296.667 331.167,296.333 331.5,296C 330.263,295.768 329.263,295.268 328.5,294.5 Z"/></g>
<g><path style="opacity:1" fill="#57a0d8" d="M 116.5,294.5 C 133.167,294.5 149.833,294.5 166.5,294.5C 165.462,300.534 166.462,306.201 169.5,311.5C 168.833,313.167 168.167,314.833 167.5,316.5C 151.392,343.048 136.059,370.048 121.5,397.5C 118.941,394 117.441,390 117,385.5C 116.5,355.168 116.333,324.835 116.5,294.5 Z"/></g>
<g><path style="opacity:1" fill="#dcbbda" d="M 337.5,294.5 C 338.5,294.5 339.5,294.5 340.5,294.5C 344.5,294.5 348.5,294.5 352.5,294.5C 378.833,294.5 405.167,294.5 431.5,294.5C 431.509,296.308 431.009,297.975 430,299.5C 422.245,312.405 414.745,325.405 407.5,338.5C 406.833,339.167 406.167,339.833 405.5,340.5C 400.59,335.095 394.924,330.595 388.5,327C 374.151,319.496 360.151,311.496 346.5,303C 343.878,301.087 342.878,298.754 343.5,296C 341.292,295.809 339.292,295.309 337.5,294.5 Z"/></g>
<g><path style="opacity:1" fill="#b3539a" d="M 433.5,295.5 C 453.833,295.5 474.167,295.5 494.5,295.5C 494.5,325.5 494.5,355.5 494.5,385.5C 494.139,389.915 492.806,393.915 490.5,397.5C 490.509,395.692 490.009,394.025 489,392.5C 469.971,360.438 451.471,328.104 433.5,295.5 Z"/></g>
<g><path style="opacity:0.815" fill="#a64292" d="M 432.5,294.5 C 453.5,294.5 474.5,294.5 495.5,294.5C 495.831,325.005 495.498,355.338 494.5,385.5C 494.5,355.5 494.5,325.5 494.5,295.5C 474.167,295.5 453.833,295.5 433.5,295.5C 432.833,295.5 432.5,295.167 432.5,294.5 Z"/></g>
<g><path style="opacity:1" fill="#c481b6" d="M 431.5,294.5 C 431.833,294.5 432.167,294.5 432.5,294.5C 432.5,295.167 432.833,295.5 433.5,295.5C 451.471,328.104 469.971,360.438 489,392.5C 490.009,394.025 490.509,395.692 490.5,397.5C 490.34,399.153 489.674,400.486 488.5,401.5C 487.358,399.567 485.692,398.067 483.5,397C 459.442,383.645 435.775,369.811 412.5,355.5C 412.64,349.259 410.974,343.592 407.5,338.5C 414.745,325.405 422.245,312.405 430,299.5C 431.009,297.975 431.509,296.308 431.5,294.5 Z"/></g>
<g><path style="opacity:1" fill="#e5e6f4" d="M 305.5,313.5 C 304.31,311.645 302.977,309.812 301.5,308C 298.167,307.333 294.833,307.333 291.5,308C 274.337,317.414 257.337,327.08 240.5,337C 239.167,338.333 237.833,339.667 236.5,341C 229.966,344.122 223.3,346.622 216.5,348.5C 245.854,330.733 275.354,313.067 305,295.5C 305.499,301.491 305.666,307.491 305.5,313.5 Z"/></g>
<g><path style="opacity:1" fill="#e6d3e7" d="M 398.5,241.5 C 396.996,245.35 394.663,248.683 391.5,251.5C 378.557,259.931 365.223,267.765 351.5,275C 350.663,276.011 350.33,277.178 350.5,278.5C 349.448,278.351 348.448,278.517 347.5,279C 342.494,282.838 337.16,286.171 331.5,289C 329.139,290.562 328.139,292.395 328.5,294.5C 329.263,295.268 330.263,295.768 331.5,296C 331.167,296.333 330.833,296.667 330.5,297C 331.689,300.86 334.023,303.86 337.5,306C 356.57,316.871 375.57,328.038 394.5,339.5C 397.589,341.75 399.589,344.75 400.5,348.5C 395.976,346.957 391.976,344.623 388.5,341.5C 388.631,340.624 388.298,339.957 387.5,339.5C 368.009,328.487 348.675,317.32 329.5,306C 325.604,303.181 323.271,299.348 322.5,294.5C 325.816,288.354 330.816,284.187 337.5,282C 340.509,278.658 343.843,275.658 347.5,273C 359.987,265.476 372.653,258.476 385.5,252C 386.748,250.6 387.748,249.1 388.5,247.5C 391.833,245.5 395.167,243.5 398.5,241.5 Z"/></g>
<g><path style="opacity:1" fill="#ddd8ed" d="M 305.5,394.5 C 305.5,396.5 305.5,398.5 305.5,400.5C 304.768,399.192 303.934,397.858 303,396.5C 302.913,370.474 302.246,344.474 301,318.5C 299.841,315.507 297.675,313.84 294.5,313.5C 295.122,312.373 295.955,311.373 297,310.5C 298.584,311.861 300.418,312.528 302.5,312.5C 302.687,314.564 303.187,316.564 304,318.5C 304.168,344.003 304.668,369.337 305.5,394.5 Z"/></g>
<g><path style="opacity:1" fill="#94bbe4" d="M 173.5,306.5 C 173.338,308.527 173.505,310.527 174,312.5C 176.435,315.934 178.435,319.6 180,323.5C 181.333,324.167 182.667,324.833 184,325.5C 188.832,334.501 194.165,343.168 200,351.5C 201.11,353.037 202.61,353.703 204.5,353.5C 203.167,354.5 201.833,355.5 200.5,356.5C 198.313,357.758 195.98,358.758 193.5,359.5C 191.546,356.707 189.379,354.041 187,351.5C 180.239,339.924 173.739,328.257 167.5,316.5C 168.167,314.833 168.833,313.167 169.5,311.5C 170.833,309.833 172.167,308.167 173.5,306.5 Z"/></g>
<g><path style="opacity:1" fill="#ecdeee" d="M 388.5,247.5 C 387.748,249.1 386.748,250.6 385.5,252C 372.653,258.476 359.987,265.476 347.5,273C 343.843,275.658 340.509,278.658 337.5,282C 330.816,284.187 325.816,288.354 322.5,294.5C 323.271,299.348 325.604,303.181 329.5,306C 348.675,317.32 368.009,328.487 387.5,339.5C 388.298,339.957 388.631,340.624 388.5,341.5C 361.059,326.277 333.726,310.777 306.5,295C 333.721,278.939 361.054,263.106 388.5,247.5 Z"/></g>
<g><path style="opacity:1" fill="#d7d1e9" d="M 294.5,313.5 C 297.675,313.84 299.841,315.507 301,318.5C 302.246,344.474 302.913,370.474 303,396.5C 303.934,397.858 304.768,399.192 305.5,400.5C 305.5,401.5 305.5,402.5 305.5,403.5C 304.504,403.586 303.671,403.252 303,402.5C 302,398.5 301,394.5 300,390.5C 299.667,367.833 299.333,345.167 299,322.5C 298.285,319.359 296.452,317.359 293.5,316.5C 294.11,315.609 294.443,314.609 294.5,313.5 Z"/></g>
<g><path style="opacity:1" fill="#8cb6e2" d="M 167.5,316.5 C 173.739,328.257 180.239,339.924 187,351.5C 189.379,354.041 191.546,356.707 193.5,359.5C 170.332,373.921 146.665,387.588 122.5,400.5C 121.89,399.609 121.557,398.609 121.5,397.5C 136.059,370.048 151.392,343.048 167.5,316.5 Z"/></g>
<g><path style="opacity:1" fill="#ddddf0" d="M 305.5,313.5 C 305.5,340.5 305.5,367.5 305.5,394.5C 304.668,369.337 304.168,344.003 304,318.5C 303.187,316.564 302.687,314.564 302.5,312.5C 300.418,312.528 298.584,311.861 297,310.5C 295.955,311.373 295.122,312.373 294.5,313.5C 288.173,315.329 281.84,317.162 275.5,319C 268.771,324.061 261.771,328.728 254.5,333C 251.412,334.875 248.079,336.208 244.5,337C 239.833,340.667 235.167,344.333 230.5,348C 225.792,349.168 221.125,350.668 216.5,352.5C 214.793,352.272 213.126,351.938 211.5,351.5C 210.833,351.5 210.5,351.167 210.5,350.5C 212.703,350.396 214.703,349.73 216.5,348.5C 223.3,346.622 229.966,344.122 236.5,341C 237.833,339.667 239.167,338.333 240.5,337C 257.337,327.08 274.337,317.414 291.5,308C 294.833,307.333 298.167,307.333 301.5,308C 302.977,309.812 304.31,311.645 305.5,313.5 Z"/></g>
<g><path style="opacity:1" fill="#d2cae6" d="M 293.5,316.5 C 296.452,317.359 298.285,319.359 299,322.5C 299.333,345.167 299.667,367.833 300,390.5C 301,394.5 302,398.5 303,402.5C 303.671,403.252 304.504,403.586 305.5,403.5C 305.5,403.833 305.5,404.167 305.5,404.5C 304.167,404.5 302.833,404.5 301.5,404.5C 301.5,403.833 301.167,403.5 300.5,403.5C 299.229,400.657 298.396,397.657 298,394.5C 297.667,373.5 297.333,352.5 297,331.5C 296.545,328.146 296.045,324.813 295.5,321.5C 293.833,321.5 292.167,321.5 290.5,321.5C 290.833,320.833 291.167,320.167 291.5,319.5C 292.167,318.5 292.833,317.5 293.5,316.5 Z"/></g>
<g><path style="opacity:0.916" fill="#000000" d="M 810.5,319.5 C 812.167,319.5 813.833,319.5 815.5,319.5C 815.5,327.167 815.5,334.833 815.5,342.5C 820.5,342.5 825.5,342.5 830.5,342.5C 830.5,344.833 830.5,347.167 830.5,349.5C 825.5,349.5 820.5,349.5 815.5,349.5C 815.333,365.503 815.5,381.503 816,397.5C 817.097,400.265 819.097,401.931 822,402.5C 824.707,401.563 827.207,400.23 829.5,398.5C 831.002,399.083 832.335,399.916 833.5,401C 827.156,410.56 818.489,413.56 807.5,410C 804.865,408.039 803.031,405.539 802,402.5C 801.5,384.836 801.333,367.17 801.5,349.5C 797.5,349.5 793.5,349.5 789.5,349.5C 789.5,347.833 789.5,346.167 789.5,344.5C 795.944,345.029 801.111,342.695 805,337.5C 807.946,331.83 809.779,325.83 810.5,319.5 Z"/></g>
<g><path style="opacity:1" fill="#b8d0ed" d="M 178.5,296.5 C 179.167,296.5 179.5,296.833 179.5,297.5C 180.683,301.423 181.683,305.423 182.5,309.5C 189.036,320.886 195.869,332.219 203,343.5C 204.451,345.464 206.284,346.797 208.5,347.5C 209.401,348.29 210.068,349.29 210.5,350.5C 208.95,351.441 207.284,352.107 205.5,352.5C 202.502,349.333 199.669,346 197,342.5C 192.919,333.998 188.086,325.998 182.5,318.5C 179.511,312.867 177.511,306.867 176.5,300.5C 177.167,299.167 177.833,297.833 178.5,296.5 Z"/></g>
<g><path style="opacity:1" fill="#e0c4df" d="M 333.5,294.5 C 334.833,294.5 336.167,294.5 337.5,294.5C 339.292,295.309 341.292,295.809 343.5,296C 342.878,298.754 343.878,301.087 346.5,303C 360.151,311.496 374.151,319.496 388.5,327C 394.924,330.595 400.59,335.095 405.5,340.5C 404.89,342.434 403.89,344.101 402.5,345.5C 401.876,341.771 399.876,338.938 396.5,337C 379.03,326.428 361.363,316.095 343.5,306C 339.104,303.006 335.77,299.173 333.5,294.5 Z"/></g>
<g><path style="opacity:1" fill="#a6c5e9" d="M 176.5,300.5 C 177.511,306.867 179.511,312.867 182.5,318.5C 188.086,325.998 192.919,333.998 197,342.5C 199.669,346 202.502,349.333 205.5,352.5C 205.5,353.167 205.167,353.5 204.5,353.5C 202.61,353.703 201.11,353.037 200,351.5C 194.165,343.168 188.832,334.501 184,325.5C 182.667,324.833 181.333,324.167 180,323.5C 178.435,319.6 176.435,315.934 174,312.5C 173.505,310.527 173.338,308.527 173.5,306.5C 173.992,304.181 174.992,302.181 176.5,300.5 Z"/></g>
<g><path style="opacity:1" fill="#c8d9f1" d="M 179.5,297.5 C 189.668,313.831 199.335,330.498 208.5,347.5C 206.284,346.797 204.451,345.464 203,343.5C 195.869,332.219 189.036,320.886 182.5,309.5C 181.683,305.423 180.683,301.423 179.5,297.5 Z"/></g>
<g><path style="opacity:1" fill="#ccc4e2" d="M 290.5,321.5 C 292.167,321.5 293.833,321.5 295.5,321.5C 296.045,324.813 296.545,328.146 297,331.5C 297.333,352.5 297.667,373.5 298,394.5C 298.396,397.657 299.229,400.657 300.5,403.5C 299.022,403.762 297.689,403.429 296.5,402.5C 295.349,398.577 294.515,394.577 294,390.5C 293.667,370.5 293.333,350.5 293,330.5C 292.688,327.691 291.188,326.024 288.5,325.5C 288.733,323.938 289.4,322.605 290.5,321.5 Z"/></g>
<g><path style="opacity:1" fill="#c5c9e7" d="M 291.5,319.5 C 291.167,320.167 290.833,320.833 290.5,321.5C 289.4,322.605 288.733,323.938 288.5,325.5C 287.833,326.167 287.167,326.833 286.5,327.5C 285.127,327.343 283.793,327.51 282.5,328C 271.61,334.119 260.943,340.286 250.5,346.5C 242.699,351.237 234.699,355.737 226.5,360C 223.211,361.695 219.878,361.862 216.5,360.5C 215.833,359.167 215.167,357.833 214.5,356.5C 219.046,356.732 223.379,355.899 227.5,354C 245.835,343.835 263.835,333.168 281.5,322C 284.72,320.648 288.053,319.814 291.5,319.5 Z"/></g>
<g><path style="opacity:0.906" fill="#000000" d="M 553.5,322.5 C 559.093,322.193 564.593,322.527 570,323.5C 580.243,345.652 590.743,367.652 601.5,389.5C 611.603,367.627 621.436,345.627 631,323.5C 633.795,322.217 636.628,322.217 639.5,323.5C 626.26,353.059 612.926,382.559 599.5,412C 597.888,412.72 596.388,412.554 595,411.5C 580.602,382.041 566.769,352.375 553.5,322.5 Z"/></g>
<g><path style="opacity:1" fill="#d0d3ec" d="M 294.5,313.5 C 294.443,314.609 294.11,315.609 293.5,316.5C 292.833,317.5 292.167,318.5 291.5,319.5C 288.053,319.814 284.72,320.648 281.5,322C 263.835,333.168 245.835,343.835 227.5,354C 223.379,355.899 219.046,356.732 214.5,356.5C 213.248,354.999 212.248,353.332 211.5,351.5C 213.126,351.938 214.793,352.272 216.5,352.5C 221.125,350.668 225.792,349.168 230.5,348C 235.167,344.333 239.833,340.667 244.5,337C 248.079,336.208 251.412,334.875 254.5,333C 261.771,328.728 268.771,324.061 275.5,319C 281.84,317.162 288.173,315.329 294.5,313.5 Z"/></g>
<g><path style="opacity:1" fill="#c2b8dc" d="M 288.5,325.5 C 291.188,326.024 292.688,327.691 293,330.5C 293.333,350.5 293.667,370.5 294,390.5C 294.515,394.577 295.349,398.577 296.5,402.5C 297.689,403.429 299.022,403.762 300.5,403.5C 301.167,403.5 301.5,403.833 301.5,404.5C 300.167,404.5 298.833,404.5 297.5,404.5C 295.5,404.5 293.5,404.5 291.5,404.5C 275.5,404.5 259.5,404.5 243.5,404.5C 242.833,404.5 242.167,404.5 241.5,404.5C 241.5,404.167 241.5,403.833 241.5,403.5C 243.433,402.358 244.933,400.692 246,398.5C 259.512,374.806 273.012,351.139 286.5,327.5C 287.167,326.833 287.833,326.167 288.5,325.5 Z"/></g>
<g><path style="opacity:1" fill="#babfe2" d="M 286.5,327.5 C 273.012,351.139 259.512,374.806 246,398.5C 244.933,400.692 243.433,402.358 241.5,403.5C 233.419,389.003 225.086,374.669 216.5,360.5C 219.878,361.862 223.211,361.695 226.5,360C 234.699,355.737 242.699,351.237 250.5,346.5C 260.943,340.286 271.61,334.119 282.5,328C 283.793,327.51 285.127,327.343 286.5,327.5 Z"/></g>
<g><path style="opacity:1" fill="#cb93c1" d="M 407.5,338.5 C 410.974,343.592 412.64,349.259 412.5,355.5C 411.833,355.5 411.167,355.5 410.5,355.5C 409.205,354.512 407.872,353.512 406.5,352.5C 405.609,351.89 404.609,351.557 403.5,351.5C 402.833,350.833 402.167,350.167 401.5,349.5C 401.833,348.167 402.167,346.833 402.5,345.5C 403.89,344.101 404.89,342.434 405.5,340.5C 406.167,339.833 406.833,339.167 407.5,338.5 Z"/></g>
<g><path style="opacity:0.894" fill="#000000" d="M 665.5,341.5 C 682.214,338.607 694.381,344.607 702,359.5C 703.237,363.06 703.737,366.727 703.5,370.5C 687.167,370.5 670.833,370.5 654.5,370.5C 654.058,386.667 661.558,396.667 677,400.5C 683.992,399.949 690.159,397.449 695.5,393C 697.704,389.972 700.038,387.138 702.5,384.5C 704.266,384.434 705.266,385.268 705.5,387C 696.979,407.427 681.979,414.76 660.5,409C 647.44,403.052 640.773,392.885 640.5,378.5C 640.655,360.39 648.989,348.056 665.5,341.5 Z M 665.5,347.5 C 676.72,346.734 683.72,351.734 686.5,362.5C 675.833,363.833 665.167,363.833 654.5,362.5C 656.018,355.749 659.684,350.749 665.5,347.5 Z"/></g>
<g><path style="opacity:0.947" fill="#000000" d="M 754.5,341.5 C 765.386,339.358 772.886,343.358 777,353.5C 778.448,372.112 778.948,390.778 778.5,409.5C 773.833,409.5 769.167,409.5 764.5,409.5C 764.667,393.497 764.5,377.497 764,361.5C 763.234,355.233 759.734,351.899 753.5,351.5C 746.783,352.775 740.95,355.775 736,360.5C 735.5,376.83 735.333,393.163 735.5,409.5C 730.833,409.5 726.167,409.5 721.5,409.5C 721.5,387.167 721.5,364.833 721.5,342.5C 726.167,342.5 730.833,342.5 735.5,342.5C 735.335,346.182 735.501,349.848 736,353.5C 741.044,347.595 747.211,343.595 754.5,341.5 Z"/></g>
<g><path style="opacity:0.94" fill="#000000" d="M 949.5,341.5 C 957.671,339.414 963.004,342.248 965.5,350C 965.248,352.809 963.915,354.809 961.5,356C 958.5,356.667 955.5,356.667 952.5,356C 949.976,354.487 947.309,353.82 944.5,354C 941.334,356.802 938.501,359.969 936,363.5C 935.5,378.83 935.333,394.163 935.5,409.5C 930.833,409.5 926.167,409.5 921.5,409.5C 921.5,387.167 921.5,364.833 921.5,342.5C 926.167,342.5 930.833,342.5 935.5,342.5C 935.335,346.182 935.501,349.848 936,353.5C 939.454,348.206 943.954,344.206 949.5,341.5 Z"/></g>
<g><path style="opacity:0.894" fill="#000000" d="M 997.5,341.5 C 1014.21,338.607 1026.38,344.607 1034,359.5C 1035.24,363.06 1035.74,366.727 1035.5,370.5C 1019.17,370.5 1002.83,370.5 986.5,370.5C 986.058,386.667 993.558,396.667 1009,400.5C 1015.99,399.949 1022.16,397.449 1027.5,393C 1029.7,389.972 1032.04,387.138 1034.5,384.5C 1036.27,384.434 1037.27,385.268 1037.5,387C 1028.98,407.427 1013.98,414.76 992.5,409C 979.44,403.052 972.773,392.885 972.5,378.5C 972.655,360.39 980.989,348.056 997.5,341.5 Z M 997.5,347.5 C 1008.72,346.734 1015.72,351.734 1018.5,362.5C 1007.83,363.833 997.167,363.833 986.5,362.5C 988.018,355.749 991.684,350.749 997.5,347.5 Z"/></g>
<g><path style="opacity:0.899" fill="#000000" d="M 1066.5,341.5 C 1079.79,338.755 1090.12,342.921 1097.5,354C 1096,355.662 1094.34,357.162 1092.5,358.5C 1087.93,351.715 1081.6,347.715 1073.5,346.5C 1066.09,346.746 1062.26,350.413 1062,357.5C 1063.12,359.624 1064.62,361.457 1066.5,363C 1074.01,366.923 1081.68,370.59 1089.5,374C 1100.98,381.103 1103.48,390.603 1097,402.5C 1092.93,407.285 1087.76,410.119 1081.5,411C 1067.97,413.724 1057.31,409.557 1049.5,398.5C 1050.87,396.295 1052.7,394.628 1055,393.5C 1058.47,397.299 1062.3,400.799 1066.5,404C 1071.53,405.939 1076.53,405.939 1081.5,404C 1088.02,398.71 1088.02,393.376 1081.5,388C 1073.37,383.851 1065.37,379.518 1057.5,375C 1047.57,363.603 1048.57,353.27 1060.5,344C 1062.72,343.434 1064.72,342.6 1066.5,341.5 Z"/></g>
<g><path style="opacity:0.943" fill="#000000" d="M 844.5,342.5 C 849.167,342.5 853.833,342.5 858.5,342.5C 858.333,358.837 858.5,375.17 859,391.5C 864.265,402.076 872.098,404.243 882.5,398C 884.709,396.127 886.542,393.96 888,391.5C 888.5,375.17 888.667,358.837 888.5,342.5C 893.167,342.5 897.833,342.5 902.5,342.5C 902.5,364.833 902.5,387.167 902.5,409.5C 897.833,409.5 893.167,409.5 888.5,409.5C 888.665,406.15 888.498,402.817 888,399.5C 879.345,410.387 868.512,413.554 855.5,409C 849.921,405.677 846.421,400.844 845,394.5C 844.5,377.17 844.333,359.837 844.5,342.5 Z"/></g>
<g><path style="opacity:1" fill="#f6c3db" d="M 406.5,352.5 C 407.872,353.512 409.205,354.512 410.5,355.5C 409.933,360.82 408.6,365.986 406.5,371C 400.419,381.829 394.086,392.496 387.5,403C 385.942,403.21 384.609,403.71 383.5,404.5C 382.448,404.351 381.448,404.517 380.5,405C 377.986,407.415 375.319,409.581 372.5,411.5C 371.512,410.205 370.512,408.872 369.5,407.5C 369.5,407.167 369.5,406.833 369.5,406.5C 369.611,405.883 369.944,405.383 370.5,405C 373.513,404.498 376.513,403.998 379.5,403.5C 382.477,400.965 385.477,398.299 388.5,395.5C 394.828,384.848 400.661,373.848 406,362.5C 406.498,359.183 406.665,355.85 406.5,352.5 Z"/></g>
<g><path style="opacity:1" fill="#9aa4d3" d="M 210.5,350.5 C 210.5,351.167 210.833,351.5 211.5,351.5C 212.248,353.332 213.248,354.999 214.5,356.5C 215.167,357.833 215.833,359.167 216.5,360.5C 213.813,360.664 211.146,360.497 208.5,360C 205.89,358.519 203.223,357.352 200.5,356.5C 201.833,355.5 203.167,354.5 204.5,353.5C 205.167,353.5 205.5,353.167 205.5,352.5C 207.284,352.107 208.95,351.441 210.5,350.5 Z"/></g>
<g><path style="opacity:1" fill="#faddeb" d="M 398.5,354.5 C 398.656,358.582 398.156,362.582 397,366.5C 392.413,374.004 388.08,381.671 384,389.5C 380.882,394.286 377.382,398.786 373.5,403C 372.207,403.49 370.873,403.657 369.5,403.5C 369.5,402.833 369.833,402.5 370.5,402.5C 375.556,398.275 379.722,393.275 383,387.5C 387.006,380.131 391.006,372.797 395,365.5C 395.822,362.883 396.322,360.216 396.5,357.5C 396.932,356.29 397.599,355.29 398.5,354.5 Z"/></g>
<g><path style="opacity:1" fill="#fbe5f0" d="M 396.5,357.5 C 396.322,360.216 395.822,362.883 395,365.5C 391.006,372.797 387.006,380.131 383,387.5C 379.722,393.275 375.556,398.275 370.5,402.5C 378.917,387.329 387.584,372.329 396.5,357.5 Z"/></g>
<g><path style="opacity:1" fill="#f5bad6" d="M 410.5,355.5 C 411.167,355.5 411.833,355.5 412.5,355.5C 435.775,369.811 459.442,383.645 483.5,397C 485.692,398.067 487.358,399.567 488.5,401.5C 488.573,403.027 487.906,404.027 486.5,404.5C 455.167,404.5 423.833,404.5 392.5,404.5C 389.5,404.5 386.5,404.5 383.5,404.5C 384.609,403.71 385.942,403.21 387.5,403C 394.086,392.496 400.419,381.829 406.5,371C 408.6,365.986 409.933,360.82 410.5,355.5 Z"/></g>
<g><path style="opacity:1" fill="#7f8fc7" d="M 200.5,356.5 C 203.223,357.352 205.89,358.519 208.5,360C 211.146,360.497 213.813,360.664 216.5,360.5C 225.086,374.669 233.419,389.003 241.5,403.5C 241.5,403.833 241.5,404.167 241.5,404.5C 202.833,404.5 164.167,404.5 125.5,404.5C 124.026,403.564 123.026,402.23 122.5,400.5C 146.665,387.588 170.332,373.921 193.5,359.5C 195.98,358.758 198.313,357.758 200.5,356.5 Z"/></g>
<g><path style="opacity:1" fill="#f7cbe0" d="M 403.5,351.5 C 404.609,351.557 405.609,351.89 406.5,352.5C 406.665,355.85 406.498,359.183 406,362.5C 400.661,373.848 394.828,384.848 388.5,395.5C 385.477,398.299 382.477,400.965 379.5,403.5C 387.268,391.889 394.435,379.889 401,367.5C 402.962,362.344 403.795,357.011 403.5,351.5 Z"/></g>
<g><path style="opacity:1" fill="#f9d5e7" d="M 400.5,349.5 C 400.833,349.5 401.167,349.5 401.5,349.5C 402.167,350.167 402.833,350.833 403.5,351.5C 403.795,357.011 402.962,362.344 401,367.5C 394.435,379.889 387.268,391.889 379.5,403.5C 376.513,403.998 373.513,404.498 370.5,405C 369.944,405.383 369.611,405.883 369.5,406.5C 368.833,406.5 368.5,406.167 368.5,405.5C 368.5,405.167 368.5,404.833 368.5,404.5C 369.167,404.5 369.5,404.167 369.5,403.5C 370.873,403.657 372.207,403.49 373.5,403C 377.382,398.786 380.882,394.286 384,389.5C 388.08,381.671 392.413,374.004 397,366.5C 398.156,362.582 398.656,358.582 398.5,354.5C 398.893,352.716 399.559,351.05 400.5,349.5 Z"/></g>
<g><path style="opacity:0.981" fill="#526cb2" d="M 125.5,404.5 C 164.167,404.5 202.833,404.5 241.5,404.5C 231.669,422.834 221.336,440.834 210.5,458.5C 185.059,444.277 159.725,429.777 134.5,415C 130.893,411.902 127.893,408.402 125.5,404.5 Z"/></g>
<g><path style="opacity:1" fill="#7f6aad" d="M 243.5,404.5 C 259.5,404.5 275.5,404.5 291.5,404.5C 293.314,412.315 297.981,417.648 305.5,420.5C 305.5,449.167 305.5,477.833 305.5,506.5C 302.941,506.802 300.607,506.468 298.5,505.5C 299.376,505.631 300.043,505.298 300.5,504.5C 281.444,471.132 262.444,437.799 243.5,404.5 Z"/></g>
<g><path style="opacity:1" fill="#8774b3" d="M 291.5,404.5 C 293.5,404.5 295.5,404.5 297.5,404.5C 299.708,408.277 302.375,411.61 305.5,414.5C 305.5,416.5 305.5,418.5 305.5,420.5C 297.981,417.648 293.314,412.315 291.5,404.5 Z"/></g>
<g><path style="opacity:1" fill="#9686be" d="M 297.5,404.5 C 298.833,404.5 300.167,404.5 301.5,404.5C 302.833,404.5 304.167,404.5 305.5,404.5C 305.833,404.5 306.167,404.5 306.5,404.5C 306.5,404.833 306.5,405.167 306.5,405.5C 306.5,406.5 306.5,407.5 306.5,408.5C 306.5,410.167 306.5,411.833 306.5,413.5C 306.5,413.833 306.5,414.167 306.5,414.5C 306.167,414.5 305.833,414.5 305.5,414.5C 302.375,411.61 299.708,408.277 297.5,404.5 Z"/></g>
<g><path style="opacity:1" fill="#f2a7ca" d="M 383.5,404.5 C 386.5,404.5 389.5,404.5 392.5,404.5C 389.01,411.23 384.01,416.564 377.5,420.5C 376.18,418.537 374.846,416.537 373.5,414.5C 373.167,413.833 372.833,413.167 372.5,412.5C 372.5,412.167 372.5,411.833 372.5,411.5C 375.319,409.581 377.986,407.415 380.5,405C 381.448,404.517 382.448,404.351 383.5,404.5 Z"/></g>
<g><path style="opacity:0.98" fill="#f19fc5" d="M 392.5,404.5 C 423.833,404.5 455.167,404.5 486.5,404.5C 483.377,409.457 479.377,413.624 474.5,417C 449.278,431.728 423.945,446.228 398.5,460.5C 398.245,457.984 397.411,455.65 396,453.5C 389.302,442.769 383.136,431.769 377.5,420.5C 384.01,416.564 389.01,411.23 392.5,404.5 Z"/></g>
<g><path style="opacity:1" fill="#705ba3" d="M 241.5,404.5 C 242.167,404.5 242.833,404.5 243.5,404.5C 262.444,437.799 281.444,471.132 300.5,504.5C 300.043,505.298 299.376,505.631 298.5,505.5C 290.927,504.697 283.927,502.197 277.5,498C 254.997,484.97 232.664,471.803 210.5,458.5C 221.336,440.834 231.669,422.834 241.5,404.5 Z"/></g>
<g><path style="opacity:1" fill="#c3cae7" d="M 311.5,404.5 C 330.5,404.5 349.5,404.5 368.5,404.5C 368.5,404.833 368.5,405.167 368.5,405.5C 365.753,406.966 362.753,407.799 359.5,408C 345.833,408.667 332.167,408.667 318.5,408C 315.558,407.856 313.224,406.689 311.5,404.5 Z"/></g>
<g><path style="opacity:1" fill="#b2bbe1" d="M 306.5,405.5 C 306.5,405.167 306.5,404.833 306.5,404.5C 308.167,404.5 309.833,404.5 311.5,404.5C 313.224,406.689 315.558,407.856 318.5,408C 332.167,408.667 345.833,408.667 359.5,408C 362.753,407.799 365.753,406.966 368.5,405.5C 368.5,406.167 368.833,406.5 369.5,406.5C 369.5,406.833 369.5,407.167 369.5,407.5C 367.596,407.738 366.262,408.738 365.5,410.5C 348.854,411.592 332.187,411.759 315.5,411C 312.322,409.294 309.322,407.461 306.5,405.5 Z"/></g>
<g><path style="opacity:1" fill="#a2aeda" d="M 306.5,405.5 C 309.322,407.461 312.322,409.294 315.5,411C 332.187,411.759 348.854,411.592 365.5,410.5C 364.277,412.772 362.277,413.939 359.5,414C 346.167,414.667 332.833,414.667 319.5,414C 314.603,413.211 310.27,411.377 306.5,408.5C 306.5,407.5 306.5,406.5 306.5,405.5 Z"/></g>
<g><path style="opacity:1" fill="#96a5d4" d="M 369.5,407.5 C 370.512,408.872 371.512,410.205 372.5,411.5C 372.5,411.833 372.5,412.167 372.5,412.5C 367.92,413.23 363.587,414.73 359.5,417C 346.167,417.667 332.833,417.667 319.5,417C 314.843,416.887 310.51,415.72 306.5,413.5C 306.5,411.833 306.5,410.167 306.5,408.5C 310.27,411.377 314.603,413.211 319.5,414C 332.833,414.667 346.167,414.667 359.5,414C 362.277,413.939 364.277,412.772 365.5,410.5C 366.262,408.738 367.596,407.738 369.5,407.5 Z"/></g>
<g><path style="opacity:1" fill="#889acf" d="M 372.5,412.5 C 372.833,413.167 373.167,413.833 373.5,414.5C 369.752,416.273 365.752,417.44 361.5,418C 360.364,419.145 359.364,420.312 358.5,421.5C 345.496,421.667 332.496,421.5 319.5,421C 315.032,420.735 310.698,419.901 306.5,418.5C 306.5,417.167 306.5,415.833 306.5,414.5C 306.5,414.167 306.5,413.833 306.5,413.5C 310.51,415.72 314.843,416.887 319.5,417C 332.833,417.667 346.167,417.667 359.5,417C 363.587,414.73 367.92,413.23 372.5,412.5 Z"/></g>
<g><path style="opacity:0.984" fill="#817bb8" d="M 305.5,414.5 C 305.833,414.5 306.167,414.5 306.5,414.5C 306.5,415.833 306.5,417.167 306.5,418.5C 306.5,447.5 306.5,476.5 306.5,505.5C 307.833,505.5 309.167,505.5 310.5,505.5C 311.5,505.5 312.5,505.5 313.5,505.5C 311.052,506.473 308.385,506.806 305.5,506.5C 305.5,477.833 305.5,449.167 305.5,420.5C 305.5,418.5 305.5,416.5 305.5,414.5 Z"/></g>
<g><path style="opacity:1" fill="#7890c9" d="M 306.5,418.5 C 310.698,419.901 315.032,420.735 319.5,421C 332.496,421.5 345.496,421.667 358.5,421.5C 343.018,449.798 327.018,477.798 310.5,505.5C 309.167,505.5 307.833,505.5 306.5,505.5C 306.5,476.5 306.5,447.5 306.5,418.5 Z"/></g>
<g><path style="opacity:1" fill="#6984c1" d="M 373.5,414.5 C 374.846,416.537 376.18,418.537 377.5,420.5C 383.136,431.769 389.302,442.769 396,453.5C 397.411,455.65 398.245,457.984 398.5,460.5C 374.059,474.892 349.393,489.059 324.5,503C 320.986,504.562 317.319,505.395 313.5,505.5C 312.5,505.5 311.5,505.5 310.5,505.5C 327.018,477.798 343.018,449.798 358.5,421.5C 359.364,420.312 360.364,419.145 361.5,418C 365.752,417.44 369.752,416.273 373.5,414.5 Z"/></g>
</svg>
