<svg width="152" height="70" viewBox="0 0 152 70" fill="none" xmlns="http://www.w3.org/2000/svg">
<rect x="0.897461" width="150.206" height="70" rx="7.77778" fill="white"/>
<g clip-path="url(#clip0_83_2057)">
<path d="M41.4711 12C69.9594 12 98.4477 12.0207 126.936 12C127.667 12 127.845 12.1656 127.845 12.9524C127.806 18.2322 127.826 23.5119 127.826 28.7709C127.727 28.833 127.648 28.833 127.569 28.7709C127.41 28.5846 127.331 28.3568 127.233 28.1498C126.56 26.7418 125.651 26.2242 124.109 26.3692C122.784 26.5141 121.954 27.2802 121.539 28.5846C121.262 29.537 121.203 30.4894 121.539 31.4211C122.369 33.6987 125.196 34.1749 126.817 32.3322C127.114 32.0009 127.252 31.4419 127.826 31.4626C127.826 40.3656 127.826 49.248 127.826 58.1511C127.826 58.8551 127.687 59 127.015 59C98.3686 58.9793 69.7024 59 41.056 59C41.0164 58.8965 41.056 58.8137 41.1153 58.7308C44.3377 57.3229 47.1846 55.211 50.2291 53.4718C52.6213 52.0225 54.9739 50.5317 57.4056 49.1445C58.0975 48.7511 58.7104 48.2128 59.2244 47.5916C59.343 47.426 59.4419 47.2604 59.521 47.074C59.6 46.867 59.6791 46.6599 59.778 46.4736C60.0943 45.7282 60.114 44.9414 60.114 44.1339C60.114 41.2352 60.0943 38.3366 60.114 35.4586C60.0745 32.6841 60.114 29.9097 60.114 27.1559C60.114 26.2242 60.035 25.3132 59.7384 24.4229C59.6593 24.2159 59.5803 24.0088 59.5012 23.8018C59.4221 23.6154 59.3233 23.4498 59.2046 23.2841C58.6906 22.6423 58.0382 22.2075 57.3463 21.7727C52.4631 18.7912 47.5405 15.8925 42.6573 12.911C42.2421 12.6626 41.5897 12.7247 41.4316 12.0621L41.4711 12Z" fill="black"/>
<path d="M39.8899 58.9793C33.2868 58.9793 26.6639 58.9793 20.0608 58.9793C19.5468 58.9793 19.3293 58.9586 19.3293 58.2753C19.3293 43.0987 19.3293 27.9013 19.3096 12.7247C19.3096 12.0414 19.527 12 20.0411 12C26.4465 12 32.8717 12 39.2968 12C39.3364 12.1449 39.2968 12.2692 39.1585 12.3313C36.2325 13.822 33.5241 15.6855 30.6772 17.3211C27.9687 18.9154 25.2998 20.5511 22.6111 22.1868C22.1762 22.4559 21.8599 22.8493 21.5238 23.222C21.4052 23.367 21.3063 23.5533 21.2272 23.7189C21.0691 24.0502 20.9307 24.4022 20.8121 24.7749C20.6144 25.5203 20.6341 26.2656 20.6341 27.0317C20.6341 29.8062 20.6539 32.5806 20.6341 35.3551C20.6737 38.2537 20.6341 41.1731 20.6341 44.0718C20.6341 44.9414 20.7132 45.7696 21.0098 46.5771C21.1284 46.8877 21.3063 47.1568 21.4842 47.426C22.2948 48.6269 23.5601 49.1859 24.7265 49.8899C26.6639 51.0493 28.5816 52.2502 30.519 53.4097C33.0298 54.9833 35.5999 56.4533 38.1304 58.0269C38.6247 58.3374 39.1782 58.4203 39.712 58.5859C39.8504 58.6687 39.9492 58.7722 39.9097 58.9586L39.8899 58.9793Z" fill="black"/>
<path d="M41.4717 12C42.7765 12.5383 43.9627 13.3458 45.1884 14.0705C49.3203 16.5551 53.4719 19.0396 57.6038 21.5242C58.3155 21.959 59.0272 22.3731 59.4424 23.1599C59.0866 23.6982 58.533 23.6568 58.019 23.6568C55.1721 23.6775 52.3055 23.6775 49.4587 23.574C48.7074 23.5326 47.9562 23.8018 47.2247 23.4084C46.8293 23.2427 46.6316 22.8907 46.4339 22.5388C44.6348 19.3088 42.8556 16.0789 41.0763 12.8489C40.9379 12.5797 40.7402 12.3313 40.8983 12H41.4914H41.4717Z" fill="#8F8F8F"/>
<path d="M39.8898 58.9793C39.8305 58.9172 39.7514 58.8551 39.6921 58.7723C38.7431 57.53 38.0907 56.1013 37.3592 54.7141C36.1533 52.478 34.7892 50.3247 33.7216 47.985C33.6623 47.7159 33.7216 47.5088 33.9588 47.4053C36.0544 47.1775 38.1303 47.2189 40.2259 47.3846C40.3445 47.426 40.4433 47.4881 40.5422 47.5916C40.8189 48.0471 40.7596 48.5855 40.7794 49.1031C40.7794 51.7533 40.7794 54.3828 40.7794 57.033C40.7794 57.5714 40.6806 58.1304 40.9969 58.6273C41.0166 58.6894 41.0364 58.7515 41.0562 58.8137C41.0364 58.8758 41.0364 58.9379 41.0562 59H39.87L39.8898 58.9793Z" fill="#7C7C7C"/>
<path d="M39.8899 12H40.483C40.6807 12.2485 40.7598 12.5383 40.7796 12.8489C40.9179 16.141 40.5423 19.4123 40.5423 22.7044C40.5423 22.87 40.4632 23.0357 40.3644 23.1806C40.1469 23.4084 39.8504 23.4705 39.5538 23.4705C37.7152 23.4705 35.8964 23.5947 34.0578 23.4084C33.959 23.3877 33.8601 23.3256 33.7613 23.2427C33.5636 22.8286 33.8008 22.5181 33.9787 22.1868C35.6987 19.0604 37.4385 15.9339 39.1584 12.8075C39.3364 12.4762 39.5736 12.1863 39.8899 12Z" fill="#838383"/>
<path d="M40.2659 23.1807C40.3252 19.4538 40.4043 15.7269 40.4636 12.0208C40.6019 12.0208 40.7206 12.0208 40.859 12.0208C42.915 15.7476 44.9711 19.4538 47.0469 23.1807C47.0074 23.2221 46.9481 23.2635 46.9085 23.3256C46.1573 23.6569 45.3665 23.5119 44.5757 23.5119C43.2313 23.5119 41.9068 23.6362 40.5624 23.4291C40.4438 23.3877 40.3449 23.3049 40.2461 23.2014L40.2659 23.1807Z" fill="#ADADAD"/>
<path d="M39.8899 12C37.8536 15.6441 35.7976 19.3088 33.7613 22.9529C32.9507 22.4767 32.753 21.5656 32.3379 20.7996C31.7052 19.5987 30.8947 18.5013 30.5586 17.1555C33.445 15.3956 36.2523 13.5115 39.2968 12C39.4945 12 39.6922 12 39.8899 12Z" fill="#5C5C5C"/>
<path d="M127.826 31.4626C126.917 32.767 125.908 33.885 124.169 33.7401C122.844 33.6366 121.598 32.6427 121.183 31.2762C120.729 29.7855 121.223 27.7978 122.31 26.8247C123.338 25.9137 124.9 25.748 126.086 26.4106C126.996 26.9075 127.45 27.7564 127.668 28.7709C127.786 29.5163 127.213 29.4335 126.837 29.4542C125.829 29.5163 124.801 29.4542 123.793 29.4749C122.824 29.4956 122.627 29.8062 123.002 30.7586C123.615 32.3736 125.315 32.7048 126.64 31.4833C126.976 31.1727 127.193 30.5515 127.826 30.8414V31.4626Z" fill="#FDFDFD"/>
<path d="M127.826 30.8412C127.332 30.6963 127.252 31.1932 127.035 31.4624C126.284 32.4148 125.098 32.8082 124.129 32.4355C123.239 32.0835 122.488 30.8205 122.448 29.7232C122.429 29.2056 122.666 29.1848 123.022 29.1848C124.327 29.1848 125.651 29.1848 126.956 29.1848C127.252 29.1848 127.668 29.3505 127.648 28.7708C127.707 28.7708 127.747 28.7708 127.806 28.7708V30.8412H127.826Z" fill="black"/>
<path d="M59.6796 23.574C59.8575 23.6568 59.8378 23.8431 59.8575 24.0088C60.0948 24.5057 59.8575 24.9612 59.6401 25.3546C57.9201 28.3775 56.2792 31.4625 54.579 34.5061C54.3813 34.8581 54.2034 35.2308 53.7487 35.2929C53.5312 35.2929 53.373 35.148 53.2742 34.9616C52.3055 33.181 51.1983 31.4832 50.3878 29.5991C50.368 29.1643 50.625 28.8951 50.9413 28.7088C53.7091 27.011 56.4967 25.3132 59.2842 23.6568C59.4028 23.5947 59.5412 23.574 59.6598 23.574H59.6796Z" fill="#575757"/>
<path d="M59.6795 47.2396C59.6005 47.3638 59.5214 47.488 59.4225 47.6123C59.1062 47.84 58.7701 47.9436 58.4143 47.9436C54.8755 47.9436 51.3367 47.985 47.7979 47.9229C47.699 47.9229 47.6002 47.8814 47.5014 47.8607C47.0466 47.7158 46.9478 47.3638 47.1653 46.9911C48.1735 45.1691 48.9841 43.2229 50.2494 41.5665C50.3482 41.5043 50.4273 41.4836 50.5459 41.4836C51.8309 41.8563 52.8787 42.7259 54.0254 43.3885C55.6465 44.3409 57.2874 45.314 58.8888 46.3493C59.2248 46.5563 59.6993 46.6806 59.6795 47.2603V47.2396Z" fill="#CFCFCF"/>
<path d="M59.6795 47.2397C57.9199 45.8111 55.8639 44.8587 53.9857 43.6371C52.8786 42.9124 51.7122 42.2705 50.5656 41.608C50.2493 41.2767 50.4272 40.9661 50.6051 40.6763C51.5936 38.9578 52.4437 37.1357 53.531 35.4794C53.6101 35.4172 53.6892 35.3551 53.7881 35.3137C53.8869 35.3137 53.9858 35.3551 54.0451 35.4379C55.9034 38.7921 57.7618 42.1463 59.6201 45.5005C59.8574 45.9353 60.0551 46.3494 59.8969 46.8463C59.8574 46.9913 59.8574 47.1569 59.6992 47.2397H59.6795Z" fill="#959595"/>
<path d="M47.1656 47.5708C51.258 47.5708 55.3503 47.5708 59.4427 47.5708C59.1264 48.2541 58.553 48.6475 57.9599 49.0202C55.4294 50.5523 52.8989 52.0638 50.3881 53.5752C49.7752 53.5752 49.7159 53.0162 49.4985 52.6435C48.6681 51.1735 47.9366 49.6413 47.0668 48.2127C46.9877 48.0263 46.9482 47.84 46.9679 47.633C47.0272 47.5294 47.0865 47.5087 47.1854 47.5294L47.1656 47.5708Z" fill="#BFBFBF"/>
<path d="M59.8965 46.8462C59.5604 45.5004 58.7301 44.403 58.0974 43.2228C56.8322 40.8625 55.5076 38.5436 54.2028 36.1832C54.0644 35.9554 54.0051 35.6863 53.9062 35.4171C54.1435 35.148 54.4796 35.0858 54.7959 35.0858C56.3577 35.0651 57.9393 35.0651 59.5011 35.0858C59.8372 35.0858 60.1535 35.148 60.4105 35.4171C60.4105 38.6057 60.4303 41.8149 60.4105 45.0035C60.4105 45.666 60.2326 46.2872 59.8767 46.8462H59.8965Z" fill="#737373"/>
<path d="M60.4104 35.4171C58.2358 35.4171 56.0809 35.4171 53.9062 35.4171C53.8666 35.4171 53.8073 35.3964 53.748 35.3757C53.6887 35.3343 53.6689 35.2929 53.6689 35.2515C53.6689 35.2101 53.6887 35.1687 53.7085 35.1687C54.6179 34.2783 55.0331 33.0568 55.6459 31.9801C57.0298 29.5783 58.3346 27.1145 59.679 24.6713C59.7976 24.4435 59.8371 24.2158 59.8371 23.988C60.2128 24.6092 60.4104 25.2924 60.4104 26.0171C60.4104 29.1435 60.4104 32.27 60.3907 35.3964L60.4104 35.4171Z" fill="#464646"/>
<path d="M47.1852 48.0265C48.3516 49.8278 49.1029 51.8776 50.3681 53.6168C47.719 55.2318 45.0698 56.8468 42.4009 58.4617C42.0055 58.7102 41.5508 58.8344 41.0763 58.8137L41.0368 58.7309C40.7996 58.234 41.1159 57.8613 41.3136 57.4886C42.8952 54.5071 44.5954 51.5877 46.2165 48.6269C46.4142 48.275 46.5526 47.7366 47.1457 48.0265H47.1852Z" fill="#888888"/>
<path d="M59.6798 23.574C57.7622 25.0233 55.627 26.0793 53.6105 27.363C52.7999 27.8806 51.9696 28.3568 51.1393 28.8744C50.8625 29.0401 50.5264 29.185 50.5264 29.5991C50.3683 29.6405 50.2496 29.537 50.1706 29.4128C49.2414 27.6529 48.2331 25.9137 47.2842 24.1537C47.126 23.8639 46.8888 23.5947 46.9679 23.2013L47.0469 23.1599C48.3913 23.4084 49.7554 23.1599 51.08 23.2634C53.1953 23.4498 55.2909 23.3048 57.3865 23.3877C58.0785 23.4084 58.7704 23.4498 59.4228 23.1806C59.5019 23.3048 59.581 23.4291 59.6798 23.5533V23.574Z" fill="#9A9A9A"/>
<path d="M67.6268 28.7296C67.6268 27.4873 67.6268 26.245 67.6268 25.0027C67.6268 24.3608 67.607 23.926 68.4571 23.926C69.2676 23.926 69.2676 24.3401 69.2479 24.9406C69.2281 25.8309 69.2479 26.7419 69.2479 27.6322C69.2479 28.1084 69.2676 28.3983 69.8607 28.3569C70.9876 28.2947 72.0947 28.3155 73.2216 28.3569C73.6565 28.3569 73.7949 28.2119 73.7752 27.7771C73.7554 26.7419 73.8147 25.7066 73.7554 24.6714C73.7159 23.9053 74.131 23.9674 74.6055 23.9467C75.08 23.9467 75.3963 23.9467 75.3963 24.63C75.3567 27.3837 75.3567 30.1375 75.3963 32.9119C75.3963 33.6366 75.0207 33.5538 74.5857 33.5538C74.1508 33.5538 73.7356 33.6366 73.7752 32.9119C73.8345 31.856 73.7752 30.7793 73.7949 29.7027C73.7949 29.1644 73.6565 28.978 73.1228 28.9987C72.075 29.0401 71.0074 29.0401 69.9596 28.9987C69.3665 28.978 69.2479 29.2265 69.2479 29.7855C69.2874 30.8207 69.2083 31.856 69.2676 32.8912C69.3072 33.5745 68.9513 33.5745 68.4769 33.5745C67.9826 33.5745 67.5872 33.6159 67.6268 32.8498C67.6861 31.4833 67.6268 30.0961 67.6268 28.7088V28.7296Z" fill="#FBFBFB"/>
<path d="M85.9139 41.9184C86.5663 41.4008 87.021 40.966 87.6339 40.759C89.0968 40.2827 90.2632 40.9867 90.3621 42.6017C90.4609 44.2788 90.3621 45.9766 90.4016 47.6744C90.4016 48.3783 89.9469 48.1713 89.5911 48.2127C89.1759 48.2541 88.9189 48.192 88.9189 47.633C88.9584 46.1836 88.9387 44.7343 88.9189 43.2849C88.9189 42.1876 88.5037 41.6493 87.792 41.6907C86.8628 41.7321 85.9139 42.5603 85.9139 43.3885C85.9139 44.7757 85.8744 46.1422 85.9139 47.5294C85.9337 48.1713 85.6569 48.2334 85.1626 48.2541C84.6091 48.2541 84.4114 48.1092 84.4312 47.5087C84.4707 45.6453 84.4312 43.7819 84.4509 41.9184C84.4509 41.4629 84.1148 40.8211 85.0836 40.7797C85.9337 40.7383 85.9732 41.1731 85.9139 41.9598V41.9184Z" fill="#FBFBFB"/>
<path d="M102.086 47.0326C101.414 47.633 100.88 48.1299 100.148 48.2748C98.8831 48.544 97.5783 47.6537 97.519 46.3286C97.44 44.6515 97.519 42.9537 97.4795 41.2766C97.4795 40.5312 97.9935 40.8418 98.3296 40.8004C98.7645 40.7176 98.982 40.8418 98.9622 41.4008C98.9227 42.8088 98.9622 44.2167 98.9622 45.6453C98.9622 46.7013 99.5158 47.3431 100.405 47.3224C101.295 47.3224 102.106 46.4942 102.106 45.5625C102.106 44.2167 102.145 42.8709 102.106 41.5251C102.106 40.9246 102.264 40.7797 102.817 40.7797C103.331 40.7797 103.569 40.8418 103.549 41.4837C103.509 43.3678 103.549 45.2726 103.529 47.1568C103.529 47.6537 103.766 48.2127 102.837 48.2334C101.928 48.2334 102.125 47.6951 102.086 47.0326Z" fill="#FDFDFD"/>
<path d="M107.938 26.0378C110.073 26.0378 111.635 27.5907 111.615 29.7233C111.615 32.0008 109.994 33.74 107.859 33.74C105.724 33.74 104.103 32.1251 104.103 29.9718C104.103 27.6942 105.724 26.0378 107.918 26.0585L107.938 26.0378Z" fill="#FDFDFD"/>
<path d="M81.5649 32.6842C80.7148 33.2432 80.102 33.7815 79.2321 33.7608C78.4413 33.7608 77.7889 33.4917 77.4726 32.7049C77.1365 31.8767 77.2749 31.0692 77.9075 30.4273C78.6786 29.6199 79.6868 29.3093 80.7148 28.9987C81.1498 28.8745 81.6638 28.8538 81.5452 28.1291C81.4266 27.3216 81.1498 26.6384 80.2799 26.5555C79.667 26.4934 79.1926 26.804 79.0937 27.508C79.074 27.6736 79.0542 27.8392 79.0344 28.0256C78.9751 28.4811 78.6786 28.6881 78.2634 28.626C77.8482 28.5846 77.6505 28.2947 77.611 27.8599C77.5714 27.2181 77.9273 26.804 78.4018 26.5348C79.4891 25.9137 80.6555 25.8516 81.8417 26.2243C82.6325 26.4727 82.9884 27.0732 82.9884 27.9428C82.9884 29.537 82.9884 31.1106 82.9884 32.7049C82.9884 33.0362 83.2651 33.6159 82.5337 33.5745C82.0592 33.5331 81.387 33.8229 81.6045 32.6842H81.5649Z" fill="#FDFDFD"/>
<path d="M79.9833 43.7818C79.2518 43.7818 78.5401 43.7818 77.8086 43.7818C77.4725 43.7818 77.2551 43.8233 77.2946 44.2995C77.3737 45.4796 78.1447 46.7012 79.0936 47.0325C80.1217 47.3845 81.2486 46.929 82.0196 45.873C82.1382 45.7074 82.1184 45.2105 82.5138 45.4796C82.8499 45.7074 82.5534 45.9766 82.4743 46.1836C81.7626 47.8193 79.8647 48.6889 78.2633 48.1713C76.6027 47.6329 75.6142 45.8316 75.8909 43.9268C76.2863 41.4008 78.3226 39.9929 80.4578 40.7589C80.9718 40.9453 81.4067 41.2352 81.7626 41.67C82.1975 42.2083 82.6522 42.8915 82.4545 43.5127C82.2568 44.1338 81.466 43.6783 80.952 43.7611C80.6357 43.8233 80.2996 43.7611 79.9635 43.7611L79.9833 43.7818Z" fill="#FCFCFC"/>
<path d="M114.976 43.7819C114.323 43.7819 113.651 43.8233 112.999 43.7819C112.425 43.7405 112.346 44.0097 112.405 44.5066C112.564 45.7489 113.374 46.8877 114.382 47.0947C115.529 47.3225 116.419 46.8255 117.111 45.8524C117.229 45.6868 117.269 45.2106 117.625 45.4797C117.901 45.7075 117.644 45.9766 117.546 46.2044C116.735 47.9436 114.798 48.7511 113.137 48.0471C111.397 47.3225 110.567 45.4176 111.101 43.3471C111.476 41.9599 112.287 40.9661 113.671 40.6348C114.916 40.3449 116.023 40.6555 116.893 41.67C117.21 42.0427 117.427 42.4568 117.526 42.933C117.644 43.4506 117.585 43.8026 116.933 43.7612C116.28 43.7198 115.628 43.7612 114.956 43.7612L114.976 43.7819Z" fill="#FCFCFC"/>
<path d="M114.877 27.3215C115.47 26.8246 115.964 26.4105 116.557 26.1828C118.06 25.6237 119.285 26.4934 119.325 28.1911C119.365 29.744 119.325 31.2969 119.345 32.8497C119.345 33.4295 119.206 33.6158 118.633 33.5951C118.119 33.5951 117.862 33.5123 117.882 32.8704C117.941 31.6074 117.902 30.3237 117.882 29.04C117.882 27.6321 117.526 27.0731 116.676 27.0938C115.569 27.1352 114.817 27.9427 114.798 29.1022C114.798 30.303 114.798 31.5246 114.798 32.7255C114.798 33.2638 114.798 33.5951 114.086 33.5951C113.453 33.5951 113.335 33.3881 113.355 32.7669C113.394 30.8414 113.355 28.9158 113.355 26.9696C113.355 26.4934 113.315 26.1 113.987 26.1414C114.521 26.1621 114.916 26.2035 114.778 26.9074C114.778 26.9903 114.778 27.0938 114.818 27.3215H114.877Z" fill="#FEFEFE"/>
<path d="M66.5596 38.647C67.8644 38.2122 68.4179 38.792 68.8726 39.9307C69.6634 41.9184 70.6124 43.844 71.502 45.7902C71.5218 45.8523 71.5811 45.8937 71.6602 46.018C72.6091 43.7818 73.5383 41.6078 74.4675 39.4131C74.5663 39.1647 74.6652 38.8955 74.8036 38.6677C74.9222 38.4814 75.1792 38.5021 75.3571 38.5435C75.6537 38.647 75.4955 38.8748 75.4164 39.0404C74.1512 42.0219 72.9057 45.0034 71.6206 47.9642C71.4032 48.4818 71.1066 48.6268 70.8298 48.0056C69.4064 44.8792 67.983 41.7735 66.5596 38.6263V38.647Z" fill="#FDFDFD"/>
<path d="M94.6719 33.7401C93.9404 33.8022 93.2089 33.4709 92.5763 32.8498C92.3984 32.6842 92.0425 32.4771 92.3984 32.1044C92.7344 31.7524 92.9124 31.9388 93.1496 32.2494C93.6439 32.8912 94.2765 33.2846 95.1266 33.119C95.5418 33.0361 95.8581 32.8084 95.9965 32.3943C96.1546 31.9388 95.9767 31.6075 95.6604 31.2969C95.1266 30.7586 94.4149 30.5516 93.7822 30.1996C92.6949 29.5991 92.2007 28.8123 92.339 27.8599C92.4577 26.9489 93.1891 26.2449 94.1381 26.0793C95.3441 25.8723 96.5896 26.3692 97.0443 27.156C97.242 27.4872 97.0443 27.5908 96.9059 27.7357C96.6291 28.0463 96.5302 27.6943 96.4116 27.5494C95.8185 26.804 95.1266 26.3485 94.1776 26.6798C93.3078 26.9903 93.1891 27.6529 93.8416 28.2947C94.4149 28.8538 95.1661 29.0401 95.8383 29.3714C97.4001 30.1582 97.9141 31.3176 97.242 32.5392C96.7082 33.5331 95.779 33.7194 94.6323 33.7194L94.6719 33.7401Z" fill="#FDFDFD"/>
<path d="M121.816 40.5934C122.626 40.5313 123.279 40.8833 123.832 41.4837C124.01 41.6701 124.366 41.8564 124.03 42.2291C123.674 42.6225 123.536 42.2498 123.358 42.0428C122.824 41.4009 122.191 41.0282 121.361 41.2146C120.985 41.2974 120.59 41.463 120.491 41.9392C120.392 42.4154 120.629 42.7053 120.966 42.9745C121.559 43.4921 122.31 43.6784 122.982 44.0304C124.267 44.7137 124.682 45.4176 124.485 46.5978C124.307 47.5709 123.476 48.2128 122.191 48.3163C121.163 48.3991 120.234 48.1507 119.503 47.3225C119.265 47.0533 119.186 46.867 119.503 46.5771C119.839 46.2665 119.938 46.5357 120.096 46.7428C120.669 47.4053 121.282 47.9643 122.211 47.6538C123.18 47.3432 123.358 46.4943 122.606 45.7903C122.152 45.3762 121.578 45.1899 121.064 44.9C120.471 44.5894 119.898 44.2375 119.562 43.6163C118.751 42.1463 119.938 40.552 121.816 40.5727V40.5934Z" fill="#FDFDFD"/>
<path d="M90.441 27.9633C90.441 29.5783 90.441 31.1933 90.441 32.8083C90.441 33.3466 90.3421 33.6157 89.749 33.595C89.1955 33.595 88.9187 33.5122 88.9385 32.829C88.978 29.7025 88.978 26.5761 88.9385 23.429C88.9385 22.5387 89.5514 22.4972 90.0258 22.4351C90.7178 22.3316 90.4015 23.0149 90.4212 23.3254C90.4608 24.8783 90.4212 26.4312 90.4212 27.9633H90.441Z" fill="#F7F7F7"/>
<path d="M98.6067 26.514C100.03 26.3691 100.564 25.2924 100.762 23.9673C100.781 23.781 100.88 23.6361 101.078 23.6568C101.315 23.6568 101.315 23.8638 101.315 24.0294C101.315 24.2986 101.335 24.5885 101.315 24.8576C101.236 25.7272 101.276 26.4519 102.442 26.2035C102.679 26.1413 102.916 26.2035 102.897 26.5761C102.897 26.9488 102.62 26.9488 102.402 26.9074C101.355 26.7004 101.236 27.2594 101.295 28.1497C101.374 29.3506 101.295 30.5515 101.315 31.7524C101.315 32.7048 101.631 32.9118 102.482 32.5598C102.699 32.477 102.897 32.2907 103.055 32.5598C103.193 32.7876 102.956 32.9325 102.837 33.0568C102.264 33.7193 101.533 33.885 100.762 33.6572C99.9906 33.4087 99.8126 32.7048 99.8324 31.918C99.8324 30.5722 99.7929 29.2264 99.8522 27.9013C99.8917 27.1352 99.7336 26.7211 98.9032 26.866C98.7648 26.8867 98.6462 26.8453 98.5869 26.514H98.6067Z" fill="#FAFAFA"/>
<path d="M92.8733 44.403C92.8733 43.8439 92.8733 43.3056 92.8733 42.7466C92.8733 42.0633 93.1106 41.1937 91.9244 41.4422C91.786 41.4629 91.6674 41.3593 91.7069 41.1937C91.7069 41.1109 91.8255 41.0074 91.8849 41.0074C93.2094 40.8831 93.506 39.8065 93.8025 38.7091C93.8421 38.5228 93.8025 38.2536 94.0991 38.2743C94.4549 38.295 94.3561 38.6056 94.3561 38.8334C94.3561 39.1025 94.3956 39.3924 94.3561 39.6615C94.2375 40.5104 94.4549 40.9659 95.3841 40.7796C95.6016 40.7382 95.9772 40.6554 95.9377 41.1316C95.8981 41.5664 95.5423 41.4629 95.3248 41.4215C94.534 41.2972 94.3165 41.6285 94.3561 42.436C94.4154 43.6783 94.3561 44.9206 94.3759 46.1629C94.3759 47.2602 94.6526 47.488 95.6016 47.1153C95.7993 47.0325 95.9574 46.9082 96.1156 47.1153C96.2935 47.3637 96.0761 47.488 95.9574 47.6122C95.3643 48.2955 94.6131 48.5025 93.8025 48.2334C93.071 47.9849 92.8931 47.3016 92.9129 46.5563C92.9129 45.8316 92.9129 45.1069 92.9129 44.3822L92.8733 44.403Z" fill="#FAFAFA"/>
<path d="M107.028 41.877C107.622 41.4008 107.958 40.9246 108.491 40.7175C108.966 40.5312 109.401 40.5519 109.796 40.8831C110.113 41.1523 110.211 41.525 110.014 41.8977C109.796 42.3532 109.342 42.2704 108.966 42.2083C107.503 41.9391 107.048 42.3325 107.048 43.9268C107.048 45.1069 107.028 46.2664 107.048 47.4466C107.048 48.0263 106.91 48.2127 106.337 48.2127C105.743 48.2127 105.526 48.047 105.546 47.4052C105.585 45.5003 105.546 43.6162 105.546 41.7113C105.546 41.1937 105.407 40.7175 106.238 40.7175C106.989 40.7175 107.127 41.0488 106.989 41.8563L107.028 41.877Z" fill="#F9F9F9"/>
<path d="M86.7638 29.9096C86.7638 30.9449 86.7242 31.9801 86.7638 32.9947C86.8033 33.6986 86.3881 33.5537 85.9927 33.5744C85.6171 33.5744 85.3008 33.6365 85.3008 33.0361C85.3403 31.007 85.3206 28.9779 85.3008 26.9489C85.3008 26.1207 85.9137 26.1207 86.3684 26.0793C87.001 26.0378 86.7044 26.6176 86.7044 26.9282C86.744 27.922 86.7044 28.9158 86.7044 29.9096H86.7638Z" fill="#FEFEFE"/>
<path d="M86.0522 22.3938C86.4872 22.4559 86.843 22.663 86.8628 23.1392C86.8628 23.6775 86.4872 23.926 86.0127 23.926C85.5185 23.926 85.1824 23.6361 85.2219 23.0978C85.2614 22.6216 85.6173 22.4352 86.0522 22.3938Z" fill="#EDEDED"/>
<path d="M30.5589 17.1554C31.7649 18.9982 32.6347 21.0479 33.7616 22.9528C33.7616 23.0149 33.7616 23.0977 33.7616 23.1598C33.6825 23.3669 33.5441 23.4704 33.3267 23.5118C29.7483 23.4497 26.1898 23.5118 22.6114 23.4704C22.1567 23.4704 21.6823 23.5325 21.3066 23.1598C21.5439 22.7043 21.8997 22.3316 22.3149 22.0625C25.0431 20.4061 27.8109 18.7704 30.5589 17.114V17.1554Z" fill="#7B7B7B"/>
<path d="M21.3264 23.2014C24.9443 23.2014 28.5424 23.2014 32.1602 23.2014C32.6347 23.2014 33.0697 23.2428 33.5046 23.4084C33.5441 23.4498 33.5639 23.4912 33.6034 23.5119C32.8522 25.4582 31.6858 27.1767 30.6775 28.978C30.5787 29.1644 30.4205 29.2886 30.203 29.3093C28.8192 28.9159 27.6923 27.9842 26.4665 27.2595C24.885 26.3278 23.3231 25.3754 21.7811 24.423C21.4648 24.2159 21.0101 24.1124 21.0892 23.5534C21.1682 23.4291 21.2473 23.3049 21.3264 23.1807V23.2014Z" fill="#868686"/>
<path d="M21.3065 47.6124C21.1681 47.4053 21.0495 47.1983 20.9111 46.9912C20.9309 46.9498 20.9507 46.9084 20.9902 46.867C23.8173 45.1278 26.6641 43.4093 29.511 41.7115C29.6889 41.608 29.8669 41.5459 30.0646 41.5251C30.1634 41.5251 30.2622 41.5459 30.3413 41.608C31.0926 42.2705 31.4089 43.2229 31.8834 44.0718C32.3776 44.9414 32.8916 45.8318 33.3463 46.7221C33.544 47.1155 33.9197 47.5917 33.1882 47.8815C30.4204 48.0886 27.6329 47.9229 24.8651 47.9644C24.1138 47.9644 23.3626 47.9644 22.6113 47.9644C22.1369 47.9644 21.7019 47.9022 21.3065 47.6331V47.6124Z" fill="#959595"/>
<path d="M21.089 23.5739C21.8996 24.4435 22.9869 24.8576 23.9754 25.4374C26.0512 26.7004 28.1666 27.9427 30.2622 29.1849C30.3215 29.2678 30.3413 29.3713 30.3413 29.4748C29.4714 31.2968 28.4632 33.0153 27.4747 34.7753C27.3363 35.003 27.1781 35.2515 26.8816 35.2515C25.9326 34.5061 25.557 33.3052 24.9837 32.2907C23.6789 29.951 22.3543 27.6321 21.089 25.2717C20.9506 25.0026 20.7727 24.7334 20.7529 24.4228C20.7727 24.0915 20.8913 23.8017 21.1088 23.5532L21.089 23.5739Z" fill="#656565"/>
<path d="M33.9587 48.0264C35.6787 51.1735 37.4184 54.3414 39.1384 57.4885C39.3756 57.9026 39.6326 58.296 39.6919 58.7929C39.1779 58.855 38.7034 58.6687 38.2883 58.4202C35.6589 56.826 33.0295 55.211 30.4001 53.6167C30.1431 53.244 30.4001 52.9542 30.5583 52.685C31.3491 51.2978 32.1201 49.9105 32.8713 48.5233C33.1086 48.1092 33.3854 47.6744 33.9587 48.0471V48.0264Z" fill="#6D6D6D"/>
<path d="M20.9112 46.9911C20.5356 46.4113 20.3379 45.7695 20.3379 45.0655C20.3379 41.8563 20.3379 38.6263 20.3379 35.4171C20.5356 35.21 20.7728 35.1065 21.0496 35.1065C22.8882 35.1065 24.7268 34.9616 26.5654 35.1893C26.6642 35.2307 26.7631 35.2928 26.8619 35.3549C27.0992 35.7897 26.8224 36.1417 26.6445 36.4937C25.0629 39.3924 23.4813 42.2497 21.8799 45.1276C21.5438 45.7281 21.2473 46.3285 20.9705 46.9497L20.9112 46.9911Z" fill="#8C8C8C"/>
<path d="M33.9593 48.0264C33.643 48.0264 33.3662 48.0471 33.2081 48.3783C32.2789 50.1176 31.3497 51.8775 30.4008 53.6167C27.8702 52.1052 25.3397 50.5938 22.8091 49.0616C22.2161 48.7096 21.6625 48.2748 21.3066 47.6123C25.399 47.6123 29.4913 47.5916 33.5837 47.5709C33.6628 47.5295 33.7221 47.5502 33.7616 47.6123C33.8209 47.7365 33.9 47.8814 33.9593 48.0057V48.0264Z" fill="#747474"/>
<path d="M26.8216 35.3965C24.6667 35.3965 22.4921 35.3965 20.3372 35.4172C20.3372 32.2286 20.3372 29.0608 20.3174 25.8722C20.3174 25.3546 20.3965 24.8577 20.7128 24.4436C21.6815 25.5203 22.1955 26.9075 22.927 28.1498C24.2911 30.4687 25.5564 32.8705 26.8612 35.2308L26.9007 35.3136L26.8414 35.3758L26.8216 35.3965Z" fill="#555555"/>
<path d="M26.8223 35.3964C26.8618 35.355 26.8618 35.2928 26.8618 35.2514C27.9689 33.3052 29.0958 31.3589 30.2029 29.4127C30.5983 29.1021 30.8948 29.4541 31.1716 29.6404C33.7615 31.1933 36.3513 32.7669 38.9609 34.299C39.2377 34.4647 39.5936 35.0237 39.9692 34.3818C39.9099 31.1312 39.9494 27.8805 39.9692 24.6299C39.9692 24.1122 39.8901 23.4911 40.503 23.2219C42.6579 23.2219 44.8128 23.2219 46.9479 23.2219C48.1539 25.2303 49.3401 27.2594 50.3286 29.392C50.2099 29.8268 49.8541 30.0338 49.518 30.2409C47.0072 31.7523 44.5162 33.2638 42.0252 34.7752C41.7485 34.9409 41.4322 35.0651 41.2147 35.355C41.2542 35.8726 41.7287 35.9347 42.0252 36.121C44.4372 37.5497 46.8293 39.0404 49.2412 40.4898C49.6959 40.7589 50.3286 40.8832 50.3681 41.6285C49.3005 43.6162 48.233 45.6246 47.1456 47.6122C47.0863 47.6122 47.027 47.6122 46.9677 47.6536C46.8491 47.7158 47.0072 47.6951 46.8886 47.7158C44.7337 48.1091 42.5986 48.2127 40.4437 47.6743C40.3844 47.6536 40.3448 47.6122 40.2855 47.5915C39.8703 47.2188 39.989 46.7012 39.989 46.2457C39.989 43.2642 39.989 40.262 39.989 37.2805C39.989 36.9492 40.0878 36.5973 39.8506 36.2246C38.2294 37.1149 36.6676 38.1501 35.1058 39.1232C33.8999 39.8686 32.6939 40.6761 31.4682 41.3801C31.0925 41.5871 30.6971 41.9805 30.2029 41.6285C29.3726 41.0074 29.0563 40.0136 28.6015 39.1232C28.0085 37.9638 27.1188 36.9699 26.8618 35.6241C26.8618 35.562 26.8618 35.4999 26.8223 35.4378V35.3964Z" fill="#FEFEFE"/>
<path d="M30.2227 41.5873C31.9229 41.0075 33.3067 39.8067 34.8488 38.8956C36.6083 37.8604 38.348 36.7423 40.325 35.5208C40.325 39.6824 40.325 43.6163 40.325 47.5503C38.1306 47.571 35.9559 47.5917 33.7615 47.6124C33.7021 47.6124 33.6428 47.571 33.5835 47.571C32.4566 45.5833 31.3298 43.5749 30.2227 41.5873Z" fill="#C0C0C0"/>
<path d="M40.4631 47.6331C42.6378 47.6331 44.8125 47.6331 46.9872 47.6331C47.0465 47.778 47.1058 47.9022 47.1651 48.0472C46.5127 48.0886 46.4732 48.7304 46.2557 49.1238C44.5357 52.3331 42.5587 55.3974 41.0365 58.7309C40.2654 58.8551 40.4631 58.2546 40.4631 57.8612C40.4631 54.4449 40.4631 51.0494 40.4631 47.6331Z" fill="#939393"/>
<path d="M40.5222 23.2219C40.2059 23.5739 40.3047 23.988 40.3047 24.4021C40.3047 27.9219 40.3047 31.4624 40.2849 34.9822C39.6721 34.9201 39.5732 34.3404 39.3558 33.9263C37.7149 30.7999 36.0147 27.7148 34.3738 24.5884C34.1563 24.1536 33.8993 23.7809 33.6028 23.4082H33.5039C33.583 23.3461 33.6818 23.2633 33.7609 23.2012C35.9356 23.2012 38.1103 23.2012 40.2849 23.2012C40.364 23.2012 40.4431 23.2012 40.5222 23.2219Z" fill="#B7B7B7"/>
<path d="M124.129 28.5224C123.872 28.5224 123.595 28.5431 123.338 28.5224C123.061 28.5017 122.686 28.6881 122.547 28.3775C122.389 28.0462 122.646 27.7149 122.824 27.4458C123.318 26.6797 124.109 26.4519 124.88 26.8453C125.454 27.1352 125.928 27.6735 125.809 28.274C125.711 28.8537 125.038 28.3982 124.623 28.5224C124.465 28.5638 124.307 28.5224 124.129 28.5224Z" fill="#060606"/>
<path d="M40.8779 35.1894C43.7841 33.4088 46.6903 31.6489 49.6162 29.8683C49.8732 29.7233 50.1104 29.537 50.3674 29.3713C50.4267 29.4542 50.4861 29.5163 50.5454 29.5991C51.6129 31.4625 52.6805 33.326 53.7283 35.1894C53.7283 35.2515 53.7283 35.3136 53.7481 35.3757L53.669 35.3964C53.3922 35.6863 53.0166 35.707 52.6607 35.707C49.1219 35.707 45.5634 35.7277 42.0246 35.707C41.6094 35.707 41.0756 35.8313 40.8977 35.1894H40.8779Z" fill="#ADADAD"/>
<path d="M40.8786 35.1894C41.1751 35.5207 41.5508 35.3965 41.8869 35.3965C45.821 35.3965 49.7355 35.3965 53.6697 35.3965C52.9184 37.2392 51.7915 38.8749 50.9019 40.6555C50.7437 40.9454 50.5065 41.2145 50.5856 41.5872H50.4867H50.3879C48.8458 40.2414 46.9875 39.4339 45.2873 38.3365C43.9627 37.4669 42.559 36.7009 41.2147 35.852C40.9972 35.707 40.4832 35.6863 40.8786 35.1687V35.1894Z" fill="#C3C3C3"/>
<path d="M109.994 30.1581C109.994 31.7938 109.302 32.9739 108.333 33.1396C107.286 33.3052 106.277 32.3735 105.922 30.8827C105.684 29.8682 105.585 28.8537 106.06 27.8598C106.791 26.3484 108.472 26.2449 109.361 27.6528C109.875 28.4603 109.915 29.392 109.994 30.1581Z" fill="#010101"/>
<path d="M81.5444 29.3921C81.5444 30.0546 81.5444 30.6344 81.5444 31.2141C81.5444 32.1872 80.6153 32.9533 79.7256 32.7463C78.8557 32.5599 78.5197 31.4626 79.1128 30.7172C79.5279 30.1996 80.3583 29.7234 81.5444 29.3921Z" fill="#030303"/>
<path d="M77.334 43.078C77.4328 42.0221 77.9271 41.3802 78.8167 41.2146C79.6075 41.0904 80.1808 41.5873 80.5367 42.312C80.7344 42.7261 80.7739 43.0987 80.1018 43.078C79.1923 43.0366 78.2829 43.078 77.334 43.078Z" fill="#040404"/>
<path d="M112.426 43.0779C112.544 42.0634 113.019 41.3801 113.909 41.2352C114.68 41.111 115.273 41.5665 115.628 42.3118C115.885 42.8295 115.866 43.1193 115.194 43.0986C114.284 43.0572 113.375 43.0986 112.426 43.0986V43.0779Z" fill="#020202"/>
<path d="M33.5838 23.3876C34.1769 23.3255 34.2362 23.8432 34.4339 24.2158C36.3713 27.7978 38.1901 31.4418 40.2462 34.9617C39.9101 35.4172 39.6531 34.9617 39.4356 34.8374C36.5295 33.1189 33.6431 31.3797 30.7369 29.6405C30.5788 29.537 30.3811 29.4749 30.2031 29.3921C30.2031 29.3092 30.2031 29.2471 30.2229 29.1643C31.3498 27.2387 32.4569 25.2925 33.5838 23.3669V23.3876Z" fill="#C5C5C5"/>
<path d="M26.8618 35.5828C27.9689 37.5911 29.0958 39.5995 30.2029 41.6079C27.6526 43.14 25.1023 44.6722 22.552 46.1836C22.038 46.4942 21.5635 46.8462 20.9704 46.9497C20.8122 46.4735 21.0495 46.1008 21.2669 45.7074C23.1451 42.3325 25.0034 38.9577 26.8618 35.6035V35.5828Z" fill="#A7A7A7"/>
</g>
<defs>
<clipPath id="clip0_83_2057">
<rect width="108.536" height="47" fill="white" transform="translate(19.3096 12)"/>
</clipPath>
</defs>
</svg>
