<?xml version="1.0" encoding="utf-8"?>
<!-- Generator: Adobe Illustrator 28.3.0, SVG Export Plug-In . SVG Version: 6.00 Build 0)  -->
<svg version="1.1" id="Layer_1" xmlns="http://www.w3.org/2000/svg" xmlns:xlink="http://www.w3.org/1999/xlink" x="0px" y="0px"
	 viewBox="0 0 199.74 78.43" style="enable-background:new 0 0 199.74 78.43;" xml:space="preserve">
<style type="text/css">
	.st0{fill:#231F20;}
	.st1{fill:url(#SVGID_1_);}
	.st2{enable-background:new    ;}
	.st3{fill:#FEFEFE;}
	.st4{fill:#B2B2B2;}
	.st5{fill:#E7E7E7;}
	.st6{fill:#FCFCFC;}
	.st7{fill:#FBFBFB;}
	.st8{fill:#F9F9F9;}
	.st9{fill:#FAFAFA;}
	.st10{fill:#E9E9E9;}
	.st11{fill:#E1E1E1;}
	.st12{fill:#CECECE;}
	.st13{fill:#070707;}
	.st14{fill:#121212;}
	.st15{fill:#0A0A0A;}
	.st16{fill:#191919;}
	.st17{fill:#181818;}
	.st18{fill:#FFFFFF;}
	.st19{fill:#2D2D2D;}
	.st20{fill:url(#Vector_00000119798978201281066550000006701241055503649440_);}
	.st21{fill:url(#Vector_2_00000172434281466429868690000005077639603910804110_);}
	.st22{fill:#CFCFCF;}
	.st23{opacity:0.972;fill-rule:evenodd;clip-rule:evenodd;enable-background:new    ;}
	.st24{opacity:0.977;fill-rule:evenodd;clip-rule:evenodd;enable-background:new    ;}
	.st25{opacity:0.971;fill-rule:evenodd;clip-rule:evenodd;enable-background:new    ;}
	.st26{opacity:0.984;fill-rule:evenodd;clip-rule:evenodd;enable-background:new    ;}
	.st27{opacity:0.975;fill-rule:evenodd;clip-rule:evenodd;enable-background:new    ;}
	.st28{opacity:0.987;fill-rule:evenodd;clip-rule:evenodd;enable-background:new    ;}
	.st29{opacity:0.979;fill-rule:evenodd;clip-rule:evenodd;enable-background:new    ;}
	.st30{opacity:0.978;fill-rule:evenodd;clip-rule:evenodd;enable-background:new    ;}
	.st31{opacity:0.921;fill-rule:evenodd;clip-rule:evenodd;enable-background:new    ;}
	.st32{opacity:0.92;fill-rule:evenodd;clip-rule:evenodd;enable-background:new    ;}
	.st33{opacity:0.95;fill-rule:evenodd;clip-rule:evenodd;enable-background:new    ;}
	.st34{opacity:0.964;fill-rule:evenodd;clip-rule:evenodd;enable-background:new    ;}
	.st35{opacity:0.945;fill-rule:evenodd;clip-rule:evenodd;enable-background:new    ;}
	.st36{opacity:0.959;fill-rule:evenodd;clip-rule:evenodd;enable-background:new    ;}
	.st37{opacity:0.948;fill-rule:evenodd;clip-rule:evenodd;enable-background:new    ;}
	.st38{fill-rule:evenodd;clip-rule:evenodd;fill:#24201D;}
	.st39{fill:#24201D;}
	.st40{fill:#105AF4;}
	.st41{fill:#4393F1;}
	.st42{fill:#98C6FB;}
	.st43{fill:#90C8FD;}
	.st44{fill:#80889E;}
	.st45{fill:#80879E;}
	.st46{fill:#C5CAD6;}
	.st47{fill:#2A2F59;}
	.st48{fill:#525E81;}
	.st49{fill:#7F889E;}
	.st50{fill:#242744;}
	.st51{fill:#7F879E;}
	.st52{fill:#525E80;}
	.st53{fill:#242644;}
	.st54{fill:#242743;}
	.st55{fill:#252744;}
	.st56{fill:#252845;}
	.st57{fill:#252844;}
	.st58{fill:#252644;}
	.st59{fill:#FDFEFD;}
	.st60{fill:#FDFDFD;}
	.st61{fill:#FCFCFB;}
	.st62{fill:#FDFEFE;}
	.st63{fill:#252F38;}
	.st64{fill:#A6493A;}
	.st65{fill:#A7493A;}
	.st66{fill:#A74A3B;}
	.st67{fill:#A74B3C;}
	.st68{fill:#FEFDFD;}
</style>
<g>
	<g>
		<path class="st23" d="M75.82,12.81c0.95,0,1.91,0,2.86,0c3.46,0.33,6.54,1.59,9.25,3.79c-1.09,1.65-2.24,3.25-3.45,4.79
			c-2.24-1.6-4.74-2.55-7.49-2.86c-1.54-0.06-2.69,0.56-3.45,1.85c-0.31,1.37,0.17,2.35,1.43,2.94c2.67,0.89,5.37,1.73,8.08,2.52
			c5.26,2.25,6.91,6.09,4.96,11.52c-1.17,2.4-3.05,3.94-5.64,4.63c-5.01,1.16-9.72,0.43-14.13-2.19c-0.86-0.55-1.65-1.2-2.36-1.93
			c1.18-1.58,2.44-3.1,3.79-4.54c2.47,2.1,5.33,3.28,8.58,3.53c1.03-0.06,2.01-0.32,2.94-0.76c1.31-1.16,1.42-2.4,0.34-3.7
			c-0.63-0.43-1.3-0.76-2.02-1.01c-1.78-0.56-3.57-1.06-5.38-1.51c-6.39-1.81-8.49-5.88-6.31-12.2c1.01-1.85,2.5-3.17,4.46-3.95
			C73.46,13.31,74.64,13,75.82,12.81z"/>
	</g>
	<g>
		<path class="st24" d="M47.22,12.98c2.06-0.05,4.11,0,6.14,0.17c4.07,9.59,8.13,19.18,12.2,28.77c-2.24,0.2-4.48,0.22-6.73,0.08
			c-0.92-2.07-1.77-4.18-2.52-6.31c-4.04-0.06-8.08,0-12.11,0.17c-0.84,2.02-1.68,4.04-2.52,6.06c-2.24,0.2-4.48,0.22-6.73,0.08
			C39.11,32.35,43.2,22.68,47.22,12.98z M50.08,21.22c0.3,0.18,0.5,0.46,0.59,0.84c1.09,2.62,2.13,5.26,3.11,7.91
			c-2.41,0.03-4.82,0-7.23-0.08C47.75,27.01,48.93,24.12,50.08,21.22z"/>
	</g>
	<g>
		<path class="st25" d="M7.86,13.32c2.19,0,4.37,0,6.56,0c0,3.76,0,7.51,0,11.27c3.81,0,7.63,0,11.44,0c0-3.76,0-7.51,0-11.27
			c2.19,0,4.37,0,6.56,0c0,9.59,0,19.18,0,28.77c-2.19,0-4.37,0-6.56,0c0-3.81,0-7.63,0-11.44c-3.81,0-7.63,0-11.44,0
			c0,3.81,0,7.63,0,11.44c-2.19,0-4.37,0-6.56,0C7.86,32.5,7.86,22.91,7.86,13.32z"/>
	</g>
	<g>
		<path class="st26" d="M92.31,13.32c2.13,0,4.26,0,6.39,0c0,3.76,0,7.51,0,11.27c3.81,0,7.63,0,11.44,0c0-3.76,0-7.51,0-11.27
			c2.19,0,4.37,0,6.56,0c0,9.59,0,19.18,0,28.77c-2.19,0-4.37,0-6.56,0c0-3.81,0-7.63,0-11.44c-3.81,0-7.63,0-11.44,0
			c0,3.81,0,7.63,0,11.44c-2.13,0-4.26,0-6.39,0C92.31,32.5,92.31,22.91,92.31,13.32z"/>
	</g>
	<g>
		<path class="st27" d="M126.97,13.32c3.08-0.03,6.17,0,9.25,0.08c-4.46,4.49-8.95,8.95-13.46,13.37c-1.57-1.46-3.08-2.97-4.54-4.54
			C121.14,19.26,124.06,16.29,126.97,13.32z"/>
	</g>
	<g>
		<path class="st28" d="M138.41,13.32c7.29,0,14.58,0,21.87,0c0,1.91,0,3.81,0,5.72c-5.16,0-10.32,0-15.48,0c0,1.91,0,3.81,0,5.72
			c4.54,0,9.08,0,13.63,0c0,1.91,0,3.81,0,5.72c-4.54,0-9.08,0-13.63,0c0,1.96,0,3.93,0,5.89c5.22,0,10.43,0,15.65,0
			c0,1.91,0,3.81,0,5.72c-7.35,0-14.69,0-22.04,0C138.41,32.5,138.41,22.91,138.41,13.32z"/>
	</g>
	<g>
		<path class="st29" d="M189.89,13.32c0,0.06,0,0.11,0,0.17c-3.71,5.68-7.38,11.4-11.02,17.16c-0.08,3.81-0.11,7.63-0.08,11.44
			c-2.13,0-4.26,0-6.39,0c0.03-3.76,0-7.51-0.08-11.27c-3.67-5.8-7.35-11.61-11.02-17.41c2.52-0.11,5.05-0.11,7.57,0
			c2.29,3.72,4.56,7.44,6.81,11.19c2.25-3.74,4.52-7.47,6.81-11.19C184.95,13.32,187.42,13.29,189.89,13.32z"/>
	</g>
	<g>
		<path class="st30" d="M122.59,28.8c4.56,4.3,9.04,8.71,13.46,13.21c-3.03,0.11-6.06,0.11-9.08,0c-2.92-2.92-5.83-5.83-8.75-8.75
			C119.71,31.79,121.17,30.3,122.59,28.8z"/>
	</g>
	<g>
		<path class="st31" d="M145.14,52.68c1.29,0,2.58,0,3.87,0c0,1.07,0,2.13,0,3.2c-1.29,0-2.58,0-3.87,0
			C145.14,54.82,145.14,53.75,145.14,52.68z"/>
	</g>
	<g>
		<path class="st32" d="M171.89,52.68c1.23,0,2.47,0,3.7,0c0,5.55,0,11.1,0,16.66c-1.23,0-2.47,0-3.7,0
			C171.89,63.79,171.89,58.24,171.89,52.68z"/>
	</g>
	<g>
		<path class="st33" d="M108.8,53.19c2.3-0.27,4.49,0.09,6.56,1.09c0.56,0.39,1.06,0.84,1.51,1.35c-0.66,0.95-1.42,1.82-2.27,2.61
			c-0.8-0.73-1.73-1.26-2.78-1.6c-3.52-0.4-5.43,1.17-5.72,4.71c0.29,3.54,2.2,5.11,5.72,4.71c1.11-0.38,2.09-0.97,2.94-1.77
			c0.73,0.73,1.46,1.46,2.19,2.19c0.11,0.11,0.11,0.22,0,0.34c-2.23,2.35-4.95,3.22-8.16,2.61c-4.14-1.09-6.32-3.78-6.56-8.08
			C102.56,57.08,104.74,54.36,108.8,53.19z"/>
	</g>
	<g>
		<path class="st34" d="M92.31,54.03c2.54,2.24,4.96,4.62,7.23,7.15c-2.32,2.49-4.7,4.93-7.15,7.32
			C92.31,63.68,92.28,58.85,92.31,54.03z"/>
	</g>
	<g>
		<path class="st34" d="M151.53,54.03c1.18,0,2.36,0,3.53,0c0,1.01,0,2.02,0,3.03c0.95,0,1.91,0,2.86,0c0,1.01,0,2.02,0,3.03
			c-0.95,0-1.91,0-2.86,0c-0.07,1.98,0.01,3.94,0.25,5.89c0.86,0.45,1.71,0.4,2.52-0.17c0.14,1.05,0.11,2.09-0.08,3.11
			c-1.69,0.78-3.37,0.78-5.05,0c-0.44-0.33-0.75-0.75-0.93-1.26c-0.24-2.51-0.33-5.04-0.25-7.57c-0.45,0-0.9,0-1.35,0
			c0-1.01,0-2.02,0-3.03c0.45,0,0.9,0,1.35,0C151.53,56.05,151.53,55.04,151.53,54.03z"/>
	</g>
	<g>
		<path class="st35" d="M122.59,56.89c2.24-0.26,4.11,0.41,5.64,2.02c0.36,0.63,0.58,1.3,0.67,2.02c0.08,2.8,0.11,5.61,0.08,8.41
			c-1.18,0-2.36,0-3.53,0c0.03-0.34,0-0.68-0.08-1.01c-1.73,1.25-3.61,1.5-5.64,0.76c-1.95-1.31-2.48-3.07-1.6-5.3
			c1.16-1.5,2.7-2.17,4.63-2.02c0.97-0.04,1.89,0.13,2.78,0.5c0.05-1.04-0.43-1.74-1.43-2.1c-1.52-0.22-2.98-0.03-4.37,0.59
			c-0.39-0.91-0.72-1.83-1.01-2.78C119.98,57.43,121.27,57.07,122.59,56.89z M122.93,63.96c0.91-0.01,1.78,0.15,2.61,0.5
			c0.09,1.68-0.72,2.52-2.44,2.52c-1.51-0.07-2.04-0.8-1.6-2.19C121.9,64.36,122.38,64.08,122.93,63.96z"/>
	</g>
	<g>
		<path class="st36" d="M134.54,72.87c-1.18,0-2.36,0-3.53,0c0-5.27,0-10.54,0-15.81c1.18,0,2.36,0,3.53,0
			c-0.03,0.51,0,1.01,0.08,1.51c1.24-1.5,2.84-2.03,4.79-1.6c2.95,0.99,4.41,3.07,4.37,6.22c-0.16,4.36-2.4,6.44-6.73,6.22
			c-0.98-0.2-1.79-0.67-2.44-1.43C134.54,69.62,134.51,71.25,134.54,72.87z M136.73,59.92c2.17,0.01,3.35,1.1,3.53,3.28
			c-0.42,2.84-1.94,3.74-4.54,2.69c-1.17-1.17-1.48-2.54-0.93-4.12C135.2,60.88,135.85,60.27,136.73,59.92z"/>
	</g>
	<g>
		<path class="st37" d="M163.47,56.89c1.84-0.16,3.52,0.26,5.05,1.26c0.67,0.74,1.09,1.61,1.26,2.61c0.08,2.86,0.11,5.72,0.08,8.58
			c-1.12,0-2.24,0-3.36,0c0.03-0.4,0-0.79-0.08-1.18c-1.74,1.42-3.67,1.73-5.8,0.93c-2.2-1.65-2.56-3.64-1.09-5.97
			c1.18-1,2.56-1.45,4.12-1.35c0.97-0.04,1.89,0.13,2.78,0.5c0.05-1.05-0.43-1.75-1.43-2.1c-1.49-0.23-2.92-0.03-4.29,0.59
			c-0.49-0.9-0.77-1.85-0.84-2.86C161.03,57.39,162.24,57.05,163.47,56.89z M163.81,63.96c0.92-0.06,1.79,0.11,2.61,0.5
			c0.09,1.67-0.72,2.51-2.44,2.52c-1.5-0.06-2.03-0.79-1.6-2.19C162.78,64.36,163.26,64.08,163.81,63.96z"/>
	</g>
	<g>
		<path class="st25" d="M145.31,57.06c1.18,0,2.36,0,3.53,0c0,4.09,0,8.19,0,12.28c-1.18,0-2.36,0-3.53,0
			C145.31,65.25,145.31,61.15,145.31,57.06z"/>
	</g>
</g>
</svg>
