<?xml version="1.0" encoding="utf-8"?>
<!-- Generator: Adobe Illustrator 28.3.0, SVG Export Plug-In . SVG Version: 6.00 Build 0)  -->
<svg version="1.1" id="Layer_1" xmlns="http://www.w3.org/2000/svg" xmlns:xlink="http://www.w3.org/1999/xlink" x="0px" y="0px"
	 viewBox="0 0 114.4 105.28" style="enable-background:new 0 0 114.4 105.28;" xml:space="preserve">
<style type="text/css">
	.st0{fill:#231F20;}
	.st1{fill:url(#SVGID_1_);}
	.st2{enable-background:new    ;}
	.st3{fill:#FEFEFE;}
	.st4{fill:#B2B2B2;}
	.st5{fill:#E7E7E7;}
	.st6{fill:#FCFCFC;}
	.st7{fill:#FBFBFB;}
	.st8{fill:#F9F9F9;}
	.st9{fill:#FAFAFA;}
	.st10{fill:#E9E9E9;}
	.st11{fill:#E1E1E1;}
	.st12{fill:#CECECE;}
	.st13{fill:#070707;}
	.st14{fill:#121212;}
	.st15{fill:#0A0A0A;}
	.st16{fill:#191919;}
	.st17{fill:#181818;}
	.st18{fill:#FFFFFF;}
	.st19{fill:#2D2D2D;}
	.st20{fill:url(#Vector_00000029004486822743591100000015410005473741511856_);}
	.st21{fill:url(#Vector_2_00000034794050713344898490000009658866934520393356_);}
	.st22{fill:#CFCFCF;}
	.st23{opacity:0.972;fill-rule:evenodd;clip-rule:evenodd;enable-background:new    ;}
	.st24{opacity:0.977;fill-rule:evenodd;clip-rule:evenodd;enable-background:new    ;}
	.st25{opacity:0.971;fill-rule:evenodd;clip-rule:evenodd;enable-background:new    ;}
	.st26{opacity:0.984;fill-rule:evenodd;clip-rule:evenodd;enable-background:new    ;}
	.st27{opacity:0.975;fill-rule:evenodd;clip-rule:evenodd;enable-background:new    ;}
	.st28{opacity:0.987;fill-rule:evenodd;clip-rule:evenodd;enable-background:new    ;}
	.st29{opacity:0.979;fill-rule:evenodd;clip-rule:evenodd;enable-background:new    ;}
	.st30{opacity:0.978;fill-rule:evenodd;clip-rule:evenodd;enable-background:new    ;}
	.st31{opacity:0.921;fill-rule:evenodd;clip-rule:evenodd;enable-background:new    ;}
	.st32{opacity:0.92;fill-rule:evenodd;clip-rule:evenodd;enable-background:new    ;}
	.st33{opacity:0.95;fill-rule:evenodd;clip-rule:evenodd;enable-background:new    ;}
	.st34{opacity:0.964;fill-rule:evenodd;clip-rule:evenodd;enable-background:new    ;}
	.st35{opacity:0.945;fill-rule:evenodd;clip-rule:evenodd;enable-background:new    ;}
	.st36{opacity:0.959;fill-rule:evenodd;clip-rule:evenodd;enable-background:new    ;}
	.st37{opacity:0.948;fill-rule:evenodd;clip-rule:evenodd;enable-background:new    ;}
	.st38{fill-rule:evenodd;clip-rule:evenodd;fill:#24201D;}
	.st39{fill:#24201D;}
	.st40{fill:#105AF4;}
	.st41{fill:#4393F1;}
	.st42{fill:#98C6FB;}
	.st43{fill:#90C8FD;}
	.st44{fill:#80889E;}
	.st45{fill:#80879E;}
	.st46{fill:#C5CAD6;}
	.st47{fill:#2A2F59;}
	.st48{fill:#525E81;}
	.st49{fill:#7F889E;}
	.st50{fill:#242744;}
	.st51{fill:#7F879E;}
	.st52{fill:#525E80;}
	.st53{fill:#242644;}
	.st54{fill:#242743;}
	.st55{fill:#252744;}
	.st56{fill:#252845;}
	.st57{fill:#252844;}
	.st58{fill:#252644;}
	.st59{fill:#FDFEFD;}
	.st60{fill:#FDFDFD;}
	.st61{fill:#FCFCFB;}
	.st62{fill:#FDFEFE;}
	.st63{fill:#252F38;}
	.st64{fill:#A6493A;}
	.st65{fill:#A7493A;}
	.st66{fill:#A74A3B;}
	.st67{fill:#A74B3C;}
	.st68{fill:#FEFDFD;}
</style>
<g>
	<path class="st38" d="M7.03,20.66v13.97h6.87h6.87v-3.42v-3.42h1.4h1.4v3.42v3.42h6.87h6.87V20.66V6.69h-6.87h-6.87v3.57v3.57h-1.4
		h-1.4v-3.57V6.69H13.9H7.03V20.66z M80.87,7.16c-1.46,0.52-2.24,1.15-2.94,2.36c-0.45,0.78-0.53,2.43-0.61,13l-0.09,12.11h6.87
		h6.87l0.09-3.34l0.09-3.34h1.25h1.25l0.09,3.34l0.09,3.34h6.86h6.86V22.65c0-11.83-0.01-11.99-0.7-13.28
		c-0.48-0.89-1.1-1.5-1.95-1.92c-1.18-0.58-1.83-0.61-12.02-0.67C84.06,6.73,81.88,6.8,80.87,7.16z M93.81,16.2v2.08h-1.4H91V16.4
		c0-1.04,0.09-1.97,0.21-2.08c0.11-0.11,0.75-0.2,1.4-0.2h1.2V16.2z M82.23,39.08c-2.04,0.33-3.23,1-4.08,2.29
		c-0.73,1.12-0.73,1.13-0.73,11.52c0,11.47,0.01,11.56,2,12.91c1.57,1.06,3.73,1.22,16.11,1.13l11.85-0.08l0.08-6.31l0.08-6.31
		h-6.87h-6.87v2.08v2.08h-1.4H91v-5.35V47.7h1.4h1.4v1.93v1.93h6.87h6.87l-0.08-6.31l-0.08-6.31l-11.86-0.04
		C89,38.87,83.02,38.96,82.23,39.08z M7.03,53.05v13.97l6.79-0.08l6.79-0.08l0.09-3.34l0.09-3.34h1.39h1.39v3.42v3.42l6.79-0.08
		l6.79-0.08v-4.66c0-4.26-0.06-4.73-0.65-5.5c-0.93-1.19-2.44-2.09-3.88-2.32c-1.23-0.2-1.24-0.21-1.24-1.51v-1.31h2.99h2.99
		l-0.11-4.38c-0.13-5.21-0.53-6.3-2.76-7.42c-1.35-0.68-1.4-0.68-14.41-0.68H7.03V53.05z M42.3,45.32v6.24h4.05h4.05l0.08,7.65
		l0.08,7.65l6.78,0.08l6.78,0.08l0.08-7.66l0.08-7.66l4.14-0.08l4.14-0.08v-6.23v-6.23H57.44H42.3V45.32z M23.57,48.44v1.93h-1.4
		h-1.4v-1.93v-1.93h1.4h1.4V48.44z M10.66,71.61c-1.59,0.54-2.94,1.8-3.32,3.11c-0.17,0.6-0.31,5.26-0.31,10.69
		c0,9.14,0.03,9.7,0.64,10.91c0.38,0.75,1.12,1.55,1.79,1.95c1.14,0.68,1.21,0.68,12.7,0.68c16.13,0,14.94,1.04,15.08-13.13
		c0.1-10.23-0.01-11.31-1.37-12.85c-1.44-1.63-2.78-1.8-13.99-1.79C14.2,71.2,11.59,71.3,10.66,71.61z M42.3,85.15v13.97l6.79-0.08
		l6.79-0.08l0.09-3.19l0.09-3.19h1.39h1.39v3.27v3.27l6.79-0.08l6.79-0.08V94.5c0-3.93-0.07-4.58-0.63-5.5
		c-0.7-1.16-2.89-2.38-4.27-2.38c-0.82,0-0.87-0.07-0.87-1.33v-1.33l2.89-0.09l2.89-0.09l0.09-3.4c0.12-4.45-0.31-6.42-1.66-7.63
		c-1.67-1.5-2.69-1.6-16.2-1.6H42.3V85.15z M77.33,83.28c0.08,10.6,0.16,12.22,0.61,13c0.78,1.35,1.94,2.25,3.28,2.54
		c0.66,0.15,6.86,0.27,13.77,0.27l12.56,0.01V95.1v-4.01h-6.89h-6.89l0.1-1.26l0.1-1.26l6.79-0.08l6.79-0.08v-3.26v-3.26l-6.79-0.08
		l-6.79-0.08v-1.19v-1.19l6.79-0.08l6.79-0.08v-4.01v-4.01H92.39H77.23L77.33,83.28z M58.78,80.76l0.09,2.01h-1.42h-1.42v-2.1v-2.1
		l1.33,0.09l1.33,0.09L58.78,80.76z M23.57,85.29v3.42h-1.4h-1.4v-3.42v-3.42h1.4h1.4V85.29z"/>
	<path class="st39" d="M77.94,96.28c-0.45-0.78-0.53-2.4-0.61-13l-0.09-12.11h15.16h15.16v4.01v4.01l-6.79,0.08l-6.79,0.08v1.19
		v1.19l6.79,0.08l6.79,0.08v3.26v3.26l-6.79,0.08l-6.79,0.08l-0.1,1.26l-0.1,1.26h6.89h6.89v4.01v4.01L94.98,99.1
		c-6.91,0-13.1-0.13-13.77-0.27C79.88,98.53,78.72,97.63,77.94,96.28z"/>
	<path class="st39" d="M43.01,31.85c-0.45-0.78-0.53-2.4-0.61-13L42.3,6.74h15.16h15.16v4.01v4.01l-6.79,0.08l-6.79,0.08v1.19v1.19
		l6.79,0.08l6.79,0.08v3.26v3.26l-6.79,0.08l-6.79,0.08l-0.1,1.26l-0.1,1.26h6.89h6.89v4.01v4.01l-12.56-0.01
		c-6.91,0-13.1-0.13-13.77-0.27C44.95,34.1,43.79,33.2,43.01,31.85z"/>
</g>
</svg>
