<svg width="152" height="70" viewBox="0 0 152 70" fill="none" xmlns="http://www.w3.org/2000/svg">
<rect x="0.897461" width="150.206" height="70" rx="7.77778" fill="white"/>
<g clip-path="url(#clip0_83_1659)">
<path d="M37.7617 49.7778C36.6833 49.6065 35.572 49.5466 34.5182 49.2554C28.9945 47.7737 24.969 42.9003 24.3269 37.0077C23.4954 29.2822 28.7393 22.2334 36.1153 21.1885C38.2803 20.8802 40.4124 21.0772 42.4869 21.8223C42.8327 21.9422 42.915 22.1135 42.7668 22.4561C42.6269 22.7815 42.4952 23.1156 42.3964 23.4496C42.3058 23.7751 42.1577 23.8265 41.8531 23.7151C38.6755 22.6103 35.5884 22.8329 32.6002 24.4089C28.1219 26.7728 25.5205 32.0059 26.2532 37.1105C27.0188 42.4464 30.9208 46.6517 35.9506 47.5596C42.5116 48.7501 48.7351 44.1936 49.7394 37.3332C50.4392 32.554 48.8339 28.6228 45.22 25.5822C44.7837 25.214 44.7755 25.214 45.0965 24.7258C45.2612 24.4774 45.434 24.2376 45.5822 23.9806C45.7716 23.6552 45.9774 23.6552 46.249 23.8778C48.7845 25.8906 50.5215 28.4771 51.3447 31.6975C53.3698 39.5772 48.6693 47.6538 41.0216 49.401C40.1161 49.6066 39.1776 49.6579 38.2556 49.7778H37.7617Z" fill="black"/>
<path d="M38.0007 24.092C43.5573 24.092 48.2332 28.4772 48.8094 34.2413C49.4104 40.2881 45.352 45.7867 39.5401 46.5747C34.9877 47.1913 31.3985 45.367 28.8301 41.4101C28.5667 41.0075 28.5996 40.9305 29.0194 40.6992C29.2829 40.5536 29.5627 40.4251 29.8179 40.2538C30.1225 40.0569 30.2954 40.0826 30.5094 40.4166C31.9418 42.6948 33.9422 44.0994 36.5271 44.5791C41.1453 45.427 45.6483 42.3265 46.7349 37.5559C48.0109 31.9717 44.1089 26.4988 38.6098 26.139C33.4071 25.805 29.0359 30.096 29.0853 35.5089C29.0853 35.9886 29.1429 36.4768 29.217 36.9564C29.2582 37.2562 29.2005 37.4103 28.8959 37.4617C28.5502 37.5302 28.1962 37.6073 27.8587 37.7272C27.48 37.8643 27.3812 37.7015 27.3236 37.3504C27.0108 35.3548 27.1178 33.3763 27.8505 31.5006C29.5792 27.064 32.7568 24.5974 37.3503 24.1434C37.5644 24.1177 37.7866 24.1177 38.0089 24.1006L38.0007 24.092Z" fill="black"/>
<path d="M38 43.6283C33.884 43.6283 30.4923 40.3822 30.1219 36.0998C29.7514 31.8945 32.6327 27.9718 36.6747 27.2866C39.6547 26.7813 42.1984 27.7491 44.1247 30.1729C46.0264 32.5711 46.3968 35.3118 45.4501 38.2581C45.3349 38.6178 45.1949 38.712 44.8656 38.4894C44.5775 38.2924 44.2729 38.1211 43.9601 37.984C43.6555 37.847 43.6061 37.6757 43.7049 37.3588C44.7833 33.8815 42.9146 30.31 39.5312 29.3507C36.2301 28.4171 32.8632 30.6183 32.1141 34.2155C31.4226 37.5558 33.7276 41.0245 37.0122 41.5641C38.7574 41.8468 40.3297 41.4357 41.721 40.2965C42.0091 40.0567 42.2313 40.0225 42.4948 40.3137C42.7006 40.5364 42.9393 40.7419 43.1616 40.9475C43.4909 41.2644 43.4991 41.35 43.1616 41.6498C41.6716 42.9688 39.951 43.6368 38 43.6283Z" fill="black"/>
<path d="M89.1133 38.6093C89.4508 38.0355 89.7389 37.5387 90.0435 37.042C90.9573 37.5387 91.871 37.9327 92.8836 37.8728C93.2046 37.8556 93.5422 37.7785 93.8221 37.6329C94.4724 37.2903 94.5053 36.451 93.8961 36.0399C93.641 35.8686 93.3281 35.7572 93.0318 35.663C92.4061 35.4575 91.764 35.3119 91.1466 35.0721C89.8459 34.5753 89.2697 33.7274 89.3026 32.4598C89.3355 31.2607 90.0847 30.2843 91.3277 29.916C92.9248 29.445 94.4312 29.8047 95.9542 30.4899C95.7237 31.0123 95.5014 31.5005 95.2709 32.0059C94.8593 31.8688 94.4642 31.6804 94.0608 31.6119C93.5092 31.5177 92.9495 31.4748 92.3979 31.4748C92.1674 31.4748 91.9122 31.5947 91.7146 31.7318C91.1384 32.1258 91.1384 32.8795 91.7311 33.2306C92.0851 33.4362 92.4885 33.5475 92.8754 33.6846C93.4845 33.8901 94.1184 34.0357 94.7111 34.2841C95.7731 34.7295 96.3246 35.5603 96.3082 36.7765C96.2917 37.9841 95.7319 38.8063 94.6782 39.2517C93.287 39.8341 91.8793 39.6714 90.4963 39.2089C90.0435 39.0633 89.6154 38.832 89.1133 38.6179V38.6093Z" fill="black"/>
<path d="M117.276 36.4596C117.383 37.4959 118.034 38.0869 119.013 37.9755C119.639 37.8985 120.248 37.6672 120.956 37.4873C121.145 37.7871 121.401 38.1982 121.689 38.6436C121.17 39.0547 120.61 39.363 119.993 39.4487C119.31 39.5429 118.593 39.6114 117.918 39.5001C116.527 39.2688 115.572 38.2068 115.334 36.7679C115.062 35.132 115.276 33.6332 116.667 32.5968C117.82 31.7404 119.096 31.6633 120.372 32.2971C121.417 32.8195 121.82 33.8045 121.903 34.9522C121.927 35.329 121.853 35.7144 121.845 36.0998C121.845 36.3996 121.697 36.4767 121.425 36.4767C120.207 36.4681 118.98 36.4767 117.762 36.4767C117.614 36.4767 117.466 36.4767 117.285 36.4767L117.276 36.4596ZM120.026 34.9607C120.042 33.9586 119.631 33.4105 118.857 33.3762C118.042 33.342 117.326 34.0529 117.293 34.9607H120.026Z" fill="black"/>
<path d="M80.9967 36.4596C81.1696 37.693 82.0093 38.224 83.277 37.9242C83.7216 37.8214 84.1496 37.6073 84.6518 37.4189C84.8741 37.7786 85.1375 38.1897 85.4174 38.6351C84.7753 39.149 84.0673 39.4316 83.3017 39.543C82.0093 39.7314 80.8074 39.543 79.8607 38.4895C78.8152 37.3247 78.6341 35.0464 79.4738 33.599C80.2805 32.22 81.9352 31.5862 83.5405 32.0487C84.8247 32.4256 85.582 33.5305 85.6314 35.1235C85.6726 36.4339 85.6561 36.4511 84.4378 36.4511C83.2194 36.4511 82.1657 36.4511 80.9967 36.4511V36.4596ZM83.7545 34.9608C83.8204 34.0272 83.3758 33.4277 82.6185 33.3763C81.7953 33.3249 81.0626 34.0529 81.0297 34.9608H83.7545Z" fill="black"/>
<path d="M113.588 37.4876C113.777 37.7874 114.033 38.1899 114.329 38.6524C114.074 38.8066 113.835 38.9607 113.588 39.0892C112.608 39.586 111.579 39.7316 110.509 39.5089C109.381 39.2691 108.591 38.5753 108.155 37.4705C107.513 35.8346 107.858 33.9332 108.978 32.8369C110.246 31.595 112.559 31.5779 113.695 32.8283C114.584 33.8133 114.65 35.0209 114.411 36.2714C114.395 36.357 114.164 36.4512 114.033 36.4512C112.814 36.4684 111.596 36.4512 110.377 36.4512C110.229 36.4512 110.081 36.4512 109.925 36.4512C109.908 37.3934 110.633 38.0786 111.62 37.9672C112.246 37.8987 112.855 37.6674 113.572 37.479L113.588 37.4876ZM109.9 34.9524H112.65C112.724 34.0959 112.328 33.4964 111.645 33.3936C110.781 33.2651 110.114 33.8475 109.9 34.9524Z" fill="black"/>
<path d="M68.056 38.6007C67.3892 39.3288 66.5989 39.6542 65.6687 39.5943C64.7631 39.5343 64.0552 39.0119 63.8411 38.2068C63.6024 37.316 63.9152 36.4253 64.689 35.8943C65.5123 35.3204 66.4672 35.1748 67.4221 35.0549C67.5456 35.0378 67.6608 35.0292 67.8255 35.0121C67.8255 34.7466 67.842 34.4896 67.8255 34.2413C67.8008 33.8901 67.6114 33.6075 67.2739 33.5989C66.8212 33.5818 66.3519 33.616 65.9074 33.7188C65.4793 33.8216 65.0677 34.0443 64.6232 34.2327C64.4009 33.7531 64.1869 33.282 63.9482 32.7681C65.0019 32.22 66.0803 31.8859 67.2575 31.9373C67.4468 31.9459 67.6444 31.963 67.8337 31.9973C69.1344 32.2542 69.7765 33.0593 69.793 34.4811C69.8094 35.4403 69.8094 36.391 69.793 37.3503C69.793 37.7614 69.8835 38.0526 70.3527 38.0954V39.5001C69.5131 39.4487 68.6652 39.5086 68.0807 38.6093L68.056 38.6007ZM67.8255 36.1512C67.1751 36.194 66.5907 36.2711 66.0885 36.6308C65.751 36.8707 65.611 37.2989 65.7345 37.6415C65.8827 38.0526 66.2202 38.2068 66.5907 38.1297C66.9529 38.0526 67.2986 37.8813 67.6361 37.71C67.7267 37.6586 67.809 37.4873 67.809 37.3588C67.8337 36.982 67.8173 36.5966 67.8173 36.1598L67.8255 36.1512Z" fill="black"/>
<path d="M77.8115 39.406H75.8687C75.8687 39.2347 75.8687 39.0805 75.8687 38.9264C75.8687 37.4875 75.8687 36.0486 75.8687 34.6011C75.8687 33.5819 75.2431 33.128 74.3458 33.5562C73.6543 33.8817 73.4238 34.1301 73.4403 34.8923C73.4814 36.3741 73.4567 37.8558 73.4567 39.3803H71.5469V32.1088H73.3168C73.3579 32.3315 73.3991 32.5627 73.4485 32.8453C73.5555 32.7597 73.6378 32.6912 73.7284 32.6141C74.354 32.0916 75.0538 31.809 75.8605 31.9118C77.0542 32.0574 77.721 32.7511 77.7704 34.0102C77.828 35.4319 77.8033 36.8622 77.8115 38.284C77.8115 38.6352 77.8115 38.9949 77.8115 39.3889V39.406Z" fill="black"/>
<path d="M123.549 33.5134H122.462V32.1087H123.54V30.2844H125.491V32.0916H127.039V33.5048H125.508C125.508 34.1557 125.508 34.7553 125.508 35.3462C125.508 35.9458 125.508 36.5453 125.508 37.1448C125.508 37.8386 125.837 38.1041 126.487 37.9242C126.685 37.8728 126.866 37.7701 127.113 37.6673C127.335 38.0356 127.558 38.421 127.805 38.8407C127.681 38.9349 127.582 39.0205 127.467 39.0891C126.776 39.5259 126.01 39.6715 125.211 39.5601C124.133 39.406 123.565 38.6779 123.549 37.3932C123.532 36.2798 123.549 35.1664 123.549 34.0529C123.549 33.8988 123.549 33.736 123.549 33.5134Z" fill="black"/>
<path d="M56.5889 38.2582C57.0252 37.8385 57.4532 37.4445 57.8237 37.0934C58.2024 37.3161 58.5316 37.5901 58.9103 37.7101C59.6348 37.9327 60.2522 37.4959 60.4003 36.7165C60.4415 36.511 60.4497 36.2883 60.4497 36.0742C60.4497 34.1899 60.4497 32.3057 60.4497 30.4214C60.4497 30.2501 60.4497 30.0874 60.4497 29.8904H62.4254C62.4337 30.0274 62.4501 30.1388 62.4501 30.2501C62.4501 32.3228 62.4748 34.3869 62.4337 36.4596C62.4254 36.9564 62.3267 37.5045 62.1126 37.9413C61.8821 38.3952 61.5117 38.8492 61.1001 39.1233C59.7006 40.0397 57.692 39.6371 56.5971 38.2582H56.5889Z" fill="black"/>
<path d="M101.372 33.5219H99.7992C99.7992 34.0187 99.7992 34.4897 99.7992 34.9608C99.7992 35.6888 99.7828 36.4168 99.8157 37.1448C99.8486 37.89 100.186 38.1127 100.886 37.89C101.051 37.8386 101.215 37.7529 101.421 37.6673C101.528 37.8472 101.643 38.0441 101.758 38.2326C101.874 38.4296 101.989 38.618 102.096 38.8064C101.339 39.6629 99.4782 39.8685 98.6138 39.209C98.0293 38.755 97.8811 38.0955 97.8729 37.3847C97.8564 36.2712 97.8729 35.1578 97.8729 34.0444C97.8729 33.8902 97.8729 33.736 97.8729 33.5391H96.8027V32.1173H97.8647V30.2844H99.791V32.1002H101.38V33.5391L101.372 33.5219Z" fill="black"/>
<path d="M104.903 39.4229C104.335 39.4229 103.833 39.4229 103.331 39.4229C103.224 39.4229 103.117 39.4144 102.993 39.4058V32.1257H104.755C104.796 32.4426 104.845 32.7424 104.895 33.1021C104.994 32.9736 105.076 32.888 105.142 32.7852C105.743 31.963 106.533 31.7403 107.48 31.9373C107.677 31.9801 107.776 32.0486 107.743 32.2713C107.653 32.7852 107.578 33.3077 107.488 33.8473C107.299 33.813 107.142 33.7702 106.986 33.753C106.039 33.6246 105.339 34.0271 104.969 34.9264C104.911 35.072 104.903 35.2604 104.903 35.4317C104.903 36.7422 104.903 38.0526 104.903 39.4315V39.4229Z" fill="black"/>
<path d="M120.025 34.9524H117.292C117.325 34.0445 118.041 33.3336 118.856 33.3679C119.622 33.4021 120.042 33.9503 120.025 34.9524Z" fill="white"/>
<path d="M83.7551 34.9608H81.0303C81.0632 34.053 81.7959 33.325 82.6191 33.3763C83.3764 33.4192 83.821 34.0273 83.7551 34.9608Z" fill="white"/>
<path d="M109.899 34.9524C110.113 33.8561 110.78 33.2651 111.645 33.3936C112.328 33.4964 112.723 34.0959 112.649 34.9524H109.899Z" fill="white"/>
<path d="M67.8253 36.1514C67.8253 36.5882 67.8417 36.9736 67.817 37.3505C67.817 37.4704 67.7347 37.6502 67.6442 37.7016C67.3066 37.8729 66.9609 38.0442 66.5987 38.1213C66.2282 38.1984 65.8907 38.0528 65.7425 37.6331C65.6191 37.2991 65.759 36.8708 66.0965 36.6225C66.5987 36.2627 67.1832 36.1856 67.8335 36.1428L67.8253 36.1514Z" fill="white"/>
</g>
<defs>
<clipPath id="clip0_83_1659">
<rect width="103.642" height="28.7778" fill="white" transform="translate(24.1787 21)"/>
</clipPath>
</defs>
</svg>
