<?xml version="1.0" encoding="utf-8"?>
<!-- Generator: Adobe Illustrator 28.3.0, SVG Export Plug-In . SVG Version: 6.00 Build 0)  -->
<svg version="1.1" id="Layer_1" xmlns="http://www.w3.org/2000/svg" xmlns:xlink="http://www.w3.org/1999/xlink" x="0px" y="0px"
	 viewBox="0 0 169.06 157.63" style="enable-background:new 0 0 169.06 157.63;" xml:space="preserve">
<style type="text/css">
	.st0{fill:#231F20;}
	.st1{fill:url(#SVGID_1_);}
	.st2{enable-background:new    ;}
	.st3{fill:#FEFEFE;}
	.st4{fill:#B2B2B2;}
	.st5{fill:#E7E7E7;}
	.st6{fill:#FCFCFC;}
	.st7{fill:#FBFBFB;}
	.st8{fill:#F9F9F9;}
	.st9{fill:#FAFAFA;}
	.st10{fill:#E9E9E9;}
	.st11{fill:#E1E1E1;}
	.st12{fill:#CECECE;}
	.st13{fill:#070707;}
	.st14{fill:#121212;}
	.st15{fill:#0A0A0A;}
	.st16{fill:#191919;}
	.st17{fill:#181818;}
	.st18{fill:#FFFFFF;}
	.st19{fill:#2D2D2D;}
	.st20{fill:url(#Vector_00000121274620551342366950000012421824889615589785_);}
	.st21{fill:url(#Vector_2_00000087410459324390880470000010230252341360261506_);}
	.st22{fill:#CFCFCF;}
	.st23{opacity:0.972;fill-rule:evenodd;clip-rule:evenodd;enable-background:new    ;}
	.st24{opacity:0.977;fill-rule:evenodd;clip-rule:evenodd;enable-background:new    ;}
	.st25{opacity:0.971;fill-rule:evenodd;clip-rule:evenodd;enable-background:new    ;}
	.st26{opacity:0.984;fill-rule:evenodd;clip-rule:evenodd;enable-background:new    ;}
	.st27{opacity:0.975;fill-rule:evenodd;clip-rule:evenodd;enable-background:new    ;}
	.st28{opacity:0.987;fill-rule:evenodd;clip-rule:evenodd;enable-background:new    ;}
	.st29{opacity:0.979;fill-rule:evenodd;clip-rule:evenodd;enable-background:new    ;}
	.st30{opacity:0.978;fill-rule:evenodd;clip-rule:evenodd;enable-background:new    ;}
	.st31{opacity:0.921;fill-rule:evenodd;clip-rule:evenodd;enable-background:new    ;}
	.st32{opacity:0.92;fill-rule:evenodd;clip-rule:evenodd;enable-background:new    ;}
	.st33{opacity:0.95;fill-rule:evenodd;clip-rule:evenodd;enable-background:new    ;}
	.st34{opacity:0.964;fill-rule:evenodd;clip-rule:evenodd;enable-background:new    ;}
	.st35{opacity:0.945;fill-rule:evenodd;clip-rule:evenodd;enable-background:new    ;}
	.st36{opacity:0.959;fill-rule:evenodd;clip-rule:evenodd;enable-background:new    ;}
	.st37{opacity:0.948;fill-rule:evenodd;clip-rule:evenodd;enable-background:new    ;}
	.st38{fill-rule:evenodd;clip-rule:evenodd;fill:#24201D;}
	.st39{fill:#24201D;}
	.st40{fill:#105AF4;}
	.st41{fill:#4393F1;}
	.st42{fill:#98C6FB;}
	.st43{fill:#90C8FD;}
	.st44{fill:#80889E;}
	.st45{fill:#80879E;}
	.st46{fill:#C5CAD6;}
	.st47{fill:#2A2F59;}
	.st48{fill:#525E81;}
	.st49{fill:#7F889E;}
	.st50{fill:#242744;}
	.st51{fill:#7F879E;}
	.st52{fill:#525E80;}
	.st53{fill:#242644;}
	.st54{fill:#242743;}
	.st55{fill:#252744;}
	.st56{fill:#252845;}
	.st57{fill:#252844;}
	.st58{fill:#252644;}
	.st59{fill:#FDFEFD;}
	.st60{fill:#FDFDFD;}
	.st61{fill:#FCFCFB;}
	.st62{fill:#FDFEFE;}
	.st63{fill:#252F38;}
	.st64{fill:#A6493A;}
	.st65{fill:#A7493A;}
	.st66{fill:#A74A3B;}
	.st67{fill:#A74B3C;}
	.st68{fill:#FEFDFD;}
</style>
<g id="woHP99.tif">
	<g>
		<g>
			<path class="st60" d="M5.07,157.63c0-0.25,0-0.51,0-0.76c0-49.64,0-99.28-0.01-148.92c0-0.53,0.03-0.74,0.67-0.74
				c54.21,0.02,108.42,0.02,162.64,0.01c0.41,0,0.69-0.08,0.69,0.57c-0.02,49.9-0.02,99.8-0.02,149.69c0,0.05,0,0.1-0.01,0.15
				C114.38,157.63,59.73,157.63,5.07,157.63z"/>
			<path class="st63" d="M103.33,61.31c0-7.73,0.01-15.46-0.02-23.18c0-0.69,0.19-0.85,0.86-0.84c4.85,0.03,9.7,0.01,14.56,0.02
				c3.52,0.01,6.97,0.46,10.29,1.64c6.24,2.22,10.26,6.59,12.06,12.91c1.6,5.6,1.82,11.31,0.32,16.97
				c-2.04,7.72-7.07,12.67-14.58,15.18c-2.75,0.92-5.58,1.36-8.48,1.37c-4.72,0.03-9.45,0-14.17,0.03c-0.66,0-0.86-0.13-0.86-0.83
				C103.34,76.81,103.33,69.06,103.33,61.31z"/>
			<path class="st63" d="M40.48,61.24c0-7.7,0.01-15.4-0.02-23.11c0-0.66,0.13-0.87,0.83-0.86c2.64,0.05,5.29,0.04,7.93,0
				c0.69-0.01,0.89,0.15,0.89,0.87c-0.02,12.22-0.02,24.44-0.02,36.66c0,1.23-0.16,1.09,1.12,1.09c7.39,0,14.79,0.01,22.18-0.01
				c0.69,0,0.86,0.2,0.85,0.86c-0.04,2.62-0.03,5.24-0.01,7.86c0.01,0.56-0.08,0.8-0.74,0.8c-10.78-0.02-21.57-0.02-32.35,0
				c-0.62,0-0.7-0.21-0.7-0.75C40.49,76.85,40.48,69.04,40.48,61.24z"/>
			<path class="st64" d="M37.66,151c-10.53,0-21.06-0.01-31.58,0.02c-0.73,0-0.88-0.21-0.87-0.89c0.04-2.98,0.03-5.96,0-8.94
				c0-0.54,0.14-0.68,0.68-0.68c21.18,0.01,42.37,0.01,63.55,0c0.62,0,0.77,0.19,0.77,0.78c-0.03,2.98-0.03,5.96,0,8.94
				c0.01,0.66-0.2,0.79-0.82,0.79C58.82,151,48.24,151,37.66,151z"/>
			<path class="st63" d="M88.76,61.36c0,7.73-0.01,15.46,0.01,23.18c0,0.65-0.11,0.88-0.82,0.86c-2.62-0.05-5.24-0.05-7.86,0
				c-0.73,0.01-0.94-0.16-0.94-0.92c0.03-10.94,0.02-21.87,0.02-32.81c0-1,0-1-0.98-1c-2.18,0-4.36-0.02-6.55,0.01
				c-0.57,0.01-0.76-0.15-0.75-0.73c0.03-1.9,0.03-3.8,0-5.7c-0.01-0.57,0.17-0.75,0.74-0.78c1.73-0.1,3.41-0.44,4.98-1.19
				c1.95-0.92,3.35-2.36,3.97-4.45c0.13-0.44,0.34-0.55,0.76-0.54c2.21,0.02,4.42,0.03,6.62-0.01c0.65-0.01,0.8,0.19,0.8,0.82
				C88.75,45.85,88.76,53.61,88.76,61.36z"/>
			<path class="st64" d="M70.59,108.65c0-2.26,0.02-4.52-0.01-6.77c-0.01-0.62,0.19-0.81,0.79-0.78c1.51,0.07,3.03-0.06,4.54,0.1
				c3.4,0.34,5.63,2.49,6.11,5.89c0.17,1.23,0.17,2.46-0.08,3.68c-0.7,3.43-3.19,5.41-6.97,5.52c-1.23,0.04-2.46-0.01-3.69,0.02
				c-0.56,0.02-0.7-0.2-0.69-0.72C70.6,113.27,70.59,110.96,70.59,108.65z"/>
			<path class="st64" d="M99.48,115.26c-1.15,1.04-2.37,1.45-3.78,1.16c-1.15-0.24-2.05-0.87-2.56-1.92
				c-1.18-2.41-1.3-4.92-0.21-7.37c1.14-2.55,3.99-3.19,6.25-1.54c0.08,0.06,0.16,0.11,0.24,0.16c0.29-0.23-0.11-0.78,0.38-0.82
				c0.61-0.05,1.23-0.02,1.84,0.04c0.22,0.02,0.16,0.34,0.16,0.54c0,3.36,0,6.73-0.01,10.09c0,0.36-0.05,0.72-0.1,1.07
				c-0.28,1.96-1.26,3.03-3.17,3.5c-0.37,0.09-0.76,0.14-1.14,0.19c-0.87,0.1-1.51-0.46-1.6-1.35c-0.03-0.27,0.12-0.3,0.31-0.32
				c0.36-0.04,0.72-0.07,1.07-0.14C98.99,118.2,99.64,117.32,99.48,115.26z"/>
			<path class="st64" d="M130.98,111.83c0,1.28-0.02,2.57,0.01,3.85c0.01,0.46-0.13,0.66-0.61,0.62c-0.36-0.03-0.72-0.01-1.08-0.01
				c-0.29,0-0.51-0.07-0.51-0.42c0.01-0.75-0.32-0.42-0.62-0.2c-1.03,0.76-2.19,0.99-3.43,0.74c-1.93-0.39-3.04-1.82-3-3.81
				c0.04-1.88,1.25-3.19,3.24-3.51c1.08-0.17,2.15-0.17,3.21,0.12c0.51,0.14,0.63-0.03,0.62-0.51c-0.02-1.22-0.62-1.93-1.85-2.03
				c-0.91-0.07-1.81,0.05-2.63,0.43c-0.47,0.22-0.69,0.2-0.94-0.3c-0.62-1.26-0.65-1.27,0.7-1.73c1.47-0.49,2.96-0.62,4.46-0.15
				c1.5,0.47,2.39,1.63,2.43,3.2C131,109.36,130.98,110.59,130.98,111.83C130.98,111.83,130.98,111.83,130.98,111.83z"/>
			<path class="st63" d="M41.48,108.66c0-2.26,0.02-4.52-0.01-6.77c-0.01-0.59,0.13-0.81,0.76-0.8c1.55,0.03,1.55,0,1.55,1.53
				c0,3.54,0.01,7.08-0.01,10.62c0,0.59,0.13,0.8,0.76,0.78c2.05-0.04,4.11,0,6.16-0.03c0.5-0.01,0.66,0.14,0.66,0.65
				c0.01,1.65,0.03,1.65-1.58,1.65c-2.46,0-4.93-0.02-7.39,0.01c-0.68,0.01-0.93-0.14-0.91-0.88
				C41.51,113.18,41.48,110.92,41.48,108.66z"/>
			<path class="st65" d="M118.28,114.12c0.19,1.55-0.03,1.97-1.15,2.25c-1.73,0.42-3.02-0.09-3.5-1.38
				c-0.19-0.51-0.23-1.05-0.23-1.59c0-1.87-0.02-3.75,0.01-5.62c0.01-0.62-0.15-0.94-0.81-0.83c-0.95,0.16-0.83-0.48-0.86-1.08
				c-0.04-0.68,0.08-1.11,0.89-0.97c0.61,0.11,0.85-0.17,0.77-0.77c-0.04-0.28,0.05-0.58-0.01-0.84c-0.33-1.45,0.51-2.07,1.68-2.53
				c0.47-0.19,0.53-0.02,0.53,0.37c-0.01,1.05,0.01,2.1-0.01,3.16c-0.01,0.46,0.15,0.65,0.62,0.63c0.54-0.03,1.08,0.02,1.62-0.01
				c0.48-0.03,0.62,0.18,0.62,0.63c-0.02,1.72,0.12,1.4-1.36,1.42c-1.71,0.03-1.47-0.23-1.48,1.45c-0.01,1.41-0.01,2.82,0,4.23
				c0.01,1.77,0.51,2.13,2.24,1.6C117.98,114.19,118.13,114.16,118.28,114.12z"/>
			<path class="st63" d="M57.89,108.75c0,2.26-0.01,4.51,0.01,6.77c0.01,0.57-0.11,0.81-0.76,0.8c-1.55-0.04-1.55,0-1.55-1.53
				c0-3.13-0.01-6.26,0.01-9.39c0-0.56-0.12-0.82-0.72-0.74c-0.33,0.04-0.67,0.01-1,0.01c-1.02,0-0.99,0-1-0.99
				c-0.01-0.46,0.14-0.61,0.59-0.67c1.07-0.16,1.97-0.54,2.51-1.64c0.3-0.6,1.08-0.24,1.63-0.23c0.43,0.01,0.27,0.48,0.27,0.76
				C57.9,104.18,57.89,106.46,57.89,108.75z"/>
			<path class="st66" d="M137.57,108.41c0,2.34-0.02,4.67,0.01,7.01c0.01,0.65-0.13,0.91-0.85,0.88c-1.67-0.07-1.42,0.2-1.42-1.44
				c-0.01-4.11,0.01-8.22-0.02-12.33c-0.01-0.66,0.2-1,0.79-1.3c1.51-0.75,1.49-0.79,1.49,0.93
				C137.57,104.25,137.57,106.33,137.57,108.41z"/>
			<path class="st66" d="M88.41,110.56c0,1.69-0.02,3.39,0.01,5.08c0.01,0.51-0.16,0.66-0.66,0.66c-1.6,0.01-1.6,0.03-1.6-1.55
				c0-3.03,0.02-6.06-0.01-9.09c-0.01-0.61,0.17-0.78,0.78-0.77c1.49,0.03,1.49,0,1.49,1.51C88.41,107.79,88.41,109.17,88.41,110.56
				z"/>
			<path class="st66" d="M106.17,110.59c0-1.67,0.02-3.34-0.01-5c-0.01-0.55,0.18-0.7,0.71-0.7c1.58,0,1.58-0.02,1.58,1.59
				c0,3-0.02,6,0.01,9.01c0.01,0.64-0.18,0.85-0.82,0.82c-1.71-0.06-1.45,0.21-1.46-1.48C106.15,113.41,106.17,112,106.17,110.59z"
				/>
			<path class="st67" d="M88.72,102.01c0,0.77-0.63,1.4-1.42,1.41c-0.83,0.01-1.49-0.63-1.48-1.43c0.01-0.77,0.64-1.41,1.42-1.42
				C88.05,100.55,88.72,101.21,88.72,102.01z"/>
			<path class="st67" d="M108.74,102.04c-0.02,0.81-0.69,1.42-1.52,1.38c-0.79-0.04-1.38-0.67-1.36-1.46
				c0.02-0.81,0.7-1.43,1.51-1.39C108.15,100.61,108.76,101.27,108.74,102.04z"/>
			<path class="st3" d="M112.98,61.33c0-4.59,0.02-9.19-0.02-13.78c-0.01-0.74,0.23-0.9,0.91-0.88c2.87,0.08,5.75-0.14,8.6,0.39
				c5.23,0.96,8.4,4.02,9.44,9.23c0.66,3.28,0.73,6.58-0.07,9.85c-1.35,5.52-5.23,8.93-10.87,9.66c-2.48,0.32-4.97,0.17-7.46,0.23
				c-0.63,0.02-0.55-0.37-0.55-0.76C112.98,70.62,112.98,65.98,112.98,61.33z"/>
			<path class="st3" d="M72.9,108.71c0-1.54,0.02-3.08-0.01-4.61c-0.01-0.55,0.12-0.82,0.72-0.76c0.46,0.05,0.92,0.01,1.38,0.03
				c2.92,0.11,4.53,1.64,4.78,4.55c0.05,0.56,0.05,1.13-0.01,1.69c-0.33,2.91-1.97,4.38-4.9,4.43c-1.96,0.03-1.96,0.03-1.96-1.95
				C72.9,110.96,72.9,109.83,72.9,108.71z"/>
			<path class="st3" d="M99.56,110.66c0,0.49,0,0.97,0,1.46c0,1.12-0.72,1.93-1.99,2.23c-1.09,0.26-2.15-0.16-2.57-1.17
				c-0.69-1.67-0.75-3.39-0.12-5.1c0.34-0.92,1.08-1.33,2.05-1.33c1.53,0,2.63,1.09,2.63,2.6
				C99.56,109.79,99.56,110.22,99.56,110.66z"/>
			<path class="st68" d="M126.46,110.92c0.39,0.04,0.74,0.02,1.05,0.11c0.46,0.13,1.15,0.02,1.25,0.66
				c0.11,0.72,0.17,1.47-0.59,1.99c-0.84,0.57-1.71,0.92-2.73,0.72c-0.99-0.19-1.52-0.79-1.54-1.72c-0.02-0.85,0.52-1.48,1.48-1.67
				C125.75,110.94,126.14,110.95,126.46,110.92z"/>
		</g>
	</g>
</g>
</svg>
