<?xml version="1.0" standalone="no"?>
<!DOCTYPE svg PUBLIC "-//W3C//DTD SVG 20010904//EN"
 "http://www.w3.org/TR/2001/REC-SVG-20010904/DTD/svg10.dtd">
<svg version="1.0" xmlns="http://www.w3.org/2000/svg"
 width="820.000000pt" height="808.000000pt" viewBox="0 0 820.000000 808.000000"
 preserveAspectRatio="xMidYMid meet">

<g transform="translate(0.000000,808.000000) scale(0.100000,-0.100000)"
fill="#000000" stroke="none">
<path d="M0 4480 l0 -3600 4100 0 4100 0 0 3600 0 3600 -4100 0 -4100 0 0
-3600z m7678 -3 l2 -3077 -3575 2 -3575 3 0 3073 c0 1689 0 3074 0 3077 0 3
1608 4 3573 3 l3572 -3 3 -3078z"/>
<path d="M2490 5871 c0 -5 -274 -617 -610 -1361 -335 -743 -610 -1353 -610
-1356 0 -2 178 -3 396 -2 l396 3 216 482 c119 265 220 483 223 483 3 0 104
-218 224 -485 l218 -485 396 2 396 3 216 480 c119 264 221 478 225 476 5 -3
102 -210 215 -460 113 -251 211 -466 218 -478 l12 -23 389 0 c270 0 390 3 390
11 0 9 -263 594 -1007 2242 -119 263 -219 474 -223 470 -4 -4 -190 -415 -414
-913 -224 -498 -411 -908 -415 -912 -4 -4 -193 406 -421 912 -228 506 -418
920 -422 920 -5 0 -8 -4 -8 -9z"/>
<path d="M6230 5315 l0 -485 -595 0 c-327 0 -595 -1 -595 -2 0 -2 67 -160 149
-353 l148 -350 447 -3 446 -2 0 -485 0 -485 350 0 350 0 0 1325 0 1325 -350 0
-350 0 0 -485z"/>
<path d="M1760 370 c0 -3 44 -86 98 -185 l97 -180 39 0 39 0 94 175 c53 96 97
180 99 185 3 6 -13 9 -40 7 l-44 -4 -73 -135 c-61 -115 -74 -133 -84 -120 -6
9 -40 70 -75 136 l-64 119 -43 4 c-24 2 -43 1 -43 -2z"/>
<path d="M2420 335 l0 -35 190 0 190 0 0 35 0 35 -190 0 -190 0 0 -35z"/>
<path d="M2988 185 l3 -185 34 0 35 0 0 142 0 143 143 -143 142 -142 48 0 47
0 0 185 0 185 -35 0 -35 0 0 -135 c0 -74 -3 -135 -8 -135 -4 0 -68 61 -142
135 l-135 135 -50 0 -50 0 3 -185z"/>
<path d="M3630 335 l0 -35 85 0 85 0 0 -150 0 -150 35 0 35 0 0 150 0 150 90
0 90 0 0 35 0 35 -210 0 -210 0 0 -35z"/>
<path d="M4230 248 c0 -145 16 -191 79 -226 33 -19 54 -22 143 -22 122 0 160
15 195 76 20 35 23 53 23 167 l0 127 -40 0 -40 0 0 -128 c0 -165 3 -162 -143
-162 -138 0 -137 -1 -137 167 l0 123 -40 0 -40 0 0 -122z"/>
<path d="M4852 188 l3 -183 38 -3 37 -3 0 60 0 61 84 0 85 0 33 -60 c32 -59
33 -60 76 -60 l43 0 -37 66 -36 65 26 27 c57 60 55 136 -5 187 -30 24 -34 25
-190 25 l-159 0 2 -182z m302 96 c9 -8 16 -24 16 -34 0 -41 -26 -50 -136 -50
l-104 0 0 50 0 50 104 0 c82 0 108 -3 120 -16z"/>
<path d="M5432 338 l3 -33 193 -3 192 -2 0 35 0 35 -196 0 -195 0 3 -32z"/>
<path d="M6048 350 c-61 -48 -59 -142 5 -180 27 -17 51 -20 163 -20 138 0 160
-7 152 -47 -3 -16 -20 -18 -178 -23 l-175 -5 0 -35 0 -35 178 -3 179 -2 34 34
c29 29 34 41 34 79 0 86 -62 123 -188 112 -90 -8 -166 5 -170 28 -8 42 12 47
184 47 l164 0 0 35 0 35 -179 0 c-162 0 -181 -2 -203 -20z"/>
<path d="M2420 190 l0 -40 191 0 190 0 -3 38 -3 37 -187 3 -188 2 0 -40z"/>
<path d="M5437 224 c-4 -4 -7 -22 -7 -41 l0 -33 196 0 195 0 -3 38 -3 37 -186
3 c-102 1 -188 -1 -192 -4z"/>
<path d="M2420 40 l0 -40 191 0 190 0 -3 38 -3 37 -187 3 -188 2 0 -40z"/>
<path d="M5434 66 c-3 -8 -4 -25 -2 -38 l3 -23 193 -3 193 -2 -3 37 -3 38
-188 3 c-156 2 -188 0 -193 -12z"/>
</g>
</svg>
