<svg width="151" height="70" viewBox="0 0 151 70" fill="none" xmlns="http://www.w3.org/2000/svg">
<rect width="150.206" height="70" rx="7.77778" fill="white"/>
<g clip-path="url(#clip0_83_2034)">
<path d="M102.722 64H47.4844C47.4844 45 47.4844 26 47.4844 7C65.8968 7 84.3092 7 102.722 7V64ZM97.9934 53.709V12.2287H52.2179V53.7146H97.9934V53.709ZM85.7992 58.7657C86.0466 58.7657 86.2725 58.7657 86.5038 58.7657C86.8696 58.7657 87.23 58.7712 87.5957 58.7657C87.9131 58.7546 88.1659 58.5104 88.1982 58.1884C88.2305 57.872 88.0476 57.5723 87.7464 57.4946C87.6065 57.4613 87.4559 57.4613 87.3107 57.4613C87.0417 57.4613 86.7674 57.4613 86.4984 57.4613C86.45 57.4613 86.407 57.4557 86.3586 57.4502C86.2187 57.428 86.1434 57.3503 86.1542 57.2337C86.1649 57.1171 86.2456 57.045 86.3855 57.045C86.9072 57.045 87.4236 57.045 87.9454 57.045C87.9938 57.045 88.0422 57.045 88.096 57.045V56.6065C87.4774 56.6065 86.875 56.5954 86.2671 56.6065C85.9713 56.6176 85.74 56.9062 85.7292 57.2115C85.7185 57.5501 85.9175 57.8387 86.2349 57.8665C86.5845 57.8998 86.9395 57.8887 87.2945 57.8998C87.4021 57.8998 87.5097 57.8942 87.6119 57.9109C87.7733 57.9386 87.8378 58.1385 87.7195 58.2495C87.6657 58.2994 87.5796 58.3216 87.5097 58.3216C86.9879 58.3272 86.4715 58.3216 85.9498 58.3216C85.9014 58.3216 85.8529 58.3216 85.8045 58.3272V58.7602L85.7992 58.7657ZM71.4156 58.7657V56.6065H70.9907V58.2217C70.4743 57.6944 69.9794 57.1893 69.4792 56.6842C69.4415 56.6509 69.4039 56.6009 69.3609 56.5954C69.2049 56.5843 69.0435 56.5954 68.8821 56.5954V58.7546H69.3071V57.1393C69.3447 57.1727 69.3609 57.1838 69.377 57.2004C69.8611 57.6944 70.3452 58.1884 70.8347 58.6769C70.867 58.7102 70.9154 58.7546 70.9584 58.7546C71.109 58.7657 71.2597 58.7546 71.421 58.7546L71.4156 58.7657ZM79.3282 56.5954V58.7602H79.7478V58.0441C80.0436 58.0441 80.3179 58.0441 80.5923 58.0441C80.6353 58.0441 80.6891 58.0885 80.7106 58.1329C80.8128 58.3105 80.8989 58.4937 80.9957 58.6713C81.0172 58.7046 81.0549 58.7491 81.0925 58.7546C81.227 58.7657 81.3615 58.7546 81.5228 58.7546C81.383 58.4826 81.2485 58.2273 81.1194 57.972C81.1409 57.9553 81.1517 57.9497 81.1624 57.9442C81.4583 57.7333 81.5712 57.4224 81.4744 57.106C81.3776 56.7897 81.1086 56.5954 80.759 56.5954C80.5223 56.5954 80.2803 56.5954 80.0436 56.5954C79.8069 56.5954 79.5756 56.5954 79.3336 56.5954H79.3282ZM75.8318 56.6009C75.8318 56.662 75.8318 56.7064 75.8318 56.7453C75.8318 57.1505 75.8157 57.5556 75.8372 57.9553C75.8641 58.416 76.2191 58.749 76.671 58.7602C76.9291 58.7657 77.1873 58.7657 77.4455 58.7602C77.9296 58.7435 78.2793 58.3772 78.2847 57.872C78.2847 57.6001 78.2847 57.3281 78.2847 57.0616C78.2847 56.9118 78.2847 56.7619 78.2847 56.6065H77.8597C77.8597 57.0339 77.8597 57.4446 77.8597 57.8554C77.8597 58.1496 77.6983 58.3161 77.4133 58.3216C77.1766 58.3216 76.9453 58.3216 76.7086 58.3216C76.4289 58.3216 76.2675 58.144 76.2621 57.8554C76.2621 57.5168 76.2621 57.1838 76.2621 56.8452C76.2621 56.7675 76.2621 56.6897 76.2621 56.6009H75.8318ZM62.0185 56.6009C62.04 56.6453 62.0561 56.6842 62.0723 56.723C62.3843 57.317 62.707 57.9109 63.0029 58.5159C63.0997 58.7102 63.2073 58.7935 63.4117 58.7657C63.5031 58.7546 63.5569 58.7324 63.6053 58.6436C63.799 58.255 64.0034 57.8776 64.2024 57.489C64.353 57.1949 64.509 56.9007 64.6704 56.5843C64.5413 56.5843 64.4283 56.5898 64.3207 56.5843C64.2185 56.5732 64.1647 56.612 64.1217 56.7064C63.8689 57.206 63.6053 57.6944 63.3417 58.2051C63.3148 58.1607 63.2933 58.1274 63.2772 58.0996C63.0782 57.7222 62.8845 57.3392 62.6855 56.9617C62.5492 56.7027 62.3377 56.5806 62.0508 56.5954C62.0508 56.5954 62.04 56.5954 62.0185 56.6065V56.6009ZM74.7883 56.6009H72.4646V57.0394H73.3951V58.749H73.8308V57.0283H74.7883V56.6009ZM67.8278 56.6009H65.7139V57.0283H67.8278V56.6009ZM82.561 57.0283H84.6803V56.6009H82.561V57.0283ZM67.8278 57.4724H65.7139V57.8887H67.8278V57.4724ZM84.6803 57.4724H82.561V57.8887H84.6803V57.4724ZM65.7085 58.7546H67.8225V58.3383H65.7085V58.7546ZM84.6749 58.7602V58.3383H82.5664V58.7602H84.6749Z" fill="black"/>
<path d="M97.9933 53.7146H52.2178V12.2288H97.9933V53.7146ZM55.144 50.6839H95.0671V15.2539H55.1493V50.6839H55.144Z" fill="white"/>
<path d="M85.8042 58.7658V58.3328C85.8526 58.3328 85.9011 58.3273 85.9495 58.3273C86.4712 58.3273 86.9876 58.3273 87.5094 58.3273C87.5793 58.3273 87.6708 58.2995 87.7192 58.2551C87.8375 58.1441 87.773 57.9443 87.6116 57.9165C87.5094 57.8999 87.4018 57.911 87.2942 57.9054C86.9392 57.8943 86.5842 57.9054 86.2346 57.8721C85.9172 57.8388 85.7182 57.5558 85.7289 57.2172C85.7397 56.9119 85.971 56.6177 86.2668 56.6121C86.8747 56.5955 87.4771 56.6121 88.0957 56.6121V57.0506C88.0419 57.0506 87.9935 57.0506 87.9451 57.0506C87.4233 57.0506 86.9069 57.0506 86.3852 57.0506C86.2453 57.0506 86.1646 57.1228 86.1539 57.2394C86.1431 57.3559 86.2184 57.4392 86.3583 57.4558C86.4013 57.4614 86.4497 57.4669 86.4981 57.4669C86.7671 57.4669 87.0414 57.4614 87.3104 57.4669C87.4556 57.4669 87.6062 57.4669 87.7461 57.5002C88.0473 57.5724 88.2302 57.8777 88.1979 58.1941C88.1656 58.516 87.9182 58.7603 87.5955 58.7714C87.2297 58.7825 86.8693 58.7714 86.5035 58.7714C86.2722 58.7714 86.0463 58.7714 85.7989 58.7714L85.8042 58.7658Z" fill="white"/>
<path d="M71.4207 58.7657C71.2594 58.7657 71.1088 58.7712 70.9581 58.7657C70.9151 58.7657 70.8721 58.7213 70.8344 58.688C70.3449 58.194 69.8608 57.7055 69.3767 57.2115C69.3606 57.1948 69.3444 57.1782 69.3068 57.1504V58.7657H68.8818V56.6065C69.0432 56.6065 69.2046 56.6009 69.3606 56.6065C69.4036 56.6065 69.4466 56.6564 69.4789 56.6953C69.9792 57.2004 70.474 57.7055 70.9904 58.2328V56.6176H71.4154V58.7768L71.4207 58.7657Z" fill="white"/>
<path d="M79.3286 56.5955C79.5707 56.5955 79.8074 56.5955 80.0387 56.5955C80.2699 56.5955 80.5174 56.5955 80.7541 56.5955C81.1037 56.5955 81.378 56.7897 81.4695 57.1061C81.5663 57.4225 81.448 57.7333 81.1575 57.9443C81.1467 57.9498 81.136 57.9609 81.1145 57.972C81.2436 58.2274 81.378 58.4771 81.5179 58.7547C81.3619 58.7547 81.222 58.7547 81.0876 58.7547C81.0553 58.7547 81.0123 58.7103 80.9907 58.6714C80.8939 58.4938 80.8078 58.3106 80.7056 58.133C80.6841 58.0941 80.6303 58.0497 80.5873 58.0442C80.313 58.0386 80.0333 58.0442 79.7428 58.0442V58.7602H79.3232V56.5955H79.3286ZM79.7536 57.5946C80.1247 57.5946 80.4905 57.6001 80.8563 57.5946C80.9854 57.5946 81.0822 57.4558 81.0768 57.317C81.0768 57.1838 80.9746 57.0506 80.8563 57.0506C80.4905 57.0451 80.1247 57.0506 79.7536 57.0506V57.6001V57.5946Z" fill="white"/>
<path d="M75.8369 56.6064H76.2672C76.2672 56.6897 76.2672 56.773 76.2672 56.8507C76.2672 57.1893 76.2672 57.5279 76.2672 57.8609C76.2672 58.1495 76.4339 58.3216 76.7136 58.3272C76.9503 58.3272 77.1816 58.3272 77.4183 58.3272C77.698 58.3272 77.8594 58.1551 77.8648 57.8609C77.8648 57.4501 77.8648 57.0338 77.8648 56.612H78.2897C78.2897 56.7674 78.2897 56.9173 78.2897 57.0672C78.2897 57.3391 78.2897 57.6111 78.2897 57.8776C78.2897 58.3827 77.9401 58.749 77.4506 58.7657C77.1924 58.7712 76.9342 58.7712 76.676 58.7657C76.2242 58.7546 75.8691 58.4215 75.8422 57.9608C75.8207 57.5612 75.8369 57.156 75.8369 56.7508C75.8369 56.7064 75.8369 56.6675 75.8369 56.6064Z" fill="white"/>
<path d="M62.0234 56.6122C62.045 56.6066 62.0503 56.6011 62.0557 56.6011C62.3426 56.5863 62.5542 56.7084 62.6904 56.9674C62.8895 57.3449 63.0885 57.7279 63.2821 58.1053C63.2983 58.1386 63.3198 58.1664 63.3467 58.2108C63.6102 57.7057 63.8738 57.2117 64.1266 56.7121C64.175 56.6177 64.2288 56.5789 64.3257 56.59C64.4332 56.6011 64.5408 56.59 64.6753 56.59C64.5139 56.9064 64.3579 57.2006 64.2073 57.4947C64.0083 57.8777 63.8039 58.2607 63.6102 58.6493C63.5672 58.7381 63.508 58.7547 63.4166 58.7714C63.2068 58.7992 63.0992 58.7159 63.0078 58.5216C62.712 57.9166 62.3892 57.3282 62.0772 56.7287C62.0557 56.6899 62.045 56.6566 62.0234 56.6066V56.6122Z" fill="white"/>
<path d="M74.7935 56.6064V57.0338H73.836V58.7546H73.4003V57.0449H72.4697V56.6064H74.7935Z" fill="white"/>
<path d="M67.8327 56.6064V57.0338H65.7188V56.6064H67.8327Z" fill="white"/>
<path d="M82.5664 57.0285V56.6011H84.6857V57.0285H82.5664Z" fill="white"/>
<path d="M67.8327 57.4724V57.8887H65.7188V57.4724H67.8327Z" fill="white"/>
<path d="M84.6857 57.4724V57.8887H82.5664V57.4724H84.6857Z" fill="white"/>
<path d="M65.7139 58.7547V58.3384H67.8278V58.7547H65.7139Z" fill="white"/>
<path d="M84.6799 58.7602H82.5713V58.3384H84.6799V58.7602Z" fill="white"/>
<path d="M55.1494 50.6839V15.2539H95.0671V50.6839H55.1494ZM59.2859 40.5872C59.3451 40.5872 59.3719 40.5928 59.3988 40.5928C60.8028 40.5928 62.2067 40.5928 63.6106 40.5928C63.7128 40.5928 63.7451 40.5428 63.7774 40.4651C64.2292 39.4271 64.681 38.3892 65.1383 37.3512C65.4825 36.5685 65.8268 35.7803 66.1764 34.981C66.2033 35.031 66.2194 35.0699 66.2356 35.1087C67.0209 36.896 67.8009 38.6834 68.5808 40.4762C68.6185 40.565 68.6615 40.5928 68.753 40.5928C70.1461 40.5928 71.5447 40.5928 72.9378 40.5928C73.0293 40.5928 73.0777 40.5595 73.1153 40.4762C73.777 38.9609 74.4386 37.4511 75.1002 35.9358C75.2347 35.6249 75.3745 35.3085 75.5198 34.9755C75.5467 35.031 75.5574 35.0588 75.5736 35.0865C76.3589 36.8794 77.1442 38.6723 77.9242 40.4707C77.9672 40.565 78.0103 40.5928 78.1071 40.5928C79.4949 40.5928 80.8773 40.5928 82.2651 40.5928C82.3081 40.5928 82.3511 40.5928 82.4157 40.5872C80.1188 35.3363 77.8274 30.1075 75.5252 24.8455C73.9599 28.4146 72.4161 31.9559 70.8508 35.525C69.2909 31.9559 67.7417 28.4146 66.1764 24.8455C63.8742 30.1075 61.5827 35.3418 59.2859 40.5928V40.5872ZM80.3501 30.9346C80.3609 30.9734 80.3663 30.9901 80.3717 31.0068C80.9096 32.3056 81.4421 33.6045 81.9746 34.9089C82.0176 35.0088 82.0768 35.0088 82.1575 35.0088C83.7066 35.0088 85.2612 35.0088 86.8103 35.0088C86.8641 35.0088 86.9179 35.0088 86.9879 35.0088V40.5817H90.9145V25.3728H86.9771V30.9401H80.3501V30.9346Z" fill="black"/>
<path d="M79.7529 57.5947V57.0452C80.1241 57.0452 80.4899 57.0452 80.8556 57.0452C80.9793 57.0452 81.0762 57.1784 81.0762 57.3116C81.0762 57.4504 80.9847 57.5891 80.8556 57.5891C80.4899 57.6002 80.1241 57.5891 79.7529 57.5891V57.5947Z" fill="black"/>
<path d="M59.2861 40.5928C61.583 35.3418 63.8744 30.1131 66.1767 24.8455C67.7366 28.4146 69.2857 31.9559 70.851 35.525C72.4109 31.9614 73.9601 28.4201 75.5254 24.8455C77.8276 30.1075 80.1191 35.3363 82.4159 40.5872C82.3568 40.5872 82.3137 40.5928 82.2653 40.5928C80.8775 40.5928 79.4951 40.5928 78.1073 40.5928C78.0105 40.5928 77.9621 40.565 77.9244 40.4706C77.1445 38.6778 76.3592 36.8849 75.5738 35.0865C75.5631 35.0587 75.5469 35.031 75.52 34.9755C75.3748 35.3141 75.2349 35.6249 75.1005 35.9357C74.4388 37.4455 73.7772 38.9609 73.1156 40.4762C73.0779 40.5595 73.0349 40.5928 72.9381 40.5928C71.5449 40.5928 70.1464 40.5928 68.7532 40.5928C68.6618 40.5928 68.6187 40.565 68.5811 40.4762C67.8011 38.6833 67.0158 36.896 66.2358 35.1087C66.2197 35.0698 66.1982 35.0365 66.1767 34.981C65.827 35.7803 65.4828 36.5685 65.1385 37.3512C64.6867 38.3891 64.2295 39.4271 63.7776 40.4651C63.7453 40.5428 63.7131 40.5928 63.6109 40.5928C62.2069 40.5928 60.803 40.5928 59.3991 40.5928C59.3722 40.5928 59.3453 40.5928 59.2861 40.5872V40.5928Z" fill="white"/>
<path d="M80.3506 30.9401H86.9775V25.3728H90.915V40.5872H86.9883V35.0143C86.9184 35.0143 86.8646 35.0143 86.8108 35.0143C85.2616 35.0143 83.7071 35.0143 82.1579 35.0143C82.0773 35.0143 82.0181 35.0143 81.9751 34.9144C81.4425 33.61 80.9046 32.3112 80.3721 31.0123C80.3667 30.9956 80.3613 30.979 80.3506 30.9401Z" fill="white"/>
</g>
<defs>
<clipPath id="clip0_83_2034">
<rect width="55.2372" height="57" fill="white" transform="translate(47.4844 7)"/>
</clipPath>
</defs>
</svg>
