<svg width="151" height="70" viewBox="0 0 151 70" fill="none" xmlns="http://www.w3.org/2000/svg">
<path d="M142.432 0H7.78169C3.48614 0 0.00390625 3.48223 0.00390625 7.77778V62.2222C0.00390625 66.5178 3.48614 70 7.78169 70H142.432C146.728 70 150.21 66.5178 150.21 62.2222V7.77778C150.21 3.48223 146.728 0 142.432 0Z" fill="white"/>
<mask id="mask0_515_122" style="mask-type:luminance" maskUnits="userSpaceOnUse" x="56" y="4" width="39" height="40">
<path d="M94.9186 4H56.7559V43.7194H94.9186V4Z" fill="white"/>
</mask>
<g mask="url(#mask0_515_122)">
<path d="M75.8372 43.7194C86.3757 43.7194 94.9186 34.8279 94.9186 23.8597C94.9186 12.8915 86.3757 4 75.8372 4C65.2989 4 56.7559 12.8915 56.7559 23.8597C56.7559 34.8279 65.2989 43.7194 75.8372 43.7194Z" fill="url(#paint0_linear_515_122)"/>
<path d="M66.9829 13.7111C66.9542 13.6118 66.8969 13.6019 66.8111 13.6515C66.8492 13.6912 66.8874 13.7409 66.916 13.7806C67.8796 15.002 68.8623 16.2035 69.9786 17.276C70.6178 17.8915 71.2666 18.5072 71.9058 19.1229C72.0966 19.3016 72.2874 19.5002 72.1061 19.8081C71.8199 20.2747 70.9327 20.3244 70.6274 19.8677C70.3507 19.4505 70.1026 19.0037 69.845 18.5668C69.7782 18.4675 69.7305 18.3086 69.5588 18.4278C69.6447 18.5668 69.721 18.7158 69.7973 18.8548C70.2457 19.6591 70.2267 20.0066 69.6733 20.7415C69.5015 20.9699 69.387 21.2181 69.3298 21.4961C69.2535 21.8337 69.1963 22.1713 69.1485 22.5189C68.9959 23.7105 68.3663 24.6439 67.6316 25.4979C66.2768 27.0469 66.4867 28.5563 67.3454 29.9862C67.5266 30.294 67.727 30.6018 67.8511 30.9295C67.9464 31.1877 68.0704 31.1976 68.2803 31.138C68.9863 30.9295 69.6828 30.7607 70.3412 30.3238C71.3334 29.6585 71.7054 28.3576 70.4842 27.5732C70.3888 27.5136 70.303 27.4342 70.2172 27.3746C69.1295 26.5702 68.9386 25.9348 69.5111 24.6836C69.8737 23.8992 70.1312 23.1047 70.198 22.2309C70.2648 21.3472 70.4175 21.238 71.2857 21.089C71.7818 21.0096 72.2588 20.8606 72.6214 20.4535C73.0125 20.0166 73.1079 19.3413 72.7549 18.9938C70.8945 17.1667 68.9768 15.4091 67.0019 13.7211L66.9829 13.7111ZM77.7066 20.1754C77.6875 20.3046 77.6779 20.3741 77.6779 20.4336C77.6207 21.7841 78.3648 22.5983 79.3952 23.2239C80.4829 23.8793 81.6946 24.2467 82.8203 24.8226C83.7649 25.3092 84.614 25.8851 84.7381 27.2257C85.2723 26.2724 85.3677 25.3588 85.1769 24.4155C85.0052 23.5516 84.5759 22.8466 83.8794 22.3103C83.078 21.6947 82.1525 21.4365 81.1889 21.2578C80.0154 21.0393 78.7751 21.0492 77.7066 20.1754ZM82.2956 32.4786C82.4292 32.4686 82.5341 32.4786 82.601 32.4388C85.0338 30.7508 85.1864 27.2355 82.62 25.7163C81.9331 25.3092 81.2366 24.912 80.5592 24.4949C80.2921 24.3261 80.2444 24.4652 80.2062 24.7034C80.0345 25.6071 80.3207 26.4014 80.7596 27.1462C81.1984 27.891 81.685 28.6059 82.1239 29.3506C82.7058 30.3337 82.8967 31.3565 82.3147 32.4786H82.2956ZM72.5546 14.7836C73.6899 14.9622 74.5009 15.6673 75.2164 16.5212C75.6457 17.0277 76.0656 17.554 76.4281 18.11C77.6875 20.0066 79.5192 20.4435 81.5801 20.3839C81.3225 20.0066 81.3606 20.0166 81.4656 19.5598C81.7136 18.4874 81.7709 17.8221 80.6642 17.3852C80.5879 17.3554 80.5211 17.3157 80.4447 17.2858C79.2807 16.7795 78.0691 16.5908 76.8097 16.7795C76.3804 16.839 76.0274 16.8092 75.7316 16.4021C75.4549 16.0248 75.0924 15.707 74.7012 15.4489C74.043 15.002 73.3655 14.6445 72.5259 14.7934L72.5546 14.7836ZM80.2157 33.9879C80.0345 33.9184 79.8723 34.0077 79.7101 34.0276C78.8896 34.1269 78.2885 33.6701 78.1358 32.8261C78.0691 32.4686 78.0118 32.1111 77.9546 31.7537C77.697 29.9762 76.6761 29.0329 74.9493 29.013C73.3846 29.0031 72.068 29.6486 70.9231 30.7209C70.8754 30.7706 70.7609 30.8004 70.8182 30.8997C70.8754 30.999 70.9804 30.9593 71.0757 30.9692C71.7246 31.0486 72.3828 31.1281 72.8981 31.6345C73.2129 31.9523 73.5278 32.27 73.8426 32.5779C74.3292 33.0445 74.9875 33.1736 75.4931 32.9055C76.0274 32.6374 76.2564 31.9026 75.9797 31.3764C75.7507 30.9394 75.1974 30.7905 74.7394 31.0784C74.892 31.0784 75.0257 31.0685 75.1497 31.0784C75.5408 31.1281 75.7984 31.3366 75.8079 31.7735C75.8079 32.1707 75.5312 32.5183 75.1592 32.5679C74.7871 32.6176 74.4722 32.4686 74.2242 32.1906C73.9285 31.8629 73.9093 31.4856 74.1002 31.0884C74.3005 30.6713 74.8157 30.4231 75.3214 30.5025C76.0751 30.6316 76.5616 31.1181 76.8956 31.8033C77.1913 32.4091 77.4298 33.0347 77.7733 33.6105C78.2503 34.4149 79.5002 34.6135 80.2157 33.9581V33.9879ZM72.0108 16.0347C72.1253 17.0873 72.421 18.2292 73.4323 19.0037C73.7185 19.2222 74.0143 19.4009 74.3768 19.4406C74.5295 19.4605 74.7775 19.4208 74.6154 19.1924C74.062 18.4179 73.9761 17.4845 73.709 16.6007C73.5373 16.0148 73.1556 15.6177 72.5928 15.4091C72.0299 15.2006 71.9917 15.2205 72.0108 16.0248V16.0347ZM74.291 28.1292C75.4549 27.8115 76.6857 27.9903 77.8592 27.6923C78.5652 27.5136 79.109 27.0866 79.5002 26.4512C79.8723 25.8355 79.8437 24.3957 79.2045 24.0381C79.3285 24.4453 79.3952 24.8226 79.3475 25.2099C79.214 26.2823 78.4603 26.9973 77.2391 27.2455C76.2373 27.4441 75.2069 27.5037 74.3005 28.1392L74.291 28.1292ZM73.461 21.3869C73.003 21.4068 72.7168 21.7046 72.6786 22.2011C72.65 22.5289 72.6691 22.8763 73.0507 22.9459C73.5658 23.0452 74.062 22.9558 74.5009 22.6281C74.7585 22.4295 74.7871 22.1515 74.6535 21.8834C74.5104 21.6053 74.3387 21.3472 73.8617 21.3671C74.167 21.5557 74.3864 21.7046 74.1574 21.9628C73.938 22.211 73.6422 22.221 73.3751 22.0324C73.0316 21.7841 73.3083 21.5954 73.4705 21.3968L73.461 21.3869ZM83.8507 21.4564C83.7267 20.4535 83.2306 19.669 82.5818 18.8647C82.4292 19.5201 82.2956 20.0861 81.6659 20.4435C82.5913 20.4932 83.3355 20.7116 83.8507 21.4564ZM83.1065 18.2292C82.515 17.6036 81.9235 16.988 81.8186 16.0546C81.7613 16.134 81.7518 16.1836 81.7518 16.2333C81.7328 16.6437 81.5228 16.8026 81.1221 16.7099C81.0171 16.6901 80.9027 16.6504 80.7977 16.7993C82.0571 17.1965 82.019 18.259 81.9521 19.4307C82.1525 19.1725 82.143 18.9739 82.1621 18.7852C82.2257 18.0968 82.5405 17.9181 83.1065 18.2491V18.2292Z" fill="black"/>
<path d="M74.7016 4C74.5395 4.13902 74.3868 4.13902 74.2246 4H74.7016Z" fill="black"/>
<path d="M77.9453 43.6994C77.9547 43.6298 77.9643 43.5305 78.059 43.5604C78.097 43.5604 78.1065 43.6497 78.1349 43.6994H77.9453Z" fill="black"/>
<path d="M75.0839 4C75.0552 4.04965 75.0169 4.04965 74.9883 4H75.0839Z" fill="black"/>
<path d="M66.9843 13.7114C68.9592 15.3995 70.8769 17.1571 72.7374 18.9841C73.0904 19.3316 72.995 20.0069 72.6038 20.4438C72.2413 20.8509 71.7738 20.9999 71.2681 21.0793C70.3999 21.2183 70.2568 21.3375 70.1804 22.2212C70.1137 23.0951 69.8561 23.8895 69.4935 24.674C68.9212 25.9151 69.1119 26.5606 70.1996 27.3649C70.2949 27.4344 70.3809 27.504 70.4667 27.5636C71.6975 28.348 71.3253 29.6488 70.3236 30.3141C69.6749 30.751 68.9784 30.9198 68.2628 31.1283C68.0529 31.1879 67.9288 31.178 67.8335 30.9198C67.7095 30.5922 67.5091 30.2843 67.3278 29.9765C66.4691 28.5565 66.2593 27.0472 67.614 25.4882C68.3487 24.6441 68.9784 23.7008 69.131 22.5092C69.1787 22.1617 69.236 21.824 69.3122 21.4864C69.3695 21.2085 69.484 20.9602 69.6557 20.7318C70.1996 19.9969 70.2186 19.6495 69.7797 18.8451C69.7034 18.7061 69.6176 18.567 69.5412 18.4181C69.7225 18.299 69.7702 18.4578 69.8274 18.5571C70.0946 18.9941 70.3331 19.431 70.6098 19.858C70.9151 20.3148 71.8024 20.2651 72.0886 19.7984C72.2699 19.5004 72.0791 19.3019 71.8883 19.1132C71.2491 18.4976 70.6003 17.8819 69.9611 17.2663C68.8543 16.1839 67.8621 14.9923 66.8985 13.7709C66.9176 13.7511 66.9366 13.7213 66.9653 13.7014L66.9843 13.7114ZM67.6236 28.0997C67.6236 28.3182 67.7285 28.4175 67.8907 28.4075C68.1865 28.3877 68.301 28.1693 68.301 27.9011C68.301 27.5636 68.1006 27.345 67.7858 27.3848C67.1561 27.4642 68.0338 27.9706 67.614 28.0997H67.6236Z" fill="#060707"/>
<path d="M77.7075 20.1855C78.7761 21.0593 80.0163 21.0494 81.1898 21.2678C82.1439 21.4466 83.0694 21.7048 83.8803 22.3204C84.5768 22.8566 85.0061 23.5616 85.1778 24.4255C85.3591 25.3689 85.2733 26.2924 84.739 27.2356C84.6245 25.8952 83.7754 25.3292 82.8214 24.8327C81.6955 24.2567 80.4838 23.8893 79.3962 23.234C78.3658 22.6084 77.6217 21.7842 77.6789 20.4436C77.6789 20.384 77.698 20.3245 77.7075 20.1855Z" fill="#060707"/>
<path d="M82.2977 32.4787C82.8892 31.3566 82.6889 30.3339 82.1069 29.3508C81.668 28.606 81.191 27.8911 80.7425 27.1463C80.3037 26.4016 80.0175 25.6072 80.1892 24.7036C80.2369 24.4653 80.275 24.3262 80.5422 24.4951C81.2196 24.9122 81.9161 25.3192 82.603 25.7164C85.179 27.2357 85.0263 30.7509 82.5839 32.439C82.5171 32.4886 82.4122 32.4588 82.2786 32.4787H82.2977Z" fill="#060707"/>
<path d="M72.5547 14.7838C73.3847 14.6348 74.0716 14.9923 74.7299 15.4391C75.1211 15.6974 75.4837 16.0051 75.7603 16.3924C76.0561 16.8095 76.4091 16.8393 76.8384 16.7697C78.0978 16.5811 79.3 16.7697 80.4734 17.2762C80.5497 17.306 80.6165 17.3457 80.6929 17.3754C81.7996 17.8124 81.7424 18.4777 81.4943 19.5501C81.3894 19.997 81.3416 19.987 81.6088 20.3743C79.5385 20.4339 77.7066 19.997 76.4568 18.1003C76.0847 17.5443 75.6745 17.018 75.2451 16.5116C74.5296 15.6576 73.7091 14.9526 72.5832 14.7738L72.5547 14.7838Z" fill="#060707"/>
<path d="M80.218 33.998C79.5024 34.6434 78.2621 34.4449 77.7756 33.6504C77.4321 33.0746 77.1936 32.439 76.8978 31.8432C76.5639 31.1581 76.0773 30.6715 75.3236 30.5425C74.8179 30.453 74.3027 30.7113 74.1024 31.1283C73.9116 31.5255 73.9402 31.9028 74.2264 32.2305C74.4744 32.5085 74.7893 32.6575 75.1614 32.6078C75.5335 32.5582 75.8197 32.2106 75.8102 31.8135C75.8006 31.3766 75.543 31.168 75.1518 31.1183C75.0278 31.0985 74.9038 31.1183 74.7416 31.1183C75.1996 30.8304 75.7529 30.9794 75.9819 31.4163C76.2585 31.9425 76.02 32.6674 75.4953 32.9454C74.9801 33.2037 74.3314 33.0845 73.8448 32.6178C73.5204 32.31 73.2151 31.9922 72.9002 31.6744C72.3946 31.168 71.7363 31.0886 71.078 31.0091C70.9826 30.9992 70.8776 31.039 70.8203 30.9396C70.7631 30.8304 70.8776 30.8006 70.9253 30.7609C72.0702 29.6885 73.3869 29.0331 74.9515 29.053C76.6784 29.0728 77.6897 30.0161 77.9568 31.7936C78.0141 32.1511 78.0713 32.5085 78.1381 32.8661C78.2907 33.71 78.8918 34.1668 79.7123 34.0675C79.8745 34.0477 80.0462 33.9683 80.218 34.0278V33.998Z" fill="#060707"/>
<path d="M72.0114 16.035C71.9924 15.2307 72.0305 15.2108 72.5934 15.4193C73.1563 15.6279 73.5379 16.0251 73.7097 16.611C73.9673 17.4848 74.0626 18.4281 74.6161 19.2026C74.7783 19.431 74.5302 19.4707 74.3775 19.4509C74.0245 19.4112 73.7192 19.2324 73.433 19.0139C72.4217 18.2295 72.1259 17.0975 72.0114 16.0449V16.035Z" fill="#060707"/>
<path d="M74.2908 28.1294C75.1971 27.4939 76.237 27.4442 77.2293 27.2357C78.4601 26.9874 79.2138 26.2626 79.3378 25.2001C79.3855 24.8129 79.3188 24.4355 79.1947 24.0284C79.8339 24.3859 79.8721 25.8356 79.4905 26.4413C79.0993 27.0769 78.5554 27.5038 77.8494 27.6826C76.676 27.9805 75.4452 27.8017 74.2812 28.1195L74.2908 28.1294Z" fill="#060707"/>
<path d="M73.4619 21.3872C73.2997 21.5858 73.023 21.7745 73.3664 22.0227C73.6336 22.2114 73.9198 22.2015 74.1488 21.9532C74.3778 21.695 74.1583 21.556 73.8531 21.3574C74.3301 21.3375 74.5113 21.5957 74.6449 21.8738C74.788 22.1518 74.7594 22.4199 74.4923 22.6185C74.0534 22.9462 73.5573 23.0356 73.0421 22.9363C72.6509 22.8668 72.6414 22.5192 72.67 22.1915C72.7082 21.695 72.9944 21.3971 73.4524 21.3773L73.4619 21.3872Z" fill="#060707"/>
<path d="M83.8527 21.4567C83.3376 20.712 82.5934 20.4935 81.668 20.4439C82.2977 20.0963 82.4312 19.5303 82.5839 18.865C83.2327 19.6694 83.7287 20.4439 83.8527 21.4567Z" fill="#060707"/>
<path d="M83.1077 18.2196C82.5416 17.8953 82.2268 18.074 82.1632 18.7558C82.1441 18.9445 82.1632 19.1431 81.9532 19.4013C82.02 18.2395 82.0582 17.177 80.7988 16.7698C80.9038 16.6309 81.0183 16.6606 81.1232 16.6805C81.5176 16.7732 81.7275 16.6143 81.7529 16.2038C81.7529 16.1542 81.7624 16.1045 81.8197 16.0251C81.9247 16.9585 82.5162 17.5842 83.1077 18.1997V18.2196Z" fill="#060707"/>
<path d="M66.9266 13.7806C66.8887 13.7409 66.8507 13.6912 66.8223 13.6515C66.8982 13.6019 66.9645 13.6118 66.993 13.7111C66.974 13.731 66.955 13.7607 66.9266 13.7806Z" fill="#060707"/>
<path d="M67.6228 28.0997C68.0426 27.9705 67.1649 27.4641 67.7946 27.3847C68.0998 27.345 68.3098 27.5635 68.3098 27.901C68.3098 28.1692 68.1858 28.3876 67.8995 28.4074C67.7278 28.4174 67.6324 28.3181 67.6324 28.0997H67.6228Z" fill="#E3E6E1"/>
</g>
<path d="M54.5608 50.4571H55.399V54.099C55.399 54.4865 55.3079 54.8299 55.1259 55.1291C54.9438 55.4265 54.6879 55.6608 54.358 55.8321C54.0282 56.0015 53.6415 56.0862 53.1981 56.0862C52.7565 56.0862 52.3708 56.0015 52.0409 55.8321C51.7111 55.6608 51.4551 55.4265 51.2731 55.1291C51.091 54.8299 51 54.4865 51 54.099V50.4571H51.8355V54.0314C51.8355 54.2819 51.8904 54.5045 52.0004 54.6992C52.1121 54.8939 52.2698 55.0471 52.4735 55.1588C52.6772 55.2688 52.9187 55.3238 53.1981 55.3238C53.4793 55.3238 53.7218 55.2688 53.9254 55.1588C54.1309 55.0471 54.2877 54.8939 54.3959 54.6992C54.5058 54.5045 54.5608 54.2819 54.5608 54.0314V50.4571Z" fill="black"/>
<path d="M57.3571 53.5285V55.9943H56.5487V51.8414H57.3247V52.5173H57.3761C57.4716 52.2974 57.6212 52.1207 57.8249 51.9874C58.0304 51.854 58.289 51.7873 58.6008 51.7873C58.8838 51.7873 59.1317 51.8468 59.3444 51.9657C59.5571 52.0829 59.722 52.2577 59.8392 52.4903C59.9563 52.7228 60.0149 53.0103 60.0149 53.3527V55.9943H59.2065V53.4501C59.2065 53.1491 59.1281 52.9138 58.9713 52.7444C58.8144 52.5732 58.599 52.4876 58.3251 52.4876C58.1376 52.4876 57.9709 52.5281 57.8249 52.6092C57.6807 52.6903 57.5662 52.8093 57.4815 52.9661C57.3986 53.1211 57.3571 53.3086 57.3571 53.5285Z" fill="black"/>
<path d="M61.0991 55.9943V51.8414H61.9075V55.9943H61.0991ZM61.5074 51.2006C61.3668 51.2006 61.246 51.1537 61.1451 51.06C61.0459 50.9645 60.9963 50.8509 60.9963 50.7193C60.9963 50.5859 61.0459 50.4724 61.1451 50.3786C61.246 50.2831 61.3668 50.2354 61.5074 50.2354C61.6479 50.2354 61.7678 50.2831 61.8669 50.3786C61.9679 50.4724 62.0184 50.5859 62.0184 50.7193C62.0184 50.8509 61.9679 50.9645 61.8669 51.06C61.7678 51.1537 61.6479 51.2006 61.5074 51.2006Z" fill="black"/>
<path d="M66.1071 52.8553L65.3744 52.985C65.3437 52.8913 65.295 52.8021 65.2284 52.7174C65.1635 52.6327 65.0751 52.5633 64.9634 52.5092C64.8516 52.4551 64.7119 52.4281 64.5443 52.4281C64.3154 52.4281 64.1243 52.4794 63.9711 52.5822C63.8179 52.6831 63.7413 52.8138 63.7413 52.9742C63.7413 53.113 63.7927 53.2248 63.8954 53.3095C63.9982 53.3942 64.164 53.4636 64.3929 53.5177L65.0526 53.6691C65.4347 53.7574 65.7195 53.8935 65.907 54.0773C66.0944 54.2612 66.1882 54.5 66.1882 54.7938C66.1882 55.0426 66.1161 55.2643 65.9719 55.4589C65.8295 55.6518 65.6303 55.8032 65.3744 55.9132C65.1202 56.0231 64.8255 56.0781 64.4902 56.0781C64.0252 56.0781 63.6458 55.979 63.352 55.7807C63.0582 55.5806 62.8779 55.2967 62.8112 54.929L63.5926 54.8101C63.6413 55.0137 63.7413 55.1678 63.8927 55.2724C64.0441 55.3751 64.2415 55.4265 64.4848 55.4265C64.7498 55.4265 64.9616 55.3715 65.1202 55.2616C65.2788 55.1498 65.3581 55.0137 65.3581 54.8533C65.3581 54.7235 65.3095 54.6145 65.2121 54.5262C65.1166 54.4378 64.9697 54.3712 64.7714 54.3261L64.0685 54.172C63.6809 54.0837 63.3943 53.9431 63.2087 53.7502C63.0248 53.5573 62.9329 53.3131 62.9329 53.0175C62.9329 52.7723 63.0014 52.5579 63.1384 52.374C63.2754 52.1901 63.4646 52.0468 63.7062 51.9441C63.9477 51.8396 64.2244 51.7873 64.5362 51.7873C64.985 51.7873 65.3383 51.8846 65.5961 52.0793C65.8538 52.2722 66.0242 52.5308 66.1071 52.8553Z" fill="black"/>
<path d="M67.9774 55.9943L66.7553 51.8414H67.5907L68.4046 54.8912H68.4451L69.2616 51.8414H70.0971L70.9082 54.8776H70.9488L71.7572 51.8414H72.5926L71.3732 55.9943H70.5486L69.705 52.9959H69.6429L68.7993 55.9943H67.9774Z" fill="black"/>
<path d="M74.5684 56.0862C74.3052 56.0862 74.0673 56.0375 73.8546 55.9402C73.6419 55.8411 73.4734 55.6978 73.349 55.5103C73.2264 55.3229 73.1651 55.093 73.1651 54.8209C73.1651 54.5865 73.2102 54.3937 73.3003 54.2423C73.3905 54.0909 73.5121 53.971 73.6653 53.8827C73.8185 53.7944 73.9898 53.7277 74.179 53.6826C74.3683 53.6375 74.5612 53.6033 74.7576 53.5799C75.0064 53.551 75.2083 53.5276 75.3633 53.5096C75.5183 53.4897 75.6309 53.4582 75.7012 53.4149C75.7715 53.3717 75.8067 53.3014 75.8067 53.204V53.1851C75.8067 52.949 75.74 52.766 75.6066 52.6363C75.475 52.5065 75.2786 52.4416 75.0172 52.4416C74.745 52.4416 74.5305 52.502 74.3737 52.6227C74.2187 52.7417 74.1114 52.8742 74.052 53.0202L73.2922 52.8472C73.3823 52.5948 73.5139 52.3911 73.687 52.2361C73.8618 52.0793 74.0628 51.9657 74.2899 51.8954C74.517 51.8233 74.7558 51.7873 75.0064 51.7873C75.1722 51.7873 75.3479 51.8071 75.5336 51.8468C75.7211 51.8846 75.8959 51.9549 76.0581 52.0577C76.2222 52.1604 76.3564 52.3073 76.461 52.4984C76.5655 52.6876 76.6178 52.9337 76.6178 53.2365V55.9943H75.8283V55.4265H75.7959C75.7436 55.531 75.6652 55.6338 75.5606 55.7347C75.4561 55.8357 75.3218 55.9195 75.1578 55.9862C74.9938 56.0529 74.7973 56.0862 74.5684 56.0862ZM74.7441 55.4373C74.9676 55.4373 75.1587 55.3932 75.3173 55.3048C75.4777 55.2165 75.5994 55.1012 75.6823 54.9588C75.767 54.8146 75.8094 54.6604 75.8094 54.4964V53.9611C75.7805 53.9899 75.7247 54.017 75.6418 54.0422C75.5606 54.0656 75.4678 54.0864 75.3633 54.1044C75.2587 54.1206 75.1569 54.1359 75.0577 54.1503C74.9586 54.163 74.8757 54.1738 74.809 54.1828C74.6522 54.2026 74.5089 54.236 74.3791 54.2828C74.2511 54.3297 74.1484 54.3973 74.0709 54.4856C73.9952 54.5721 73.9573 54.6875 73.9573 54.8317C73.9573 55.0318 74.0312 55.1832 74.179 55.2859C74.3268 55.3868 74.5152 55.4373 74.7441 55.4373Z" fill="black"/>
<path d="M77.6946 57.5516V51.8414H78.484V52.5146H78.5516C78.5985 52.4281 78.6661 52.328 78.7544 52.2145C78.8427 52.1009 78.9653 52.0018 79.1221 51.9171C79.2789 51.8305 79.4862 51.7873 79.744 51.7873C80.0792 51.7873 80.3785 51.872 80.6416 52.0414C80.9048 52.2109 81.1112 52.4551 81.2608 52.7741C81.4122 53.0932 81.4879 53.4771 81.4879 53.9259C81.4879 54.3748 81.4131 54.7596 81.2635 55.0804C81.1139 55.3995 80.9084 55.6455 80.647 55.8185C80.3857 55.9898 80.0874 56.0754 79.7521 56.0754C79.4997 56.0754 79.2934 56.033 79.1329 55.9483C78.9743 55.8636 78.8499 55.7645 78.7598 55.6509C78.6697 55.5374 78.6003 55.4364 78.5516 55.3481H78.503V57.5516H77.6946ZM78.4867 53.9178C78.4867 54.2098 78.5291 54.4658 78.6138 54.6857C78.6985 54.9056 78.8211 55.0777 78.9815 55.2021C79.142 55.3247 79.3384 55.3859 79.5709 55.3859C79.8125 55.3859 80.0144 55.322 80.1766 55.194C80.3388 55.0642 80.4614 54.8885 80.5443 54.6668C80.629 54.4451 80.6714 54.1954 80.6714 53.9178C80.6714 53.6438 80.6299 53.3978 80.547 53.1797C80.4659 52.9616 80.3433 52.7895 80.1793 52.6633C80.0171 52.5371 79.8143 52.474 79.5709 52.474C79.3366 52.474 79.1383 52.5344 78.9761 52.6552C78.8157 52.776 78.694 52.9445 78.6111 53.1608C78.5282 53.3771 78.4867 53.6294 78.4867 53.9178Z" fill="black"/>
<path d="M84.4735 55.9943V50.4571H85.3089V55.2751H87.818V55.9943H84.4735Z" fill="black"/>
<path d="M89.9147 56.0862C89.6516 56.0862 89.4136 56.0375 89.2009 55.9402C88.9882 55.8411 88.8197 55.6978 88.6953 55.5103C88.5728 55.3229 88.5115 55.093 88.5115 54.8209C88.5115 54.5865 88.5566 54.3937 88.6467 54.2423C88.7368 54.0909 88.8585 53.971 89.0117 53.8827C89.1649 53.7944 89.3361 53.7277 89.5254 53.6826C89.7146 53.6375 89.9075 53.6033 90.104 53.5799C90.3527 53.551 90.5546 53.5276 90.7096 53.5096C90.8646 53.4897 90.9773 53.4582 91.0476 53.4149C91.1179 53.3717 91.153 53.3014 91.153 53.204V53.1851C91.153 52.949 91.0863 52.766 90.953 52.6363C90.8214 52.5065 90.6249 52.4416 90.3635 52.4416C90.0914 52.4416 89.8769 52.502 89.7201 52.6227C89.565 52.7417 89.4578 52.8742 89.3983 53.0202L88.6386 52.8472C88.7287 52.5948 88.8603 52.3911 89.0333 52.2361C89.2081 52.0793 89.4091 51.9657 89.6362 51.8954C89.8634 51.8233 90.1022 51.7873 90.3527 51.7873C90.5186 51.7873 90.6943 51.8071 90.88 51.8468C91.0674 51.8846 91.2423 51.9549 91.4045 52.0577C91.5685 52.1604 91.7028 52.3073 91.8073 52.4984C91.9119 52.6876 91.9641 52.9337 91.9641 53.2365V55.9943H91.1747V55.4265H91.1422C91.0899 55.531 91.0115 55.6338 90.907 55.7347C90.8024 55.8357 90.6682 55.9195 90.5041 55.9862C90.3401 56.0529 90.1436 56.0862 89.9147 56.0862ZM90.0905 55.4373C90.314 55.4373 90.505 55.3932 90.6637 55.3048C90.8241 55.2165 90.9457 55.1012 91.0287 54.9588C91.1134 54.8146 91.1557 54.6604 91.1557 54.4964V53.9611C91.1269 53.9899 91.071 54.017 90.9881 54.0422C90.907 54.0656 90.8142 54.0864 90.7096 54.1044C90.6051 54.1206 90.5032 54.1359 90.4041 54.1503C90.305 54.163 90.222 54.1738 90.1554 54.1828C89.9985 54.2026 89.8552 54.236 89.7255 54.2828C89.5975 54.3297 89.4947 54.3973 89.4172 54.4856C89.3415 54.5721 89.3037 54.6875 89.3037 54.8317C89.3037 55.0318 89.3776 55.1832 89.5254 55.2859C89.6732 55.3868 89.8615 55.4373 90.0905 55.4373Z" fill="black"/>
<path d="M93.1058 55.9943V50.4571H93.9142V52.5146H93.9629C94.0097 52.4281 94.0773 52.328 94.1657 52.2145C94.254 52.1009 94.3765 52.0018 94.5334 51.9171C94.6902 51.8305 94.8975 51.7873 95.1552 51.7873C95.4905 51.7873 95.7897 51.872 96.0529 52.0414C96.316 52.2109 96.5224 52.4551 96.672 52.7741C96.8234 53.0932 96.8991 53.4771 96.8991 53.9259C96.8991 54.3748 96.8243 54.7596 96.6747 55.0804C96.5251 55.3995 96.3196 55.6455 96.0583 55.8185C95.7969 55.9898 95.4986 56.0754 95.1633 56.0754C94.911 56.0754 94.7046 56.033 94.5442 55.9483C94.3856 55.8636 94.2612 55.7645 94.1711 55.6509C94.0809 55.5374 94.0115 55.4364 93.9629 55.3481H93.8953V55.9943H93.1058ZM93.898 53.9178C93.898 54.2098 93.9403 54.4658 94.0251 54.6857C94.1098 54.9056 94.2323 55.0777 94.3928 55.2021C94.5532 55.3247 94.7497 55.3859 94.9822 55.3859C95.2237 55.3859 95.4256 55.322 95.5878 55.194C95.75 55.0642 95.8726 54.8885 95.9555 54.6668C96.0402 54.4451 96.0826 54.1954 96.0826 53.9178C96.0826 53.6438 96.0411 53.3978 95.9582 53.1797C95.8771 52.9616 95.7545 52.7895 95.5905 52.6633C95.4283 52.5371 95.2255 52.474 94.9822 52.474C94.7479 52.474 94.5496 52.5344 94.3874 52.6552C94.2269 52.776 94.1053 52.9445 94.0224 53.1608C93.9394 53.3771 93.898 53.6294 93.898 53.9178Z" fill="black"/>
<path d="M100.919 52.8553L100.186 52.985C100.156 52.8913 100.107 52.8021 100.04 52.7174C99.9753 52.6327 99.887 52.5633 99.7752 52.5092C99.6635 52.4551 99.5238 52.4281 99.3561 52.4281C99.1272 52.4281 98.9362 52.4794 98.7829 52.5822C98.6297 52.6831 98.5531 52.8138 98.5531 52.9742C98.5531 53.113 98.6045 53.2248 98.7072 53.3095C98.81 53.3942 98.9758 53.4636 99.2047 53.5177L99.8644 53.6691C100.247 53.7574 100.531 53.8935 100.719 54.0773C100.906 54.2612 101 54.5 101 54.7938C101 55.0426 100.928 55.2643 100.784 55.4589C100.641 55.6518 100.442 55.8032 100.186 55.9132C99.932 56.0231 99.6373 56.0781 99.3021 56.0781C98.837 56.0781 98.4576 55.979 98.1638 55.7807C97.87 55.5806 97.6897 55.2967 97.623 54.929L98.4044 54.8101C98.4531 55.0137 98.5531 55.1678 98.7045 55.2724C98.8559 55.3751 99.0533 55.4265 99.2967 55.4265C99.5616 55.4265 99.7734 55.3715 99.932 55.2616C100.091 55.1498 100.17 55.0137 100.17 54.8533C100.17 54.7235 100.121 54.6145 100.024 54.5262C99.9284 54.4378 99.7815 54.3712 99.5832 54.3261L98.8803 54.172C98.4927 54.0837 98.2061 53.9431 98.0205 53.7502C97.8366 53.5573 97.7447 53.3131 97.7447 53.0175C97.7447 52.7723 97.8132 52.5579 97.9502 52.374C98.0872 52.1901 98.2764 52.0468 98.518 51.9441C98.7595 51.8396 99.0362 51.7873 99.348 51.7873C99.7968 51.7873 100.15 51.8846 100.408 52.0793C100.666 52.2722 100.836 52.5308 100.919 52.8553Z" fill="black"/>
<path d="M60.6516 60.3742L62.1927 64.8841H62.2549L63.7961 60.3742H64.6991L62.7065 65.9115H61.7412L59.7486 60.3742H60.6516Z" fill="black"/>
<path d="M66.8073 65.9953C66.3982 65.9953 66.0458 65.9079 65.7502 65.733C65.4564 65.5564 65.2293 65.3085 65.0688 64.9895C64.9102 64.6687 64.8309 64.2928 64.8309 63.862C64.8309 63.4367 64.9102 63.0617 65.0688 62.7373C65.2293 62.4128 65.4528 62.1596 65.7394 61.9775C66.0278 61.7955 66.3648 61.7045 66.7506 61.7045C66.9849 61.7045 67.212 61.7432 67.4319 61.8207C67.6518 61.8982 67.8492 62.0199 68.024 62.1857C68.1988 62.3516 68.3367 62.567 68.4377 62.8319C68.5386 63.0951 68.5891 63.415 68.5891 63.7917V64.0783H65.2878V63.4727H67.7969C67.7969 63.26 67.7536 63.0717 67.6671 62.9076C67.5806 62.7418 67.4589 62.6111 67.3021 62.5156C67.1471 62.4201 66.965 62.3723 66.756 62.3723C66.5288 62.3723 66.3306 62.4282 66.1611 62.5399C65.9935 62.6499 65.8637 62.7941 65.7718 62.9725C65.6817 63.1492 65.6366 63.3411 65.6366 63.5484V64.0216C65.6366 64.2991 65.6853 64.5353 65.7826 64.7299C65.8818 64.9246 66.0196 65.0733 66.1963 65.1761C66.3729 65.277 66.5793 65.3275 66.8154 65.3275C66.9687 65.3275 67.1083 65.3058 67.2345 65.2626C67.3607 65.2175 67.4697 65.1508 67.5617 65.0625C67.6536 64.9742 67.7239 64.8651 67.7726 64.7353L68.5377 64.8732C68.4764 65.0986 68.3665 65.2959 68.2079 65.4654C68.051 65.633 67.8537 65.7637 67.6157 65.8574C67.3796 65.9493 67.1101 65.9953 66.8073 65.9953Z" fill="black"/>
<path d="M70.2945 63.4457V65.9115H69.486V61.7585H70.262V62.4345H70.3134C70.4089 62.2146 70.5585 62.0379 70.7622 61.9045C70.9677 61.7712 71.2263 61.7045 71.5382 61.7045C71.8212 61.7045 72.069 61.764 72.2817 61.8829C72.4944 62.0001 72.6593 62.1749 72.7765 62.4074C72.8936 62.64 72.9522 62.9275 72.9522 63.2699V65.9115H72.1438V63.3673C72.1438 63.0662 72.0654 62.831 71.9086 62.6616C71.7518 62.4904 71.5364 62.4047 71.2624 62.4047C71.0749 62.4047 70.9082 62.4453 70.7622 62.5264C70.618 62.6075 70.5035 62.7265 70.4188 62.8833C70.3359 63.0383 70.2945 63.2258 70.2945 63.4457Z" fill="black"/>
<path d="M75.975 61.7585V62.4074H73.7066V61.7585H75.975ZM74.3149 60.7636H75.1233V64.6921C75.1233 64.8489 75.1467 64.967 75.1936 65.0463C75.2405 65.1238 75.3009 65.177 75.3748 65.2058C75.4505 65.2328 75.5325 65.2464 75.6208 65.2464C75.6857 65.2464 75.7425 65.2418 75.7911 65.2328C75.8398 65.2238 75.8777 65.2166 75.9047 65.2112L76.0507 65.879C76.0038 65.8971 75.9371 65.9151 75.8506 65.9331C75.7641 65.9529 75.6559 65.9637 75.5262 65.9655C75.3135 65.9691 75.1152 65.9313 74.9313 65.852C74.7475 65.7727 74.5988 65.6501 74.4852 65.4843C74.3717 65.3185 74.3149 65.1103 74.3149 64.8597V60.7636Z" fill="black"/>
<path d="M79.5 64.1892V61.7585H80.3111V65.9115H79.5162V65.1923H79.4729C79.3774 65.414 79.2242 65.5987 79.0133 65.7465C78.8042 65.8925 78.5438 65.9655 78.2319 65.9655C77.9652 65.9655 77.729 65.907 77.5235 65.7898C77.3199 65.6708 77.1594 65.4951 77.0423 65.2626C76.9269 65.0301 76.8692 64.7426 76.8692 64.4001V61.7585H77.6777V64.3028C77.6777 64.5857 77.7561 64.8111 77.9129 64.9787C78.0697 65.1463 78.2734 65.2301 78.5239 65.2301C78.6753 65.2301 78.8258 65.1923 78.9754 65.1166C79.1269 65.0409 79.2521 64.9264 79.3513 64.7732C79.4522 64.62 79.5018 64.4253 79.5 64.1892Z" fill="black"/>
<path d="M81.3973 65.9115V61.7585H82.1787V62.4183H82.2219C82.2977 62.1947 82.431 62.019 82.6221 61.891C82.815 61.7613 83.0331 61.6964 83.2764 61.6964C83.3269 61.6964 83.3863 61.6982 83.4548 61.7018C83.5251 61.7054 83.5801 61.7099 83.6198 61.7153V62.4886C83.5873 62.4795 83.5296 62.4696 83.4467 62.4588C83.3638 62.4462 83.2809 62.4399 83.198 62.4399C83.0069 62.4399 82.8366 62.4804 82.687 62.5616C82.5392 62.6409 82.422 62.7517 82.3355 62.8941C82.249 63.0347 82.2057 63.1951 82.2057 63.3754V65.9115H81.3973Z" fill="black"/>
<path d="M85.9605 65.9953C85.5514 65.9953 85.199 65.9079 84.9034 65.733C84.6096 65.5564 84.3824 65.3085 84.222 64.9895C84.0634 64.6687 83.9841 64.2928 83.9841 63.862C83.9841 63.4367 84.0634 63.0617 84.222 62.7373C84.3824 62.4128 84.606 62.1596 84.8926 61.9775C85.1809 61.7955 85.518 61.7045 85.9037 61.7045C86.1381 61.7045 86.3652 61.7432 86.5851 61.8207C86.805 61.8982 87.0024 62.0199 87.1772 62.1857C87.352 62.3516 87.4899 62.567 87.5909 62.8319C87.6918 63.0951 87.7423 63.415 87.7423 63.7917V64.0783H84.441V63.4727H86.9501C86.9501 63.26 86.9068 63.0717 86.8203 62.9076C86.7338 62.7418 86.6121 62.6111 86.4553 62.5156C86.3003 62.4201 86.1182 62.3723 85.9092 62.3723C85.682 62.3723 85.4838 62.4282 85.3143 62.5399C85.1467 62.6499 85.0169 62.7941 84.925 62.9725C84.8349 63.1492 84.7898 63.3411 84.7898 63.5484V64.0216C84.7898 64.2991 84.8385 64.5353 84.9358 64.7299C85.0349 64.9246 85.1728 65.0733 85.3495 65.1761C85.5261 65.277 85.7325 65.3275 85.9686 65.3275C86.1218 65.3275 86.2615 65.3058 86.3877 65.2626C86.5139 65.2175 86.6229 65.1508 86.7149 65.0625C86.8068 64.9742 86.8771 64.8651 86.9258 64.7353L87.6909 64.8732C87.6296 65.0986 87.5197 65.2959 87.3611 65.4654C87.2042 65.633 87.0069 65.7637 86.7689 65.8574C86.5328 65.9493 86.2633 65.9953 85.9605 65.9953Z" fill="black"/>
<path d="M91.7512 62.7724L91.0185 62.9022C90.9879 62.8085 90.9392 62.7193 90.8725 62.6346C90.8076 62.5498 90.7193 62.4804 90.6076 62.4264C90.4958 62.3723 90.3561 62.3453 90.1885 62.3453C89.9596 62.3453 89.7685 62.3966 89.6153 62.4994C89.4621 62.6003 89.3855 62.731 89.3855 62.8914C89.3855 63.0302 89.4368 63.142 89.5396 63.2267C89.6423 63.3114 89.8082 63.3808 90.0371 63.4349L90.6968 63.5863C91.0789 63.6746 91.3637 63.8107 91.5511 63.9945C91.7386 64.1784 91.8323 64.4172 91.8323 64.711C91.8323 64.9598 91.7602 65.1815 91.616 65.3761C91.4736 65.569 91.2745 65.7204 91.0185 65.8304C90.7644 65.9403 90.4697 65.9953 90.1344 65.9953C89.6694 65.9953 89.2899 65.8961 88.9961 65.6979C88.7023 65.4978 88.5221 65.2139 88.4554 64.8462L89.2368 64.7272C89.2854 64.9309 89.3855 65.085 89.5369 65.1896C89.6883 65.2923 89.8857 65.3437 90.129 65.3437C90.394 65.3437 90.6057 65.2887 90.7644 65.1788C90.923 65.067 91.0023 64.9309 91.0023 64.7705C91.0023 64.6407 90.9536 64.5317 90.8563 64.4433C90.7608 64.355 90.6139 64.2883 90.4156 64.2433L89.7126 64.0892C89.3251 64.0008 89.0385 63.8602 88.8528 63.6674C88.669 63.4745 88.5771 63.2303 88.5771 62.9347C88.5771 62.6895 88.6455 62.475 88.7825 62.2912C88.9195 62.1073 89.1088 61.964 89.3503 61.8613C89.5918 61.7567 89.8685 61.7045 90.1804 61.7045C90.6292 61.7045 90.9825 61.8018 91.2402 61.9965C91.498 62.1893 91.6683 62.448 91.7512 62.7724Z" fill="black"/>
<defs>
<linearGradient id="paint0_linear_515_122" x1="75.8372" y1="43.7194" x2="75.8372" y2="4" gradientUnits="userSpaceOnUse">
<stop stop-color="#F4FFDA"/>
<stop offset="1" stop-color="#D0EDFF"/>
</linearGradient>
</defs>
</svg>
