<svg width="151" height="70" viewBox="0 0 151 70" fill="none" xmlns="http://www.w3.org/2000/svg">
<rect x="0.00390625" width="150.206" height="70" rx="7.77778" fill="white"/>
<g clip-path="url(#clip0_83_1594)">
<path d="M75.5089 53.7281C87.9069 53.7281 97.9573 43.2677 97.9573 30.3641C97.9573 17.4605 87.9069 7 75.5089 7C63.111 7 53.0605 17.4605 53.0605 30.3641C53.0605 43.2677 63.111 53.7281 75.5089 53.7281Z" fill="url(#paint0_linear_83_1594)"/>
<path d="M65.0929 18.4247C65.0592 18.3079 64.9918 18.2962 64.8908 18.3546C64.9357 18.4013 64.9806 18.4598 65.0143 18.5065C66.1479 19.9434 67.304 21.3569 68.6173 22.6186C69.3693 23.3428 70.1325 24.0671 70.8845 24.7914C71.109 25.0017 71.3335 25.2353 71.1202 25.5975C70.7835 26.1465 69.7397 26.2049 69.3805 25.6676C69.055 25.1769 68.7632 24.6512 68.4601 24.1372C68.3815 24.0204 68.3254 23.8335 68.1234 23.9737C68.2244 24.1372 68.3142 24.3125 68.404 24.476C68.9315 25.4222 68.9091 25.8311 68.2581 26.6956C68.056 26.9643 67.9213 27.2563 67.854 27.5834C67.7642 27.9806 67.6969 28.3778 67.6407 28.7867C67.4612 30.1885 66.7204 31.2866 65.8561 32.2913C64.2623 34.1137 64.5092 35.8894 65.5194 37.5716C65.7326 37.9337 65.9683 38.2959 66.1143 38.6814C66.2265 38.9851 66.3724 38.9968 66.6193 38.9267C67.4499 38.6814 68.2693 38.4828 69.0438 37.9688C70.2111 37.1861 70.6488 35.6557 69.2121 34.7328C69.0999 34.6627 68.9989 34.5693 68.8979 34.4992C67.6183 33.5529 67.3938 32.8053 68.0673 31.3334C68.4938 30.4105 68.7968 29.4759 68.8754 28.4479C68.954 27.4082 69.1336 27.2797 70.155 27.1045C70.7386 27.011 71.2998 26.8358 71.7264 26.3568C72.1865 25.8428 72.2988 25.0484 71.8835 24.6395C69.6948 22.4901 67.4387 20.4223 65.1153 18.4364L65.0929 18.4247ZM77.7089 26.0297C77.6864 26.1816 77.6752 26.2634 77.6752 26.3334C77.6078 27.9222 78.4833 28.8801 79.6955 29.6161C80.9751 30.3871 82.4006 30.8193 83.725 31.4969C84.8362 32.0693 85.8352 32.7469 85.9811 34.324C86.6096 33.2025 86.7219 32.1277 86.4974 31.0179C86.2954 30.0016 85.7903 29.1722 84.9709 28.5413C84.0281 27.8171 82.9393 27.5133 81.8057 27.3031C80.4251 27.046 78.966 27.0577 77.7089 26.0297ZM83.1077 40.5038C83.2648 40.4921 83.3883 40.5038 83.4669 40.457C86.329 38.4711 86.5086 34.3356 83.4893 32.5483C82.6812 32.0693 81.8618 31.602 81.0649 31.1114C80.7506 30.9128 80.6945 31.0764 80.6496 31.3567C80.4476 32.4198 80.7843 33.3543 81.3006 34.2305C81.8169 35.1067 82.3893 35.9478 82.9057 36.8239C83.5903 37.9804 83.8148 39.1837 83.1301 40.5038H83.1077ZM71.6478 19.6864C72.9835 19.8966 73.9375 20.7261 74.7793 21.7307C75.2844 22.3265 75.7783 22.9457 76.2048 23.5998C77.6864 25.8311 79.8414 26.3451 82.2659 26.275C81.9628 25.8311 82.0077 25.8428 82.1312 25.3054C82.423 24.0438 82.4904 23.2611 81.1884 22.7471C81.0986 22.712 81.02 22.6653 80.9302 22.6302C79.5608 22.0345 78.1354 21.8125 76.6538 22.0345C76.1487 22.1045 75.7334 22.0695 75.3854 21.5905C75.0599 21.1466 74.6334 20.7728 74.1732 20.4691C73.3988 19.9434 72.6018 19.5228 71.6141 19.698L71.6478 19.6864ZM80.6608 42.2794C80.4476 42.1977 80.2567 42.3028 80.0659 42.3262C79.1007 42.443 78.3935 41.9056 78.2139 40.9126C78.1354 40.4921 78.068 40.0715 78.0007 39.651C77.6976 37.5599 76.4966 36.4501 74.4651 36.4267C72.6243 36.415 71.0753 37.1744 69.7284 38.436C69.6723 38.4944 69.5376 38.5295 69.605 38.6463C69.6723 38.7631 69.7958 38.7164 69.908 38.7281C70.6713 38.8215 71.4457 38.915 72.0519 39.5108C72.4223 39.8846 72.7927 40.2584 73.1631 40.6206C73.7355 41.1696 74.51 41.3215 75.1048 41.0061C75.7334 40.6907 76.0028 39.8262 75.6773 39.2071C75.4079 38.693 74.7569 38.5178 74.2181 38.8566C74.3977 38.8566 74.5549 38.8449 74.7008 38.8566C75.161 38.915 75.464 39.1603 75.4752 39.6743C75.4752 40.1416 75.1497 40.5505 74.712 40.6089C74.2742 40.6673 73.9038 40.4921 73.612 40.165C73.2641 39.7795 73.2416 39.3356 73.4661 38.8683C73.7018 38.3776 74.3079 38.0856 74.9028 38.179C75.7895 38.3309 76.3619 38.9033 76.7548 39.7094C77.1027 40.422 77.3833 41.158 77.7874 41.8355C78.3486 42.7818 79.819 43.0154 80.6608 42.2444V42.2794ZM71.008 21.1583C71.1427 22.3966 71.4906 23.74 72.6804 24.6512C73.0171 24.9082 73.3651 25.1185 73.7916 25.1652C73.9712 25.1886 74.263 25.1419 74.0722 24.8732C73.4212 23.962 73.3202 22.8639 73.0059 21.8242C72.8039 21.1349 72.3549 20.6677 71.6927 20.4223C71.0305 20.177 70.9856 20.2004 71.008 21.1466V21.1583ZM73.6906 35.387C75.0599 35.0132 76.5079 35.2235 77.8884 34.873C78.719 34.6627 79.3588 34.1604 79.819 33.4128C80.2567 32.6885 80.2231 30.9946 79.4711 30.574C79.617 31.053 79.6955 31.4969 79.6394 31.9525C79.4823 33.2142 78.5956 34.0553 77.1589 34.3473C75.9803 34.581 74.7681 34.6511 73.7018 35.3987L73.6906 35.387ZM72.7141 27.4549C72.1753 27.4783 71.8386 27.8287 71.7937 28.4128C71.76 28.7984 71.7825 29.2072 72.2314 29.289C72.8375 29.4058 73.4212 29.3007 73.9375 28.9152C74.2406 28.6815 74.2742 28.3544 74.1171 28.039C73.9487 27.7119 73.7467 27.4082 73.1855 27.4316C73.5447 27.6535 73.8028 27.8287 73.5334 28.1325C73.2753 28.4245 72.9273 28.4362 72.6131 28.2143C72.209 27.9222 72.5345 27.7002 72.7253 27.4666L72.7141 27.4549ZM84.9372 27.5367C84.7913 26.3568 84.2077 25.4339 83.4444 24.4877C83.2648 25.2587 83.1077 25.9246 82.3669 26.3451C83.4556 26.4035 84.3311 26.6605 84.9372 27.5367ZM84.0617 23.74C83.3658 23.0041 82.6699 22.2798 82.5465 21.1817C82.4791 21.2751 82.4679 21.3335 82.4679 21.3919C82.4455 21.8748 82.1985 22.0617 81.7271 21.9527C81.6036 21.9293 81.469 21.8826 81.3455 22.0578C82.8271 22.5251 82.7822 23.7751 82.7036 25.1536C82.9393 24.8498 82.9281 24.6162 82.9506 24.3942C83.0254 23.5843 83.3958 23.374 84.0617 23.7634V23.74Z" fill="black"/>
<path d="M74.1735 7C73.9827 7.16355 73.8031 7.16355 73.6123 7H74.1735Z" fill="black"/>
<path d="M77.9893 53.7046C78.0004 53.6228 78.0116 53.506 78.1231 53.5411C78.1677 53.5411 78.1789 53.6462 78.2123 53.7046H77.9893Z" fill="black"/>
<path d="M74.6223 7C74.5885 7.05841 74.5435 7.05841 74.5098 7H74.6223Z" fill="black"/>
<path d="M65.0928 18.425C67.4162 20.411 69.6723 22.4787 71.861 24.6282C72.2763 25.037 72.1641 25.8314 71.7039 26.3454C71.2774 26.8244 70.7274 26.9996 70.1325 27.0931C69.1111 27.2566 68.9427 27.3968 68.8529 28.4365C68.7744 29.4645 68.4713 30.3991 68.0448 31.322C67.3714 32.7822 67.5958 33.5416 68.8754 34.4878C68.9876 34.5696 69.0887 34.6514 69.1897 34.7215C70.6376 35.6443 70.1998 37.1747 69.0213 37.9574C68.2581 38.4714 67.4387 38.67 66.5969 38.9153C66.3499 38.9854 66.204 38.9737 66.0918 38.67C65.9459 38.2845 65.7102 37.9223 65.4969 37.5602C64.4867 35.8897 64.2398 34.114 65.8336 32.2799C66.6979 31.2869 67.4387 30.1771 67.6183 28.7753C67.6744 28.3664 67.7418 27.9692 67.8315 27.572C67.8989 27.245 68.0336 26.9529 68.2356 26.6842C68.8754 25.8197 68.8978 25.4109 68.3815 24.4646C68.2917 24.3011 68.1907 24.1375 68.1009 23.9623C68.3142 23.8221 68.3703 24.009 68.4376 24.1258C68.7519 24.6399 69.0325 25.1539 69.358 25.6562C69.7172 26.1936 70.7611 26.1352 71.0978 25.5861C71.311 25.2356 71.0866 25.002 70.8621 24.78C70.1101 24.0558 69.3468 23.3315 68.5948 22.6072C67.2928 21.3338 66.1255 19.932 64.9918 18.4951C65.0143 18.4717 65.0367 18.4367 65.0704 18.4133L65.0928 18.425ZM65.8449 35.3523C65.8449 35.6093 65.9683 35.7261 66.1591 35.7144C66.5071 35.6911 66.6418 35.4341 66.6418 35.1186C66.6418 34.7215 66.4061 34.4644 66.0357 34.5112C65.2949 34.6046 66.3275 35.2004 65.8336 35.3523H65.8449Z" fill="#060707"/>
<path d="M77.7092 26.0415C78.9663 27.0695 80.4254 27.0578 81.806 27.3148C82.9284 27.5251 84.0172 27.8289 84.9712 28.5531C85.7906 29.184 86.2957 30.0134 86.4977 31.0297C86.711 32.1395 86.61 33.226 85.9814 34.3357C85.8467 32.7587 84.8478 32.0928 83.7254 31.5087C82.4009 30.8311 80.9754 30.3989 79.6959 29.6279C78.4837 28.8919 77.6082 27.9223 77.6755 26.3452C77.6755 26.2751 77.698 26.2051 77.7092 26.0415Z" fill="#060707"/>
<path d="M83.1074 40.5039C83.8033 39.1838 83.5676 37.9806 82.8829 36.8241C82.3666 35.9479 81.8054 35.1068 81.2778 34.2306C80.7615 33.3545 80.4248 32.4199 80.6268 31.3569C80.6829 31.0765 80.7278 30.9129 81.0421 31.1115C81.839 31.6022 82.6584 32.0811 83.4665 32.5484C86.4971 34.3358 86.3175 38.4712 83.4441 40.4572C83.3655 40.5156 83.2421 40.4805 83.0849 40.5039H83.1074Z" fill="#060707"/>
<path d="M71.6475 19.6866C72.624 19.5114 73.4321 19.9319 74.2066 20.4576C74.6668 20.7614 75.0933 21.1235 75.4188 21.5791C75.7667 22.0698 76.182 22.1048 76.6871 22.023C78.1687 21.8011 79.583 22.023 80.9635 22.6188C81.0533 22.6539 81.1319 22.7006 81.2217 22.7356C82.5237 23.2496 82.4564 24.0323 82.1645 25.294C82.0411 25.8197 81.9849 25.808 82.2992 26.2636C79.8636 26.3337 77.7085 25.8197 76.2382 23.5884C75.8004 22.9342 75.3178 22.3151 74.8127 21.7193C73.9709 20.7146 73.0056 19.8852 71.6811 19.6749L71.6475 19.6866Z" fill="#060707"/>
<path d="M80.6612 42.2913C79.8194 43.0506 78.3602 42.817 77.7878 41.8824C77.3837 41.2049 77.1031 40.4572 76.7552 39.7563C76.3623 38.9503 75.7899 38.3778 74.9032 38.226C74.3083 38.1208 73.7022 38.4246 73.4665 38.9152C73.242 39.3825 73.2757 39.8264 73.6124 40.2119C73.9042 40.539 74.2746 40.7142 74.7124 40.6558C75.1501 40.5974 75.4868 40.1885 75.4756 39.7213C75.4644 39.2073 75.1613 38.9619 74.7011 38.9035C74.5552 38.8802 74.4093 38.9035 74.2185 38.9035C74.7573 38.5647 75.4083 38.74 75.6776 39.254C76.0031 39.8731 75.7225 40.7259 75.1052 41.053C74.4991 41.3568 73.7359 41.2166 73.1634 40.6675C72.7818 40.3054 72.4226 39.9315 72.0522 39.5577C71.4573 38.9619 70.6829 38.8685 69.9084 38.775C69.7962 38.7633 69.6727 38.8101 69.6053 38.6932C69.538 38.5647 69.6727 38.5297 69.7288 38.483C71.0757 37.2213 72.6247 36.4503 74.4654 36.4737C76.497 36.497 77.6868 37.6068 78.001 39.6979C78.0684 40.1185 78.1357 40.539 78.2143 40.9596C78.3939 41.9525 79.101 42.4899 80.0663 42.3731C80.2571 42.3497 80.4591 42.2563 80.6612 42.3264V42.2913Z" fill="#060707"/>
<path d="M71.0081 21.1586C70.9857 20.2124 71.0306 20.189 71.6928 20.4343C72.355 20.6797 72.804 21.1469 73.0061 21.8362C73.3091 22.8642 73.4213 23.974 74.0724 24.8852C74.2632 25.1539 73.9713 25.2006 73.7917 25.1772C73.3764 25.1305 73.0173 24.9202 72.6805 24.6632C71.4908 23.7403 71.1428 22.4086 71.0081 21.1703V21.1586Z" fill="#060707"/>
<path d="M73.6909 35.3872C74.7572 34.6395 75.9806 34.5811 77.148 34.3358C78.5959 34.0437 79.4826 33.191 79.6285 31.941C79.6846 31.4854 79.6061 31.0415 79.4602 30.5625C80.2122 30.9831 80.2571 32.6886 79.8081 33.4012C79.3479 34.1489 78.7081 34.6512 77.8775 34.8615C76.497 35.212 75.049 35.0017 73.6797 35.3755L73.6909 35.3872Z" fill="#060707"/>
<path d="M72.7147 27.4553C72.5239 27.6889 72.1984 27.9109 72.6024 28.2029C72.9167 28.4249 73.2534 28.4132 73.5228 28.1211C73.7922 27.8174 73.534 27.6539 73.1749 27.4202C73.7361 27.3968 73.9493 27.7006 74.1065 28.0277C74.2748 28.3548 74.2412 28.6702 73.9269 28.9038C73.4106 29.2893 72.8269 29.3945 72.2208 29.2777C71.7606 29.1959 71.7494 28.787 71.7831 28.4015C71.828 27.8174 72.1647 27.4669 72.7035 27.4436L72.7147 27.4553Z" fill="#060707"/>
<path d="M84.9375 27.537C84.3314 26.6609 83.4559 26.4039 82.3672 26.3455C83.108 25.9366 83.2651 25.2707 83.4447 24.488C84.208 25.4343 84.7916 26.3455 84.9375 27.537Z" fill="#060707"/>
<path d="M84.062 23.7287C83.396 23.3471 83.0256 23.5574 82.9508 24.3595C82.9283 24.5815 82.9508 24.8151 82.7038 25.1189C82.7824 23.7521 82.8273 22.5021 81.3457 22.0231C81.4692 21.8596 81.6039 21.8946 81.7273 21.918C82.1913 22.027 82.4382 21.8401 82.4681 21.3572C82.4681 21.2988 82.4793 21.2404 82.5467 21.147C82.6702 22.2451 83.3661 22.9811 84.062 23.7053V23.7287Z" fill="#060707"/>
<path d="M65.025 18.5065C64.9804 18.4598 64.9358 18.4013 64.9023 18.3546C64.9916 18.2962 65.0696 18.3079 65.1031 18.4247C65.0808 18.4481 65.0585 18.4831 65.025 18.5065Z" fill="#060707"/>
<path d="M65.8451 35.3522C66.339 35.2003 65.3064 34.6045 66.0472 34.5111C66.4063 34.4644 66.6533 34.7214 66.6533 35.1185C66.6533 35.434 66.5074 35.691 66.1706 35.7143C65.9686 35.726 65.8564 35.6092 65.8564 35.3522H65.8451Z" fill="#E3E6E1"/>
</g>
<path d="M52.7457 59.0274H53.1622V61.3045C53.1622 61.5396 53.1067 61.7495 52.9959 61.9342C52.8862 62.1178 52.7311 62.2628 52.5308 62.3692C52.3304 62.4744 52.0953 62.527 51.8254 62.527C51.5556 62.527 51.3205 62.4744 51.1201 62.3692C50.9197 62.2628 50.7641 62.1178 50.6533 61.9342C50.5436 61.7495 50.4887 61.5396 50.4887 61.3045V59.0274H50.9052V61.2709C50.9052 61.4388 50.9421 61.5883 51.016 61.7193C51.0899 61.8491 51.1952 61.9516 51.3317 62.0266C51.4694 62.1005 51.634 62.1374 51.8254 62.1374C52.0169 62.1374 52.1815 62.1005 52.3192 62.0266C52.4569 61.9516 52.5621 61.8491 52.6349 61.7193C52.7088 61.5883 52.7457 61.4388 52.7457 61.2709V59.0274ZM54.3364 60.9149V62.4666H53.9401V59.8872H54.323V60.2902H54.3566C54.417 60.1592 54.5088 60.054 54.632 59.9745C54.7551 59.8939 54.9141 59.8536 55.1089 59.8536C55.2835 59.8536 55.4363 59.8894 55.5673 59.961C55.6983 60.0316 55.8002 60.1391 55.873 60.2835C55.9457 60.4268 55.9821 60.6081 55.9821 60.8276V62.4666H55.5858V60.8544C55.5858 60.6518 55.5332 60.4939 55.428 60.3809C55.3227 60.2667 55.1783 60.2096 54.9947 60.2096C54.8682 60.2096 54.7551 60.237 54.6555 60.2919C54.557 60.3467 54.4791 60.4268 54.4221 60.532C54.365 60.6372 54.3364 60.7649 54.3364 60.9149ZM56.7063 62.4666V59.8872H57.1026V62.4666H56.7063ZM56.9078 59.4573C56.8306 59.4573 56.764 59.431 56.708 59.3783C56.6531 59.3257 56.6257 59.2625 56.6257 59.1886C56.6257 59.1147 56.6531 59.0514 56.708 58.9988C56.764 58.9462 56.8306 58.9199 56.9078 58.9199C56.9851 58.9199 57.0511 58.9462 57.106 58.9988C57.162 59.0514 57.1899 59.1147 57.1899 59.1886C57.1899 59.2625 57.162 59.3257 57.106 59.3783C57.0511 59.431 56.9851 59.4573 56.9078 59.4573ZM59.6556 60.4648L59.2996 60.5656C59.2772 60.5063 59.2441 60.4486 59.2005 60.3926C59.1579 60.3355 59.0997 60.2885 59.0258 60.2516C58.9519 60.2146 58.8573 60.1961 58.742 60.1961C58.5842 60.1961 58.4526 60.2325 58.3474 60.3053C58.2433 60.377 58.1912 60.4682 58.1912 60.579C58.1912 60.6775 58.2271 60.7554 58.2987 60.8124C58.3704 60.8695 58.4823 60.9171 58.6346 60.9552L59.0174 61.0492C59.2481 61.1052 59.4199 61.1908 59.533 61.3062C59.6461 61.4204 59.7026 61.5676 59.7026 61.7478C59.7026 61.8956 59.66 62.0277 59.575 62.1441C59.491 62.2606 59.3734 62.3524 59.2223 62.4195C59.0712 62.4867 58.8954 62.5203 58.695 62.5203C58.4319 62.5203 58.2142 62.4632 58.0418 62.349C57.8694 62.2348 57.7602 62.068 57.7143 61.8486L58.0905 61.7545C58.1263 61.8934 58.194 61.9975 58.2937 62.0669C58.3944 62.1363 58.526 62.171 58.6883 62.171C58.873 62.171 59.0197 62.1318 59.1283 62.0534C59.238 61.974 59.2928 61.8788 59.2928 61.768C59.2928 61.6784 59.2615 61.6034 59.1988 61.5429C59.1361 61.4814 59.0398 61.4355 58.91 61.4052L58.4801 61.3045C58.2438 61.2485 58.0703 61.1617 57.9595 61.0442C57.8498 60.9255 57.7949 60.7772 57.7949 60.5992C57.7949 60.4536 57.8358 60.3249 57.9175 60.2129C58.0003 60.101 58.1129 60.0131 58.255 59.9493C58.3983 59.8855 58.5607 59.8536 58.742 59.8536C58.9973 59.8536 59.1977 59.9095 59.3432 60.0215C59.4899 60.1335 59.594 60.2812 59.6556 60.4648ZM60.8836 62.4666L60.0976 59.8872H60.5141L61.0716 61.862H61.0985L61.6493 59.8872H62.0725L62.6166 61.8553H62.6435L63.201 59.8872H63.6174L62.8315 62.4666H62.4419L61.8777 60.485H61.8374L61.2731 62.4666H60.8836ZM64.9004 62.527C64.737 62.527 64.5886 62.4962 64.4554 62.4346C64.3222 62.372 64.2164 62.2818 64.138 62.1643C64.0597 62.0456 64.0205 61.9023 64.0205 61.7344C64.0205 61.5866 64.0496 61.4668 64.1078 61.375C64.166 61.2821 64.2438 61.2093 64.3412 61.1567C64.4386 61.1041 64.5461 61.0649 64.6636 61.0392C64.7823 61.0123 64.9015 60.991 65.0213 60.9753C65.1781 60.9552 65.3051 60.9401 65.4025 60.93C65.501 60.9188 65.5727 60.9003 65.6175 60.8746C65.6634 60.8488 65.6863 60.8041 65.6863 60.7402V60.7268C65.6863 60.5611 65.641 60.4324 65.5503 60.3406C65.4607 60.2488 65.3247 60.2029 65.1422 60.2029C64.953 60.2029 64.8047 60.2443 64.6972 60.3271C64.5898 60.41 64.5142 60.4984 64.4705 60.5925L64.0944 60.4581C64.1615 60.3014 64.2511 60.1794 64.363 60.092C64.4761 60.0036 64.5993 59.942 64.7325 59.9073C64.8668 59.8715 64.9989 59.8536 65.1288 59.8536C65.2116 59.8536 65.3068 59.8636 65.4143 59.8838C65.5229 59.9028 65.6276 59.9426 65.7283 60.003C65.8302 60.0635 65.9147 60.1547 65.9819 60.2768C66.0491 60.3988 66.0826 60.5622 66.0826 60.7671V62.4666H65.6863V62.1173H65.6662C65.6393 62.1732 65.5945 62.2331 65.5318 62.2969C65.4691 62.3608 65.3857 62.4151 65.2816 62.4598C65.1775 62.5046 65.0504 62.527 64.9004 62.527ZM64.9609 62.171C65.1176 62.171 65.2497 62.1402 65.3572 62.0786C65.4658 62.0171 65.5475 61.9376 65.6024 61.8402C65.6583 61.7428 65.6863 61.6403 65.6863 61.5329V61.1701C65.6695 61.1903 65.6326 61.2088 65.5755 61.2256C65.5195 61.2412 65.4546 61.2552 65.3807 61.2675C65.3079 61.2787 65.2368 61.2888 65.1674 61.2978C65.0991 61.3056 65.0437 61.3123 65.0012 61.3179C64.8982 61.3314 64.8019 61.3532 64.7123 61.3834C64.6239 61.4125 64.5522 61.4567 64.4974 61.5161C64.4437 61.5743 64.4168 61.6538 64.4168 61.7545C64.4168 61.8922 64.4677 61.9964 64.5696 62.0669C64.6726 62.1363 64.803 62.171 64.9609 62.171ZM66.806 63.4338V59.8872H67.1889V60.2969H67.2359C67.265 60.2521 67.3053 60.195 67.3568 60.1256C67.4094 60.0551 67.4844 59.9924 67.5818 59.9375C67.6804 59.8816 67.8136 59.8536 67.9815 59.8536C68.1987 59.8536 68.3901 59.9079 68.5558 60.0165C68.7215 60.1251 68.8508 60.279 68.9437 60.4783C69.0367 60.6775 69.0831 60.9126 69.0831 61.1836C69.0831 61.4567 69.0367 61.6935 68.9437 61.8939C68.8508 62.0932 68.7221 62.2477 68.5575 62.3574C68.3929 62.466 68.2032 62.5203 67.9882 62.5203C67.8225 62.5203 67.6899 62.4929 67.5902 62.438C67.4906 62.382 67.4139 62.3188 67.3602 62.2482C67.3064 62.1766 67.265 62.1173 67.2359 62.0702H67.2023V63.4338H66.806ZM67.1956 61.1769C67.1956 61.3717 67.2241 61.5435 67.2812 61.6924C67.3383 61.8402 67.4217 61.956 67.5315 62.04C67.6412 62.1229 67.7755 62.1643 67.9345 62.1643C68.1002 62.1643 68.2384 62.1206 68.3493 62.0333C68.4612 61.9449 68.5452 61.8262 68.6012 61.6773C68.6583 61.5273 68.6868 61.3605 68.6868 61.1769C68.6868 60.9955 68.6588 60.832 68.6028 60.6865C68.548 60.5398 68.4646 60.424 68.3526 60.3389C68.2418 60.2527 68.1024 60.2096 67.9345 60.2096C67.7733 60.2096 67.6378 60.2504 67.5281 60.3322C67.4184 60.4128 67.3355 60.5258 67.2796 60.6714C67.2236 60.8158 67.1956 60.9843 67.1956 61.1769ZM71.0714 62.4666V59.0274H71.4879V62.0971H73.0866V62.4666H71.0714ZM74.4367 62.527C74.2733 62.527 74.1249 62.4962 73.9917 62.4346C73.8585 62.372 73.7527 62.2818 73.6743 62.1643C73.5959 62.0456 73.5568 61.9023 73.5568 61.7344C73.5568 61.5866 73.5859 61.4668 73.6441 61.375C73.7023 61.2821 73.7801 61.2093 73.8775 61.1567C73.9749 61.1041 74.0824 61.0649 74.1999 61.0392C74.3186 61.0123 74.4378 60.991 74.5576 60.9753C74.7143 60.9552 74.8414 60.9401 74.9388 60.93C75.0373 60.9188 75.109 60.9003 75.1538 60.8746C75.1997 60.8488 75.2226 60.8041 75.2226 60.7402V60.7268C75.2226 60.5611 75.1773 60.4324 75.0866 60.3406C74.997 60.2488 74.861 60.2029 74.6785 60.2029C74.4893 60.2029 74.341 60.2443 74.2335 60.3271C74.126 60.41 74.0505 60.4984 74.0068 60.5925L73.6306 60.4581C73.6978 60.3014 73.7874 60.1794 73.8993 60.092C74.0124 60.0036 74.1356 59.942 74.2688 59.9073C74.4031 59.8715 74.5352 59.8536 74.6651 59.8536C74.7479 59.8536 74.8431 59.8636 74.9506 59.8838C75.0592 59.9028 75.1638 59.9426 75.2646 60.003C75.3665 60.0635 75.451 60.1547 75.5182 60.2768C75.5853 60.3988 75.6189 60.5622 75.6189 60.7671V62.4666H75.2226V62.1173H75.2025C75.1756 62.1732 75.1308 62.2331 75.0681 62.2969C75.0054 62.3608 74.922 62.4151 74.8179 62.4598C74.7138 62.5046 74.5867 62.527 74.4367 62.527ZM74.4972 62.171C74.6539 62.171 74.786 62.1402 74.8935 62.0786C75.0021 62.0171 75.0838 61.9376 75.1386 61.8402C75.1946 61.7428 75.2226 61.6403 75.2226 61.5329V61.1701C75.2058 61.1903 75.1689 61.2088 75.1118 61.2256C75.0558 61.2412 74.9909 61.2552 74.917 61.2675C74.8442 61.2787 74.7731 61.2888 74.7037 61.2978C74.6354 61.3056 74.58 61.3123 74.5375 61.3179C74.4345 61.3314 74.3382 61.3532 74.2486 61.3834C74.1602 61.4125 74.0885 61.4567 74.0337 61.5161C73.9799 61.5743 73.9531 61.6538 73.9531 61.7545C73.9531 61.8922 74.004 61.9964 74.1059 62.0669C74.2089 62.1363 74.3393 62.171 74.4972 62.171ZM76.396 62.4666V59.0274H76.7923V60.2969H76.8259C76.855 60.2521 76.8953 60.195 76.9468 60.1256C76.9994 60.0551 77.0745 59.9924 77.1719 59.9375C77.2704 59.8816 77.4036 59.8536 77.5715 59.8536C77.7887 59.8536 77.9802 59.9079 78.1458 60.0165C78.3115 60.1251 78.4408 60.279 78.5338 60.4783C78.6267 60.6775 78.6731 60.9126 78.6731 61.1836C78.6731 61.4567 78.6267 61.6935 78.5338 61.8939C78.4408 62.0932 78.3121 62.2477 78.1475 62.3574C77.983 62.466 77.7932 62.5203 77.5782 62.5203C77.4126 62.5203 77.2799 62.4929 77.1802 62.438C77.0806 62.382 77.0039 62.3188 76.9502 62.2482C76.8964 62.1766 76.855 62.1173 76.8259 62.0702H76.7789V62.4666H76.396ZM76.7856 61.1769C76.7856 61.3717 76.8142 61.5435 76.8713 61.6924C76.9284 61.8402 77.0118 61.956 77.1215 62.04C77.2312 62.1229 77.3655 62.1643 77.5245 62.1643C77.6902 62.1643 77.8285 62.1206 77.9393 62.0333C78.0512 61.9449 78.1352 61.8262 78.1912 61.6773C78.2483 61.5273 78.2768 61.3605 78.2768 61.1769C78.2768 60.9955 78.2488 60.832 78.1929 60.6865C78.138 60.5398 78.0546 60.424 77.9426 60.3389C77.8318 60.2527 77.6924 60.2096 77.5245 60.2096C77.3633 60.2096 77.2278 60.2504 77.1181 60.3322C77.0084 60.4128 76.9256 60.5258 76.8696 60.6714C76.8136 60.8158 76.7856 60.9843 76.7856 61.1769ZM81.1064 60.4648L80.7504 60.5656C80.728 60.5063 80.695 60.4486 80.6513 60.3926C80.6088 60.3355 80.5506 60.2885 80.4767 60.2516C80.4028 60.2146 80.3082 60.1961 80.1929 60.1961C80.035 60.1961 79.9035 60.2325 79.7983 60.3053C79.6942 60.377 79.6421 60.4682 79.6421 60.579C79.6421 60.6775 79.6779 60.7554 79.7496 60.8124C79.8212 60.8695 79.9332 60.9171 80.0854 60.9552L80.4683 61.0492C80.6989 61.1052 80.8708 61.1908 80.9838 61.3062C81.0969 61.4204 81.1535 61.5676 81.1535 61.7478C81.1535 61.8956 81.1109 62.0277 81.0258 62.1441C80.9419 62.2606 80.8243 62.3524 80.6732 62.4195C80.522 62.4867 80.3463 62.5203 80.1459 62.5203C79.8828 62.5203 79.665 62.4632 79.4926 62.349C79.3202 62.2348 79.2111 62.068 79.1652 61.8486L79.5413 61.7545C79.5772 61.8934 79.6449 61.9975 79.7445 62.0669C79.8453 62.1363 79.9768 62.171 80.1392 62.171C80.3239 62.171 80.4705 62.1318 80.5791 62.0534C80.6889 61.974 80.7437 61.8788 80.7437 61.768C80.7437 61.6784 80.7124 61.6034 80.6497 61.5429C80.587 61.4814 80.4907 61.4355 80.3608 61.4052L79.9309 61.3045C79.6947 61.2485 79.5212 61.1617 79.4103 61.0442C79.3006 60.9255 79.2458 60.7772 79.2458 60.5992C79.2458 60.4536 79.2866 60.3249 79.3684 60.2129C79.4512 60.101 79.5637 60.0131 79.7059 59.9493C79.8492 59.8855 80.0115 59.8536 80.1929 59.8536C80.4482 59.8536 80.6485 59.9095 80.7941 60.0215C80.9407 60.1335 81.0449 60.2812 81.1064 60.4648ZM50.6298 65.0274L51.6508 67.9225H51.6911L52.7121 65.0274H53.1487L51.8859 68.4666H51.456L50.1932 65.0274H50.6298ZM54.472 68.5203C54.2235 68.5203 54.0091 68.4654 53.8288 68.3557C53.6497 68.2449 53.5115 68.0904 53.4141 67.8922C53.3178 67.693 53.2696 67.4612 53.2696 67.197C53.2696 66.9328 53.3178 66.6999 53.4141 66.4984C53.5115 66.2958 53.6469 66.1379 53.8204 66.0249C53.9951 65.9107 54.1988 65.8536 54.4317 65.8536C54.5661 65.8536 54.6987 65.876 54.8297 65.9207C54.9607 65.9655 55.0799 66.0383 55.1874 66.1391C55.2949 66.2387 55.3805 66.3708 55.4443 66.5354C55.5081 66.6999 55.54 66.9026 55.54 67.1433V67.3112H53.5518V66.9686H55.137C55.137 66.8231 55.1079 66.6932 55.0497 66.579C54.9926 66.4648 54.9109 66.3747 54.8045 66.3087C54.6993 66.2426 54.575 66.2096 54.4317 66.2096C54.2739 66.2096 54.1373 66.2488 54.022 66.3271C53.9078 66.4044 53.8199 66.5051 53.7583 66.6294C53.6967 66.7537 53.666 66.8869 53.666 67.0291V67.2575C53.666 67.4523 53.6995 67.6174 53.7667 67.7529C53.835 67.8872 53.9296 67.9896 54.0505 68.0602C54.1714 68.1296 54.3119 68.1643 54.472 68.1643C54.5761 68.1643 54.6702 68.1497 54.7541 68.1206C54.8392 68.0904 54.9125 68.0456 54.9741 67.9863C55.0357 67.9258 55.0833 67.8508 55.1169 67.7612L55.4997 67.8687C55.4594 67.9986 55.3917 68.1128 55.2965 68.2113C55.2014 68.3087 55.0838 68.3848 54.9439 68.4397C54.804 68.4934 54.6467 68.5203 54.472 68.5203ZM56.5392 66.9149V68.4666H56.1429V65.8872H56.5258V66.2902H56.5594C56.6198 66.1592 56.7116 66.054 56.8348 65.9745C56.9579 65.8939 57.1169 65.8536 57.3117 65.8536C57.4863 65.8536 57.6392 65.8894 57.7701 65.961C57.9011 66.0316 58.003 66.1391 58.0758 66.2835C58.1485 66.4268 58.1849 66.6081 58.1849 66.8276V68.4666H57.7886V66.8544C57.7886 66.6518 57.736 66.4939 57.6308 66.3809C57.5255 66.2667 57.3811 66.2096 57.1975 66.2096C57.071 66.2096 56.9579 66.237 56.8583 66.2919C56.7598 66.3467 56.682 66.4268 56.6249 66.532C56.5678 66.6372 56.5392 66.7649 56.5392 66.9149ZM60.0309 65.8872V66.223H58.6942V65.8872H60.0309ZM59.0838 65.2692H59.4801V67.7277C59.4801 67.8396 59.4963 67.9236 59.5288 67.9796C59.5624 68.0344 59.6049 68.0714 59.6564 68.0904C59.709 68.1083 59.7644 68.1173 59.8227 68.1173C59.8663 68.1173 59.9021 68.115 59.9301 68.1105C59.9581 68.1049 59.9805 68.1005 59.9973 68.0971L60.0779 68.4531C60.051 68.4632 60.0135 68.4733 59.9654 68.4833C59.9173 68.4945 59.8562 68.5001 59.7824 68.5001C59.6704 68.5001 59.5607 68.4761 59.4532 68.4279C59.3469 68.3798 59.2584 68.3065 59.1879 68.2079C59.1185 68.1094 59.0838 67.9852 59.0838 67.8351V65.2692ZM62.2526 67.412V65.8872H62.6489V68.4666H62.2526V68.0299H62.2257C62.1653 68.1609 62.0712 68.2723 61.9436 68.3641C61.816 68.4548 61.6548 68.5001 61.46 68.5001C61.2988 68.5001 61.1555 68.4649 61.0301 68.3943C60.9047 68.3227 60.8062 68.2152 60.7345 68.0719C60.6629 67.9275 60.627 67.7456 60.627 67.5261V65.8872H61.0234V67.4993C61.0234 67.6874 61.076 67.8374 61.1812 67.9493C61.2876 68.0613 61.423 68.1173 61.5876 68.1173C61.6861 68.1173 61.7863 68.0921 61.8882 68.0417C61.9912 67.9913 62.0774 67.9141 62.1468 67.8099C62.2173 67.7058 62.2526 67.5732 62.2526 67.412ZM63.3748 68.4666V65.8872H63.7577V66.2768H63.7845C63.8316 66.1491 63.9166 66.0456 64.0398 65.9661C64.1629 65.8866 64.3018 65.8469 64.4562 65.8469C64.4854 65.8469 64.5217 65.8474 64.5654 65.8485C64.6091 65.8497 64.6421 65.8513 64.6645 65.8536V66.2566C64.651 66.2532 64.6203 66.2482 64.5721 66.2415C64.5251 66.2337 64.4753 66.2297 64.4227 66.2297C64.2973 66.2297 64.1853 66.256 64.0868 66.3087C63.9894 66.3602 63.9122 66.4318 63.8551 66.5236C63.7991 66.6143 63.7711 66.7178 63.7711 66.8343V68.4666H63.3748ZM66.1372 68.5203C65.8887 68.5203 65.6743 68.4654 65.4941 68.3557C65.3149 68.2449 65.1767 68.0904 65.0793 67.8922C64.983 67.693 64.9348 67.4612 64.9348 67.197C64.9348 66.9328 64.983 66.6999 65.0793 66.4984C65.1767 66.2958 65.3121 66.1379 65.4857 66.0249C65.6603 65.9107 65.8641 65.8536 66.0969 65.8536C66.2313 65.8536 66.3639 65.876 66.4949 65.9207C66.6259 65.9655 66.7451 66.0383 66.8526 66.1391C66.9601 66.2387 67.0457 66.3708 67.1095 66.5354C67.1733 66.6999 67.2053 66.9026 67.2053 67.1433V67.3112H65.217V66.9686H66.8022C66.8022 66.8231 66.7731 66.6932 66.7149 66.579C66.6578 66.4648 66.5761 66.3747 66.4697 66.3087C66.3645 66.2426 66.2402 66.2096 66.0969 66.2096C65.9391 66.2096 65.8025 66.2488 65.6872 66.3271C65.573 66.4044 65.4851 66.5051 65.4235 66.6294C65.3619 66.7537 65.3312 66.8869 65.3312 67.0291V67.2575C65.3312 67.4523 65.3647 67.6174 65.4319 67.7529C65.5002 67.8872 65.5948 67.9896 65.7157 68.0602C65.8366 68.1296 65.9771 68.1643 66.1372 68.1643C66.2413 68.1643 66.3354 68.1497 66.4193 68.1206C66.5044 68.0904 66.5778 68.0456 66.6393 67.9863C66.7009 67.9258 66.7485 67.8508 66.7821 67.7612L67.1649 67.8687C67.1246 67.9986 67.0569 68.1128 66.9618 68.2113C66.8666 68.3087 66.749 68.3848 66.6091 68.4397C66.4692 68.4934 66.3119 68.5203 66.1372 68.5203ZM69.6352 66.4648L69.2792 66.5656C69.2568 66.5063 69.2238 66.4486 69.1801 66.3926C69.1376 66.3355 69.0793 66.2885 69.0055 66.2516C68.9316 66.2146 68.837 66.1961 68.7217 66.1961C68.5638 66.1961 68.4323 66.2325 68.327 66.3053C68.2229 66.377 68.1708 66.4682 68.1708 66.579C68.1708 66.6775 68.2067 66.7554 68.2783 66.8124C68.35 66.8695 68.4619 66.9171 68.6142 66.9552L68.9971 67.0492C69.2277 67.1052 69.3995 67.1908 69.5126 67.3062C69.6257 67.4204 69.6822 67.5676 69.6822 67.7478C69.6822 67.8956 69.6397 68.0277 69.5546 68.1441C69.4706 68.2606 69.3531 68.3524 69.2019 68.4195C69.0508 68.4867 68.875 68.5203 68.6746 68.5203C68.4115 68.5203 68.1938 68.4632 68.0214 68.349C67.849 68.2348 67.7398 68.068 67.6939 67.8486L68.0701 67.7545C68.1059 67.8934 68.1736 67.9975 68.2733 68.0669C68.374 68.1363 68.5056 68.171 68.6679 68.171C68.8526 68.171 68.9993 68.1318 69.1079 68.0534C69.2176 67.974 69.2725 67.8788 69.2725 67.768C69.2725 67.6784 69.2411 67.6034 69.1784 67.5429C69.1157 67.4814 69.0194 67.4355 68.8896 67.4052L68.4597 67.3045C68.2235 67.2485 68.0499 67.1617 67.9391 67.0442C67.8294 66.9255 67.7745 66.7772 67.7745 66.5992C67.7745 66.4536 67.8154 66.3249 67.8971 66.2129C67.98 66.101 68.0925 66.0131 68.2347 65.9493C68.378 65.8855 68.5403 65.8536 68.7217 65.8536C68.9769 65.8536 69.1773 65.9095 69.3228 66.0215C69.4695 66.1335 69.5736 66.2812 69.6352 66.4648Z" fill="black"/>
<defs>
<linearGradient id="paint0_linear_83_1594" x1="75.5089" y1="53.7281" x2="75.5089" y2="7" gradientUnits="userSpaceOnUse">
<stop stop-color="#F4FFDA"/>
<stop offset="1" stop-color="#D0EDFF"/>
</linearGradient>
<clipPath id="clip0_83_1594">
<rect width="44.8968" height="46.7281" fill="white" transform="translate(53.0605 7)"/>
</clipPath>
</defs>
</svg>
