<?xml version="1.0" encoding="utf-8"?>
<!-- Generator: Adobe Illustrator 28.3.0, SVG Export Plug-In . SVG Version: 6.00 Build 0)  -->
<svg version="1.1" id="Layer_1" xmlns="http://www.w3.org/2000/svg" xmlns:xlink="http://www.w3.org/1999/xlink" x="0px"
  y="0px" viewBox="0 0 163.72 46.09" style="enable-background:new 0 0 163.72 46.09;" xml:space="preserve">
  <style type="text/css">
    .st0 {
      display: none;
    }
  </style>
  <g>
    <g>
      <path class="st0"
        d="M164.12-0.07c0,15.53,0,31.05,0,46.58c-1.02-0.06-2.04-0.16-3.06-0.16c-52.67-0.01-105.34-0.01-158.01-0.01
			c-0.99,0-1.98,0-2.97,0c0-15.58,0-30.79,0-46.23c1.15,0,2.16,0,3.17,0c52.6,0,105.2,0,157.8-0.01
			C162.07,0.09,163.1-0.02,164.12-0.07z M62.51,34.57c0-9.59,0-18.98,0-28.36c-2.02,0-3.83,0-5.85,0c0,3.76,0,7.38,0,11.15
			c-4.76-3.6-9.7-2.77-12.36,2.01c-1.98,3.55-1.96,7.32-0.29,10.96c1.56,3.41,4.68,5.23,8.28,4.66c1.66-0.26,3.17-1.45,4.72-2.2
			c0.03,0.4,0.09,1.05,0.15,1.78C58.92,34.57,60.61,34.57,62.51,34.57z M115.46,15.6c3.29,6.71,6.42,13.08,9.76,19.88
			c0.94-1.86,1.59-3.14,2.26-4.48c4.46,3.99,9.03,5.02,12.37,2.92c0-1.52,0-3.06,0-4.59c-6.11,0.15-8.02-0.89-7.83-4.45
			c0.06-1.13,0.55-2.46,1.31-3.28c1.79-1.95,4.2-1.32,6.56-0.84c0-1.7,0-3.24,0-4.83c-1.9-1.47-4.14-1.09-6.12-0.75
			c-4.75,0.82-7.07,4.31-8.42,9.3c-1.47-3.41-2.66-6.18-3.83-8.88C119.46,15.6,117.64,15.6,115.46,15.6z M93.78,15.75
			c-1.98,0-3.87,0-5.66,0c0,6.38,0,12.58,0,18.72c2.1,0,3.9,0,5.86,0c0-2.69-0.03-5.2,0.01-7.71c0.03-1.42,0.02-2.88,0.34-4.24
			c0.42-1.77,1.65-2.81,3.61-2.55c1.92,0.25,2.58,1.57,2.61,3.32c0.02,1.09,0.01,2.18,0.01,3.27c0,2.63,0,5.26,0,7.99
			c2.2,0,4.07,0,6.02,0c0-4.72,0.19-9.34-0.07-13.93c-0.15-2.58-1.74-4.54-4.44-5.27c-2.7-0.73-5.12-0.31-7.1,1.81
			c-0.34,0.36-0.76,0.64-1.37,1.16C93.67,17.3,93.72,16.64,93.78,15.75z M83.85,26.8c0.24-0.47,0.55-0.82,0.58-1.19
			c0.58-6.67-3.62-11.79-10.98-10.36c-5.26,1.02-7.74,4.85-7.47,10.96c0.16,3.73,1.95,6.6,5.39,7.98c4.01,1.61,8.06,1.36,11.94-0.69
			c0-1.74,0-3.24,0-4.82c-6.13,2.5-10.56,1.8-11.46-1.88C75.82,26.8,79.74,26.8,83.85,26.8z M20.41,35.09c0.21,0,0.42,0,0.62,0.01
			c3.13-6.45,6.26-12.9,9.45-19.46c-2.19,0-4.01,0-6,0c-1.24,2.79-2.46,5.55-3.83,8.65c-1.3-3.17-2.46-6.01-3.54-8.64
			c-2.28,0-4.09,0-6.15,0C14.18,22.25,17.3,28.67,20.41,35.09z M33.33,15.69c0,6.39,0,12.6,0,18.86c1.96,0,3.72,0,5.71,0
			c0-6.28,0-12.48,0-18.86C37.17,15.69,35.31,15.69,33.33,15.69z M36.24,6.34c-2.14,0-3.68,1.32-3.7,3.18
			c-0.03,1.96,1.62,3.46,3.74,3.42c1.95-0.04,3.43-1.42,3.46-3.24C39.78,7.75,38.3,6.34,36.24,6.34z M115.57,29.29
			c-2-0.02-3.4,1.19-3.41,2.95c0,1.72,1.51,3.21,3.26,3.23c1.9,0.02,3.34-1.3,3.35-3.06C118.78,30.48,117.58,29.31,115.57,29.29z" />
      <path class="st0"
        d="M164.12-0.07c-1.02,0.06-2.04,0.16-3.06,0.17c-52.6,0.01-105.2,0.01-157.8,0.01c-1.01,0-2.03,0-3.17,0
			c0,15.44,0,30.66,0,46.23c0.98,0,1.97,0,2.97,0c52.67,0,105.34,0,158.01,0.01c1.02,0,2.04,0.11,3.06,0.16c0,0.82,0,1.63,0,2.45
			c-54.83,0-109.66,0-164.53,0c0-17.26,0-34.51,0-51.83c54.82,0,109.68,0,164.53,0C164.12-1.98,164.12-1.03,164.12-0.07z" />
      <path d="M62.51,34.57c-1.89,0-3.58,0-5.37,0c-0.06-0.72-0.11-1.38-0.15-1.78c-1.55,0.75-3.06,1.94-4.72,2.2
			c-3.6,0.57-6.72-1.25-8.28-4.66c-1.66-3.64-1.68-7.41,0.29-10.96c2.66-4.78,7.6-5.61,12.36-2.01c0-3.77,0-7.39,0-11.15
			c2.02,0,3.83,0,5.85,0C62.51,15.59,62.51,24.98,62.51,34.57z M48.78,25.08c0.01,2.87,1.61,4.65,4.18,4.67
			c2.59,0.02,4.47-1.98,4.44-4.73c-0.03-2.71-1.83-4.69-4.28-4.72C50.48,20.28,48.77,22.16,48.78,25.08z" />
      <path d="M115.46,15.6c2.19,0,4.01,0,6.06,0c1.17,2.7,2.36,5.47,3.83,8.88c1.35-4.99,3.67-8.48,8.42-9.3
			c1.98-0.34,4.22-0.73,6.12,0.75c0,1.59,0,3.13,0,4.83c-2.36-0.48-4.77-1.11-6.56,0.84c-0.75,0.82-1.25,2.15-1.31,3.28
			c-0.19,3.56,1.73,4.61,7.83,4.45c0,1.54,0,3.07,0,4.59c-3.34,2.1-7.91,1.07-12.37-2.92c-0.68,1.34-1.32,2.62-2.26,4.48
			C121.88,28.68,118.75,22.3,115.46,15.6z" />
      <path
        d="M93.78,15.75c-0.06,0.9-0.11,1.55-0.18,2.56c0.61-0.51,1.03-0.8,1.37-1.16c1.98-2.12,4.4-2.54,7.1-1.81
			c2.7,0.73,4.29,2.69,4.44,5.27c0.26,4.59,0.07,9.21,0.07,13.93c-1.95,0-3.82,0-6.02,0c0-2.73,0-5.36,0-7.99
			c0-1.09,0.01-2.18-0.01-3.27c-0.03-1.75-0.69-3.07-2.61-3.32c-1.96-0.26-3.19,0.78-3.61,2.55c-0.32,1.37-0.31,2.82-0.34,4.24
			c-0.05,2.51-0.01,5.02-0.01,7.71c-1.96,0-3.76,0-5.86,0c0-6.14,0-12.33,0-18.72C89.91,15.75,91.81,15.75,93.78,15.75z" />
      <path d="M83.85,26.8c-4.11,0-8.03,0-11.99,0c0.9,3.68,5.33,4.38,11.46,1.88c0,1.57,0,3.07,0,4.82c-3.88,2.06-7.93,2.31-11.94,0.69
			c-3.45-1.39-5.23-4.26-5.39-7.98c-0.27-6.11,2.22-9.94,7.47-10.96c7.36-1.42,11.56,3.7,10.98,10.36
			C84.4,25.98,84.09,26.32,83.85,26.8z M79.1,23.2c-0.3-2.41-1.65-3.6-3.77-3.51c-1.91,0.08-3.3,1.47-3.44,3.51
			C74.24,23.2,76.6,23.2,79.1,23.2z" />
      <path
        d="M20.41,35.09c-3.12-6.42-6.23-12.83-9.45-19.45c2.06,0,3.87,0,6.15,0c1.08,2.63,2.24,5.47,3.54,8.64
			c1.37-3.09,2.59-5.85,3.83-8.65c1.99,0,3.81,0,6,0c-3.19,6.57-6.32,13.01-9.45,19.46C20.83,35.09,20.62,35.09,20.41,35.09z" />
      <path
        d="M33.33,15.69c1.98,0,3.84,0,5.71,0c0,6.38,0,12.58,0,18.86c-1.99,0-3.75,0-5.71,0C33.33,28.29,33.33,22.08,33.33,15.69z" />
      <path d="M36.24,6.34c2.06,0,3.53,1.41,3.5,3.36c-0.03,1.82-1.51,3.21-3.46,3.24c-2.13,0.04-3.77-1.46-3.74-3.42
			C32.57,7.66,34.1,6.34,36.24,6.34z" />
      <path d="M115.57,29.29c2.02,0.02,3.21,1.19,3.2,3.12c-0.01,1.76-1.45,3.07-3.35,3.06c-1.75-0.01-3.26-1.51-3.26-3.23
			C112.16,30.48,113.57,29.27,115.57,29.29z" />
      <path class="st0" d="M48.78,25.08c-0.01-2.92,1.7-4.8,4.34-4.77c2.46,0.03,4.25,2.01,4.28,4.72c0.03,2.75-1.85,4.75-4.44,4.73
			C50.39,29.73,48.79,27.95,48.78,25.08z" />
      <path class="st0"
        d="M79.1,23.2c-2.5,0-4.86,0-7.22,0c0.15-2.04,1.54-3.42,3.44-3.51C77.45,19.6,78.8,20.79,79.1,23.2z" />
    </g>
  </g>
</svg>