<svg width="151" height="70" viewBox="0 0 151 70" fill="none" xmlns="http://www.w3.org/2000/svg">
<rect x="0.793945" width="150.206" height="70" rx="7.77778" fill="white"/>
<g clip-path="url(#clip0_83_1618)">
<path d="M104.486 56.4294V65H47.3105V5C56.8495 5 66.3884 5 75.9273 5C75.9506 5.06649 75.8982 5.10275 75.8749 5.14506C75.1014 6.54125 74.3278 7.93744 73.5484 9.33364C70.8554 14.175 68.1624 19.0224 65.4694 23.8637C65.4112 23.9725 65.3298 24.0752 65.324 24.1901C65.3472 24.2445 65.3763 24.2384 65.4054 24.2384C66.2255 24.2384 67.0456 24.2384 67.8716 24.2384C67.9355 24.2384 67.9937 24.2324 68.0519 24.2022C68.1159 24.2022 68.174 24.2022 68.238 24.2022C73.3681 24.2022 78.4923 24.2022 83.6224 24.2022C83.7038 24.2022 83.7853 24.2022 83.8609 24.1961C83.9249 24.2384 83.9947 24.2384 84.0645 24.2384C84.8671 24.2384 85.6698 24.2384 86.4783 24.2384C86.519 24.2384 86.5713 24.2505 86.5888 24.1901C86.5771 24.0813 86.5074 23.9906 86.455 23.8939C83.0233 17.7168 79.5858 11.5397 76.1541 5.36265C76.0902 5.24781 76.0087 5.13901 75.9738 5H104.48V56.3146C104.41 56.1998 104.346 56.0789 104.276 55.964C101.339 50.6754 98.4019 45.3929 95.4646 40.1043C92.6727 35.0816 89.8809 30.065 87.0948 25.0363C86.9552 24.7885 86.8156 24.6978 86.5364 24.6978C79.4986 24.7038 72.4607 24.7038 65.4287 24.7038C58.3966 24.7038 64.9924 24.7038 64.7714 25.1027C61.6538 30.7117 58.5362 36.3146 55.4186 41.9235C52.7896 46.6561 50.1548 51.3886 47.5258 56.1212C47.4734 56.2118 47.392 56.2904 47.4036 56.4234H47.549C52.4872 56.4234 57.4253 56.4234 62.3634 56.4234C62.4507 56.4234 62.5437 56.4053 62.631 56.4113C62.7473 56.4173 62.8113 56.3629 62.8694 56.2723C63.3987 55.5047 63.9339 54.7371 64.469 53.9695C64.5039 53.9272 64.5388 53.8909 64.5737 53.8425C66.0917 51.6788 67.604 49.5089 69.1221 47.3391C73.3739 41.2587 77.6257 35.1783 81.8775 29.0919C82.4184 28.3182 82.9535 27.5446 83.4886 26.7709C83.6631 26.7709 83.8318 26.7709 84.0528 26.7709C77.1487 36.6531 70.2679 46.505 63.3697 56.375C63.5791 56.4234 63.7535 56.4173 63.9339 56.4173C77.3465 56.4173 90.7533 56.4173 104.166 56.4173C104.271 56.4173 104.381 56.4173 104.486 56.4173V56.4294ZM73.118 61.9658C72.9202 61.2587 72.7341 60.5757 72.548 59.8927C72.5014 59.7235 72.4549 59.5542 72.3502 59.4092C72.0826 59.0405 71.5708 59.0949 71.3963 59.5119C71.3614 59.5966 71.3381 59.6872 71.3207 59.7779C71.1288 60.8779 70.9426 61.984 70.7507 63.084C70.7158 63.2956 70.7507 63.3379 70.9484 63.3439C71.1288 63.3439 71.1229 63.3439 71.1578 63.1445C71.3032 62.262 71.4487 61.3735 71.5941 60.4911C71.6057 60.4367 71.5999 60.3642 71.6639 60.3339C71.722 60.3944 71.7278 60.4669 71.7511 60.5394C72.0012 61.3977 72.2513 62.256 72.5131 63.1142C72.5421 63.217 72.5131 63.3741 72.6701 63.4044C72.8271 63.4346 72.8504 63.2714 72.9086 63.1807C73.4786 62.2862 74.0486 61.3856 74.6186 60.4911C74.6709 60.4065 74.7059 60.2856 74.8338 60.2675C74.8338 60.2916 74.8454 60.3098 74.8454 60.3279C74.7349 60.9927 74.6186 61.6576 74.5081 62.3225C74.4616 62.5884 74.415 62.8483 74.3743 63.1142C74.3452 63.3076 74.3801 63.3439 74.5721 63.3439C74.7349 63.3439 74.892 63.3439 75.0548 63.3439C75.1421 63.3439 75.1828 63.3076 75.1886 63.217C75.1886 63.1626 75.2119 63.1082 75.2235 63.0538C75.3689 62.2137 75.5085 61.3796 75.6539 60.5394C75.7005 60.2554 75.7586 59.9773 75.7819 59.6872C75.8168 59.3185 75.5783 59.107 75.2293 59.1674C75.0839 59.1916 74.956 59.252 74.8571 59.3669C74.764 59.4817 74.6768 59.5966 74.6012 59.7235C74.1707 60.3944 73.7403 61.0653 73.3099 61.7362C73.2634 61.8087 73.2343 61.8994 73.118 61.9658ZM62.3402 59.2581C62.3402 59.2581 62.3402 59.252 62.3402 59.246C62.0435 59.246 61.7527 59.252 61.4561 59.246C61.3107 59.246 61.2641 59.2943 61.2409 59.4454C61.0896 60.3702 60.9268 61.2889 60.7755 62.2076C60.6359 63.0175 60.5022 63.8335 60.3684 64.6434C60.3277 64.8912 60.3626 64.9335 60.6127 64.9396C60.729 64.9396 60.8453 64.9396 60.9617 64.9396C61.2001 64.9396 61.2001 64.9396 61.2409 64.6857C61.299 64.3291 61.3572 63.9725 61.4153 63.6159C61.4619 63.3439 61.4561 63.35 61.7352 63.3439C62.1715 63.3379 62.6077 63.3681 63.0439 63.2774C63.9862 63.084 64.6376 62.4192 64.8238 61.44C65.0448 60.2493 64.3701 59.3367 63.2068 59.2581C62.9218 59.2399 62.6368 59.2581 62.3518 59.2581H62.3402ZM89.7936 64.9335C89.8634 64.9335 89.939 64.9335 90.0088 64.9335C90.1407 64.9335 90.2182 64.863 90.2415 64.722C90.3113 64.3231 90.3869 63.9241 90.4451 63.5192C90.4683 63.3741 90.5149 63.3379 90.6486 63.3379C90.986 63.3379 91.3292 63.3439 91.6665 63.3258C92.888 63.2593 93.743 62.4494 93.8535 61.2043C93.9524 60.1345 93.3591 59.3911 92.3645 59.2702C91.7189 59.1916 91.0616 59.252 90.4102 59.24C90.3229 59.24 90.2822 59.2762 90.2706 59.3669C90.2473 59.5422 90.2124 59.7114 90.1833 59.8867C89.9274 61.4098 89.6715 62.9329 89.4097 64.456C89.3167 64.9758 89.3748 64.9396 89.7936 64.9335ZM66.336 61.4098C66.4291 61.4763 66.4524 61.573 66.4931 61.6516C66.7548 62.1593 67.0107 62.667 67.2667 63.1747C67.3248 63.2956 67.3946 63.356 67.5342 63.35C67.7145 63.3379 67.889 63.35 68.0693 63.35C68.2845 63.35 68.3194 63.2774 68.2205 63.078C68.0519 62.7395 67.8716 62.4131 67.7029 62.0746C67.6215 61.9114 67.5168 61.7603 67.4586 61.573C67.6738 61.5367 67.8716 61.5005 68.0577 61.4098C68.5172 61.1801 68.7615 60.7087 68.68 60.207C68.5928 59.657 68.2438 59.3246 67.7029 59.2823C67.4644 59.2641 67.2201 59.2702 66.9817 59.2641C66.6443 59.2641 66.3011 59.2641 65.9638 59.2641C65.8591 59.2641 65.7893 59.2823 65.7893 59.4092C65.7893 59.4575 65.7718 59.4998 65.7602 59.5422C65.6206 60.3702 65.481 61.1982 65.3414 62.0323C65.2774 62.395 65.2193 62.7637 65.1611 63.1263C65.132 63.3197 65.1669 63.356 65.3531 63.362C65.5159 63.362 65.673 63.362 65.8358 63.362C65.958 63.362 66.0045 63.3258 66.0278 63.1928C66.0743 62.8604 66.1266 62.534 66.1906 62.2076C66.2372 61.9477 66.2546 61.6818 66.3418 61.4219L66.336 61.4098ZM88.7525 63.3439C88.7816 63.3439 88.8048 63.3439 88.8339 63.3439C88.863 63.3439 88.8688 63.3439 88.8863 63.3439C89.1713 63.3439 89.1945 63.3137 89.1538 63.0236C89.0142 62.129 88.8746 61.2345 88.735 60.34C88.6885 60.0378 88.642 59.7356 88.578 59.4394C88.5431 59.2702 88.4558 59.1312 88.2697 59.1009C88.0836 59.0707 87.9149 59.113 87.7928 59.2762C87.7055 59.3911 87.6357 59.524 87.5718 59.657C87.0308 60.7691 86.4957 61.8873 85.9548 63.0054C85.9257 63.0659 85.8966 63.1203 85.8734 63.1807C85.8501 63.2412 85.885 63.2956 85.9257 63.3258C86.0246 63.4044 86.2689 63.3379 86.3329 63.2109C86.4376 63.0054 86.5422 62.806 86.6353 62.5944C86.6877 62.4796 86.7516 62.4312 86.8796 62.4373C87.153 62.4494 87.4322 62.4373 87.7055 62.4373C87.88 62.4373 88.1069 62.3527 88.2174 62.4796C88.3163 62.5823 88.293 62.806 88.3221 62.9813C88.3647 63.2271 88.5043 63.35 88.7409 63.35L88.7525 63.3439ZM100.106 62.4312C100.321 62.4312 100.537 62.4312 100.746 62.4312C100.856 62.4312 100.897 62.4736 100.915 62.5884C100.938 62.7999 100.984 63.0054 101.013 63.217C101.025 63.3076 101.06 63.35 101.147 63.3439C101.316 63.3439 101.485 63.3439 101.653 63.3439C101.781 63.3439 101.822 63.2653 101.81 63.1445C101.805 63.0961 101.799 63.0538 101.793 63.0054C101.677 62.2378 101.554 61.4702 101.438 60.7026C101.374 60.2856 101.304 59.8625 101.229 59.4454C101.2 59.2762 101.112 59.1312 100.926 59.1009C100.728 59.0647 100.554 59.113 100.432 59.2943C100.362 59.4031 100.292 59.5119 100.24 59.6268C99.6932 60.757 99.1464 61.8873 98.5997 63.0236C98.5764 63.0719 98.5531 63.1203 98.5299 63.1747C98.5008 63.2351 98.5357 63.2895 98.5764 63.3197C98.6695 63.4044 98.9254 63.3379 98.9894 63.217C99.0941 63.0115 99.2046 62.812 99.2918 62.6005C99.35 62.4675 99.4314 62.4312 99.5594 62.4373C99.7455 62.4433 99.9316 62.4373 100.124 62.4373L100.106 62.4312ZM103.387 63.3318C103.387 63.3318 103.387 63.3318 103.387 63.3379C103.532 63.3379 103.672 63.3379 103.817 63.3379C103.829 63.3379 103.834 63.3379 103.846 63.3379C103.898 63.3379 103.951 63.3379 103.98 63.2774C104.085 63.0719 104.003 62.9087 103.776 62.9027C103.73 62.9027 103.689 62.9027 103.643 62.9027C103.235 62.9027 103.2 62.8543 103.27 62.4312C103.398 61.6999 103.526 60.9746 103.654 60.2493C103.817 59.3125 103.986 58.3756 104.149 57.4388C104.183 57.2393 104.143 57.1789 103.951 57.1729C103.782 57.1729 103.613 57.1729 103.445 57.1729C103.317 57.1668 103.282 57.2333 103.259 57.3542C102.979 59.0284 102.694 60.7087 102.409 62.3829C102.386 62.528 102.38 62.6791 102.398 62.8241C102.433 63.1324 102.607 63.3137 102.904 63.3379C103.061 63.35 103.224 63.3379 103.387 63.3379V63.3318ZM57.5416 59.657C57.5591 59.5784 57.5823 59.518 57.594 59.4575C57.6172 59.2943 57.5707 59.2279 57.4078 59.2339C56.8262 59.2339 56.2446 59.2037 55.6687 59.252C55.2383 59.2883 55.058 59.4757 54.9824 59.9229C54.8602 60.6241 54.7381 61.3252 54.6218 62.0263C54.5811 62.2801 54.5287 62.534 54.5113 62.7939C54.4938 63.1203 54.6799 63.3318 54.9824 63.3379C55.5873 63.35 56.198 63.3379 56.8029 63.3379C56.896 63.3379 56.9483 63.3137 56.9658 63.2049C57.0007 62.9631 56.9658 62.9027 56.7273 62.9027C56.3725 62.9027 56.0119 62.9027 55.6571 62.9027C55.4128 62.8966 55.3721 62.8362 55.407 62.5944C55.4593 62.2681 55.5175 61.9356 55.5757 61.6092C55.6106 61.4037 55.6106 61.3977 55.8083 61.3977C56.1631 61.3977 56.5237 61.3977 56.8785 61.3977C56.9658 61.3977 57.0298 61.3977 57.0589 61.2829C57.117 61.0351 57.024 60.9625 56.832 60.9746C56.5005 60.9927 56.1689 60.9746 55.8432 60.9807C55.7211 60.9807 55.6862 60.9444 55.7094 60.8175C55.7618 60.5515 55.8025 60.2916 55.849 60.0257C55.9072 59.7053 55.9537 59.663 56.2736 59.663C56.6982 59.663 57.1287 59.663 57.5591 59.663L57.5416 59.657ZM52.5918 63.3379C52.8943 63.3379 53.1968 63.3379 53.505 63.3379C53.633 63.3379 53.6679 63.2774 53.6853 63.0961C53.6912 62.9813 53.6388 62.9208 53.5399 62.9087C53.4759 62.9027 53.4178 62.9087 53.3538 62.9087C53.0164 62.9087 52.6733 62.9087 52.3359 62.9027C52.1149 62.8966 52.0684 62.8241 52.1033 62.6005C52.1556 62.2741 52.2138 61.9417 52.2719 61.6153C52.3127 61.4037 52.3127 61.4037 52.5279 61.4037C52.8769 61.4037 53.2258 61.4037 53.5748 61.4037C53.633 61.4037 53.7028 61.4219 53.7377 61.3493C53.8482 61.1499 53.7551 60.9867 53.5341 60.9807C53.2026 60.9807 52.871 60.9807 52.5453 60.9807C52.4174 60.9807 52.3883 60.9323 52.4115 60.8175C52.4639 60.5153 52.5104 60.2131 52.5686 59.9169C52.6093 59.7114 52.6675 59.6751 52.8594 59.663C52.9118 59.663 52.9641 59.663 53.0223 59.663C53.3771 59.663 53.7377 59.663 54.0925 59.663C54.2146 59.663 54.2902 59.6449 54.2961 59.4878C54.3077 59.2702 54.2844 59.2279 54.0634 59.2279C53.6272 59.2279 53.1909 59.2279 52.7489 59.2279C52.586 59.2279 52.429 59.2279 52.2661 59.2581C51.9637 59.3004 51.7892 59.4878 51.7078 59.7839C51.6845 59.8746 51.6729 59.9652 51.6554 60.0559C51.574 60.5394 51.4867 61.023 51.4053 61.5065C51.3355 61.9175 51.2599 62.3285 51.2134 62.7395C51.1726 63.1263 51.3646 63.3379 51.7368 63.3439C52.0218 63.3439 52.3068 63.3439 52.5918 63.3439V63.3379ZM77.4337 63.3379C77.7478 63.3379 78.0561 63.3379 78.3702 63.3379C78.4981 63.3379 78.533 63.2714 78.5447 63.0901C78.5505 62.9752 78.4982 62.9148 78.3935 62.9027C78.3411 62.8966 78.2888 62.9027 78.2306 62.9027C77.9165 62.9027 77.6082 62.9027 77.2942 62.9027C76.951 62.9027 76.9161 62.8483 76.9801 62.5098C77.0324 62.2257 77.0673 61.9417 77.1255 61.6636C77.1895 61.3554 77.1429 61.4037 77.4221 61.3977C77.7595 61.3977 78.1026 61.3977 78.44 61.3977C78.4981 61.3977 78.5679 61.4158 78.6028 61.3433C78.7075 61.1318 78.6203 60.9807 78.3935 60.9807C78.0794 60.9807 77.7711 60.9807 77.457 60.9807C77.2534 60.9807 77.2476 60.9807 77.2825 60.757C77.3116 60.5455 77.3523 60.34 77.3872 60.1284C77.457 59.6872 77.4861 59.663 77.9165 59.663C78.2713 59.663 78.6319 59.663 78.9867 59.663C79.0972 59.663 79.1438 59.6328 79.1554 59.5119C79.1787 59.2762 79.1554 59.2279 78.9227 59.2279C78.4865 59.2279 78.0503 59.2279 77.6082 59.2279C77.4454 59.2279 77.2883 59.2339 77.1255 59.2581C76.8347 59.3004 76.6602 59.4757 76.5787 59.7597C76.5497 59.8504 76.538 59.9411 76.5264 60.0317C76.4391 60.5213 76.3577 61.0169 76.2705 61.5065C76.2007 61.9175 76.1251 62.3285 76.0785 62.7395C76.0378 63.1263 76.2297 63.3318 76.6078 63.3379C76.887 63.3379 77.1604 63.3379 77.4396 63.3379H77.4337ZM49.0206 63.3379C49.451 63.3379 49.8756 63.3379 50.306 63.3379C50.4049 63.3379 50.4689 63.3318 50.4863 63.1988C50.5096 62.945 50.4863 62.9027 50.242 62.9027C49.8291 62.9027 49.4219 62.9027 49.0089 62.9027C48.9042 62.9027 48.7646 62.951 48.7123 62.8422C48.66 62.7335 48.7879 62.6488 48.8461 62.5642C49.4743 61.7241 50.1082 60.8839 50.7364 60.0438C50.8178 59.935 50.9051 59.8262 50.9458 59.6872C51.0098 59.4817 50.9225 59.3185 50.7248 59.2581C50.6375 59.2279 50.5503 59.2279 50.4572 59.2279C50.2071 59.2279 49.957 59.2279 49.7069 59.2279C49.2881 59.2279 48.8693 59.2279 48.4506 59.2279C48.2877 59.2279 48.247 59.2762 48.2354 59.4636C48.2295 59.6147 48.2703 59.657 48.4506 59.663C48.5378 59.663 48.6309 59.663 48.7181 59.663C49.0729 59.663 49.4335 59.663 49.7883 59.663C49.9745 59.663 50.0094 59.7416 49.9221 59.9048C49.8872 59.9713 49.8407 60.0257 49.7942 60.0861C49.0671 61.0713 48.3459 62.0565 47.6188 63.0417C47.5665 63.1142 47.485 63.1807 47.549 63.2835C47.6014 63.3741 47.6944 63.3439 47.77 63.3439C48.1888 63.3439 48.6076 63.3439 49.0264 63.3439L49.0206 63.3379ZM85.3964 62.5521C85.3034 62.6186 85.2103 62.6851 85.1172 62.7516C84.8264 62.9571 84.5007 63.0296 84.1517 63.0115C83.6631 62.9873 83.3374 62.7335 83.2269 62.2439C83.0582 61.5246 83.1513 60.8416 83.541 60.2191C83.8376 59.7356 84.2622 59.4938 84.8264 59.5482C85.1347 59.5784 85.3906 59.6933 85.6174 59.9048C85.6814 59.9652 85.7279 60.0499 85.821 60.0801C85.8559 60.0559 85.8966 60.0317 85.9315 60.0015C86.1118 59.8625 86.1118 59.8081 85.9548 59.6328C85.7396 59.3911 85.4837 59.2339 85.1754 59.1674C83.3898 58.7866 82.1625 60.3158 82.3137 61.7724C82.3893 62.4917 82.7209 63.0236 83.3839 63.3076C83.7155 63.4467 84.0586 63.4587 84.4134 63.4406C84.8264 63.4225 85.1987 63.2774 85.5127 62.9933C85.6582 62.8604 85.6698 62.8241 85.5476 62.6791C85.5069 62.6307 85.472 62.5763 85.4022 62.5521H85.3964ZM97.3491 59.663C97.3491 59.7114 97.3608 59.7356 97.355 59.7658C97.227 60.5334 97.0932 61.2949 96.9653 62.0626C96.9071 62.401 96.8489 62.7335 96.7908 63.0719C96.7559 63.2895 96.7908 63.3318 97.006 63.3379C97.0932 63.3379 97.1863 63.3379 97.2735 63.3379C97.6283 63.3379 97.6225 63.3379 97.6865 62.9571C97.861 61.9175 98.0413 60.8779 98.21 59.8383C98.2332 59.6993 98.2798 59.6509 98.4135 59.657C98.6287 59.6691 98.844 59.657 99.0533 59.657C99.158 59.657 99.2162 59.6268 99.2278 59.5059C99.2511 59.2943 99.222 59.2339 99.0068 59.2339C98.303 59.2339 97.5993 59.2339 96.8896 59.2339C96.7908 59.2339 96.6919 59.2339 96.593 59.2339C96.4999 59.2339 96.4476 59.2641 96.436 59.3729C96.4069 59.6086 96.436 59.6509 96.6628 59.657C96.8838 59.657 97.1049 59.657 97.3317 59.657L97.3491 59.663ZM94.7201 63.3379C94.755 63.3379 94.7899 63.3379 94.8248 63.3379C95.1273 63.3379 95.1215 63.3379 95.1738 63.0417C95.2901 62.3466 95.4123 61.6576 95.5286 60.9625C95.61 60.4729 95.6915 59.9773 95.7729 59.4817C95.802 59.2883 95.7729 59.252 95.5868 59.246C95.4355 59.246 95.2843 59.252 95.1331 59.246C94.9877 59.2339 94.9295 59.2883 94.9062 59.4394C94.8306 59.935 94.7434 60.4246 94.662 60.9202C94.5398 61.6516 94.4177 62.3769 94.2955 63.1082C94.2664 63.2956 94.2955 63.3379 94.4875 63.3439C94.5689 63.3439 94.6503 63.3439 94.7259 63.3439L94.7201 63.3379ZM69.5525 63.3379C69.6339 63.3379 69.7154 63.3318 69.791 63.3379C69.9248 63.35 69.9713 63.3016 69.9946 63.1565C70.1051 62.4554 70.233 61.7543 70.3494 61.0471C70.4366 60.5394 70.5238 60.0257 70.6111 59.5119C70.6518 59.2762 70.6111 59.2399 70.3784 59.2339C70.2912 59.2339 70.1981 59.2339 70.1109 59.2339C69.7735 59.2339 69.7793 59.2339 69.7212 59.5784C69.5292 60.7087 69.3431 61.8389 69.1454 62.9692C69.0872 63.3016 69.1046 63.3258 69.4187 63.3258C69.4653 63.3258 69.506 63.3258 69.5525 63.3258V63.3379ZM95.4937 58.9982C95.7729 58.9982 95.9765 58.7927 95.9648 58.5207C95.959 58.2729 95.7787 58.1037 95.5286 58.0976C95.2611 58.0976 95.0633 58.285 95.0575 58.5509C95.0575 58.8169 95.2262 58.9982 95.4879 58.9982H95.4937ZM70.3377 58.9982C70.6111 58.9982 70.7972 58.8108 70.803 58.5388C70.803 58.2729 70.6227 58.0916 70.361 58.0976C70.0934 58.0976 69.9015 58.3031 69.9131 58.5751C69.9189 58.835 70.0876 58.9982 70.3435 58.9982H70.3377Z" fill="#FEFEFF"/>
<path d="M104.485 56.4295C104.38 56.4295 104.27 56.4295 104.165 56.4295C90.7523 56.4295 77.3455 56.4295 63.9328 56.4295C63.7583 56.4295 63.5838 56.4295 63.3686 56.3871C70.2611 46.5171 77.1419 36.6712 84.0518 26.783C83.8366 26.783 83.6621 26.783 83.4876 26.783C83.3887 26.783 83.2898 26.777 83.191 26.777C77.7642 26.777 72.3317 26.777 66.905 26.7709C66.6782 26.7709 66.556 26.8435 66.4455 27.0429C63.3803 32.5673 60.315 38.0855 57.2439 43.6099C55.3827 46.9583 53.5214 50.3007 51.666 53.6492C51.6195 53.7338 51.5497 53.8123 51.5439 53.9272C51.6544 53.9635 51.7591 53.9453 51.8638 53.9453C55.9643 53.9453 60.0591 53.9453 64.1597 53.9453C64.2644 53.9453 64.3749 53.9151 64.4737 53.9755C63.9386 54.7431 63.4093 55.5047 62.8742 56.2784C62.8103 56.369 62.7463 56.4234 62.6358 56.4174C62.5485 56.4113 62.4554 56.4295 62.3682 56.4295C57.4301 56.4295 52.4919 56.4295 47.5538 56.4295H47.4142C47.4026 56.2965 47.484 56.2179 47.5364 56.1272C50.1654 51.3947 52.7944 46.6622 55.4292 41.9296C58.5468 36.3207 61.6644 30.7178 64.782 25.1088C64.9294 24.8429 65.1484 24.7099 65.4393 24.7099C72.4771 24.7099 79.515 24.7099 86.547 24.7039C86.8262 24.7039 86.9658 24.7945 87.1054 25.0423C89.8915 30.071 92.6833 35.0877 95.4752 40.1103C98.4125 45.3989 101.35 50.6815 104.287 55.9701C104.351 56.091 104.421 56.2058 104.491 56.3207V56.4295H104.485ZM85.7153 27.4962C85.5059 27.738 68.0334 52.7425 67.3238 53.8063C67.3063 53.8365 67.2889 53.8667 67.2714 53.903C67.2714 53.9091 67.2714 53.9211 67.2714 53.9272C67.2714 53.9332 67.2831 53.9453 67.2889 53.9634C78.2761 53.9634 89.2633 53.9634 100.256 53.9634C100.285 53.9634 100.309 53.9635 100.338 53.9514C100.344 53.9514 100.349 53.9393 100.355 53.9332C100.355 53.9272 100.367 53.9211 100.384 53.8909C95.4985 45.1028 90.6127 36.3086 85.7095 27.4962H85.7153Z" fill="#010201"/>
<path d="M68.0463 24.2022C67.9881 24.2324 67.9299 24.2384 67.8659 24.2384C67.0458 24.2384 66.2257 24.2384 65.3998 24.2384C65.3765 24.2384 65.3474 24.2445 65.3184 24.1901C65.3242 24.0753 65.4056 23.9725 65.4638 23.8637C68.1568 19.0224 70.8498 14.175 73.5428 9.33364C74.3163 7.93744 75.0957 6.54125 75.8693 5.14506C75.8926 5.10275 75.9508 5.06649 75.9217 5H75.974C76.0031 5.13297 76.0904 5.24176 76.1543 5.36265C79.586 11.5397 83.0235 17.7168 86.4552 23.8939C86.5075 23.9906 86.5773 24.0813 86.589 24.1901C86.5657 24.2505 86.5192 24.2384 86.4785 24.2384C85.6758 24.2384 84.8731 24.2384 84.0647 24.2384C83.9949 24.2384 83.9251 24.2384 83.8611 24.1961C83.8611 24.1176 83.8029 24.0632 83.768 23.9967C81.2088 19.3911 78.6496 14.7854 76.0904 10.1798C76.0496 10.1073 76.0206 10.0287 75.9449 9.96827C75.8868 10.065 75.8344 10.1556 75.7821 10.2523C73.4323 14.4832 71.0824 18.7081 68.7326 22.939C68.4999 23.356 68.2498 23.761 68.0521 24.1961L68.0463 24.2022Z" fill="#010201"/>
<path d="M64.4748 53.9695C64.3759 53.9151 64.2654 53.9393 64.1607 53.9393C60.0602 53.9393 55.9654 53.9393 51.8648 53.9393C51.7601 53.9393 51.6554 53.9574 51.5449 53.9211C51.5507 53.8002 51.6205 53.7277 51.6671 53.6431C53.5283 50.2947 55.3838 46.9523 57.245 43.6038C60.3161 38.0855 63.3813 32.5612 66.4466 27.0369C66.5571 26.8374 66.6792 26.7649 66.9061 26.7649C72.3328 26.7709 77.7653 26.7709 83.192 26.7709C83.2909 26.7709 83.3898 26.7709 83.4887 26.777C82.9536 27.5506 82.4184 28.3243 81.8775 29.0979C77.6257 35.1783 73.3739 41.2587 69.1221 47.3451C67.6099 49.515 66.0918 51.6788 64.5737 53.8486C64.5446 53.8909 64.5039 53.9332 64.469 53.9755L64.4748 53.9695Z" fill="#00FFE5"/>
<path d="M68.0459 24.2022C68.2437 23.7671 68.4938 23.3621 68.7264 22.9451C71.0763 18.7142 73.4261 14.4893 75.7759 10.2584C75.8283 10.1617 75.8864 10.0711 75.9388 9.97437C76.0144 10.0348 76.0493 10.1134 76.0842 10.1859C78.6434 14.7915 81.2026 19.3972 83.7618 24.0028C83.7967 24.0632 83.8491 24.1237 83.8549 24.2022C83.7735 24.2022 83.692 24.2083 83.6164 24.2083C78.4864 24.2083 73.3621 24.2083 68.232 24.2083C68.168 24.2083 68.1099 24.2083 68.0459 24.2083V24.2022Z" fill="#FEC3E6"/>
<path d="M73.1178 61.9598C73.2283 61.8994 73.2632 61.8087 73.3098 61.7301C73.7402 61.0592 74.1706 60.3883 74.601 59.7174C74.6824 59.5965 74.7697 59.4757 74.8569 59.3608C74.95 59.2399 75.0838 59.1855 75.2292 59.1614C75.5782 59.1009 75.8108 59.3125 75.7817 59.6812C75.7585 59.9652 75.7003 60.2493 75.6538 60.5334C75.5142 61.3735 75.3688 62.2076 75.2234 63.0477C75.2117 63.1021 75.1943 63.1565 75.1885 63.2109C75.1885 63.3016 75.1419 63.3379 75.0547 63.3379C74.8918 63.3379 74.7348 63.3379 74.5719 63.3379C74.38 63.3379 74.3451 63.2955 74.3742 63.1082C74.4091 62.8422 74.4614 62.5763 74.5079 62.3164C74.6185 61.6515 74.7348 60.9867 74.8453 60.3218C74.8453 60.3037 74.8453 60.2856 74.8337 60.2614C74.7057 60.2795 74.6766 60.4004 74.6185 60.485C74.0484 61.3796 73.4843 62.2801 72.9084 63.1747C72.8503 63.2653 72.8328 63.4225 72.67 63.3983C72.5129 63.3681 72.542 63.2109 72.5129 63.1082C72.2512 62.2499 72.0011 61.3916 71.751 60.5334C71.7277 60.4608 71.7219 60.3883 71.6637 60.3279C71.5997 60.3641 71.5997 60.4306 71.5939 60.485C71.4485 61.3675 71.3031 62.256 71.1577 63.1384C71.1228 63.3439 71.1228 63.3439 70.9483 63.3379C70.7564 63.3379 70.7156 63.2895 70.7505 63.078C70.9367 61.9779 71.1286 60.8718 71.3205 59.7718C71.338 59.6812 71.3613 59.5905 71.3962 59.5059C71.5765 59.0888 72.0825 59.0344 72.3501 59.4031C72.4547 59.5482 72.5013 59.7174 72.5478 59.8867C72.7398 60.5696 72.9259 61.2526 73.1178 61.9598Z" fill="#060505"/>
<path d="M62.3347 59.2581C62.6197 59.2581 62.9047 59.24 63.1897 59.2581C64.3588 59.3307 65.0277 60.2433 64.8067 61.4401C64.6264 62.4192 63.9749 63.0841 63.0269 63.2775C62.5906 63.3681 62.1544 63.3379 61.7182 63.344C61.4448 63.344 61.4448 63.344 61.3983 63.616C61.3401 63.9726 61.2819 64.3292 61.2238 64.6858C61.1831 64.9396 61.1773 64.9396 60.9446 64.9396C60.8283 64.9396 60.7119 64.9396 60.5956 64.9396C60.3455 64.9396 60.3106 64.8913 60.3513 64.6435C60.4909 63.8335 60.6247 63.0176 60.7585 62.2077C60.9155 61.289 61.0784 60.3703 61.2238 59.4455C61.2471 59.2944 61.2936 59.24 61.439 59.2461C61.7356 59.2581 62.0265 59.2461 62.3231 59.2461C62.3231 59.2461 62.3231 59.2521 62.3231 59.2581H62.3347ZM61.5437 62.9027C61.8287 62.9027 62.1079 62.9027 62.3813 62.9027C62.928 62.9027 63.341 62.6429 63.6201 62.1654C63.9517 61.6093 64.0098 60.9988 63.8586 60.3703C63.7481 59.9049 63.4224 59.6631 62.9571 59.6571C62.7244 59.6571 62.4918 59.6631 62.2591 59.6571C62.1195 59.651 62.0613 59.6933 62.0381 59.8444C61.9276 60.5455 61.7938 61.2467 61.6833 61.9478C61.6368 62.256 61.5553 62.5582 61.5437 62.9027Z" fill="#060505"/>
<path d="M89.7883 64.9335C89.3696 64.9456 89.3114 64.9758 89.4045 64.456C89.672 62.9329 89.9221 61.4097 90.178 59.8866C90.2071 59.7113 90.242 59.5421 90.2653 59.3668C90.2769 59.2762 90.3176 59.2399 90.4049 59.2399C91.0563 59.252 91.7136 59.1916 92.3592 59.2701C93.3538 59.391 93.9471 60.1344 93.8482 61.2042C93.7377 62.4433 92.8827 63.2592 91.6612 63.3257C91.3239 63.3439 90.9807 63.3378 90.6433 63.3378C90.5096 63.3378 90.4572 63.3741 90.4398 63.5191C90.3816 63.9241 90.306 64.323 90.2362 64.7219C90.2129 64.8589 90.1354 64.9294 90.0035 64.9335C89.9337 64.9335 89.8581 64.9335 89.7883 64.9335ZM90.5445 62.9026C90.8876 62.9026 91.1901 62.9026 91.4925 62.9026C91.8299 62.8966 92.1149 62.7576 92.3592 62.5219C92.9059 62.0081 93.1211 60.902 92.8129 60.207C92.6675 59.8866 92.429 59.6932 92.0916 59.669C91.7659 59.6509 91.4344 59.669 91.0912 59.669C90.9051 60.7449 90.7248 61.8087 90.5387 62.9087L90.5445 62.9026Z" fill="#060505"/>
<path d="M66.3304 61.4097C66.2432 61.6696 66.2257 61.9355 66.1792 62.1954C66.1152 62.5218 66.0629 62.8482 66.0163 63.1806C65.9989 63.3136 65.9465 63.3559 65.8244 63.3499C65.6615 63.3438 65.5045 63.3499 65.3416 63.3499C65.1555 63.3499 65.1206 63.3076 65.1497 63.1141C65.202 62.7455 65.266 62.3828 65.33 62.0202C65.4696 61.1921 65.6092 60.3641 65.7488 59.53C65.7546 59.4816 65.7721 59.4393 65.7779 59.397C65.7779 59.2701 65.8477 59.252 65.9524 59.252C66.2897 59.252 66.6329 59.252 66.9702 59.252C67.2087 59.252 67.453 59.252 67.6915 59.2701C68.2382 59.3124 68.5814 59.6448 68.6686 60.1948C68.7501 60.7025 68.5058 61.174 68.0463 61.3976C67.8601 61.4883 67.6624 61.5245 67.4472 61.5608C67.5053 61.7542 67.61 61.9053 67.6915 62.0625C67.8601 62.4009 68.0405 62.7273 68.2091 63.0658C68.308 63.2653 68.2673 63.3317 68.0579 63.3378C67.8776 63.3378 67.7031 63.3317 67.5228 63.3378C67.3832 63.3499 67.3192 63.2834 67.2552 63.1625C67.0051 62.6548 66.7434 62.1471 66.4817 61.6394C66.4409 61.5608 66.4177 61.4641 66.3246 61.3976L66.3304 61.4097ZM66.3828 61.1619C66.6387 61.1982 66.9004 61.174 67.1564 61.174C67.8601 61.1619 67.9997 60.5756 67.8892 60.1284C67.8311 59.8926 67.6915 59.7415 67.453 59.6932C67.2029 59.6448 66.9528 59.6811 66.7085 59.669C66.6096 59.669 66.598 59.7294 66.5805 59.808C66.534 60.0981 66.4758 60.3882 66.4351 60.6844C66.4119 60.8476 66.3421 60.9987 66.3886 61.1679C66.3711 61.1498 66.3595 61.1498 66.3537 61.174C66.3537 61.18 66.3537 61.1982 66.3595 61.1982C66.3828 61.1982 66.3886 61.1861 66.3828 61.1619Z" fill="#060505"/>
<path d="M88.747 63.3379C88.5105 63.3379 88.3709 63.215 88.3282 62.9692C88.2992 62.8 88.3166 62.5763 88.2236 62.4675C88.1072 62.3467 87.8862 62.4313 87.7117 62.4252C87.4383 62.4192 87.1592 62.4252 86.8858 62.4252C86.7578 62.4252 86.6938 62.4736 86.6415 62.5824C86.5484 62.7939 86.4437 62.9934 86.339 63.1989C86.2751 63.3258 86.0308 63.3923 85.9319 63.3137C85.8912 63.2835 85.8563 63.2291 85.8795 63.1687C85.9028 63.1082 85.9319 63.0538 85.961 62.9934C86.5019 61.8752 87.037 60.7631 87.5779 59.6449C87.6419 59.512 87.7117 59.385 87.799 59.2642C87.9269 59.101 88.0898 59.0587 88.2759 59.0889C88.462 59.1191 88.5493 59.2581 88.5842 59.4274C88.6482 59.7235 88.6947 60.0257 88.7412 60.3279C88.8808 61.2225 89.0204 62.117 89.16 63.0115C89.2065 63.2956 89.1833 63.3319 88.8924 63.3319C88.875 63.3319 88.8575 63.3319 88.8401 63.3319C88.811 63.3319 88.7877 63.3319 88.7587 63.3319L88.747 63.3379ZM88.1712 61.978C88.0723 61.3433 87.9793 60.7268 87.8862 60.1043C87.8688 60.1043 87.8455 60.1043 87.828 60.1043C87.5256 60.7208 87.2173 61.3373 86.9265 61.978H88.1712Z" fill="#060505"/>
<path d="M100.1 62.4312C99.9139 62.4312 99.7278 62.4373 99.5358 62.4312C99.4079 62.4312 99.3264 62.4614 99.2683 62.5944C99.181 62.8059 99.0705 63.0054 98.9658 63.2109C98.9018 63.3318 98.6459 63.3983 98.5529 63.3136C98.5121 63.2774 98.4831 63.229 98.5063 63.1686C98.5296 63.1202 98.5529 63.0719 98.5761 63.0175C99.1229 61.8872 99.6696 60.7509 100.216 59.6207C100.275 59.5059 100.338 59.3971 100.408 59.2883C100.53 59.1069 100.705 59.0646 100.903 59.0949C101.089 59.1251 101.176 59.2701 101.205 59.4394C101.287 59.8564 101.351 60.2735 101.415 60.6965C101.537 61.4641 101.653 62.2318 101.769 62.9994C101.775 63.0477 101.781 63.09 101.787 63.1384C101.804 63.2593 101.758 63.3378 101.63 63.3378C101.461 63.3378 101.292 63.3378 101.124 63.3378C101.036 63.3378 101.002 63.3016 100.99 63.2109C100.961 62.9994 100.92 62.7939 100.891 62.5823C100.879 62.4675 100.839 62.4252 100.722 62.4252C100.507 62.4312 100.292 62.4252 100.083 62.4252L100.1 62.4312ZM100.815 61.9839C100.717 61.3372 100.623 60.7268 100.525 60.08C100.315 60.3702 99.6405 61.7966 99.6114 61.9839H100.815Z" fill="#060505"/>
<path d="M103.381 63.3319C103.218 63.3319 103.061 63.3439 102.898 63.3319C102.601 63.3077 102.427 63.1264 102.392 62.8181C102.375 62.673 102.38 62.5219 102.404 62.3769C102.689 60.7027 102.974 59.0224 103.253 57.3482C103.27 57.2333 103.305 57.1608 103.439 57.1669C103.608 57.1729 103.776 57.1669 103.945 57.1669C104.131 57.1729 104.178 57.2333 104.143 57.4328C103.98 58.3696 103.811 59.3065 103.648 60.2433C103.52 60.9686 103.392 61.6999 103.264 62.4252C103.189 62.8483 103.23 62.8967 103.637 62.8967C103.683 62.8967 103.724 62.8967 103.77 62.8967C103.991 62.9027 104.079 63.0659 103.974 63.2714C103.939 63.3319 103.893 63.3319 103.84 63.3319C103.829 63.3319 103.823 63.3319 103.811 63.3319C103.666 63.3319 103.526 63.3319 103.381 63.3319C103.381 63.3319 103.381 63.3319 103.381 63.3258V63.3319Z" fill="#060505"/>
<path d="M57.5361 59.657C57.1057 59.657 56.6811 59.657 56.2507 59.657C55.9308 59.657 55.8842 59.6993 55.8261 60.0197C55.7795 60.2856 55.7388 60.5515 55.6865 60.8114C55.6632 60.9384 55.6981 60.9746 55.8202 60.9746C56.1518 60.9746 56.4833 60.9867 56.809 60.9686C57.0068 60.9565 57.0999 61.029 57.0359 61.2768C57.0068 61.3856 56.9428 61.3917 56.8556 61.3917C56.5008 61.3917 56.1401 61.3917 55.7853 61.3917C55.5876 61.3917 55.5876 61.3917 55.5527 61.6032C55.4945 61.9296 55.4364 62.256 55.384 62.5884C55.3491 62.8302 55.384 62.8906 55.6341 62.8967C55.9889 62.9087 56.3495 62.8967 56.7043 62.8967C56.9428 62.8967 56.9835 62.9571 56.9428 63.1989C56.9254 63.3077 56.873 63.3318 56.7799 63.3318C56.175 63.3318 55.5643 63.3318 54.9594 63.3318C54.6511 63.3318 54.465 63.1142 54.4883 62.7879C54.5057 62.528 54.5581 62.2741 54.5988 62.0203C54.7151 61.3191 54.8373 60.618 54.9594 59.9169C55.035 59.4696 55.2153 59.2823 55.6457 59.246C56.2216 59.1977 56.8032 59.2339 57.3849 59.2279C57.5477 59.2279 57.5942 59.2944 57.571 59.4515C57.5652 59.518 57.5419 59.5784 57.5186 59.651L57.5361 59.657Z" fill="#060505"/>
<path d="M52.586 63.3377C52.301 63.3377 52.016 63.3377 51.731 63.3377C51.3588 63.3317 51.1668 63.1201 51.2075 62.7333C51.2541 62.3223 51.3355 61.9113 51.3995 61.5003C51.4809 61.0168 51.5623 60.5333 51.6496 60.0497C51.667 59.9591 51.6787 59.8684 51.7019 59.7777C51.7775 59.4816 51.9578 59.3003 52.2603 59.2519C52.4173 59.2277 52.5802 59.2217 52.7431 59.2217C53.1793 59.2217 53.6155 59.2217 54.0576 59.2217C54.2786 59.2217 54.3019 59.264 54.2902 59.4816C54.2844 59.6387 54.2146 59.6569 54.0867 59.6569C53.7319 59.6569 53.3712 59.6569 53.0164 59.6569C52.9641 59.6569 52.9117 59.6569 52.8536 59.6569C52.6616 59.6689 52.6035 59.7052 52.5628 59.9107C52.4988 60.2069 52.4581 60.5091 52.4057 60.8113C52.3824 60.9261 52.4173 60.9805 52.5395 60.9745C52.871 60.9684 53.2026 60.9745 53.5283 60.9745C53.7551 60.9745 53.8424 61.1377 53.7319 61.3432C53.6911 61.4157 53.6272 61.3915 53.569 61.3976C53.22 61.3976 52.871 61.3976 52.522 61.3976C52.3068 61.3976 52.301 61.3976 52.2661 61.6091C52.208 61.9355 52.1498 62.2619 52.0974 62.5943C52.0625 62.8179 52.1091 62.8905 52.3301 62.8965C52.6674 62.9086 53.0106 62.8965 53.348 62.9026C53.4119 62.9026 53.4759 62.9026 53.5341 62.9026C53.6388 62.9146 53.6911 62.9751 53.6795 63.0899C53.6679 63.2712 53.633 63.3317 53.4992 63.3317C53.1967 63.3317 52.8943 63.3317 52.586 63.3317V63.3377Z" fill="#060505"/>
<path d="M77.4278 63.3378C77.1486 63.3378 76.8753 63.3378 76.5961 63.3378C76.2238 63.3317 76.0261 63.1262 76.0668 62.7394C76.1133 62.3284 76.1889 61.9174 76.2587 61.5064C76.3401 61.0168 76.4274 60.5212 76.5146 60.0317C76.5321 59.941 76.5437 59.8503 76.567 59.7597C76.6484 59.4816 76.8229 59.3003 77.1137 59.258C77.2708 59.2338 77.4336 59.2278 77.5965 59.2278C78.0327 59.2278 78.469 59.2278 78.911 59.2278C79.1378 59.2278 79.1669 59.2761 79.1437 59.5119C79.132 59.6327 79.0855 59.663 78.975 59.663C78.6202 59.663 78.2596 59.663 77.9048 59.663C77.4685 59.663 77.4395 59.6871 77.3755 60.1284C77.3406 60.3399 77.2999 60.5454 77.2708 60.7569C77.2417 60.9745 77.2417 60.9745 77.4453 60.9806C77.7594 60.9806 78.0676 60.9806 78.3817 60.9806C78.6144 60.9806 78.6958 61.1317 78.5911 61.3432C78.5562 61.4158 78.4864 61.3976 78.4282 61.3976C78.0909 61.3976 77.7477 61.3976 77.4104 61.3976C77.1312 61.3976 77.1777 61.3553 77.1137 61.6636C77.0556 61.9416 77.0207 62.2317 76.9683 62.5097C76.9102 62.8482 76.9451 62.8966 77.2824 62.9026C77.5965 62.9026 77.9048 62.9026 78.2189 62.9026C78.2712 62.9026 78.3294 62.9026 78.3817 62.9026C78.4864 62.9147 78.5388 62.9751 78.5329 63.09C78.5213 63.2713 78.4864 63.3317 78.3584 63.3378C78.0444 63.3378 77.7361 63.3378 77.422 63.3378H77.4278Z" fill="#060505"/>
<path d="M49.015 63.3377C48.5962 63.3377 48.1774 63.3377 47.7586 63.3377C47.683 63.3377 47.59 63.3679 47.5376 63.2773C47.4794 63.1685 47.5551 63.1081 47.6074 63.0355C48.3345 62.0503 49.0557 61.0651 49.7827 60.0799C49.8235 60.0195 49.8758 59.9651 49.9107 59.8986C50.0038 59.7354 49.963 59.6629 49.7769 59.6569C49.4221 59.6569 49.0615 59.6569 48.7067 59.6569C48.6195 59.6569 48.5264 59.6569 48.4391 59.6569C48.2588 59.6569 48.2181 59.6085 48.2239 59.4574C48.2298 59.2761 48.2705 59.2277 48.4391 59.2217C48.8579 59.2217 49.2767 59.2217 49.6955 59.2217C49.9456 59.2217 50.1957 59.2217 50.4458 59.2217C50.5331 59.2217 50.6261 59.2217 50.7134 59.2519C50.9111 59.3184 50.9984 59.4755 50.9344 59.681C50.8937 59.814 50.8122 59.9228 50.725 60.0376C50.0968 60.8778 49.4628 61.7179 48.8347 62.558C48.7707 62.6427 48.6427 62.7273 48.7009 62.8361C48.7532 62.9449 48.8928 62.8965 48.9975 62.8965C49.4105 62.8965 49.8176 62.8965 50.2306 62.8965C50.4749 62.8965 50.504 62.9388 50.4749 63.1927C50.4633 63.3256 50.3935 63.3317 50.2946 63.3317C49.8642 63.3317 49.4396 63.3317 49.0092 63.3317L49.015 63.3377Z" fill="#060505"/>
<path d="M85.3911 62.5583C85.4609 62.5825 85.4958 62.6429 85.5365 62.6852C85.6587 62.8303 85.6529 62.8665 85.5016 62.9995C85.1876 63.2836 84.8153 63.4286 84.4023 63.4468C84.0534 63.4649 83.7044 63.4528 83.3728 63.3138C82.7098 63.0297 82.3782 62.4978 82.3026 61.7786C82.1514 60.322 83.3787 58.7928 85.1643 59.1736C85.4667 59.2401 85.7285 59.3972 85.9437 59.639C86.1007 59.8142 86.1007 59.8686 85.9204 60.0077C85.8855 60.0379 85.8448 60.0621 85.8099 60.0862C85.7169 60.056 85.6703 59.9714 85.6063 59.911C85.3795 59.6994 85.1178 59.5846 84.8153 59.5544C84.2453 59.5 83.8265 59.7478 83.5299 60.2253C83.1402 60.8478 83.0529 61.5368 83.2158 62.25C83.3321 62.7396 83.652 62.9935 84.1406 63.0176C84.4896 63.0358 84.8153 62.9632 85.1061 62.7577C85.1992 62.6913 85.2981 62.6248 85.3853 62.5583H85.3911Z" fill="#060505"/>
<path d="M97.3439 59.6631C97.1228 59.6631 96.896 59.6631 96.675 59.6631C96.4481 59.6631 96.4132 59.6147 96.4481 59.379C96.4656 59.2702 96.5121 59.24 96.6052 59.24C96.7041 59.24 96.8029 59.24 96.9018 59.24C97.6056 59.24 98.3094 59.24 99.019 59.24C99.2284 59.24 99.2633 59.2944 99.24 59.512C99.2226 59.6329 99.1702 59.6631 99.0655 59.6631C98.8503 59.6631 98.6351 59.6631 98.4257 59.6631C98.2919 59.6631 98.2454 59.7054 98.2222 59.8444C98.0535 60.884 97.8673 61.9236 97.6987 62.9632C97.6347 63.3439 97.6405 63.3439 97.2857 63.3439C97.1985 63.3439 97.1054 63.3439 97.0182 63.3439C96.7971 63.3439 96.7622 63.2956 96.8029 63.078C96.8611 62.7395 96.9193 62.4071 96.9774 62.0686C97.1054 61.301 97.2392 60.5395 97.3671 59.7719C97.3671 59.7477 97.3671 59.7175 97.3613 59.6691L97.3439 59.6631Z" fill="#060505"/>
<path d="M94.7139 63.3378C94.6325 63.3378 94.551 63.3378 94.4754 63.3378C94.2893 63.3318 94.2544 63.2895 94.2835 63.1021C94.4056 62.3708 94.5278 61.6394 94.6499 60.9141C94.7314 60.4246 94.8244 59.9289 94.8942 59.4333C94.9175 59.2822 94.9756 59.2278 95.1211 59.2399C95.2723 59.252 95.4235 59.2399 95.5747 59.2399C95.7609 59.246 95.7899 59.2822 95.7609 59.4756C95.6852 59.9712 95.6038 60.4608 95.5166 60.9564C95.4002 61.6515 95.2781 62.3405 95.1618 63.0356C95.1094 63.3318 95.1152 63.3318 94.8128 63.3318C94.7779 63.3318 94.743 63.3318 94.7081 63.3318L94.7139 63.3378Z" fill="#060505"/>
<path d="M69.5467 63.3377C69.5001 63.3377 69.4594 63.3377 69.4129 63.3377C69.0988 63.3377 69.0814 63.3075 69.1395 62.9811C69.3315 61.8509 69.5234 60.7206 69.7153 59.5904C69.7735 59.2459 69.7677 59.2458 70.105 59.2458C70.1923 59.2458 70.2853 59.2458 70.3726 59.2458C70.6111 59.2458 70.646 59.2882 70.6053 59.5239C70.518 60.0376 70.4308 60.5453 70.3435 61.0591C70.2214 61.7602 70.0992 62.4613 69.9887 63.1685C69.9654 63.3135 69.9189 63.3619 69.7851 63.3498C69.7037 63.3438 69.6223 63.3498 69.5467 63.3498V63.3377Z" fill="#060505"/>
<path d="M95.4882 58.9981C95.2264 58.9981 95.0519 58.8168 95.0578 58.5509C95.0578 58.2849 95.2613 58.0915 95.5289 58.0975C95.779 58.0975 95.9535 58.2728 95.9651 58.5206C95.9768 58.7926 95.7732 58.9981 95.494 58.9981H95.4882Z" fill="#060505"/>
<path d="M70.3319 58.9982C70.076 58.9982 69.9073 58.835 69.9015 58.5751C69.8957 58.3032 70.0818 58.1037 70.3494 58.0977C70.6169 58.0977 70.7972 58.2729 70.7914 58.5389C70.7914 58.8109 70.6053 58.9982 70.3261 58.9982H70.3319Z" fill="#060505"/>
<path d="M85.7163 27.4961C90.6138 36.3084 95.5054 45.1087 100.391 53.8908C100.374 53.921 100.368 53.927 100.362 53.9331C100.362 53.9391 100.35 53.9512 100.345 53.9512C100.316 53.9512 100.292 53.9633 100.263 53.9633C89.2702 53.9633 78.283 53.9633 67.2958 53.9633C67.2841 53.9452 67.2783 53.9391 67.2783 53.927C67.2783 53.921 67.2783 53.9089 67.2783 53.9029C67.2958 53.8726 67.3132 53.8364 67.3307 53.8062C68.0403 52.7424 85.5128 27.7379 85.7222 27.4961H85.7163Z" fill="#FEC339"/>
<path d="M61.543 62.9027C61.5604 62.5642 61.636 62.2559 61.6826 61.9477C61.7931 61.2466 61.9269 60.5455 62.0374 59.8443C62.0606 59.6872 62.1188 59.6449 62.2584 59.657C62.491 59.6691 62.7237 59.657 62.9564 59.657C63.4217 59.663 63.7416 59.9048 63.8579 60.3702C64.0091 60.9988 63.951 61.6032 63.6194 62.1653C63.3402 62.6428 62.9273 62.8966 62.3805 62.9027C62.1072 62.9027 61.8338 62.9027 61.543 62.9027Z" fill="#FEFEFF"/>
<path d="M90.5439 62.8966C90.7301 61.8027 90.9104 60.7328 91.0965 59.657C91.4397 59.657 91.7712 59.6389 92.0969 59.657C92.4343 59.6751 92.6786 59.8685 92.8182 60.1949C93.1264 60.89 92.9112 62.0021 92.3645 62.5098C92.1202 62.7395 91.8294 62.8785 91.4978 62.8906C91.1954 62.8966 90.8929 62.8906 90.5498 62.8906L90.5439 62.8966Z" fill="#FEFEFF"/>
<path d="M66.3887 61.1619C66.3422 60.9927 66.412 60.8355 66.4352 60.6784C66.4818 60.3883 66.5341 60.0981 66.5806 59.802C66.5923 59.7234 66.6039 59.6569 66.7086 59.663C66.9587 59.6751 67.2088 59.6388 67.4531 59.6871C67.6916 59.7355 67.8312 59.8806 67.8893 60.1223C67.9998 60.5635 67.8603 61.1559 67.1565 61.168C66.9005 61.168 66.6388 61.1921 66.3829 61.1559L66.3887 61.1619Z" fill="#FEFEFF"/>
<path d="M66.3821 61.1558C66.3879 61.1739 66.3821 61.1921 66.359 61.1921C66.359 61.1921 66.3474 61.1739 66.3532 61.1679C66.3532 61.1437 66.3705 61.1437 66.3879 61.1619V61.1558H66.3821Z" fill="#FEFEFF"/>
<path d="M88.1656 61.9779H86.9209C87.2117 61.3312 87.5258 60.7207 87.8224 60.1042C87.8399 60.1042 87.8632 60.1042 87.8806 60.1042C87.9737 60.7207 88.0725 61.3433 88.1656 61.9779Z" fill="#FEFEFF"/>
<path d="M100.816 61.9779H99.6123C99.6414 61.7845 100.316 60.3641 100.525 60.074C100.624 60.7207 100.717 61.3372 100.816 61.9779Z" fill="#FEFEFF"/>
</g>
<defs>
<clipPath id="clip0_83_1618">
<rect width="57.1753" height="60" fill="white" transform="translate(47.3105 5)"/>
</clipPath>
</defs>
</svg>
