<?xml version="1.0" encoding="utf-8"?>
<!-- Generator: Adobe Illustrator 26.5.0, SVG Export Plug-In . SVG Version: 6.00 Build 0)  -->
<svg version="1.1" id="Layer_1" xmlns="http://www.w3.org/2000/svg" xmlns:xlink="http://www.w3.org/1999/xlink" x="0px" y="0px"
	 viewBox="0 0 1300 600" style="enable-background:new 0 0 1300 600;" xml:space="preserve">
<style type="text/css">
	.st0{fill:#FFFFFF;fill-opacity:0.5;stroke:#000000;stroke-width:1.0258;stroke-miterlimit:10;}
	.st1{fill:none;stroke:#000000;stroke-width:0.5;stroke-miterlimit:10;stroke-dasharray:6;}
	.st2{fill:url(#SVGID_1_);stroke:#353535;stroke-width:2;stroke-miterlimit:10;}
	.st3{fill:#454545;}
	.st4{font-family:'Courier';}
	.st5{font-size:16px;}
	.st6{fill:url(#SVGID_00000126298076175833090710000004308248636259273602_);stroke:#353535;stroke-width:2;stroke-miterlimit:10;}
	.st7{fill:url(#SVGID_00000140016463255735801880000010380771297338474682_);stroke:#353535;stroke-width:2;stroke-miterlimit:10;}
	.st8{fill:url(#SVGID_00000052811549294179728320000008177195845661215417_);stroke:#353535;stroke-width:2;stroke-miterlimit:10;}
	.st9{fill:url(#SVGID_00000070096664422956753450000009043178599975549571_);stroke:#353535;stroke-width:2;stroke-miterlimit:10;}
	.st10{font-size:21px;}
	.st11{enable-background:new    ;}
	.st12{fill-rule:evenodd;clip-rule:evenodd;fill:#F7F5FF;stroke:#FFFFFF;stroke-miterlimit:10;}
	.st13{fill:none;stroke:#6200FF;stroke-width:2.7;stroke-miterlimit:10;}
	.st14{fill:none;stroke:#6200FF;stroke-width:2.639;stroke-miterlimit:10;}
	.st15{fill:url(#SVGID_00000144302791394156204280000003713489663106840997_);stroke:#353535;stroke-width:2;stroke-miterlimit:10;}
	.st16{fill:url(#SVGID_00000061446206391662653790000011546289897735879567_);stroke:#353535;stroke-width:2;stroke-miterlimit:10;}
	.st17{fill:url(#SVGID_00000074427909186626955120000005443164960516060319_);stroke:#353535;stroke-width:2;stroke-miterlimit:10;}
	.st18{fill-rule:evenodd;clip-rule:evenodd;fill:#FFFFFF;stroke:#FF007A;stroke-width:2;stroke-miterlimit:10;}
	.st19{fill-rule:evenodd;clip-rule:evenodd;fill:#FF007A;}
	.st20{fill:url(#SVGID_00000146479184040393603710000013322564506805690016_);stroke:#353535;stroke-width:2;stroke-miterlimit:10;}
	.st21{fill:none;stroke:#353535;stroke-width:2;stroke-miterlimit:10;}
	.st22{fill:#353535;}
	.st23{fill:none;stroke:#353535;stroke-width:2;stroke-miterlimit:10;stroke-dasharray:2;}
	.st24{fill:#BDD4EF;stroke:#1F72E5;stroke-width:1.5;stroke-linecap:round;stroke-linejoin:round;stroke-miterlimit:10;}
	.st25{fill:none;stroke:#353535;stroke-miterlimit:10;}
	.st26{fill:none;stroke:#000000;stroke-width:1.5;stroke-miterlimit:10;}
	.st27{fill:#FFFFFF;stroke:#353535;stroke-miterlimit:10;}
	.st28{fill-rule:evenodd;clip-rule:evenodd;fill:#FFFFFF;stroke:#FF007A;stroke-width:1.5;stroke-miterlimit:10;}
	.st29{fill:none;stroke:#6200FF;stroke-width:2.025;stroke-miterlimit:10;}
	.st30{fill:none;stroke:#6200FF;stroke-width:1.9792;stroke-miterlimit:10;}
	.st31{fill:#FFFFFF;}
	.st32{clip-path:url(#SVGID_00000137091088752008788350000005354342005586069409_);}
	.st33{opacity:0.25;fill:#1F72E5;}
	.st34{opacity:0.25;fill:none;stroke:#1F72E5;stroke-linejoin:round;stroke-miterlimit:10;}
	
		.st35{clip-path:url(#SVGID_00000098922841046055346710000017261862442642694303_);fill:none;stroke:#1F72E5;stroke-width:2;stroke-linecap:round;stroke-linejoin:round;stroke-miterlimit:10;}
	
		.st36{clip-path:url(#SVGID_00000057864432128693283930000016380987820093402761_);fill:none;stroke:#FF007B;stroke-width:2;stroke-linecap:round;stroke-linejoin:round;stroke-miterlimit:10;}
	.st37{fill:none;stroke:#231F20;stroke-width:2;stroke-linecap:square;stroke-miterlimit:10;}
	.st38{fill:none;stroke:#231F20;stroke-width:2;stroke-miterlimit:10;}
	.st39{fill:#35AAAF;}
	.st40{fill:none;stroke:#231F20;stroke-width:0.75;stroke-linecap:round;stroke-linejoin:round;stroke-miterlimit:10;}
	.st41{clip-path:url(#SVGID_00000003063807687653307320000017613247015142962310_);}
	
		.st42{clip-path:url(#SVGID_00000091718249645837763910000015773569670901440907_);fill:none;stroke:#1F72E5;stroke-width:2;stroke-linecap:round;stroke-linejoin:round;stroke-miterlimit:10;}
	
		.st43{clip-path:url(#SVGID_00000176726798862846698110000005197661724324421038_);fill:none;stroke:#FF007B;stroke-width:2;stroke-linecap:round;stroke-linejoin:round;stroke-miterlimit:10;}
	
		.st44{fill:#1F72E5;fill-opacity:0.25;stroke:#1F72E5;stroke-width:1.5;stroke-linecap:round;stroke-linejoin:round;stroke-miterlimit:10;}
</style>
<path class="st0" d="M1253.1,597H35.6c-8.9,0-16.2-7.3-16.2-16.2V19.2C19.4,10.3,26.7,3,35.6,3h1217.5c8.9,0,16.2,7.3,16.2,16.2
	v561.5C1269.4,589.7,1262.1,597,1253.1,597z"/>
<line class="st1" x1="523.3" y1="496.9" x2="413.9" y2="139.3"/>
<g>
	
		<linearGradient id="SVGID_1_" gradientUnits="userSpaceOnUse" x1="354.3821" y1="312.2972" x2="440.1821" y2="312.2972" gradientTransform="matrix(1 0 0 -1 0 412)">
		<stop  offset="0" style="stop-color:#FFFFFF"/>
		<stop  offset="1" style="stop-color:#F7F5FF"/>
	</linearGradient>
	<circle class="st2" cx="397.3" cy="99.7" r="42.9"/>
	<text transform="matrix(1 0 0 1 368.4894 96.1556)" class="st3 st4 st5">Liqui-</text>
	<text transform="matrix(1 0 0 1 373.2894 115.3557)" class="st3 st4 st5">dator</text>
</g>
<g>
	
		<linearGradient id="SVGID_00000096044499736438827000000007055904578449789100_" gradientUnits="userSpaceOnUse" x1="69.2321" y1="11.3" x2="155.0321" y2="11.3" gradientTransform="matrix(1 0 0 -1 0 412)">
		<stop  offset="0" style="stop-color:#FFFFFF"/>
		<stop  offset="1" style="stop-color:#F7F5FF"/>
	</linearGradient>
	
		<circle style="fill:url(#SVGID_00000096044499736438827000000007055904578449789100_);stroke:#353535;stroke-width:2;stroke-miterlimit:10;" cx="112.1" cy="400.7" r="42.9"/>
	<text transform="matrix(1 0 0 1 73.7342 399.1747)" class="st3 st4 st5">Panoptic</text>
	<text transform="matrix(1 0 0 1 102.5342 418.3747)" class="st3 st4 st5">LP</text>
</g>
<g>
	
		<linearGradient id="SVGID_00000090991489992294831260000008884773924481111193_" gradientUnits="userSpaceOnUse" x1="490.9321" y1="-126.5023" x2="576.7321" y2="-126.5023" gradientTransform="matrix(1 0 0 -1 0 412)">
		<stop  offset="0" style="stop-color:#FFFFFF"/>
		<stop  offset="1" style="stop-color:#F7F5FF"/>
	</linearGradient>
	
		<circle style="fill:url(#SVGID_00000090991489992294831260000008884773924481111193_);stroke:#353535;stroke-width:2;stroke-miterlimit:10;" cx="533.8" cy="538.5" r="42.9"/>
	<text transform="matrix(1 0 0 1 500.2302 534.3484)" class="st3 st4 st5">Options</text>
	<text transform="matrix(1 0 0 1 505.0302 553.7485)" class="st3 st4 st5">seller</text>
</g>
<g>
	<g>
		
			<linearGradient id="SVGID_00000099629264818554184440000012097309558678679741_" gradientUnits="userSpaceOnUse" x1="290.5806" y1="157.2484" x2="489.0836" y2="-41.2548" gradientTransform="matrix(1 0 0 -1 0 412)">
			<stop  offset="0" style="stop-color:#FFFFFF"/>
			<stop  offset="1" style="stop-color:#F7F5FF"/>
		</linearGradient>
		
			<path style="fill:url(#SVGID_00000099629264818554184440000012097309558678679741_);stroke:#353535;stroke-width:2;stroke-miterlimit:10;" d="
			M523,288.7v126.2l0,0c0,19-59.6,34.4-133.2,34.4s-133.2-15.4-133.2-34.4l0,0V288.7"/>
		
			<linearGradient id="SVGID_00000016038682641001187940000016215807180222829711_" gradientUnits="userSpaceOnUse" x1="256.6321" y1="124.3" x2="523.0321" y2="124.3" gradientTransform="matrix(1 0 0 -1 0 412)">
			<stop  offset="0" style="stop-color:#FFFFFF"/>
			<stop  offset="1" style="stop-color:#F7F5FF"/>
		</linearGradient>
		
			<ellipse style="fill:url(#SVGID_00000016038682641001187940000016215807180222829711_);stroke:#353535;stroke-width:2;stroke-miterlimit:10;" cx="389.8" cy="287.7" rx="133.2" ry="34.4"/>
		<text transform="matrix(1 0 0 1 316.2339 294.0873)" class="st3 st4 st10">PanopticPool</text>
		<g class="st11">
			<g>
				<path class="st3" d="M297.4,401.9c-0.1,0-0.2-0.1-0.3-0.1c-0.1-0.1-0.1-0.2,0-0.4c0-0.3,0.1-0.6,0.1-0.8c-0.5,0.5-1,0.8-1.7,1
					c-0.7,0.2-1.4,0.3-2.1,0.2c-1.3-0.2-2.4-0.7-3.1-1.8c-0.8-1-1.1-2.2-0.9-3.6c0.2-1.4,0.8-2.5,1.8-3.3c1-0.8,2.3-1.1,3.7-1
					c0.7,0.1,1.3,0.3,1.9,0.6c0.5,0.3,1,0.7,1.3,1.3c0.2-1.3,0.3-2.6,0.5-3.9c-0.2,0-0.4,0-0.5-0.1c-0.6-0.1-1-0.2-1.1-0.3
					c-0.2-0.1-0.2-0.3-0.2-0.6c0-0.2,0.1-0.4,0.3-0.5c0.2-0.1,0.4-0.1,0.6-0.1c0.7,0.1,1.4,0.2,2.1,0.2c0.2,0,0.3,0.1,0.4,0.2
					c0.1,0.1,0.1,0.2,0.1,0.3c-0.4,3.8-0.9,7.7-1.3,11.5c0.2,0,0.3,0,0.5,0.1c0.3,0,0.6,0.1,0.7,0.3c0.1,0.1,0.2,0.3,0.2,0.6
					c0,0.2-0.1,0.4-0.3,0.5c-0.1,0.1-0.3,0.2-0.6,0.1C298.7,402.1,298.1,402,297.4,401.9z M291.2,396.5c-0.1,0.9,0.1,1.7,0.6,2.4
					c0.5,0.7,1.3,1.1,2.2,1.2c1,0.1,1.8-0.1,2.5-0.7c0.7-0.5,1.1-1.3,1.2-2.3c0.1-0.9-0.1-1.8-0.6-2.4c-0.5-0.7-1.3-1.1-2.2-1.2
					c-1-0.1-1.8,0.1-2.5,0.6C291.7,394.7,291.3,395.5,291.2,396.5z"/>
				<path class="st3" d="M304,398.3c-0.1,1,0.2,1.8,0.8,2.4c0.6,0.6,1.4,1,2.5,1.1c0.8,0.1,1.7,0,2.7-0.4c1-0.3,1.6-0.5,1.8-0.5
					c0.2,0,0.4,0.1,0.5,0.2c0.1,0.1,0.2,0.3,0.2,0.5c0,0.2-0.1,0.4-0.3,0.5c-0.2,0.1-0.4,0.3-0.7,0.4c-0.7,0.3-1.5,0.4-2.2,0.5
					c-0.8,0.1-1.5,0.1-2.2,0c-1.6-0.2-2.8-0.7-3.7-1.7c-0.9-1-1.2-2.2-1-3.7c0.2-1.5,0.8-2.7,1.9-3.5c1.1-0.8,2.4-1.2,4-1
					c1.4,0.1,2.6,0.7,3.5,1.7c0.9,1,1.2,2.1,1.1,3.3c0,0.4-0.1,0.6-0.3,0.7c-0.2,0.1-0.6,0.1-1.3,0.1c-0.1,0-0.1,0-0.2,0
					C308.6,398.8,306.3,398.6,304,398.3z M304.2,397c2.2,0.2,4.5,0.5,6.7,0.7c0-0.8-0.3-1.5-0.8-2.1c-0.5-0.6-1.2-0.9-2.1-1
					c-0.9-0.1-1.7,0.1-2.4,0.5C305,395.6,304.5,396.2,304.2,397z"/>
				<path class="st3" d="M316.9,406.5c0.8,0.1,1.7,0.2,2.5,0.2c0.3,0,0.5,0.1,0.6,0.2c0.1,0.1,0.2,0.3,0.2,0.6
					c0,0.3-0.1,0.4-0.2,0.5c-0.1,0.1-0.4,0.1-0.7,0.1c-1.5-0.1-3.1-0.3-4.6-0.4c-0.3,0-0.5-0.1-0.6-0.2c-0.1-0.1-0.2-0.3-0.2-0.6
					c0-0.3,0.1-0.5,0.3-0.5c0.2-0.1,0.5-0.1,1-0.1c0.1,0,0.1,0,0.2,0c0.3-3.5,0.7-7.1,1-10.6c-0.1,0-0.1,0-0.2,0
					c-0.5,0-0.8-0.1-1-0.3c-0.2-0.1-0.2-0.3-0.2-0.6c0-0.2,0.1-0.4,0.3-0.5c0.2-0.1,0.4-0.1,0.6-0.1c0.5,0,1,0.1,1.6,0.1
					c0.2,0,0.4,0.1,0.4,0.1c0.1,0.1,0.1,0.2,0.1,0.3c0,0.3-0.1,0.7-0.1,1c0.5-0.4,1.1-0.7,1.6-0.9c0.6-0.2,1.2-0.3,1.9-0.2
					c1.4,0.1,2.5,0.7,3.3,1.7c0.9,1,1.2,2.2,1.1,3.6c-0.1,1.3-0.6,2.4-1.6,3.2c-1,0.8-2.1,1.1-3.5,1c-0.7-0.1-1.4-0.3-2-0.6
					c-0.6-0.3-1.1-0.7-1.5-1.2C317.2,403.8,317.1,405.2,316.9,406.5z M320.5,402.7c1,0.1,1.8-0.1,2.4-0.7c0.7-0.5,1-1.3,1.1-2.2
					c0.1-0.9-0.2-1.7-0.7-2.4c-0.6-0.7-1.3-1-2.3-1.1c-1-0.1-1.8,0.1-2.4,0.7c-0.7,0.5-1,1.3-1.1,2.2c-0.1,0.9,0.1,1.7,0.7,2.4
					C318.8,402.3,319.6,402.7,320.5,402.7z"/>
				<path class="st3" d="M338.5,400.8c-0.1,1.5-0.7,2.6-1.8,3.5c-1.1,0.9-2.4,1.2-4,1.1c-1.6-0.1-2.9-0.7-3.8-1.7
					c-0.9-1-1.4-2.2-1.2-3.7c0.1-1.5,0.7-2.6,1.8-3.5c1.1-0.8,2.4-1.2,4-1.1c1.6,0.1,2.9,0.7,3.8,1.7
					C338.1,398.2,338.6,399.4,338.5,400.8z M332.8,404c1.1,0.1,2-0.2,2.7-0.8c0.7-0.6,1.1-1.4,1.2-2.5c0.1-1-0.2-1.9-0.9-2.6
					c-0.6-0.7-1.5-1.1-2.5-1.2c-1.1-0.1-1.9,0.2-2.7,0.8c-0.7,0.6-1.1,1.4-1.2,2.5c-0.1,1,0.2,1.9,0.8,2.6
					C330.9,403.5,331.7,403.9,332.8,404z"/>
				<path class="st3" d="M341,405c0-0.6,0.1-1.2,0.1-1.8c0-0.3,0.1-0.5,0.2-0.6c0.1-0.1,0.3-0.2,0.6-0.2c0.3,0,0.5,0.2,0.6,0.6
					c0.1,0.2,0.2,0.4,0.3,0.5c0.3,0.4,0.7,0.7,1.2,1c0.6,0.3,1.2,0.4,1.9,0.4c0.7,0,1.3-0.1,1.8-0.3c0.5-0.3,0.7-0.6,0.7-1.1
					c0-0.5-0.1-0.8-0.5-1.1c-0.3-0.2-1-0.4-1.8-0.4c-0.2,0-0.4,0-0.6,0c-1.4-0.1-2.5-0.4-3.2-0.9c-0.7-0.5-1-1.3-1-2.2
					c0.1-0.9,0.5-1.6,1.2-2c0.7-0.5,1.8-0.6,3.1-0.6c0.5,0,1.1,0.1,1.6,0.3c0.5,0.2,0.8,0.3,0.9,0.3c0.1,0,0.2-0.1,0.4-0.2
					c0.2-0.1,0.4-0.2,0.6-0.2c0.2,0,0.4,0.1,0.5,0.3c0.1,0.2,0.1,0.4,0.1,0.8c0,0.4,0,0.8-0.1,1.2c0,0.4-0.1,0.6-0.2,0.8
					c-0.1,0.2-0.3,0.2-0.5,0.2c-0.2,0-0.5-0.2-0.7-0.6c-0.2-0.3-0.4-0.4-0.5-0.6c-0.3-0.4-0.7-0.6-1.1-0.8c-0.4-0.2-0.9-0.3-1.4-0.3
					c-0.6,0-1.2,0.1-1.6,0.3c-0.4,0.3-0.6,0.6-0.7,1c0,0.4,0.2,0.7,0.6,1c0.4,0.2,1.3,0.4,2.6,0.5c1.4,0.1,2.5,0.4,3.1,0.9
					c0.6,0.5,0.9,1.2,0.9,2.2c0,0.9-0.5,1.6-1.2,2.2c-0.8,0.5-1.8,0.7-3,0.7c-0.4,0-0.8-0.1-1.3-0.2c-0.5-0.1-1.1-0.3-1.8-0.5
					c-0.3,0.1-0.5,0.2-0.6,0.3c-0.2,0.1-0.3,0.1-0.4,0.1c-0.2,0-0.4-0.1-0.5-0.3C341,405.6,341,405.3,341,405z"/>
				<path class="st3" d="M359.4,405.2c1.1,0,2.2,0.1,3.3,0.1c0.3,0,0.5,0.1,0.6,0.2c0.1,0.1,0.2,0.3,0.2,0.5c0,0.3-0.1,0.5-0.2,0.6
					c-0.1,0.1-0.4,0.1-0.7,0.1c-2.7-0.1-5.4-0.2-8.1-0.3c-0.3,0-0.5-0.1-0.6-0.2c-0.1-0.1-0.2-0.3-0.2-0.6c0-0.2,0.1-0.4,0.2-0.5
					s0.4-0.2,0.7-0.1c1.1,0,2.1,0.1,3.2,0.1c0.1-2.2,0.2-4.4,0.3-6.6c-0.7,0-1.3-0.1-2-0.1c-0.3,0-0.5-0.1-0.6-0.2
					c-0.1-0.1-0.2-0.3-0.2-0.6c0-0.2,0.1-0.4,0.2-0.5c0.1-0.1,0.4-0.2,0.6-0.2c1,0,2,0.1,3,0.1c0.2,0,0.3,0.1,0.4,0.1
					c0.1,0.1,0.2,0.2,0.1,0.3C359.6,400.1,359.5,402.7,359.4,405.2z M357.9,394.1c0-0.7,0.1-1.2,0.3-1.4c0.1-0.2,0.4-0.3,0.9-0.3
					c0.4,0,0.7,0.1,0.8,0.3c0.1,0.2,0.2,0.5,0.2,1.2c0,0.6-0.1,0.9-0.2,1.1c-0.1,0.1-0.4,0.2-0.9,0.2c-0.4,0-0.7-0.1-0.9-0.2
					C357.9,394.8,357.9,394.6,357.9,394.1z"/>
				<path class="st3" d="M374.2,398.2c0.3,0,0.6,0.1,0.7,0.2c0.2,0.1,0.2,0.3,0.2,0.6c0,0.2-0.1,0.4-0.2,0.5
					c-0.1,0.1-0.4,0.2-0.7,0.2c-1.4,0-2.8-0.1-4.2-0.1c0,1.1-0.1,2.3-0.1,3.4c0,1.1,0.1,1.9,0.4,2.2c0.3,0.4,0.8,0.6,1.5,0.6
					c0.6,0,1.4-0.2,2.3-0.5c0.9-0.3,1.4-0.5,1.6-0.5c0.2,0,0.4,0.1,0.5,0.2c0.1,0.1,0.2,0.3,0.2,0.5c0,0.2-0.1,0.4-0.3,0.6
					c-0.2,0.2-0.5,0.3-0.9,0.5c-0.7,0.3-1.3,0.4-1.9,0.5c-0.6,0.1-1.1,0.2-1.5,0.2c-0.8,0-1.5-0.2-2-0.4c-0.5-0.3-1-0.7-1.2-1.2
					c-0.1-0.2-0.2-0.5-0.3-0.9s-0.1-0.8,0-1.5c0-0.1,0-0.2,0-0.3c0-1.1,0.1-2.3,0.1-3.4c-0.6,0-1.2,0-1.8,0c-0.3,0-0.5-0.1-0.6-0.2
					c-0.1-0.1-0.2-0.3-0.2-0.6c0-0.3,0.1-0.5,0.3-0.6c0.2-0.1,0.6-0.1,1.2-0.1c0.4,0,0.8,0,1.2,0c0-0.7,0-1.4,0.1-2.1
					c0-0.2,0-0.4,0-0.5c0-0.3,0.1-0.5,0.2-0.6c0.1-0.1,0.3-0.2,0.6-0.2c0.3,0,0.5,0.1,0.6,0.3c0.1,0.2,0.2,0.6,0.1,1.2
					c0,0.7,0,1.4-0.1,2.1C371.5,398.1,372.9,398.1,374.2,398.2z"/>
				<path class="st3" d="M380.6,402.9c0,1,0.4,1.8,1,2.3c0.6,0.5,1.5,0.8,2.5,0.8c0.8,0,1.7-0.2,2.7-0.6c1-0.4,1.5-0.6,1.7-0.6
					c0.2,0,0.4,0.1,0.5,0.2c0.1,0.1,0.2,0.3,0.2,0.5c0,0.2-0.1,0.4-0.2,0.5c-0.1,0.2-0.4,0.3-0.7,0.5c-0.7,0.3-1.4,0.6-2.2,0.8
					c-0.7,0.2-1.5,0.3-2.2,0.3c-1.6,0-2.9-0.5-3.8-1.4c-0.9-0.9-1.4-2.1-1.4-3.6c0-1.5,0.5-2.7,1.6-3.6c1-0.9,2.3-1.4,3.9-1.4
					c1.5,0,2.7,0.5,3.6,1.3c1,0.9,1.4,1.9,1.4,3.2c0,0.4-0.1,0.6-0.2,0.8c-0.2,0.1-0.6,0.2-1.3,0.2c-0.1,0-0.1,0-0.2,0
					C385.2,402.9,382.9,402.9,380.6,402.9z M380.6,401.5c2.3,0,4.5,0,6.8,0.1c-0.1-0.8-0.4-1.5-1-2c-0.6-0.5-1.3-0.7-2.1-0.8
					c-0.9,0-1.7,0.2-2.3,0.7C381.3,400,380.9,400.7,380.6,401.5z"/>
				<path class="st3" d="M400.1,407.2c-0.1,0-0.2,0-0.3-0.1c-0.1-0.1-0.1-0.2-0.1-0.4c0-0.3,0-0.6,0-0.8c-0.4,0.5-0.9,0.9-1.6,1.2
					c-0.6,0.3-1.3,0.4-2,0.4c-1.3,0-2.4-0.4-3.3-1.4c-0.9-0.9-1.3-2.1-1.3-3.4c0-1.4,0.5-2.6,1.4-3.5c0.9-0.9,2.1-1.4,3.5-1.4
					c0.7,0,1.3,0.1,1.9,0.4c0.6,0.2,1.1,0.6,1.5,1.1c0-1.3,0-2.6,0-3.9c-0.2,0-0.4,0-0.5,0c-0.6,0-1,0-1.2-0.1
					c-0.2-0.1-0.3-0.3-0.3-0.6c0-0.2,0.1-0.4,0.2-0.6c0.1-0.1,0.3-0.2,0.6-0.2c0.7,0,1.4,0,2.1,0c0.2,0,0.4,0,0.4,0.1
					c0.1,0.1,0.1,0.2,0.1,0.3c0.1,3.9,0.1,7.7,0.2,11.6c0.2,0,0.3,0,0.5,0c0.3,0,0.6,0,0.7,0.2c0.2,0.1,0.2,0.3,0.2,0.5
					c0,0.2-0.1,0.4-0.2,0.5c-0.1,0.1-0.3,0.2-0.5,0.2C401.4,407.1,400.7,407.2,400.1,407.2z M393.2,402.6c0,0.9,0.3,1.7,0.9,2.3
					c0.6,0.6,1.4,0.9,2.4,0.9c1,0,1.7-0.3,2.4-1c0.6-0.6,0.9-1.4,0.9-2.4c0-0.9-0.3-1.7-0.9-2.3c-0.6-0.6-1.4-0.9-2.4-0.9
					c-1,0-1.8,0.3-2.4,0.9C393.5,400.8,393.2,401.6,393.2,402.6z"/>
				<path class="st3" d="M425.1,397.6c0.3,0,0.6,0,0.7,0.1c0.2,0.1,0.2,0.3,0.3,0.5c0,0.2-0.1,0.4-0.2,0.5c-0.1,0.1-0.4,0.2-0.6,0.2
					c-1.4,0.1-2.8,0.1-4.2,0.2c0,1.1,0.1,2.3,0.1,3.4c0,1.1,0.2,1.9,0.5,2.2c0.3,0.3,0.8,0.5,1.5,0.5c0.6,0,1.4-0.2,2.3-0.6
					c0.9-0.4,1.4-0.6,1.6-0.6c0.2,0,0.4,0.1,0.5,0.2c0.1,0.1,0.2,0.3,0.2,0.5c0,0.2-0.1,0.4-0.2,0.6c-0.2,0.2-0.4,0.4-0.8,0.5
					c-0.7,0.3-1.3,0.5-1.8,0.7c-0.5,0.1-1.1,0.2-1.5,0.2c-0.8,0-1.5-0.1-2.1-0.3c-0.6-0.2-1-0.6-1.3-1.1c-0.1-0.2-0.3-0.5-0.3-0.8
					c-0.1-0.3-0.1-0.8-0.1-1.5c0-0.1,0-0.2,0-0.3c0-1.1-0.1-2.3-0.1-3.4c-0.6,0-1.2,0-1.8,0.1c-0.3,0-0.5,0-0.6-0.1
					c-0.1-0.1-0.2-0.3-0.2-0.5c0-0.3,0.1-0.5,0.2-0.6c0.2-0.1,0.6-0.2,1.1-0.2c0.4,0,0.8,0,1.2,0c0-0.7-0.1-1.4-0.1-2.1
					c0-0.2,0-0.4,0-0.5c0-0.3,0-0.5,0.2-0.7c0.1-0.1,0.3-0.2,0.6-0.2c0.3,0,0.5,0.1,0.6,0.2c0.1,0.2,0.2,0.6,0.2,1.2
					c0,0.7,0.1,1.4,0.1,2.1C422.4,397.7,423.7,397.6,425.1,397.6z"/>
				<path class="st3" d="M440.6,400.9c0.1,1.5-0.3,2.7-1.3,3.7c-1,1-2.3,1.5-3.9,1.6c-1.6,0.1-3-0.3-4-1.2c-1.1-0.9-1.6-2-1.7-3.5
					c-0.1-1.5,0.4-2.7,1.3-3.7c1-1,2.2-1.5,3.8-1.6c1.6-0.1,2.9,0.3,4,1.2C440,398.3,440.5,399.4,440.6,400.9z M435.4,404.8
					c1.1-0.1,1.9-0.4,2.6-1.1c0.6-0.7,0.9-1.6,0.9-2.6c-0.1-1-0.5-1.9-1.2-2.5c-0.7-0.6-1.6-0.9-2.7-0.9c-1.1,0.1-1.9,0.4-2.5,1.1
					c-0.6,0.7-0.9,1.6-0.9,2.6c0.1,1,0.4,1.9,1.2,2.5C433.4,404.5,434.3,404.8,435.4,404.8z"/>
				<path class="st3" d="M446.1,401.3c0.1,1,0.1,2,0.2,3c0,0.3,0,0.5-0.1,0.7c-0.1,0.2-0.2,0.3-0.4,0.3c-0.6,0-1.3,0.1-1.9,0.1
					c-0.3,0-0.5,0-0.6-0.1c-0.1-0.1-0.2-0.3-0.2-0.5c0-0.3,0.1-0.5,0.2-0.6c0.2-0.1,0.5-0.2,1-0.2c0.2,0,0.3,0,0.5,0
					c-0.2-3.5-0.5-7-0.7-10.5c-0.1,0-0.3,0-0.4,0c-0.6,0-1,0-1.2-0.1c-0.2-0.1-0.3-0.3-0.3-0.6c0-0.2,0-0.4,0.2-0.6
					c0.1-0.1,0.3-0.2,0.6-0.2c0.7,0,1.3-0.1,2-0.1c0.2,0,0.3,0,0.4,0.1c0.1,0.1,0.2,0.2,0.2,0.3c0.2,2.4,0.3,4.9,0.5,7.3
					c0.9-0.9,1.9-1.8,2.8-2.7c-0.2-0.1-0.4-0.2-0.5-0.3c-0.1-0.1-0.2-0.2-0.2-0.4c0-0.2,0-0.4,0.2-0.5c0.1-0.1,0.4-0.2,0.6-0.2
					c0.9-0.1,1.9-0.1,2.8-0.2c0.3,0,0.5,0,0.6,0.1c0.1,0.1,0.2,0.3,0.2,0.5c0,0.4-0.3,0.7-0.9,0.8c-0.1,0-0.2,0-0.3,0.1
					c-0.3,0.1-0.6,0.2-0.9,0.4c-0.3,0.2-0.6,0.5-1,0.8c-0.5,0.5-0.9,0.9-1.4,1.4c1.4,1.3,2.8,2.6,4.3,3.9c0.3,0,0.6,0,0.9-0.1
					c0.3,0,0.5,0,0.7,0.1c0.1,0.1,0.2,0.3,0.2,0.5c0,0.2,0,0.4-0.2,0.6c-0.1,0.1-0.3,0.2-0.6,0.2c-0.9,0.1-1.9,0.1-2.8,0.2
					c-0.3,0-0.5,0-0.7-0.1c-0.1-0.1-0.2-0.2-0.2-0.5c0-0.2,0-0.3,0.2-0.5c0.1-0.1,0.3-0.3,0.6-0.4c-1.1-1-2.2-2.1-3.3-3.1
					C446.7,400.7,446.4,401,446.1,401.3z"/>
				<path class="st3" d="M457.2,400.1c0.1,1,0.5,1.7,1.2,2.2c0.7,0.5,1.5,0.7,2.6,0.6c0.8-0.1,1.7-0.4,2.6-0.9
					c0.9-0.5,1.5-0.8,1.7-0.8c0.2,0,0.4,0,0.5,0.1c0.2,0.1,0.2,0.3,0.3,0.5c0,0.2,0,0.4-0.2,0.6c-0.1,0.2-0.3,0.4-0.7,0.5
					c-0.7,0.4-1.4,0.7-2.1,1c-0.7,0.2-1.5,0.4-2.2,0.5c-1.6,0.1-2.9-0.2-3.9-1c-1-0.8-1.6-2-1.7-3.4c-0.1-1.5,0.3-2.8,1.2-3.8
					c0.9-1,2.2-1.6,3.8-1.7c1.4-0.1,2.7,0.2,3.7,1c1,0.8,1.6,1.8,1.7,3c0,0.4,0,0.6-0.2,0.8c-0.1,0.1-0.6,0.3-1.3,0.3
					c-0.1,0-0.1,0-0.2,0C461.9,399.7,459.5,399.9,457.2,400.1z M457.2,398.8c2.2-0.2,4.5-0.4,6.7-0.6c-0.2-0.8-0.6-1.4-1.2-1.9
					c-0.6-0.4-1.4-0.6-2.2-0.5c-0.9,0.1-1.7,0.4-2.3,0.9C457.6,397.2,457.3,397.9,457.2,398.8z"/>
				<path class="st3" d="M469.9,401.8c-0.2-2.2-0.4-4.4-0.7-6.5c-0.1,0-0.1,0-0.2,0c-0.5,0-0.8,0-1-0.1c-0.2-0.1-0.3-0.3-0.3-0.5
					c0-0.3,0-0.4,0.2-0.6c0.1-0.1,0.4-0.2,0.7-0.2c0.2,0,0.3,0,0.5,0c0.3,0,0.7-0.1,1-0.1c0.2,0,0.3,0,0.4,0.1
					c0.1,0.1,0.2,0.2,0.2,0.3c0,0.2,0,0.5,0.1,0.7c0.5-0.5,0.9-0.9,1.4-1.2c0.5-0.3,1-0.4,1.5-0.5c1-0.1,1.9,0.1,2.5,0.7
					c0.7,0.6,1.1,1.4,1.2,2.6c0.2,1.5,0.3,3.1,0.5,4.6c0.2,0,0.3,0,0.5-0.1c0.3,0,0.6,0,0.8,0.1c0.2,0.1,0.3,0.3,0.3,0.5
					c0,0.3,0,0.5-0.2,0.6c-0.2,0.1-0.4,0.2-0.9,0.3c-0.8,0.1-1.5,0.2-2.3,0.3c-0.4,0-0.7,0-0.9-0.1c-0.1-0.1-0.2-0.3-0.2-0.6
					c0-0.3,0-0.5,0.2-0.6c0.1-0.1,0.4-0.2,0.8-0.2c0.1,0,0.2,0,0.4,0c-0.2-1.4-0.3-2.8-0.5-4.2c-0.1-0.8-0.3-1.4-0.7-1.8
					c-0.4-0.4-1-0.5-1.7-0.5c-0.7,0.1-1.3,0.4-1.8,0.9c-0.5,0.5-0.7,1.1-0.6,1.8c0.1,1.4,0.3,2.8,0.4,4.2c0.1,0,0.2,0,0.4,0
					c0.4,0,0.7,0,0.9,0.1c0.2,0.1,0.2,0.3,0.3,0.5c0,0.3,0,0.5-0.1,0.6c-0.1,0.1-0.4,0.2-0.9,0.2c-0.6,0.1-1.3,0.1-1.9,0.2
					c-0.2,0-0.4,0-0.6,0.1c-0.3,0-0.5,0-0.7-0.1c-0.2-0.1-0.2-0.3-0.3-0.5c0-0.3,0-0.5,0.2-0.6c0.2-0.1,0.5-0.2,0.9-0.2
					C469.7,401.8,469.8,401.8,469.9,401.8z"/>
				<path class="st3" d="M482.1,401.2c-0.1-0.6-0.1-1.2-0.2-1.8c0-0.3,0-0.5,0.1-0.7c0.1-0.1,0.3-0.2,0.5-0.3c0.3,0,0.5,0.1,0.7,0.5
					c0.1,0.2,0.3,0.4,0.4,0.5c0.3,0.3,0.8,0.6,1.4,0.7c0.6,0.2,1.2,0.2,1.9,0.1c0.7-0.1,1.3-0.3,1.7-0.7c0.4-0.3,0.6-0.8,0.5-1.2
					c-0.1-0.5-0.3-0.8-0.7-1c-0.4-0.2-1-0.2-1.9-0.1c-0.2,0-0.4,0-0.6,0.1c-1.4,0.2-2.5,0.1-3.3-0.3c-0.8-0.4-1.2-1.1-1.3-2
					c-0.1-0.9,0.2-1.6,0.8-2.2c0.7-0.6,1.6-0.9,2.9-1.1c0.5-0.1,1.1-0.1,1.6,0c0.6,0.1,0.9,0.1,0.9,0.1c0.1,0,0.2-0.1,0.4-0.3
					c0.2-0.2,0.4-0.3,0.6-0.3c0.2,0,0.4,0,0.6,0.2c0.1,0.2,0.2,0.4,0.3,0.7c0,0.4,0.1,0.8,0.1,1.2c0,0.4,0,0.6-0.1,0.8
					c-0.1,0.2-0.3,0.3-0.5,0.3c-0.2,0-0.5-0.1-0.8-0.4c-0.2-0.2-0.4-0.4-0.6-0.5c-0.4-0.3-0.8-0.5-1.3-0.6c-0.4-0.1-0.9-0.1-1.5,0
					c-0.6,0.1-1.1,0.3-1.5,0.6c-0.4,0.3-0.5,0.7-0.5,1.1c0,0.4,0.3,0.7,0.7,0.8c0.4,0.1,1.3,0.1,2.7,0c1.4-0.1,2.5,0,3.2,0.4
					c0.7,0.4,1.1,1,1.3,2c0.1,0.9-0.2,1.7-0.8,2.3c-0.7,0.6-1.6,1-2.9,1.2c-0.4,0-0.8,0.1-1.3,0.1c-0.5,0-1.1-0.1-1.9-0.1
					c-0.2,0.2-0.4,0.3-0.6,0.4c-0.2,0.1-0.3,0.2-0.4,0.2c-0.2,0-0.4,0-0.6-0.2C482.2,401.8,482.1,401.5,482.1,401.2z"/>
			</g>
		</g>
	</g>
	<g>
		<circle class="st12" cx="274.2" cy="263.8" r="19"/>
		<g>
			<circle class="st13" cx="274.2" cy="263.5" r="11.2"/>
			<g>
				<path class="st14" d="M285.5,252.8c2.7,2.8,4.3,6.6,4.3,10.7c0,4.2-1.6,8-4.3,10.8"/>
				<path class="st14" d="M262.8,274.2c-2.6-2.8-4.2-6.5-4.2-10.6s1.6-7.9,4.2-10.7"/>
			</g>
		</g>
	</g>
</g>
<g>
	<g>
		
			<linearGradient id="SVGID_00000154394021811300364120000018165663000406583225_" gradientUnits="userSpaceOnUse" x1="940.5321" y1="43" x2="1206.9321" y2="43" gradientTransform="matrix(1 0 0 -1 0 412)">
			<stop  offset="0" style="stop-color:#FFFFFF"/>
			<stop  offset="1" style="stop-color:#FFE6F3"/>
		</linearGradient>
		
			<path style="fill:url(#SVGID_00000154394021811300364120000018165663000406583225_);stroke:#353535;stroke-width:2;stroke-miterlimit:10;" d="
			M1206.9,288.7v126.2l0,0c0,19-59.6,34.4-133.2,34.4c-73.6,0-133.2-15.4-133.2-34.4l0,0V288.7"/>
		
			<linearGradient id="SVGID_00000099649727813688245920000003624851770156804023_" gradientUnits="userSpaceOnUse" x1="940.1321" y1="250.4" x2="1206.5321" y2="250.4" gradientTransform="matrix(1 0 0 -1 0 602)">
			<stop  offset="0" style="stop-color:#FFFFFF"/>
			<stop  offset="1" style="stop-color:#F7F5FF"/>
		</linearGradient>
		
			<path style="fill:url(#SVGID_00000099649727813688245920000003624851770156804023_);stroke:#353535;stroke-width:2;stroke-miterlimit:10;" d="
			M1206.5,290.8V378l0,0c0,19-59.6,34.4-133.2,34.4c-73.6,0-133.2-15.4-133.2-34.4l0,0v-87.2"/>
		<g class="st11">
			<g>
				<path class="st3" d="M993.8,430.5c0.2,0,0.4,0,0.5,0.1c0.3,0,0.5,0.1,0.8,0.1c0.4,0,0.6,0.1,0.8,0.3c0.1,0.1,0.2,0.3,0.2,0.6
					c0,0.3-0.1,0.5-0.3,0.5c-0.2,0.1-0.5,0.1-1,0c-0.9-0.1-1.7-0.2-2.6-0.3c-0.2,0-0.3,0-0.5-0.1c-0.3,0-0.4-0.1-0.5-0.3
					c-0.1-0.1-0.1-0.3-0.1-0.6c0-0.3,0.1-0.4,0.3-0.5c0.2-0.1,0.4-0.1,0.8,0c0.1,0,0.1,0,0.2,0c0.4-3.1,0.8-6.1,1.1-9.2
					c-0.1,0-0.2,0-0.3,0c-0.6-0.1-1-0.2-1.1-0.3c-0.2-0.1-0.3-0.3-0.2-0.6c0-0.3,0.1-0.4,0.3-0.5c0.2-0.1,0.5-0.1,0.9-0.1
					c0.3,0,0.5,0,0.6,0.1c0.3,0,0.6,0.1,1,0.1c0.3,0,0.5,0.1,0.6,0.2c0.1,0.1,0.2,0.3,0.4,0.6c1.4,3.2,2.8,6.3,4.2,9.5
					c0.3-2.7,0.6-5.4,0.9-8c-0.1,0-0.3,0-0.4,0c-0.2,0-0.5-0.1-0.7-0.1c-0.4,0-0.6-0.1-0.8-0.3c-0.2-0.1-0.2-0.3-0.2-0.6
					c0-0.3,0.1-0.5,0.3-0.6c0.2-0.1,0.5-0.1,0.9-0.1c0.8,0.1,1.6,0.2,2.5,0.3c0.2,0,0.3,0,0.5,0.1c0.2,0,0.4,0.1,0.5,0.2
					c0.1,0.1,0.1,0.3,0.1,0.6c0,0.3-0.1,0.5-0.3,0.5c-0.2,0.1-0.4,0.1-0.8,0.1c0,0-0.1,0-0.1,0c-0.4,3.4-0.8,6.8-1.1,10.3
					c0,0.2-0.1,0.3-0.2,0.4c-0.1,0.1-0.3,0.1-0.7,0c-0.3,0-0.5-0.1-0.6-0.1c-0.1,0-0.2-0.2-0.3-0.6c-1.5-3.3-3-6.7-4.4-10
					C994.5,425,994.1,427.8,993.8,430.5z"/>
				<path class="st3" d="M1009.3,432.2c0.1,0,0.3,0,0.4,0c0.3,0,0.5,0.1,0.6,0.2c0.1,0.1,0.2,0.3,0.1,0.6c0,0.2-0.1,0.4-0.2,0.5
					c-0.1,0.1-0.3,0.2-0.6,0.1c-1.7-0.2-3.4-0.3-5.1-0.5c-0.2,0-0.4-0.1-0.5-0.2c-0.1-0.1-0.2-0.3-0.1-0.6c0-0.3,0.1-0.4,0.3-0.5
					c0.1-0.1,0.4-0.1,0.7-0.1c0.1,0,0.2,0,0.3,0c0.2,0,0.4,0,0.7,0.1c0.3-3.1,0.6-6.1,1-9.2c-0.2,0-0.4,0-0.6-0.1
					c-0.5-0.1-0.8-0.1-1-0.3c-0.1-0.1-0.2-0.3-0.2-0.6c0-0.2,0.1-0.4,0.2-0.5c0.1-0.1,0.3-0.2,0.6-0.1c3,0.3,6.1,0.6,9.1,0.9
					c0.2,0,0.4,0.1,0.5,0.3c0.1,0.2,0.1,0.4,0.1,0.6c-0.1,0.9-0.2,1.8-0.2,2.6c0,0.2-0.1,0.4-0.2,0.5c-0.1,0.1-0.3,0.2-0.5,0.1
					c-0.3,0-0.5-0.1-0.6-0.3c-0.1-0.2-0.1-0.5-0.1-1c0-0.5,0.1-1,0.1-1.5c-1.9-0.2-3.7-0.4-5.6-0.5c-0.1,1.1-0.2,2.3-0.4,3.4
					c0.9,0.1,1.8,0.2,2.7,0.3c0-0.1,0-0.2,0-0.3c0-0.5,0.1-0.8,0.2-1c0.1-0.2,0.3-0.2,0.5-0.2c0.2,0,0.4,0.1,0.5,0.2
					c0.1,0.1,0.1,0.4,0.1,0.6c-0.1,0.9-0.2,1.7-0.2,2.6c0,0.3-0.1,0.6-0.2,0.7c-0.1,0.1-0.3,0.2-0.5,0.1c-0.2,0-0.4-0.1-0.5-0.3
					c-0.1-0.2-0.1-0.5,0-1c0-0.1,0-0.2,0-0.3c-0.9-0.1-1.8-0.2-2.7-0.3c-0.2,1.5-0.3,3-0.5,4.5
					C1008.1,432.1,1008.7,432.2,1009.3,432.2z"/>
				<path class="st3" d="M1022.7,433.4c0.3,0,0.6,0.1,0.7,0.2c0.1,0.1,0.2,0.3,0.2,0.6c0,0.3-0.1,0.5-0.3,0.6
					c-0.2,0.1-0.4,0.1-0.8,0.1c-1.7-0.1-3.4-0.3-5.1-0.4c-0.2,0-0.4-0.1-0.5-0.2c-0.1-0.1-0.2-0.3-0.1-0.6c0-0.2,0.1-0.4,0.2-0.5
					c0.1-0.1,0.3-0.1,0.6-0.1c0.4,0,0.9,0.1,1.3,0.1c0.3-3.1,0.5-6.1,0.8-9.2c-0.2,0-0.5,0-0.7-0.1c-0.6-0.1-1-0.1-1.1-0.3
					c-0.1-0.1-0.2-0.3-0.2-0.6c0-0.2,0.1-0.4,0.2-0.5c0.1-0.1,0.3-0.2,0.6-0.1c1.6,0.1,3.2,0.3,4.8,0.4c1.7,0.1,2.9,0.6,3.7,1.3
					c0.8,0.7,1.2,1.7,1.1,2.9c-0.1,1.2-0.6,2.2-1.5,2.7c-0.9,0.6-2.2,0.8-3.9,0.7c-0.6,0-1.2-0.1-1.8-0.1c-0.1,1-0.2,2.1-0.3,3.1
					C1021.2,433.3,1021.9,433.4,1022.7,433.4z M1021.3,424.1c-0.1,1.6-0.3,3.2-0.4,4.7c0.6,0.1,1.3,0.1,1.9,0.2
					c1.1,0.1,1.9,0,2.5-0.4c0.6-0.4,0.9-0.9,0.9-1.7c0.1-0.8-0.2-1.4-0.7-1.8c-0.5-0.4-1.3-0.7-2.4-0.8
					C1022.5,424.2,1021.9,424.1,1021.3,424.1z"/>
				<path class="st3" d="M1035.3,430.7c0.9-2.1,1.8-4.2,2.6-6.3c0.1-0.2,0.3-0.4,0.4-0.5c0.2-0.1,0.4-0.1,0.7-0.1
					c0.6,0,1.1,0.1,1.7,0.1c0.2,0,0.4,0.1,0.5,0.2c0.1,0.1,0.2,0.3,0.1,0.5c0,0.3-0.1,0.4-0.2,0.5c-0.1,0.1-0.4,0.1-0.8,0.1
					c-0.1,0-0.1,0-0.2,0c-0.1,3.1-0.2,6.2-0.2,9.3c0.1,0,0.2,0,0.2,0c0.5,0,0.8,0.1,0.9,0.2c0.1,0.1,0.2,0.3,0.2,0.6
					c0,0.2-0.1,0.4-0.2,0.5c-0.1,0.1-0.3,0.2-0.6,0.2c-1-0.1-2-0.1-2.9-0.2c-0.4,0-0.7-0.1-0.8-0.2c-0.1-0.1-0.2-0.3-0.2-0.6
					c0-0.3,0.1-0.4,0.3-0.5c0.2-0.1,0.5-0.1,1-0.1c0.1,0,0.3,0,0.4,0c0.1-2.9,0.2-5.9,0.3-8.8c-0.8,1.9-1.6,3.8-2.4,5.8
					c-0.1,0.3-0.3,0.5-0.4,0.6c-0.2,0.1-0.4,0.1-0.7,0.1c-0.3,0-0.5-0.1-0.7-0.2c-0.1-0.1-0.3-0.3-0.3-0.6c-0.6-2-1.1-4-1.7-6
					c-0.3,2.9-0.5,5.9-0.8,8.8c0.2,0,0.5,0,0.7,0c0.4,0,0.7,0.1,0.9,0.2c0.2,0.1,0.2,0.3,0.2,0.6c0,0.3-0.1,0.5-0.3,0.6
					c-0.2,0.1-0.4,0.1-0.8,0.1c-1-0.1-2-0.1-2.9-0.2c-0.2,0-0.4-0.1-0.5-0.2c-0.1-0.1-0.2-0.3-0.1-0.6c0-0.3,0.1-0.5,0.3-0.5
					c0.2-0.1,0.5-0.1,0.9-0.1c0.1,0,0.2,0,0.2,0c0.3-3.1,0.6-6.2,1-9.3c-0.1,0-0.1,0-0.2,0c-0.4,0-0.6-0.1-0.8-0.2
					c-0.1-0.1-0.2-0.3-0.2-0.6c0-0.2,0.1-0.4,0.2-0.5c0.1-0.1,0.3-0.2,0.5-0.1c0.6,0,1.1,0.1,1.7,0.1c0.3,0,0.6,0.1,0.7,0.2
					c0.2,0.1,0.3,0.3,0.3,0.6C1034.1,426.4,1034.7,428.6,1035.3,430.7z"/>
				<path class="st3" d="M1060.4,425c-0.6,0-1.2,0-1.8-0.1c-0.7,0-1.1-0.1-1.2-0.2c-0.2-0.1-0.2-0.3-0.2-0.6c0-0.2,0.1-0.4,0.2-0.5
					c0.1-0.1,0.3-0.2,0.6-0.2c1.1,0,2.3,0.1,3.4,0.1c0.2,0,0.3,0,0.4,0.1c0.1,0.1,0.2,0.2,0.1,0.3c-0.1,3.9-0.2,7.7-0.3,11.6
					c1.1,0,2.2,0.1,3.3,0.1c0.3,0,0.5,0.1,0.6,0.2c0.1,0.1,0.2,0.3,0.2,0.5c0,0.3-0.1,0.5-0.2,0.6c-0.1,0.1-0.3,0.2-0.7,0.1
					c-2.6-0.1-5.2-0.1-7.7-0.2c-0.3,0-0.5-0.1-0.6-0.2c-0.1-0.1-0.2-0.3-0.2-0.6c0-0.2,0.1-0.4,0.2-0.5c0.2-0.1,0.4-0.2,0.7-0.2
					c1,0,1.9,0.1,2.9,0.1C1060.2,432,1060.3,428.5,1060.4,425z"/>
				<path class="st3" d="M1074.6,435.7c1.1,0,2.2,0,3.4,0c0.3,0,0.5,0.1,0.6,0.2c0.1,0.1,0.2,0.3,0.2,0.5c0,0.3-0.1,0.5-0.2,0.6
					c-0.1,0.1-0.3,0.2-0.7,0.2c-2.7,0-5.4,0-8.1-0.1c-0.3,0-0.5-0.1-0.6-0.2c-0.1-0.1-0.2-0.3-0.2-0.6c0-0.2,0.1-0.4,0.2-0.5
					c0.1-0.1,0.4-0.2,0.7-0.2c1.1,0,2.1,0,3.2,0c0-2.2,0-4.4,0.1-6.6c-0.7,0-1.4,0-2,0c-0.3,0-0.5-0.1-0.6-0.2
					c-0.1-0.1-0.2-0.3-0.2-0.5c0-0.2,0.1-0.4,0.2-0.5c0.1-0.1,0.3-0.2,0.6-0.2c1,0,2,0,3,0c0.2,0,0.3,0,0.4,0.1
					c0.1,0.1,0.2,0.2,0.2,0.3C1074.6,430.7,1074.6,433.2,1074.6,435.7z M1072.8,424.7c0-0.7,0.1-1.2,0.2-1.4
					c0.1-0.2,0.4-0.3,0.9-0.3c0.4,0,0.7,0.1,0.8,0.2c0.1,0.2,0.2,0.5,0.2,1.1c0,0.6-0.1,1-0.2,1.1c-0.1,0.1-0.4,0.2-0.9,0.2
					c-0.4,0-0.7-0.1-0.9-0.2C1072.8,425.4,1072.8,425.1,1072.8,424.7z"/>
				<path class="st3" d="M1089.3,439.8c0-1.4,0-2.7-0.1-4.1c-0.4,0.5-0.9,0.9-1.6,1.1c-0.6,0.3-1.3,0.4-2.1,0.4
					c-1.4,0-2.5-0.4-3.4-1.3c-0.9-0.9-1.3-2-1.3-3.3c0-1.4,0.5-2.6,1.4-3.5c0.9-0.9,2.1-1.4,3.5-1.4c0.6,0,1.3,0.1,1.8,0.3
					c0.6,0.2,1.1,0.6,1.6,1.1c0-0.3,0-0.7,0-1c0-0.1,0-0.2,0.1-0.3c0.1-0.1,0.2-0.1,0.4-0.1c0.5,0,1,0,1.6,0c0.3,0,0.5,0.1,0.6,0.2
					c0.1,0.1,0.2,0.3,0.2,0.5c0,0.3-0.1,0.5-0.2,0.6c-0.2,0.1-0.5,0.2-0.9,0.2c-0.1,0-0.1,0-0.2,0c0.1,3.5,0.1,7.1,0.2,10.6
					c0.1,0,0.1,0,0.2,0c0.5,0,0.8,0,1,0.1c0.2,0.1,0.3,0.3,0.3,0.6c0,0.2-0.1,0.4-0.2,0.5c-0.1,0.1-0.3,0.2-0.6,0.2
					c-1.6,0-3.1,0-4.7,0.1c-0.3,0-0.6-0.1-0.7-0.2c-0.1-0.1-0.2-0.3-0.2-0.6c0-0.2,0.1-0.4,0.2-0.6c0.1-0.1,0.3-0.2,0.6-0.2
					C1087.6,439.8,1088.5,439.8,1089.3,439.8z M1082.7,432.5c0,0.9,0.3,1.7,0.9,2.3c0.6,0.6,1.4,0.9,2.4,0.9c1,0,1.8-0.3,2.4-0.9
					c0.6-0.6,0.9-1.4,0.9-2.3c0-0.9-0.3-1.7-0.9-2.3c-0.6-0.6-1.4-0.9-2.4-0.9c-1,0-1.8,0.3-2.4,0.9
					C1083,430.8,1082.7,431.6,1082.7,432.5z"/>
				<path class="st3" d="M1096.7,433.2c0,0.9,0.2,1.5,0.6,1.9c0.4,0.4,1,0.6,1.8,0.5c0.8,0,1.4-0.3,1.9-0.8c0.5-0.5,0.8-1.1,0.8-1.8
					c0-1.4-0.1-2.8-0.1-4.2c-0.5,0-0.9,0-1.4,0c-0.3,0-0.5,0-0.6-0.2c-0.1-0.1-0.2-0.3-0.2-0.5c0-0.3,0.1-0.4,0.2-0.6
					c0.1-0.1,0.3-0.2,0.6-0.2c0.7,0,1.5,0,2.2-0.1c0.3,0,0.4,0,0.6,0.2c0.1,0.1,0.2,0.4,0.2,0.8c0.1,2.3,0.2,4.7,0.2,7
					c0.2,0,0.3,0,0.5,0c0.3,0,0.6,0,0.7,0.1c0.2,0.1,0.2,0.3,0.2,0.5c0,0.2-0.1,0.4-0.2,0.6c-0.1,0.1-0.3,0.2-0.6,0.2
					c-0.5,0-1.1,0-1.6,0.1c-0.2,0-0.3,0-0.4-0.1c-0.1-0.1-0.2-0.2-0.2-0.3c0-0.2,0-0.5,0-0.7c-0.7,0.5-1.2,0.9-1.7,1.1
					c-0.5,0.2-1,0.3-1.5,0.3c-1.2,0-2-0.2-2.6-0.8c-0.6-0.6-0.9-1.5-0.9-2.7c0-1.5-0.1-3.1-0.1-4.6c-0.1,0-0.1,0-0.2,0
					c-0.5,0-0.8,0-1-0.1c-0.2-0.1-0.3-0.3-0.3-0.6c0-0.2,0.1-0.4,0.2-0.5c0.1-0.1,0.3-0.2,0.6-0.2c0.5,0,1,0,1.6,0
					c0.2,0,0.4,0,0.5,0.1c0.1,0.1,0.1,0.3,0.2,0.6C1096.6,429.9,1096.6,431.6,1096.7,433.2z"/>
				<path class="st3" d="M1113.1,435c1.1-0.1,2.2-0.1,3.4-0.2c0.3,0,0.5,0,0.6,0.1c0.1,0.1,0.2,0.3,0.2,0.5c0,0.3,0,0.5-0.2,0.6
					c-0.1,0.1-0.3,0.2-0.7,0.2c-2.7,0.1-5.4,0.3-8.1,0.4c-0.3,0-0.5,0-0.6-0.2c-0.1-0.1-0.2-0.3-0.2-0.5c0-0.2,0.1-0.4,0.2-0.5
					c0.1-0.1,0.4-0.2,0.7-0.2c1.1,0,2.1-0.1,3.2-0.1c-0.1-2.2-0.2-4.4-0.3-6.6c-0.7,0-1.4,0.1-2,0.1c-0.3,0-0.5,0-0.7-0.2
					c-0.2-0.1-0.2-0.3-0.2-0.5c0-0.2,0.1-0.4,0.2-0.5c0.1-0.1,0.3-0.2,0.6-0.2c1,0,2-0.1,3-0.1c0.2,0,0.3,0,0.4,0.1
					c0.1,0.1,0.2,0.2,0.2,0.3C1112.9,429.9,1113,432.4,1113.1,435z M1110.7,424.1c0-0.7,0-1.2,0.1-1.4c0.1-0.2,0.4-0.3,0.8-0.3
					c0.4,0,0.7,0,0.9,0.2c0.1,0.2,0.2,0.5,0.3,1.1c0,0.6,0,1-0.1,1.1c-0.1,0.1-0.4,0.2-0.9,0.2c-0.4,0-0.7,0-0.9-0.2
					C1110.8,424.8,1110.7,424.5,1110.7,424.1z"/>
				<path class="st3" d="M1128.3,435.6c-0.1,0-0.3,0-0.3-0.1c-0.1-0.1-0.1-0.2-0.1-0.4c0-0.3,0-0.6-0.1-0.8c-0.4,0.5-0.9,1-1.5,1.3
					c-0.6,0.3-1.3,0.5-2,0.6c-1.3,0.1-2.5-0.3-3.4-1.2c-0.9-0.9-1.4-2-1.5-3.3c-0.1-1.4,0.3-2.6,1.2-3.6c0.9-1,2-1.5,3.4-1.6
					c0.7,0,1.4,0,1.9,0.3c0.6,0.2,1.1,0.5,1.5,1c-0.1-1.3-0.2-2.6-0.3-3.9c-0.2,0-0.4,0-0.5,0c-0.6,0-1,0-1.2-0.1
					c-0.2-0.1-0.3-0.3-0.3-0.6c0-0.2,0-0.4,0.2-0.6c0.1-0.1,0.3-0.2,0.6-0.2c0.7,0,1.4-0.1,2.1-0.1c0.2,0,0.4,0,0.5,0.1
					c0.1,0.1,0.2,0.2,0.2,0.3c0.3,3.8,0.5,7.7,0.8,11.5c0.2,0,0.3,0,0.5,0c0.3,0,0.6,0,0.8,0.1c0.2,0.1,0.3,0.3,0.3,0.5
					c0,0.2,0,0.4-0.2,0.6c-0.1,0.1-0.3,0.2-0.5,0.2C1129.6,435.5,1128.9,435.5,1128.3,435.6z M1121.1,431.4c0.1,0.9,0.4,1.7,1.1,2.3
					c0.7,0.6,1.5,0.8,2.4,0.8c1-0.1,1.7-0.4,2.3-1.1c0.6-0.7,0.8-1.5,0.8-2.4c-0.1-0.9-0.4-1.7-1.1-2.3c-0.7-0.6-1.5-0.8-2.4-0.8
					c-1,0.1-1.7,0.4-2.3,1.1C1121.3,429.6,1121.1,430.4,1121.1,431.4z"/>
				<path class="st3" d="M1138.8,433.3c1.1-0.1,2.2-0.2,3.3-0.3c0.3,0,0.5,0,0.6,0.1c0.1,0.1,0.2,0.3,0.2,0.5c0,0.3,0,0.5-0.1,0.6
					c-0.1,0.1-0.3,0.2-0.7,0.2c-2.7,0.2-5.4,0.5-8.1,0.7c-0.3,0-0.5,0-0.6-0.1c-0.1-0.1-0.2-0.3-0.3-0.5c0-0.2,0-0.4,0.2-0.5
					c0.1-0.1,0.4-0.2,0.6-0.2c1.1-0.1,2.1-0.2,3.2-0.2c-0.2-2.2-0.4-4.4-0.5-6.6c-0.7,0.1-1.3,0.1-2,0.2c-0.3,0-0.5,0-0.7-0.1
					c-0.2-0.1-0.2-0.3-0.3-0.5c0-0.2,0-0.4,0.2-0.5c0.1-0.1,0.3-0.2,0.6-0.2c1-0.1,2-0.2,3-0.2c0.2,0,0.3,0,0.4,0.1
					c0.1,0.1,0.2,0.2,0.2,0.3C1138.4,428.3,1138.6,430.8,1138.8,433.3z M1136,422.5c-0.1-0.7,0-1.2,0.1-1.4c0.1-0.2,0.4-0.3,0.8-0.4
					c0.4,0,0.7,0,0.9,0.2c0.1,0.1,0.3,0.5,0.3,1.1c0,0.6,0,1-0.1,1.1c-0.1,0.1-0.4,0.2-0.8,0.3c-0.4,0-0.7,0-0.9-0.1
					C1136.1,423.2,1136,422.9,1136,422.5z"/>
				<path class="st3" d="M1152.7,424.5c0.3,0,0.6,0,0.8,0.1c0.2,0.1,0.3,0.3,0.3,0.5c0,0.2,0,0.4-0.2,0.6c-0.1,0.1-0.3,0.2-0.6,0.2
					c-1.4,0.1-2.8,0.3-4.2,0.4c0.1,1.1,0.2,2.3,0.3,3.4c0.1,1.1,0.3,1.8,0.7,2.2c0.3,0.3,0.9,0.5,1.6,0.4c0.6-0.1,1.4-0.3,2.2-0.8
					c0.8-0.5,1.4-0.7,1.6-0.7c0.2,0,0.4,0,0.5,0.2c0.2,0.1,0.2,0.3,0.3,0.5c0,0.2,0,0.4-0.2,0.6c-0.2,0.2-0.4,0.4-0.8,0.6
					c-0.7,0.3-1.2,0.6-1.8,0.8c-0.5,0.2-1,0.3-1.5,0.3c-0.8,0.1-1.5,0-2.1-0.2c-0.6-0.2-1-0.5-1.3-1c-0.2-0.2-0.3-0.5-0.4-0.8
					c-0.1-0.3-0.2-0.8-0.2-1.5c0-0.1,0-0.2,0-0.3c-0.1-1.1-0.2-2.3-0.3-3.4c-0.6,0.1-1.2,0.1-1.8,0.2c-0.3,0-0.5,0-0.6-0.1
					c-0.1-0.1-0.2-0.3-0.2-0.5c0-0.3,0-0.5,0.2-0.6c0.2-0.1,0.5-0.2,1.1-0.3c0.4,0,0.8-0.1,1.2-0.1c-0.1-0.7-0.1-1.4-0.2-2.1
					c0-0.2,0-0.4-0.1-0.5c0-0.3,0-0.5,0.1-0.7c0.1-0.2,0.3-0.2,0.6-0.3c0.3,0,0.5,0,0.7,0.2c0.1,0.2,0.2,0.5,0.3,1.1
					c0.1,0.7,0.1,1.4,0.2,2.1C1150,424.8,1151.4,424.7,1152.7,424.5z"/>
				<path class="st3" d="M1163.1,435c0.2,0,0.3,0,0.5-0.1c0.5-0.1,0.9,0,1.1,0c0.2,0.1,0.3,0.3,0.3,0.5c0,0.2,0,0.4-0.2,0.6
					c-0.1,0.1-0.3,0.2-0.6,0.3c-1.6,0.2-3.2,0.4-4.8,0.6c-0.3,0-0.6,0-0.7-0.1c-0.1-0.1-0.2-0.3-0.3-0.5c0-0.2,0-0.4,0.1-0.6
					c0.1-0.1,0.3-0.2,0.6-0.3c0.8-0.1,1.5-0.2,2.3-0.3c0.4-1.1,0.9-2.3,1.3-3.4c-1.6-2.3-3.1-4.6-4.6-6.9c-0.5,0.1-0.8,0-1-0.1
					c-0.2-0.1-0.3-0.3-0.3-0.5c0-0.2,0-0.4,0.1-0.6c0.1-0.1,0.3-0.2,0.6-0.2c1-0.1,1.9-0.2,2.9-0.3c0.4,0,0.6,0,0.8,0.1
					c0.1,0.1,0.2,0.3,0.3,0.5c0,0.3,0,0.5-0.2,0.6c-0.2,0.1-0.5,0.2-0.9,0.3c-0.1,0-0.3,0-0.4,0c1.1,1.8,2.3,3.5,3.5,5.3
					c0.7-2,1.5-4,2.2-6c-0.1,0-0.3,0-0.4,0c-0.5,0.1-0.8,0-1,0c-0.2-0.1-0.3-0.3-0.3-0.5c0-0.3,0-0.5,0.1-0.6
					c0.1-0.1,0.4-0.2,0.8-0.3c0.8-0.1,1.7-0.2,2.5-0.3c0.3,0,0.5,0,0.6,0.1c0.1,0.1,0.2,0.3,0.3,0.5c0,0.3,0,0.4-0.2,0.6
					c-0.1,0.1-0.4,0.2-0.8,0.3C1166,427.5,1164.6,431.2,1163.1,435z"/>
			</g>
		</g>
		<g class="st11">
			<g>
				<path class="st3" d="M996.1,367.2c-0.1,0.3-0.2,0.5-0.3,0.6c-0.1,0.1-0.3,0.1-0.6,0.1c-0.3,0-0.5-0.1-0.6-0.3
					c-0.1-0.2-0.2-0.5-0.1-0.8c0.1-0.8,0.1-1.6,0.2-2.4c0-0.1,0-0.1,0-0.2c0-0.3,0.1-0.5,0.3-0.7c0.1-0.1,0.4-0.2,0.7-0.1
					c0.4,0.1,0.7,0.4,0.8,1c0,0.3,0.1,0.5,0.2,0.7c0.2,0.5,0.5,0.9,1,1.2c0.5,0.3,1.1,0.5,1.8,0.6c0.9,0.1,1.6,0,2.3-0.4
					c0.6-0.3,0.9-0.8,1-1.5c0.1-0.5-0.1-1-0.4-1.4s-0.8-0.6-1.4-0.8c-0.5-0.1-1-0.3-1.5-0.4c-1.4-0.4-2.4-0.9-3-1.5
					c-0.6-0.6-0.8-1.4-0.7-2.4c0.1-1,0.7-1.9,1.6-2.5c1-0.6,2.1-0.8,3.4-0.7c0.4,0,0.8,0.1,1.2,0.3c0.4,0.1,0.9,0.4,1.4,0.6
					c0-0.2,0.1-0.3,0.2-0.4c0.1-0.1,0.3-0.1,0.5-0.1c0.3,0,0.5,0.1,0.6,0.2c0.1,0.1,0.2,0.3,0.1,0.7c0,0.7-0.1,1.4-0.1,2.1
					c0,0,0,0.1,0,0.1c0,0.2-0.1,0.4-0.3,0.5c-0.2,0.1-0.4,0.2-0.6,0.1c-0.4,0-0.6-0.3-0.8-0.9c-0.1-0.3-0.1-0.5-0.2-0.7
					c-0.2-0.4-0.5-0.7-0.9-0.9c-0.4-0.2-0.9-0.4-1.4-0.4c-0.8-0.1-1.5,0-2.1,0.4s-0.9,0.8-1,1.5c-0.1,0.5,0.1,0.9,0.4,1.3
					c0.4,0.3,0.9,0.6,1.7,0.8c0.5,0.1,1.1,0.3,1.6,0.4c1.2,0.3,2,0.8,2.6,1.4c0.5,0.6,0.8,1.4,0.7,2.4c-0.1,1.1-0.7,2-1.6,2.6
					c-0.9,0.6-2.1,0.8-3.6,0.6c-0.5-0.1-1-0.2-1.5-0.4C997.1,367.7,996.6,367.5,996.1,367.2z"/>
				<path class="st3" d="M1012,367.9c0.1,0,0.3,0,0.4,0c0.3,0,0.5,0.1,0.6,0.2c0.1,0.1,0.2,0.3,0.1,0.6c0,0.2-0.1,0.4-0.2,0.5
					c-0.1,0.1-0.3,0.2-0.6,0.1c-1.7-0.2-3.4-0.4-5.1-0.5c-0.2,0-0.4-0.1-0.5-0.2c-0.1-0.1-0.2-0.3-0.1-0.6c0-0.3,0.1-0.4,0.3-0.5
					c0.1-0.1,0.4-0.1,0.7-0.1c0.1,0,0.2,0,0.3,0c0.2,0,0.4,0,0.7,0.1c0.3-3.1,0.6-6.1,1-9.2c-0.2,0-0.4,0-0.6-0.1
					c-0.5-0.1-0.8-0.1-1-0.3c-0.1-0.1-0.2-0.3-0.2-0.6c0-0.2,0.1-0.4,0.2-0.5c0.1-0.1,0.3-0.2,0.6-0.1c3,0.3,6.1,0.6,9.1,0.9
					c0.2,0,0.4,0.1,0.5,0.3c0.1,0.2,0.1,0.4,0.1,0.6c-0.1,0.9-0.2,1.8-0.2,2.6c0,0.2-0.1,0.4-0.2,0.5c-0.1,0.1-0.3,0.2-0.5,0.1
					c-0.3,0-0.5-0.1-0.6-0.3c-0.1-0.2-0.1-0.5-0.1-1c0-0.5,0.1-1,0.1-1.5c-1.9-0.2-3.7-0.4-5.6-0.6c-0.1,1.1-0.2,2.3-0.4,3.4
					c0.9,0.1,1.8,0.2,2.7,0.3c0-0.1,0-0.2,0-0.3c0-0.5,0.1-0.8,0.2-1c0.1-0.2,0.3-0.2,0.5-0.2c0.2,0,0.4,0.1,0.5,0.2
					c0.1,0.1,0.1,0.4,0.1,0.6c-0.1,0.9-0.2,1.7-0.3,2.6c0,0.3-0.1,0.6-0.2,0.7c-0.1,0.1-0.3,0.2-0.5,0.1c-0.2,0-0.4-0.1-0.5-0.3
					c-0.1-0.2-0.1-0.5,0-1c0-0.1,0-0.2,0-0.3c-0.9-0.1-1.8-0.2-2.7-0.3c-0.2,1.5-0.3,3-0.5,4.5
					C1010.8,367.7,1011.4,367.8,1012,367.9z"/>
				<path class="st3" d="M1025.3,369.1c0.3,0,0.6,0.1,0.7,0.2c0.1,0.1,0.2,0.3,0.2,0.6c0,0.3-0.1,0.5-0.3,0.6
					c-0.2,0.1-0.4,0.1-0.8,0.1c-1.7-0.1-3.4-0.3-5.1-0.4c-0.2,0-0.4-0.1-0.5-0.2c-0.1-0.1-0.2-0.3-0.1-0.6c0-0.2,0.1-0.4,0.2-0.5
					c0.1-0.1,0.3-0.1,0.6-0.1c0.4,0,0.9,0.1,1.3,0.1c0.3-3.1,0.5-6.1,0.8-9.2c-0.2,0-0.5,0-0.7-0.1c-0.6-0.1-1-0.1-1.1-0.3
					c-0.1-0.1-0.2-0.3-0.2-0.6c0-0.2,0.1-0.4,0.2-0.5c0.1-0.1,0.3-0.2,0.6-0.1c1.6,0.1,3.2,0.3,4.8,0.4c1.7,0.1,2.9,0.6,3.7,1.3
					c0.8,0.7,1.2,1.7,1.1,2.9c-0.1,1.2-0.6,2.2-1.5,2.7c-0.9,0.6-2.2,0.8-3.9,0.6c-0.6,0-1.2-0.1-1.8-0.2c-0.1,1-0.2,2.1-0.3,3.1
					C1023.8,369,1024.6,369,1025.3,369.1z M1023.9,359.7c-0.1,1.6-0.3,3.2-0.4,4.7c0.6,0.1,1.3,0.1,1.9,0.2c1.1,0.1,1.9,0,2.5-0.4
					c0.6-0.4,0.9-0.9,0.9-1.7c0.1-0.8-0.2-1.4-0.7-1.8c-0.5-0.4-1.3-0.7-2.4-0.8C1025.2,359.8,1024.5,359.8,1023.9,359.7z"/>
				<path class="st3" d="M1038,366.4c0.9-2.1,1.8-4.2,2.6-6.3c0.1-0.2,0.3-0.4,0.4-0.5c0.2-0.1,0.4-0.1,0.7-0.1
					c0.6,0,1.1,0.1,1.7,0.1c0.2,0,0.4,0.1,0.5,0.2c0.1,0.1,0.2,0.3,0.1,0.5c0,0.3-0.1,0.4-0.2,0.5c-0.1,0.1-0.4,0.1-0.8,0.1
					c-0.1,0-0.1,0-0.2,0c-0.1,3.1-0.2,6.2-0.2,9.3c0.1,0,0.2,0,0.2,0c0.5,0,0.8,0.1,0.9,0.2c0.1,0.1,0.2,0.3,0.2,0.6
					c0,0.2-0.1,0.4-0.2,0.5c-0.1,0.1-0.3,0.2-0.6,0.2c-1-0.1-2-0.1-2.9-0.2c-0.4,0-0.7-0.1-0.8-0.2c-0.1-0.1-0.2-0.3-0.2-0.6
					c0-0.3,0.1-0.4,0.3-0.5c0.2-0.1,0.5-0.1,1-0.1c0.1,0,0.3,0,0.4,0c0.1-2.9,0.2-5.9,0.3-8.8c-0.8,1.9-1.6,3.8-2.4,5.8
					c-0.1,0.3-0.3,0.5-0.4,0.6c-0.2,0.1-0.4,0.1-0.7,0.1c-0.3,0-0.5-0.1-0.7-0.2c-0.1-0.1-0.3-0.3-0.3-0.6c-0.6-2-1.1-4-1.7-6
					c-0.3,2.9-0.5,5.9-0.8,8.8c0.2,0,0.5,0,0.7,0c0.4,0,0.7,0.1,0.9,0.2c0.2,0.1,0.2,0.3,0.2,0.6c0,0.3-0.1,0.5-0.3,0.6
					c-0.2,0.1-0.4,0.1-0.8,0.1c-1-0.1-2-0.1-2.9-0.2c-0.2,0-0.4-0.1-0.5-0.2c-0.1-0.1-0.2-0.3-0.1-0.6c0-0.3,0.1-0.5,0.3-0.5
					c0.2-0.1,0.5-0.1,0.9-0.1c0.1,0,0.2,0,0.2,0c0.3-3.1,0.6-6.2,1-9.3c-0.1,0-0.1,0-0.2,0c-0.4,0-0.6-0.1-0.8-0.2
					c-0.1-0.1-0.2-0.3-0.2-0.6c0-0.2,0.1-0.4,0.2-0.5c0.1-0.1,0.3-0.2,0.5-0.1c0.6,0,1.1,0.1,1.7,0.1c0.3,0,0.6,0.1,0.7,0.2
					c0.2,0.1,0.3,0.3,0.4,0.6C1036.7,362,1037.3,364.2,1038,366.4z"/>
				<path class="st3" d="M1063,360.7c-0.6,0-1.2,0-1.8-0.1c-0.7,0-1.1-0.1-1.2-0.2c-0.2-0.1-0.2-0.3-0.2-0.6c0-0.2,0.1-0.4,0.2-0.5
					c0.1-0.1,0.3-0.2,0.6-0.2c1.1,0,2.3,0.1,3.4,0.1c0.2,0,0.3,0,0.4,0.1c0.1,0.1,0.1,0.2,0.1,0.3c-0.1,3.9-0.2,7.7-0.3,11.6
					c1.1,0,2.2,0.1,3.3,0.1c0.3,0,0.5,0.1,0.6,0.2c0.1,0.1,0.2,0.3,0.2,0.5c0,0.3-0.1,0.5-0.2,0.6c-0.1,0.1-0.3,0.2-0.7,0.1
					c-2.6-0.1-5.2-0.1-7.7-0.2c-0.3,0-0.5-0.1-0.6-0.2c-0.1-0.1-0.2-0.3-0.2-0.6c0-0.2,0.1-0.4,0.2-0.5c0.1-0.1,0.4-0.2,0.7-0.2
					c1,0,1.9,0.1,2.9,0.1C1062.8,367.7,1062.9,364.2,1063,360.7z"/>
				<path class="st3" d="M1077.2,371.4c1.1,0,2.2,0,3.4,0c0.3,0,0.5,0.1,0.6,0.2c0.1,0.1,0.2,0.3,0.2,0.5c0,0.3-0.1,0.5-0.2,0.6
					c-0.1,0.1-0.3,0.2-0.7,0.2c-2.7,0-5.4,0-8.1-0.1c-0.3,0-0.5-0.1-0.6-0.2c-0.1-0.1-0.2-0.3-0.2-0.6c0-0.2,0.1-0.4,0.2-0.5
					c0.1-0.1,0.4-0.2,0.7-0.2c1.1,0,2.1,0,3.2,0c0-2.2,0-4.4,0.1-6.6c-0.7,0-1.4,0-2,0c-0.3,0-0.5-0.1-0.6-0.2
					c-0.1-0.1-0.2-0.3-0.2-0.5c0-0.2,0.1-0.4,0.2-0.5c0.1-0.1,0.3-0.2,0.6-0.2c1,0,2,0,3,0c0.2,0,0.3,0,0.4,0.1
					c0.1,0.1,0.2,0.2,0.2,0.3C1077.3,366.3,1077.2,368.9,1077.2,371.4z M1075.4,360.4c0-0.7,0.1-1.2,0.2-1.4
					c0.1-0.2,0.4-0.3,0.9-0.3c0.4,0,0.7,0.1,0.8,0.2c0.1,0.2,0.2,0.5,0.2,1.1c0,0.6-0.1,1-0.2,1.1c-0.1,0.1-0.4,0.2-0.9,0.2
					c-0.4,0-0.7-0.1-0.9-0.2C1075.5,361.1,1075.4,360.8,1075.4,360.4z"/>
				<path class="st3" d="M1091.9,375.5c0-1.4,0-2.7-0.1-4.1c-0.4,0.5-0.9,0.9-1.6,1.1c-0.6,0.3-1.3,0.4-2.1,0.4
					c-1.4,0-2.5-0.4-3.4-1.3c-0.9-0.9-1.3-2-1.3-3.3c0-1.4,0.5-2.6,1.4-3.5c0.9-0.9,2.1-1.4,3.5-1.4c0.6,0,1.3,0.1,1.8,0.3
					c0.6,0.2,1.1,0.6,1.6,1.1c0-0.3,0-0.7,0-1c0-0.1,0-0.2,0.1-0.3c0.1-0.1,0.2-0.1,0.4-0.1c0.5,0,1,0,1.6,0c0.3,0,0.5,0.1,0.6,0.2
					c0.1,0.1,0.2,0.3,0.2,0.5c0,0.3-0.1,0.5-0.2,0.6c-0.2,0.1-0.5,0.2-0.9,0.2c-0.1,0-0.1,0-0.2,0c0.1,3.5,0.1,7.1,0.2,10.6
					c0.1,0,0.1,0,0.2,0c0.5,0,0.8,0,1,0.1c0.2,0.1,0.3,0.3,0.3,0.6c0,0.2-0.1,0.4-0.2,0.5c-0.1,0.1-0.3,0.2-0.6,0.2
					c-1.6,0-3.1,0-4.7,0.1c-0.3,0-0.6-0.1-0.7-0.2c-0.1-0.1-0.2-0.3-0.2-0.6c0-0.2,0.1-0.4,0.2-0.6c0.1-0.1,0.3-0.2,0.6-0.2
					C1090.2,375.5,1091.1,375.5,1091.9,375.5z M1085.3,368.2c0,0.9,0.3,1.7,0.9,2.3c0.6,0.6,1.4,0.9,2.4,0.9c1,0,1.8-0.3,2.4-0.9
					c0.6-0.6,0.9-1.4,0.9-2.3c0-0.9-0.3-1.7-0.9-2.3c-0.6-0.6-1.4-0.9-2.4-0.9c-1,0-1.8,0.3-2.4,0.9
					C1085.6,366.5,1085.3,367.3,1085.3,368.2z"/>
				<path class="st3" d="M1099.3,368.9c0,0.9,0.2,1.5,0.6,1.9c0.4,0.4,1,0.6,1.8,0.5c0.8,0,1.4-0.3,1.9-0.8c0.5-0.5,0.8-1.1,0.8-1.8
					c0-1.4-0.1-2.8-0.1-4.2c-0.5,0-0.9,0-1.4,0c-0.3,0-0.5,0-0.6-0.2c-0.1-0.1-0.2-0.3-0.2-0.5c0-0.3,0.1-0.4,0.2-0.6
					c0.1-0.1,0.3-0.2,0.6-0.2c0.7,0,1.5,0,2.2-0.1c0.3,0,0.4,0,0.6,0.2c0.1,0.1,0.2,0.4,0.2,0.8c0.1,2.3,0.2,4.7,0.2,7
					c0.2,0,0.3,0,0.5,0c0.3,0,0.6,0,0.7,0.1c0.2,0.1,0.2,0.3,0.2,0.5c0,0.2-0.1,0.4-0.2,0.6c-0.1,0.1-0.3,0.2-0.6,0.2
					c-0.5,0-1.1,0-1.6,0.1c-0.2,0-0.3,0-0.4-0.1c-0.1-0.1-0.2-0.2-0.2-0.3c0-0.2,0-0.5,0-0.7c-0.7,0.5-1.2,0.9-1.7,1.1
					c-0.5,0.2-1,0.3-1.5,0.3c-1.2,0-2-0.3-2.6-0.8c-0.6-0.6-0.9-1.5-0.9-2.7c0-1.5-0.1-3.1-0.1-4.6c-0.1,0-0.1,0-0.2,0
					c-0.5,0-0.8,0-1-0.1c-0.2-0.1-0.3-0.3-0.3-0.6c0-0.2,0.1-0.4,0.2-0.5c0.1-0.1,0.3-0.2,0.6-0.2c0.5,0,1,0,1.6,0
					c0.2,0,0.4,0,0.5,0.1c0.1,0.1,0.1,0.3,0.2,0.6C1099.2,365.6,1099.3,367.3,1099.3,368.9z"/>
				<path class="st3" d="M1115.8,370.7c1.1-0.1,2.2-0.1,3.4-0.2c0.3,0,0.5,0,0.6,0.1c0.1,0.1,0.2,0.3,0.2,0.5c0,0.3,0,0.5-0.2,0.6
					c-0.1,0.1-0.3,0.2-0.7,0.2c-2.7,0.1-5.4,0.3-8.1,0.4c-0.3,0-0.5,0-0.6-0.2c-0.1-0.1-0.2-0.3-0.2-0.5c0-0.2,0.1-0.4,0.2-0.5
					c0.1-0.1,0.4-0.2,0.7-0.2c1.1,0,2.1-0.1,3.2-0.1c-0.1-2.2-0.2-4.4-0.3-6.6c-0.7,0-1.4,0.1-2,0.1c-0.3,0-0.5,0-0.7-0.2
					c-0.2-0.1-0.2-0.3-0.2-0.5c0-0.2,0.1-0.4,0.2-0.5c0.1-0.1,0.3-0.2,0.6-0.2c1,0,2-0.1,3-0.1c0.2,0,0.3,0,0.4,0.1
					c0.1,0.1,0.2,0.2,0.2,0.3C1115.6,365.6,1115.7,368.2,1115.8,370.7z M1113.4,359.8c0-0.7,0-1.2,0.1-1.4c0.1-0.2,0.4-0.3,0.8-0.3
					c0.4,0,0.7,0,0.9,0.2c0.1,0.2,0.2,0.5,0.3,1.1c0,0.6,0,1-0.1,1.1c-0.1,0.1-0.4,0.2-0.9,0.2c-0.4,0-0.7,0-0.9-0.2
					C1113.5,360.5,1113.4,360.2,1113.4,359.8z"/>
				<path class="st3" d="M1130.9,371.3c-0.1,0-0.3,0-0.3-0.1c-0.1-0.1-0.1-0.2-0.1-0.4c0-0.3,0-0.6-0.1-0.8c-0.4,0.5-0.9,1-1.5,1.3
					c-0.6,0.3-1.3,0.5-2,0.6c-1.3,0.1-2.5-0.3-3.4-1.2c-0.9-0.9-1.4-2-1.5-3.3c-0.1-1.4,0.3-2.6,1.2-3.6c0.9-1,2-1.5,3.4-1.6
					c0.7,0,1.4,0,1.9,0.3c0.6,0.2,1.1,0.5,1.5,1c-0.1-1.3-0.2-2.6-0.3-3.9c-0.2,0-0.4,0-0.5,0c-0.6,0-1,0-1.2-0.1
					c-0.2-0.1-0.3-0.3-0.3-0.6c0-0.2,0-0.4,0.2-0.6c0.1-0.1,0.3-0.2,0.6-0.2c0.7,0,1.4-0.1,2.1-0.1c0.2,0,0.4,0,0.5,0.1
					c0.1,0.1,0.2,0.2,0.2,0.3c0.3,3.8,0.5,7.7,0.8,11.5c0.2,0,0.3,0,0.5,0c0.3,0,0.6,0,0.8,0.1c0.2,0.1,0.3,0.3,0.3,0.5
					c0,0.2,0,0.4-0.2,0.6c-0.1,0.1-0.3,0.2-0.5,0.2C1132.2,371.2,1131.6,371.2,1130.9,371.3z M1123.8,367.1c0.1,0.9,0.4,1.7,1.1,2.3
					c0.7,0.6,1.5,0.8,2.4,0.8c1-0.1,1.7-0.4,2.3-1.1c0.6-0.7,0.8-1.5,0.8-2.4c-0.1-0.9-0.4-1.7-1.1-2.3c-0.6-0.6-1.5-0.8-2.4-0.8
					c-1,0.1-1.7,0.4-2.3,1.1C1124,365.3,1123.7,366.1,1123.8,367.1z"/>
				<path class="st3" d="M1141.5,369c1.1-0.1,2.2-0.2,3.3-0.3c0.3,0,0.5,0,0.6,0.1c0.1,0.1,0.2,0.3,0.2,0.5c0,0.3,0,0.5-0.1,0.6
					c-0.1,0.1-0.3,0.2-0.7,0.2c-2.7,0.2-5.4,0.5-8.1,0.7c-0.3,0-0.5,0-0.6-0.1c-0.1-0.1-0.2-0.3-0.3-0.5c0-0.2,0-0.4,0.2-0.5
					c0.1-0.1,0.4-0.2,0.6-0.2c1.1-0.1,2.1-0.2,3.2-0.2c-0.2-2.2-0.4-4.4-0.5-6.6c-0.7,0.1-1.3,0.1-2,0.2c-0.3,0-0.5,0-0.7-0.1
					c-0.2-0.1-0.2-0.3-0.3-0.5c0-0.2,0-0.4,0.2-0.5c0.1-0.1,0.3-0.2,0.6-0.2c1-0.1,2-0.2,3-0.2c0.2,0,0.3,0,0.4,0.1
					c0.1,0.1,0.2,0.2,0.2,0.3C1141,364,1141.2,366.5,1141.5,369z M1138.7,358.2c-0.1-0.7,0-1.2,0.1-1.4c0.1-0.2,0.4-0.3,0.8-0.4
					c0.4,0,0.7,0,0.9,0.2c0.1,0.1,0.3,0.5,0.3,1.1c0,0.6,0,1-0.1,1.1c-0.1,0.1-0.4,0.2-0.8,0.3c-0.4,0-0.7,0-0.9-0.1
					C1138.8,358.9,1138.7,358.7,1138.7,358.2z"/>
				<path class="st3" d="M1155.4,360.3c0.3,0,0.6,0,0.8,0.1c0.2,0.1,0.3,0.3,0.3,0.5c0,0.2,0,0.4-0.2,0.6c-0.1,0.1-0.3,0.2-0.6,0.2
					c-1.4,0.1-2.8,0.3-4.2,0.4c0.1,1.1,0.2,2.3,0.3,3.4c0.1,1.1,0.3,1.8,0.7,2.2c0.3,0.3,0.9,0.5,1.6,0.4c0.6-0.1,1.4-0.3,2.2-0.8
					c0.8-0.5,1.4-0.7,1.6-0.7c0.2,0,0.4,0,0.5,0.2c0.1,0.1,0.2,0.3,0.3,0.5c0,0.2,0,0.4-0.2,0.6c-0.2,0.2-0.4,0.4-0.8,0.6
					c-0.7,0.3-1.2,0.6-1.8,0.8c-0.5,0.2-1,0.3-1.5,0.3c-0.8,0.1-1.5,0-2.1-0.2c-0.6-0.2-1-0.5-1.3-1c-0.2-0.2-0.3-0.5-0.4-0.8
					c-0.1-0.3-0.2-0.8-0.2-1.5c0-0.1,0-0.2,0-0.3c-0.1-1.1-0.2-2.3-0.3-3.4c-0.6,0.1-1.2,0.1-1.8,0.2c-0.3,0-0.5,0-0.6-0.1
					c-0.1-0.1-0.2-0.3-0.2-0.5c0-0.3,0-0.5,0.2-0.6c0.2-0.1,0.5-0.2,1.1-0.3c0.4,0,0.8-0.1,1.2-0.1c-0.1-0.7-0.1-1.4-0.2-2.1
					c0-0.2,0-0.4-0.1-0.5c0-0.3,0-0.5,0.1-0.7c0.1-0.2,0.3-0.2,0.6-0.3c0.3,0,0.5,0,0.7,0.2c0.1,0.2,0.2,0.5,0.3,1.1
					c0.1,0.7,0.1,1.4,0.2,2.1C1152.7,360.5,1154,360.4,1155.4,360.3z"/>
				<path class="st3" d="M1165.8,370.7c0.1,0,0.3,0,0.4-0.1c0.5-0.1,0.9,0,1.1,0c0.2,0.1,0.3,0.3,0.3,0.5c0,0.2,0,0.4-0.2,0.6
					c-0.1,0.1-0.3,0.2-0.6,0.3c-1.6,0.2-3.2,0.4-4.8,0.6c-0.3,0-0.6,0-0.7-0.1c-0.1-0.1-0.2-0.3-0.3-0.5c0-0.2,0-0.4,0.1-0.6
					c0.1-0.1,0.3-0.2,0.6-0.3c0.8-0.1,1.5-0.2,2.3-0.3c0.4-1.1,0.9-2.3,1.3-3.4c-1.6-2.3-3.1-4.6-4.6-6.9c-0.5,0.1-0.8,0-1-0.1
					c-0.2-0.1-0.3-0.3-0.3-0.5c0-0.2,0-0.4,0.1-0.6c0.1-0.1,0.3-0.2,0.6-0.2c1-0.1,1.9-0.2,2.9-0.3c0.4,0,0.6,0,0.8,0.1
					c0.1,0.1,0.2,0.3,0.3,0.5c0,0.3,0,0.5-0.2,0.6c-0.2,0.1-0.5,0.2-0.9,0.3c-0.1,0-0.3,0-0.4,0c1.1,1.8,2.3,3.5,3.5,5.3
					c0.7-2,1.5-4,2.2-6c-0.1,0-0.3,0-0.4,0c-0.5,0.1-0.8,0-1,0c-0.2-0.1-0.3-0.3-0.3-0.5c0-0.3,0-0.5,0.1-0.6
					c0.1-0.1,0.4-0.2,0.8-0.3c0.8-0.1,1.7-0.2,2.5-0.3c0.3,0,0.5,0,0.6,0.1c0.1,0.1,0.2,0.3,0.3,0.5c0,0.3,0,0.4-0.2,0.6
					c-0.1,0.1-0.4,0.2-0.8,0.3C1168.6,363.2,1167.2,367,1165.8,370.7z"/>
			</g>
		</g>
		
			<linearGradient id="SVGID_00000117660823648640229520000013244992110851620796_" gradientUnits="userSpaceOnUse" x1="940.5321" y1="123.3" x2="1206.9321" y2="123.3" gradientTransform="matrix(1 0 0 -1 0 412)">
			<stop  offset="0" style="stop-color:#FFFFFF"/>
			<stop  offset="1" style="stop-color:#FFE6F3"/>
		</linearGradient>
		
			<ellipse style="fill:url(#SVGID_00000117660823648640229520000013244992110851620796_);stroke:#353535;stroke-width:2;stroke-miterlimit:10;" cx="1073.7" cy="288.7" rx="133.2" ry="34.4"/>
		<text transform="matrix(1 0 0 1 993.8186 291.0771)" class="st3 st4 st10">UniswapV3Pool</text>
	</g>
	<g>
		<circle class="st18" cx="963" cy="261.2" r="14.6"/>
		<g>
			<path class="st19" d="M959.5,255.5c0,0.2-0.1,0.4-0.3,0.5c-0.2,0.3-0.5,0.5-0.9,0.7c-0.3,0.1-0.6,0.2-1,0.2c-0.1,0-0.1,0-0.2,0
				l0,0c-0.2,0-0.4,0.1-0.6,0.2c-0.2,0.1-0.3,0.3-0.3,0.5c0,0.1,0,0.2-0.1,0.3c0,0.2,0,0.3,0,0.5c0,0.1,0,0.2,0,0.4
				c-0.1,0.6-0.2,1.1-0.5,1.6c0,0.1-0.1,0.2-0.2,0.3l0,0c-0.3,0.6-0.5,1.1-0.5,1.7c0.1,0.5,0.3,0.9,0.7,1.2c0.2,0.2,0.4,0.3,0.6,0.5
				l0,0c0.6,0.4,1.3,0.9,1.1,2.1c-0.2,1-1.8,2-4,2.3c0.2,0-0.3-0.9-0.3-0.9l0,0c-0.1-0.1-0.1-0.2-0.2-0.3c-0.2-0.3-0.4-0.5-0.5-0.9
				c-0.4-0.8-0.5-1.7-0.4-2.6c0.1-0.8,0.7-1.4,1.2-2c0.1-0.1,0.2-0.2,0.2-0.3c0.7-0.8,1.4-1.9,1.5-3c0-0.1,0-0.2,0-0.3
				c0-0.2,0-0.4,0.1-0.6c0.1-0.4,0.2-0.7,0.3-1c0.1-0.2,0.3-0.4,0.4-0.6c0.1-0.1,0.2-0.2,0.2-0.3c0-0.1,0-0.2-0.1-0.4l-3.5-6.4
				l5.1,6.3c0.1,0.1,0.1,0.1,0.2,0.2s0.2,0.1,0.3,0.1s0.2,0,0.3,0s0.2-0.1,0.2-0.2c0.1-0.1,0.1-0.2,0.1-0.3s0-0.2-0.1-0.3
				c-0.2-0.3-0.5-0.6-0.7-0.9l0,0c-0.1-0.1-0.2-0.2-0.3-0.4l-1.3-1.6l-2.6-3.2l-5.2-6.3l5.5,6.1l2.7,3l1.4,1.5
				c0.1,0.1,0.2,0.3,0.4,0.4l0,0c0.3,0.4,0.7,0.7,1,1.1l0.1,0.1v0.1C959.5,255.1,959.5,255.3,959.5,255.5z"/>
			<path class="st19" d="M972.5,257.6L972.5,257.6c0-0.7-0.4-1.8-1.3-2.9l0,0c-0.3-0.3-0.5-0.6-0.8-0.9c-0.1-0.1-0.1-0.1-0.2-0.2
				c-0.4-0.3-0.8-0.6-1.3-0.9l0,0c-1.4-0.8-3.3-1.2-5.6-0.7c-0.3-0.4-0.6-0.7-1-1.1c-0.5-0.5-1.2-0.9-1.9-1.2
				c-0.7-0.2-1.4-0.4-2.2-0.3c0.7,0.1,1.4,0.3,2,0.6c0.6,0.3,1.2,0.8,1.6,1.3c0.5,0.5,0.9,1.1,1.3,1.6l0.1,0.1
				c0.4,0.5,0.8,1.1,1.3,1.5c0.3,0.3,0.6,0.5,0.9,0.7c0.1,0,0.2,0.1,0.3,0.1s0.2,0.1,0.3,0.1c0.2,0.1,0.4,0.1,0.5,0.2
				c0.7,0.2,1.5,0.3,2.2,0.3c0.1,0,0.2,0,0.3,0l0,0c0.3,0,0.5,0,0.8,0s0.7,0.1,1,0.2c0.5,0.1,1,0.4,1.3,0.9
				C972.4,257.3,972.4,257.5,972.5,257.6z"/>
			<path class="st19" d="M961.5,257.7c0.6,1-0.7,1.4-1.3,1.4c-0.9,0.1-1.1-0.5-0.9-1.1c0.1-0.2,0.2-0.5,0.4-0.6s0.4-0.3,0.7-0.3
				c0.2,0,0.5,0,0.7,0.1C961.2,257.3,961.2,257.5,961.5,257.7z"/>
			<path class="st19" d="M969.5,260.5c-2.3-1-4.8-1.9-4.4-4.7c0.8,0.8,2,1,3.3,1.2c1.2,0.2,2.5,0.4,3.6,1.1c2.7,1.6,2.3,4.9,1.4,6
				C973.5,262.1,971.6,261.3,969.5,260.5z"/>
			<path class="st19" d="M970.2,253.7L970.2,253.7L970.2,253.7L970.2,253.7L970.2,253.7l0.1,0.1
				C970.4,253.8,970.2,253.7,970.2,253.7L970.2,253.7L970.2,253.7L970.2,253.7L970.2,253.7z"/>
			<path class="st19" d="M960,250.9c-0.4-0.5-1-0.7-1.6-0.8c0,0.1,0,0.3,0,0.4c0,1.2,0.4,2.6,1.2,3.5c0.3,0.3,0.6,0.5,1,0.7
				c0.2,0.1,0.8,0.4,1,0.1c0,0,0,0,0-0.1c0,0,0,0,0-0.1s-0.1-0.2-0.2-0.3c0-0.1-0.1-0.1-0.1-0.2s-0.1-0.1-0.1-0.2l0,0l0,0l0,0l0,0
				l0,0l0,0c-0.1-0.1-0.1-0.2-0.2-0.4c-0.1-0.3-0.2-0.7-0.3-1.1l0,0c0-0.1,0-0.1,0-0.2C960.5,252,960.4,251.4,960,250.9z"/>
			<path class="st19" d="M968.2,260.7c-0.6,1.7,0.4,3.1,1.3,4.5c1.1,1.6,2.1,3.1,1,5c2.2-0.9,3.3-3.7,2.3-5.9
				c-0.6-1.4-2-2.1-3.3-2.8C969.1,261.2,968.6,261,968.2,260.7z"/>
			<path class="st19" d="M961.7,264.7c-0.4,0.2-0.8,0.4-1.1,0.6c0.8-0.3,1.6-0.5,2.4-0.5c0.2,0,0.3,0,0.5,0c0.3,0,0.5,0,0.8,0
				c0.5,0,0.9-0.1,1.3-0.3c0.5-0.2,0.8-0.4,1.2-0.8s0.6-0.8,0.7-1.2c0.1-0.5,0.1-0.9,0-1.4s-0.3-0.8-0.7-1.2
				c0.2,0.4,0.2,0.8,0.3,1.2c0,0.4,0,0.8-0.2,1.1c-0.1,0.4-0.3,0.7-0.6,0.9c-0.3,0.2-0.6,0.5-1,0.6c-0.5,0.2-1,0.3-1.6,0.4
				c-0.3,0-0.5,0.1-0.8,0.1C962.5,264.4,962.1,264.5,961.7,264.7z"/>
			<path class="st19" d="M968.7,271.6L968.7,271.6L968.7,271.6L968.7,271.6c-0.2,0.1-0.3,0.2-0.4,0.3c-0.1,0.1-0.3,0.2-0.4,0.2
				c-0.3,0.2-0.7,0.2-1,0.2c-1,0-1.6-0.7-2-1.5c-0.1-0.2-0.2-0.4-0.3-0.6l0,0c-0.2-0.4-0.3-0.7-0.5-1c-0.5-0.8-1.2-1.4-2.2-1.2
				c-0.4,0-0.7,0.2-0.9,0.5c-0.5,0.9,0.2,2.1,1.2,1.9c0.1,0,0.2,0,0.2-0.1s0.2-0.1,0.2-0.1c0.1-0.1,0.2-0.3,0.3-0.5s0.1-0.4,0-0.6
				c0-0.2-0.2-0.4-0.3-0.5c0.2,0.1,0.3,0.2,0.4,0.5c0.1,0.2,0.1,0.4,0.1,0.6s-0.1,0.4-0.3,0.6c-0.1,0.1-0.2,0.2-0.3,0.2
				c-0.1,0.1-0.2,0.1-0.3,0.1c-0.2,0.1-0.5,0.1-0.7,0.1c-0.3,0-0.7-0.2-0.9-0.4l-0.1-0.1c-0.2-0.2-0.3-0.3-0.5-0.5
				c-0.1-0.1-0.1-0.1-0.2-0.2c-0.3-0.3-0.7-0.6-1.1-0.8c-0.3-0.1-0.6-0.2-0.9-0.3c-0.2,0-0.3-0.1-0.5-0.1c0,0,0,0-0.1,0l0,0l0,0l0,0
				l0,0c-0.1,0-0.3-0.1-0.4,0c0.5-0.5,1-0.9,1.6-1.2c0.6-0.4,1.2-0.6,1.9-0.8c0.7-0.2,1.4-0.2,2.1-0.2c0.4,0,0.7,0.1,1,0.3
				c0.3,0.1,0.7,0.3,1,0.6c0.3,0.3,0.5,0.6,0.7,0.9c0.1,0.3,0.2,0.7,0.3,1c0,0.2,0.1,0.4,0.1,0.6c0.1,1,0.3,2.1,1.4,2.3
				c0.1,0,0.1,0,0.2,0h0.2c0.2,0,0.3,0,0.5-0.1C968.1,271.8,968.4,271.7,968.7,271.6z"/>
		</g>
	</g>
</g>
<g>
	<circle class="st12" cx="496.1" cy="493.6" r="19"/>
	<g>
		
			<ellipse transform="matrix(0.1602 -0.9871 0.9871 0.1602 -70.3707 904.0939)" class="st13" cx="496.1" cy="493.4" rx="11.2" ry="11.2"/>
		<g>
			<path class="st14" d="M507.4,482.7c2.7,2.8,4.3,6.6,4.3,10.7c0,4.2-1.6,8-4.3,10.7"/>
			<path class="st14" d="M484.8,504.1c-2.6-2.8-4.2-6.6-4.2-10.7s1.6-7.9,4.2-10.7"/>
		</g>
	</g>
</g>
<g>
	<circle class="st12" cx="74" cy="361.8" r="19"/>
	<g>
		
			<ellipse transform="matrix(9.089787e-03 -1 1 9.089787e-03 -288.1268 432.4422)" class="st13" cx="74.1" cy="361.6" rx="11.2" ry="11.2"/>
		<g>
			<path class="st14" d="M85.4,350.9c2.7,2.8,4.3,6.6,4.3,10.7c0,4.2-1.6,8-4.3,10.8"/>
			<path class="st14" d="M62.7,372.2c-2.6-2.8-4.2-6.5-4.2-10.6s1.6-7.9,4.2-10.7"/>
		</g>
	</g>
</g>
<g>
	<circle class="st12" cx="357.9" cy="62.3" r="19"/>
	<g>
		<circle class="st13" cx="358" cy="62.1" r="11.2"/>
		<g>
			<path class="st14" d="M369.3,51.4c2.7,2.8,4.3,6.6,4.3,10.7c0,4.2-1.6,8-4.3,10.8"/>
			<path class="st14" d="M346.6,72.7c-2.6-2.8-4.2-6.5-4.2-10.6s1.6-7.9,4.2-10.7"/>
		</g>
	</g>
</g>
<g>
	
		<linearGradient id="SVGID_00000091729366541940651640000008643080661424105369_" gradientUnits="userSpaceOnUse" x1="882.1589" y1="272.7444" x2="967.9589" y2="272.7444" gradientTransform="matrix(1 0 0 -1 0 412)">
		<stop  offset="0" style="stop-color:#FFFFFF"/>
		<stop  offset="1" style="stop-color:#F7F5FF"/>
	</linearGradient>
	
		<circle style="fill:url(#SVGID_00000091729366541940651640000008643080661424105369_);stroke:#353535;stroke-width:2;stroke-miterlimit:10;" cx="925.1" cy="139.3" r="42.9"/>
	<text transform="matrix(1 0 0 1 891.3994 135.1171)" class="st3 st4 st5">Options</text>
	<text transform="matrix(1 0 0 1 900.1995 154.3172)" class="st3 st4 st5">buyer</text>
</g>
<g>
	<circle class="st12" cx="887.4" cy="94.4" r="19"/>
	<g>
		<circle class="st13" cx="887.4" cy="94.2" r="11.2"/>
		<g>
			<path class="st14" d="M898.7,83.5c2.7,2.8,4.3,6.6,4.3,10.7c0,4.2-1.6,8-4.3,10.7"/>
			<path class="st14" d="M876.1,104.9c-2.6-2.8-4.2-6.6-4.2-10.7s1.6-7.9,4.2-10.7"/>
		</g>
	</g>
</g>
<g>
	<g>
		<g>
			<line class="st21" x1="155" y1="400.7" x2="232" y2="400.7"/>
			<g>
				<polygon class="st22" points="229.1,410.7 246.4,400.7 229.1,390.7 				"/>
			</g>
		</g>
	</g>
</g>
<path class="st21" d="M279.4,204.7"/>
<g>
	<g>
		<line class="st21" x1="556.1" y1="325.1" x2="951.1" y2="325.1"/>
		<g>
			<polygon class="st22" points="559,335.1 541.7,325.1 559,315.1 			"/>
		</g>
	</g>
</g>
<g>
	<g>
		<line class="st21" x1="910.5" y1="365.4" x2="512.7" y2="365.4"/>
		<g>
			<polygon class="st22" points="907.6,355.4 924.8,365.4 907.6,375.4 			"/>
		</g>
	</g>
</g>
<rect x="955.3" y="315.4" class="st23" width="17.8" height="17.8"/>
<g>
	<rect x="514.4" y="316" class="st24" width="17.8" height="17.8"/>
	<path class="st25" d="M511,316.5c1.1-0.3,2-1.2,2.6-2.1c0.6-1,0.9-2.1,1.2-3.2"/>
	<path class="st25" d="M511.3,334.5c2.9,0.4,5.5,2.4,6.5,5.2"/>
</g>
<rect x="491.4" y="356.3" class="st23" width="17.8" height="17.8"/>
<g>
	<polygon class="st24" points="934.1,356.3 951.9,356.3 951.9,374.1 934.1,374.1 	"/>
	<path class="st25" d="M955.3,373.7c-1.1,0.3-2,1.2-2.6,2.1s-0.9,2.1-1.2,3.2"/>
	<path class="st25" d="M955,355.6c-2.9-0.4-5.5-2.4-6.5-5.2"/>
</g>
<text transform="matrix(1 0 0 1 254.3946 549.2424)"><tspan x="0" y="0" class="st4 st5">Sell options relocating </tspan><tspan x="-19.2" y="19.2" class="st4 st5">liquidity to a Uni v3 pool</tspan></text>
<g>
	<g>
		<path class="st26" d="M533.8,495.6c0-53.6,7-115.7,78.5-119.1"/>
		<g>
			<polygon points="610.3,384.1 623.1,376.4 610.1,369.2 			"/>
		</g>
	</g>
</g>
<g>
	<g>
		<path class="st26" d="M918.2,197.5c0,53.6-7,115.7-78.5,119.1"/>
		<g>
			<polygon points="841.7,309 828.9,316.7 841.9,323.9 			"/>
		</g>
	</g>
</g>
<g>
	<text transform="matrix(1 0 0 1 980.5076 112.3558)"><tspan x="0" y="0" class="st4 st5">Buy options by moving</tspan><tspan x="0" y="19.2" class="st4 st5">liquidity out of the </tspan><tspan x="0" y="38.4" class="st4 st5">Uni v3 pool</tspan></text>
</g>
<g>
	<text transform="matrix(1 0 0 1 147.8043 92.8029)"><tspan x="0" y="0" class="st4 st5">Ensures the health </tspan><tspan x="38.4" y="19.2" class="st4 st5">of the protocol</tspan></text>
</g>
<g>
	<text transform="matrix(1 0 0 1 61.6322 471.2944)"><tspan x="0" y="0" class="st4 st5">Provide fungible</tspan><tspan x="0" y="19.2" class="st4 st5">liquidity to the </tspan><tspan x="0" y="38.4" class="st4 st5">options market</tspan></text>
</g>
<line class="st1" x1="882.2" y1="139.3" x2="440.2" y2="99.7"/>
<text transform="matrix(0.996 8.913442e-02 -8.913442e-02 0.996 578.538 107.0688)" class="st4 st5">checkCollateral()</text>
<rect x="1007.7" y="492.7" class="st27" width="261.7" height="76.7"/>
<g>
	<circle class="st28" cx="1033.1" cy="515.4" r="11"/>
	<g>
		<path class="st19" d="M1030.4,511.1c0,0.1-0.1,0.3-0.2,0.4c-0.2,0.2-0.4,0.4-0.6,0.5c-0.2,0.1-0.5,0.2-0.7,0.2h-0.1l0,0
			c-0.2,0-0.3,0.1-0.4,0.2c-0.1,0.1-0.2,0.2-0.2,0.4c0,0.1,0,0.1,0,0.2c0,0.1,0,0.2,0,0.4c0,0.1,0,0.2,0,0.3c0,0.4-0.2,0.9-0.4,1.2
			c0,0.1-0.1,0.2-0.1,0.2l0,0c-0.2,0.4-0.4,0.8-0.3,1.3c0,0.4,0.2,0.6,0.5,0.9c0.1,0.1,0.3,0.2,0.5,0.4l0,0c0.5,0.3,1,0.7,0.8,1.6
			c-0.1,0.7-1.3,1.5-3,1.7c0.2,0-0.2-0.6-0.2-0.7l0,0c0-0.1-0.1-0.1-0.1-0.2c-0.1-0.2-0.3-0.4-0.4-0.6c-0.3-0.6-0.4-1.3-0.3-1.9
			c0.1-0.6,0.5-1,0.9-1.5c0.1-0.1,0.1-0.1,0.2-0.2c0.5-0.6,1-1.4,1.1-2.2c0-0.1,0-0.1,0-0.2c0-0.1,0-0.3,0.1-0.5
			c0-0.3,0.1-0.5,0.2-0.8c0.1-0.2,0.2-0.3,0.3-0.4s0.1-0.1,0.1-0.2s0-0.2,0-0.3l-2.6-4.8l3.8,4.7c0,0,0.1,0.1,0.2,0.1s0.1,0,0.2,0
			c0.1,0,0.1,0,0.2,0s0.1-0.1,0.2-0.1c0-0.1,0.1-0.1,0.1-0.2s0-0.1-0.1-0.2c-0.2-0.2-0.4-0.5-0.5-0.7l0,0c-0.1-0.1-0.1-0.2-0.2-0.3
			l-1-1.2l-2.4-2.4l-3.9-4.8l4.1,4.5l2,2.3l1,1.1c0.1,0.1,0.2,0.2,0.3,0.3l0,0c0.2,0.3,0.5,0.5,0.7,0.8l0.1,0.1v0.1
			C1030.4,510.9,1030.4,511,1030.4,511.1z"/>
		<path class="st19" d="M1040.2,512.7L1040.2,512.7c0-0.5-0.3-1.3-0.9-2.1l0,0c-0.2-0.2-0.4-0.5-0.6-0.7l-0.1-0.1
			c-0.3-0.3-0.6-0.5-1-0.7l0,0c-1.1-0.6-2.5-0.9-4.2-0.5c-0.2-0.3-0.5-0.5-0.8-0.8c-0.4-0.4-0.9-0.7-1.4-0.9
			c-0.5-0.2-1.1-0.3-1.6-0.2c0.5,0,1,0.2,1.5,0.4c0.5,0.2,0.9,0.6,1.2,1c0.4,0.4,0.7,0.8,1,1.2l0.1,0.1c0.3,0.4,0.6,0.8,1,1.2
			c0.2,0.2,0.5,0.4,0.7,0.5c0.1,0,0.1,0.1,0.2,0.1s0.1,0.1,0.2,0.1s0.3,0.1,0.4,0.1c0.5,0.2,1.1,0.2,1.6,0.2c0.1,0,0.1,0,0.2,0l0,0
			c0.2,0,0.4,0,0.6,0c0.3,0,0.5,0.1,0.8,0.1c0.4,0.1,0.7,0.3,0.9,0.6C1040.1,512.5,1040.1,512.6,1040.2,512.7z"/>
		<path class="st19" d="M1031.9,512.8c0.4,0.8-0.5,1-1,1.1c-0.7,0.1-0.8-0.3-0.7-0.8c0-0.2,0.1-0.4,0.3-0.5c0.1-0.1,0.3-0.2,0.5-0.2
			c0.2,0,0.4,0,0.5,0.1C1031.7,512.5,1031.8,512.7,1031.9,512.8z"/>
		<path class="st19" d="M1037.9,514.9c-1.8-0.7-3.6-1.5-3.3-3.5c0.6,0.6,1.5,0.8,2.5,0.9c0.9,0.1,1.9,0.3,2.7,0.8
			c2,1.2,1.7,3.6,1,4.5C1040.9,516.1,1039.5,515.5,1037.9,514.9z"/>
		<path class="st19" d="M1038.5,509.8L1038.5,509.8L1038.5,509.8L1038.5,509.8L1038.5,509.8C1038.5,509.8,1038.6,509.9,1038.5,509.8
			C1038.6,509.9,1038.5,509.8,1038.5,509.8L1038.5,509.8L1038.5,509.8L1038.5,509.8L1038.5,509.8z"/>
		<path class="st19" d="M1030.8,507.7c-0.3-0.3-0.7-0.5-1.2-0.6c0,0.1,0,0.2,0,0.3c0,0.9,0.3,1.9,0.9,2.6c0.2,0.2,0.4,0.4,0.7,0.5
			c0.2,0.1,0.6,0.3,0.7,0.1l0,0c0,0,0,0,0-0.1s-0.1-0.1-0.1-0.2l-0.1-0.1c0,0,0-0.1-0.1-0.1l0,0l0,0l0,0l0,0l0,0l0,0
			c0-0.1-0.1-0.2-0.1-0.3c-0.1-0.2-0.2-0.5-0.2-0.8l0,0c0,0,0-0.1,0-0.2C1031.2,508.5,1031.1,508.1,1030.8,507.7z"/>
		<path class="st19" d="M1036.9,515c-0.5,1.3,0.3,2.3,1,3.4c0.8,1.2,1.6,2.4,0.8,3.8c1.7-0.7,2.4-2.8,1.8-4.4
			c-0.4-1-1.5-1.6-2.5-2.1C1037.6,515.4,1037.3,515.2,1036.9,515z"/>
		<path class="st19" d="M1032.1,518c-0.3,0.1-0.6,0.3-0.8,0.5c0.6-0.2,1.2-0.3,1.8-0.4c0.1,0,0.2,0,0.3,0c0.2,0,0.4,0,0.6,0
			c0.3,0,0.7-0.1,1-0.2c0.3-0.1,0.6-0.3,0.9-0.6c0.3-0.3,0.4-0.6,0.5-0.9s0.1-0.7,0-1s-0.3-0.6-0.5-0.9c0.1,0.3,0.2,0.6,0.2,0.9
			s0,0.6-0.1,0.9s-0.2,0.5-0.5,0.7c-0.2,0.2-0.5,0.3-0.7,0.4c-0.4,0.1-0.8,0.2-1.2,0.3c-0.2,0-0.4,0.1-0.6,0.1
			C1032.7,517.8,1032.4,517.9,1032.1,518z"/>
		<path class="st19" d="M1037.3,523.2L1037.3,523.2L1037.3,523.2L1037.3,523.2c-0.1,0.1-0.2,0.2-0.3,0.2c-0.1,0.1-0.2,0.1-0.3,0.2
			c-0.2,0.1-0.5,0.2-0.8,0.2c-0.7,0-1.2-0.5-1.5-1.2c-0.1-0.2-0.1-0.3-0.2-0.5l0,0c-0.1-0.3-0.2-0.5-0.4-0.8c-0.4-0.6-0.9-1-1.6-0.9
			c-0.3,0-0.5,0.2-0.7,0.4c-0.4,0.6,0.2,1.5,0.9,1.4c0.1,0,0.1,0,0.2,0c0.1,0,0.1-0.1,0.2-0.1c0.1-0.1,0.2-0.2,0.2-0.3
			s0.1-0.3,0-0.4c0-0.1-0.1-0.3-0.2-0.4c0.1,0.1,0.3,0.2,0.3,0.3s0.1,0.3,0,0.5c0,0.2-0.1,0.3-0.2,0.5c-0.1,0.1-0.1,0.1-0.2,0.2
			c-0.1,0-0.2,0.1-0.2,0.1c-0.2,0.1-0.4,0.1-0.5,0.1c-0.2,0-0.5-0.1-0.7-0.3l-0.1-0.1c-0.1-0.1-0.3-0.2-0.4-0.4c0,0-0.1-0.1-0.1-0.2
			c-0.2-0.2-0.5-0.5-0.8-0.6c-0.2-0.1-0.5-0.2-0.7-0.2c-0.1,0-0.2,0-0.4-0.1c0,0,0,0-0.1,0l0,0l0,0l0,0l0,0c-0.1,0-0.3,0-0.3,0
			c0.4-0.3,0.8-0.6,1.2-0.9c0.4-0.3,0.9-0.5,1.4-0.6c0.5-0.1,1-0.2,1.6-0.1c0.3,0,0.5,0.1,0.8,0.2c0.3,0.1,0.5,0.3,0.7,0.5
			c0.2,0.2,0.4,0.4,0.5,0.7c0.1,0.2,0.2,0.5,0.2,0.8c0,0.1,0,0.3,0.1,0.5c0.1,0.7,0.2,1.6,1.1,1.7c0,0,0.1,0,0.2,0h0.2
			c0.1,0,0.2,0,0.4,0C1036.9,523.4,1037.1,523.3,1037.3,523.2z"/>
	</g>
</g>
<g>
	
		<ellipse transform="matrix(9.089787e-03 -1 1 9.089787e-03 477.4946 1573.8595)" class="st12" cx="1032.9" cy="546" rx="14.2" ry="14.2"/>
	<g>
		<circle class="st29" cx="1032.9" cy="545.8" r="8.4"/>
		<g>
			<path class="st30" d="M1041.3,537.7c2,2.1,3.2,4.9,3.2,8s-1.2,6-3.2,8.1"/>
			<path class="st30" d="M1024.4,553.8c-1.9-2.1-3.1-4.9-3.1-8s1.2-5.9,3.2-8"/>
		</g>
	</g>
</g>
<text transform="matrix(1 0 0 1 1058.0844 520.9766)" class="st3 st4 st5">Uniswap v3 ecosystem</text>
<text transform="matrix(1 0 0 1 1057.6993 551.2426)" class="st3 st4 st5">Panoptic ecosystem</text>
<g>
	<g>
		
			<image style="overflow:visible;opacity:0.5;" width="891" height="599" xlink:href="3CD463165F27462A.png"  transform="matrix(0.24 0 0 0.24 614.6321 378.92)">
		</image>
		<g>
			<rect x="626.7" y="389" class="st31" width="183.7" height="113.7"/>
		</g>
	</g>
	<g>
		<defs>
			<rect id="SVGID_00000025405020669197496470000006841332651739858565_" x="636.3" y="394.2" width="156.4" height="92.7"/>
		</defs>
		<clipPath id="SVGID_00000100377151029581208150000010406370392328539043_">
			<use xlink:href="#SVGID_00000025405020669197496470000006841332651739858565_"  style="overflow:visible;"/>
		</clipPath>
		<g style="clip-path:url(#SVGID_00000100377151029581208150000010406370392328539043_);">
			<polyline class="st33" points="786.8,486.9 781,486.9 763.4,486.9 720.4,486.9 714.5,486.9 675.4,486.9 			"/>
			<polyline class="st33" points="675.4,486.9 675.4,440.5 714.5,440.5 714.5,433.6 720.4,433.6 720.4,440.5 763.4,440.5 
				763.4,486.9 781,486.9 			"/>
			<polyline class="st34" points="763.4,486.9 720.4,486.9 714.5,486.9 675.4,486.9 			"/>
			<polyline class="st34" points="675.4,486.9 675.4,440.5 714.5,440.5 714.5,433.6 720.4,433.6 720.4,440.5 763.4,440.5 
				763.4,486.9 781,486.9 			"/>
		</g>
	</g>
	<g>
		<defs>
			<rect id="SVGID_00000026160761676708038060000003830665129915637899_" x="636.3" y="394.2" width="156.4" height="92.7"/>
		</defs>
		<clipPath id="SVGID_00000113350656976479238210000014731153415227267251_">
			<use xlink:href="#SVGID_00000026160761676708038060000003830665129915637899_"  style="overflow:visible;"/>
		</clipPath>
		
			<polyline style="clip-path:url(#SVGID_00000113350656976479238210000014731153415227267251_);fill:none;stroke:#1F72E5;stroke-width:2;stroke-linecap:round;stroke-linejoin:round;stroke-miterlimit:10;" points="
			675.4,486.9 675.4,440.5 714.5,440.5 714.5,433.6 720.4,433.6 720.4,440.5 763.4,440.5 763.4,486.9 		"/>
	</g>
	<g>
		<defs>
			<rect id="SVGID_00000114752971580011205780000014552248000033250690_" x="636.3" y="394.2" width="156.4" height="92.7"/>
		</defs>
		<clipPath id="SVGID_00000127728608407785824970000003752297653016364418_">
			<use xlink:href="#SVGID_00000114752971580011205780000014552248000033250690_"  style="overflow:visible;"/>
		</clipPath>
	</g>
	<g>
		<defs>
			<rect id="SVGID_00000056428607838550190110000002025466837765903488_" x="636.3" y="394.2" width="156.4" height="92.7"/>
		</defs>
		<clipPath id="SVGID_00000013883428171382228740000005212689940094074278_">
			<use xlink:href="#SVGID_00000056428607838550190110000002025466837765903488_"  style="overflow:visible;"/>
		</clipPath>
		
			<line style="clip-path:url(#SVGID_00000013883428171382228740000005212689940094074278_);fill:none;stroke:#FF007B;stroke-width:2;stroke-linecap:round;stroke-linejoin:round;stroke-miterlimit:10;" x1="753.6" y1="533.2" x2="753.6" y2="414.2"/>
	</g>
	<line class="st37" x1="636.3" y1="486.9" x2="792.7" y2="486.9"/>
	<g>
		<path class="st38" d="M656.7,398.5c26.8-8.5,45.4-0.1,55.9,25.1"/>
		<polygon class="st39" points="714.5,419 713.9,427 707.8,421.8 		"/>
		<polygon class="st40" points="714.5,419 713.9,427 707.8,421.8 		"/>
	</g>
</g>
<g>
	<g>
		
			<image style="overflow:visible;opacity:0.5;" width="891" height="600" xlink:href="3CD463165F274629.png"  transform="matrix(0.24 0 0 0.24 669.5521 172.12)">
		</image>
		<g>
			<rect x="681.6" y="182.3" class="st31" width="183.7" height="113.7"/>
		</g>
	</g>
	<g>
		<defs>
			<rect id="SVGID_00000117639806742246222200000006828794653546274481_" x="698" y="189.7" width="156.4" height="92.7"/>
		</defs>
		<clipPath id="SVGID_00000001638779978621763730000010256659597912039358_">
			<use xlink:href="#SVGID_00000117639806742246222200000006828794653546274481_"  style="overflow:visible;"/>
		</clipPath>
		<g style="clip-path:url(#SVGID_00000001638779978621763730000010256659597912039358_);">
			<polyline class="st33" points="848.5,282.5 842.6,282.5 825.1,282.5 782,282.5 776.2,282.5 737.1,282.5 			"/>
			<polyline class="st33" points="737.1,282.5 737.1,236.1 776.2,236.1 776.2,243.1 782,243.1 782,236.1 825.1,236.1 825.1,282.5 
				842.6,282.5 			"/>
			<polyline class="st34" points="825.1,282.5 782,282.5 776.2,282.5 737.1,282.5 			"/>
			<polyline class="st34" points="737.1,282.5 737.1,236.1 776.2,236.1 776.2,243.1 782,243.1 782,236.1 825.1,236.1 825.1,282.5 
				842.6,282.5 			"/>
		</g>
	</g>
	<g>
		<defs>
			<rect id="SVGID_00000041981882105895843850000016399969583127076757_" x="698" y="189.7" width="156.4" height="92.7"/>
		</defs>
		<clipPath id="SVGID_00000152222576299458304450000004504633665165473673_">
			<use xlink:href="#SVGID_00000041981882105895843850000016399969583127076757_"  style="overflow:visible;"/>
		</clipPath>
		
			<polyline style="clip-path:url(#SVGID_00000152222576299458304450000004504633665165473673_);fill:none;stroke:#1F72E5;stroke-width:2;stroke-linecap:round;stroke-linejoin:round;stroke-miterlimit:10;" points="
			737.1,282.5 737.1,236.1 776.2,236.1 776.2,243.1 782,243.1 782,236.1 825.1,236.1 825.1,282.5 		"/>
	</g>
	<g>
		<defs>
			<rect id="SVGID_00000036946941835635320830000010866883081084524168_" x="698" y="189.7" width="156.4" height="92.7"/>
		</defs>
		<clipPath id="SVGID_00000116951073686118999920000011150956273602920584_">
			<use xlink:href="#SVGID_00000036946941835635320830000010866883081084524168_"  style="overflow:visible;"/>
		</clipPath>
	</g>
	<g>
		<defs>
			<rect id="SVGID_00000081619002989059091400000014031932637806713472_" x="698" y="189.7" width="156.4" height="92.7"/>
		</defs>
		<clipPath id="SVGID_00000096749557570649570370000002571497762734883758_">
			<use xlink:href="#SVGID_00000081619002989059091400000014031932637806713472_"  style="overflow:visible;"/>
		</clipPath>
		
			<line style="clip-path:url(#SVGID_00000096749557570649570370000002571497762734883758_);fill:none;stroke:#FF007B;stroke-width:2;stroke-linecap:round;stroke-linejoin:round;stroke-miterlimit:10;" x1="815.3" y1="328.8" x2="815.3" y2="189.7"/>
	</g>
	<line class="st37" x1="698" y1="282.5" x2="854.4" y2="282.5"/>
	<path class="st38" d="M775.6,225.3c-18.7-20.9-39-23.2-60.9-6.8"/>
	<polygon class="st39" points="715.8,212.6 712.2,219.8 720.1,218.3 	"/>
	<polygon class="st40" points="715.8,212.6 712.2,219.8 720.1,218.3 	"/>
	
		<rect x="702.9" y="224.8" transform="matrix(0.7859 -0.6184 0.6184 0.7859 10.1153 485.5161)" class="st44" width="6.6" height="6.6"/>
</g>
<text transform="matrix(1 0 0 1 687.8231 197.4739)" class="st3 st4 st5">buying</text>
<text transform="matrix(1 0 0 1 732.7917 403.8426)" class="st3 st4 st5">selling</text>
</svg>