<svg id="Layer_1" data-name="Layer 1" xmlns="http://www.w3.org/2000/svg" xmlns:xlink="http://www.w3.org/1999/xlink" viewBox="0 0 246.99 126.94"><defs><style>.cls-1,.cls-10,.cls-11,.cls-13,.cls-17,.cls-22,.cls-24,.cls-25,.cls-26,.cls-7,.cls-8,.cls-9{fill:none;}.cls-2{fill:#fff;stroke:#1d1233;stroke-width:0.66px;}.cls-11,.cls-2{stroke-miterlimit:10;}.cls-3{clip-path:url(#clip-path);}.cls-4{fill:#fdfeff;}.cls-5{clip-path:url(#clip-path-2);}.cls-6{fill:#1f72e5;}.cls-6,.cls-7{opacity:0.25;}.cls-7,.cls-8,.cls-9{stroke:#1f72e5;}.cls-10,.cls-13,.cls-17,.cls-22,.cls-24,.cls-25,.cls-26,.cls-7,.cls-8,.cls-9{stroke-linejoin:round;}.cls-13,.cls-22,.cls-24,.cls-7{stroke-width:0.25px;}.cls-10,.cls-17,.cls-25,.cls-26,.cls-8,.cls-9{stroke-linecap:round;}.cls-11,.cls-17,.cls-8,.cls-9{stroke-width:0.5px;}.cls-9{stroke-dasharray:0.5 1;}.cls-10{stroke:#ff007b;}.cls-10,.cls-26{stroke-width:0.38px;}.cls-11,.cls-13,.cls-17,.cls-26{stroke:#231f20;}.cls-11{stroke-linecap:square;}.cls-12,.cls-14,.cls-15,.cls-16,.cls-19{fill:#231f20;}.cls-14{font-size:6px;}.cls-14,.cls-15,.cls-16,.cls-19{font-family:Helvetica-Light, Helvetica;font-weight:300;}.cls-15{font-size:7px;}.cls-16{font-size:5px;}.cls-18{fill:#35aaaf;}.cls-19{font-size:9px;}.cls-20{clip-path:url(#clip-path-6);}.cls-21{fill:#47b247;}.cls-21,.cls-22,.cls-23,.cls-24{opacity:0.13;}.cls-22{stroke:#47b247;}.cls-23{fill:#cc333f;}.cls-24{stroke:#cc333f;}.cls-25{stroke:#fff;opacity:0.8;}.cls-27{clip-path:url(#clip-path-10);}.cls-28{clip-path:url(#clip-path-14);}</style><clipPath id="clip-path" transform="translate(-1 -1.19)"><rect class="cls-1" width="251.09" height="126.63"/></clipPath><clipPath id="clip-path-2" transform="translate(-1 -1.19)"><rect class="cls-1" x="38.94" y="21.58" width="78.19" height="46.35"/></clipPath><clipPath id="clip-path-6" transform="translate(-1 -1.19)"><rect class="cls-1" x="38.94" y="90.53" width="78.19" height="23.37"/></clipPath><clipPath id="clip-path-10" transform="translate(-1 -1.19)"><rect class="cls-1" x="156.85" y="21.58" width="78.19" height="46.35"/></clipPath><clipPath id="clip-path-14" transform="translate(-1 -1.19)"><rect class="cls-1" x="156.85" y="90.53" width="78.19" height="23.37"/></clipPath></defs><path class="cls-2" d="M12.33,1.52H236.67a11,11,0,0,1,11,11V113.74a11,11,0,0,1-11,11H12.33a11,11,0,0,1-11-11V12.52A11,11,0,0,1,12.33,1.52Z" transform="translate(-1 -1.19)"/><g class="cls-3"><rect class="cls-4" x="37.93" y="20.39" width="78.19" height="46.35"/><g class="cls-5"><polygon class="cls-6" points="40.87 66.74 40.87 66.74 40.87 31.98 43.8 31.98 43.8 66.74 57.48 66.74 57.48 43.57 77.03 43.57 77.03 47.04 79.96 47.04 79.96 43.57 101.47 43.57 101.47 66.74 110.26 66.74 110.26 28.5 113.19 28.5 113.19 66.74 110.26 66.74 101.47 66.74 79.96 66.74 77.03 66.74 57.48 66.74 43.8 66.74 40.87 66.74"/><polygon class="cls-7" points="40.87 66.74 40.87 66.74 40.87 31.98 43.8 31.98 43.8 66.74 57.48 66.74 57.48 43.57 77.03 43.57 77.03 47.04 79.96 47.04 79.96 43.57 101.47 43.57 101.47 66.74 110.26 66.74 110.26 28.5 113.19 28.5 113.19 66.74 110.26 66.74 101.47 66.74 79.96 66.74 77.03 66.74 57.48 66.74 43.8 66.74 40.87 66.74"/></g><g class="cls-5"><polyline class="cls-8" points="40.87 66.74 40.87 31.98 43.8 31.98 43.8 66.74 57.48 66.74 57.48 43.57 77.03 43.57 77.03 47.04 79.96 47.04 79.96 43.57 101.47 43.57 101.47 66.74 110.26 66.74 110.26 31.98 113.19 31.98 113.19 66.74"/></g><g class="cls-5"><polyline class="cls-9" points="110.26 66.74 110.26 28.5 113.19 28.5 113.19 66.74"/></g><g class="cls-5"><line class="cls-10" x1="67.26" y1="89.92" x2="67.26" y2="20.39"/></g><line class="cls-11" x1="37.93" y1="66.74" x2="37.93" y2="20.39"/><line class="cls-11" x1="37.93" y1="66.74" x2="116.13" y2="66.74"/><line class="cls-12" x1="42.33" y1="66.74" x2="42.33" y2="65.74"/><line class="cls-13" x1="42.33" y1="66.74" x2="42.33" y2="65.74"/><text class="cls-14" transform="translate(30.89 72.52)">Panoptic</text><text class="cls-14" transform="translate(36.54 78.8)">Pool</text><line class="cls-12" x1="67.26" y1="66.74" x2="67.26" y2="65.74"/><line class="cls-13" x1="67.26" y1="66.74" x2="67.26" y2="65.74"/><text class="cls-14" transform="translate(65.36 72.52)">S</text><line class="cls-12" x1="78.5" y1="66.74" x2="78.5" y2="65.74"/><line class="cls-13" x1="78.5" y1="66.74" x2="78.5" y2="65.74"/><text class="cls-14" transform="translate(76.55 72.52)">K</text><line class="cls-12" x1="111.73" y1="66.74" x2="111.73" y2="65.74"/><line class="cls-13" x1="111.73" y1="66.74" x2="111.73" y2="65.74"/><text class="cls-14" transform="translate(100.28 72.52)">Panoptic</text><text class="cls-14" transform="translate(105.94 78.8)">Pool</text><text class="cls-15" transform="translate(34.1 55.95) rotate(-90)">Liquidity</text><text class="cls-16" transform="translate(72.14 31.98)">1 ETH</text><path class="cls-17" d="M80.75,42.9Q89.24,23.43,108.86,30" transform="translate(-1 -1.19)"/><polygon class="cls-18" points="105.01 25.96 107.85 28.81 103.87 29.37 105.01 25.96"/><polygon class="cls-17" points="105.01 25.96 107.85 28.81 103.87 29.37 105.01 25.96"/><text class="cls-19" transform="translate(52.72 14.39)">Buying a Call</text><rect class="cls-4" x="37.93" y="89.34" width="78.19" height="23.37"/><g class="cls-20"><polygon class="cls-21" points="119.06 108.46 119.06 69.16 112.71 69.16 79.41 108.46 112.71 108.46 119.06 108.46"/><polygon class="cls-22" points="119.06 108.46 119.06 69.16 112.71 69.16 79.41 108.46 112.71 108.46 119.06 108.46"/></g><g class="cls-20"><polygon class="cls-23" points="79.41 108.46 79.41 108.46 78.5 109.52 40.87 109.52 40.87 108.46 78.5 108.46 79.41 108.46"/><polygon class="cls-24" points="79.41 108.46 79.41 108.46 78.5 109.52 40.87 109.52 40.87 108.46 78.5 108.46 79.41 108.46"/></g><g class="cls-20"><polyline class="cls-25" points="119.06 69.16 112.71 69.16 78.5 109.52 40.87 109.52"/></g><g class="cls-20"><polyline class="cls-26" points="119.06 69.16 112.71 69.16 78.5 109.52 40.87 109.52"/></g><line class="cls-11" x1="37.93" y1="112.71" x2="37.93" y2="89.34"/><line class="cls-11" x1="37.93" y1="108.46" x2="116.13" y2="108.46"/><line class="cls-12" x1="67.26" y1="108.46" x2="67.26" y2="107.46"/><line class="cls-13" x1="67.26" y1="108.46" x2="67.26" y2="107.46"/><text class="cls-14" transform="translate(65.36 115.3)">S</text><line class="cls-12" x1="78.5" y1="108.46" x2="78.5" y2="107.46"/><line class="cls-13" x1="78.5" y1="108.46" x2="78.5" y2="107.46"/><text class="cls-14" transform="translate(76.55 115.3)">K</text><line class="cls-12" x1="37.93" y1="109.52" x2="38.93" y2="109.52"/><line class="cls-13" x1="37.93" y1="109.52" x2="38.93" y2="109.52"/><text class="cls-14" transform="translate(8 111.66)">Premium P</text><text class="cls-14" transform="translate(96.58 106.33)">Profit</text><rect class="cls-4" x="155.85" y="20.39" width="78.19" height="46.35"/><g class="cls-27"><polygon class="cls-6" points="158.78 66.74 158.78 66.74 158.78 31.98 161.71 31.98 161.71 66.74 175.4 66.74 175.4 43.57 194.94 43.57 194.94 40.09 197.88 40.09 197.88 43.57 219.38 43.57 219.38 66.74 228.18 66.74 228.18 31.98 231.11 31.98 231.11 66.74 228.18 66.74 219.38 66.74 197.88 66.74 194.94 66.74 175.4 66.74 161.71 66.74 158.78 66.74"/><polygon class="cls-7" points="158.78 66.74 158.78 66.74 158.78 31.98 161.71 31.98 161.71 66.74 175.4 66.74 175.4 43.57 194.94 43.57 194.94 40.09 197.88 40.09 197.88 43.57 219.38 43.57 219.38 66.74 228.18 66.74 228.18 31.98 231.11 31.98 231.11 66.74 228.18 66.74 219.38 66.74 197.88 66.74 194.94 66.74 175.4 66.74 161.71 66.74 158.78 66.74"/></g><g class="cls-27"><polyline class="cls-8" points="158.78 66.74 158.78 31.98 161.71 31.98 161.71 66.74 175.4 66.74 175.4 43.57 194.94 43.57 194.94 40.09 197.88 40.09 197.88 43.57 219.38 43.57 219.38 66.74 228.18 66.74 228.18 35.45 231.11 35.45 231.11 66.74"/></g><g class="cls-27"><polyline class="cls-9" points="228.18 35.45 228.18 31.98 231.11 31.98 231.11 35.45"/></g><g class="cls-27"><line class="cls-10" x1="185.17" y1="89.92" x2="185.17" y2="20.39"/></g><line class="cls-11" x1="155.85" y1="66.74" x2="155.85" y2="20.39"/><line class="cls-11" x1="155.85" y1="66.74" x2="234.04" y2="66.74"/><line class="cls-12" x1="160.25" y1="66.74" x2="160.25" y2="65.74"/><line class="cls-13" x1="160.25" y1="66.74" x2="160.25" y2="65.74"/><text class="cls-14" transform="translate(148.8 72.52)">Panoptic</text><text class="cls-14" transform="translate(154.46 78.8)">Pool</text><line class="cls-12" x1="185.17" y1="66.74" x2="185.17" y2="65.74"/><line class="cls-13" x1="185.17" y1="66.74" x2="185.17" y2="65.74"/><text class="cls-14" transform="translate(183.28 72.52)">S</text><line class="cls-12" x1="196.41" y1="66.74" x2="196.41" y2="65.74"/><line class="cls-13" x1="196.41" y1="66.74" x2="196.41" y2="65.74"/><text class="cls-14" transform="translate(194.46 72.52)">K</text><line class="cls-12" x1="229.64" y1="66.74" x2="229.64" y2="65.74"/><line class="cls-13" x1="229.64" y1="66.74" x2="229.64" y2="65.74"/><text class="cls-14" transform="translate(218.2 72.52)">Panoptic</text><text class="cls-14" transform="translate(223.85 78.8)">Pool</text><text class="cls-16" transform="translate(187.12 29.66)">1 ETH</text><path class="cls-17" d="M227.48,32.11q-18.1-10.72-30.07,5.9" transform="translate(-1 -1.19)"/><polygon class="cls-18" points="199.97 34.95 196.4 36.83 197.04 32.85 199.97 34.95"/><polygon class="cls-17" points="199.97 34.95 196.4 36.83 197.04 32.85 199.97 34.95"/><text class="cls-19" transform="translate(171.12 14.39)">Selling a Call</text><rect class="cls-4" x="155.85" y="89.34" width="78.19" height="23.37"/><g class="cls-28"><polygon class="cls-23" points="236.97 93.59 236.97 126.52 225.73 126.52 197.33 93.59 225.73 93.59 236.97 93.59"/><polygon class="cls-24" points="236.97 93.59 236.97 126.52 225.73 126.52 197.33 93.59 225.73 93.59 236.97 93.59"/></g><g class="cls-28"><polygon class="cls-21" points="197.33 93.59 197.33 93.59 196.41 92.53 158.78 92.53 158.78 93.59 196.41 93.59 197.33 93.59"/><polygon class="cls-22" points="197.33 93.59 197.33 93.59 196.41 92.53 158.78 92.53 158.78 93.59 196.41 93.59 197.33 93.59"/></g><g class="cls-28"><polyline class="cls-25" points="225.67 126.44 196.41 92.53 158.78 92.53"/></g><g class="cls-28"><polyline class="cls-26" points="225.67 126.44 196.41 92.53 158.78 92.53"/></g><line class="cls-11" x1="155.85" y1="112.71" x2="155.85" y2="89.34"/><line class="cls-11" x1="155.85" y1="93.59" x2="234.04" y2="93.59"/><line class="cls-12" x1="185.17" y1="93.59" x2="185.17" y2="92.59"/><line class="cls-13" x1="185.17" y1="93.59" x2="185.17" y2="92.59"/><text class="cls-14" transform="translate(183.28 100.43)">S</text><line class="cls-12" x1="196.41" y1="93.59" x2="196.41" y2="92.59"/><line class="cls-13" x1="196.41" y1="93.59" x2="196.41" y2="92.59"/><text class="cls-14" transform="translate(194.46 100.43)">K</text><line class="cls-12" x1="155.85" y1="92.53" x2="156.85" y2="92.53"/><line class="cls-13" x1="155.85" y1="92.53" x2="156.85" y2="92.53"/><text class="cls-14" transform="translate(125.91 94.67)">Premium P</text><text class="cls-14" transform="translate(214.49 99.2)">Loss</text></g></svg>