<svg id="gamma-vault-svg" width="1600" height="1600" viewBox="0 0 1600 1600" xmlns="http://www.w3.org/2000/svg" class="w-full h-full"><defs><linearGradient id="bgGrad" x1="0%" y1="0%" x2="0%" y2="100%"><stop offset="0%" stop-color="#0A0B2E"/><stop offset="100%" stop-color="#1A1B4E"/></linearGradient><linearGradient id="panopticPoolGrad" x1="0%" y1="0%" x2="0%" y2="100%"><stop offset="0%" stop-color="#7E3BFF"/><stop offset="100%" stop-color="#4F0CE0"/></linearGradient><linearGradient id="buyZoneGrad" x1="0%" y1="0%" x2="0%" y2="100%"><stop offset="0%" stop-color="#0D9488"/><stop offset="100%" stop-color="#0F766E"/></linearGradient><linearGradient id="neutralZoneGrad" x1="0%" y1="0%" x2="0%" y2="100%"><stop offset="0%" stop-color="#9333EA"/><stop offset="100%" stop-color="#6B21A8"/></linearGradient><linearGradient id="sellZoneGrad" x1="0%" y1="0%" x2="0%" y2="100%"><stop offset="0%" stop-color="#EC4899"/><stop offset="100%" stop-color="#BE185D"/></linearGradient><linearGradient id="uniswapPinkGrad" x1="0%" y1="0%" x2="0%" y2="100%"><stop offset="0%" stop-color="#FF3C8C"/><stop offset="100%" stop-color="#C6005A"/></linearGradient><filter id="glow"><feGaussianBlur stdDeviation="4" result="coloredBlur"/><feMerge><feMergeNode in="coloredBlur"/><feMergeNode in="SourceGraphic"/></feMerge></filter><filter id="cardShadow"><feGaussianBlur in="SourceAlpha" stdDeviation="10"/><feOffset dx="0" dy="4" result="offsetblur"/><feComponentTransfer><feFuncA type="linear" slope="0.2"/></feComponentTransfer><feMerge><feMergeNode/><feMergeNode in="SourceGraphic"/></feMerge></filter><marker id="arrowPurple" markerWidth="10" markerHeight="10" refX="9" refY="3" orient="auto" markerUnits="strokeWidth"><path d="M0,0 L0,6 L9,3 z" fill="#A855F7"/></marker></defs><rect width="1600" height="1600" fill="url(#bgGrad)"/><g id="gamma-scalping-flow-diagram"><rect x="50" y="0" width="1500" height="1600" rx="28" fill="rgba(255,255,255,0.04)" filter="url(#cardShadow)"/><rect x="50" y="0" width="1500" height="1600" rx="28" fill="none" stroke="white" stroke-width="1" opacity="0.1"/><text x="800" y="90" text-anchor="middle" fill="white" font-size="48" font-weight="800" font-family="Inter, system-ui, -apple-system, sans-serif">Unicorn Trade</text><text x="800" y="145" text-anchor="middle" fill="white" font-size="36" font-weight="700" font-family="Inter, system-ui, -apple-system, sans-serif">Buy Low - Sell High Automated Vault</text><text x="800" y="190" text-anchor="middle" fill="white" font-size="22" opacity="0.8" font-family="Inter, system-ui, -apple-system, sans-serif">This vault harvests volatility from sticky, structurally underpriced onchain volatility on Uniswap</text><g id="price-movement-bar" transform="translate(80, 230)"><rect x="0" y="0" width="480" height="120" rx="16" fill="url(#buyZoneGrad)" filter="url(#glow)" opacity="0.9"/><text x="240" y="55" text-anchor="middle" fill="white" font-size="28" font-weight="800" font-family="Inter, system-ui, -apple-system, sans-serif">BUY ZONE</text><text x="240" y="90" text-anchor="middle" fill="white" font-size="20" opacity="0.9" font-family="Inter, system-ui, -apple-system, sans-serif">Price Below Target</text><rect x="480" y="0" width="480" height="120" rx="16" fill="url(#neutralZoneGrad)" filter="url(#glow)" opacity="0.9"/><text x="720" y="55" text-anchor="middle" fill="white" font-size="28" font-weight="800" font-family="Inter, system-ui, -apple-system, sans-serif">NEUTRAL ZONE</text><text x="720" y="90" text-anchor="middle" fill="white" font-size="20" opacity="0.9" font-family="Inter, system-ui, -apple-system, sans-serif">Target Range</text><rect x="960" y="0" width="480" height="120" rx="16" fill="url(#sellZoneGrad)" filter="url(#glow)" opacity="0.9"/><text x="1200" y="55" text-anchor="middle" fill="white" font-size="28" font-weight="800" font-family="Inter, system-ui, -apple-system, sans-serif">SELL ZONE</text><text x="1200" y="90" text-anchor="middle" fill="white" font-size="20" opacity="0.9" font-family="Inter, system-ui, -apple-system, sans-serif">Price Above Target</text><text x="720" y="170" text-anchor="middle" fill="white" font-size="22" font-weight="800" opacity="0.9" font-family="Inter, system-ui, -apple-system, sans-serif">DELTA THRESHOLDS</text><text x="100" y="210" text-anchor="middle" fill="#0F766E" font-size="26" font-weight="800" font-family="Inter, system-ui, -apple-system, sans-serif">Δ -20%</text><text x="255" y="210" text-anchor="middle" fill="#0F766E" font-size="26" font-weight="800" font-family="Inter, system-ui, -apple-system, sans-serif">Δ -15%</text><text x="410" y="210" text-anchor="middle" fill="#0F766E" font-size="26" font-weight="800" font-family="Inter, system-ui, -apple-system, sans-serif">Δ -10%</text><text x="565" y="210" text-anchor="middle" fill="#0F766E" font-size="26" font-weight="800" font-family="Inter, system-ui, -apple-system, sans-serif">Δ -5%</text><text x="720" y="210" text-anchor="middle" fill="#8B7BB8" font-size="26" font-weight="800" font-family="Inter, system-ui, -apple-system, sans-serif">Δ 0%</text><text x="875" y="210" text-anchor="middle" fill="#B8578C" font-size="26" font-weight="800" font-family="Inter, system-ui, -apple-system, sans-serif">Δ +5%</text><text x="1030" y="210" text-anchor="middle" fill="#B8578C" font-size="26" font-weight="800" font-family="Inter, system-ui, -apple-system, sans-serif">Δ +10%</text><text x="1185" y="210" text-anchor="middle" fill="#B8578C" font-size="26" font-weight="800" font-family="Inter, system-ui, -apple-system, sans-serif">Δ +15%</text><text x="1340" y="210" text-anchor="middle" fill="#B8578C" font-size="26" font-weight="800" font-family="Inter, system-ui, -apple-system, sans-serif">Δ +20%</text><path d="M 150,70 L 50,70 M 80,55 L 50,70 L 80,85" stroke="white" stroke-width="4" fill="none" opacity="0.6"/><path d="M 1290,70 L 1390,70 M 1360,55 L 1390,70 L 1360,85" stroke="white" stroke-width="4" fill="none" opacity="0.6"/></g><g id="vault-engine" transform="translate(440, 480)"><path d="M 40,-110 L 40,450" stroke="#A855F7" stroke-width="3" stroke-dasharray="8,6" opacity="0.15"/><path d="M 360,-110 L 360,450" stroke="#A855F7" stroke-width="3" stroke-dasharray="8,6" opacity="0.15"/><path d="M 680,-110 L 680,450" stroke="#A855F7" stroke-width="3" stroke-dasharray="8,6" opacity="0.15"/><g transform="translate(360, 80)"><ellipse cx="0" cy="200" rx="280" ry="55" fill="#4F0CE0"/><rect x="-280" y="0" width="560" height="200" fill="url(#panopticPoolGrad)"/><ellipse cx="0" cy="0" rx="280" ry="55" fill="url(#panopticPoolGrad)"/><ellipse cx="0" cy="0" rx="275" ry="52" fill="none" stroke="rgba(255,255,255,0.4)" stroke-width="3"/><text x="0" y="115" text-anchor="middle" fill="white" font-size="32" font-weight="800" font-family="Inter, system-ui, -apple-system, sans-serif">Gamma Scalping Vault</text><text x="0" y="155" text-anchor="middle" fill="white" font-size="22" opacity="0.95" font-family="Inter, system-ui, -apple-system, sans-serif">(Buy Low and Sell High Engine)</text></g><g transform="translate(-100, 450)"><rect x="0" y="0" width="280" height="240" rx="16" fill="#7E3BFF" opacity="0.3" filter="url(#glow)"/><rect x="0" y="0" width="280" height="240" rx="16" fill="none" stroke="#7E3BFF" stroke-width="3"/><text x="140" y="40" text-anchor="middle" fill="white" font-size="24" font-weight="800" font-family="Inter, system-ui, -apple-system, sans-serif">Delta Module</text><g transform="translate(140, 100)"><text x="0" y="0" text-anchor="middle" fill="#FF3C8C" font-size="24" font-weight="800" font-family="Inter, system-ui, -apple-system, sans-serif">BUY LOW</text><text x="0" y="40" text-anchor="middle" fill="#10B981" font-size="24" font-weight="800" font-family="Inter, system-ui, -apple-system, sans-serif">SELL HIGH</text></g><text x="140" y="195" text-anchor="middle" fill="white" font-size="20" font-weight="700" opacity="1" font-family="Inter, system-ui, -apple-system, sans-serif">Captures value from</text><text x="140" y="220" text-anchor="middle" fill="white" font-size="20" font-weight="700" opacity="1" font-family="Inter, system-ui, -apple-system, sans-serif">price movement</text></g><g transform="translate(220, 450)"><rect x="0" y="0" width="280" height="240" rx="16" fill="#7E3BFF" opacity="0.3" filter="url(#glow)"/><rect x="0" y="0" width="280" height="240" rx="16" fill="none" stroke="#7E3BFF" stroke-width="3"/><text x="140" y="40" text-anchor="middle" fill="white" font-size="24" font-weight="800" font-family="Inter, system-ui, -apple-system, sans-serif">Options Module</text><g transform="translate(140, 100)"><path d="M -30,0 L -15,-22 L 0,8 L 15,-15 L 30,0" stroke="#FF3C8C" stroke-width="3" fill="none" opacity="0.7"/><text x="0" y="30" text-anchor="middle" fill="white" font-size="16" font-weight="700" opacity="0.9" font-family="Inter, system-ui, -apple-system, sans-serif">COST = STREAMIA</text></g><text x="140" y="195" text-anchor="middle" fill="white" font-size="20" font-weight="700" opacity="1" font-family="Inter, system-ui, -apple-system, sans-serif">Buys perpetual options</text><text x="140" y="220" text-anchor="middle" fill="white" font-size="20" font-weight="700" opacity="1" font-family="Inter, system-ui, -apple-system, sans-serif">with streaming premia</text></g><g transform="translate(540, 450)"><rect x="0" y="0" width="280" height="240" rx="16" fill="#7E3BFF" opacity="0.3" filter="url(#glow)"/><rect x="0" y="0" width="280" height="240" rx="16" fill="none" stroke="#7E3BFF" stroke-width="3"/><text x="140" y="40" text-anchor="middle" fill="white" font-size="24" font-weight="800" font-family="Inter, system-ui, -apple-system, sans-serif">Hedge Module</text><g transform="translate(140, 100)"><text x="0" y="0" text-anchor="middle" fill="#10B981" font-size="24" font-weight="800" font-family="Inter, system-ui, -apple-system, sans-serif">BUY ASSET</text><text x="0" y="40" text-anchor="middle" fill="#FF3C8C" font-size="24" font-weight="800" font-family="Inter, system-ui, -apple-system, sans-serif">SHORT ASSET</text></g><text x="140" y="195" text-anchor="middle" fill="white" font-size="20" font-weight="700" opacity="1" font-family="Inter, system-ui, -apple-system, sans-serif">Neutralizes directional</text><text x="140" y="220" text-anchor="middle" fill="white" font-size="20" font-weight="700" opacity="1" font-family="Inter, system-ui, -apple-system, sans-serif">risk → Market-neutral</text></g><path d="M 40,450 L 140,350" stroke="#A855F7" stroke-width="2.5" marker-end="url(#arrowPurple)" opacity="1"/><path d="M 360,450 L 360,350" stroke="#A855F7" stroke-width="2.5" marker-end="url(#arrowPurple)" opacity="1"/><path d="M 680,450 L 580,350" stroke="#A855F7" stroke-width="2.5" marker-end="url(#arrowPurple)" opacity="1"/><path d="M 40,690 L 40,720" stroke="#A855F7" stroke-width="1.5" opacity="0.25" fill="none"/><path d="M 680,690 L 680,720" stroke="#A855F7" stroke-width="1.5" opacity="0.25" fill="none"/><path d="M 40,720 Q 140,740 260,760 Q 340,775 360,790" stroke="#A855F7" stroke-width="1.5" opacity="0.25" fill="none"/><path d="M 680,720 Q 580,740 460,760 Q 380,775 360,790" stroke="#A855F7" stroke-width="1.5" opacity="0.25" fill="none"/></g><g id="yield-output" transform="translate(475, 1300)"><rect x="0" y="0" width="650" height="260" rx="20" fill="url(#uniswapPinkGrad)" opacity="0.2" filter="url(#glow)"/><rect x="0" y="0" width="650" height="260" rx="20" fill="none" stroke="#FF3C8C" stroke-width="4"/><text x="325" y="50" text-anchor="middle" fill="#FF3C8C" font-size="32" font-weight="800" font-family="Inter, system-ui, -apple-system, sans-serif">Yield for Depositors</text><g transform="translate(185, 100)"><path d="M -5,0 L -1,5 L 6,-5" stroke="#10B981" stroke-width="3" fill="none" stroke-linecap="round" stroke-linejoin="round"/><text x="30" y="7" fill="white" font-size="20" font-weight="600" font-family="Inter, system-ui, -apple-system, sans-serif">Buy-Low/Sell-High PnL</text></g><g transform="translate(185, 140)"><path d="M -5,0 L -1,5 L 6,-5" stroke="#10B981" stroke-width="3" fill="none" stroke-linecap="round" stroke-linejoin="round"/><text x="30" y="7" fill="white" font-size="20" font-weight="600" font-family="Inter, system-ui, -apple-system, sans-serif">Hedge PnL Adjustment</text></g><g transform="translate(185, 180)"><path d="M -5,0 L -1,5 L 6,-5" stroke="#10B981" stroke-width="3" fill="none" stroke-linecap="round" stroke-linejoin="round"/><text x="30" y="7" fill="white" font-size="20" font-weight="600" font-family="Inter, system-ui, -apple-system, sans-serif">Delta Precision</text></g><g transform="translate(185, 220)"><path d="M -5,0 L -1,5 L 6,-5" stroke="#10B981" stroke-width="3" fill="none" stroke-linecap="round" stroke-linejoin="round"/><text x="30" y="7" fill="white" font-size="20" font-weight="600" font-family="Inter, system-ui, -apple-system, sans-serif">Threshold Optimization</text></g></g></g></svg>