<svg id="lending-vault-svg" width="1600" height="1300" viewBox="0 0 1600 1300" xmlns="http://www.w3.org/2000/svg" class="w-full h-full"><defs><linearGradient id="bgGrad" x1="0%" y1="0%" x2="0%" y2="100%"><stop offset="0%" stop-color="#0A0B2E"/><stop offset="100%" stop-color="#1A1B4E"/></linearGradient><radialGradient id="sphereGrad" cx="30%" cy="30%"><stop offset="0%" stop-color="#A855F7"/><stop offset="50%" stop-color="#7E3BFF"/><stop offset="100%" stop-color="#4F0CE0"/></radialGradient><linearGradient id="crystalGrad" x1="0%" y1="0%" x2="0%" y2="100%"><stop offset="0%" stop-color="#7E3BFF"/><stop offset="50%" stop-color="#4F0CE0"/><stop offset="100%" stop-color="#3A0CA3"/></linearGradient><linearGradient id="marketGrad" x1="0%" y1="0%" x2="0%" y2="100%"><stop offset="0%" stop-color="#FF3C8C"/><stop offset="100%" stop-color="#C6005A"/></linearGradient><filter id="glow" x="-50%" y="-50%" width="200%" height="200%"><feGaussianBlur stdDeviation="8" result="coloredBlur"/><feMerge><feMergeNode in="coloredBlur"/><feMergeNode in="SourceGraphic"/></feMerge></filter><filter id="strongGlow" x="-100%" y="-100%" width="300%" height="300%"><feGaussianBlur stdDeviation="12" result="coloredBlur"/><feMerge><feMergeNode in="coloredBlur"/><feMergeNode in="SourceGraphic"/></feMerge></filter><marker id="arrowPurple" markerWidth="10" markerHeight="10" refX="8.5" refY="3" orient="auto"><path d="M0,0 L0,6 L9,3 z" fill="#A855F7"/></marker><marker id="arrowGreen" markerWidth="10" markerHeight="10" refX="8.5" refY="3" orient="auto"><path d="M0,0 L0,6 L9,3 z" fill="#10B981"/></marker><marker id="arrowGreenBold" markerWidth="16" markerHeight="16" refX="14" refY="5" orient="auto"><path d="M0,0 L0,10 L14,5 z" fill="#10B981" filter="url(#glow)"/></marker></defs><rect width="1600" height="2000" fill="url(#bgGrad)"/><text x="800" y="80" text-anchor="middle" fill="#F0F0F0" font-size="48" font-weight="800" font-family="Inter, system-ui, -apple-system, sans-serif">How Panoptic's Lending Vaults Work</text><g id="main-content"><g id="visual-flow" transform="translate(200, 0)"><g transform="translate(250, 200)"><circle cx="0" cy="0" r="65" fill="url(#sphereGrad)" opacity="0.3" filter="url(#strongGlow)"/><circle cx="0" cy="0" r="55" fill="url(#sphereGrad)" filter="url(#glow)"/><ellipse cx="-15" cy="-15" rx="20" ry="15" fill="white" opacity="0.4"/><circle cx="0" cy="0" r="35" fill="none" stroke="white" stroke-width="2" opacity="0.3"/><text x="-180" y="10" fill="#E8E8F0" font-size="22" font-weight="700" font-family="Inter, system-ui, -apple-system, sans-serif">Lenders</text></g><line x1="250" y1="270" x2="250" y2="365" stroke="#7E3BFF" stroke-width="3" stroke-dasharray="8,8" opacity="0.5"/><g transform="translate(250, 420)"><circle cx="0" cy="0" r="55" fill="url(#sphereGrad)" opacity="0.3" filter="url(#glow)"/><g filter="url(#glow)"><path d="M 0,-25 L -18,0 L 0,8 L 18,0 Z" fill="#8A92B2" opacity="0.8"/><path d="M 0,8 L -18,0 L 0,25 Z" fill="#62688F"/><path d="M 0,8 L 18,0 L 0,25 Z" fill="#454A75"/><line x1="0" y1="-25" x2="0" y2="25" stroke="white" stroke-width="1" opacity="0.3"/></g><text x="-180" y="10" fill="#E8E8F0" font-size="22" font-weight="700" font-family="Inter, system-ui, -apple-system, sans-serif">Deposit ETH</text></g><line x1="250" y1="485" x2="250" y2="620" stroke="#7E3BFF" stroke-width="3" stroke-dasharray="8,8" opacity="0.5"/><g transform="translate(250, 750)"><g filter="url(#strongGlow)"><path d="M 0,-80 L 70,-40 L 70,40 L 0,80 L 0,-80" fill="url(#crystalGrad)" opacity="0.7"/><path d="M 0,-80 L -70,-40 L -70,40 L 0,80 L 0,-80" fill="url(#crystalGrad)" opacity="0.5"/><path d="M 0,-80 L 70,-40 L 0,0 L -70,-40 Z" fill="#A855F7" opacity="0.9"/><path d="M 0,80 L 70,40 L 0,0 L -70,40 Z" fill="#3A0CA3" opacity="0.8"/><path d="M 0,0 L 70,-40 L 70,40 L 0,80 Z" fill="url(#crystalGrad)"/><path d="M 0,0 L -70,-40 L -70,40 L 0,80 Z" fill="url(#crystalGrad)" opacity="0.85"/><line x1="0" y1="-80" x2="0" y2="80" stroke="white" stroke-width="2" opacity="0.3"/><line x1="-70" y1="-40" x2="70" y2="40" stroke="white" stroke-width="1.5" opacity="0.2"/><line x1="70" y1="-40" x2="-70" y2="40" stroke="white" stroke-width="1.5" opacity="0.2"/><circle cx="0" cy="0" r="25" fill="#A855F7" opacity="0.6" filter="url(#glow)"/><circle cx="0" cy="0" r="15" fill="white" opacity="0.8"/></g><text x="-180" y="10" fill="#E8E8F0" font-size="22" font-weight="700" font-family="Inter, system-ui, -apple-system, sans-serif">Lending Vault</text></g><path d="M 180,820 L 85,1039" stroke="#7E3BFF" stroke-width="3" marker-end="url(#arrowPurple)" filter="url(#glow)"/><path d="M 250,850 L 250,1028" stroke="#7E3BFF" stroke-width="3" marker-end="url(#arrowPurple)" filter="url(#glow)"/><path d="M 320,820 L 415,1039" stroke="#7E3BFF" stroke-width="3" marker-end="url(#arrowPurple)" filter="url(#glow)"/><g transform="translate(80, 1100)" filter="url(#glow)"><ellipse cx="0" cy="40" rx="70" ry="22" fill="#FF3C8C" opacity="0.3"/><ellipse cx="0" cy="80" rx="60" ry="18" fill="#C6005A"/><rect x="-60" y="0" width="120" height="80" fill="url(#marketGrad)"/><ellipse cx="0" cy="0" rx="60" ry="18" fill="url(#marketGrad)"/><ellipse cx="0" cy="0" rx="57" ry="16" fill="none" stroke="rgba(255,255,255,0.5)" stroke-width="2"/><ellipse cx="0" cy="40" rx="55" ry="16" fill="none" stroke="rgba(255,255,255,0.2)" stroke-width="1"/><text x="0" y="45" text-anchor="middle" fill="white" font-size="18" font-weight="700" font-family="Inter, system-ui, -apple-system, sans-serif" filter="url(#glow)">Market A</text></g><g transform="translate(250, 1100)" filter="url(#glow)"><ellipse cx="0" cy="40" rx="70" ry="22" fill="#FF3C8C" opacity="0.3"/><ellipse cx="0" cy="80" rx="60" ry="18" fill="#C6005A"/><rect x="-60" y="0" width="120" height="80" fill="url(#marketGrad)"/><ellipse cx="0" cy="0" rx="60" ry="18" fill="url(#marketGrad)"/><ellipse cx="0" cy="0" rx="57" ry="16" fill="none" stroke="rgba(255,255,255,0.5)" stroke-width="2"/><ellipse cx="0" cy="40" rx="55" ry="16" fill="none" stroke="rgba(255,255,255,0.2)" stroke-width="1"/><text x="0" y="45" text-anchor="middle" fill="white" font-size="18" font-weight="700" font-family="Inter, system-ui, -apple-system, sans-serif" filter="url(#glow)">Market B</text></g><g transform="translate(420, 1100)" filter="url(#glow)"><ellipse cx="0" cy="40" rx="70" ry="22" fill="#FF3C8C" opacity="0.3"/><ellipse cx="0" cy="80" rx="60" ry="18" fill="#C6005A"/><rect x="-60" y="0" width="120" height="80" fill="url(#marketGrad)"/><ellipse cx="0" cy="0" rx="60" ry="18" fill="url(#marketGrad)"/><ellipse cx="0" cy="0" rx="57" ry="16" fill="none" stroke="rgba(255,255,255,0.5)" stroke-width="2"/><ellipse cx="0" cy="40" rx="55" ry="16" fill="none" stroke="rgba(255,255,255,0.2)" stroke-width="1"/><text x="0" y="45" text-anchor="middle" fill="white" font-size="18" font-weight="700" font-family="Inter, system-ui, -apple-system, sans-serif" filter="url(#glow)">Market C</text></g><path d="M 100,1100 L 195,881" stroke="#10B981" stroke-width="3" marker-end="url(#arrowGreen)" opacity="0.7" stroke-dasharray="6,6"/><path d="M 270,1100 L 270,878" stroke="#10B981" stroke-width="3" marker-end="url(#arrowGreen)" opacity="0.7" stroke-dasharray="6,6"/><path d="M 400,1100 L 305,881" stroke="#10B981" stroke-width="3" marker-end="url(#arrowGreen)" opacity="0.7" stroke-dasharray="6,6"/><text x="200" y="980" text-anchor="middle" fill="#10B981" font-size="20" font-weight="700" font-family="Inter, system-ui, -apple-system, sans-serif">Yield</text></g><g id="step-descriptions" transform="translate(700, 180)"><g><text x="0" y="30" fill="#7E3BFF" font-size="32" font-weight="800" font-family="Inter, system-ui, -apple-system, sans-serif">01</text><text x="70" y="30" fill="#F0F0F0" font-size="28" font-weight="800" font-family="Inter, system-ui, -apple-system, sans-serif">Deposit in Lending Vault</text><text x="70" y="70" fill="#C0C0D0" font-size="18" font-weight="400" font-family="Inter, system-ui, -apple-system, sans-serif"><tspan x="70" dy="0">Earn yield by depositing assets into a lending vault.</tspan></text></g><g transform="translate(0, 240)"><text x="0" y="30" fill="#7E3BFF" font-size="32" font-weight="800" font-family="Inter, system-ui, -apple-system, sans-serif">02</text><text x="70" y="30" fill="#F0F0F0" font-size="28" font-weight="800" font-family="Inter, system-ui, -apple-system, sans-serif">Assets Allocated to Markets</text><text x="70" y="70" fill="#C0C0D0" font-size="18" font-weight="400" font-family="Inter, system-ui, -apple-system, sans-serif"><tspan x="70" dy="0">Each vault manages unified liquidity that can be allocated</tspan><tspan x="70" dy="28">to multiple markets for optimal yields.</tspan></text></g><g transform="translate(0, 480)"><text x="0" y="30" fill="#7E3BFF" font-size="32" font-weight="800" font-family="Inter, system-ui, -apple-system, sans-serif">03</text><text x="70" y="30" fill="#F0F0F0" font-size="28" font-weight="800" font-family="Inter, system-ui, -apple-system, sans-serif">Earn Yield from Borrowers</text><text x="70" y="70" fill="#C0C0D0" font-size="18" font-weight="400" font-family="Inter, system-ui, -apple-system, sans-serif"><tspan x="70" dy="0">Vaults generate yield from borrowers. Borrowers deposit</tspan><tspan x="70" dy="28">collateral and borrow assets from Panoptic markets,</tspan><tspan x="70" dy="28">paying interest to the vault.</tspan></text></g></g></g></svg>