<svg xmlns="http://www.w3.org/2000/svg"
     xmlns:xlink="http://www.w3.org/1999/xlink"
     width="1200" height="200"
     viewBox="0 0 900 150" preserveAspectRatio="xMidYMid meet">
  <!-- ==========  DEFINITIONS  ========== -->
  <defs>
    <!-- original clip-paths -->
    <clipPath id="5481f7004f"><path d="M 48 48.140625 L 103 48.140625 L 103 102.140625 L 48 102.140625 Z"/></clipPath>
    <clipPath id="c441650807"><path d="M 98 49 L 113.277344 49 L 113.277344 102 L 98 102 Z"/></clipPath>
    <clipPath id="23925f6a09"><path d="M 39.027344 49 L 54 49 L 54 102 L 39.027344 102 Z"/></clipPath>
    <clipPath id="6c8fdd8e2c"><path d="M 202.230469 48.140625 L 256 48.140625 L 256 102 L 202.230469 102 Z"/></clipPath>
    <clipPath id="a3fd2bdcbe"><path d="M 355 48.140625 L 410 48.140625 L 410 102.140625 L 355 102.140625 Z"/></clipPath>
    <clipPath id="720a79f4a1"><path d="M 404 49 L 419.5 49 L 419.5 102 L 404 102 Z"/></clipPath>
    <clipPath id="6f919df95d"><path d="M 345.25 49 L 361 49 L 361 102 L 345.25 102 Z"/></clipPath>
    <clipPath id="829d1cc190"><path d="M 508.378906 48.140625 L 562 48.140625 L 562 102 L 508.378906 102 Z"/></clipPath>
    <clipPath id="a6dfe8826a"><path d="M 653 48.140625 L 708 48.140625 L 708 102.140625 L 653 102.140625 Z"/></clipPath>
    <clipPath id="2cc368ae6d"><path d="M 703 49 L 718.300781 49 L 718.300781 102 L 703 102 Z"/></clipPath>
    <clipPath id="0639802ab7"><path d="M 644.050781 49 L 659 49 L 659 102 L 644.050781 102 Z"/></clipPath>
    <clipPath id="9e31ffe5d0"><path d="M 807.253906 48.140625 L 861 48.140625 L 861 102 L 807.253906 102 Z"/></clipPath>

    <!-- ==========  NEW SYMBOL (gradient eye)  ========== -->
    <symbol id="gradientEye" viewBox="0 0 35 23" preserveAspectRatio="xMidYMid meet">
      <g opacity="0.82">
        <!--  ▸▸▸  paths & ellipses  ▸▸▸  -->
        <!--  (straight copy-paste from your eye SVG)  -->
        <path fill-rule="evenodd" clip-rule="evenodd"
              d="M34.3962 11.5C34.3962 17.5186 31.3586 22.3976 ..."/>
        <!-- …all the other tiny paths, strokes & ellipses … -->
        <!--  ▸▸▸  filters / gradients  ▸▸▸  -->
        <defs>
          <filter id="filter0_f_2003_2780" x="3.53275" y="5.38553" width="29.2446" height="11.949"
                  filterUnits="userSpaceOnUse" color-interpolation-filters="sRGB">
            <feFlood flood-opacity="0"/><feBlend in2="BackgroundImageFix" mode="normal"
                    result="shape"/><feGaussianBlur stdDeviation="1.89751"
                    result="effect1_foregroundBlur_2003_2780"/>
          </filter>
          <filter id="filter1_f_2003_2780" x="9.42357" y="8.08501" width="16.7602" height="6.07364"
                  filterUnits="userSpaceOnUse" color-interpolation-filters="sRGB">
            <feFlood flood-opacity="0"/><feBlend in2="BackgroundImageFix" mode="normal"
                    result="shape"/><feGaussianBlur stdDeviation="0.569252"
                    result="effect1_foregroundBlur_2003_2780"/>
          </filter>
          <!-- …all the linearGradient defs (paint0-paint8) … -->
          <linearGradient id="paint0_linear_2003_2780" x1="17.6981" y1="0.602" x2="17.6981" y2="22.398"
                          gradientUnits="userSpaceOnUse">
            <stop stop-color="#3D249A"/><stop offset="0.225" stop-color="#5A2DE7"/>
            <stop offset="0.54" stop-color="#9FB0F5"/><stop offset="0.79" stop-color="#5A2DE7"/>
            <stop offset="0.985" stop-color="#3D249A"/>
          </linearGradient>
          <!-- repeat for paint1 … paint8 -->
        </defs>
      </g>
    </symbol>
  </defs>

  <!-- ==========  ROW OF ICONS  ========== -->
  <!-- original (index 0) — stays a circle -->
  <g clip-path="url(#5481f7004f)">
    <path fill="#ffffff"
          d="M 102.867188 75.140625 C 102.867188 90.027344 90.757812 102.128906 75.878906 102.128906 ..."/>
  </g>

  <!-- index 1  →  gradient eye -->
  <g clip-path="url(#c441650807)">
    <g transform="translate(98 49) scale(0.436 2.304)">
      <use href="#gradientEye"/>
    </g>
  </g>

  <!-- index 2 — keep -->
  <g clip-path="url(#23925f6a09)">
    <path fill="#ffffff"
          d="M 39.027344 75.140625 C 39.027344 65.320312 ..."/>
  </g>

  <!-- index 3 → eye -->
  <g clip-path="url(#6c8fdd8e2c)">
    <g transform="translate(202.230469 48.140625) scale(1.536 2.343)">
      <use href="#gradientEye"/>
    </g>
  </g>

  <!-- index 4 — keep -->
  <g clip-path="url(#a3fd2bdcbe)">
    <path fill="#ffffff"
          d="M 409.09375 75.140625 C 409.09375 90.027344 ..."/>
  </g>

  <!-- index 5 → eye -->
  <g clip-path="url(#720a79f4a1)">
    <g transform="translate(404 49) scale(0.443 2.304)">
      <use href="#gradientEye"/>
    </g>
  </g>

  <!-- index 6 — keep -->
  <g clip-path="url(#6f919df95d)">
    <path fill="#ffffff"
          d="M 345.25 75.140625 C 345.25 65.320312 ..."/>
  </g>

  <!-- index 7 → eye -->
  <g clip-path="url(#829d1cc190)">
    <g transform="translate(508.3789 48.140625) scale(1.532 2.343)">
      <use href="#gradientEye"/>
    </g>
  </g>

  <!-- index 8 — keep -->
  <g clip-path="url(#a6dfe8826a)">
    <path fill="#ffffff"
          d="M 707.894531 75.140625 C 707.894531 90.027344 ..."/>
  </g>

  <!-- index 9 → eye -->
  <g clip-path="url(#2cc368ae6d)">
    <g transform="translate(703 49) scale(0.437 2.304)">
      <use href="#gradientEye"/>
    </g>
  </g>

  <!-- index 10 — keep -->
  <g clip-path="url(#0639802ab7)">
    <path fill="#ffffff"
          d="M 644.050781 75.140625 C 644.050781 65.320312 ..."/>
  </g>

  <!-- index 11 → eye -->
  <g clip-path="url(#9e31ffe5d0)">
    <g transform="translate(807.2539 48.140625) scale(1.536 2.343)">
      <use href="#gradientEye"/>
    </g>
  </g>
</svg>
