<svg width="144" height="25" viewBox="0 0 144 25" fill="none" xmlns="http://www.w3.org/2000/svg">
<g clip-path="url(#clip0_190_18)">
<path d="M34.7242 24.1474V5.30983H45.3812C45.9373 5.30983 46.4392 5.44935 46.8871 5.72847C47.3505 6.00751 47.7134 6.37183 47.976 6.82151C48.254 7.27111 48.393 7.77503 48.393 8.33311V15.7752C48.393 16.3333 48.254 16.8372 47.976 17.2869C47.7134 17.7365 47.3505 18.1008 46.8871 18.3799C46.4392 18.6589 45.9373 18.7985 45.3812 18.7985H37.2263V24.1474H34.7242ZM37.8055 16.2868H45.3118C45.4662 16.2868 45.5974 16.2325 45.7056 16.124C45.8291 16 45.8909 15.8605 45.8909 15.7054V8.40295C45.8909 8.24791 45.8291 8.11607 45.7056 8.00759C45.5974 7.88351 45.4662 7.82151 45.3118 7.82151H37.8055C37.651 7.82151 37.512 7.88351 37.3885 8.00759C37.2803 8.11607 37.2263 8.24791 37.2263 8.40295V15.7054C37.2263 15.8605 37.2803 16 37.3885 16.124C37.512 16.2325 37.651 16.2868 37.8055 16.2868ZM53.3156 18.7985C52.7596 18.7985 52.2499 18.6589 51.7866 18.3799C51.3386 18.1008 50.9757 17.7365 50.6977 17.2869C50.4351 16.8372 50.3038 16.3333 50.3038 15.7752V10.7983H61.4474V8.40295C61.4474 8.24791 61.3933 8.11607 61.2852 8.00759C61.177 7.88351 61.0458 7.82151 60.8914 7.82151H50.3038V5.30983H60.9609C61.5169 5.30983 62.0188 5.44935 62.4667 5.72847C62.9301 5.99199 63.293 6.35639 63.5556 6.82151C63.8336 7.28663 63.9726 7.79047 63.9726 8.33311V18.7985H53.3156ZM53.3851 16.2868H61.4474V13.1472H52.8059V15.7054C52.8059 15.8605 52.86 16 52.9681 16.124C53.0917 16.2325 53.2306 16.2868 53.3851 16.2868ZM66.3834 18.7985V5.30983H77.0408C77.5968 5.30983 78.0984 5.44935 78.5464 5.72847C79.0096 6.00751 79.3728 6.37183 79.6352 6.82151C79.9136 7.27111 80.052 7.77503 80.052 8.33311V18.7985H77.5504V8.40295C77.5504 8.24791 77.488 8.11607 77.3648 8.00759C77.2568 7.88351 77.1256 7.82151 76.9712 7.82151H69.4647C69.3103 7.82151 69.1713 7.88351 69.0477 8.00759C68.9396 8.11607 68.8855 8.24791 68.8855 8.40295V18.7985H66.3834ZM85.268 18.7985C84.712 18.7985 84.2104 18.6589 83.7624 18.3799C83.3144 18.1008 82.9512 17.7365 82.6736 17.2869C82.3952 16.8372 82.2568 16.3333 82.2568 15.7752V8.33311C82.2568 7.77503 82.3952 7.27111 82.6736 6.82151C82.9512 6.37183 83.3144 6.00751 83.7624 5.72847C84.2104 5.44935 84.712 5.30983 85.268 5.30983H92.9136C93.4696 5.30983 93.9712 5.44935 94.4192 5.72847C94.8824 5.99199 95.2456 6.35639 95.508 6.82151C95.7864 7.28663 95.9256 7.79047 95.9256 8.33311V15.7752C95.9256 16.3333 95.7864 16.8372 95.508 17.2869C95.2456 17.7365 94.8824 18.1008 94.4192 18.3799C93.9712 18.6589 93.4696 18.7985 92.9136 18.7985H85.268ZM85.3376 16.2868H92.844C92.9984 16.2868 93.1296 16.2325 93.2376 16.124C93.3464 16 93.4 15.8605 93.4 15.7054V8.40295C93.4 8.24791 93.3464 8.11607 93.2376 8.00759C93.1296 7.88351 92.9984 7.82151 92.844 7.82151H85.3376C85.1832 7.82151 85.044 7.88351 84.9208 8.00759C84.8128 8.11607 84.7584 8.24791 84.7584 8.40295V15.7054C84.7584 15.8605 84.8128 16 84.9208 16.124C85.044 16.2325 85.1832 16.2868 85.3376 16.2868ZM98.608 24.1474V5.30983H109.265C109.821 5.30983 110.323 5.44935 110.771 5.72847C111.234 6.00751 111.598 6.37183 111.86 6.82151C112.138 7.27111 112.277 7.77503 112.277 8.33311V15.7752C112.277 16.3333 112.138 16.8372 111.86 17.2869C111.598 17.7365 111.234 18.1008 110.771 18.3799C110.323 18.6589 109.821 18.7985 109.265 18.7985H101.11V24.1474H98.608ZM101.69 16.2868H109.196C109.35 16.2868 109.482 16.2325 109.59 16.124C109.713 16 109.775 15.8605 109.775 15.7054V8.40295C109.775 8.24791 109.713 8.11607 109.59 8.00759C109.482 7.88351 109.35 7.82151 109.196 7.82151H101.69C101.535 7.82151 101.396 7.88351 101.272 8.00759C101.164 8.11607 101.11 8.24791 101.11 8.40295V15.7054C101.11 15.8605 101.164 16 101.272 16.124C101.396 16.2325 101.535 16.2868 101.69 16.2868ZM117.222 18.7985C116.666 18.7985 116.157 18.6589 115.694 18.3799C115.246 18.1008 114.882 17.7365 114.605 17.2869C114.342 16.8372 114.211 16.3333 114.211 15.7752V1.05391H116.713V5.30983H122.227V7.82151H116.713V15.7054C116.713 15.8605 116.767 16 116.875 16.124C116.998 16.2325 117.138 16.2868 117.292 16.2868H122.227V18.7985H117.222ZM124.338 18.7985V5.30983H126.841V18.7985H124.338ZM124.338 3.40279V0.891113H126.841V3.40279H124.338ZM132.433 18.7985C131.877 18.7985 131.375 18.6589 130.927 18.3799C130.479 18.1008 130.116 17.7365 129.838 17.2869C129.56 16.8372 129.421 16.3333 129.421 15.7752V8.33311C129.421 7.77503 129.56 7.27111 129.838 6.82151C130.116 6.37183 130.479 6.00751 130.927 5.72847C131.375 5.44935 131.877 5.30983 132.433 5.30983H143.043V7.82151H132.502C132.348 7.82151 132.209 7.88351 132.086 8.00759C131.978 8.11607 131.923 8.24791 131.923 8.40295V15.7054C131.923 15.8605 131.978 16 132.086 16.124C132.209 16.2325 132.348 16.2868 132.502 16.2868H143.09V18.7985H132.433Z" fill="#4E14D0"/>
<path fill-rule="evenodd" clip-rule="evenodd" d="M24.016 12.5498C24.0874 9.27828 22.6039 6.50932 20.9019 4.76481L22.3335 3.36816C24.3359 5.42067 26.1007 8.687 26.0155 12.5934C25.9354 16.2684 24.6149 19.1091 22.3485 21.5535L20.8819 20.1937C22.8455 18.0759 23.9475 15.6935 24.016 12.5498Z" fill="#4E14D0"/>
<path fill-rule="evenodd" clip-rule="evenodd" d="M2.21061 12.5498C2.13927 9.27828 3.62277 6.50932 5.32473 4.76481L3.89317 3.36816C1.89071 5.42067 0.125903 8.687 0.21109 12.5934C0.29123 16.2684 1.61168 19.1091 3.87813 21.5535L5.34473 20.1937C3.38108 18.0759 2.27917 15.6935 2.21061 12.5498Z" fill="#4E14D0"/>
<path fill-rule="evenodd" clip-rule="evenodd" d="M13.0424 19.845C17.1155 19.845 20.4174 16.5431 20.4174 12.47C20.4174 8.39687 17.1155 5.09497 13.0424 5.09497C8.96932 5.09497 5.66742 8.39687 5.66742 12.47C5.66742 16.5431 8.96932 19.845 13.0424 19.845ZM13.0424 21.845C18.2201 21.845 22.4174 17.6476 22.4174 12.47C22.4174 7.2923 18.2201 3.09497 13.0424 3.09497C7.86475 3.09497 3.66742 7.2923 3.66742 12.47C3.66742 17.6476 7.86475 21.845 13.0424 21.845Z" fill="#4E14D0"/>
</g>
<defs>
<clipPath id="clip0_190_18">
<rect width="144" height="25" fill="white"/>
</clipPath>
</defs>
</svg>
