<svg width="807" height="143" viewBox="0 0 807 143" fill="none" xmlns="http://www.w3.org/2000/svg">
<g clip-path="url(#clip0_389_29077)">
<path d="M227.81 142.432V29.5838H243.846V88.3093H246.008V142.41H227.81V142.432ZM267.738 115.156C259.667 115.156 252.902 113.23 247.421 109.376C241.94 105.522 237.83 100.277 235.047 93.6187C232.263 86.9605 230.893 79.5101 230.893 71.2247C230.893 62.9393 232.285 55.3391 235.047 48.7236C237.83 42.0867 241.898 36.8629 247.271 33.0306C252.645 29.1984 259.26 27.293 267.118 27.293C274.975 27.293 281.804 29.1984 287.585 33.0306C293.365 36.8629 297.84 42.0653 300.987 48.6808C304.156 55.2748 305.718 62.7895 305.718 71.2247C305.718 79.6599 304.156 87.0247 301.008 93.6616C297.883 100.298 293.472 105.522 287.799 109.376C282.125 113.23 275.424 115.156 267.717 115.156H267.738ZM265.041 98.971C269.965 98.971 274.011 97.7293 277.18 95.2673C280.349 92.8052 282.682 89.4654 284.224 85.2477C285.765 81.0301 286.536 76.3629 286.536 71.2247C286.536 66.0865 285.744 61.4193 284.181 57.2445C282.618 53.0483 280.199 49.7084 276.944 47.225C273.69 44.7415 269.515 43.4783 264.42 43.4783C259.646 43.4783 255.728 44.6558 252.709 46.9895C249.669 49.3231 247.443 52.5773 246.008 56.7306C244.574 60.884 243.846 65.7225 243.846 71.2247C243.846 76.7269 244.574 81.4797 246.008 85.6331C247.443 89.7865 249.712 93.0621 252.838 95.4171C255.942 97.7721 260.01 98.971 265.062 98.971H265.041Z" fill="white"/>
<path d="M336.809 115.134C330.75 115.134 325.633 114 321.48 111.709C317.326 109.418 314.179 106.378 312.038 102.567C309.897 98.7561 308.848 94.5814 308.848 89.9998C308.848 85.932 309.533 82.3139 310.882 79.1239C312.252 75.9339 314.329 73.1935 317.155 70.8813C319.981 68.5691 323.578 66.6637 327.945 65.1865C331.328 64.116 335.289 63.1526 339.806 62.2962C344.323 61.4399 349.226 60.6477 354.493 59.8984C359.759 59.1491 365.197 58.3355 370.785 57.4792L364.319 61.183C364.362 55.274 363.078 50.9065 360.423 48.0805C357.768 45.2545 353.272 43.8415 346.892 43.8415C342.996 43.8415 339.271 44.7621 335.76 46.5819C332.248 48.4017 329.786 51.4846 328.395 55.7878L311.824 50.6282C313.879 43.5846 317.797 37.9325 323.578 33.6721C329.358 29.4117 337.13 27.2708 346.892 27.2708C354.343 27.2708 360.851 28.4911 366.439 30.9317C372.005 33.3724 376.159 37.3331 378.878 42.8353C380.376 45.7041 381.276 48.68 381.575 51.7415C381.875 54.803 382.046 58.1214 382.046 61.7182V112.822H366.161V94.5599L368.858 97.4074C365.154 103.466 360.766 107.941 355.67 110.81C350.575 113.678 344.28 115.134 336.787 115.134H336.809ZM340.277 100.64C344.602 100.64 348.263 99.8908 351.303 98.3708C354.343 96.8507 356.762 94.9881 358.582 92.783C360.402 90.5778 361.622 88.4155 362.243 86.3174C363.163 83.9624 363.699 81.222 363.87 78.1391C364.02 75.0561 364.105 72.5941 364.105 70.7315L369.736 72.4228C364.191 73.3006 359.395 74.0499 355.37 74.6922C351.345 75.3345 347.834 75.9553 344.88 76.5334C341.925 77.1328 339.292 77.7965 336.98 78.5673C334.818 79.338 332.976 80.2372 331.435 81.2648C329.893 82.2925 328.695 83.4914 327.86 84.883C327.003 86.2746 326.596 87.9231 326.596 89.8071C326.596 91.8624 327.11 93.7036 328.138 95.3093C329.166 96.9364 330.686 98.2209 332.719 99.1629C334.753 100.105 337.28 100.597 340.32 100.597L340.277 100.64Z" fill="white"/>
<path d="M392.685 112.823V29.5838H408.87V55.0179H411.032V112.823H392.685ZM450.575 112.823V72.5949C450.575 69.8759 450.361 66.9 449.954 63.6458C449.547 60.413 448.67 57.3087 447.342 54.3542C446.015 51.3997 444.024 48.9805 441.412 47.1179C438.8 45.2339 435.268 44.3133 430.857 44.3133C428.395 44.3133 425.976 44.7201 423.621 45.5122C421.266 46.3044 419.146 47.6745 417.262 49.6014C415.378 51.5282 413.88 54.1401 412.745 57.4157C411.61 60.7128 411.054 64.8876 411.054 69.983L400.263 65.4442C400.263 58.2507 401.634 51.7851 404.395 46.026C407.136 40.267 411.182 35.7068 416.534 32.3455C421.887 28.9843 428.438 27.293 436.188 27.293C442.247 27.293 447.278 28.2992 451.26 30.2903C455.242 32.3027 458.432 34.8718 460.809 38.0404C463.207 41.209 464.962 44.5702 466.118 48.1455C467.274 51.7209 468.024 55.125 468.388 58.4006C468.752 61.6548 468.923 64.3523 468.923 66.4504V112.844H450.575V112.823Z" fill="white"/>
<path d="M516.378 115.134C508.007 115.134 500.728 113.25 494.519 109.504C488.332 105.757 483.536 100.576 480.154 93.9819C476.771 87.3879 475.058 79.7876 475.058 71.2025C475.058 62.6174 476.793 54.803 480.261 48.2304C483.729 41.6578 488.568 36.5195 494.755 32.8157C500.942 29.1119 508.157 27.2708 516.378 27.2708C524.599 27.2708 531.964 29.1548 538.194 32.9014C544.403 36.648 549.22 41.829 552.645 48.4231C556.071 55.0171 557.762 62.6174 557.762 71.2025C557.762 79.7876 556.049 87.4521 552.603 94.0461C549.156 100.64 544.339 105.821 538.109 109.546C531.9 113.272 524.642 115.134 516.378 115.134ZM516.378 98.1781C523.829 98.1781 529.395 95.6518 533.056 90.6206C536.738 85.5895 538.558 79.1025 538.558 71.2025C538.558 63.3025 536.695 56.4301 532.97 51.5488C529.245 46.6675 523.7 44.2269 516.357 44.2269C511.261 44.2269 507.087 45.3615 503.832 47.6523C500.578 49.9431 498.138 53.0903 496.553 57.1366C494.969 61.1616 494.155 65.8502 494.155 71.2025C494.155 79.4236 496.039 85.9748 499.786 90.8561C503.533 95.7374 509.056 98.1781 516.357 98.1781H516.378Z" fill="white"/>
<path d="M565.324 142.432V29.5838H581.359V88.3093H583.522V142.41H565.324V142.432ZM605.252 115.156C597.181 115.156 590.415 113.23 584.935 109.376C579.454 105.522 575.343 100.277 572.56 93.6187C569.777 86.9605 568.407 79.5101 568.407 71.2247C568.407 62.9393 569.798 55.3391 572.56 48.7236C575.343 42.0867 579.411 36.8629 584.785 33.0306C590.158 29.1984 596.774 27.293 604.631 27.293C612.488 27.293 619.318 29.1984 625.098 33.0306C630.879 36.8629 635.353 42.0653 638.5 48.6808C641.669 55.2748 643.232 62.7895 643.232 71.2247C643.232 79.6599 641.669 87.0247 638.522 93.6616C635.396 100.298 630.986 105.522 625.312 109.376C619.639 113.23 612.938 115.156 605.231 115.156H605.252ZM602.554 98.971C607.479 98.971 611.525 97.7293 614.693 95.2673C617.862 92.8052 620.196 89.4654 621.737 85.2477C623.278 81.0301 624.049 76.3629 624.049 71.2247C624.049 66.0865 623.257 61.4193 621.694 57.2445C620.131 53.0483 617.712 49.7084 614.458 47.225C611.204 44.7415 607.029 43.4783 601.933 43.4783C597.159 43.4783 593.241 44.6558 590.223 46.9895C587.183 49.3231 584.956 52.5773 583.522 56.7306C582.087 60.884 581.359 65.7225 581.359 71.2247C581.359 76.7269 582.087 81.4797 583.522 85.6331C584.956 89.7865 587.225 93.0621 590.351 95.4171C593.455 97.7721 597.523 98.971 602.576 98.971H602.554Z" fill="white"/>
<path d="M649.395 29.5825V43.8411H691.957V29.5825H649.395ZM677.998 98.2205C673.93 97.8351 670.976 96.101 669.134 93.018C668.149 91.4123 667.636 89.3571 667.55 86.8522C667.486 84.3259 667.443 81.3928 667.443 78.053V29.5825H649.395V79.0592C649.395 83.7907 649.459 88.0083 649.566 91.7121C649.652 95.3945 650.658 99.0554 652.564 102.652C654.726 106.549 657.852 109.418 661.962 111.237C666.073 113.057 670.74 114.042 675.964 114.17C681.166 114.299 686.497 113.849 691.957 112.822V97.6424C686.711 98.4132 682.066 98.6059 677.998 98.2205Z" fill="white"/>
<path d="M702.108 18.0212V-0.00537109H720.135V18.0212H702.108ZM702.108 112.821V29.5822H720.135V112.821H702.108Z" fill="white"/>
<path d="M770.103 115.134C761.518 115.134 754.196 113.229 748.137 109.397C742.078 105.564 737.454 100.34 734.264 93.7036C731.074 87.0667 729.447 79.5735 729.404 71.2025C729.447 62.6816 731.138 55.1027 734.457 48.5087C737.775 41.9147 742.464 36.7122 748.565 32.9442C754.667 29.1762 761.903 27.2708 770.338 27.2708C779.737 27.2708 787.701 29.6258 794.231 34.3144C800.761 39.0244 805 45.4472 806.948 53.6255L788.986 58.5496C787.551 54.0323 785.111 50.4998 781.707 47.9949C778.281 45.4686 774.428 44.2269 770.103 44.2269C765.179 44.2269 761.111 45.4044 757.921 47.738C754.731 50.0716 752.376 53.283 750.877 57.3293C749.357 61.3971 748.587 66.0214 748.522 71.2025C748.565 79.2738 750.406 85.7822 754.003 90.7491C757.6 95.716 762.974 98.1781 770.103 98.1781C775.091 98.1781 779.052 97.0434 781.964 94.7526C784.897 92.4618 787.102 89.1648 788.601 84.8402L806.948 88.9935C804.379 97.3645 799.905 103.809 793.503 108.347C787.102 112.865 779.309 115.134 770.103 115.134Z" fill="white"/>
<path d="M667.443 6.46216V29.5841H649.395V11.4077L667.443 6.46216Z" fill="white"/>
<path d="M719.534 -0.00537109H702.728V18.0212H719.534V-0.00537109Z" fill="white"/>
<path fill-rule="evenodd" clip-rule="evenodd" d="M171.93 142.437L159.277 129.784C191.627 97.4351 191.605 45.0039 159.277 12.6546L171.93 0.00170898C211.237 39.3305 211.259 103.109 171.93 142.437ZM42.1236 129.785C9.77424 97.4352 9.77424 44.9826 42.1236 12.6332L29.4921 0.00178792C-9.83662 39.3305 -9.85802 103.109 29.4707 142.437H29.4921L42.145 129.785H42.1236ZM29.4957 71.2088C29.4957 31.88 61.3954 0.00170898 100.724 0.00170898C140.053 0.00170898 171.931 31.88 171.931 71.2088C171.931 110.538 140.053 142.437 100.724 142.437C61.3954 142.437 29.4957 110.538 29.4957 71.2088ZM46.9228 70.7592C46.9228 100.454 71.0082 124.539 100.724 124.539C130.44 124.539 154.526 100.475 154.526 70.7592C154.526 41.0432 130.44 16.9578 100.724 16.9578C71.0082 16.9578 46.9228 41.0646 46.9228 70.7592Z" fill="url(#paint0_linear_389_29077)"/>
</g>
<defs>
<linearGradient id="paint0_linear_389_29077" x1="0.39187" y1="141.871" x2="201.64" y2="0.567802" gradientUnits="userSpaceOnUse">
<stop stop-color="#4C0EF1"/>
<stop offset="1" stop-color="#B25CF6"/>
</linearGradient>
<clipPath id="clip0_389_29077">
<rect width="806.935" height="142.436" fill="white"/>
</clipPath>
</defs>
</svg>
