<svg width="243" height="40" viewBox="0 0 243 40" fill="none" xmlns="http://www.w3.org/2000/svg">
<g clip-path="url(#clip0_1235_1217)">
<path d="M59.1154 39.8419V7.9477H77.1588C78.1003 7.9477 78.9501 8.18392 79.7085 8.6565C80.493 9.12895 81.1076 9.74579 81.5521 10.5071C82.0228 11.2684 82.2581 12.1216 82.2581 13.0665V25.6668C82.2581 26.6118 82.0228 27.4648 81.5521 28.2262C81.1076 28.9874 80.493 29.6043 79.7085 30.0768C78.9501 30.5493 78.1003 30.7855 77.1588 30.7855H63.3517V39.8419H59.1154ZM64.3323 26.533H77.0412C77.3027 26.533 77.5249 26.4411 77.7081 26.2573C77.9172 26.0474 78.0218 25.8111 78.0218 25.5486V13.1847C78.0218 12.9222 77.9172 12.699 77.7081 12.5153C77.5249 12.3052 77.3027 12.2003 77.0412 12.2003H64.3323C64.0708 12.2003 63.8354 12.3052 63.6262 12.5153C63.4431 12.699 63.3517 12.9222 63.3517 13.1847V25.5486C63.3517 25.8111 63.4431 26.0474 63.6262 26.2573C63.8354 26.4411 64.0708 26.533 64.3323 26.533ZM90.5927 30.7855C89.6513 30.7855 88.7883 30.5493 88.0038 30.0768C87.2454 29.6043 86.6309 28.9874 86.1602 28.2262C85.7157 27.4648 85.4934 26.6118 85.4934 25.6668V17.2403H104.361V13.1847C104.361 12.9222 104.269 12.699 104.086 12.5153C103.903 12.3052 103.681 12.2003 103.419 12.2003H85.4934V7.9477H103.537C104.478 7.9477 105.328 8.18392 106.087 8.6565C106.871 9.10267 107.486 9.71964 107.93 10.5071C108.401 11.2946 108.636 12.1477 108.636 13.0665V30.7855H90.5927ZM90.7104 26.533H104.361V21.2172H89.7297V25.5486C89.7297 25.8111 89.8213 26.0474 90.0043 26.2573C90.2135 26.4411 90.4488 26.533 90.7104 26.533ZM112.718 30.7855V7.9477H130.762C131.704 7.9477 132.553 8.18392 133.311 8.6565C134.096 9.12895 134.711 9.74579 135.155 10.5071C135.626 11.2684 135.86 12.1216 135.86 13.0665V30.7855H131.625V13.1847C131.625 12.9222 131.519 12.699 131.311 12.5153C131.128 12.3052 130.906 12.2003 130.644 12.2003H117.935C117.674 12.2003 117.438 12.3052 117.229 12.5153C117.046 12.699 116.954 12.9222 116.954 13.1847V30.7855H112.718ZM144.692 30.7855C143.75 30.7855 142.901 30.5493 142.143 30.0768C141.384 29.6043 140.769 28.9874 140.299 28.2262C139.828 27.4648 139.593 26.6118 139.593 25.6668V13.0665C139.593 12.1216 139.828 11.2684 140.299 10.5071C140.769 9.74579 141.384 9.12895 142.143 8.6565C142.901 8.18392 143.75 7.9477 144.692 7.9477H157.637C158.578 7.9477 159.427 8.18392 160.186 8.6565C160.97 9.10267 161.585 9.71964 162.029 10.5071C162.501 11.2946 162.736 12.1477 162.736 13.0665V25.6668C162.736 26.6118 162.501 27.4648 162.029 28.2262C161.585 28.9874 160.97 29.6043 160.186 30.0768C159.427 30.5493 158.578 30.7855 157.637 30.7855H144.692ZM144.81 26.533H157.519C157.78 26.533 158.002 26.4411 158.185 26.2573C158.369 26.0474 158.46 25.8111 158.46 25.5486V13.1847C158.46 12.9222 158.369 12.699 158.185 12.5153C158.002 12.3052 157.78 12.2003 157.519 12.2003H144.81C144.548 12.2003 144.313 12.3052 144.104 12.5153C143.921 12.699 143.829 12.9222 143.829 13.1847V25.5486C143.829 25.8111 143.921 26.0474 144.104 26.2573C144.313 26.4411 144.548 26.533 144.81 26.533ZM167.278 39.8419V7.9477H185.321C186.262 7.9477 187.113 8.18392 187.872 8.6565C188.656 9.12895 189.271 9.74579 189.715 10.5071C190.185 11.2684 190.421 12.1216 190.421 13.0665V25.6668C190.421 26.6118 190.185 27.4648 189.715 28.2262C189.271 28.9874 188.656 29.6043 187.872 30.0768C187.113 30.5493 186.262 30.7855 185.321 30.7855H171.515V39.8419H167.278ZM172.495 26.533H185.205C185.466 26.533 185.688 26.4411 185.871 26.2573C186.08 26.0474 186.185 25.8111 186.185 25.5486V13.1847C186.185 12.9222 186.08 12.699 185.871 12.5153C185.688 12.3052 185.466 12.2003 185.205 12.2003H172.495C172.234 12.2003 171.998 12.3052 171.788 12.5153C171.606 12.699 171.515 12.9222 171.515 13.1847V25.5486C171.515 25.8111 171.606 26.0474 171.788 26.2573C171.998 26.4411 172.234 26.533 172.495 26.533ZM198.794 30.7855C197.853 30.7855 196.99 30.5493 196.206 30.0768C195.447 29.6043 194.832 28.9874 194.362 28.2262C193.918 27.4648 193.696 26.6118 193.696 25.6668V0.741948H197.931V7.9477H207.268V12.2003H197.931V25.5486C197.931 25.8111 198.024 26.0474 198.206 26.2573C198.415 26.4411 198.651 26.533 198.912 26.533H207.268V30.7855H198.794ZM210.842 30.7855V7.9477H215.079V30.7855H210.842ZM210.842 4.71886V0.466309H215.079V4.71886H210.842ZM224.547 30.7855C223.606 30.7855 222.757 30.5493 221.998 30.0768C221.24 29.6043 220.625 28.9874 220.155 28.2262C219.683 27.4648 219.448 26.6118 219.448 25.6668V13.0665C219.448 12.1216 219.683 11.2684 220.155 10.5071C220.625 9.74579 221.24 9.12895 221.998 8.6565C222.757 8.18392 223.606 7.9477 224.547 7.9477H242.512V12.2003H224.665C224.404 12.2003 224.168 12.3052 223.959 12.5153C223.776 12.699 223.684 12.9222 223.684 13.1847V25.5486C223.684 25.8111 223.776 26.0474 223.959 26.2573C224.168 26.4411 224.404 26.533 224.665 26.533H242.59V30.7855H224.547Z" fill="white"/>
<path fill-rule="evenodd" clip-rule="evenodd" d="M40.9851 20.2058C41.1059 14.6667 38.5942 9.97849 35.7126 7.02484L38.1364 4.66016C41.5268 8.13529 44.5148 13.6656 44.3705 20.2796C44.2349 26.5018 41.9992 31.3114 38.1618 35.4501L35.6787 33.1478C39.0034 29.562 40.8691 25.5283 40.9851 20.2058Z" fill="white"/>
<path fill-rule="evenodd" clip-rule="evenodd" d="M4.06609 20.2058C3.94529 14.6667 6.45703 9.97849 9.33864 7.02484L6.91484 4.66016C3.52445 8.13529 0.536428 13.6656 0.68066 20.2796C0.816346 26.5018 3.05202 31.3114 6.88937 35.4501L9.3725 33.1478C6.04782 29.562 4.18215 25.5283 4.06609 20.2058Z" fill="white"/>
<path fill-rule="evenodd" clip-rule="evenodd" d="M22.4055 32.5574C29.3018 32.5574 34.8923 26.9669 34.8923 20.0707C34.8923 13.1745 29.3018 7.58398 22.4055 7.58398C15.5093 7.58398 9.91882 13.1745 9.91882 20.0707C9.91882 26.9669 15.5093 32.5574 22.4055 32.5574ZM22.4055 35.9437C31.1719 35.9437 38.2785 28.8371 38.2785 20.0707C38.2785 11.3043 31.1719 4.19775 22.4055 4.19775C13.6392 4.19775 6.53259 11.3043 6.53259 20.0707C6.53259 28.8371 13.6392 35.9437 22.4055 35.9437Z" fill="white"/>
</g>
<defs>
<clipPath id="clip0_1235_1217">
<rect width="243" height="40" fill="white"/>
</clipPath>
</defs>
</svg>
