<?xml version="1.0" encoding="utf-8"?>
<!-- Generator: Adobe Illustrator 26.0.2, SVG Export Plug-In . SVG Version: 6.00 Build 0)  -->
<svg version="1.1" id="Layer_1" xmlns="http://www.w3.org/2000/svg" xmlns:xlink="http://www.w3.org/1999/xlink" x="0px" y="0px"
	 viewBox="0 0 1277 604" style="enable-background:new 0 0 1277 604;" xml:space="preserve">
<style type="text/css">
	.st0{fill:#FFFFFF;stroke:#1D1233;stroke-width:3;stroke-miterlimit:10;}
	.st1{fill:#FFFFFF;}
	.st2{fill:#EB6841;fill-opacity:0.15;stroke:#000000;stroke-miterlimit:10;}
	.st3{fill:#47B247;fill-opacity:0.15;stroke:#000000;stroke-miterlimit:10;}
	.st4{fill:none;stroke:#000000;stroke-miterlimit:10;}
	.st5{fill:none;stroke:#000000;stroke-miterlimit:10;stroke-dasharray:5.9797,4.9831;}
	.st6{fill:none;stroke:#4682B4;stroke-width:3;stroke-miterlimit:10;}
	.st7{font-family:'Courier';}
	.st8{font-size:32px;}
	.st9{font-size:28px;}
	.st10{fill:none;stroke:#000000;stroke-miterlimit:10;stroke-dasharray:6,5;}
	.st11{fill:none;stroke:#000000;stroke-width:2;stroke-miterlimit:10;}
	.st12{font-size:16px;}
	.st13{fill:none;stroke:#231F20;stroke-miterlimit:10;}
	.st14{fill:#231F20;}
	.st15{fill:#F1F5F9;stroke:#231F20;stroke-miterlimit:10;}
	.st16{fill:none;stroke:#CC333F;stroke-width:3;stroke-miterlimit:10;}
	.st17{font-size:16.758px;}
	.st18{font-size:14.9993px;}
	.st19{font-size:15px;}
	.st20{fill:#4682B4;fill-opacity:0.15;stroke:#000000;stroke-miterlimit:10;}
</style>
<path class="st0" d="M68.14,12.33h1151.5c27.61,0,50,22.39,50,50v460.12c0,27.61-22.39,50-50,50H68.14c-27.61,0-50-22.39-50-50
	V62.33C18.14,34.72,40.53,12.33,68.14,12.33z"/>
<rect x="177.5" y="52" class="st1" width="910" height="420"/>
<polyline class="st2" points="177,330 177.5,147 601.87,330.59 "/>
<polyline class="st3" points="924.5,330 721.5,279.52 604.87,330.59 "/>
<g>
	<g>
		<polyline class="st4" points="1079.82,471.5 177,471.5 177,78.68 		"/>
		<g>
			<polygon points="1078.36,466.51 1087,471.5 1078.36,476.49 			"/>
		</g>
		<g>
			<polygon points="181.99,80.14 177,71.5 172.01,80.14 			"/>
		</g>
	</g>
</g>
<g>
	<g>
		<line class="st4" x1="165.5" y1="330" x2="168.5" y2="330"/>
		<line class="st5" x1="173.48" y1="330" x2="1048.01" y2="330"/>
		<line class="st4" x1="1050.5" y1="330" x2="1053.5" y2="330"/>
	</g>
</g>
<line class="st4" x1="924.5" y1="461" x2="924.5" y2="481"/>
<polyline class="st6" points="177.5,147 924.5,330 1064.88,330 "/>
<text transform="matrix(1 0 0 1 1106.5732 461.0728)" class="st7 st8">Asset</text>
<text transform="matrix(1 0 0 1 1106.5732 499.4728)" class="st7 st8">Price</text>
<text transform="matrix(6.123234e-17 -1 1 6.123234e-17 75.7831 501.5342)" class="st7 st8">Collateral requirement</text>
<text transform="matrix(1 0 0 1 95.0742 154.7413)" class="st7 st9">100%</text>
<text transform="matrix(1 0 0 1 136.4763 337.7413)" class="st7 st9">C</text>
<line class="st4" x1="167" y1="147" x2="187" y2="147"/>
<text transform="matrix(1 0 0 1 875.5262 510.3416)" class="st7 st9">Strike</text>
<text transform="matrix(1 0 0 1 917.5362 543.9416)" class="st7 st9">K</text>
<line class="st10" x1="924.5" y1="471" x2="924.5" y2="112"/>
<g>
	<g>
		<line class="st11" x1="933.67" y1="146" x2="1111.28" y2="146"/>
		<g>
			<polygon points="940.3,154.18 941.66,152.71 934.44,146 941.66,139.29 940.3,137.82 931.5,146 			"/>
		</g>
		<g>
			<polygon points="1104.65,154.18 1103.29,152.71 1110.51,146 1103.29,139.29 1104.65,137.82 1113.45,146 			"/>
		</g>
	</g>
</g>
<g>
	<g>
		<line class="st11" x1="584.56" y1="146" x2="231" y2="146"/>
		<g>
			<polygon points="577.93,137.82 576.56,139.29 583.79,146 576.56,152.71 577.93,154.18 586.72,146 			"/>
		</g>
		<g>
			<polygon points="237.63,137.82 238.99,139.29 231.77,146 238.99,152.71 237.63,154.18 228.83,146 			"/>
		</g>
	</g>
</g>
<g>
	<g>
		<line class="st11" x1="911.54" y1="146" x2="619.17" y2="146"/>
		<g>
			<polygon points="904.92,137.82 903.55,139.29 910.78,146 903.55,152.71 904.92,154.18 913.71,146 			"/>
		</g>
		<g>
			<polygon points="625.8,137.82 627.16,139.29 619.94,146 627.16,152.71 625.8,154.18 617,146 			"/>
		</g>
	</g>
</g>
<text transform="matrix(1 0 0 1 953.6373 130.0676)" class="st7 st12">Not liquidatable</text>
<text transform="matrix(1 0 0 1 577.8412 510.0315)" class="st7 st9">K-C</text>
<text transform="matrix(1 0 0 1 185.3113 324.8085)" class="st7 st12">mininum</text>
<text transform="matrix(1 0 0 1 185.3113 344.0085)" class="st7 st12">collateral</text>
<g>
	<g>
		<line class="st13" x1="478.5" y1="283.58" x2="478.5" y2="321.42"/>
		<g>
			<polygon class="st14" points="474.41,286.9 475.14,287.58 478.5,283.97 481.86,287.58 482.59,286.9 478.5,282.5 			"/>
		</g>
		<g>
			<polygon class="st14" points="474.41,318.1 475.14,317.42 478.5,321.03 481.86,317.42 482.59,318.1 478.5,322.5 			"/>
		</g>
	</g>
</g>
<text transform="matrix(1 0 0 1 345.767 305.32)" class="st7 st12">protocol loss</text>
<text transform="matrix(1 0 0 1 720.2148 271.4438)" class="st7 st12">liquidator bonus</text>
<text transform="matrix(1 0 0 1 645.3462 91.6677)" class="st7 st12">Liquidatee = -bonus-(1-S/K)</text>
<text transform="matrix(1 0 0 1 645.3462 110.8677)" class="st7 st12">Liquidator = +bonus</text>
<text transform="matrix(1 0 0 1 645.3462 130.0677)" class="st7 st12">protocol = no loss</text>
<text transform="matrix(1 0 0 1 295.9518 91.6675)" class="st7 st12">Liquidatee = -collateral</text>
<text transform="matrix(1 0 0 1 295.9518 110.8675)" class="st7 st12">Liquidator = no loss</text>
<text transform="matrix(1 0 0 1 295.9518 130.0675)" class="st7 st12">protocol = (1-S/K)-C</text>
<line class="st10" x1="602.87" y1="479.5" x2="602.87" y2="111.5"/>
<g>
	<path class="st15" d="M1224.65,283.4h-259.3c-5.52,0-10-4.48-10-10v-63.8c0-5.52,4.48-10,10-10h259.3c5.52,0,10,4.48,10,10v63.79
		C1234.65,278.92,1230.17,283.4,1224.65,283.4z"/>
	<line class="st6" x1="971.76" y1="226.9" x2="1016.65" y2="226.9"/>
	<line class="st16" x1="971.76" y1="257.94" x2="1016.65" y2="257.94"/>
	<text transform="matrix(1 0 0 1 1031.7479 230.0869)" class="st7 st17">required collateral</text>
	<text transform="matrix(1 0 0 1 1032.3701 261.127)" class="st7 st17">in-the-money amount</text>
	<text transform="matrix(0.9744 0.2246 -0.2246 0.9744 420.4093 198.6131)" class="st7 st18">required collateral</text>
	<text transform="matrix(0.9109 0.4127 -0.4127 0.9109 389.5267 228.948)" class="st7 st19">in-the-money amount</text>
</g>
<polyline class="st20" points="923.3,331.65 720.3,382.14 923.5,471 "/>
<polyline class="st16" points="177.5,147 924.5,471 1067.53,471 "/>
<g>
	<g>
		<line class="st13" x1="722.4" y1="288.57" x2="722.4" y2="326.4"/>
		<g>
			<polygon class="st14" points="718.31,291.88 719.04,292.57 722.4,288.95 725.75,292.57 726.49,291.88 722.4,287.49 			"/>
		</g>
		<g>
			<polygon class="st14" points="718.31,323.09 719.04,322.41 722.4,326.02 725.75,322.41 726.49,323.09 722.4,327.49 			"/>
		</g>
	</g>
</g>
<g>
	<g>
		<line class="st13" x1="802.5" y1="368.58" x2="802.5" y2="412.42"/>
		<g>
			<polygon class="st14" points="798.41,371.9 799.14,372.58 802.5,368.97 805.86,372.58 806.59,371.9 802.5,367.5 			"/>
		</g>
		<g>
			<polygon class="st14" points="798.41,409.1 799.14,408.42 802.5,412.03 805.86,408.42 806.59,409.1 802.5,413.5 			"/>
		</g>
	</g>
</g>
<text transform="matrix(1 0 0 1 814.4334 384.3965)" class="st7 st12">Liquidatee</text>
<text transform="matrix(1 0 0 1 814.4334 403.5965)" class="st7 st12">balance</text>
</svg>
