<svg xmlns="http://www.w3.org/2000/svg" xmlns:xlink="http://www.w3.org/1999/xlink" width="1200" zoomAndPan="magnify" viewBox="0 0 900 149.999998" height="200" preserveAspectRatio="xMidYMid meet" version="1.0">
  <defs>
    <clipPath id="newsletterClip">
      <rect x="411.6" y="45" width="76.5" height="60"/>
    </clipPath>
  </defs>

  <!-- 1: Newsletter Icon -->
  <g transform="translate(-385, 25)">
    <path fill="#4f15d0" d="M 454.0625 60.046875 C 454.0625 60.765625 453.585938 61.246094 452.867188 61.246094 L 440.546875 61.246094 C 439.828125 61.246094 439.351562 60.765625 439.351562 60.046875 C 439.351562 59.332031 439.828125 58.851562 440.546875 58.851562 L 452.867188 58.851562 C 453.585938 58.851562 454.0625 59.449219 454.0625 60.046875 Z M 452.867188 65.789062 L 442.820312 65.789062 C 442.101562 65.789062 441.625 66.269531 441.625 66.984375 C 441.625 67.703125 442.101562 68.183594 442.820312 68.183594 L 452.867188 68.183594 C 453.585938 68.183594 454.0625 67.703125 454.0625 66.984375 C 454.0625 66.269531 453.585938 65.789062 452.867188 65.789062 Z M 452.867188 72.726562 L 444.972656 72.726562 C 444.253906 72.726562 443.777344 73.207031 443.777344 73.921875 C 443.777344 74.640625 444.253906 75.121094 444.972656 75.121094 L 452.867188 75.121094 C 453.585938 75.121094 454.0625 74.640625 454.0625 73.921875 C 454.0625 73.207031 453.585938 72.726562 452.867188 72.726562 Z M 452.867188 79.664062 L 447.246094 79.664062 C 446.527344 79.664062 446.050781 80.144531 446.050781 80.859375 C 446.050781 81.578125 446.527344 82.058594 447.246094 82.058594 L 452.867188 82.058594 C 453.585938 82.058594 454.0625 81.578125 454.0625 80.859375 C 454.0625 80.144531 453.585938 79.664062 452.867188 79.664062 Z M 475.472656 49.523438 L 475.472656 58.851562 L 487.316406 58.851562 C 487.4375 58.851562 487.4375 58.851562 487.554688 58.851562 C 487.675781 58.851562 487.675781 58.851562 487.792969 58.851562 C 487.914062 58.851562 487.914062 58.972656 487.914062 58.972656 C 488.035156 58.972656 488.035156 59.089844 488.152344 59.089844 C 488.152344 59.089844 488.152344 59.210938 488.273438 59.210938 C 488.273438 59.332031 488.394531 59.332031 488.394531 59.449219 C 488.394531 59.570312 488.394531 59.570312 488.394531 59.6875 C 488.394531 59.6875 488.394531 59.808594 488.394531 59.808594 L 488.394531 80.621094 C 488.394531 80.621094 488.394531 80.742188 488.394531 80.742188 C 488.394531 80.859375 488.394531 80.859375 488.394531 80.980469 C 488.394531 81.101562 488.273438 81.101562 488.273438 81.21875 C 488.273438 81.21875 488.273438 81.339844 488.152344 81.339844 C 488.035156 81.460938 487.914062 81.460938 487.792969 81.578125 C 487.792969 81.578125 487.792969 81.578125 487.675781 81.699219 C 487.554688 81.816406 487.316406 81.816406 487.195312 81.816406 L 475.355469 81.816406 L 475.355469 90.910156 L 479.542969 98.683594 C 480.257812 100 480.257812 101.554688 479.421875 102.871094 C 478.585938 104.1875 477.269531 104.902344 475.832031 104.902344 L 416.027344 104.902344 C 414.589844 104.902344 413.15625 104.1875 412.4375 102.871094 C 411.71875 101.554688 411.601562 100 412.316406 98.683594 L 416.742188 91.148438 L 416.742188 49.523438 C 416.742188 47.011719 418.65625 45.097656 421.050781 45.097656 L 471.046875 45.097656 C 473.5625 45.097656 475.472656 47.011719 475.472656 49.523438 Z M 486.121094 62.679688 L 477.269531 70.453125 L 486.121094 78.230469 Z M 484.085938 79.664062 L 475.355469 72.007812 L 472.722656 74.28125 C 472.484375 74.523438 472.246094 74.523438 471.886719 74.523438 C 471.527344 74.523438 471.289062 74.402344 471.046875 74.28125 L 468.417969 72.007812 L 459.683594 79.664062 Z M 457.890625 78.230469 L 466.742188 70.453125 L 457.890625 62.679688 Z M 484.085938 61.246094 L 459.925781 61.246094 L 472.003906 71.769531 Z M 477.628906 100 L 473.5625 92.582031 L 418.539062 92.582031 L 414.472656 100 C 414.113281 100.597656 414.230469 101.195312 414.472656 101.792969 C 414.828125 102.390625 415.308594 102.632812 416.027344 102.632812 L 475.832031 102.632812 C 476.429688 102.632812 477.03125 102.273438 477.386719 101.792969 C 477.867188 101.195312 477.867188 100.476562 477.628906 100 Z M 473.082031 82.058594 L 456.695312 82.058594 C 456.574219 82.058594 456.335938 82.058594 456.214844 81.9375 C 456.214844 81.9375 456.214844 81.9375 456.097656 81.816406 C 455.976562 81.699219 455.859375 81.699219 455.738281 81.578125 C 455.738281 81.578125 455.738281 81.460938 455.617188 81.460938 C 455.617188 81.339844 455.5 81.339844 455.5 81.21875 C 455.5 81.101562 455.5 81.101562 455.5 80.980469 C 455.5 80.980469 455.5 80.859375 455.5 80.859375 L 455.5 60.046875 C 455.5 59.929688 455.5 59.929688 455.5 59.929688 C 455.5 59.808594 455.5 59.808594 455.5 59.6875 C 455.5 59.570312 455.617188 59.570312 455.617188 59.449219 C 455.617188 59.449219 455.617188 59.332031 455.738281 59.332031 C 455.738281 59.210938 455.859375 59.210938 455.976562 59.210938 C 455.976562 59.210938 456.097656 59.089844 456.097656 59.089844 C 456.097656 59.089844 456.214844 59.089844 456.335938 59.089844 C 456.457031 59.089844 456.457031 59.089844 456.574219 59.089844 L 472.960938 59.089844 L 472.960938 49.523438 C 472.960938 48.445312 472.125 47.488281 470.929688 47.488281 L 421.050781 47.488281 C 419.972656 47.488281 419.136719 48.324219 419.136719 49.523438 L 419.136719 90.3125 L 473.082031 90.3125 Z M 473.082031 82.058594"/>
  </g>

  <!-- 2: Pencil Icon -->
  <g transform="translate(180, 74)">
    <path fill="#4f15d0" d="M50 0L60 10L15 55L5 45Z"/>
    <path fill="#4f15d0" d="M0 60V50L15 55Z"/>
    <path fill="#4f15d0" d="M60 10L70 0L60 -10L50 0Z"/>
  </g>

  <!-- 3: Newsletter Icon -->
  <g transform="translate(-85, 25)">
    <path fill="#4f15d0" d="M 454.0625 60.046875 C 454.0625 60.765625 453.585938 61.246094 452.867188 61.246094 L 440.546875 61.246094 C 439.828125 61.246094 439.351562 60.765625 439.351562 60.046875 C 439.351562 59.332031 439.828125 58.851562 440.546875 58.851562 L 452.867188 58.851562 C 453.585938 58.851562 454.0625 59.449219 454.0625 60.046875 Z M 452.867188 65.789062 L 442.820312 65.789062 C 442.101562 65.789062 441.625 66.269531 441.625 66.984375 C 441.625 67.703125 442.101562 68.183594 442.820312 68.183594 L 452.867188 68.183594 C 453.585938 68.183594 454.0625 67.703125 454.0625 66.984375 C 454.0625 66.269531 453.585938 65.789062 452.867188 65.789062 Z M 452.867188 72.726562 L 444.972656 72.726562 C 444.253906 72.726562 443.777344 73.207031 443.777344 73.921875 C 443.777344 74.640625 444.253906 75.121094 444.972656 75.121094 L 452.867188 75.121094 C 453.585938 75.121094 454.0625 74.640625 454.0625 73.921875 C 454.0625 73.207031 453.585938 72.726562 452.867188 72.726562 Z M 452.867188 79.664062 L 447.246094 79.664062 C 446.527344 79.664062 446.050781 80.144531 446.050781 80.859375 C 446.050781 81.578125 446.527344 82.058594 447.246094 82.058594 L 452.867188 82.058594 C 453.585938 82.058594 454.0625 81.578125 454.0625 80.859375 C 454.0625 80.144531 453.585938 79.664062 452.867188 79.664062 Z M 475.472656 49.523438 L 475.472656 58.851562 L 487.316406 58.851562 C 487.4375 58.851562 487.4375 58.851562 487.554688 58.851562 C 487.675781 58.851562 487.675781 58.851562 487.792969 58.851562 C 487.914062 58.851562 487.914062 58.972656 487.914062 58.972656 C 488.035156 58.972656 488.035156 59.089844 488.152344 59.089844 C 488.152344 59.089844 488.152344 59.210938 488.273438 59.210938 C 488.273438 59.332031 488.394531 59.332031 488.394531 59.449219 C 488.394531 59.570312 488.394531 59.570312 488.394531 59.6875 C 488.394531 59.6875 488.394531 59.808594 488.394531 59.808594 L 488.394531 80.621094 C 488.394531 80.621094 488.394531 80.742188 488.394531 80.742188 C 488.394531 80.859375 488.394531 80.859375 488.394531 80.980469 C 488.394531 81.101562 488.273438 81.101562 488.273438 81.21875 C 488.273438 81.21875 488.273438 81.339844 488.152344 81.339844 C 488.035156 81.460938 487.914062 81.460938 487.792969 81.578125 C 487.792969 81.578125 487.792969 81.578125 487.675781 81.699219 C 487.554688 81.816406 487.316406 81.816406 487.195312 81.816406 L 475.355469 81.816406 L 475.355469 90.910156 L 479.542969 98.683594 C 480.257812 100 480.257812 101.554688 479.421875 102.871094 C 478.585938 104.1875 477.269531 104.902344 475.832031 104.902344 L 416.027344 104.902344 C 414.589844 104.902344 413.15625 104.1875 412.4375 102.871094 C 411.71875 101.554688 411.601562 100 412.316406 98.683594 L 416.742188 91.148438 L 416.742188 49.523438 C 416.742188 47.011719 418.65625 45.097656 421.050781 45.097656 L 471.046875 45.097656 C 473.5625 45.097656 475.472656 47.011719 475.472656 49.523438 Z M 486.121094 62.679688 L 477.269531 70.453125 L 486.121094 78.230469 Z M 484.085938 79.664062 L 475.355469 72.007812 L 472.722656 74.28125 C 472.484375 74.523438 472.246094 74.523438 471.886719 74.523438 C 471.527344 74.523438 471.289062 74.402344 471.046875 74.28125 L 468.417969 72.007812 L 459.683594 79.664062 Z M 457.890625 78.230469 L 466.742188 70.453125 L 457.890625 62.679688 Z M 484.085938 61.246094 L 459.925781 61.246094 L 472.003906 71.769531 Z M 477.628906 100 L 473.5625 92.582031 L 418.539062 92.582031 L 414.472656 100 C 414.113281 100.597656 414.230469 101.195312 414.472656 101.792969 C 414.828125 102.390625 415.308594 102.632812 416.027344 102.632812 L 475.832031 102.632812 C 476.429688 102.632812 477.03125 102.273438 477.386719 101.792969 C 477.867188 101.195312 477.867188 100.476562 477.628906 100 Z M 473.082031 82.058594 L 456.695312 82.058594 C 456.574219 82.058594 456.335938 82.058594 456.214844 81.9375 C 456.214844 81.9375 456.214844 81.9375 456.097656 81.816406 C 455.976562 81.699219 455.859375 81.699219 455.738281 81.578125 C 455.738281 81.578125 455.738281 81.460938 455.617188 81.460938 C 455.617188 81.339844 455.5 81.339844 455.5 81.21875 C 455.5 81.101562 455.5 81.101562 455.5 80.980469 C 455.5 80.980469 455.5 80.859375 455.5 80.859375 L 455.5 60.046875 C 455.5 59.929688 455.5 59.929688 455.5 59.929688 C 455.5 59.808594 455.5 59.808594 455.5 59.6875 C 455.5 59.570312 455.617188 59.570312 455.617188 59.449219 C 455.617188 59.449219 455.617188 59.332031 455.738281 59.332031 C 455.738281 59.210938 455.859375 59.210938 455.976562 59.210938 C 455.976562 59.210938 456.097656 59.089844 456.097656 59.089844 C 456.097656 59.089844 456.214844 59.089844 456.335938 59.089844 C 456.457031 59.089844 456.457031 59.089844 456.574219 59.089844 L 472.960938 59.089844 L 472.960938 49.523438 C 472.960938 48.445312 472.125 47.488281 470.929688 47.488281 L 421.050781 47.488281 C 419.972656 47.488281 419.136719 48.324219 419.136719 49.523438 L 419.136719 90.3125 L 473.082031 90.3125 Z M 473.082031 82.058594"/>
  </g>

  <!-- 4: Pencil Icon -->
  <g transform="translate(480, 74)">
    <path fill="#4f15d0" d="M50 0L60 10L15 55L5 45Z"/>
    <path fill="#4f15d0" d="M0 60V50L15 55Z"/>
    <path fill="#4f15d0" d="M60 10L70 0L60 -10L50 0Z"/>
  </g>

  <!-- 5: Newsletter Icon -->
  <g transform="translate(215, 25)">
    <path fill="#4f15d0" d="M 454.0625 60.046875 C 454.0625 60.765625 453.585938 61.246094 452.867188 61.246094 L 440.546875 61.246094 C 439.828125 61.246094 439.351562 60.765625 439.351562 60.046875 C 439.351562 59.332031 439.828125 58.851562 440.546875 58.851562 L 452.867188 58.851562 C 453.585938 58.851562 454.0625 59.449219 454.0625 60.046875 Z M 452.867188 65.789062 L 442.820312 65.789062 C 442.101562 65.789062 441.625 66.269531 441.625 66.984375 C 441.625 67.703125 442.101562 68.183594 442.820312 68.183594 L 452.867188 68.183594 C 453.585938 68.183594 454.0625 67.703125 454.0625 66.984375 C 454.0625 66.269531 453.585938 65.789062 452.867188 65.789062 Z M 452.867188 72.726562 L 444.972656 72.726562 C 444.253906 72.726562 443.777344 73.207031 443.777344 73.921875 C 443.777344 74.640625 444.253906 75.121094 444.972656 75.121094 L 452.867188 75.121094 C 453.585938 75.121094 454.0625 74.640625 454.0625 73.921875 C 454.0625 73.207031 453.585938 72.726562 452.867188 72.726562 Z M 452.867188 79.664062 L 447.246094 79.664062 C 446.527344 79.664062 446.050781 80.144531 446.050781 80.859375 C 446.050781 81.578125 446.527344 82.058594 447.246094 82.058594 L 452.867188 82.058594 C 453.585938 82.058594 454.0625 81.578125 454.0625 80.859375 C 454.0625 80.144531 453.585938 79.664062 452.867188 79.664062 Z M 475.472656 49.523438 L 475.472656 58.851562 L 487.316406 58.851562 C 487.4375 58.851562 487.4375 58.851562 487.554688 58.851562 C 487.675781 58.851562 487.675781 58.851562 487.792969 58.851562 C 487.914062 58.851562 487.914062 58.972656 487.914062 58.972656 C 488.035156 58.972656 488.035156 59.089844 488.152344 59.089844 C 488.152344 59.089844 488.152344 59.210938 488.273438 59.210938 C 488.273438 59.332031 488.394531 59.332031 488.394531 59.449219 C 488.394531 59.570312 488.394531 59.570312 488.394531 59.6875 C 488.394531 59.6875 488.394531 59.808594 488.394531 59.808594 L 488.394531 80.621094 C 488.394531 80.621094 488.394531 80.742188 488.394531 80.742188 C 488.394531 80.859375 488.394531 80.859375 488.394531 80.980469 C 488.394531 81.101562 488.273438 81.101562 488.273438 81.21875 C 488.273438 81.21875 488.273438 81.339844 488.152344 81.339844 C 488.035156 81.460938 487.914062 81.460938 487.792969 81.578125 C 487.792969 81.578125 487.792969 81.578125 487.675781 81.699219 C 487.554688 81.816406 487.316406 81.816406 487.195312 81.816406 L 475.355469 81.816406 L 475.355469 90.910156 L 479.542969 98.683594 C 480.257812 100 480.257812 101.554688 479.421875 102.871094 C 478.585938 104.1875 477.269531 104.902344 475.832031 104.902344 L 416.027344 104.902344 C 414.589844 104.902344 413.15625 104.1875 412.4375 102.871094 C 411.71875 101.554688 411.601562 100 412.316406 98.683594 L 416.742188 91.148438 L 416.742188 49.523438 C 416.742188 47.011719 418.65625 45.097656 421.050781 45.097656 L 471.046875 45.097656 C 473.5625 45.097656 475.472656 47.011719 475.472656 49.523438 Z M 486.121094 62.679688 L 477.269531 70.453125 L 486.121094 78.230469 Z M 484.085938 79.664062 L 475.355469 72.007812 L 472.722656 74.28125 C 472.484375 74.523438 472.246094 74.523438 471.886719 74.523438 C 471.527344 74.523438 471.289062 74.402344 471.046875 74.28125 L 468.417969 72.007812 L 459.683594 79.664062 Z M 457.890625 78.230469 L 466.742188 70.453125 L 457.890625 62.679688 Z M 484.085938 61.246094 L 459.925781 61.246094 L 472.003906 71.769531 Z M 477.628906 100 L 473.5625 92.582031 L 418.539062 92.582031 L 414.472656 100 C 414.113281 100.597656 414.230469 101.195312 414.472656 101.792969 C 414.828125 102.390625 415.308594 102.632812 416.027344 102.632812 L 475.832031 102.632812 C 476.429688 102.632812 477.03125 102.273438 477.386719 101.792969 C 477.867188 101.195312 477.867188 100.476562 477.628906 100 Z M 473.082031 82.058594 L 456.695312 82.058594 C 456.574219 82.058594 456.335938 82.058594 456.214844 81.9375 C 456.214844 81.9375 456.214844 81.9375 456.097656 81.816406 C 455.976562 81.699219 455.859375 81.699219 455.738281 81.578125 C 455.738281 81.578125 455.738281 81.460938 455.617188 81.460938 C 455.617188 81.339844 455.5 81.339844 455.5 81.21875 C 455.5 81.101562 455.5 81.101562 455.5 80.980469 C 455.5 80.980469 455.5 80.859375 455.5 80.859375 L 455.5 60.046875 C 455.5 59.929688 455.5 59.929688 455.5 59.929688 C 455.5 59.808594 455.5 59.808594 455.5 59.6875 C 455.5 59.570312 455.617188 59.570312 455.617188 59.449219 C 455.617188 59.449219 455.617188 59.332031 455.738281 59.332031 C 455.738281 59.210938 455.859375 59.210938 455.976562 59.210938 C 455.976562 59.210938 456.097656 59.089844 456.097656 59.089844 C 456.097656 59.089844 456.214844 59.089844 456.335938 59.089844 C 456.457031 59.089844 456.457031 59.089844 456.574219 59.089844 L 472.960938 59.089844 L 472.960938 49.523438 C 472.960938 48.445312 472.125 47.488281 470.929688 47.488281 L 421.050781 47.488281 C 419.972656 47.488281 419.136719 48.324219 419.136719 49.523438 L 419.136719 90.3125 L 473.082031 90.3125 Z M 473.082031 82.058594"/>
  </g>

  <!-- 6: Pencil Icon -->
  <g transform="translate(780, 74)">
    <path fill="#4f15d0" d="M50 0L60 10L15 55L5 45Z"/>
    <path fill="#4f15d0" d="M0 60V50L15 55Z"/>
    <path fill="#4f15d0" d="M60 10L70 0L60 -10L50 0Z"/>
  </g>
</svg>
