<svg id="Layer_1" data-name="Layer 1" xmlns="http://www.w3.org/2000/svg" xmlns:xlink="http://www.w3.org/1999/xlink" viewBox="0 0 2500 1400"><defs><style>.cls-1,.cls-3{fill:#fcfcfc;}.cls-1,.cls-2{stroke:#1d1233;stroke-miterlimit:10;stroke-width:3px;}.cls-13,.cls-14,.cls-16,.cls-19,.cls-2,.cls-23,.cls-24,.cls-33,.cls-35,.cls-36,.cls-41,.cls-53{fill:none;}.cls-4{clip-path:url(#clip-path);}.cls-5{fill:url(#linear-gradient);}.cls-6{clip-path:url(#clip-path-2);}.cls-7{fill:url(#linear-gradient-2);}.cls-8{font-size:72px;fill:#eae7f2;}.cls-28,.cls-29,.cls-37,.cls-44,.cls-45,.cls-46,.cls-52,.cls-8{font-family:HelveticaNeue-Medium, Helvetica Neue;font-weight:500;}.cls-10,.cls-11,.cls-9{text-decoration:underline;}.cls-9{letter-spacing:0em;}.cls-10{letter-spacing:-0.02em;}.cls-12{font-size:36px;fill:#f9f9f9;}.cls-12,.cls-18,.cls-21,.cls-32,.cls-34,.cls-43,.cls-47,.cls-49{font-family:Helvetica-Light, Helvetica;font-weight:300;}.cls-13,.cls-14,.cls-35,.cls-36,.cls-41,.cls-53{stroke:#6200ff;}.cls-13,.cls-14,.cls-16,.cls-19,.cls-22,.cls-23,.cls-24,.cls-27,.cls-33,.cls-35,.cls-36,.cls-39,.cls-41,.cls-53{stroke-miterlimit:10;}.cls-13{stroke-width:5.06px;}.cls-14{stroke-width:4.95px;}.cls-15{fill:url(#linear-gradient-3);}.cls-16{stroke:#b3b3b3;stroke-width:4.5px;}.cls-17{fill:#b3b3b3;}.cls-18,.cls-37{font-size:32px;}.cls-19,.cls-39{stroke:#ff007a;}.cls-19,.cls-53{stroke-width:3.78px;}.cls-20,.cls-40{fill:#ff007a;}.cls-21{font-size:24px;}.cls-22,.cls-25,.cls-27,.cls-39,.cls-54{fill:#fff;}.cls-22,.cls-23,.cls-24{stroke:#35aaaf;}.cls-22{stroke-width:3.75px;}.cls-23{stroke-width:2.81px;}.cls-24{stroke-width:7px;}.cls-25{font-size:7px;}.cls-25,.cls-54{font-family:Helvetica-Bold, Helvetica;font-weight:700;}.cls-26{font-size:10px;}.cls-27{stroke:#308ad4;stroke-width:5.62px;}.cls-28{font-size:33.75px;fill:#308ad4;}.cls-29,.cls-43{font-size:28px;}.cls-30{letter-spacing:-0.09em;}.cls-31,.cls-44,.cls-49{letter-spacing:0em;}.cls-33{stroke:#231f20;}.cls-34{font-size:128px;}.cls-35{stroke-width:10.12px;}.cls-36{stroke-width:9.9px;}.cls-38{letter-spacing:-0.02em;}.cls-39{stroke-width:6.88px;}.cls-40{fill-rule:evenodd;}.cls-41{stroke-width:5.4px;}.cls-42{fill:#6200ff;}.cls-45{letter-spacing:-0.02em;}.cls-47,.cls-51,.cls-52{letter-spacing:0em;}.cls-48{letter-spacing:-0.02em;}.cls-50{letter-spacing:-0.02em;}.cls-54{font-size:11px;}.cls-55{letter-spacing:-0.05em;}</style><clipPath id="clip-path"><rect class="cls-1" x="537.4" y="-1469.9" width="1421.5" height="1380.12" rx="50"/></clipPath><linearGradient id="linear-gradient" x1="384.64" y1="-14.81" x2="2055.64" y2="-14.81" gradientUnits="userSpaceOnUse"><stop offset="0" stop-color="#280663"/><stop offset="0.4" stop-color="#1e1233"/><stop offset="0.6" stop-color="#2c0375"/><stop offset="1" stop-color="#1b102e"/></linearGradient><clipPath id="clip-path-2"><rect class="cls-2" x="538.8" y="12.1" width="1421.5" height="1380.12" rx="50"/></clipPath><linearGradient id="linear-gradient-2" x1="429.98" y1="134.18" x2="2031.98" y2="134.18" xlink:href="#linear-gradient"/><linearGradient id="linear-gradient-3" x1="385.98" y1="1467.18" x2="2056.98" y2="1467.18" xlink:href="#linear-gradient"/></defs><rect class="cls-3" x="537.4" y="-1469.9" width="1421.5" height="1380.12" rx="50"/><g class="cls-4"><rect class="cls-5" x="384.6" y="-173.8" width="1671" height="318"/></g><rect class="cls-2" x="537.4" y="-1469.9" width="1421.5" height="1380.12" rx="50"/><g class="cls-6"><rect class="cls-7" x="430" y="-23.8" width="1602" height="316"/><text class="cls-8" transform="translate(779 120.7)">How <tspan class="cls-9" x="170.7" y="0">p</tspan><tspan class="cls-10" x="214.7" y="0">r</tspan><tspan class="cls-11" x="238.7" y="0">oviding liquidity</tspan><tspan x="761.6" y="0" xml:space="preserve"> works </tspan></text><text class="cls-12" transform="translate(627.9 193.5)">Liquidity Providers (LPs) deposit funds in Panoptic to be lent to option sellers<tspan x="0" y="43.2">for a commission fee. LPs also receive a share of the premium paid by buyers.</tspan></text><circle class="cls-13" cx="715.9" cy="93.9" r="21"/><path class="cls-14" d="M736.9,73.6a29,29,0,0,1,8,20,29.5,29.5,0,0,1-8,20.3"/><path class="cls-14" d="M694.6,113.9a30.1,30.1,0,0,1-7.7-20,28.6,28.6,0,0,1,8-20"/><rect class="cls-15" x="386" y="1308.2" width="1671" height="318"/><path class="cls-16" d="M1555.3,776.6a199.4,199.4,0,0,1,118.9-95.2"/><polygon class="cls-17" points="1578.8 773 1577.5 768.7 1556.3 775.2 1551.4 753.5 1547 754.5 1553 780.9 1578.8 773"/><text class="cls-18" transform="translate(1765.3 655.7)">Uni v3 <tspan x="0" y="38.4">traders</tspan></text><circle class="cls-19" cx="1717.1" cy="670.3" r="30.9"/><path class="cls-20" d="M1697.6,687.4c5.4,4.4,11.3,9.2,18.6,9.3,5.2.4,10.4-1.4,14.8-4.1,1.1-.8,6.5-4.8,5.5-5.4-4.7-2.6-12.9-5.8-9.7-12.4a54.5,54.5,0,0,0,3.7-19.1c-3.6-4.5-4.7-5.9-10.5-6.9s-8.4-.2-12.6,2.9c-3.8,7.4-1.4,15.8,1.4,23.2.4,2.4,2,5,.3,7.2S1701.6,686.5,1697.6,687.4Z"/><text class="cls-21" transform="translate(1714.2 784.4)">pay trading fee</text><circle class="cls-22" cx="1610.8" cy="712" r="28.1"/><rect class="cls-23" x="1592.2" y="698.5" width="37.5" height="25.31"/><line class="cls-23" x1="1598.3" y1="699" x2="1592.7" y2="704.6"/><line class="cls-23" x1="1597.9" y1="706.5" x2="1609.1" y2="706.5"/><line class="cls-23" x1="1597.9" y1="710.2" x2="1624.1" y2="710.2"/><line class="cls-24" x1="1597.9" y1="714" x2="1624.1" y2="714"/><line class="cls-23" x1="1597.9" y1="717.7" x2="1624.1" y2="717.7"/><line class="cls-23" x1="1596.4" y1="698.8" x2="1592.6" y2="703.1"/><text class="cls-25" transform="translate(1598.3 717.1)">ERC<tspan class="cls-26" x="14.8" y="0">20</tspan></text><path class="cls-16" d="M1710.5,720.3a199.3,199.3,0,0,1-116.6,98"/><polygon class="cls-17" points="1602.1 796 1606.1 798.1 1595.5 817.6 1615.8 826.7 1613.9 830.8 1589.3 819.7 1602.1 796"/><text class="cls-21" transform="translate(1571.4 636.1)">swap<tspan x="-6.7" y="28.8">tokens</tspan></text><circle class="cls-27" cx="1671.2" cy="773.4" r="28.1"/><text class="cls-28" transform="translate(1661.5 786.3)">$</text><text class="cls-29" transform="translate(1737.6 485)"><tspan class="cls-30">T</tspan><tspan class="cls-31" x="14" y="0">raders </tspan><tspan class="cls-32" x="104.3" y="0">swap</tspan><tspan class="cls-32"><tspan x="0" y="33.6">and pay fees</tspan><tspan x="0" y="67.2">to Uniswap V3</tspan></tspan></text><line class="cls-33" x1="1730" y1="464" x2="1730" y2="557"/><text class="cls-34" transform="translate(1652.8 555.9)">3</text><circle class="cls-35" cx="1108.7" cy="848.4" r="41.8"/><path class="cls-36" d="M1151,808.2a58.2,58.2,0,0,1,0,80.4"/><path class="cls-36" d="M1066.1,888.2a58.1,58.1,0,0,1,.1-79.8"/><text class="cls-37" transform="translate(1042.9 934.4)">Panoptic</text><text class="cls-37" transform="translate(648.1 926)">liquidity<tspan x="-3.3" y="38.4">p</tspan><tspan class="cls-38" x="16.3" y="38.4">r</tspan><tspan x="27" y="38.4">ovider</tspan></text><circle class="cls-39" cx="1517.3" cy="847.9" r="50.5"/><path class="cls-40" d="M1504.9,828.1a3.3,3.3,0,0,1-.9,1.9,13.8,13.8,0,0,1-2.7,2.3,10.2,10.2,0,0,1-3.3.9h-.4a2.5,2.5,0,0,0-1.9.9,2.6,2.6,0,0,0-.9,1.8v4.2a11.6,11.6,0,0,1-1.8,5.5c0,.4-.5.9-.5.9h0c-.9,1.8-1.8,3.7-1.3,6s.9,2.7,2.2,4.1a18.8,18.8,0,0,1,2.3,1.8h0c2.3,1.4,4.6,3.2,3.7,7.4s-6,6.8-13.8,7.8c1,0-.9-2.8-.9-3.2h0c0-.5-.4-.5-.4-1s-1.4-1.8-1.9-2.7a14.9,14.9,0,0,1-1.3-8.7c.4-2.8,2.3-4.6,4.1-6.9a3.8,3.8,0,0,1,.9-.9c2.3-2.8,4.6-6.5,5.1-10.1v-1a6,6,0,0,1,.4-2.3,12.7,12.7,0,0,1,.9-3.6,7.8,7.8,0,0,1,1.4-1.9c.5-.4.5-.4.5-.9V829l-12-22,17.5,21.6a1.4,1.4,0,0,0,.9.4h1.8c.5,0,.5-.4.9-.4s.5-.5.5-.9,0-.5-.5-1a10.8,10.8,0,0,1-2.2-3.2h0c-.5-.4-.5-.9-1-1.3l-4.6-5.5-11-11.1-17.9-22,18.8,20.7,9.2,10.5,4.6,5.1,1.4,1.3h0c.9,1.4,2.3,2.3,3.2,3.7l.5.5v.4A7.3,7.3,0,0,1,1504.9,828.1Z"/><path class="cls-40" d="M1549.9,835.5h0c0-2.3-1.4-6-4.1-9.7h0c-.9-.9-1.9-2.3-2.8-3.2l-.4-.4a19.2,19.2,0,0,0-4.6-3.3h0a27,27,0,0,0-19.3-2.3c-.9-1.3-2.3-2.2-3.7-3.6a19.2,19.2,0,0,0-6.4-4.2,14.3,14.3,0,0,0-7.3-.9,17.9,17.9,0,0,1,6.8,1.9,12.4,12.4,0,0,1,5.5,4.6,32.7,32.7,0,0,1,4.6,5.5l.5.4a38.3,38.3,0,0,0,4.6,5.5,12.8,12.8,0,0,0,3.2,2.3c.5,0,.5.5.9.5s.5.4.9.4,1.4.5,1.9.5a20.4,20.4,0,0,0,7.3.9h3.7c1.4,0,2.3.5,3.7.5a6.7,6.7,0,0,1,4.1,2.7C1549.4,834.6,1549.4,835,1549.9,835.5Z"/><path class="cls-40" d="M1511.8,835.9c1.8,3.7-2.3,4.6-4.6,5.1s-3.7-1.4-3.2-3.7a2.7,2.7,0,0,1,1.4-2.3,3.7,3.7,0,0,1,2.3-.9,3.3,3.3,0,0,1,2.3.5C1510.9,834.6,1511.3,835.5,1511.8,835.9Z"/><path class="cls-40" d="M1539.3,845.6c-8.2-3.2-16.5-6.9-15.1-16.1,2.8,2.8,6.9,3.7,11.5,4.1s8.7,1.4,12.4,3.7c9.1,5.5,7.8,16.5,4.6,20.7C1553.1,851.1,1546.7,848.3,1539.3,845.6Z"/><path class="cls-40" d="M1542.1,822.2Z"/><path class="cls-40" d="M1506.8,812.5a10.2,10.2,0,0,0-5.5-2.7v1.3a18.6,18.6,0,0,0,4.1,12,8.5,8.5,0,0,0,3.2,2.3c.9.4,2.7,1.3,3.2.4h0v-.4c0-.5-.5-.5-.5-.9l-.4-.5a.5.5,0,0,0-.5-.5h0c0-.4-.4-.9-.4-1.3a8.4,8.4,0,0,1-.9-3.7h0v-.9A19.8,19.8,0,0,0,1506.8,812.5Z"/><path class="cls-40" d="M1534.8,846c-2.3,6,1.3,10.6,4.5,15.6s7.4,11,3.7,17.5c7.8-3.2,11-12.9,8.3-20.2-1.9-4.6-6.9-7.4-11.5-9.7A34.9,34.9,0,0,0,1534.8,846Z"/><path class="cls-40" d="M1512.7,859.8a10.1,10.1,0,0,0-3.6,2.3,48.2,48.2,0,0,1,8.2-1.8h4.1a14.6,14.6,0,0,0,4.6-1,10,10,0,0,0,4.2-2.7,11.4,11.4,0,0,0,2.3-4.1,9,9,0,0,0,0-4.6,21.8,21.8,0,0,0-2.3-4.2,15.8,15.8,0,0,1,.9,4.2,11.8,11.8,0,0,1-.5,4.1,4.9,4.9,0,0,1-2.3,3.2,10.4,10.4,0,0,1-3.2,1.8l-5.5,1.4c-.9,0-1.8.5-2.7.5A12.7,12.7,0,0,0,1512.7,859.8Z"/><path class="cls-40" d="M1536.6,883.7h0c-.5.4-.9.9-1.4.9s-.9.4-1.4.9a8,8,0,0,1-3.6.9c-3.2,0-5.5-2.3-6.9-5.5a21.8,21.8,0,0,1-.9-2.3h0a16.3,16.3,0,0,0-1.9-3.7c-1.8-2.7-4.1-4.5-7.3-4.1-1.4,0-2.3.9-3.2,1.8-1.9,2.8.9,6.9,4.1,6.5h.9c.5,0,.5-.5.9-.5s1-.9,1-1.4.4-1.3,0-1.8a3,3,0,0,0-1-1.8c.5.4,1.4.9,1.4,1.3s.5,1.4,0,2.3a4.1,4.1,0,0,1-.9,2.3l-.9,1a1.4,1.4,0,0,0-.9.4,4.9,4.9,0,0,1-2.3.5,4.9,4.9,0,0,1-3.2-1.4l-.5-.5a5.1,5.1,0,0,1-1.8-1.8s-.5-.5-.5-.9a11.7,11.7,0,0,0-3.7-2.8,9.6,9.6,0,0,0-3.2-.9,3.2,3.2,0,0,1-1.8-.5h-1.9l5.6-4.1a14.6,14.6,0,0,1,6.4-2.7,17.6,17.6,0,0,1,7.3-.5,12.5,12.5,0,0,1,3.7.9,8.5,8.5,0,0,1,3.2,2.3,9.4,9.4,0,0,1,2.3,3.2,8.1,8.1,0,0,1,.9,3.7,4.5,4.5,0,0,0,.5,2.3c.4,3.2.9,7.3,5,7.8h3.7A4.6,4.6,0,0,1,1536.6,883.7Z"/><circle class="cls-41" cx="700.9" cy="848.2" r="44.1"/><path class="cls-42" d="M673,872.7c7.8,6.2,16.2,13.2,26.6,13.2,7.4.6,15-1.9,21.2-5.8,1.5-1.2,9.3-6.9,7.8-7.7-6.6-3.7-18.3-8.3-13.9-17.8a77.2,77.2,0,0,0,5.4-27.3c-5.1-6.4-6.8-8.3-15.1-9.7s-12-.3-17.9,4.1c-5.5,10.6-2,22.5,1.9,33.1.6,3.5,3,7.2.5,10.4C685.4,869.5,678.8,871.4,673,872.7Z"/><text class="cls-37" transform="translate(1432.1 939.2)">UniswapV3</text><path class="cls-16" d="M717.4,760.9a198.9,198.9,0,0,1,349.1-7.4"/><polygon class="cls-17" points="1042.9 750.3 1044.1 746 1065.4 752.1 1069.9 730.4 1074.4 731.3 1068.8 757.7 1042.9 750.3"/><path class="cls-16" d="M1171.6,759.6a199.4,199.4,0,0,1,118.9-95.2"/><polygon class="cls-17" points="1195.1 756 1193.8 751.7 1172.6 758.2 1167.7 736.5 1163.3 737.5 1169.3 763.9 1195.1 756"/><line class="cls-16" x1="765.2" y1="852.9" x2="1028.5" y2="852.9"/><polygon class="cls-17" points="780.1 871.3 783.2 868 766.9 852.9 783.2 837.8 780.1 834.5 760.3 852.9 780.1 871.3"/><line class="cls-16" x1="1192.8" y1="851.9" x2="1451.3" y2="851.9"/><polygon class="cls-17" points="1207.7 870.3 1210.8 867 1194.5 851.9 1210.8 836.8 1207.7 833.5 1187.9 851.9 1207.7 870.3"/><polygon class="cls-17" points="1436.3 870.3 1433.3 867 1449.5 851.9 1433.3 836.8 1436.3 833.5 1456.1 851.9 1436.3 870.3"/><text class="cls-21" transform="translate(821.9 909.1)">withdraw and<tspan x="32.7" y="28.8">receive</tspan><tspan x="8" y="57.6">commission</tspan></text><text class="cls-21" transform="translate(1245.6 909.3)">move liquidity<tspan x="36.7" y="28.8">to/from</tspan><tspan x="27.3" y="57.6">Uniswap</tspan></text><circle class="cls-27" cx="894.7" cy="853.2" r="28.1"/><text class="cls-28" transform="translate(885.1 866.1)">$</text><circle class="cls-27" cx="1322.2" cy="851.7" r="28.1"/><text class="cls-28" transform="translate(1312.6 864.6)">$</text><text class="cls-18" transform="translate(845.5 719.8)">deposit<tspan x="0" y="38.4">liquidity</tspan></text><text class="cls-18" transform="translate(1220.6 600.7)">option buyer/seller</text><text class="cls-43" transform="translate(628.6 499)">A <tspan class="cls-44" x="26.5" y="0">liquidity p</tspan><tspan class="cls-45" x="152.5" y="0">r</tspan><tspan class="cls-46" x="161.8" y="0">ovider</tspan><tspan class="cls-31" x="242.3" y="0" xml:space="preserve"> first has to</tspan><tspan class="cls-44" x="379.2" y="0"> </tspan><tspan class="cls-46"><tspan x="0" y="33.6">deposit </tspan><tspan class="cls-32" x="104.8" y="33.6">funds in the </tspan><tspan x="258.9" y="33.6">Panoptic pool</tspan><tspan class="cls-32" x="439.4" y="33.6"> </tspan></tspan><tspan x="0" y="67.2">at any ratio of token0/token1</tspan></text><line class="cls-33" x1="621" y1="478" x2="621" y2="571"/><text class="cls-34" transform="translate(555.8 569.9)">1</text><text class="cls-29" transform="translate(1206.6 409)"><tspan class="cls-30">T</tspan><tspan class="cls-31" x="14" y="0">raders </tspan><tspan class="cls-47" x="104.3" y="0">will then</tspan><tspan x="205.4" y="0" xml:space="preserve"> bor</tspan><tspan class="cls-48" x="256.8" y="0">r</tspan><tspan x="266.1" y="0">ow </tspan><tspan class="cls-49" x="312.3" y="0">that</tspan><tspan class="cls-32"><tspan x="0" y="33.6">liquidity to </tspan><tspan class="cls-46" x="135.4" y="33.6">c</tspan><tspan class="cls-45" x="150.9" y="33.6">r</tspan><tspan class="cls-46" x="160.3" y="33.6">eate </tspan><tspan x="224.1" y="33.6">long </tspan><tspan x="0" y="67.2">and short </tspan><tspan class="cls-46" x="126.1" y="67.2">options positions</tspan></tspan></text><line class="cls-33" x1="1199" y1="388" x2="1199" y2="481"/><text class="cls-34" transform="translate(1121.8 479.9)">2</text><text class="cls-29" transform="translate(730.3 1111.1)">Liquidity P<tspan class="cls-50" x="136.9" y="0">r</tspan><tspan class="cls-51" x="146.3" y="0">oviders </tspan><tspan class="cls-32" x="249" y="0">benefit by collecting a </tspan><tspan class="cls-51" x="533.8" y="0">commission fee</tspan><tspan class="cls-32" x="737.7" y="0" xml:space="preserve"> based on the notional value of </tspan><tspan class="cls-32"><tspan x="0" y="33.6">all options traded. They also receive a </tspan><tspan class="cls-52" x="484" y="33.6">sp</tspan><tspan class="cls-45" x="515.6" y="33.6">r</tspan><tspan class="cls-52" x="525" y="33.6">ead </tspan><tspan x="581" y="33.6">on the premium paid by option buyers.</tspan><tspan x="0" y="67.2">They may incur a </tspan><tspan class="cls-46" x="222.5" y="67.2">loss </tspan><tspan class="cls-31" x="282.7" y="67.2">if liquidators </tspan><tspan class="cls-46" x="443" y="67.2">do not liquidate </tspan><tspan x="653" y="67.2">distressed accounts in time.</tspan></tspan></text><line class="cls-33" x1="722.7" y1="1090.1" x2="722.7" y2="1183.1"/><text class="cls-34" transform="translate(645.5 1182.1)">4</text><circle class="cls-53" cx="1343.4" cy="645.3" r="30.9"/><path class="cls-42" d="M1323.9,662.5c5.5,4.3,11.3,9.1,18.6,9.2a25,25,0,0,0,14.8-4.1c1.1-.8,6.5-4.8,5.5-5.4-4.6-2.6-12.8-5.8-9.7-12.4a54.5,54.5,0,0,0,3.7-19.1c-3.6-4.5-4.7-5.9-10.5-6.9s-8.4-.1-12.5,2.9c-3.9,7.4-1.4,15.8,1.3,23.2.4,2.5,2.1,5,.3,7.3S1327.9,661.5,1323.9,662.5Z"/><text class="cls-21" transform="translate(1119.5 656.5)">mint options</text><circle class="cls-22" cx="894.3" cy="654.1" r="28.1"/><rect class="cls-23" x="875.7" y="640.6" width="37.5" height="25.31"/><line class="cls-23" x1="881.8" y1="641.1" x2="876.2" y2="646.7"/><line class="cls-23" x1="881.3" y1="648.6" x2="892.6" y2="648.6"/><line class="cls-23" x1="881.3" y1="652.3" x2="907.6" y2="652.3"/><line class="cls-24" x1="881.3" y1="656.1" x2="907.6" y2="656.1"/><line class="cls-23" x1="881.3" y1="659.8" x2="907.6" y2="659.8"/><line class="cls-23" x1="879.9" y1="640.9" x2="876" y2="645.2"/><text class="cls-25" transform="translate(881.8 659.2)">ERC<tspan class="cls-26" x="14.8" y="0">20</tspan></text><circle class="cls-22" cx="1223.7" cy="701.7" r="28.1"/><rect class="cls-23" x="1205.1" y="688.2" width="37.5" height="25.31"/><line class="cls-23" x1="1211.2" y1="688.7" x2="1205.5" y2="694.3"/><line class="cls-23" x1="1210.7" y1="696.2" x2="1222" y2="696.2"/><line class="cls-23" x1="1210.7" y1="699.9" x2="1237" y2="699.9"/><line class="cls-24" x1="1210.7" y1="703.7" x2="1237" y2="703.7"/><line class="cls-23" x1="1210.7" y1="707.4" x2="1237" y2="707.4"/><line class="cls-23" x1="1209.2" y1="688.5" x2="1205.4" y2="692.8"/><text class="cls-54" transform="translate(1211.2 707.8)"><tspan class="cls-55">1</tspan><tspan x="5.5" y="0">155</tspan></text><text class="cls-21" transform="translate(1323.7 741.9)">pay<tspan x="0" y="28.8">commission</tspan></text><path class="cls-16" d="M1324.6,691.8a199.5,199.5,0,0,1-116.5,98"/><polygon class="cls-17" points="1216.2 767.4 1220.2 769.6 1209.6 789.1 1229.9 798.2 1228 802.3 1203.4 791.2 1216.2 767.4"/><circle class="cls-27" cx="1285.3" cy="744.9" r="28.1"/><text class="cls-28" transform="translate(1275.6 757.8)">$</text></g><rect class="cls-2" x="538.8" y="12.1" width="1421.5" height="1380.12" rx="50"/></svg>