<?xml version="1.0" encoding="utf-8"?>
<!-- Generator: Adobe Illustrator 26.5.0, SVG Export Plug-In . SVG Version: 6.00 Build 0)  -->
<svg version="1.1" id="Layer_1" xmlns="http://www.w3.org/2000/svg" xmlns:xlink="http://www.w3.org/1999/xlink" x="0px" y="0px"
	 viewBox="0 0 1200 520.8" style="enable-background:new 0 0 1200 520.8;" xml:space="preserve">
<style type="text/css">
	.st0{fill:#FFFFFF;fill-opacity:0.5;stroke:#000000;stroke-width:1.0258;stroke-miterlimit:10;}
	.st1{fill:url(#SVGID_1_);stroke:#353535;stroke-width:2;stroke-miterlimit:10;}
	.st2{fill:#FCFCFC;stroke:#353535;stroke-width:0.5;stroke-miterlimit:10;}
	.st3{fill:#454545;}
	.st4{font-family:'Courier';}
	.st5{font-size:14.72px;}
	.st6{fill-rule:evenodd;clip-rule:evenodd;fill:#F7F5FF;stroke:#FFFFFF;stroke-miterlimit:10;}
	.st7{fill:none;stroke:#6200FF;stroke-width:2.7;stroke-miterlimit:10;}
	.st8{fill:none;stroke:#6200FF;stroke-width:2.639;stroke-miterlimit:10;}
	.st9{fill:url(#SVGID_00000072965912941421271630000008118497463031432863_);stroke:#353535;stroke-width:2;stroke-miterlimit:10;}
	.st10{fill-rule:evenodd;clip-rule:evenodd;fill:#FFFFFF;stroke:#FF007A;stroke-width:2;stroke-miterlimit:10;}
	.st11{fill-rule:evenodd;clip-rule:evenodd;fill:#FF007A;}
	.st12{fill:url(#SVGID_00000083078077008617120740000004262322659726324653_);stroke:#353535;stroke-width:2;stroke-miterlimit:10;}
	.st13{fill:url(#SVGID_00000043447276072065479180000007003899192576248242_);stroke:#353535;stroke-width:2;stroke-miterlimit:10;}
	.st14{fill:url(#SVGID_00000004544486868950033170000008563041901702643079_);stroke:#353535;stroke-width:2;stroke-miterlimit:10;}
	.st15{font-size:19.32px;}
	.st16{fill:none;stroke:#353535;stroke-width:2;stroke-miterlimit:10;}
	.st17{fill:#353535;}
	.st18{fill-rule:evenodd;clip-rule:evenodd;fill:#FCFCFC;stroke:#353535;stroke-width:0.5;stroke-miterlimit:10;}
	.st19{font-size:11.04px;}
	.st20{opacity:0.75;}
	.st21{fill:#FFFFFF;}
	.st22{fill:none;stroke:#000000;stroke-width:0.5978;stroke-miterlimit:10;}
	
		.st23{clip-path:url(#SVGID_00000124856003802298931440000018025220571441901987_);fill:none;stroke:#008080;stroke-width:0.5978;stroke-miterlimit:10;}
	
		.st24{clip-path:url(#SVGID_00000142898341756747789320000014133582806815639989_);fill:none;stroke:#FF8000;stroke-width:0.5978;stroke-miterlimit:10;}
	
		.st25{clip-path:url(#SVGID_00000001646884796193709960000012525239407379999646_);fill:none;stroke:#000000;stroke-width:0.5978;stroke-miterlimit:10;stroke-dasharray:0.5978,1.4944;}
	.st26{clip-path:url(#SVGID_00000004532955079837222540000005030588652034974386_);}
	.st27{clip-path:url(#SVGID_00000091007473377219522550000003070246948349580458_);}
	.st28{clip-path:url(#SVGID_00000145758040004366386010000002706788432490075805_);}
	.st29{clip-path:url(#SVGID_00000172413905797314293260000001714464647631392436_);}
	
		.st30{clip-path:url(#SVGID_00000103250779583130568910000010016088427333758631_);fill:none;stroke:#000000;stroke-width:0.5978;stroke-miterlimit:10;}
	
		.st31{clip-path:url(#SVGID_00000000927457126238917500000003172793679720714673_);fill:none;stroke:#000000;stroke-width:0.5977;stroke-linecap:round;stroke-linejoin:round;stroke-miterlimit:10;}
	
		.st32{clip-path:url(#SVGID_00000082369457643562431840000017183748037667078021_);fill:none;stroke:#000000;stroke-width:0.5978;stroke-miterlimit:10;}
	
		.st33{clip-path:url(#SVGID_00000160188173552962250780000017821532381103920025_);fill:none;stroke:#000000;stroke-width:0.5977;stroke-linecap:round;stroke-linejoin:round;stroke-miterlimit:10;}
	.st34{font-family:'HelveticaNeue-Light';}
	.st35{font-size:3.7121px;}
	.st36{fill:none;stroke:#008080;stroke-width:0.5978;stroke-miterlimit:10;}
	.st37{fill:none;stroke:#FF8000;stroke-width:0.5978;stroke-miterlimit:10;}
	.st38{fill:none;stroke:#353535;stroke-miterlimit:10;}
	.st39{fill-rule:evenodd;clip-rule:evenodd;fill:#F7F5FF;stroke:#FFFFFF;stroke-width:1;stroke-miterlimit:10.0004;}
	.st40{fill:none;stroke:#6200FF;stroke-width:2.025;stroke-miterlimit:10;}
	.st41{fill:none;stroke:#6200FF;stroke-width:1.9792;stroke-miterlimit:10;}
	.st42{fill-rule:evenodd;clip-rule:evenodd;fill:#FFFFFF;stroke:#FF007A;stroke-width:1.5;stroke-miterlimit:10;}
</style>
<path class="st0" d="M1173.8,508H31.2c-8.9,0-16.2-7.3-16.2-16.2V28.2C15,19.3,22.3,12,31.2,12h1142.5c8.9,0,16.2,7.3,16.2,16.2
	v463.5C1190,500.7,1182.7,508,1173.8,508z"/>
<g>
	
		<linearGradient id="SVGID_1_" gradientUnits="userSpaceOnUse" x1="597.592" y1="123.7624" x2="749.392" y2="123.7624" gradientTransform="matrix(1 0 0 -1 0 332)">
		<stop  offset="0" style="stop-color:#FFFFFF"/>
		<stop  offset="1" style="stop-color:#F7F5FF"/>
	</linearGradient>
	<path class="st1" d="M734.7,249.6H612.3c-8.1,0-14.7-6.6-14.7-14.7v-53.4c0-8.1,6.6-14.7,14.7-14.7h122.4c8.1,0,14.7,6.6,14.7,14.7
		v53.4C749.4,243,742.8,249.6,734.7,249.6z"/>
	<path class="st2" d="M726.9,183.2h-55.6c-5.1,0-9.2-4.1-9.2-9.2v-13.4c0-5.1,4.1-9.2,9.2-9.2h55.6c5.1,0,9.2,4.1,9.2,9.2V174
		C736.1,179.1,731.9,183.2,726.9,183.2z"/>
	<text transform="matrix(1 0 0 1 614.1562 206.9116)" class="st3 st4 st5">SemiFungible-</text>
	<text transform="matrix(1 0 0 1 605.3242 224.5757)" class="st3 st4 st5">PositionManager</text>
	<text transform="matrix(1 0 0 1 669.1797 171.9541)" class="st3 st4 st5">ERC1155</text>
	<g>
		<circle class="st6" cx="602.9" cy="167.9" r="17.5"/>
		<g>
			<circle class="st7" cx="603" cy="167.8" r="10.3"/>
			<g>
				<path class="st8" d="M613.3,157.9c2.5,2.6,4,6.1,4,9.8c0,3.9-1.5,7.4-4,9.9"/>
				<path class="st8" d="M592.5,177.5c-2.4-2.6-3.9-6-3.9-9.8s1.5-7.3,3.9-9.8"/>
			</g>
		</g>
	</g>
</g>
<g>
	
		<linearGradient id="SVGID_00000138568167111644260730000017059370312801386163_" gradientUnits="userSpaceOnUse" x1="993.652" y1="123.7624" x2="1145.452" y2="123.7624" gradientTransform="matrix(1 0 0 -1 0 332)">
		<stop  offset="0" style="stop-color:#FFFFFF"/>
		<stop  offset="1" style="stop-color:#FFE6F3"/>
	</linearGradient>
	
		<path style="fill:url(#SVGID_00000138568167111644260730000017059370312801386163_);stroke:#353535;stroke-width:2;stroke-miterlimit:10;" d="
		M1130.7,249.6h-122.4c-8.1,0-14.7-6.6-14.7-14.7v-53.4c0-8.1,6.6-14.7,14.7-14.7h122.4c8.1,0,14.7,6.6,14.7,14.7v53.4
		C1145.5,243,1138.8,249.6,1130.7,249.6z"/>
	<path class="st2" d="M1123.1,183.1h-55.7c-5.1,0-9.2-4.1-9.2-9.2v-13.4c0-5.1,4.1-9.2,9.2-9.2h55.6c5.1,0,9.2,4.1,9.2,9.2v13.4
		C1132.3,179,1128.2,183.1,1123.1,183.1z"/>
	<text transform="matrix(1 0 0 1 1069.8564 171.8569)" class="st3 st4 st5">ERC721</text>
	<text transform="matrix(1 0 0 1 1019.2734 207.4023)" class="st3 st4 st5">NonFungible-</text>
	<text transform="matrix(1 0 0 1 1006.0254 225.0664)" class="st3 st4 st5">PositionManager</text>
	<g>
		<circle class="st10" cx="997.8" cy="168.1" r="13.4"/>
		<g>
			<path class="st11" d="M994.5,162.9c0,0.2-0.1,0.4-0.3,0.5c-0.2,0.3-0.5,0.5-0.8,0.6c-0.3,0.1-0.6,0.2-0.9,0.2c-0.1,0-0.1,0-0.2,0
				l0,0c-0.2,0-0.4,0.1-0.6,0.2s-0.3,0.3-0.3,0.5c0,0.1,0,0.2-0.1,0.3c0,0.2,0,0.3,0,0.5c0,0.1,0,0.2,0,0.4c-0.1,0.6-0.2,1-0.5,1.5
				c0,0.1-0.1,0.2-0.2,0.3l0,0c-0.3,0.6-0.5,1-0.5,1.6c0.1,0.5,0.3,0.8,0.6,1.1c0.2,0.2,0.4,0.3,0.6,0.5l0,0c0.6,0.4,1.2,0.8,1,1.9
				c-0.2,0.9-1.7,1.8-3.7,2.1c0.2,0-0.3-0.8-0.3-0.8l0,0c-0.1-0.1-0.1-0.2-0.2-0.3c-0.2-0.3-0.4-0.6-0.5-0.8
				c-0.4-0.7-0.5-1.6-0.4-2.4c0.1-0.7,0.6-1.3,1.1-1.8c0.1-0.1,0.2-0.2,0.2-0.3c0.6-0.7,1.3-1.7,1.4-2.8c0-0.1,0-0.2,0-0.3
				c0-0.2,0-0.4,0.1-0.6c0.1-0.4,0.2-0.6,0.3-0.9c0.1-0.2,0.3-0.4,0.4-0.6c0.1-0.1,0.2-0.2,0.2-0.3c0-0.1,0-0.2-0.1-0.4l-3.2-5.9
				l4.7,5.8c0.1,0.1,0.1,0.1,0.2,0.2s0.2,0.1,0.3,0.1s0.2,0,0.3-0.1c0.1-0.1,0.2-0.1,0.2-0.2c0.1-0.1,0.1-0.2,0.1-0.3s0-0.2-0.1-0.3
				c-0.2-0.3-0.5-0.6-0.6-0.8l0,0c-0.1-0.1-0.2-0.2-0.3-0.4l-1.2-1.5l-2.4-2.9l-4.8-5.8l5.1,5.6l2.5,2.8l1.3,1.4
				c0.1,0.1,0.2,0.3,0.4,0.4l0,0c0.3,0.4,0.6,0.6,0.9,1l0.1,0.1v0.1C994.6,162.5,994.6,162.7,994.5,162.9z"/>
			<path class="st11" d="M1006.5,164.9L1006.5,164.9c0-0.6-0.4-1.7-1.2-2.7l0,0c-0.3-0.3-0.5-0.6-0.7-0.8c-0.1-0.1-0.1-0.1-0.2-0.2
				c-0.4-0.3-0.7-0.6-1.2-0.8l0,0c-1.3-0.7-3-1.1-5.2-0.6c-0.3-0.4-0.6-0.6-0.9-1c-0.5-0.5-1.1-0.8-1.7-1.1c-0.6-0.2-1.3-0.4-2-0.3
				c0.6,0.1,1.3,0.3,1.8,0.6s1.1,0.7,1.5,1.2c0.5,0.5,0.8,1,1.2,1.5l0.1,0.1c0.4,0.5,0.7,1,1.2,1.5c0.3,0.3,0.6,0.5,0.8,0.6
				c0.1,0.1,0.2,0.1,0.3,0.1c0.1,0,0.2,0.1,0.3,0.1c0.2,0.1,0.4,0.1,0.5,0.2c0.6,0.2,1.4,0.3,2,0.3c0.1,0,0.2,0,0.3,0l0,0
				c0.3,0,0.5,0,0.7,0c0.3,0,0.6,0.1,0.9,0.2c0.5,0.1,0.9,0.4,1.2,0.8C1006.3,164.6,1006.4,164.7,1006.5,164.9z"/>
			<path class="st11" d="M996.3,164.9c0.6,0.9-0.6,1.3-1.2,1.3c-0.8,0.1-1-0.4-0.8-1c0.1-0.2,0.2-0.5,0.4-0.6
				c0.2-0.2,0.4-0.3,0.6-0.3c0.2,0,0.5,0,0.6,0.1C996,164.6,996.2,164.7,996.3,164.9z"/>
			<path class="st11" d="M1003.8,167.6c-2.1-0.8-4.4-1.7-4-4.3c0.7,0.7,1.8,0.9,3,1.1c1.1,0.2,2.3,0.4,3.3,1
				c2.5,1.5,2.1,4.5,1.3,5.5C1007.5,169,1005.6,168.3,1003.8,167.6z"/>
			<path class="st11" d="M1004.4,161.3L1004.4,161.3L1004.4,161.3C1004.4,161.2,1004.4,161.2,1004.4,161.3
				C1004.4,161.2,1004.4,161.2,1004.4,161.3L1004.4,161.3C1004.5,161.3,1004.5,161.3,1004.4,161.3L1004.4,161.3L1004.4,161.3
				L1004.4,161.3L1004.4,161.3z"/>
			<path class="st11" d="M994.9,158.7c-0.4-0.4-0.9-0.6-1.5-0.7c0,0.1,0,0.3,0,0.4c0,1.1,0.4,2.4,1.1,3.2c0.3,0.3,0.6,0.6,0.9,0.6
				c0.2,0.1,0.7,0.4,0.9,0.1v-0.1v-0.1c0-0.1-0.1-0.2-0.2-0.3c0-0.1-0.1-0.1-0.1-0.2c0-0.1-0.1-0.1-0.1-0.2l0,0l0,0l0,0l0,0l0,0l0,0
				c-0.1-0.1-0.1-0.2-0.2-0.4c-0.1-0.3-0.2-0.6-0.3-1l0,0c0-0.1,0-0.1,0-0.2C995.4,159.7,995.3,159.1,994.9,158.7z"/>
			<path class="st11" d="M1002.5,167.7c-0.6,1.6,0.4,2.9,1.2,4.1c1,1.5,1.9,2.9,0.9,4.6c2-0.8,3-3.4,2.1-5.4c-0.6-1.3-1.8-1.9-3-2.6
				C1003.3,168.2,1002.9,167.9,1002.5,167.7z"/>
			<path class="st11" d="M996.6,171.3c-0.4,0.2-0.7,0.4-1,0.6c0.7-0.3,1.5-0.4,2.2-0.5c0.2,0,0.3,0,0.5,0c0.3,0,0.5,0,0.7-0.1
				c0.5,0,0.8-0.1,1.2-0.3c0.5-0.2,0.7-0.4,1.1-0.7c0.4-0.4,0.6-0.7,0.6-1.1c0.1-0.4,0.1-0.8,0-1.3c-0.1-0.5-0.3-0.7-0.6-1.1
				c0.2,0.4,0.2,0.7,0.3,1.1c0,0.4,0,0.7-0.2,1c-0.1,0.4-0.3,0.6-0.6,0.8c-0.3,0.2-0.6,0.4-0.9,0.6c-0.5,0.2-0.9,0.3-1.5,0.4
				c-0.3,0-0.5,0.1-0.7,0.1C997.3,171.1,997,171.3,996.6,171.3z"/>
			<path class="st11" d="M1003,177.7L1003,177.7L1003,177.7L1003,177.7c-0.2,0.1-0.3,0.2-0.4,0.3s-0.3,0.2-0.4,0.2
				c-0.3,0.2-0.6,0.2-0.9,0.2c-0.9,0-1.5-0.6-1.8-1.5c-0.1-0.2-0.2-0.4-0.3-0.6l0,0c-0.2-0.4-0.3-0.6-0.5-0.9
				c-0.5-0.7-1.1-1.3-2-1.1c-0.4,0.1-0.6,0.2-0.8,0.6c-0.5,0.8,0.2,1.9,1.1,1.7c0.1,0,0.2,0,0.2-0.1c0.1,0,0.2-0.1,0.2-0.1
				c0.1-0.1,0.2-0.3,0.3-0.4c0.1-0.2,0.1-0.4,0-0.6c0-0.2-0.2-0.4-0.3-0.5c0.2,0.1,0.3,0.2,0.4,0.4c0.1,0.2,0.1,0.4,0.1,0.6
				s-0.1,0.4-0.3,0.6c-0.1,0.1-0.2,0.2-0.3,0.2c-0.1,0.1-0.2,0.1-0.3,0.1c-0.2,0.1-0.5,0.1-0.6,0.1c-0.3-0.1-0.6-0.2-0.8-0.4
				l-0.1-0.1c-0.2-0.2-0.3-0.3-0.5-0.5c-0.1-0.1-0.1-0.1-0.2-0.2c-0.3-0.3-0.6-0.6-1-0.7c-0.3-0.1-0.6-0.2-0.8-0.3
				c-0.2,0-0.3-0.1-0.5-0.1c0,0,0,0-0.1,0l0,0l0,0l0,0l0,0c-0.1,0-0.3-0.1-0.4,0c0.5-0.4,0.9-0.8,1.5-1.1c0.6-0.4,1.1-0.6,1.7-0.7
				c0.6-0.2,1.3-0.2,1.9-0.2c0.4,0,0.6,0.1,0.9,0.3c0.3,0.1,0.6,0.3,0.9,0.6c0.3,0.3,0.5,0.6,0.6,0.8c0.1,0.3,0.2,0.6,0.3,0.9
				c0,0.2,0.1,0.4,0.1,0.6c0.1,0.9,0.3,1.9,1.3,2.1c0.1,0,0.1,0,0.2,0h0.2c0.2,0,0.3,0,0.5-0.1
				C1002.4,177.9,1002.8,177.8,1003,177.7z"/>
		</g>
	</g>
	<path class="st11" d="M1007.7,149.1L1007.7,149.1C1007.8,149.2,1007.8,149.2,1007.7,149.1C1007.8,149.1,1007.7,149.1,1007.7,149.1z
		"/>
</g>
<g>
	
		<linearGradient id="SVGID_00000111872646386633440810000014010932091605471413_" gradientUnits="userSpaceOnUse" x1="849.488" y1="247.0424" x2="928.424" y2="247.0424" gradientTransform="matrix(1 0 0 -1 0 332)">
		<stop  offset="0" style="stop-color:#FFFFFF"/>
		<stop  offset="1" style="stop-color:#FFE6F3"/>
	</linearGradient>
	
		<circle style="fill:url(#SVGID_00000111872646386633440810000014010932091605471413_);stroke:#353535;stroke-width:2;stroke-miterlimit:10;" cx="889" cy="85" r="39.5"/>
	<text transform="matrix(1 0 0 1 866.8271 81.7588)" class="st3 st4 st5">UniV3</text>
	<text transform="matrix(1 0 0 1 880.0752 99.4229)" class="st3 st4 st5">LP</text>
</g>
<g>
	<g>
		
			<linearGradient id="SVGID_00000157295503672746365250000011923968598301515961_" gradientUnits="userSpaceOnUse" x1="766.4119" y1="-73.9456" x2="1011.4999" y2="-73.9456" gradientTransform="matrix(1 0 0 -1 0 332)">
			<stop  offset="0" style="stop-color:#FFFFFF"/>
			<stop  offset="1" style="stop-color:#FFE6F3"/>
		</linearGradient>
		
			<path style="fill:url(#SVGID_00000157295503672746365250000011923968598301515961_);stroke:#353535;stroke-width:2;stroke-miterlimit:10;" d="
			M1011.5,332.1v116.1l0,0c0,17.5-54.8,31.6-122.5,31.6s-122.5-14.2-122.5-31.6l0,0V332.1"/>
		
			<linearGradient id="SVGID_00000088122607454091365260000004109800642302701465_" gradientUnits="userSpaceOnUse" x1="766.412" y1="-6.958997e-02" x2="1011.4999" y2="-6.958997e-02" gradientTransform="matrix(1 0 0 -1 0 332)">
			<stop  offset="0" style="stop-color:#FFFFFF"/>
			<stop  offset="1" style="stop-color:#FFE6F3"/>
		</linearGradient>
		
			<ellipse style="fill:url(#SVGID_00000088122607454091365260000004109800642302701465_);stroke:#353535;stroke-width:2;stroke-miterlimit:10;" cx="889" cy="332.1" rx="122.5" ry="31.6"/>
		<text transform="matrix(1 0 0 1 815.4814 334.2441)" class="st3 st4 st15">UniswapV3Pool</text>
	</g>
	<g>
		<circle class="st10" cx="787.1" cy="306.8" r="13.4"/>
		<g>
			<path class="st11" d="M783.9,301.5c0,0.2-0.1,0.4-0.3,0.5c-0.2,0.3-0.5,0.5-0.8,0.6c-0.3,0.1-0.6,0.2-0.9,0.2c-0.1,0-0.1,0-0.2,0
				l0,0c-0.2,0-0.4,0.1-0.6,0.2c-0.2,0.1-0.3,0.3-0.3,0.5c0,0.1,0,0.2-0.1,0.3c0,0.2,0,0.3,0,0.5c0,0.1,0,0.2,0,0.4
				c-0.1,0.6-0.2,1-0.5,1.5c0,0.1-0.1,0.2-0.2,0.3l0,0c-0.3,0.6-0.5,1-0.5,1.6c0.1,0.5,0.3,0.8,0.6,1.1c0.2,0.2,0.4,0.3,0.6,0.5l0,0
				c0.6,0.4,1.2,0.8,1,1.9c-0.2,0.9-1.7,1.8-3.7,2.1c0.2,0-0.3-0.8-0.3-0.8l0,0c-0.1-0.1-0.1-0.2-0.2-0.3c-0.2-0.3-0.4-0.5-0.5-0.8
				c-0.4-0.7-0.5-1.6-0.4-2.4c0.1-0.7,0.6-1.3,1.1-1.8c0.1-0.1,0.2-0.2,0.2-0.3c0.6-0.7,1.3-1.7,1.4-2.8c0-0.1,0-0.2,0-0.3
				c0-0.2,0-0.4,0.1-0.6c0.1-0.4,0.2-0.6,0.3-0.9c0.1-0.2,0.3-0.4,0.4-0.6c0.1-0.1,0.2-0.2,0.2-0.3c0-0.1,0-0.2-0.1-0.4l-3.2-5.9
				l4.7,5.8c0.1,0.1,0.1,0.1,0.2,0.2s0.2,0.1,0.3,0.1s0.2,0,0.3,0s0.2-0.1,0.2-0.2c0.1-0.1,0.1-0.2,0.1-0.3c0-0.1,0-0.2-0.1-0.3
				c-0.2-0.3-0.5-0.6-0.6-0.8l0,0c-0.1-0.1-0.2-0.2-0.3-0.4l-1.2-1.5l-2.4-2.9l-4.8-5.8l5.1,5.6l2.5,2.8l1.3,1.4
				c0.1,0.1,0.2,0.3,0.4,0.4l0,0c0.3,0.4,0.6,0.6,0.9,1l0.1,0.1v0.1C783.9,301.2,783.9,301.3,783.9,301.5z"/>
			<path class="st11" d="M795.9,303.5L795.9,303.5c0-0.6-0.4-1.7-1.2-2.7l0,0c-0.3-0.3-0.5-0.6-0.7-0.8c-0.1-0.1-0.1-0.1-0.2-0.2
				c-0.4-0.3-0.7-0.6-1.2-0.8l0,0c-1.3-0.7-3-1.1-5.2-0.6c-0.3-0.4-0.6-0.6-0.9-1c-0.5-0.5-1.1-0.8-1.7-1.1c-0.6-0.2-1.3-0.4-2-0.3
				c0.6,0.1,1.3,0.3,1.8,0.6c0.6,0.3,1.1,0.7,1.5,1.2c0.5,0.5,0.8,1,1.2,1.5l0.1,0.1c0.4,0.5,0.7,1,1.2,1.4c0.3,0.3,0.6,0.5,0.8,0.6
				c0.1,0,0.2,0.1,0.3,0.1s0.2,0.1,0.3,0.1c0.2,0.1,0.4,0.1,0.5,0.2c0.6,0.2,1.4,0.3,2,0.3c0.1,0,0.2,0,0.3,0l0,0c0.3,0,0.5,0,0.7,0
				s0.6,0.1,0.9,0.2c0.5,0.1,0.9,0.4,1.2,0.8C795.8,303.2,795.8,303.4,795.9,303.5z"/>
			<path class="st11" d="M785.7,303.5c0.6,0.9-0.6,1.3-1.2,1.3c-0.8,0.1-1-0.5-0.8-1c0.1-0.2,0.2-0.5,0.4-0.6
				c0.2-0.1,0.4-0.3,0.6-0.3c0.2,0,0.5,0,0.6,0.1C785.5,303.2,785.5,303.4,785.7,303.5z"/>
			<path class="st11" d="M793.1,306.1c-2.1-0.9-4.4-1.7-4-4.3c0.7,0.7,1.8,0.9,3,1.1c1.1,0.2,2.3,0.4,3.3,1c2.5,1.5,2.1,4.5,1.3,5.5
				C796.8,307.6,795,306.9,793.1,306.1z"/>
			<path class="st11" d="M793.8,299.9L793.8,299.9L793.8,299.9C793.8,299.9,793.7,299.9,793.8,299.9
				C793.7,299.9,793.8,299.9,793.8,299.9L793.8,299.9C793.9,300,793.8,299.9,793.8,299.9L793.8,299.9L793.8,299.9L793.8,299.9
				L793.8,299.9z"/>
			<path class="st11" d="M784.4,297.3c-0.4-0.5-0.9-0.6-1.5-0.7c0,0.1,0,0.3,0,0.4c0,1.1,0.4,2.4,1.1,3.2c0.3,0.3,0.6,0.5,0.9,0.6
				c0.2,0.1,0.7,0.4,0.9,0.1c0,0,0,0,0-0.1c0,0,0,0,0-0.1c0-0.1-0.1-0.2-0.2-0.3c0-0.1-0.1-0.1-0.1-0.2s-0.1-0.1-0.1-0.2l0,0l0,0
				l0,0l0,0l0,0l0,0c-0.1-0.1-0.1-0.2-0.2-0.4c-0.1-0.3-0.2-0.6-0.3-1l0,0c0-0.1,0-0.1,0-0.2C784.8,298.3,784.7,297.8,784.4,297.3z"
				/>
			<path class="st11" d="M791.9,306.3c-0.6,1.6,0.4,2.9,1.2,4.1c1,1.5,1.9,2.9,0.9,4.6c2-0.8,3-3.4,2.1-5.4c-0.6-1.3-1.8-1.9-3-2.6
				C792.7,306.8,792.3,306.6,791.9,306.3z"/>
			<path class="st11" d="M785.9,310c-0.4,0.2-0.7,0.4-1,0.6c0.7-0.3,1.5-0.5,2.2-0.5c0.2,0,0.3,0,0.5,0c0.3,0,0.5,0,0.7,0
				c0.5,0,0.8-0.1,1.2-0.3c0.5-0.2,0.7-0.4,1.1-0.7c0.4-0.4,0.6-0.7,0.6-1.1c0.1-0.5,0.1-0.8,0-1.3c-0.1-0.5-0.3-0.7-0.6-1.1
				c0.2,0.4,0.2,0.7,0.3,1.1c0,0.4,0,0.7-0.2,1c-0.1,0.4-0.3,0.6-0.6,0.8c-0.3,0.2-0.6,0.5-0.9,0.6c-0.5,0.2-0.9,0.3-1.5,0.4
				c-0.3,0-0.5,0.1-0.7,0.1C786.7,309.7,786.3,309.8,785.9,310z"/>
			<path class="st11" d="M792.4,316.3L792.4,316.3L792.4,316.3L792.4,316.3c-0.2,0.1-0.3,0.2-0.4,0.3c-0.1,0.1-0.3,0.2-0.4,0.2
				c-0.3,0.2-0.6,0.2-0.9,0.2c-0.9,0-1.5-0.6-1.8-1.4c-0.1-0.2-0.2-0.4-0.3-0.6l0,0c-0.2-0.4-0.3-0.6-0.5-0.9
				c-0.5-0.7-1.1-1.3-2-1.1c-0.4,0-0.6,0.2-0.8,0.5c-0.5,0.8,0.2,1.9,1.1,1.7c0.1,0,0.2,0,0.2-0.1s0.2-0.1,0.2-0.1
				c0.1-0.1,0.2-0.3,0.3-0.5c0.1-0.2,0.1-0.4,0-0.6c0-0.2-0.2-0.4-0.3-0.5c0.2,0.1,0.3,0.2,0.4,0.5c0.1,0.2,0.1,0.4,0.1,0.6
				c0,0.2-0.1,0.4-0.3,0.6c-0.1,0.1-0.2,0.2-0.3,0.2c-0.1,0.1-0.2,0.1-0.3,0.1c-0.2,0.1-0.5,0.1-0.6,0.1c-0.3,0-0.6-0.2-0.8-0.4
				l-0.1-0.1c-0.2-0.2-0.3-0.3-0.5-0.5c-0.1-0.1-0.1-0.1-0.2-0.2c-0.3-0.3-0.6-0.6-1-0.7c-0.3-0.1-0.6-0.2-0.8-0.3
				c-0.2,0-0.3-0.1-0.5-0.1c0,0,0,0-0.1,0l0,0l0,0l0,0l0,0c-0.1,0-0.3-0.1-0.4,0c0.5-0.5,0.9-0.8,1.5-1.1c0.6-0.4,1.1-0.6,1.7-0.7
				c0.6-0.2,1.3-0.2,1.9-0.2c0.4,0,0.6,0.1,0.9,0.3c0.3,0.1,0.6,0.3,0.9,0.6c0.3,0.3,0.5,0.6,0.6,0.8c0.1,0.3,0.2,0.6,0.3,0.9
				c0,0.2,0.1,0.4,0.1,0.6c0.1,0.9,0.3,1.9,1.3,2.1c0.1,0,0.1,0,0.2,0h0.2c0.2,0,0.3,0,0.5-0.1C791.8,316.5,792.1,316.4,792.4,316.3
				z"/>
		</g>
	</g>
</g>
<g>
	<g>
		<path class="st16" d="M847.6,84.5H650c-8.1,0-14.7,6.6-14.7,14.7v52.2"/>
		<g>
			<polygon class="st17" points="628.5,147.1 635.3,150 642.1,147.1 635.3,163.2 			"/>
		</g>
	</g>
</g>
<path class="st16" d="M884.4,84.5"/>
<g>
	<g>
		<path class="st16" d="M1101.1,136.7V99.2c0-8.1-6.6-14.7-14.7-14.7H929.5"/>
		<g>
			<polygon class="st17" points="1107.8,131.5 1101.1,134.4 1094.2,131.5 1101.1,147.6 			"/>
		</g>
	</g>
</g>
<g>
	<g>
		<path class="st16" d="M750.2,204.6h113c8.1,0,14.7,6.6,14.7,14.7v64"/>
		<g>
			<polygon class="st17" points="871,278.2 877.8,281.1 884.6,278.2 877.8,294.4 			"/>
		</g>
	</g>
</g>
<g>
	<g>
		<path class="st16" d="M993.6,204.6h-79.9c-8.1,0-14.7,6.6-14.7,14.7v64"/>
		<g>
			<polygon class="st17" points="892.2,278.2 899,281.1 905.8,278.2 899,294.3 			"/>
		</g>
	</g>
</g>
<rect x="660" y="59.2" class="st18" width="165" height="39.6"/>
<g>
	<text transform="matrix(1 0 0 1 666.5811 75.3296)" class="st3 st4 st19">mintTokenizedPosition/</text>
	<text transform="matrix(1 0 0 1 666.5811 88.5776)" class="st3 st4 st19">burnTokenizedPosition</text>
</g>
<rect x="947.2" y="57.1" class="st18" width="131.4" height="51.8"/>
<g>
	<text transform="matrix(1 0 0 1 953.7637 73.2559)" class="st3 st4 st19">mint/collect</text>
	<text transform="matrix(1 0 0 1 953.7637 86.5039)" class="st3 st4 st19">increaseLiquidity/</text>
	<text transform="matrix(1 0 0 1 953.7637 99.752)" class="st3 st4 st19">decreaseLiquidity</text>
</g>
<rect x="826.5" y="237.6" class="st18" width="124.2" height="25.4"/>
<g>
	<text transform="matrix(1 0 0 1 833.1016 253.7134)" class="st3 st4 st19">mint/burn/collect</text>
</g>
<g>
	<circle class="st10" cx="856.8" cy="47.1" r="13.4"/>
	<g>
		<path class="st11" d="M853.5,41.8c0,0.2-0.1,0.4-0.3,0.5c-0.2,0.3-0.5,0.5-0.8,0.6c-0.3,0.1-0.6,0.2-0.9,0.2c-0.1,0-0.1,0-0.2,0
			l0,0c-0.2,0-0.4,0.1-0.6,0.2c-0.2,0.1-0.3,0.3-0.3,0.5c0,0.1,0,0.2-0.1,0.3c0,0.2,0,0.3,0,0.5c0,0.1,0,0.2,0,0.4
			c-0.1,0.6-0.2,1-0.5,1.6c0,0.1-0.1,0.2-0.2,0.3l0,0c-0.3,0.6-0.5,1-0.5,1.6c0.1,0.5,0.3,0.8,0.6,1.1c0.2,0.2,0.4,0.3,0.6,0.5l0,0
			c0.6,0.4,1.2,0.8,1,1.9c-0.2,0.9-1.7,1.8-3.7,2.1c0.2,0-0.3-0.7-0.3-0.8l0,0c-0.1-0.1-0.1-0.2-0.2-0.3c-0.2-0.3-0.4-0.5-0.5-0.7
			c-0.4-0.7-0.5-1.6-0.4-2.4c0.1-0.7,0.6-1.3,1.1-1.8c0.1-0.1,0.2-0.2,0.2-0.3c0.6-0.7,1.3-1.7,1.4-2.8c0-0.1,0-0.2,0-0.3
			c0-0.2,0-0.4,0.1-0.6c0.1-0.4,0.2-0.6,0.3-0.9c0.1-0.2,0.3-0.4,0.4-0.6c0.1-0.1,0.2-0.2,0.2-0.3s0-0.2-0.1-0.4l-3.2-5.9l4.7,5.8
			c0.1,0.1,0.1,0.1,0.2,0.2c0.1,0,0.2,0.1,0.3,0.1s0.2,0,0.3,0s0.2-0.1,0.2-0.2c0.1-0.1,0.1-0.2,0.1-0.3s0-0.2-0.1-0.3
			c-0.2-0.3-0.5-0.6-0.6-0.8l0,0c-0.1-0.1-0.2-0.2-0.3-0.4l-1.2-1.5l-2.4-2.9l-4.8-5.8l5.1,5.6l2.5,2.8l1.3,1.4
			c0.1,0.1,0.2,0.3,0.4,0.4l0,0c0.3,0.4,0.6,0.6,0.9,1l0.1,0.1v0.1C853.6,41.4,853.6,41.6,853.5,41.8z"/>
		<path class="st11" d="M865.6,43.7L865.6,43.7c0-0.6-0.4-1.7-1.2-2.7l0,0c-0.3-0.3-0.5-0.6-0.7-0.8c-0.1-0.1-0.1-0.1-0.2-0.2
			c-0.4-0.3-0.7-0.6-1.2-0.8l0,0c-1.3-0.7-3-1.1-5.2-0.6c-0.3-0.4-0.6-0.6-0.9-1c-0.5-0.5-1.1-0.8-1.7-1.1c-0.6-0.2-1.3-0.3-2-0.3
			c0.6,0.1,1.3,0.3,1.8,0.6c0.6,0.3,1.1,0.7,1.5,1.2c0.5,0.5,0.8,1,1.2,1.6l0.1,0.1c0.4,0.5,0.7,1,1.2,1.4c0.3,0.3,0.6,0.5,0.8,0.6
			c0.1,0,0.2,0.1,0.3,0.1s0.2,0.1,0.3,0.1c0.2,0.1,0.4,0.1,0.5,0.2c0.6,0.2,1.4,0.3,2,0.3c0.1,0,0.2,0,0.3,0l0,0c0.3,0,0.5,0,0.7,0
			c0.3,0,0.6,0.1,0.9,0.2c0.5,0.1,0.9,0.4,1.2,0.7C865.4,43.5,865.5,43.6,865.6,43.7z"/>
		<path class="st11" d="M855.4,43.8c0.6,0.9-0.6,1.3-1.2,1.3c-0.8,0.1-1-0.5-0.8-1c0.1-0.2,0.2-0.5,0.4-0.6s0.4-0.3,0.6-0.3
			c0.2,0,0.5,0,0.6,0.1C855.1,43.5,855.3,43.6,855.4,43.8z"/>
		<path class="st11" d="M862.8,46.4c-2.1-0.9-4.4-1.7-4-4.3c0.7,0.7,1.8,0.9,3,1.1c1.1,0.2,2.3,0.4,3.3,1c2.5,1.6,2.1,4.5,1.3,5.5
			C866.5,47.9,864.7,47.1,862.8,46.4z"/>
		<path class="st11" d="M863.6,40.2L863.6,40.2L863.6,40.2C863.5,40.2,863.5,40.1,863.6,40.2C863.5,40.1,863.5,40.2,863.6,40.2
			L863.6,40.2C863.6,40.2,863.6,40.2,863.6,40.2L863.6,40.2L863.6,40.2L863.6,40.2L863.6,40.2z"/>
		<path class="st11" d="M854,37.6c-0.4-0.5-0.9-0.6-1.5-0.7c0,0.2,0,0.3,0,0.4c0,1.1,0.4,2.4,1.1,3.2c0.3,0.3,0.6,0.5,0.9,0.6
			c0.2,0.1,0.7,0.3,0.9,0.1c0,0,0,0,0-0.1c0,0,0,0,0-0.1c0-0.1-0.1-0.2-0.2-0.3c0-0.1-0.1-0.1-0.1-0.2s-0.1-0.1-0.1-0.2l0,0l0,0l0,0
			l0,0l0,0l0,0c-0.1-0.1-0.1-0.2-0.2-0.4c-0.1-0.3-0.2-0.6-0.3-1l0,0c0-0.1,0-0.1,0-0.2C854.5,38.5,854.4,38,854,37.6z"/>
		<path class="st11" d="M861.6,46.5c-0.6,1.6,0.4,2.9,1.2,4.1c1,1.5,1.9,2.9,0.9,4.6c2-0.8,3-3.4,2.1-5.4c-0.6-1.3-1.8-1.9-3-2.6
			C862.5,47.1,862,46.8,861.6,46.5z"/>
		<path class="st11" d="M855.7,50.2c-0.4,0.2-0.7,0.4-1,0.6c0.7-0.3,1.5-0.5,2.2-0.5c0.2,0,0.3,0,0.5,0c0.3,0,0.5,0,0.7,0
			c0.5,0,0.8-0.1,1.2-0.3c0.5-0.2,0.7-0.4,1.1-0.7c0.4-0.4,0.6-0.7,0.6-1.1c0.1-0.5,0.1-0.8,0-1.2c-0.1-0.4-0.3-0.7-0.6-1.1
			c0.2,0.4,0.2,0.7,0.3,1.1c0,0.4,0,0.7-0.2,1c-0.1,0.3-0.3,0.6-0.6,0.8c-0.3,0.2-0.6,0.5-0.9,0.6c-0.5,0.2-0.9,0.3-1.5,0.4
			c-0.3,0-0.5,0.1-0.7,0.1C856.4,50,856,50.1,855.7,50.2z"/>
		<path class="st11" d="M862.1,56.5L862.1,56.5L862.1,56.5L862.1,56.5c-0.2,0.2-0.3,0.2-0.4,0.3c-0.1,0.1-0.3,0.2-0.4,0.2
			c-0.3,0.2-0.6,0.2-0.9,0.2c-0.9,0-1.5-0.6-1.8-1.4c-0.1-0.2-0.2-0.4-0.3-0.6l0,0c-0.2-0.3-0.3-0.6-0.5-0.9c-0.5-0.7-1.1-1.3-2-1.1
			c-0.4,0-0.6,0.2-0.8,0.5c-0.5,0.8,0.2,1.9,1.1,1.7c0.1,0,0.2,0,0.2-0.1s0.2-0.1,0.2-0.1c0.1-0.1,0.2-0.3,0.3-0.5
			c0.1-0.2,0.1-0.4,0-0.6c0-0.2-0.2-0.4-0.3-0.5c0.2,0.1,0.3,0.2,0.4,0.5c0.1,0.2,0.1,0.4,0.1,0.6c0,0.2-0.1,0.4-0.3,0.6
			c-0.1,0.1-0.2,0.2-0.3,0.2c-0.1,0.1-0.2,0.1-0.3,0.2c-0.2,0.1-0.5,0.1-0.6,0.1c-0.3,0-0.6-0.2-0.8-0.4l-0.1-0.1
			c-0.2-0.2-0.3-0.3-0.5-0.5c-0.1-0.1-0.1-0.1-0.2-0.2c-0.3-0.3-0.6-0.6-1-0.7c-0.3-0.1-0.6-0.2-0.8-0.3c-0.2,0-0.3-0.1-0.5-0.1
			c0,0,0,0-0.1,0l0,0l0,0l0,0l0,0c-0.1,0-0.3-0.1-0.4,0c0.5-0.5,0.9-0.7,1.5-1.1c0.6-0.3,1.1-0.6,1.7-0.7c0.6-0.2,1.3-0.2,1.9-0.2
			c0.4,0,0.6,0.1,0.9,0.3c0.3,0.1,0.6,0.3,0.9,0.6c0.3,0.3,0.5,0.6,0.6,0.8c0.1,0.3,0.2,0.6,0.3,0.9c0,0.2,0.1,0.4,0.1,0.6
			c0.1,0.9,0.3,1.9,1.3,2.1c0.1,0,0.1,0,0.2,0h0.2c0.2,0,0.3,0,0.5-0.1C861.5,56.8,861.8,56.7,862.1,56.5z"/>
	</g>
</g>
<g>
	<g class="st20">
		
			<image style="overflow:visible;opacity:0.63;enable-background:new    ;" width="630" height="600" xlink:href="A960D476B8E244E.png"  transform="matrix(0.2204 0 0 0.2204 821.8723 356.4256)">
		</image>
		<g>
			<rect x="831.3" y="365.8" class="st21" width="111" height="104.2"/>
		</g>
	</g>
	<line class="st22" x1="846.9" y1="446.5" x2="926.2" y2="446.5"/>
	<polyline points="927.3,446.5 925.6,445.7 926.2,446.5 925.6,447.4 	"/>
	<line class="st22" x1="846.9" y1="446.5" x2="846.9" y2="380.8"/>
	<polyline points="846.9,379.7 846,381.5 846.9,380.8 847.7,381.5 	"/>
	<g>
		<g>
			<defs>
				<rect id="SVGID_00000173848199682868983070000010781836905193144510_" x="846.9" y="379.7" width="80.4" height="66.8"/>
			</defs>
			<clipPath id="SVGID_00000158005032084528264160000016723059203934122378_">
				<use xlink:href="#SVGID_00000173848199682868983070000010781836905193144510_"  style="overflow:visible;"/>
			</clipPath>
			
				<polyline style="clip-path:url(#SVGID_00000158005032084528264160000016723059203934122378_);fill:none;stroke:#008080;stroke-width:0.5978;stroke-miterlimit:10;" points="
				847.4,-664.8 847.9,-109.2 848.5,76 849,168.7 849.6,224.2 850.1,261.3 850.6,287.7 851.1,307.6 851.7,323.1 852.2,335.4 
				852.8,345.5 853.4,354 853.8,361 854.4,367.1 854.9,372.5 855.5,377.1 856,381.2 856.6,384.8 857.1,388 857.6,390.9 858.1,393.6 
				858.7,396 859.2,398.2 859.8,400.2 860.3,402.1 860.8,403.8 861.4,405.4 861.9,406.9 862.5,408.2 863,409.5 863.6,410.7 
				864,411.8 864.6,412.8 865.1,413.9 865.7,414.8 866.2,415.7 866.8,416.5 867.2,417.3 867.8,418 868.3,418.7 868.9,419.5 
				869.5,420.1 870,420.7 870.5,421.3 871,421.9 871.6,422.4 872.1,422.9 872.7,423.4 873.2,423.9 873.8,424.3 874.2,424.7 
				874.8,425.2 875.3,425.5 875.9,425.9 876.4,426.4 877,426.6 877.5,427 878,427.4 878.6,427.7 879.1,428 879.7,428.3 880.2,428.6 
				880.7,428.9 881.2,429.1 881.8,429.4 882.3,429.7 882.9,430 883.4,430.2 883.9,430.4 884.4,430.7 885,430.9 885.6,431.1 
				886.1,431.3 886.7,431.5 887.2,431.7 887.7,431.9 888.2,432.1 888.8,432.3 889.3,432.4 889.9,432.6 890.4,432.8 890.9,433 
				891.4,433.2 892,433.3 892.5,433.5 893.1,433.6 893.6,433.7 894.1,433.9 894.7,434 895.2,434.2 895.8,434.3 896.3,434.5 
				896.9,434.6 897.3,434.7 897.9,434.8 898.4,434.9 899,435.1 899.5,435.2 900.1,435.3 900.6,435.4 901.1,435.6 901.7,435.7 
				902.2,435.8 902.8,435.8 903.3,435.9 903.9,436 904.3,436.1 904.9,436.2 905.4,436.3 906,436.4 906.5,436.5 907.1,436.6 
				907.5,436.7 908.1,436.8 908.6,436.9 909.2,436.9 909.7,437 910.3,437.1 910.8,437.2 911.3,437.3 911.9,437.3 912.4,437.4 
				913,437.5 913.5,437.6 914.1,437.7 914.5,437.7 915.1,437.8 915.6,437.9 916.2,438 916.7,438 917.3,438.1 917.8,438.1 
				918.3,438.1 918.9,438.2 919.4,438.3 920,438.3 920.5,438.4 921,438.5 921.5,438.5 922.1,438.6 922.6,438.7 923.2,438.7 
				923.7,438.8 924.2,438.8 924.7,438.9 925.3,438.9 925.8,439 926.4,439.1 927,439.1 927.5,439.2 928,439.2 928.5,439.2 
				929.1,439.2 929.6,439.3 930.2,439.3 930.7,439.4 931.2,439.4 931.7,439.5 932.3,439.5 932.8,439.6 933.4,439.6 933.9,439.7 
				934.4,439.7 935,439.8 935.5,439.8 936.1,439.8 936.6,439.9 937.2,439.9 937.6,440 938.2,440 938.7,440.1 939.3,440.1 
				939.8,440.1 940.4,440.2 940.9,440.2 941.4,440.3 941.9,440.3 942.5,440.3 943.1,440.4 943.6,440.4 944.2,440.4 944.6,440.4 
				945.2,440.4 945.7,440.5 946.3,440.5 946.8,440.5 947.4,440.6 947.8,440.6 948.4,440.6 948.9,440.7 949.5,440.7 950,440.7 
				950.6,440.8 951.1,440.8 951.6,440.8 952.2,440.9 952.7,440.9 953.3,440.9 953.8,441 954.4,441 954.8,441 955.4,441 955.9,441.1 
				956.5,441.1 957,441.1 957.6,441.2 958,441.2 958.6,441.2 959.2,441.2 959.7,441.3 960.3,441.3 960.8,441.3 961.3,441.3 
				961.8,441.4 962.4,441.4 962.9,441.4 963.5,441.5 964,441.5 964.5,441.5 965,441.5 965.6,441.5 966.1,441.5 966.7,441.5 
				967.2,441.5 967.8,441.6 968.3,441.6 968.8,441.6 969.4,441.6 969.9,441.6 970.5,441.7 971,441.7 971.5,441.7 972,441.7 
				972.6,441.8 973.1,441.8 973.7,441.8 974.2,441.8 974.7,441.8 975.3,441.9 975.8,441.9 976.4,441.9 976.9,441.9 977.5,441.9 
				977.9,442 978.5,442 979,442 979.6,442 980.1,442 980.7,442.1 981.1,442.1 981.7,442.1 982.2,442.1 982.8,442.1 983.3,442.2 
				983.9,442.2 984.5,442.2 984.9,442.2 985.5,442.2 986,442.3 986.6,442.3 987.1,442.3 987.7,442.3 988.1,442.3 988.7,442.3 
				989.2,442.4 989.8,442.4 990.3,442.4 990.9,442.4 991.4,442.4 991.9,442.4 992.5,442.5 993,442.5 993.6,442.5 994.1,442.5 
				994.6,442.5 995.1,442.5 995.7,442.6 996.2,442.6 996.8,442.6 997.3,442.6 997.9,442.6 998.3,442.6 998.9,442.7 999.4,442.7 
				1000,442.7 1000.6,442.7 1001.1,442.7 1001.6,442.7 1002.1,442.7 1002.7,442.7 1003.2,442.7 1003.8,442.7 1004.3,442.7 
				1004.8,442.7 1005.3,442.7 1005.9,442.7 1006.4,442.8 1007,442.8 1007.5,442.8 1008,442.8 1008.6,442.8 1009.1,442.8 
				1009.7,442.8 1010.2,442.8 1010.8,442.9 1011.3,442.9 1011.8,442.9 1012.3,442.9 1012.9,442.9 1013.4,442.9 1014,442.9 
				1014.5,442.9 1015,443 1015.5,443 1016.1,443 1016.7,443 1017.2,443 1017.8,443 1018.2,443 1018.8,443 1019.3,443.1 
				1019.9,443.1 1020.4,443.1 1021,443.1 1021.4,443.1 1022,443.1 1022.5,443.1 1023.1,443.1 1023.6,443.1 1024.2,443.2 
				1024.7,443.2 1025.2,443.2 1025.8,443.2 1026.3,443.2 1026.9,443.2 1027.4,443.2 1028,443.2 1028.4,443.2 1029,443.3 
				1029.5,443.3 1030.1,443.3 1030.6,443.3 1031.2,443.3 1031.6,443.3 1032.2,443.3 1032.8,443.3 1033.3,443.3 1033.9,443.3 
				1034.4,443.4 1034.9,443.4 1035.4,443.4 1036,443.4 1036.5,443.4 1037.1,443.4 1037.6,443.4 1038.2,443.4 1038.6,443.4 
				1039.2,443.4 1039.7,443.5 1040.3,443.5 1040.8,443.5 1041.4,443.5 1041.9,443.5 1042.4,443.5 1043,443.5 1043.5,443.5 
				1044.1,443.5 1044.6,443.5 1045.1,443.5 1045.6,443.6 1046.2,443.6 1046.7,443.6 1047.3,443.6 1047.8,443.6 1048.3,443.6 
				1048.9,443.6 1049.4,443.6 1050,443.6 1050.5,443.6 1051.1,443.6 1051.6,443.7 1052.1,443.7 1052.6,443.7 1053.2,443.7 
				1053.7,443.7 1054.3,443.7 1054.8,443.7 1055.3,443.7 1055.8,443.7 1056.4,443.7 1056.9,443.7 1057.5,443.7 1058.1,443.7 
				1058.5,443.8 1059.1,443.8 1059.6,443.8 1060.2,443.8 1060.7,443.8 1061.3,443.8 1061.7,443.8 1062.3,443.8 1062.8,443.8 
				1063.4,443.8 1063.9,443.8 1064.5,443.8 1065,443.8 1065.5,443.8 1066.1,443.8 1066.6,443.8 1067.2,443.8 1067.7,443.8 
				1068.3,443.8 1068.7,443.8 1069.3,443.8 1069.8,443.8 1070.4,443.8 1070.9,443.8 1071.5,443.8 1071.9,443.8 1072.5,443.8 
				1073,443.9 1073.6,443.9 1074.2,443.9 1074.7,443.9 1075.2,443.9 1075.7,443.9 1076.3,443.9 1076.8,443.9 1077.4,443.9 
				1077.9,443.9 1078.5,443.9 1078.9,443.9 1079.5,443.9 1080,443.9 1080.6,443.9 1081.1,443.9 1081.7,444 1082.2,444 1082.7,444 
				1083.3,444 1083.8,444 1084.4,444 1084.9,444 1085.4,444 1085.9,444 1086.5,444 1087,444 1087.6,444 1088.1,444 1088.6,444 
				1089.1,444 1089.7,444 1090.3,444.1 1090.8,444.1 1091.4,444.1 1091.9,444.1 1092.4,444.1 1092.9,444.1 1093.5,444.1 1094,444.1 
				1094.6,444.1 1095.1,444.1 1095.6,444.1 1096.1,444.1 1096.7,444.1 1097.2,444.1 1097.8,444.1 1098.3,444.1 1098.8,444.1 
				1099.4,444.2 1099.9,444.2 1100.5,444.2 1101,444.2 1101.6,444.2 1102,444.2 1102.6,444.2 1103.1,444.2 1103.7,444.2 
				1104.2,444.2 1104.8,444.2 1105.2,444.2 1105.8,444.2 1106.4,444.2 1106.9,444.2 1107.5,444.2 1108,444.2 1108.6,444.2 
				1109,444.2 1109.6,444.3 1110.1,444.3 1110.7,444.3 1111.2,444.3 1111.8,444.3 1112.2,444.3 1112.8,444.3 1113.3,444.3 
				1113.9,444.3 1114.4,444.3 1115,444.3 			"/>
		</g>
		<g>
			<defs>
				<rect id="SVGID_00000121275419582218312080000017063237295521852049_" x="846.9" y="379.7" width="80.4" height="66.8"/>
			</defs>
			<clipPath id="SVGID_00000027582502954183728600000016830035420327196549_">
				<use xlink:href="#SVGID_00000121275419582218312080000017063237295521852049_"  style="overflow:visible;"/>
			</clipPath>
			
				<polyline style="clip-path:url(#SVGID_00000027582502954183728600000016830035420327196549_);fill:none;stroke:#FF8000;stroke-width:0.5978;stroke-miterlimit:10;" points="
				846.9,413.1 847.4,414.9 847.9,416.4 848.5,417.9 849,419.3 849.6,420.6 850.1,421.8 850.6,422.9 851.1,424 851.7,424.9 
				852.2,425.9 852.8,426.7 853.4,427.6 853.8,428.4 854.4,429.1 854.9,429.9 855.5,430.5 856,431.2 856.6,431.8 857.1,432.3 
				857.6,433 858.1,433.5 858.7,434 859.2,434.5 859.8,434.9 860.3,435.4 860.8,435.8 861.4,436.3 861.9,436.7 862.5,437 863,437.4 
				863.6,437.8 864,438.1 864.6,438.5 865.1,438.8 865.7,439.2 866.2,439.4 866.8,439.7 867.2,440 867.8,440.3 868.3,440.5 
				868.9,440.8 869.5,441.1 870,441.3 870.5,441.5 871,441.8 871.6,442 872.1,442.2 872.7,442.5 873.2,442.7 873.8,442.8 874.2,443 
				874.8,443.2 875.3,443.4 875.9,443.6 876.4,443.8 877,443.9 877.5,444.1 878,444.3 878.6,444.4 879.1,444.6 879.7,444.8 
				880.2,444.9 880.7,445 881.2,445.1 881.8,445.3 882.3,445.4 882.9,445.6 883.4,445.7 883.9,445.9 884.4,446 885,446.1 
				885.6,446.2 886.1,446.3 886.7,446.4 887.2,446.5 887.7,446.7 888.2,446.8 888.8,446.9 889.3,447 889.9,447.1 890.4,447.2 
				890.9,447.3 891.4,447.3 892,447.4 892.5,447.5 893.1,447.6 893.6,447.7 894.1,447.8 894.7,447.9 895.2,448 895.8,448.1 
				896.3,448.2 896.9,448.3 897.3,448.4 897.9,448.4 898.4,448.4 899,448.5 899.5,448.6 900.1,448.7 900.6,448.8 901.1,448.8 
				901.7,448.9 902.2,449 902.8,449.1 903.3,449.1 903.9,449.2 904.3,449.3 904.9,449.3 905.4,449.4 906,449.5 906.5,449.5 
				907.1,449.6 907.5,449.6 908.1,449.6 908.6,449.7 909.2,449.8 909.7,449.8 910.3,449.9 910.8,449.9 911.3,450 911.9,450 
				912.4,450.1 913,450.2 913.5,450.2 914.1,450.3 914.5,450.3 915.1,450.4 915.6,450.4 916.2,450.5 916.7,450.5 917.3,450.6 
				917.8,450.6 918.3,450.7 918.9,450.7 919.4,450.7 920,450.7 920.5,450.8 921,450.8 921.5,450.9 922.1,450.9 922.6,450.9 
				923.2,451 923.7,451 924.2,451.1 924.7,451.1 925.3,451.2 925.8,451.2 926.4,451.2 927,451.3 927.5,451.3 928,451.4 928.5,451.4 
				929.1,451.4 929.6,451.5 930.2,451.5 930.7,451.5 931.2,451.6 931.7,451.6 932.3,451.7 932.8,451.7 933.4,451.7 933.9,451.8 
				934.4,451.8 935,451.8 935.5,451.9 936.1,451.9 936.6,451.9 937.2,451.9 937.6,451.9 938.2,451.9 938.7,452 939.3,452 939.8,452 
				940.4,452.1 940.9,452.1 941.4,452.1 941.9,452.1 942.5,452.2 943.1,452.2 943.6,452.2 944.2,452.3 944.6,452.3 945.2,452.3 
				945.7,452.3 946.3,452.4 946.8,452.4 947.4,452.4 947.8,452.5 948.4,452.5 948.9,452.5 949.5,452.5 950,452.6 950.6,452.6 
				951.1,452.6 951.6,452.6 952.2,452.7 952.7,452.7 953.3,452.7 953.8,452.7 954.4,452.8 954.8,452.8 955.4,452.8 955.9,452.8 
				956.5,452.8 957,452.9 957.6,452.9 958,452.9 958.6,452.9 959.2,453 959.7,453 960.3,453 960.8,453 961.3,453 961.8,453 
				962.4,453 962.9,453 963.5,453 964,453.1 964.5,453.1 965,453.1 965.6,453.1 966.1,453.1 966.7,453.2 967.2,453.2 967.8,453.2 
				968.3,453.2 968.8,453.2 969.4,453.2 969.9,453.3 970.5,453.3 971,453.3 971.5,453.3 972,453.3 972.6,453.4 973.1,453.4 
				973.7,453.4 974.2,453.4 974.7,453.4 975.3,453.4 975.8,453.5 976.4,453.5 976.9,453.5 977.5,453.5 977.9,453.5 978.5,453.6 
				979,453.6 979.6,453.6 980.1,453.6 980.7,453.6 981.1,453.6 981.7,453.6 982.2,453.7 982.8,453.7 983.3,453.7 983.9,453.7 
				984.5,453.7 984.9,453.7 985.5,453.8 986,453.8 986.6,453.8 987.1,453.8 987.7,453.8 988.1,453.8 988.7,453.8 989.2,453.9 
				989.8,453.9 990.3,453.9 990.9,453.9 991.4,453.9 991.9,453.9 992.5,453.9 993,454 993.6,454 994.1,454 994.6,454 995.1,454 
				995.7,454 996.2,454 996.8,454.1 997.3,454.1 997.9,454.1 998.3,454.1 998.9,454.1 999.4,454.1 1000,454.1 1000.6,454.1 
				1001.1,454.2 1001.6,454.2 1002.1,454.2 1002.7,454.2 1003.2,454.2 1003.8,454.2 1004.3,454.2 1004.8,454.2 1005.3,454.2 
				1005.9,454.2 1006.4,454.2 1007,454.2 1007.5,454.2 1008,454.2 1008.6,454.2 1009.1,454.2 1009.7,454.2 1010.2,454.3 
				1010.8,454.3 1011.3,454.3 1011.8,454.3 1012.3,454.3 1012.9,454.3 1013.4,454.3 1014,454.3 1014.5,454.3 1015,454.4 
				1015.5,454.4 1016.1,454.4 1016.7,454.4 1017.2,454.4 1017.8,454.4 1018.2,454.4 1018.8,454.4 1019.3,454.4 1019.9,454.4 
				1020.4,454.5 1021,454.5 1021.4,454.5 1022,454.5 1022.5,454.5 1023.1,454.5 1023.6,454.5 1024.2,454.5 1024.7,454.5 
				1025.2,454.5 1025.8,454.6 1026.3,454.6 1026.9,454.6 1027.4,454.6 1028,454.6 1028.4,454.6 1029,454.6 1029.5,454.6 
				1030.1,454.6 1030.6,454.6 1031.2,454.6 1031.6,454.7 1032.2,454.7 1032.8,454.7 1033.3,454.7 1033.9,454.7 1034.4,454.7 
				1034.9,454.7 1035.4,454.7 1036,454.7 1036.5,454.7 1037.1,454.7 1037.6,454.7 1038.2,454.8 1038.6,454.8 1039.2,454.8 
				1039.7,454.8 1040.3,454.8 1040.8,454.8 1041.4,454.8 1041.9,454.8 1042.4,454.8 1043,454.8 1043.5,454.8 1044.1,454.8 
				1044.6,454.9 1045.1,454.9 1045.6,454.9 1046.2,454.9 1046.7,454.9 1047.3,454.9 1047.8,454.9 1048.3,454.9 1048.9,454.9 
				1049.4,454.9 1050,454.9 1050.5,454.9 1051.1,454.9 1051.6,454.9 1052.1,455 1052.6,455 1053.2,455 1053.7,455 1054.3,455 
				1054.8,455 1055.3,455 1055.8,455 1056.4,455 1056.9,455 1057.5,455 1058.1,455 1058.5,455 1059.1,455 1059.6,455.1 
				1060.2,455.1 1060.7,455.1 1061.3,455.1 1061.7,455.1 1062.3,455.1 1062.8,455.1 1063.4,455.1 1063.9,455.1 1064.5,455.1 
				1065,455.1 1065.5,455.1 1066.1,455.1 1066.6,455.1 1067.2,455.1 1067.7,455.2 1068.3,455.2 1068.7,455.2 1069.3,455.2 
				1069.8,455.2 1070.4,455.2 1070.9,455.2 1071.5,455.2 1071.9,455.2 1072.5,455.2 1073,455.2 1073.6,455.2 1074.2,455.2 
				1074.7,455.2 1075.2,455.2 1075.7,455.2 1076.3,455.3 1076.8,455.3 1077.4,455.3 1077.9,455.3 1078.5,455.3 1078.9,455.3 
				1079.5,455.3 1080,455.3 1080.6,455.3 1081.1,455.3 1081.7,455.3 1082.2,455.3 1082.7,455.3 1083.3,455.3 1083.8,455.3 
				1084.4,455.3 1084.9,455.3 1085.4,455.3 1085.9,455.3 1086.5,455.3 1087,455.3 1087.6,455.3 1088.1,455.3 1088.6,455.3 
				1089.1,455.3 1089.7,455.3 1090.3,455.3 1090.8,455.3 1091.4,455.3 1091.9,455.3 1092.4,455.3 1092.9,455.3 1093.5,455.3 
				1094,455.3 1094.6,455.3 1095.1,455.3 1095.6,455.3 1096.1,455.4 1096.7,455.4 1097.2,455.4 1097.8,455.4 1098.3,455.4 
				1098.8,455.4 1099.4,455.4 1099.9,455.4 1100.5,455.4 1101,455.4 1101.6,455.4 1102,455.4 1102.6,455.4 1103.1,455.4 
				1103.7,455.4 1104.2,455.4 1104.8,455.4 1105.2,455.4 1105.8,455.4 1106.4,455.4 1106.9,455.5 1107.5,455.5 1108,455.5 
				1108.6,455.5 1109,455.5 1109.6,455.5 1110.1,455.5 1110.7,455.5 1111.2,455.5 1111.8,455.5 1112.2,455.5 1112.8,455.5 
				1113.3,455.5 1113.9,455.5 1114.4,455.5 1115,455.5 			"/>
		</g>
		<g>
			<defs>
				<rect id="SVGID_00000182502957731426126300000001562159362691272077_" x="846.9" y="379.7" width="80.4" height="66.8"/>
			</defs>
			<clipPath id="SVGID_00000041265162052442739030000011770414189431560852_">
				<use xlink:href="#SVGID_00000182502957731426126300000001562159362691272077_"  style="overflow:visible;"/>
			</clipPath>
			
				<polyline style="clip-path:url(#SVGID_00000041265162052442739030000011770414189431560852_);fill:none;stroke:#000000;stroke-width:0.5978;stroke-miterlimit:10;stroke-dasharray:0.5978,1.4944;" points="
				846.9,446.5 847.4,446.1 847.9,445.7 848.5,445.2 849,444.8 849.6,444.3 850.1,443.8 850.6,443.4 851.1,442.9 851.7,442.6 
				852.2,442.1 852.8,441.6 853.4,441.2 853.8,440.7 854.4,440.3 854.9,439.8 855.5,439.4 856,439 856.6,438.5 857.1,438.1 
				857.6,437.6 858.1,437.1 858.7,436.7 859.2,436.3 859.8,435.8 860.3,435.4 860.8,434.9 861.4,434.5 861.9,434 862.5,433.6 
				863,433.2 863.6,432.7 864,432.3 864.6,431.8 865.1,431.3 865.7,430.9 866.2,430.5 866.8,430 867.2,429.6 867.8,429.1 
				868.3,428.7 868.9,428.2 869.5,427.7 870,427.4 870.5,426.9 871,426.5 871.6,426 872.1,425.5 872.7,425.1 873.2,424.6 
				873.8,424.3 874.2,423.8 874.8,423.3 875.3,422.9 875.9,422.4 876.4,422 877,421.6 877.5,421.1 878,420.7 878.6,420.2 
				879.1,419.7 879.7,419.3 880.2,418.8 880.7,418.5 881.2,418 881.8,417.5 882.3,417.1 882.9,416.6 883.4,416.2 883.9,415.7 
				884.4,415.3 885,414.9 885.6,414.4 886.1,413.9 886.7,413.5 887.2,413 887.7,412.6 888.2,412.2 888.8,411.7 889.3,411.3 
				889.9,410.8 890.4,410.4 890.9,409.9 891.4,409.5 892,409.1 892.5,408.6 893.1,408.2 893.6,407.7 894.1,407.2 894.7,406.8 
				895.2,406.4 895.8,405.9 896.3,405.5 896.9,405 897.3,404.6 897.9,404.1 898.4,403.6 899,403.3 899.5,402.8 900.1,402.4 
				900.6,401.9 901.1,401.4 901.7,401 902.2,400.5 902.8,400.1 903.3,399.7 903.9,399.2 904.3,398.8 904.9,398.3 905.4,397.8 
				906,397.5 906.5,397 907.1,396.6 907.5,396.1 908.1,395.6 908.6,395.2 909.2,394.7 909.7,394.4 910.3,393.9 910.8,393.4 
				911.3,393 911.9,392.5 912.4,392.1 913,391.6 913.5,391.2 914.1,390.8 914.5,390.3 915.1,389.8 915.6,389.4 916.2,388.9 
				916.7,388.6 917.3,388.1 917.8,387.6 918.3,387.2 918.9,386.7 919.4,386.3 920,385.8 920.5,385.4 921,385 921.5,384.5 922.1,384 
				922.6,383.6 923.2,383.1 923.7,382.7 924.2,382.3 924.7,381.8 925.3,381.4 925.8,380.9 926.4,380.5 927,380 927.5,379.5 
				928,379.2 928.5,378.7 929.1,378.3 929.6,377.8 930.2,377.3 930.7,376.9 931.2,376.5 931.7,376 932.3,375.6 932.8,375.1 
				933.4,374.7 933.9,374.2 934.4,373.7 935,373.4 935.5,372.9 936.1,372.5 936.6,372 937.2,371.5 937.6,371.1 938.2,370.6 
				938.7,370.2 939.3,369.8 939.8,369.3 940.4,368.9 940.9,368.4 941.4,367.9 941.9,367.5 942.5,367.1 943.1,366.7 943.6,366.2 
				944.2,365.7 944.6,365.3 945.2,364.8 945.7,364.5 946.3,364 946.8,363.5 947.4,363.1 947.8,362.6 948.4,362.2 948.9,361.7 
				949.5,361.3 950,360.9 950.6,360.4 951.1,359.9 951.6,359.5 952.2,359 952.7,358.6 953.3,358.2 953.8,357.7 954.4,357.3 
				954.8,356.8 955.4,356.4 955.9,355.9 956.5,355.4 957,355.1 957.6,354.6 958,354.1 958.6,353.7 959.2,353.2 959.7,352.8 
				960.3,352.4 960.8,351.9 961.3,351.5 961.8,351 962.4,350.6 962.9,350.1 963.5,349.6 964,349.3 964.5,348.8 965,348.4 
				965.6,347.9 966.1,347.4 966.7,347 967.2,346.5 967.8,346.1 968.3,345.7 968.8,345.2 969.4,344.8 969.9,344.3 970.5,343.8 
				971,343.4 971.5,343 972,342.6 972.6,342.1 973.1,341.6 973.7,341.2 974.2,340.7 974.7,340.3 975.3,339.9 975.8,339.4 976.4,339 
				976.9,338.5 977.5,338 977.9,337.6 978.5,337.2 979,336.8 979.6,336.3 980.1,335.8 980.7,335.4 981.1,334.9 981.7,334.5 
				982.2,334.1 982.8,333.6 983.3,333.2 983.9,332.7 984.5,332.3 984.9,331.8 985.5,331.4 986,331 986.6,330.5 987.1,330 
				987.7,329.6 988.1,329.1 988.7,328.7 989.2,328.3 989.8,327.8 990.3,327.4 990.9,326.9 991.4,326.5 991.9,326 992.5,325.5 
				993,325.2 993.6,324.7 994.1,324.2 994.6,323.8 995.1,323.3 995.7,322.9 996.2,322.4 996.8,322 997.3,321.6 997.9,321.1 
				998.3,320.7 998.9,320.2 999.4,319.7 1000,319.4 1000.6,318.9 1001.1,318.5 1001.6,318 1002.1,317.5 1002.7,317.1 1003.2,316.6 
				1003.8,316.2 1004.3,315.8 1004.8,315.3 1005.3,314.9 1005.9,314.4 1006.4,313.9 1007,313.5 1007.5,313.1 1008,312.7 
				1008.6,312.2 1009.1,311.7 1009.7,311.3 1010.2,310.8 1010.8,310.4 1011.3,310 1011.8,309.5 1012.3,309.1 1012.9,308.6 
				1013.4,308.1 1014,307.7 1014.5,307.3 1015,306.9 1015.5,306.4 1016.1,305.9 1016.7,305.5 1017.2,305 1017.8,304.6 1018.2,304.2 
				1018.8,303.7 1019.3,303.3 1019.9,302.8 1020.4,302.4 1021,301.9 1021.4,301.4 1022,301.1 1022.5,300.6 1023.1,300.1 
				1023.6,299.7 1024.2,299.2 1024.7,298.8 1025.2,298.3 1025.8,297.9 1026.3,297.5 1026.9,297 1027.4,296.6 1028,296.1 
				1028.4,295.6 1029,295.3 1029.5,294.8 1030.1,294.3 1030.6,293.9 1031.2,293.4 1031.6,293 1032.2,292.5 1032.8,292.1 
				1033.3,291.7 1033.9,291.2 1034.4,290.8 1034.9,290.3 1035.4,289.8 1036,289.4 1036.5,289 1037.1,288.6 1037.6,288.1 
				1038.2,287.6 1038.6,287.2 1039.2,286.7 1039.7,286.3 1040.3,285.9 1040.8,285.4 1041.4,285 1041.9,284.5 1042.4,284 1043,283.6 
				1043.5,283.2 1044.1,282.8 1044.6,282.3 1045.1,281.8 1045.6,281.4 1046.2,280.9 1046.7,280.5 1047.3,280.1 1047.8,279.6 
				1048.3,279.2 1048.9,278.7 1049.4,278.2 1050,277.8 1050.5,277.3 1051.1,277 1051.6,276.5 1052.1,276 1052.6,275.6 1053.2,275.1 
				1053.7,274.7 1054.3,274.2 1054.8,273.8 1055.3,273.4 1055.8,272.9 1056.4,272.5 1056.9,272 1057.5,271.5 1058.1,271.2 
				1058.5,270.7 1059.1,270.2 1059.6,269.8 1060.2,269.3 1060.7,268.9 1061.3,268.4 1061.7,268 1062.3,267.6 1062.8,267.1 
				1063.4,266.7 1063.9,266.2 1064.5,265.7 1065,265.3 1065.5,264.9 1066.1,264.4 1066.6,264 1067.2,263.5 1067.7,263.1 
				1068.3,262.6 1068.7,262.2 1069.3,261.8 1069.8,261.3 1070.4,260.9 1070.9,260.4 1071.5,259.9 1071.9,259.5 1072.5,259.1 
				1073,258.7 1073.6,258.2 1074.2,257.7 1074.7,257.3 1075.2,256.8 1075.7,256.4 1076.3,256 1076.8,255.5 1077.4,255.1 
				1077.9,254.6 1078.5,254.1 1078.9,253.7 1079.5,253.2 1080,252.9 1080.6,252.4 1081.1,251.9 1081.7,251.5 1082.2,251 
				1082.7,250.6 1083.3,250.2 1083.8,249.7 1084.4,249.3 1084.9,248.8 1085.4,248.3 1085.9,247.9 1086.5,247.4 1087,247.1 
				1087.6,246.6 1088.1,246.1 1088.6,245.7 1089.1,245.2 1089.7,244.8 1090.3,244.3 1090.8,243.9 1091.4,243.5 1091.9,243 
				1092.4,242.6 1092.9,242.1 1093.5,241.6 1094,241.2 1094.6,240.8 1095.1,240.3 1095.6,239.9 1096.1,239.4 1096.7,239 
				1097.2,238.5 1097.8,238.1 1098.3,237.7 1098.8,237.2 1099.4,236.8 1099.9,236.3 1100.5,235.8 1101,235.4 1101.6,235 1102,234.5 
				1102.6,234.1 1103.1,233.6 1103.7,233.2 1104.2,232.7 1104.8,232.2 1105.2,231.9 1105.8,231.4 1106.4,231 1106.9,230.5 
				1107.5,230 1108,229.6 1108.6,229.1 1109,228.8 1109.6,228.3 1110.1,227.8 1110.7,227.4 1111.2,226.9 1111.8,226.5 1112.2,226.1 
				1112.8,225.6 1113.3,225.2 1113.9,224.7 1114.4,224.2 1115,223.8 			"/>
		</g>
		<g>
			<defs>
				<rect id="SVGID_00000024002686461485866870000000640209315549189298_" x="846.9" y="379.7" width="80.4" height="66.8"/>
			</defs>
			<clipPath id="SVGID_00000144325042001542282620000015280859434108731012_">
				<use xlink:href="#SVGID_00000024002686461485866870000000640209315549189298_"  style="overflow:visible;"/>
			</clipPath>
			<path style="clip-path:url(#SVGID_00000144325042001542282620000015280859434108731012_);" d="M901.1,435.4
				c0-0.4-0.3-0.6-0.6-0.6c-0.4,0-0.6,0.3-0.6,0.6c0,0.3,0.3,0.6,0.6,0.6C900.8,436,901.1,435.8,901.1,435.4z"/>
		</g>
		<g>
			<defs>
				<rect id="SVGID_00000169536690993604734250000008171042310675806860_" x="846.9" y="379.7" width="80.4" height="66.8"/>
			</defs>
			<clipPath id="SVGID_00000052067934333221024780000000706183415402019263_">
				<use xlink:href="#SVGID_00000169536690993604734250000008171042310675806860_"  style="overflow:visible;"/>
			</clipPath>
			<path style="clip-path:url(#SVGID_00000052067934333221024780000000706183415402019263_);" d="M901.3,431.6l-0.3,1.2
				c0,0.1,0,0.2,0,0.2v0.1c0,0,0.1-0.1,0.2-0.2c0.1,0,0.1,0,0.1,0.1c-0.1,0.2-0.3,0.4-0.5,0.4c-0.1,0-0.2-0.1-0.2-0.2
				c0,0,0-0.1,0-0.2l0.1-0.2l0,0c-0.2,0.4-0.5,0.6-0.6,0.6c-0.3,0-0.4-0.3-0.4-0.5c0-0.6,0.6-1.2,0.9-1.2c0.2,0,0.2,0,0.3,0
				C901.1,431.6,901.2,431.6,901.3,431.6z M900.9,431.8c-0.1,0-0.2-0.1-0.3-0.1c-0.4,0-0.6,0.6-0.6,1c0,0.2,0,0.4,0.2,0.4
				c0.1,0,0.4-0.3,0.6-0.6C900.9,432.2,900.9,431.8,900.9,431.8z"/>
		</g>
		<g>
			<defs>
				<rect id="SVGID_00000173853251917630299720000014716258992083039619_" x="846.9" y="379.7" width="80.4" height="66.8"/>
			</defs>
			<clipPath id="SVGID_00000124144348680844333510000013328465429835650188_">
				<use xlink:href="#SVGID_00000173853251917630299720000014716258992083039619_"  style="overflow:visible;"/>
			</clipPath>
			<path style="clip-path:url(#SVGID_00000124144348680844333510000013328465429835650188_);" d="M860.9,402c0-0.4-0.3-0.6-0.6-0.6
				c-0.4,0-0.6,0.3-0.6,0.6c0,0.4,0.3,0.6,0.6,0.6C860.6,402.5,860.9,402.4,860.9,402z"/>
		</g>
		<g>
			<defs>
				<rect id="SVGID_00000153703329075830662500000006287304029570875295_" x="846.9" y="379.7" width="80.4" height="66.8"/>
			</defs>
			<clipPath id="SVGID_00000075122244969887309330000000191039329788392353_">
				<use xlink:href="#SVGID_00000153703329075830662500000006287304029570875295_"  style="overflow:visible;"/>
			</clipPath>
			<path style="clip-path:url(#SVGID_00000075122244969887309330000000191039329788392353_);" d="M863.1,402.1L863.1,402.1
				c0.1-0.2,0.4-0.4,0.6-0.4c0.4,0,0.4,0.2,0.4,0.5c0,0.4-0.4,0.8-0.6,1.1c-0.1,0.1-0.3,0.1-0.4,0.1c-0.4,0-0.5-0.2-0.4-0.5l0.4-1.7
				c0-0.1,0-0.2,0-0.2c0-0.1,0-0.1-0.1-0.1h-0.1l0,0v-0.1c0.2,0,0.5-0.1,0.6-0.1l0,0c0,0,0,0.2-0.1,0.4L863.1,402.1z M863.6,401.8
				c-0.2,0-0.4,0.2-0.6,0.5l-0.1,0.6c-0.1,0.3,0,0.4,0.1,0.4c0.3,0,0.7-0.5,0.7-1C863.7,401.9,863.7,401.8,863.6,401.8z"/>
		</g>
		<g>
			<defs>
				<rect id="SVGID_00000174603421650201365680000007994135451588328355_" x="846.9" y="379.7" width="80.4" height="66.8"/>
			</defs>
			<clipPath id="SVGID_00000023975477721412619930000015114364210208812939_">
				<use xlink:href="#SVGID_00000174603421650201365680000007994135451588328355_"  style="overflow:visible;"/>
			</clipPath>
			
				<line style="clip-path:url(#SVGID_00000023975477721412619930000015114364210208812939_);fill:none;stroke:#000000;stroke-width:0.5978;stroke-miterlimit:10;" x1="900.5" y1="435.4" x2="890.1" y2="444.1"/>
		</g>
		<g>
			<defs>
				<rect id="SVGID_00000159430734187345518470000014681268162536959114_" x="846.9" y="379.7" width="80.4" height="66.8"/>
			</defs>
			<clipPath id="SVGID_00000085929099106554323160000013004218115161788075_">
				<use xlink:href="#SVGID_00000159430734187345518470000014681268162536959114_"  style="overflow:visible;"/>
			</clipPath>
			
				<path style="clip-path:url(#SVGID_00000085929099106554323160000013004218115161788075_);fill:none;stroke:#000000;stroke-width:0.5977;stroke-linecap:round;stroke-linejoin:round;stroke-miterlimit:10;" d="
				M891.5,444.5c-0.6-0.5-1.2-0.5-1.7-0.3c0.3-0.4,0.4-0.9,0-1.7"/>
		</g>
		<g>
			<defs>
				<rect id="SVGID_00000155846957514278623680000014566783868719113124_" x="846.9" y="379.7" width="80.4" height="66.8"/>
			</defs>
			<clipPath id="SVGID_00000163795129198529266050000011432227391175420562_">
				<use xlink:href="#SVGID_00000155846957514278623680000014566783868719113124_"  style="overflow:visible;"/>
			</clipPath>
			
				<line style="clip-path:url(#SVGID_00000163795129198529266050000011432227391175420562_);fill:none;stroke:#000000;stroke-width:0.5978;stroke-miterlimit:10;" x1="860.3" y1="402" x2="849.8" y2="410.7"/>
		</g>
		<g>
			<defs>
				<rect id="SVGID_00000031190207607658929340000006046801211574133898_" x="846.9" y="379.7" width="80.4" height="66.8"/>
			</defs>
			<clipPath id="SVGID_00000108287267767096644530000003147895847337502350_">
				<use xlink:href="#SVGID_00000031190207607658929340000006046801211574133898_"  style="overflow:visible;"/>
			</clipPath>
			
				<path style="clip-path:url(#SVGID_00000108287267767096644530000003147895847337502350_);fill:none;stroke:#000000;stroke-width:0.5977;stroke-linecap:round;stroke-linejoin:round;stroke-miterlimit:10;" d="
				M851.3,411.1c-0.6-0.5-1.2-0.5-1.7-0.3c0.3-0.4,0.4-0.9,0-1.7"/>
		</g>
	</g>
	<text transform="matrix(1 0 0 1 879.0391 450.373)" class="st34 st35">X</text>
	<text transform="matrix(1 0 0 1 881.8242 450.373)" class="st34 st35">Rese</text>
	<text transform="matrix(1 0 0 1 889.9199 450.373)" class="st34 st35">r</text>
	<text transform="matrix(1 0 0 1 891.1162 450.373)" class="st34 st35">v</text>
	<text transform="matrix(1 0 0 1 892.8643 450.373)" class="st34 st35">es</text>
	<text transform="matrix(-1.224647e-16 -1 1 -1.224647e-16 845.4258 421.1719)" class="st34 st35">Y</text>
	<text transform="matrix(-1.224647e-16 -1 1 -1.224647e-16 845.4258 418.3887)" class="st34 st35">Rese</text>
	<text transform="matrix(-1.224647e-16 -1 1 -1.224647e-16 845.4258 410.293)" class="st34 st35">r</text>
	<text transform="matrix(-1.224647e-16 -1 1 -1.224647e-16 845.4258 409.0957)" class="st34 st35">v</text>
	<text transform="matrix(-1.224647e-16 -1 1 -1.224647e-16 845.4258 407.3477)" class="st34 st35">es</text>
	<rect x="883.2" y="381.2" class="st21" width="42.3" height="11.3"/>
	<rect x="883.2" y="381.2" class="st22" width="42.3" height="11.3"/>
	<polyline class="st36" points="884.5,384.4 888.1,384.4 891.6,384.4 	"/>
	<text transform="matrix(1 0 0 1 892.5957 385.4902)" class="st34 st35">virtua</text>
	<text transform="matrix(1 0 0 1 901.1514 385.4902)" class="st34 st35">l</text>
	<text transform="matrix(1 0 0 1 902.8076 385.4902)" class="st34 st35">r</text>
	<text transform="matrix(1 0 0 1 903.9111 385.4902)" class="st34 st35">ese</text>
	<text transform="matrix(1 0 0 1 909.6152 385.4902)" class="st34 st35">r</text>
	<text transform="matrix(1 0 0 1 910.8115 385.4902)" class="st34 st35">v</text>
	<text transform="matrix(1 0 0 1 912.4678 385.4902)" class="st34 st35">e</text>
	<text transform="matrix(1 0 0 1 914.3994 385.4902)" class="st34 st35">s</text>
	<text transform="matrix(1 0 0 1 917.1592 385.4902)" class="st34 st35">(2.1)</text>
	<polyline class="st37" points="884.5,389.3 888.1,389.3 891.6,389.3 	"/>
	<text transform="matrix(1 0 0 1 894.7773 390.3154)" class="st34 st35">r</text>
	<text transform="matrix(1 0 0 1 895.8818 390.3154)" class="st34 st35">ea</text>
	<text transform="matrix(1 0 0 1 899.7461 390.3154)" class="st34 st35">l</text>
	<text transform="matrix(1 0 0 1 901.4014 390.3154)" class="st34 st35">r</text>
	<text transform="matrix(1 0 0 1 902.5059 390.3154)" class="st34 st35">ese</text>
	<text transform="matrix(1 0 0 1 908.1182 390.3154)" class="st34 st35">r</text>
	<text transform="matrix(1 0 0 1 909.4062 390.3154)" class="st34 st35">v</text>
	<text transform="matrix(1 0 0 1 911.0615 390.3154)" class="st34 st35">e</text>
	<text transform="matrix(1 0 0 1 912.9941 390.3154)" class="st34 st35">s</text>
	<text transform="matrix(1 0 0 1 915.7539 390.3154)" class="st34 st35">(2.2)</text>
	<text transform="matrix(1 0 0 1 865.209 459.7793)" class="st34 st35">Figu</text>
	<text transform="matrix(1 0 0 1 871.9248 459.7793)" class="st34 st35">r</text>
	<text transform="matrix(1 0 0 1 873.1201 459.7793)" class="st34 st35">e</text>
	<text transform="matrix(1 0 0 1 875.9727 459.7793)" class="st34 st35">2</text>
	<text transform="matrix(1 0 0 1 877.9961 459.7793)" class="st34 st35">:</text>
	<text transform="matrix(1 0 0 1 879.9287 459.7793)" class="st34 st35">Rea</text>
	<text transform="matrix(1 0 0 1 886.2764 459.7793)" class="st34 st35">l</text>
	<text transform="matrix(1 0 0 1 887.9326 459.7793)" class="st34 st35">Rese</text>
	<text transform="matrix(1 0 0 1 896.0283 459.7793)" class="st34 st35">r</text>
	<text transform="matrix(1 0 0 1 897.2246 459.7793)" class="st34 st35">v</text>
	<text transform="matrix(1 0 0 1 898.9727 459.7793)" class="st34 st35">es</text>
</g>
<g>
	<rect x="314" y="41.4" class="st38" width="240.8" height="41.4"/>
	<g>
		
			<ellipse transform="matrix(9.089394e-03 -1 1 9.089394e-03 270.6819 399.8771)" class="st39" cx="337.1" cy="63.4" rx="13.1" ry="13.1"/>
		<g>
			<circle class="st40" cx="337.1" cy="63.2" r="7.7"/>
			<g>
				<path class="st41" d="M344.9,55.7c1.8,1.9,2.9,4.5,2.9,7.4c0,2.9-1.1,5.5-2.9,7.5"/>
				<path class="st41" d="M329.3,70.5c-1.7-1.9-2.9-4.5-2.9-7.4c0-2.9,1.1-5.4,2.9-7.4"/>
			</g>
		</g>
	</g>
	<text transform="matrix(1 0 0 1 359.9893 68.1953)" class="st3 st4 st5">Panoptic ecosystem</text>
</g>
<g>
	<rect x="56.4" y="41.4" class="st38" width="240.8" height="41.4"/>
	<g>
		<circle class="st42" cx="79.8" cy="63.4" r="10.1"/>
		<g>
			<path class="st11" d="M77.3,59.5c0,0.1-0.1,0.3-0.2,0.4c-0.2,0.2-0.4,0.4-0.6,0.5c-0.2,0.1-0.5,0.2-0.6,0.2h-0.1l0,0
				c-0.2,0-0.3,0.1-0.4,0.2c-0.1,0.1-0.2,0.2-0.2,0.4c0,0.1,0,0.1,0,0.2s0,0.2,0,0.4c0,0.1,0,0.2,0,0.3c0,0.4-0.2,0.8-0.4,1.1
				c0,0.1-0.1,0.2-0.1,0.2l0,0c-0.2,0.4-0.4,0.7-0.3,1.2c0,0.4,0.2,0.6,0.5,0.8c0.1,0.1,0.3,0.2,0.5,0.4l0,0
				c0.5,0.3,0.9,0.6,0.7,1.5c-0.1,0.6-1.2,1.4-2.8,1.6c0.2,0-0.2-0.6-0.2-0.6l0,0c0-0.1-0.1-0.1-0.1-0.2c-0.1-0.2-0.3-0.4-0.4-0.6
				c-0.3-0.6-0.4-1.2-0.3-1.7c0.1-0.6,0.5-0.9,0.8-1.4c0.1-0.1,0.1-0.1,0.2-0.2c0.5-0.6,0.9-1.3,1-2c0-0.1,0-0.1,0-0.2
				s0-0.3,0.1-0.5c0-0.3,0.1-0.5,0.2-0.7c0.1-0.2,0.2-0.3,0.3-0.4c0.1-0.1,0.1-0.1,0.1-0.2s0-0.2,0-0.3l-2.4-4.4l3.5,4.3
				c0,0,0.1,0.1,0.2,0.1c0.1,0,0.1,0,0.2,0c0.1,0,0.1,0,0.2,0s0.1-0.1,0.2-0.1c0-0.1,0.1-0.1,0.1-0.2s0-0.1-0.1-0.2
				c-0.2-0.2-0.4-0.5-0.5-0.6l0,0c-0.1-0.1-0.1-0.2-0.2-0.3l-0.9-1.1L73.3,55l-3.6-4.4l3.8,4.1l1.8,2.1l0.9,1
				c0.1,0.1,0.2,0.2,0.3,0.3l0,0c0.2,0.3,0.5,0.5,0.6,0.7l0.1,0.1V59C77.3,59.3,77.3,59.4,77.3,59.5z"/>
			<path class="st11" d="M86.3,60.9L86.3,60.9c0-0.5-0.3-1.2-0.8-1.9l0,0c-0.2-0.2-0.4-0.5-0.6-0.6l-0.1-0.1
				c-0.3-0.3-0.6-0.5-0.9-0.6l0,0c-1-0.6-2.3-0.8-3.9-0.5c-0.2-0.3-0.5-0.5-0.7-0.7c-0.4-0.4-0.8-0.6-1.3-0.8
				c-0.5-0.2-1-0.3-1.5-0.2c0.5,0,0.9,0.2,1.4,0.4c0.5,0.2,0.8,0.6,1.1,0.9c0.4,0.4,0.6,0.7,0.9,1.1l0.1,0.1
				c0.3,0.4,0.6,0.7,0.9,1.1c0.2,0.2,0.5,0.4,0.6,0.5c0.1,0,0.1,0.1,0.2,0.1c0.1,0,0.1,0.1,0.2,0.1s0.3,0.1,0.4,0.1
				c0.5,0.2,1,0.2,1.5,0.2c0.1,0,0.1,0,0.2,0l0,0c0.2,0,0.4,0,0.6,0c0.3,0,0.5,0.1,0.7,0.1c0.4,0.1,0.6,0.3,0.8,0.6
				C86.3,60.8,86.3,60.9,86.3,60.9z"/>
			<path class="st11" d="M78.7,61c0.4,0.7-0.5,0.9-0.9,1c-0.6,0.1-0.7-0.3-0.6-0.7c0-0.2,0.1-0.4,0.3-0.5c0.1-0.1,0.3-0.2,0.5-0.2
				c0.2,0,0.4,0,0.5,0.1C78.5,60.8,78.6,60.9,78.7,61z"/>
			<path class="st11" d="M84.2,63c-1.7-0.6-3.3-1.4-3-3.2c0.6,0.6,1.4,0.7,2.3,0.8c0.8,0.1,1.7,0.3,2.5,0.7c1.8,1.1,1.6,3.3,0.9,4.1
				C87,64.1,85.7,63.5,84.2,63z"/>
			<path class="st11" d="M84.8,58.3L84.8,58.3L84.8,58.3L84.8,58.3L84.8,58.3C84.8,58.3,84.9,58.4,84.8,58.3
				C84.9,58.4,84.8,58.3,84.8,58.3L84.8,58.3L84.8,58.3L84.8,58.3L84.8,58.3z"/>
			<path class="st11" d="M77.7,56.3c-0.3-0.3-0.6-0.5-1.1-0.6c0,0.1,0,0.2,0,0.3c0,0.8,0.3,1.7,0.8,2.4c0.2,0.2,0.4,0.4,0.6,0.5
				c0.2,0.1,0.6,0.3,0.6,0.1l0,0c0,0,0,0,0-0.1s-0.1-0.1-0.1-0.2l-0.1-0.1c0,0,0-0.1-0.1-0.1l0,0l0,0l0,0l0,0l0,0l0,0
				c0-0.1-0.1-0.2-0.1-0.3c-0.1-0.2-0.2-0.5-0.2-0.7l0,0c0,0,0-0.1,0-0.2C78.1,57.1,78,56.7,77.7,56.3z"/>
			<path class="st11" d="M83.3,63.1c-0.5,1.2,0.3,2.1,0.9,3.1c0.7,1.1,1.5,2.2,0.7,3.5c1.6-0.6,2.2-2.6,1.7-4
				c-0.4-0.9-1.4-1.5-2.3-1.9C84,63.4,83.7,63.2,83.3,63.1z"/>
			<path class="st11" d="M78.9,65.8c-0.3,0.1-0.6,0.3-0.7,0.5c0.6-0.2,1.1-0.3,1.7-0.4c0.1,0,0.2,0,0.3,0c0.2,0,0.4,0,0.6,0
				c0.3,0,0.6-0.1,0.9-0.2c0.3-0.1,0.6-0.3,0.8-0.6c0.3-0.3,0.4-0.6,0.5-0.8c0.1-0.3,0.1-0.6,0-0.9c-0.1-0.3-0.3-0.6-0.5-0.8
				c0.1,0.3,0.2,0.6,0.2,0.8c0,0.3,0,0.6-0.1,0.8c-0.1,0.3-0.2,0.5-0.5,0.6c-0.2,0.2-0.5,0.3-0.6,0.4c-0.4,0.1-0.7,0.2-1.1,0.3
				c-0.2,0-0.4,0.1-0.6,0.1C79.4,65.6,79.2,65.7,78.9,65.8z"/>
			<path class="st11" d="M83.7,70.6L83.7,70.6L83.7,70.6L83.7,70.6c-0.1,0.1-0.2,0.2-0.3,0.2c-0.1,0.1-0.2,0.1-0.3,0.2
				c-0.2,0.1-0.5,0.2-0.7,0.2c-0.6,0-1.1-0.5-1.4-1.1c-0.1-0.2-0.1-0.3-0.2-0.5l0,0c-0.1-0.3-0.2-0.5-0.4-0.7
				c-0.4-0.6-0.8-0.9-1.5-0.8c-0.3,0-0.5,0.2-0.6,0.4c-0.4,0.6,0.2,1.4,0.8,1.3c0.1,0,0.1,0,0.2,0s0.1-0.1,0.2-0.1
				c0.1-0.1,0.2-0.2,0.2-0.3c0-0.1,0.1-0.3,0-0.4c0-0.1-0.1-0.3-0.2-0.4c0.1,0.1,0.3,0.2,0.3,0.3c0,0.1,0.1,0.3,0,0.5
				c0,0.2-0.1,0.3-0.2,0.5c-0.1,0.1-0.1,0.1-0.2,0.2c-0.1,0-0.2,0.1-0.2,0.1c-0.2,0.1-0.4,0.1-0.5,0.1c-0.2,0-0.5-0.1-0.6-0.3
				l-0.1-0.1c-0.1-0.1-0.3-0.2-0.4-0.4c0,0-0.1-0.1-0.1-0.2c-0.2-0.2-0.5-0.5-0.7-0.6c-0.2-0.1-0.5-0.2-0.6-0.2
				c-0.1,0-0.2,0-0.4-0.1c0,0,0,0-0.1,0l0,0l0,0l0,0l0,0c-0.1,0-0.3,0-0.3,0c0.4-0.3,0.7-0.6,1.1-0.8c0.4-0.3,0.8-0.5,1.3-0.6
				c0.5-0.1,0.9-0.2,1.5-0.1c0.3,0,0.5,0.1,0.7,0.2c0.3,0.1,0.5,0.3,0.6,0.5c0.2,0.2,0.4,0.4,0.5,0.6c0.1,0.2,0.2,0.5,0.2,0.7
				c0,0.1,0,0.3,0.1,0.5c0.1,0.6,0.2,1.5,1,1.6c0,0,0.1,0,0.2,0h0.2c0.1,0,0.2,0,0.4,0C83.3,70.8,83.5,70.7,83.7,70.6z"/>
		</g>
	</g>
	<text transform="matrix(1 0 0 1 102.875 68.5459)" class="st3 st4 st5">Uniswap v3 ecosystem</text>
</g>
<text transform="matrix(1 0 0 1 57.5342 246.4775)" class="st3 st4 st5" style="text-decoration: underline;">Create a position:                                     </text>
<text transform="matrix(1 0 0 1 543.3857 246.4775)" class="st3 st4 st5">          </text>
<text transform="matrix(1 0 0 1 57.5342 264.1416)" class="st3 st4 st5">mint()                    &lt;&gt;    mintTokenizedPosition()</text>
<text transform="matrix(1 0 0 1 57.519 335.7959)" class="st3 st4 st5" style="text-decoration: underline;">Burn + collect fees:                                   </text>
<text transform="matrix(1 0 0 1 57.519 353.46)" class="st3 st4 st5">decreaseLiquidity()  +    &lt;&gt;    burnTokenizedPosition()</text>
<text transform="matrix(1 0 0 1 57.519 371.124)" class="st3 st4 st5">    collect()</text>
<text transform="matrix(1 0 0 1 57.5337 433.9463)" class="st3 st4 st5" style="text-decoration: underline;">Alter existing position:                               </text>
<text transform="matrix(1 0 0 1 57.5337 451.6104)" class="st3 st4 st5">increaseLiquidity()       &lt;&gt;    N/A</text>
<text transform="matrix(1 0 0 1 57.5337 469.2744)" class="st3 st4 st5">    </text>
<text transform="matrix(1 0 0 1 57.519 139.4956)" class="st3 st4 st5" style="text-decoration: underline;">Position tracking:                                     </text>
<text transform="matrix(1 0 0 1 57.519 157.1597)" class="st3 st4 st5">ERC721                    &lt;&gt;    ERC1155                </text>
<text transform="matrix(1 0 0 1 57.519 174.8237)" class="st3 st4 st5">(sequential tokenId)            (functional tokenId)    </text>
</svg>
