<svg xmlns="http://www.w3.org/2000/svg" xmlns:xlink="http://www.w3.org/1999/xlink" width="1200" zoomAndPan="magnify" viewBox="0 0 900 149.999998" height="200" preserveAspectRatio="xMidYMid meet" version="1.0"><defs><clipPath id="5481f7004f"><path d="M 48 48.140625 L 103 48.140625 L 103 102.140625 L 48 102.140625 Z M 48 48.140625 " clip-rule="nonzero"/></clipPath><clipPath id="c441650807"><path d="M 98 49 L 113.277344 49 L 113.277344 102 L 98 102 Z M 98 49 " clip-rule="nonzero"/></clipPath><clipPath id="23925f6a09"><path d="M 39.027344 49 L 54 49 L 54 102 L 39.027344 102 Z M 39.027344 49 " clip-rule="nonzero"/></clipPath><clipPath id="6c8fdd8e2c"><path d="M 202.230469 48.140625 L 256 48.140625 L 256 102 L 202.230469 102 Z M 202.230469 48.140625 " clip-rule="nonzero"/></clipPath><clipPath id="a3fd2bdcbe"><path d="M 355 48.140625 L 410 48.140625 L 410 102.140625 L 355 102.140625 Z M 355 48.140625 " clip-rule="nonzero"/></clipPath><clipPath id="720a79f4a1"><path d="M 404 49 L 419.5 49 L 419.5 102 L 404 102 Z M 404 49 " clip-rule="nonzero"/></clipPath><clipPath id="6f919df95d"><path d="M 345.25 49 L 361 49 L 361 102 L 345.25 102 Z M 345.25 49 " clip-rule="nonzero"/></clipPath><clipPath id="829d1cc190"><path d="M 508.378906 48.140625 L 562 48.140625 L 562 102 L 508.378906 102 Z M 508.378906 48.140625 " clip-rule="nonzero"/></clipPath><clipPath id="a6dfe8826a"><path d="M 653 48.140625 L 708 48.140625 L 708 102.140625 L 653 102.140625 Z M 653 48.140625 " clip-rule="nonzero"/></clipPath><clipPath id="2cc368ae6d"><path d="M 703 49 L 718.300781 49 L 718.300781 102 L 703 102 Z M 703 49 " clip-rule="nonzero"/></clipPath><clipPath id="0639802ab7"><path d="M 644.050781 49 L 659 49 L 659 102 L 644.050781 102 Z M 644.050781 49 " clip-rule="nonzero"/></clipPath><clipPath id="9e31ffe5d0"><path d="M 807.253906 48.140625 L 861 48.140625 L 861 102 L 807.253906 102 Z M 807.253906 48.140625 " clip-rule="nonzero"/></clipPath></defs><g clip-path="url(#5481f7004f)"><path fill="#ffffff" d="M 102.867188 75.140625 C 102.867188 90.027344 90.757812 102.128906 75.878906 102.128906 C 61 102.128906 48.902344 90.027344 48.902344 75.140625 C 48.902344 60.257812 60.996094 48.15625 75.878906 48.15625 C 90.757812 48.15625 102.867188 60.257812 102.867188 75.140625 Z M 54.675781 75.140625 C 54.675781 86.84375 64.195312 96.367188 75.878906 96.367188 C 87.5625 96.367188 97.09375 86.84375 97.09375 75.140625 C 97.09375 63.441406 87.578125 53.917969 75.878906 53.917969 C 64.179688 53.917969 54.675781 63.4375 54.675781 75.140625 Z M 54.675781 75.140625 " fill-opacity="1" fill-rule="nonzero"/></g><g clip-path="url(#c441650807)"><path fill="#ffffff" d="M 113.277344 75.140625 C 113.277344 84.964844 109.507812 94.238281 102.648438 101.261719 L 98.519531 97.230469 C 104.320312 91.289062 107.503906 83.441406 107.503906 75.140625 C 107.503906 66.839844 104.308594 58.980469 98.519531 53.050781 L 102.648438 49.019531 C 109.507812 56.042969 113.277344 65.316406 113.277344 75.140625 Z M 113.277344 75.140625 " fill-opacity="1" fill-rule="nonzero"/></g><g clip-path="url(#23925f6a09)"><path fill="#ffffff" d="M 39.027344 75.140625 C 39.027344 65.320312 42.800781 56.042969 49.65625 49.019531 L 53.785156 53.054688 C 47.984375 58.996094 44.800781 66.84375 44.800781 75.144531 C 44.800781 83.445312 48 91.304688 53.785156 97.230469 L 49.65625 101.265625 C 42.800781 94.238281 39.027344 84.964844 39.027344 75.140625 Z M 39.027344 75.140625 " fill-opacity="1" fill-rule="nonzero"/></g><g clip-path="url(#6c8fdd8e2c)"><path fill="#ffffff" d="M 228.949219 101.671875 C 243.757812 101.671875 255.761719 89.6875 255.761719 74.90625 C 255.761719 60.125 243.757812 48.140625 228.949219 48.140625 C 214.902344 48.140625 203.375 58.929688 202.230469 72.65625 L 237.671875 72.65625 L 237.671875 77.15625 L 202.230469 77.15625 C 203.375 90.886719 214.902344 101.671875 228.949219 101.671875 Z M 228.949219 101.671875 " fill-opacity="1" fill-rule="nonzero"/></g><g clip-path="url(#a3fd2bdcbe)"><path fill="#ffffff" d="M 409.09375 75.140625 C 409.09375 90.027344 396.984375 102.128906 382.101562 102.128906 C 367.222656 102.128906 355.125 90.027344 355.125 75.140625 C 355.125 60.257812 367.222656 48.15625 382.101562 48.15625 C 396.980469 48.15625 409.089844 60.257812 409.089844 75.140625 Z M 360.898438 75.140625 C 360.898438 86.84375 370.417969 96.367188 382.101562 96.367188 C 393.785156 96.367188 403.316406 86.84375 403.316406 75.140625 C 403.316406 63.441406 393.800781 53.917969 382.101562 53.917969 C 370.402344 53.917969 360.898438 63.4375 360.898438 75.140625 Z M 360.898438 75.140625 " fill-opacity="1" fill-rule="nonzero"/></g><g clip-path="url(#720a79f4a1)"><path fill="#ffffff" d="M 419.5 75.140625 C 419.5 84.964844 415.730469 94.238281 408.871094 101.261719 L 404.742188 97.230469 C 410.546875 91.289062 413.726562 83.441406 413.726562 75.140625 C 413.726562 66.839844 410.53125 58.980469 404.742188 53.050781 L 408.871094 49.019531 C 415.730469 56.042969 419.5 65.316406 419.5 75.140625 Z M 419.5 75.140625 " fill-opacity="1" fill-rule="nonzero"/></g><g clip-path="url(#6f919df95d)"><path fill="#ffffff" d="M 345.25 75.140625 C 345.25 65.320312 349.023438 56.042969 355.878906 49.019531 L 360.007812 53.054688 C 354.207031 58.996094 351.027344 66.84375 351.027344 75.144531 C 351.027344 83.445312 354.222656 91.304688 360.007812 97.230469 L 355.878906 101.265625 C 349.023438 94.238281 345.25 84.964844 345.25 75.140625 Z M 345.25 75.140625 " fill-opacity="1" fill-rule="nonzero"/></g><g clip-path="url(#829d1cc190)"><path fill="#ffffff" d="M 535.097656 101.671875 C 549.902344 101.671875 561.90625 89.6875 561.90625 74.90625 C 561.90625 60.125 549.902344 48.140625 535.097656 48.140625 C 521.046875 48.140625 509.523438 58.929688 508.378906 72.65625 L 543.816406 72.65625 L 543.816406 77.15625 L 508.378906 77.15625 C 509.523438 90.886719 521.046875 101.671875 535.097656 101.671875 Z M 535.097656 101.671875 " fill-opacity="1" fill-rule="nonzero"/></g><g clip-path="url(#a6dfe8826a)"><path fill="#ffffff" d="M 707.894531 75.140625 C 707.894531 90.027344 695.785156 102.128906 680.902344 102.128906 C 666.023438 102.128906 653.925781 90.027344 653.925781 75.140625 C 653.925781 60.257812 666.023438 48.15625 680.902344 48.15625 C 695.78125 48.15625 707.890625 60.257812 707.890625 75.140625 Z M 659.699219 75.140625 C 659.699219 86.84375 669.21875 96.367188 680.902344 96.367188 C 692.585938 96.367188 702.121094 86.84375 702.121094 75.140625 C 702.121094 63.441406 692.601562 53.917969 680.902344 53.917969 C 669.203125 53.917969 659.699219 63.4375 659.699219 75.140625 Z M 659.699219 75.140625 " fill-opacity="1" fill-rule="nonzero"/></g><g clip-path="url(#2cc368ae6d)"><path fill="#ffffff" d="M 718.300781 75.140625 C 718.300781 84.964844 714.53125 94.238281 707.671875 101.261719 L 703.542969 97.230469 C 709.347656 91.289062 712.527344 83.441406 712.527344 75.140625 C 712.527344 66.839844 709.332031 58.980469 703.542969 53.050781 L 707.671875 49.019531 C 714.53125 56.042969 718.300781 65.316406 718.300781 75.140625 Z M 718.300781 75.140625 " fill-opacity="1" fill-rule="nonzero"/></g><g clip-path="url(#0639802ab7)"><path fill="#ffffff" d="M 644.050781 75.140625 C 644.050781 65.320312 647.824219 56.042969 654.679688 49.019531 L 658.808594 53.054688 C 653.007812 58.996094 649.828125 66.84375 649.828125 75.144531 C 649.828125 83.445312 653.023438 91.304688 658.808594 97.230469 L 654.679688 101.265625 C 647.824219 94.238281 644.050781 84.964844 644.050781 75.140625 Z M 644.050781 75.140625 " fill-opacity="1" fill-rule="nonzero"/></g><g clip-path="url(#9e31ffe5d0)"><path fill="#ffffff" d="M 833.972656 101.671875 C 848.78125 101.671875 860.785156 89.6875 860.785156 74.90625 C 860.785156 60.125 848.78125 48.140625 833.972656 48.140625 C 819.925781 48.140625 808.398438 58.929688 807.253906 72.65625 L 842.695312 72.65625 L 842.695312 77.15625 L 807.253906 77.15625 C 808.398438 90.886719 819.925781 101.671875 833.972656 101.671875 Z M 833.972656 101.671875 " fill-opacity="1" fill-rule="nonzero"/></g></svg>