<svg id="Layer_1" data-name="Layer 1" xmlns="http://www.w3.org/2000/svg" xmlns:xlink="http://www.w3.org/1999/xlink" viewBox="0 0 246.99 126.15"><defs><style>.cls-1,.cls-10,.cls-11,.cls-13,.cls-17,.cls-22,.cls-24,.cls-25,.cls-26,.cls-7,.cls-8,.cls-9{fill:none;}.cls-2{fill:#fff;stroke:#1d1233;stroke-width:0.66px;}.cls-11,.cls-2{stroke-miterlimit:10;}.cls-3{clip-path:url(#clip-path);}.cls-4{fill:#fdfeff;}.cls-5{clip-path:url(#clip-path-2);}.cls-6{fill:#1f72e5;}.cls-6,.cls-7{opacity:0.25;}.cls-7,.cls-8,.cls-9{stroke:#1f72e5;}.cls-10,.cls-13,.cls-17,.cls-22,.cls-24,.cls-25,.cls-26,.cls-7,.cls-8,.cls-9{stroke-linejoin:round;}.cls-13,.cls-22,.cls-24,.cls-7{stroke-width:0.25px;}.cls-10,.cls-17,.cls-25,.cls-26,.cls-8,.cls-9{stroke-linecap:round;}.cls-11,.cls-17,.cls-8,.cls-9{stroke-width:0.5px;}.cls-9{stroke-dasharray:0.5 1;}.cls-10{stroke:#ff007b;}.cls-10,.cls-26{stroke-width:0.38px;}.cls-11,.cls-13,.cls-17,.cls-26{stroke:#231f20;}.cls-11{stroke-linecap:square;}.cls-12,.cls-14,.cls-15,.cls-16,.cls-19{fill:#231f20;}.cls-14{font-size:6px;}.cls-14,.cls-15,.cls-16,.cls-19{font-family:Helvetica-Light, Helvetica;font-weight:300;}.cls-15{font-size:7px;}.cls-16{font-size:5px;}.cls-18{fill:#35aaaf;}.cls-19{font-size:9px;}.cls-20{clip-path:url(#clip-path-6);}.cls-21{fill:#47b247;}.cls-21,.cls-22,.cls-23,.cls-24{opacity:0.13;}.cls-22{stroke:#47b247;}.cls-23{fill:#cc333f;}.cls-24{stroke:#cc333f;}.cls-25{stroke:#fff;opacity:0.8;}.cls-27{clip-path:url(#clip-path-10);}.cls-28{clip-path:url(#clip-path-14);}</style><clipPath id="clip-path" transform="translate(-2.42 -1.98)"><rect class="cls-1" x="-12.88" width="270.97" height="126.63"/></clipPath><clipPath id="clip-path-2" transform="translate(-2.42 -1.98)"><rect class="cls-1" x="38.94" y="21.58" width="78.19" height="46.35"/></clipPath><clipPath id="clip-path-6" transform="translate(-2.42 -1.98)"><rect class="cls-1" x="38.94" y="90.53" width="78.19" height="23.37"/></clipPath><clipPath id="clip-path-10" transform="translate(-2.42 -1.98)"><rect class="cls-1" x="156.85" y="21.58" width="78.19" height="46.35"/></clipPath><clipPath id="clip-path-14" transform="translate(-2.42 -1.98)"><rect class="cls-1" x="156.85" y="90.53" width="78.19" height="23.37"/></clipPath></defs><path class="cls-2" d="M13.75,2.31H238.08a11,11,0,0,1,11,11V114.53a11,11,0,0,1-11,11H13.75a11,11,0,0,1-11-11V13.31A11,11,0,0,1,13.75,2.31Z" transform="translate(-2.42 -1.98)"/><g class="cls-3"><rect class="cls-4" x="36.51" y="19.6" width="78.19" height="46.35"/><g class="cls-5"><polygon class="cls-6" points="39.45 65.95 39.45 65.95 39.45 27.71 42.38 27.71 42.38 65.95 56.06 65.95 56.06 42.78 75.61 42.78 75.61 46.25 78.54 46.25 78.54 42.78 100.05 42.78 100.05 65.95 108.84 65.95 108.84 31.19 111.78 31.19 111.78 65.95 108.84 65.95 100.05 65.95 78.54 65.95 75.61 65.95 56.06 65.95 42.38 65.95 39.45 65.95"/><polygon class="cls-7" points="39.45 65.95 39.45 65.95 39.45 27.71 42.38 27.71 42.38 65.95 56.06 65.95 56.06 42.78 75.61 42.78 75.61 46.25 78.54 46.25 78.54 42.78 100.05 42.78 100.05 65.95 108.84 65.95 108.84 31.19 111.78 31.19 111.78 65.95 108.84 65.95 100.05 65.95 78.54 65.95 75.61 65.95 56.06 65.95 42.38 65.95 39.45 65.95"/></g><g class="cls-5"><polyline class="cls-8" points="39.45 65.95 39.45 31.19 42.38 31.19 42.38 65.95 56.06 65.95 56.06 42.78 75.61 42.78 75.61 46.25 78.54 46.25 78.54 42.78 100.05 42.78 100.05 65.95 108.84 65.95 108.84 31.19 111.78 31.19 111.78 65.95"/></g><g class="cls-5"><polyline class="cls-9" points="39.45 65.95 39.45 27.71 42.38 27.71 42.38 65.95"/></g><g class="cls-5"><line class="cls-10" x1="95.16" y1="89.13" x2="95.16" y2="19.6"/></g><line class="cls-11" x1="36.51" y1="65.95" x2="36.51" y2="19.6"/><line class="cls-11" x1="36.51" y1="65.95" x2="114.71" y2="65.95"/><line class="cls-12" x1="40.91" y1="65.95" x2="40.91" y2="64.95"/><line class="cls-13" x1="40.91" y1="65.95" x2="40.91" y2="64.95"/><text class="cls-14" transform="translate(29.47 71.73)">Panoptic</text><text class="cls-14" transform="translate(35.12 78.01)">Pool</text><line class="cls-12" x1="77.08" y1="65.95" x2="77.08" y2="64.95"/><line class="cls-13" x1="77.08" y1="65.95" x2="77.08" y2="64.95"/><text class="cls-14" transform="translate(75.13 71.73)">K</text><line class="cls-12" x1="95.16" y1="65.95" x2="95.16" y2="64.95"/><line class="cls-13" x1="95.16" y1="65.95" x2="95.16" y2="64.95"/><text class="cls-14" transform="translate(93.27 71.73)">S</text><line class="cls-12" x1="110.31" y1="65.95" x2="110.31" y2="64.95"/><line class="cls-13" x1="110.31" y1="65.95" x2="110.31" y2="64.95"/><text class="cls-14" transform="translate(98.86 71.73)">Panoptic</text><text class="cls-14" transform="translate(104.52 78.01)">Pool</text><text class="cls-15" transform="translate(22.69 55.16) rotate(-90)">Liquidity</text><text class="cls-16" transform="translate(71.7 31.19)">K Dai</text><path class="cls-17" d="M79.16,42.93q-10.32-21.43-32-13" transform="translate(-2.42 -1.98)"/><polygon class="cls-18" points="48.76 28.29 44.75 27.91 47.46 24.93 48.76 28.29"/><polygon class="cls-17" points="48.76 28.29 44.75 27.91 47.46 24.93 48.76 28.29"/><text class="cls-19" transform="translate(52.09 13.6)">Buying a Put</text><rect class="cls-4" x="36.51" y="88.55" width="78.19" height="23.37"/><g class="cls-20"><polygon class="cls-21" points="36.51 107.67 36.51 68.37 42.87 68.37 76.16 107.67 42.87 107.67 36.51 107.67"/><polygon class="cls-22" points="36.51 107.67 36.51 68.37 42.87 68.37 76.16 107.67 42.87 107.67 36.51 107.67"/></g><g class="cls-20"><polygon class="cls-23" points="76.16 107.67 76.16 107.67 77.08 108.73 114.71 108.73 114.71 107.67 77.08 107.67 76.16 107.67"/><polygon class="cls-24" points="76.16 107.67 76.16 107.67 77.08 108.73 114.71 108.73 114.71 107.67 77.08 107.67 76.16 107.67"/></g><g class="cls-20"><polyline class="cls-25" points="36.51 68.37 42.87 68.37 77.08 108.73 114.71 108.73"/></g><g class="cls-20"><polyline class="cls-26" points="36.51 68.37 42.87 68.37 77.08 108.73 114.71 108.73"/></g><line class="cls-11" x1="36.51" y1="111.92" x2="36.51" y2="88.55"/><line class="cls-11" x1="36.51" y1="107.67" x2="114.71" y2="107.67"/><line class="cls-12" x1="77.08" y1="107.67" x2="77.08" y2="106.67"/><line class="cls-13" x1="77.08" y1="107.67" x2="77.08" y2="106.67"/><text class="cls-14" transform="translate(75.13 114.51)">K</text><line class="cls-12" x1="95.16" y1="107.67" x2="95.16" y2="106.67"/><line class="cls-13" x1="95.16" y1="107.67" x2="95.16" y2="106.67"/><text class="cls-14" transform="translate(93.27 114.51)">S</text><line class="cls-12" x1="36.51" y1="108.73" x2="37.51" y2="108.73"/><line class="cls-13" x1="36.51" y1="108.73" x2="37.51" y2="108.73"/><text class="cls-14" transform="translate(6.58 110.87)">Premium P</text><text class="cls-14" transform="translate(56.06 105.55)">Profit</text><rect class="cls-4" x="154.43" y="19.6" width="78.19" height="46.35"/><g class="cls-27"><polygon class="cls-6" points="157.36 65.95 157.36 65.95 157.36 31.19 160.29 31.19 160.29 65.95 173.98 65.95 173.98 42.78 193.53 42.78 193.53 39.3 196.46 39.3 196.46 42.78 217.96 42.78 217.96 65.95 226.76 65.95 226.76 31.19 229.69 31.19 229.69 65.95 226.76 65.95 217.96 65.95 196.46 65.95 193.53 65.95 173.98 65.95 160.29 65.95 157.36 65.95"/><polygon class="cls-7" points="157.36 65.95 157.36 65.95 157.36 31.19 160.29 31.19 160.29 65.95 173.98 65.95 173.98 42.78 193.53 42.78 193.53 39.3 196.46 39.3 196.46 42.78 217.96 42.78 217.96 65.95 226.76 65.95 226.76 31.19 229.69 31.19 229.69 65.95 226.76 65.95 217.96 65.95 196.46 65.95 193.53 65.95 173.98 65.95 160.29 65.95 157.36 65.95"/></g><g class="cls-27"><polyline class="cls-8" points="157.36 65.95 157.36 34.66 160.29 34.66 160.29 65.95 173.98 65.95 173.98 42.78 193.53 42.78 193.53 39.3 196.46 39.3 196.46 42.78 217.96 42.78 217.96 65.95 226.76 65.95 226.76 31.19 229.69 31.19 229.69 65.95"/></g><g class="cls-27"><polyline class="cls-9" points="157.36 34.66 157.36 31.19 160.29 31.19 160.29 34.66"/></g><g class="cls-27"><line class="cls-10" x1="213.07" y1="89.13" x2="213.07" y2="19.6"/></g><line class="cls-11" x1="154.43" y1="65.95" x2="154.43" y2="19.6"/><line class="cls-11" x1="154.43" y1="65.95" x2="232.62" y2="65.95"/><line class="cls-12" x1="158.83" y1="65.95" x2="158.83" y2="64.95"/><line class="cls-13" x1="158.83" y1="65.95" x2="158.83" y2="64.95"/><text class="cls-14" transform="translate(147.38 71.73)">Panoptic</text><text class="cls-14" transform="translate(153.04 78.01)">Pool</text><line class="cls-12" x1="194.99" y1="65.95" x2="194.99" y2="64.95"/><line class="cls-13" x1="194.99" y1="65.95" x2="194.99" y2="64.95"/><text class="cls-14" transform="translate(193.05 71.73)">K</text><line class="cls-12" x1="213.07" y1="65.95" x2="213.07" y2="64.95"/><line class="cls-13" x1="213.07" y1="65.95" x2="213.07" y2="64.95"/><text class="cls-14" transform="translate(211.18 71.73)">S</text><line class="cls-12" x1="228.22" y1="65.95" x2="228.22" y2="64.95"/><line class="cls-13" x1="228.22" y1="65.95" x2="228.22" y2="64.95"/><text class="cls-14" transform="translate(216.78 71.73)">Panoptic</text><text class="cls-14" transform="translate(222.43 78.01)">Pool</text><text class="cls-16" transform="translate(187.66 28.87)">K Dai</text><path class="cls-17" d="M164.41,32.11q18.12-10.72,30.08,5.9" transform="translate(-2.42 -1.98)"/><polygon class="cls-18" points="191.43 32.06 192.07 36.04 188.5 34.16 191.43 32.06"/><polygon class="cls-17" points="191.43 32.06 192.07 36.04 188.5 34.16 191.43 32.06"/><text class="cls-19" transform="translate(170.49 13.6)">Selling a Put</text><rect class="cls-4" x="154.43" y="88.55" width="78.19" height="23.37"/><g class="cls-28"><polygon class="cls-23" points="154.43 92.8 154.43 125.73 165.67 125.73 194.07 92.8 165.67 92.8 154.43 92.8"/><polygon class="cls-24" points="154.43 92.8 154.43 125.73 165.67 125.73 194.07 92.8 165.67 92.8 154.43 92.8"/></g><g class="cls-28"><polygon class="cls-21" points="194.07 92.8 194.07 92.8 194.99 91.74 232.62 91.74 232.62 92.8 194.99 92.8 194.07 92.8"/><polygon class="cls-22" points="194.07 92.8 194.07 92.8 194.99 91.74 232.62 91.74 232.62 92.8 194.99 92.8 194.07 92.8"/></g><g class="cls-28"><polyline class="cls-25" points="165.73 125.65 194.99 91.74 232.62 91.74"/></g><g class="cls-28"><polyline class="cls-26" points="165.73 125.65 194.99 91.74 232.62 91.74"/></g><line class="cls-11" x1="154.43" y1="111.92" x2="154.43" y2="88.55"/><line class="cls-11" x1="154.43" y1="92.8" x2="232.62" y2="92.8"/><line class="cls-12" x1="194.99" y1="92.8" x2="194.99" y2="91.8"/><line class="cls-13" x1="194.99" y1="92.8" x2="194.99" y2="91.8"/><text class="cls-14" transform="translate(193.05 99.64)">K</text><line class="cls-12" x1="213.07" y1="92.8" x2="213.07" y2="91.8"/><line class="cls-13" x1="213.07" y1="92.8" x2="213.07" y2="91.8"/><text class="cls-14" transform="translate(211.18 99.64)">S</text><line class="cls-12" x1="154.43" y1="91.74" x2="155.43" y2="91.74"/><line class="cls-13" x1="154.43" y1="91.74" x2="155.43" y2="91.74"/><text class="cls-14" transform="translate(124.49 93.88)">Premium P</text><text class="cls-14" transform="translate(173.98 98.41)">Loss</text></g></svg>