<svg width="151" height="70" viewBox="0 0 151 70" fill="none" xmlns="http://www.w3.org/2000/svg">
<rect x="0.206055" width="150.206" height="70" rx="7.77778" fill="white"/>
<rect x="45.2061" y="8" width="61" height="54.0803" rx="5.45194" fill="#171E29"/>
<g clip-path="url(#clip0_83_2294)">
<path d="M79.9978 28.3158L82.5171 24.0411L89.3075 34.6174L89.3107 36.647L89.2885 22.6802C89.2725 22.3388 89.0912 22.0264 88.8019 21.8422L76.5767 14.8101C76.2907 14.6696 75.928 14.6711 75.6426 14.8145C75.6041 14.8339 75.5678 14.8548 75.5332 14.8777L75.4906 14.9045L63.624 21.7811L63.5779 21.802C63.5187 21.8293 63.4589 21.8639 63.4027 21.9041C63.1778 22.0655 63.0283 22.3041 62.98 22.5717C62.9727 22.6123 62.9674 22.6536 62.9648 22.6952L62.9835 34.0768L69.3084 24.2735C70.1047 22.9736 71.8398 22.5549 73.4503 22.5777L75.3407 22.6276L64.2027 40.4897L65.5157 41.2457L76.7871 22.6457L81.7691 22.6276L70.5267 41.6969L75.2117 44.3916L75.7714 44.7135C76.0082 44.8098 76.2873 44.8146 76.5261 44.7284L88.9232 37.5442L86.553 38.9176L79.9978 28.3158ZM80.959 42.1594L76.2271 34.7327L79.1156 29.8312L85.33 39.6263L80.959 42.1594Z" fill="#2D374B"/>
<path d="M76.2266 34.7328L80.9585 42.1595L85.3296 39.6263L79.1152 29.8313L76.2266 34.7328Z" fill="#28A0F0"/>
<path d="M89.3099 36.6472L89.3068 34.6176L82.5164 24.0413L79.9971 28.3159L86.5523 38.9177L88.9224 37.5443C89.1549 37.3555 89.2956 37.0784 89.3104 36.7794L89.3099 36.6472Z" fill="#28A0F0"/>
<path d="M60.8556 38.5613L64.2026 40.4898L75.3406 22.6277L73.4502 22.5778C71.8396 22.555 70.1047 22.9737 69.3083 24.2736L62.9833 34.077L60.8555 37.3464V38.5613H60.8556Z" fill="white"/>
<path d="M81.769 22.6277L76.7871 22.6458L65.5156 41.2458L69.4553 43.5142L70.5267 41.6971L81.769 22.6277Z" fill="white"/>
<path d="M91.41 22.6021C91.3684 21.5602 90.8042 20.6063 89.9205 20.0511L77.5351 12.9285C76.661 12.4883 75.5689 12.4878 74.6934 12.9282C74.5899 12.9804 62.6487 19.9058 62.6487 19.9058C62.4835 19.9851 62.3244 20.0795 62.1746 20.1866C61.3857 20.752 60.9049 21.6305 60.8555 22.5957V37.3465L62.9833 34.0771L62.9647 22.6955C62.9673 22.6538 62.9725 22.6129 62.9798 22.5725C63.0278 22.3046 63.1774 22.0658 63.4026 21.9044C63.4588 21.8641 75.6038 14.8341 75.6425 14.8147C75.928 14.6713 76.2907 14.6699 76.5765 14.8104L88.8018 21.8425C89.091 22.0267 89.2723 22.339 89.2884 22.6804V36.7795C89.2736 37.0786 89.1554 37.3556 88.9229 37.5444L86.5528 38.9178L85.3299 39.6265L80.9587 42.1597L76.5259 44.7287C76.2871 44.8149 76.008 44.8101 75.7712 44.7138L70.5265 41.6972L69.4551 43.5142L74.1684 46.2279C74.3242 46.3165 74.4632 46.3951 74.5771 46.4592C74.7536 46.5582 74.8738 46.6243 74.9162 46.6448C75.2513 46.8075 75.7332 46.9022 76.1675 46.9022C76.5658 46.9022 76.954 46.8291 77.3215 46.6852L90.197 39.2286C90.936 38.6561 91.3708 37.7926 91.41 36.8571V22.6021Z" fill="#96BEDC"/>
<path d="M52.766 52.6372C52.9022 52.6372 53.0168 52.665 53.11 52.7205C53.2032 52.776 53.2946 52.8845 53.3843 53.0459L55.1642 56.2776C55.1821 56.3135 55.1866 56.343 55.1777 56.3663C55.1687 56.3897 55.1428 56.4012 55.0998 56.4012H54.4168C54.3559 56.4012 54.3147 56.3779 54.2931 56.3314L53.9114 55.6377H51.3841L51.013 56.3314C50.9879 56.378 50.9467 56.4012 50.8894 56.4012H50.1905C50.1438 56.4012 50.1161 56.3897 50.1071 56.3663C50.098 56.343 50.1026 56.3135 50.1204 56.2776L51.8842 53.0459C51.9739 52.8845 52.0617 52.7761 52.1478 52.7205C52.2338 52.665 52.334 52.6372 52.4489 52.6372H52.766ZM51.7227 55.014H53.5725L52.7176 53.4384C52.7032 53.4134 52.6834 53.4007 52.6584 53.4007H52.6261C52.601 53.4007 52.5812 53.4134 52.5669 53.4384L51.7227 55.014Z" fill="white"/>
<path d="M60.8108 52.6372C61.223 52.6372 61.5187 52.7305 61.6981 52.9169C61.8772 53.1033 61.9669 53.3793 61.9669 53.7449V54.0514C61.9669 54.3597 61.9041 54.6036 61.7787 54.7827C61.6531 54.962 61.4487 55.0767 61.1656 55.1268L62.0852 56.2669C62.103 56.2849 62.1084 56.3117 62.1012 56.3475C62.094 56.3833 62.0653 56.4012 62.0152 56.4012H61.3214C61.2748 56.4012 61.2424 56.3959 61.2247 56.3852C61.2067 56.3744 61.1888 56.3565 61.1709 56.3314L60.3213 55.2129H58.5844V56.2829C58.5844 56.3619 58.5449 56.4012 58.4661 56.4012H57.8854C57.803 56.4012 57.7617 56.3619 57.7617 56.2829V52.7986C57.7617 52.691 57.8156 52.6372 57.9232 52.6372H60.8108ZM58.5845 54.5568H60.6442C60.8269 54.5568 60.9561 54.5175 61.0312 54.4386C61.1066 54.3598 61.1443 54.2397 61.1443 54.0783V53.8524C61.1443 53.6911 61.1066 53.5709 61.0312 53.4922C60.9561 53.4134 60.8269 53.3739 60.6442 53.3739H58.6545C58.6078 53.3739 58.5846 53.3954 58.5846 53.4384L58.5845 54.5568Z" fill="white"/>
<path d="M67.9804 52.6372C68.3499 52.6372 68.6124 52.7107 68.7682 52.8577C68.9243 53.0046 69.0021 53.2269 69.0021 53.5244V53.7826C69.0021 54.0837 68.8875 54.3114 68.6582 54.4655C68.9053 54.6089 69.029 54.8402 69.029 55.1592V55.4711C69.029 55.6146 69.0129 55.7437 68.9806 55.8584C68.9484 55.973 68.8954 56.0707 68.8221 56.1515C68.7486 56.2321 68.6509 56.2939 68.529 56.3369C68.407 56.3799 68.2565 56.4013 68.0772 56.4013H64.8832C64.7755 56.4013 64.7217 56.3476 64.7217 56.24V52.7986C64.7217 52.691 64.7755 52.6372 64.8832 52.6372H67.9804ZM65.5445 54.2019H67.7493C67.9286 54.2019 68.0504 54.1751 68.115 54.1213C68.1794 54.0675 68.2118 53.9887 68.2118 53.8846V53.7018C68.2118 53.5906 68.1804 53.5091 68.1177 53.457C68.0549 53.4052 67.9537 53.3792 67.8138 53.3792H65.6144C65.5678 53.3792 65.5445 53.4026 65.5445 53.4491V54.2019ZM65.5445 54.7881V55.5893C65.5445 55.6359 65.5678 55.6592 65.6144 55.6592H67.8192C67.9627 55.6592 68.0648 55.6331 68.1257 55.5813C68.1867 55.5294 68.217 55.446 68.217 55.3312V55.1268C68.217 55.0157 68.1838 54.9315 68.1176 54.8741C68.0511 54.8168 67.9285 54.788 67.7492 54.788H65.5445V54.7881Z" fill="white"/>
<path d="M72.4417 52.6372C72.5206 52.6372 72.5601 52.6766 72.5601 52.7555V56.2829C72.5601 56.3619 72.5206 56.4012 72.4417 56.4012H71.8609C71.7785 56.4012 71.7373 56.3619 71.7373 56.2829V52.7555C71.7373 52.6766 71.7785 52.6372 71.8609 52.6372H72.4417Z" fill="white"/>
<path d="M79.4844 52.6372C79.5668 52.6372 79.6081 52.6766 79.6081 52.7555V53.2823C79.6081 53.3648 79.5668 53.406 79.4844 53.406H77.7959V56.2828C77.7959 56.3618 77.7565 56.4011 77.6776 56.4011H77.0915C77.0126 56.4011 76.9734 56.3618 76.9734 56.2828V53.4061H75.2848C75.2023 53.4061 75.1611 53.3649 75.1611 53.2824V52.7556C75.1611 52.6767 75.2023 52.6373 75.2848 52.6373H79.4844V52.6372Z" fill="white"/>
<path d="M85.252 52.6372C85.6643 52.6372 85.9601 52.7305 86.1394 52.9169C86.3186 53.1033 86.4082 53.3793 86.4082 53.7449V54.0514C86.4082 54.3597 86.3454 54.6036 86.22 54.7827C86.0943 54.962 85.89 55.0767 85.6069 55.1268L86.5265 56.2669C86.5443 56.2849 86.5497 56.3117 86.5424 56.3475C86.5353 56.3833 86.5067 56.4012 86.4565 56.4012H85.7627C85.7161 56.4012 85.6839 56.3959 85.666 56.3852C85.648 56.3744 85.6301 56.3565 85.6122 56.3314L84.7626 55.2129H83.0258V56.2829C83.0258 56.3619 82.9863 56.4012 82.9076 56.4012H82.3268C82.2444 56.4012 82.2031 56.3619 82.2031 56.2829V52.7986C82.2031 52.691 82.257 52.6372 82.3646 52.6372H85.252ZM83.0258 54.5568H85.0855C85.2682 54.5568 85.3974 54.5175 85.4725 54.4386C85.5479 54.3598 85.5856 54.2397 85.5856 54.0783V53.8524C85.5856 53.6911 85.5479 53.5709 85.4725 53.4922C85.3974 53.4134 85.2682 53.3739 85.0855 53.3739H83.0958C83.0491 53.3739 83.0259 53.3954 83.0259 53.4384V54.5568H83.0258Z" fill="white"/>
<path d="M89.7885 52.6372C89.8673 52.6372 89.9068 52.6766 89.9068 52.7555V54.901C89.9068 55.0444 89.9184 55.1637 89.9417 55.2585C89.965 55.3536 90.0037 55.4288 90.0573 55.4843C90.1112 55.54 90.1838 55.5795 90.2752 55.6026C90.3666 55.626 90.4822 55.6376 90.6221 55.6376H92.1115C92.2513 55.6376 92.3669 55.626 92.4584 55.6026C92.5498 55.5794 92.6223 55.54 92.6762 55.4843C92.7299 55.4288 92.7676 55.3535 92.7891 55.2585C92.8106 55.1635 92.8214 55.0443 92.8214 54.901V52.7555C92.8214 52.6766 92.8609 52.6372 92.9397 52.6372H93.5258C93.6046 52.6372 93.6441 52.6766 93.6441 52.7555V54.9816C93.6441 55.2398 93.6173 55.4593 93.5634 55.6404C93.5097 55.8213 93.4228 55.9684 93.3027 56.0813C93.1825 56.1943 93.0266 56.2758 92.8348 56.3259C92.6431 56.3763 92.4109 56.4012 92.1385 56.4012H90.5898C90.3172 56.4012 90.0862 56.3763 89.896 56.3259C89.706 56.2758 89.5509 56.1943 89.4309 56.0813C89.3108 55.9684 89.2229 55.8214 89.1673 55.6404C89.1119 55.4593 89.084 55.2397 89.084 54.9816V52.7555C89.084 52.6766 89.1252 52.6372 89.2077 52.6372H89.7885Z" fill="white"/>
<path d="M97.4745 52.6372C97.5534 52.6372 97.6214 52.6425 97.6788 52.6533C97.7362 52.664 97.7864 52.6847 97.8293 52.7151C97.8725 52.7456 97.9109 52.7869 97.9449 52.8388C97.9789 52.8907 98.0139 52.9598 98.0499 53.0458L99.1684 55.6268C99.1825 55.6592 99.2078 55.6753 99.2436 55.6753H99.308C99.3439 55.6753 99.369 55.6592 99.3834 55.6268L100.502 53.0458C100.538 52.9597 100.573 52.8907 100.607 52.8388C100.641 52.7869 100.679 52.7456 100.722 52.7151C100.765 52.6847 100.815 52.664 100.87 52.6533C100.926 52.6424 100.993 52.6372 101.072 52.6372H101.647C101.834 52.6372 101.959 52.6794 102.024 52.7636C102.088 52.8479 102.12 52.9921 102.12 53.1964V56.2829C102.12 56.3619 102.079 56.4012 101.997 56.4012H101.448C101.369 56.4012 101.33 56.3619 101.33 56.2829V53.476C101.33 53.4402 101.316 53.4222 101.287 53.4222H101.239C101.203 53.4222 101.179 53.4367 101.169 53.4652L100.083 55.8744C100.04 55.971 99.9956 56.0528 99.9508 56.119C99.906 56.1854 99.8577 56.24 99.8058 56.2829C99.7538 56.326 99.6946 56.3565 99.6283 56.3744C99.5619 56.3924 99.484 56.4012 99.3944 56.4012H99.1363C99.0465 56.4012 98.9686 56.3924 98.9024 56.3744C98.836 56.3565 98.7768 56.326 98.7249 56.2829C98.6729 56.24 98.6245 56.1854 98.5798 56.119C98.5349 56.0528 98.4911 55.971 98.4481 55.8744L97.3618 53.4652C97.351 53.4366 97.3278 53.4222 97.2919 53.4222H97.2435C97.2148 53.4222 97.2006 53.4402 97.2006 53.476V56.2829C97.2006 56.3619 97.1611 56.4012 97.0823 56.4012H96.5339C96.4515 56.4012 96.4102 56.3619 96.4102 56.2829V53.1964C96.4102 52.9921 96.4425 52.8479 96.5069 52.7636C96.5715 52.6795 96.6987 52.6372 96.8888 52.6372H97.4745Z" fill="white"/>
</g>
<defs>
<clipPath id="clip0_83_2294">
<rect width="54.2932" height="45.7766" fill="white" transform="translate(48.5059 12.2583)"/>
</clipPath>
</defs>
</svg>
