<svg width="152" height="70" viewBox="0 0 152 70" fill="none" xmlns="http://www.w3.org/2000/svg">
<rect x="0.824219" width="150.206" height="70" rx="7.77778" fill="white"/>
<g clip-path="url(#clip0_91_493)">
<path d="M122.451 20.3821H27.8037V49.0596H122.451V20.3821Z" fill="#FDFDFE"/>
<path d="M25.8242 19H125.059V51H25.8242C25.8242 50.8628 25.8242 50.7648 25.8242 50.657C25.8242 40.4836 25.8242 29.7124 25.834 19.5391C25.834 19.3626 25.834 19.1764 25.834 19H25.8242ZM37.997 33.8778C40.457 33.8778 42.9072 33.8778 45.3672 33.8778C45.4555 33.8778 45.5437 33.8778 45.6319 33.8778C45.7593 33.8778 45.8279 33.9268 45.8279 34.064C45.8279 34.5933 45.8279 35.1225 45.8279 35.6518C45.8279 35.7106 45.7299 35.7988 45.6515 35.8282C45.5633 35.8576 45.4555 35.838 45.3574 35.838C40.3982 35.838 35.4487 35.838 30.4895 35.838C30.166 35.838 30.1366 35.8478 30.2052 36.1712C30.3424 36.8769 30.4699 37.6021 30.6659 38.2882C31.1755 40.0916 32.1262 41.6597 33.4199 43.0025C35.5271 45.1783 38.1048 46.3936 41.1333 46.6288C43.0934 46.7758 44.985 46.4426 46.7786 45.6487C48.5231 44.8744 50.0031 43.7473 51.1988 42.2576C52.5807 40.5326 53.4334 38.5822 53.7176 36.3868C53.9431 34.6423 53.8058 32.9369 53.2668 31.2708C52.5415 29.0165 51.2478 27.1446 49.4052 25.6548C47.8371 24.3905 46.0435 23.577 44.0637 23.2144C43.0542 23.0282 42.0251 22.9792 40.996 23.0772C39.9669 23.1752 38.9574 23.3712 37.997 23.7142C36.0074 24.4395 34.3118 25.596 32.9299 27.223C31.3715 29.0655 30.4895 31.1825 30.1954 33.5642C30.1562 33.8582 30.1758 33.8582 30.4699 33.8582C32.9789 33.8582 35.4781 33.8582 37.9872 33.8582L37.997 33.8778ZM69.4775 34.407C69.4775 34.3874 69.4775 34.3678 69.4677 34.3482C69.5461 34.3188 69.6245 34.2796 69.7029 34.2502C70.7908 33.9072 71.6533 33.2701 72.163 32.2312C72.5844 31.359 72.6726 30.4279 72.5256 29.4674C72.3198 28.1051 71.6729 27.0466 70.5164 26.2919C69.4775 25.6156 68.3014 25.4098 67.0861 25.4098C64.8319 25.4098 62.5777 25.4098 60.3235 25.4098C60 25.4098 59.9902 25.4196 59.9902 25.7332C59.9902 31.7706 59.9902 37.7982 59.9902 43.8355C59.9902 44.0806 60.0588 44.1492 60.3136 44.1492C62.6463 44.1492 64.9789 44.1492 67.3213 44.1492C68.1936 44.1492 69.0463 44.0511 69.8695 43.7571C71.0947 43.3063 72.065 42.5418 72.6432 41.3559C73.2117 40.1798 73.3195 38.9449 73.0254 37.6708C72.6922 36.2496 71.8297 35.2989 70.4968 34.7501C70.1734 34.6129 69.8303 34.5247 69.4873 34.407H69.4775ZM103.193 30.173C103.34 30.173 103.487 30.173 103.634 30.173C104.241 30.173 104.251 30.173 104.153 29.5752C103.947 28.3011 103.349 27.2524 102.34 26.4389C101.448 25.7234 100.419 25.3216 99.2919 25.155C97.7042 24.9198 96.136 24.9786 94.6169 25.5568C92.9997 26.1743 91.8432 27.2524 91.3826 28.9479C91.0395 30.2025 91.1179 31.4374 91.6864 32.6135C92.2744 33.8288 93.3329 34.5149 94.5679 34.9559C95.646 35.3479 96.7927 35.4263 97.9198 35.6322C98.7038 35.7792 99.4879 35.9164 100.252 36.132C100.889 36.3084 101.478 36.6319 101.889 37.1905C102.634 38.2 102.654 39.3173 102.222 40.4444C101.732 41.7185 100.684 42.3556 99.4193 42.679C98.2726 42.973 97.1063 42.9534 95.9498 42.679C95.0187 42.4536 94.1856 42.042 93.578 41.2775C93.1075 40.6894 92.8331 40.023 92.7645 39.2781C92.7449 39.0723 92.6763 38.9841 92.4411 38.9939C91.9412 39.0135 91.4414 39.0037 90.9513 38.9939C90.7455 38.9939 90.6769 39.0625 90.7161 39.2487C90.8141 39.7387 90.8729 40.2484 91.0395 40.7188C91.5296 42.14 92.5293 43.1201 93.872 43.7669C94.7247 44.1786 95.6362 44.3844 96.577 44.4824C98.1942 44.649 99.7721 44.502 101.272 43.8551C102.477 43.3259 103.428 42.5124 103.996 41.3167C104.457 40.3562 104.575 39.3467 104.457 38.2882C104.281 36.6809 103.457 35.5145 102.036 34.7697C100.929 34.1816 99.7133 33.9954 98.498 33.7896C97.5865 33.6426 96.6849 33.4858 95.7832 33.2799C95.2049 33.1525 94.6659 32.8781 94.1954 32.4959C92.9507 31.4864 93.0193 29.3792 93.8426 28.2815C94.5973 27.2916 95.6558 26.8799 96.8417 26.7427C97.6061 26.6545 98.3706 26.6741 99.1351 26.8309C100.037 27.027 100.821 27.419 101.419 28.1443C101.821 28.6441 102.056 29.2224 102.124 29.8594C102.154 30.0946 102.232 30.2123 102.487 30.1828C102.722 30.1534 102.957 30.1828 103.193 30.1828V30.173ZM107.476 37.7492C107.476 39.7779 107.476 41.8067 107.476 43.8355C107.476 44.0511 107.58 44.159 107.789 44.159C109.161 44.159 110.534 44.159 111.906 44.159C114.356 44.159 116.806 44.159 119.256 44.159C119.472 44.159 119.541 44.11 119.531 43.8845C119.511 43.4925 119.511 43.1005 119.531 42.7084C119.541 42.4536 119.462 42.3948 119.207 42.3948C116.11 42.3948 113.023 42.3948 109.926 42.3948C109.632 42.3948 109.485 42.2445 109.485 41.944C109.485 40.023 109.485 38.1118 109.485 36.1908C109.485 35.9654 109.485 35.7302 109.485 35.5047C109.485 35.3479 109.553 35.2793 109.71 35.2793C109.877 35.2793 110.053 35.2793 110.22 35.2793C112.954 35.2793 115.689 35.2793 118.423 35.2793C118.659 35.2793 118.737 35.2107 118.727 34.9755C118.708 34.6129 118.727 34.2404 118.727 33.8778C118.727 33.6622 118.619 33.5544 118.404 33.5544C115.552 33.5544 112.709 33.5544 109.857 33.5544C109.485 33.5544 109.485 33.5544 109.485 33.1917C109.485 31.3492 109.485 29.5066 109.485 27.664C109.485 27.3177 109.658 27.1446 110.004 27.1446C113.082 27.1446 116.159 27.1446 119.237 27.1446C119.443 27.1446 119.531 27.0956 119.521 26.8701C119.501 26.4585 119.501 26.0567 119.521 25.645C119.521 25.4294 119.452 25.3706 119.247 25.3706C115.424 25.3706 111.612 25.3706 107.789 25.3706C107.476 25.3706 107.476 25.3706 107.476 25.7038C107.476 27.6934 107.476 29.6732 107.476 31.6628C107.476 33.672 107.476 35.691 107.476 37.7002V37.7492ZM89.2754 44.159C89.2656 44.0806 89.2558 44.0315 89.246 44.0021C88.7461 42.4928 88.2463 40.9933 87.7464 39.4839C87.2662 38.053 86.7957 36.6319 86.3155 35.2009C85.8744 33.8778 85.4334 32.5645 85.0022 31.2413C84.5905 30.0162 84.1887 28.7911 83.777 27.566C83.5712 26.9289 83.3654 26.3017 83.1596 25.6646C83.1106 25.5078 83.0322 25.4098 82.8362 25.4098C82.1795 25.4196 81.513 25.4196 80.8564 25.4098C80.6996 25.4098 80.6114 25.4784 80.5721 25.6156C80.1409 26.9485 79.6999 28.2717 79.2686 29.6046C78.7982 31.0355 78.3375 32.4665 77.8671 33.8974C77.4849 35.0539 77.1124 36.2006 76.7302 37.3473C76.2794 38.7096 75.8383 40.0622 75.3875 41.4245C75.0934 42.3164 74.7994 43.2181 74.4956 44.1492C74.6034 44.1492 74.6916 44.1688 74.7798 44.1688C75.2699 44.1688 75.7599 44.1492 76.2499 44.1688C76.4852 44.1786 76.5636 44.0708 76.6126 43.8845C76.7302 43.4827 76.8576 43.0907 76.9752 42.6986C77.279 41.7185 77.6025 40.7482 77.8965 39.7681C78.1023 39.0919 78.0827 39.0821 78.7786 39.0821C80.9446 39.0821 83.1008 39.0821 85.2668 39.0821C85.4432 39.0821 85.5706 39.1115 85.6392 39.3075C86.1195 40.8659 86.6095 42.4242 87.1094 43.9825C87.129 44.0511 87.2172 44.1492 87.276 44.1492C87.9326 44.159 88.5991 44.1492 89.2852 44.1492L89.2754 44.159Z" fill="#275FF0"/>
<path d="M65.0961 35.3479C66.037 35.3479 66.9779 35.3087 67.909 35.3577C68.7519 35.4067 69.5359 35.7105 70.1632 36.2986C70.9473 37.0238 71.1727 37.9549 71.1531 38.984C71.1433 39.7093 71.0061 40.3953 70.565 40.9834C70.0652 41.6695 69.3791 42.1007 68.5558 42.2771C68.0364 42.3849 67.4875 42.4437 66.9583 42.4437C65.4195 42.4633 63.871 42.4437 62.3323 42.4437C61.999 42.4437 61.999 42.4437 61.999 42.1007C61.999 39.9445 61.999 37.7785 61.999 35.6223C61.999 35.2891 61.999 35.2891 62.3421 35.2891C63.2535 35.2891 64.165 35.2891 65.0863 35.2891C65.0863 35.3087 65.0863 35.3185 65.0863 35.3381L65.0961 35.3479Z" fill="#275FF0"/>
<path d="M62.0089 30.3789C62.0089 29.389 62.0089 28.4089 62.0089 27.419C62.0089 27.2034 62.0677 27.125 62.2931 27.125C63.8808 27.125 65.4784 27.125 67.0661 27.1348C67.9874 27.1446 68.8597 27.3504 69.585 27.9679C70.0946 28.3991 70.4082 28.948 70.5063 29.585C70.6141 30.3005 70.6239 31.0356 70.3396 31.7314C69.9574 32.6723 69.2223 33.2212 68.2618 33.4564C67.8012 33.574 67.3112 33.6132 66.8309 33.623C65.3314 33.6426 63.8318 33.623 62.3225 33.623C61.9991 33.623 61.9893 33.623 61.9893 33.2996C61.9893 32.3195 61.9893 31.3394 61.9893 30.3691L62.0089 30.3789Z" fill="#275FF0"/>
<path d="M85.0317 37.3768H78.6611C78.7395 37.1024 78.8082 36.8476 78.8866 36.5927C79.553 34.4855 80.2293 32.3783 80.9055 30.2809C81.18 29.4185 81.4446 28.556 81.719 27.7033C81.7386 27.6347 81.8072 27.5759 81.8464 27.5171C81.8954 27.5759 81.9738 27.6347 82.0032 27.7033C82.6011 29.5949 83.1892 31.4865 83.787 33.378C84.1889 34.6718 84.6005 35.9655 85.0121 37.2592C85.0121 37.2886 85.0121 37.318 85.0317 37.3768Z" fill="#275FF0"/>
</g>
<defs>
<clipPath id="clip0_91_493">
<rect width="99.2343" height="32" fill="white" transform="translate(25.8242 19)"/>
</clipPath>
</defs>
</svg>
