<svg width="151" height="70" viewBox="0 0 151 70" fill="none" xmlns="http://www.w3.org/2000/svg">
<rect x="0.0302734" width="150.206" height="70" rx="7.77778" fill="white"/>
<rect x="22.0303" y="12.9753" width="106.103" height="40.3645" fill="white"/>
<path d="M54.2148 25.1515H58.6235C59.7437 25.1515 60.5628 25.4527 61.0928 25.9706C61.6107 26.4163 61.8396 27.0186 61.8396 27.6088C61.8396 27.8377 61.8396 28.1268 61.7673 28.3556C61.6228 28.729 61.3939 29.1024 61.0928 29.4036C60.9483 29.5481 60.7917 29.6324 60.6471 29.7047C61.1651 29.8493 61.6228 30.1504 61.9962 30.5238C62.2973 30.8972 62.4419 31.3429 62.4419 32.0174C62.4419 32.3908 62.3696 32.8365 62.213 33.1377C62.0685 33.4388 61.7673 33.7399 61.4662 33.9568C61.0928 34.1856 60.7194 34.3302 60.346 34.4747C59.9003 34.6193 59.3703 34.6193 58.8523 34.6193H54.2871V25.1274H54.2148V25.1515ZM58.2501 29.0302C58.6235 29.0302 58.9969 28.9579 59.3703 28.8013C59.6714 28.6568 59.816 28.3556 59.816 28.0545C59.816 27.7534 59.6714 27.4522 59.4426 27.3077C59.1414 27.0788 58.768 27.0065 58.3946 27.0788H56.2987V29.0904H58.238V29.0302H58.2501ZM58.768 32.8486C59.1414 32.8486 59.5148 32.7763 59.8883 32.6197C60.1894 32.4752 60.3339 32.174 60.2617 31.8006C60.2617 31.4995 60.1171 31.1983 59.8883 31.0538C59.6594 30.9093 59.2137 30.7527 58.6958 30.7527H56.2264V32.8486H58.768Z" fill="#F3BA2F"/>
<path d="M65.043 25.1516H67.1389V34.7157H65.043V25.1516Z" fill="#F3BA2F"/>
<path d="M70.3555 25.1516H72.2948L76.7757 31.0539V25.1516H78.8596V34.7157H77.0768L72.3671 28.6568V34.7157H70.3555V25.1516Z" fill="#F3BA2F"/>
<path d="M85.2198 25.0793H87.1591L91.2666 34.7157H89.0984L88.2071 32.5475H84.1718L83.2805 34.7157H81.1123L85.2198 25.0793ZM87.4603 30.7528L86.1955 27.6209L84.9307 30.7528H87.4603Z" fill="#F3BA2F"/>
<path d="M93.5068 25.1516H95.4462L99.9271 31.0539V25.1516H102.023V34.7157H100.228L95.5907 28.6568V34.7157H93.5068V25.1516Z" fill="#F3BA2F"/>
<path d="M109.636 34.8603C108.961 34.8603 108.286 34.7157 107.696 34.4869C106.504 33.9689 105.6 33.0655 105.082 31.873C104.854 31.2707 104.709 30.6082 104.709 29.9337C104.709 28.6689 105.227 27.3921 106.13 26.4284C106.576 25.9828 107.106 25.6094 107.696 25.3805C108.371 25.0794 109.045 25.0071 109.708 25.0071C110.081 25.0071 110.527 25.0071 110.9 25.0794C111.274 25.1516 111.575 25.2239 111.876 25.3805C112.177 25.525 112.478 25.6816 112.695 25.8262C112.924 25.9707 113.213 26.1996 113.442 26.4284L112.177 27.9944C111.804 27.6932 111.43 27.3921 111.057 27.1753C110.684 26.9584 110.238 26.8741 109.792 26.8741C109.419 26.8741 109.045 26.9464 108.672 27.103C108.299 27.2475 107.997 27.4764 107.781 27.7775C107.564 28.0787 107.335 28.3798 107.178 28.7532C107.034 29.1266 106.949 29.5 106.949 29.8734C106.949 30.2469 107.022 30.6925 107.178 31.0659C107.335 31.4394 107.479 31.7405 107.781 32.0416C108.299 32.6439 109.045 32.933 109.792 32.933C110.238 32.933 110.768 32.8607 111.214 32.6319C111.587 32.403 112.033 32.1139 112.334 31.8128L113.671 33.1498C113.442 33.3787 113.153 33.6678 112.924 33.8966C112.623 34.1255 112.322 34.27 112.033 34.4146C111.731 34.5591 111.358 34.7157 110.985 34.788C110.455 34.8603 110.009 34.8603 109.636 34.8603Z" fill="#F3BA2F"/>
<path d="M116.068 25.1516H123.235V27.0187H118.08V28.958H122.633V30.825H118.08V32.8487H123.308V34.7157H116.068V25.1516Z" fill="#F3BA2F"/>
<path d="M56.9003 44.1233C56.3824 44.1233 55.8524 44.051 55.4067 43.8222C54.961 43.6776 54.5153 43.3765 54.0576 43.0031L54.8044 42.184C55.1056 42.4851 55.4067 42.6297 55.7801 42.8585C56.1535 43.0031 56.5269 43.0874 56.9003 43.0874C57.2015 43.0874 57.5026 43.0151 57.7917 42.8585C58.0206 42.714 58.0928 42.4851 58.0928 42.2563C58.0928 42.184 58.0928 42.0274 58.0206 41.9551C57.9483 41.8829 57.876 41.7263 57.7917 41.654C57.6472 41.5817 57.4906 41.5095 57.346 41.4251C57.1172 41.3529 56.8281 41.2806 56.5992 41.1963C56.2981 41.124 55.9247 41.0517 55.6235 40.8951C55.3947 40.8229 55.1056 40.6663 54.949 40.5217C54.8044 40.3772 54.6478 40.2206 54.5033 40.0038C54.3588 39.7026 54.3588 39.4015 54.3588 39.1847C54.3588 38.8835 54.431 38.6667 54.5033 38.3656C54.5756 38.1367 54.8044 37.9199 54.949 37.7633C55.1778 37.6188 55.3947 37.4622 55.6958 37.3899C55.9969 37.3176 56.2981 37.2454 56.5872 37.2454C57.0328 37.2454 57.4785 37.3176 57.9362 37.4742C58.3097 37.6188 58.6831 37.8476 59.0565 38.0765L58.4542 38.9679C58.1531 38.739 57.8519 38.5945 57.5628 38.4499C57.2617 38.3054 56.9606 38.3054 56.6715 38.3054C56.3703 38.3054 56.0692 38.3776 55.8524 38.5342C55.7078 38.6788 55.5513 38.9076 55.5513 39.1365C55.5513 39.281 55.5513 39.3654 55.6235 39.5099C55.6958 39.5822 55.7681 39.7388 55.8524 39.811C55.9969 39.8833 56.1535 39.9556 56.3703 40.0399C56.5992 40.1122 56.816 40.1845 57.1894 40.2688C57.4906 40.341 57.7917 40.4133 58.1651 40.5699C58.394 40.6422 58.6108 40.7988 58.8397 40.9433C58.9842 41.0879 59.1408 41.3167 59.2131 41.4613C59.2853 41.6901 59.3576 41.907 59.3576 42.2081C59.3576 42.5092 59.2853 42.8104 59.2131 43.0272C59.0685 43.256 58.9119 43.4729 58.6951 43.7017C58.4663 43.8463 58.2494 44.0029 57.9483 44.0751C57.5749 44.051 57.2015 44.1233 56.9003 44.1233Z" fill="#F3BA2F"/>
<path d="M60.6348 37.3296H61.9116L63.9232 40.4614L66.0191 37.3296H67.2839V44.0509H66.0914V39.1966L63.9954 42.3285H63.9232L61.8393 39.1966V44.0509H60.6348V37.3296Z" fill="#F3BA2F"/>
<path d="M71.319 37.2573H72.4392L75.3542 43.9787H74.0894L73.4149 42.3405H70.2831L69.6085 43.9787H68.416L71.319 37.2573ZM73.0415 41.3648L71.849 38.6787L70.7287 41.3648H73.0415Z" fill="#F3BA2F"/>
<path d="M76.5469 37.3296H79.5341C79.9076 37.3296 80.281 37.4019 80.6544 37.4741C80.9555 37.5464 81.2567 37.7753 81.4735 37.9921C81.618 38.1366 81.7746 38.3655 81.9192 38.6666C81.9914 38.8955 82.0637 39.1846 82.0637 39.4857C82.0637 39.7146 81.9914 40.0037 81.9192 40.2325C81.8469 40.4614 81.6903 40.6059 81.618 40.8348C81.4735 40.9794 81.3169 41.136 81.1001 41.2805C80.8712 41.425 80.6544 41.5094 80.4255 41.5816L82.2203 44.1232H80.7989L79.1607 41.8105H77.6671V44.1232H76.4746L76.5469 37.3296ZM79.4619 40.618C79.8353 40.618 80.2087 40.5457 80.4376 40.3169C80.6664 40.088 80.811 39.7989 80.811 39.4978C80.811 39.1966 80.6664 38.8955 80.4376 38.6787C80.1364 38.4498 79.763 38.3775 79.3896 38.3775H77.6671V40.618H79.4619Z" fill="#F3BA2F"/>
<path d="M85.135 38.3775H82.9668V37.3296H88.4234V38.3775H86.2552V44.0509H85.0627L85.135 38.3775Z" fill="#F3BA2F"/>
<path d="M95.6751 44.1232C95.2294 44.1232 94.7838 44.0509 94.326 43.822C93.5069 43.4486 92.8324 42.8463 92.5313 42.0273C92.3867 41.5816 92.2301 41.1359 92.3024 40.6782C92.3024 40.2325 92.3747 39.7868 92.5313 39.3291C92.8324 38.51 93.5069 37.8354 94.326 37.462C94.7717 37.3175 95.2174 37.1609 95.7474 37.1609C96.0485 37.1609 96.3497 37.1609 96.5665 37.2332C96.7953 37.3054 97.0122 37.3777 97.241 37.462C97.4699 37.5343 97.6144 37.6909 97.8433 37.7632C97.9878 37.9077 98.2167 38.0643 98.3613 38.2088L97.6144 39.1002C97.3856 38.8713 97.0965 38.6545 96.7953 38.4979C96.4942 38.3534 96.1208 38.2691 95.7474 38.2691C95.4463 38.2691 95.1451 38.3413 94.856 38.4136C94.5549 38.5582 94.3381 38.7148 94.1092 38.9316C93.8803 39.1604 93.7358 39.3773 93.6635 39.6784C93.5913 39.9795 93.519 40.2807 93.519 40.5698C93.519 40.8709 93.5913 41.172 93.6635 41.4611C93.7358 41.7502 93.8924 41.9791 94.1092 42.2079C94.3381 42.4368 94.5549 42.5813 94.856 42.7259C95.1572 42.8704 95.4583 42.9548 95.7474 42.8704C96.1208 42.8704 96.4942 42.7982 96.7953 42.6416C97.0965 42.497 97.3976 42.2682 97.6867 41.967L98.4335 42.7138C98.289 42.8584 98.0601 43.0873 97.9156 43.2318C97.6867 43.3763 97.5422 43.5329 97.3133 43.6052C97.0844 43.6775 96.8676 43.8341 96.5665 43.8341C96.2653 44.1232 95.9642 44.1232 95.6751 44.1232Z" fill="#F3BA2F"/>
<path d="M99.626 37.3296H100.746V40.088H103.962V37.3296H105.155V44.0509H103.962V41.2082H100.746V44.0509H99.626V37.3296Z" fill="#F3BA2F"/>
<path d="M109.262 37.2573H110.383L113.298 43.9787H112.033L111.358 42.3405H108.226L107.552 43.9787H106.359L109.262 37.2573ZM110.913 41.3648L109.792 38.6787L108.672 41.3648H110.913Z" fill="#F3BA2F"/>
<path d="M114.49 37.3296H115.695V44.0509H114.49V37.3296Z" fill="#F3BA2F"/>
<path d="M117.478 37.3296H118.525L122.115 41.955V37.3296H123.308V44.0509H122.332L118.682 39.2689V44.0509H117.478V37.3296Z" fill="#F3BA2F"/>
<path d="M41.0729 43.6052V46.5202L38.5314 48.0139L36.062 46.5202V43.6052L38.5314 45.0989L41.0729 43.6052ZM27.4736 33.5232L29.9429 35.0168V40.0157L34.195 42.5573V45.4723L27.4736 41.5093V33.5232ZM49.5891 33.5232V41.5214L42.7954 45.4843V42.5693L47.0475 40.0277V35.0289L49.5891 33.5232ZM42.7834 29.5602L45.325 31.0539V33.9689L41.0729 36.5104V41.5816L38.6036 43.0752L36.1464 41.5816V36.4984L31.7377 33.9568V31.0418L34.2793 29.5482L38.5314 32.0898L42.7834 29.5602ZM31.7377 36.0527L34.207 37.5464V40.4614L31.7377 38.9677V36.0527ZM45.325 36.0527V38.9677L42.8557 40.4614V37.5464L45.325 36.0527ZM29.9429 27.0186L32.4845 28.5123L29.9429 30.0059V32.9209L27.4736 31.4273V28.5123L29.9429 27.0186ZM47.1198 27.0186L49.6614 28.5123V31.4273L47.1198 32.9209V30.0059L44.6504 28.5123L47.1198 27.0186ZM38.5314 27.0186L41.0729 28.5123L38.5314 30.0059L36.062 28.5123L38.5314 27.0186ZM38.5314 22.0198L45.325 25.9827L42.8557 27.4764L38.6036 24.9348L34.2673 27.4764L31.7979 25.9827L38.5314 22.0198Z" fill="#F3BA2F"/>
</svg>
