<svg width="151" height="70" viewBox="0 0 151 70" fill="none" xmlns="http://www.w3.org/2000/svg">
<rect width="150.206" height="70" rx="7.77778" fill="white"/>
<g clip-path="url(#clip0_83_2274)">
<path d="M110 8H39V59H110V8Z" fill="#FDFDFE"/>
<path d="M46.7392 49.5642C46.7884 49.3553 46.8202 49.1406 46.8896 48.9375C47.15 48.1686 47.6274 47.5796 48.3969 47.2894C49.2793 46.9587 50.0952 47.1124 50.8098 47.7276C51.4202 48.2498 51.7096 48.9404 51.7616 49.7354C51.7761 49.9588 51.6835 50.0575 51.4608 50.0575C50.1039 50.0575 48.7441 50.0575 47.3872 50.0575H47.1934C47.2165 50.1822 47.231 50.2896 47.2571 50.394C47.4654 51.1659 47.8935 51.7665 48.6776 52.0131C49.4761 52.2655 50.3961 52.0392 50.9631 51.2674C51.1078 51.073 51.2119 51.0295 51.3363 51.1223C51.455 51.2094 51.4521 51.3399 51.3219 51.5314C50.9255 52.1147 50.3498 52.4077 49.6728 52.518C49.0334 52.6224 48.4346 52.5064 47.8993 52.1292C47.2397 51.6649 46.8809 51.015 46.7623 50.2229C46.7565 50.1851 46.7421 50.1503 46.7334 50.1155C46.7334 49.9327 46.7334 49.747 46.7334 49.5642H46.7392ZM47.2108 49.6077H51.2727C51.2409 48.717 50.506 47.6057 49.3112 47.568C48.0613 47.5273 47.2773 48.6415 47.2108 49.6077Z" fill="#9CA5C2"/>
<path d="M88.8107 52.5789C88.7557 52.5644 88.7037 52.547 88.6487 52.5354C87.8791 52.3497 87.422 51.8361 87.2021 51.1049C87.1182 50.8235 87.0864 50.5188 87.0806 50.2229C87.0662 49.335 87.0748 48.4442 87.0748 47.5564C87.0748 47.5041 87.0748 47.4461 87.0951 47.3997C87.1385 47.3039 87.2195 47.2546 87.3294 47.272C87.4394 47.2894 87.5001 47.3591 87.5059 47.4693C87.5117 47.5331 87.5059 47.5941 87.5059 47.6579C87.5059 48.5139 87.503 49.3669 87.5059 50.2229C87.5088 50.6581 87.5898 51.0788 87.8328 51.4502C88.154 51.9435 88.6082 52.1553 89.1926 52.1263C90.0085 52.0885 90.4772 51.5488 90.6855 50.8177C90.8301 50.307 90.8677 49.7847 90.8648 49.2566C90.8648 48.6909 90.8648 48.1251 90.8648 47.5622C90.8648 47.3678 90.9429 47.2691 91.0876 47.272C91.2352 47.272 91.3162 47.3765 91.3162 47.5622C91.3162 49.0971 91.3162 50.6349 91.3162 52.1698C91.3162 52.193 91.3162 52.2191 91.3162 52.2423C91.3046 52.3787 91.212 52.4657 91.0789 52.4657C90.9545 52.4657 90.8677 52.3787 90.8648 52.2394C90.859 51.9754 90.8648 51.7084 90.8648 51.3951C90.8156 51.4734 90.7867 51.514 90.7607 51.5546C90.4309 52.0798 89.9882 52.4483 89.3604 52.5528C89.3488 52.5528 89.3373 52.5673 89.3257 52.576H88.8049L88.8107 52.5789Z" fill="#9CA5C2"/>
<path d="M67.292 26.3957C67.5148 26.0185 67.7346 25.6384 67.9603 25.2612C69.1899 23.2156 70.4195 21.1671 71.649 19.1216C72.5661 17.5954 73.4833 16.0692 74.4004 14.5459C74.4264 14.5024 74.4611 14.4617 74.493 14.4182C74.493 14.4675 74.4987 14.514 74.4987 14.5633C74.4987 17.3778 74.4987 20.1922 74.4987 23.0067C74.4987 23.056 74.4959 23.1025 74.493 23.1518C74.0156 23.3665 73.5382 23.5841 73.0609 23.7988C72.0627 24.2515 71.0646 24.7041 70.0665 25.1567C69.2622 25.5223 68.4579 25.8966 67.6536 26.2622C67.5379 26.3144 67.4135 26.3522 67.292 26.3957Z" fill="#9AA3C1"/>
<path d="M74.7649 14.7983C74.7765 14.8157 74.7881 14.8361 74.7996 14.8535C74.7678 14.9492 74.8546 15.0972 74.9587 15.1204C75.115 15.3815 75.2712 15.6398 75.4274 15.9009C75.3985 15.9909 75.465 16.104 75.5692 16.1359C75.5779 16.1533 75.5894 16.1707 75.5981 16.1882C75.5981 16.2578 75.5808 16.3332 75.6878 16.3361C75.7167 16.3826 75.7428 16.429 75.7717 16.4754C75.7254 16.6147 75.8151 16.7627 75.9684 16.8004C76.2809 17.3198 76.5934 17.8391 76.9087 18.3585C76.9 18.3701 76.8914 18.3846 76.8798 18.3962C76.9029 18.4049 76.9261 18.4136 76.9463 18.4223C76.9781 18.4804 77.0129 18.5355 77.0447 18.5935C77.0071 18.7038 77.1141 18.8837 77.2385 18.9156C77.279 18.9823 77.3195 19.0491 77.36 19.1158C77.3456 19.1245 77.3282 19.1332 77.3137 19.1419C77.3485 19.1622 77.3803 19.1854 77.415 19.2057C77.6291 19.5626 77.8432 19.9166 78.0544 20.2735C78.0804 20.3896 78.0515 20.5404 78.2309 20.5666C78.2251 20.7929 78.3119 20.9321 78.4826 20.9757C78.497 21.0018 78.5144 21.0308 78.5289 21.0569C78.4681 21.1701 78.5231 21.26 78.688 21.3238C78.6995 21.3413 78.7111 21.3616 78.7227 21.379C78.7401 21.408 78.7574 21.437 78.7777 21.4689C78.8587 21.6024 78.9368 21.7359 79.0178 21.8693C78.9368 21.9593 79.0091 21.9564 79.0728 21.9593C79.1711 22.1218 79.2695 22.2843 79.3679 22.4496C79.3592 22.4641 79.3505 22.4787 79.3418 22.4932L79.4084 22.5135C79.4141 22.5193 79.4199 22.528 79.417 22.5367C79.417 22.5947 79.3968 22.6614 79.4952 22.6585C79.5009 22.6643 79.5067 22.6731 79.5067 22.6818C79.4778 22.8007 79.5733 22.9574 79.6832 22.9748C79.6919 22.9893 79.7006 23.0067 79.7092 23.0212C79.7324 23.1576 79.7092 23.323 79.9089 23.352C79.9176 23.3694 79.9291 23.3868 79.9378 23.4042C79.9436 23.471 79.8973 23.5667 80.0304 23.5551C80.2329 23.8917 80.4325 24.2254 80.635 24.5619C80.6293 24.7476 80.7103 24.8811 80.8549 24.9217C80.8694 24.9478 80.881 24.9711 80.8954 24.9972C80.8839 25.1161 80.9186 25.2032 81.043 25.238C81.0603 25.267 81.0777 25.296 81.095 25.325C81.095 25.4469 81.095 25.5688 81.2571 25.5891C81.4104 25.8473 81.5637 26.1056 81.7142 26.3638C81.665 26.3551 81.61 26.358 81.5637 26.3377C81.3323 26.2361 81.1037 26.1288 80.8723 26.0243C80.5106 25.8618 80.149 25.7022 79.7874 25.5398C79.3013 25.3192 78.8182 25.09 78.3321 24.8666C77.6551 24.559 76.9752 24.2573 76.2954 23.9497C75.7138 23.6857 75.1352 23.4158 74.5537 23.1518V17.3546C74.5537 16.4696 74.5537 15.5875 74.5537 14.7026C74.5537 14.6504 74.5884 14.5981 74.6058 14.5459C74.6174 14.5633 74.6289 14.5836 74.6405 14.601C74.6116 14.7084 74.6521 14.7751 74.762 14.8012L74.7649 14.7983Z" fill="#757CA3"/>
<path d="M67.292 26.3958C67.4135 26.3522 67.535 26.3145 67.6536 26.2623C68.4579 25.8967 69.2622 25.5253 70.0665 25.1568C71.0646 24.7013 72.0627 24.2515 73.0609 23.7989C73.5382 23.5813 74.0156 23.3666 74.493 23.1519C74.5045 23.1519 74.5132 23.1519 74.5248 23.1519C74.5248 24.7448 74.5248 26.3348 74.5248 27.9278C74.5248 28.8214 74.5248 29.7122 74.5248 30.6059C74.4843 30.6262 74.4438 30.6465 74.4062 30.6668C73.9577 30.4057 73.5093 30.1445 73.0609 29.8805C71.1659 28.7576 69.268 27.6347 67.3759 26.5089C67.3412 26.4886 67.3209 26.4364 67.2949 26.3987L67.292 26.3958Z" fill="#757CA3"/>
<path d="M74.5244 30.6029C74.5244 29.7093 74.5244 28.8185 74.5244 27.9248C74.5244 26.3319 74.5244 24.7419 74.5244 23.1489C74.536 23.1489 74.5447 23.1489 74.5562 23.1489C75.1378 23.4159 75.7164 23.6828 76.2979 23.9468C76.9749 24.2544 77.6548 24.5562 78.3346 24.8637C78.8207 25.0842 79.3038 25.3135 79.7899 25.5369C80.1515 25.7023 80.5132 25.8589 80.8748 26.0214C81.1063 26.1259 81.3348 26.2332 81.5663 26.3348C81.6126 26.3551 81.6646 26.3522 81.7167 26.3609C81.7225 26.3725 81.7283 26.3812 81.7341 26.3928C81.7341 26.4131 81.7341 26.4363 81.7312 26.4567C80.9385 26.9296 80.1457 27.4026 79.3501 27.8726C77.785 28.8011 76.2198 29.7267 74.6575 30.6552C74.617 30.6784 74.5736 30.6987 74.5302 30.7219C74.5302 30.6813 74.5302 30.6406 74.5302 30.6029H74.5244Z" fill="#575D8C"/>
<path d="M81.7145 27.8929C81.4425 28.2846 81.1706 28.6763 80.8957 29.068C78.804 32.0218 76.7123 34.9726 74.6205 37.9264C74.5916 37.9699 74.5395 37.9989 74.499 38.0337C74.499 38.0134 74.5019 37.996 74.5019 37.9757C74.5019 36.023 74.5019 34.0702 74.5019 32.1175C75.4075 31.5836 76.3101 31.0527 77.2157 30.5159C78.668 29.657 80.1175 28.7982 81.5698 27.9393C81.6103 27.9161 81.6566 27.8958 81.6971 27.8755C81.7029 27.8813 81.7116 27.89 81.7174 27.8958L81.7145 27.8929Z" fill="#757CA4"/>
<path d="M74.4989 32.1146C74.4989 34.0673 74.4989 36.0201 74.4989 37.9728C74.4989 37.9931 74.4989 38.0105 74.496 38.0308C74.2356 37.671 73.9752 37.3141 73.7206 36.9544C72.0976 34.6622 70.4746 32.37 68.8515 30.0778C68.3568 29.3785 67.8621 28.6763 67.3674 27.9771C67.3413 27.9393 67.324 27.8929 67.3037 27.8523C67.6769 28.0699 68.053 28.2846 68.4262 28.5051C70.22 29.5671 72.0108 30.629 73.8045 31.691C74.0389 31.8303 74.2732 31.9754 74.5076 32.1175L74.4989 32.1146Z" fill="#9AA3C1"/>
<path d="M94.6754 48.1542C95.1615 47.4782 95.7864 47.0894 96.6254 47.1532C97.476 47.217 98.0054 47.7161 98.3236 48.4937C98.4162 48.3428 98.4914 48.1977 98.584 48.0672C99.0035 47.4724 99.5735 47.13 100.305 47.1445C101.159 47.1619 101.74 47.6116 102.079 48.3834C102.206 48.6794 102.264 48.987 102.261 49.3119C102.252 50.2723 102.258 51.2356 102.258 52.196C102.258 52.3585 102.203 52.4253 102.073 52.4369C101.949 52.4456 101.868 52.3759 101.842 52.2309C101.833 52.1786 101.833 52.1264 101.833 52.0713C101.833 51.1776 101.833 50.2839 101.833 49.3903C101.833 48.9115 101.706 48.4734 101.396 48.102C100.939 47.5507 100.088 47.4201 99.4838 47.8031C99.0093 48.102 98.7576 48.5604 98.6245 49.0798C98.5464 49.3903 98.5059 49.7152 98.4972 50.0344C98.4799 50.7163 98.4914 51.3981 98.4914 52.0771C98.4914 52.1438 98.4857 52.2134 98.4683 52.2773C98.4394 52.3904 98.3555 52.4398 98.2397 52.434C98.124 52.4282 98.069 52.3527 98.043 52.2512C98.0314 52.2047 98.0372 52.1554 98.0372 52.1061C98.0372 51.1892 98.0401 50.2694 98.0372 49.3525C98.0343 48.9231 97.9186 48.5256 97.6582 48.1745C97.2879 47.6755 96.7816 47.5275 96.1914 47.6029C95.3351 47.7132 94.8866 48.308 94.7477 49.0798C94.6812 49.4599 94.6841 49.8545 94.6783 50.2433C94.6667 50.8613 94.6783 51.4794 94.6754 52.0974C94.6754 52.1554 94.6725 52.2134 94.6581 52.2686C94.6349 52.3788 94.5568 52.4311 94.4498 52.4311C94.334 52.4311 94.2617 52.3672 94.2299 52.257C94.2212 52.225 94.2241 52.1902 94.2241 52.1554C94.2241 50.6089 94.2241 49.0624 94.2241 47.5159C94.2241 47.3824 94.2559 47.2722 94.4006 47.2402C94.5626 47.2054 94.6696 47.3041 94.6754 47.4898C94.6812 47.6639 94.6754 47.8379 94.6754 48.012C94.6754 48.0585 94.6754 48.1049 94.6754 48.1484V48.1542Z" fill="#9CA5C2"/>
<path d="M79.7674 50.0576C79.8455 50.9803 80.5051 51.932 81.4946 52.0771C82.3162 52.1989 83.0163 51.9465 83.5284 51.2618C83.6673 51.0761 83.7714 51.0325 83.8929 51.1167C84.0173 51.2008 84.0173 51.3343 83.89 51.5258C83.4879 52.1206 82.9035 52.4137 82.2149 52.521C81.5784 52.6197 80.9825 52.5007 80.4588 52.1235C79.7876 51.6419 79.4173 50.9745 79.3247 50.1563C79.2235 49.2394 79.507 48.4473 80.1579 47.8002C81.0606 46.9037 82.5303 46.9095 83.4474 47.7915C83.9913 48.3167 84.2633 48.9609 84.324 49.7065C84.3443 49.9735 84.2633 50.0576 83.9971 50.0576C82.6489 50.0576 81.2978 50.0576 79.9496 50.0576H79.7702H79.7674ZM83.8495 49.6137C83.7483 48.8216 83.4069 48.192 82.7183 47.8119C82.0356 47.4347 81.347 47.4753 80.7047 47.9308C80.129 48.337 79.8513 48.9202 79.7558 49.6137H83.8467H83.8495Z" fill="#9CA5C2"/>
<path d="M67.3234 50.0574C67.3668 50.4724 67.4912 50.8321 67.7053 51.16C68.0207 51.6388 68.446 51.9782 69.0217 52.0682C69.8376 52.1988 70.5348 51.9695 71.0585 51.3022C71.0874 51.2645 71.1163 51.2238 71.1453 51.1861C71.2407 51.0672 71.3507 51.041 71.4577 51.1165C71.5619 51.189 71.5792 51.3109 71.504 51.4386C71.3304 51.7316 71.099 51.9666 70.8125 52.1436C69.8231 52.7529 68.4778 52.7268 67.607 51.7635C67.011 51.1049 66.7651 50.3215 66.8953 49.4365C67.0312 48.5109 67.4912 47.7913 68.3389 47.3648C69.3081 46.8716 70.5406 47.1617 71.2234 48.0148C71.6429 48.537 71.857 49.1318 71.8859 49.7992C71.8917 49.9356 71.7991 50.0429 71.666 50.0574C71.6226 50.0632 71.5792 50.0574 71.5358 50.0574C70.1963 50.0574 68.8568 50.0574 67.5202 50.0574C67.4623 50.0574 67.4073 50.0574 67.3263 50.0574H67.3234ZM71.4143 49.6135C71.2899 48.7895 70.9398 48.1337 70.1876 47.7652C69.4644 47.4112 68.77 47.5128 68.1509 48.0148C67.6533 48.4181 67.3958 48.9665 67.3234 49.6135H71.4172H71.4143Z" fill="#9CA5C2"/>
<path d="M60.2961 48.16C60.5015 47.9539 60.6808 47.7131 60.9123 47.5448C62.084 46.6831 63.6289 47.246 63.9935 48.6648C64.0658 48.9521 64.1034 49.2538 64.1092 49.5498C64.1236 50.4057 64.115 51.2588 64.115 52.1147C64.115 52.1641 64.1208 52.2134 64.1063 52.2598C64.0745 52.3759 63.9963 52.4397 63.8748 52.4368C63.7533 52.4368 63.6926 52.3585 63.6665 52.2511C63.655 52.2047 63.6607 52.1553 63.6607 52.106C63.6607 51.192 63.6665 50.281 63.6607 49.367C63.655 48.8592 63.5016 48.395 63.1458 48.0207C62.7899 47.6406 62.3357 47.5419 61.8352 47.6058C60.9788 47.716 60.4696 48.3515 60.3366 49.161C60.2845 49.4859 60.3047 49.8225 60.2989 50.1533C60.2932 50.6466 60.2989 51.1398 60.2989 51.6331C60.2989 51.8159 60.2989 52.0016 60.2989 52.1844C60.2989 52.3497 60.2122 52.4397 60.0675 52.4368C59.9315 52.4368 59.8505 52.3468 59.8447 52.1873C59.8447 52.1582 59.8447 52.1292 59.8447 52.1002C59.8447 49.1494 59.8447 46.1956 59.8447 43.2448C59.8447 43.1867 59.8447 43.1287 59.8563 43.0736C59.8823 42.9517 59.9633 42.8908 60.0877 42.8995C60.2093 42.9082 60.2758 42.9865 60.2961 43.1055C60.3018 43.149 60.2961 43.1926 60.2961 43.2361C60.2961 44.829 60.2961 46.4248 60.2961 48.0178C60.2961 48.07 60.2961 48.1251 60.2961 48.1629V48.16Z" fill="#9FA7C4"/>
<path d="M55.8497 47.2432C56.2374 47.2432 56.6019 47.2432 56.9664 47.2432C57.0214 47.2432 57.1024 47.2432 57.1284 47.278C57.1776 47.3447 57.2268 47.4376 57.221 47.513C57.2123 47.6233 57.114 47.6755 56.9983 47.6755C56.6742 47.6755 56.3531 47.6755 56.0291 47.6755C55.977 47.6755 55.9249 47.6755 55.8497 47.6755V47.8525C55.8497 49.2771 55.8497 50.7018 55.8497 52.1264C55.8497 52.1699 55.8526 52.2135 55.8497 52.257C55.8381 52.3788 55.7687 52.4514 55.6443 52.4601C55.517 52.4688 55.4475 52.3905 55.4186 52.2773C55.407 52.2309 55.4128 52.1815 55.4128 52.1322C55.4128 50.7134 55.4128 49.2916 55.4128 47.8728V47.6813C55.355 47.6784 55.3058 47.6726 55.2537 47.6726C54.9499 47.6726 54.6462 47.6726 54.3424 47.6726C54.1717 47.6726 54.0791 47.5913 54.0791 47.455C54.0791 47.3157 54.1746 47.2374 54.3424 47.2374C54.6462 47.2374 54.9499 47.2374 55.2537 47.2374C55.3 47.2374 55.3463 47.2316 55.4099 47.2286V47.0633C55.4099 46.5903 55.4099 46.1174 55.4099 45.6444C55.4099 45.4355 55.4823 45.3311 55.624 45.3311C55.7687 45.3311 55.8439 45.4326 55.8439 45.6357C55.8439 46.1087 55.8439 46.5816 55.8439 47.0546V47.2345L55.8497 47.2432Z" fill="#9CA5C2"/>
<path d="M75.1584 48.3254C75.3638 48.1165 75.5461 47.8989 75.7602 47.7161C76.0871 47.4318 76.4719 47.2606 76.9116 47.2316C77.0592 47.2229 77.1923 47.307 77.2067 47.4289C77.2241 47.5536 77.1286 47.6552 76.9695 47.6813C75.8788 47.867 75.3291 48.6359 75.1931 49.6282C75.1671 49.8284 75.1642 50.0315 75.1613 50.2346C75.1584 50.873 75.1613 51.5084 75.1613 52.1467C75.1613 52.3208 75.0716 52.4282 74.9356 52.4282C74.7996 52.4282 74.71 52.3208 74.71 52.1467C74.71 50.6002 74.71 49.0566 74.71 47.5101C74.71 47.3418 74.8025 47.2316 74.9356 47.2316C75.0687 47.2316 75.1613 47.3447 75.1613 47.513C75.1613 47.7829 75.1613 48.0527 75.1613 48.3254H75.1584Z" fill="#9FA7C4"/>
<path d="M74.5568 23.1489C74.5452 23.1489 74.5366 23.1489 74.525 23.1489C74.5134 23.1489 74.5047 23.1489 74.4932 23.1489C74.4932 23.0995 74.4989 23.0531 74.4989 23.0038C74.4989 20.1893 74.4989 17.3748 74.4989 14.5604C74.4989 14.511 74.4961 14.4646 74.4932 14.4153C74.5337 14.4559 74.5713 14.4965 74.6118 14.5371C74.5944 14.5894 74.5597 14.6416 74.5597 14.6938C74.5568 15.5788 74.5597 16.4609 74.5597 17.3458V23.1431L74.5568 23.1489Z" fill="#757CA4"/>
<path d="M78.4824 20.9784C78.3117 20.9349 78.225 20.7957 78.2307 20.5693C78.3146 20.7057 78.3985 20.8421 78.4824 20.9784Z" fill="#757CA4"/>
<path d="M75.9716 16.8032C75.8183 16.7655 75.7286 16.6146 75.7749 16.4783C75.8414 16.5856 75.9051 16.6959 75.9716 16.8032Z" fill="#757CA4"/>
<path d="M80.852 24.9218C80.7073 24.8812 80.6263 24.7477 80.6321 24.562C80.7045 24.681 80.7797 24.8028 80.852 24.9218Z" fill="#757CA4"/>
<path d="M79.9086 23.3549C79.709 23.3259 79.7321 23.1605 79.709 23.0242C79.7755 23.1344 79.8421 23.2447 79.9086 23.3549Z" fill="#757CA4"/>
<path d="M77.2444 18.9214C77.12 18.8895 77.01 18.7096 77.0505 18.5994C77.1142 18.7067 77.1807 18.8141 77.2444 18.9214Z" fill="#757CA4"/>
<path d="M78.691 21.3268C78.5261 21.2629 78.4711 21.173 78.5318 21.0598C78.5839 21.1498 78.6389 21.2368 78.691 21.3268Z" fill="#757CA4"/>
<path d="M79.6798 22.9747C79.5698 22.9573 79.4743 22.8006 79.5033 22.6816C79.5611 22.7803 79.6219 22.876 79.6798 22.9747Z" fill="#757CA4"/>
<path d="M78.2341 20.5694C78.0547 20.5433 78.0865 20.3924 78.0576 20.2764C78.1155 20.375 78.1733 20.4708 78.2341 20.5694Z" fill="#757CA4"/>
<path d="M74.9588 15.1205C74.8546 15.0943 74.7678 14.9493 74.7996 14.8535C74.8517 14.9435 74.9067 15.0305 74.9588 15.1205Z" fill="#757CA4"/>
<path d="M81.2538 25.589C81.0918 25.5687 81.0918 25.4468 81.0918 25.325C81.1468 25.412 81.2017 25.5019 81.2538 25.589Z" fill="#757CA4"/>
<path d="M75.5695 16.1359C75.4653 16.104 75.3988 15.9937 75.4277 15.9009C75.474 15.9792 75.5232 16.0576 75.5695 16.1359Z" fill="#757CA4"/>
<path d="M81.0403 25.2379C80.9159 25.2031 80.8811 25.1131 80.8927 24.9971C80.9419 25.0783 80.9911 25.1596 81.0403 25.2379Z" fill="#757CA4"/>
<path d="M74.7649 14.7983C74.6578 14.7722 74.6173 14.7055 74.6434 14.5981C74.6839 14.6649 74.7244 14.7316 74.7649 14.7983Z" fill="#757CA4"/>
<path d="M74.5248 30.6028C74.5248 30.6434 74.5248 30.684 74.5248 30.7217C74.4843 30.7014 74.4438 30.684 74.4033 30.6637C74.4438 30.6434 74.4843 30.6231 74.5219 30.6028H74.5248Z" fill="#757CA4"/>
<path d="M80.0306 23.5552C79.9004 23.5668 79.9438 23.471 79.938 23.4043C79.9699 23.4536 79.9988 23.5029 80.0306 23.5552Z" fill="#757CA4"/>
<path d="M75.6906 16.3362C75.5835 16.3333 75.598 16.255 75.6009 16.1882C75.6298 16.2376 75.6617 16.2869 75.6906 16.3362Z" fill="#757CA4"/>
<path d="M77.4177 19.2086C77.3829 19.1883 77.3511 19.1651 77.3164 19.1448C77.3309 19.1361 77.3482 19.1274 77.3627 19.1187C77.3801 19.1477 77.3974 19.1767 77.4148 19.2086H77.4177Z" fill="#757CA4"/>
<path d="M79.4954 22.6585C79.3999 22.6614 79.4173 22.5947 79.4173 22.5366C79.4433 22.5772 79.4693 22.6179 79.4954 22.6585Z" fill="#757CA4"/>
<path d="M79.0731 21.962C79.0094 21.962 78.94 21.962 79.0181 21.8721C79.0354 21.9011 79.0557 21.933 79.0731 21.962Z" fill="#757CA4"/>
<path d="M78.7776 21.4718C78.7603 21.4428 78.7429 21.4138 78.7227 21.3818C78.74 21.4109 78.7574 21.4399 78.7776 21.4718Z" fill="#757CA4"/>
<path d="M76.9494 18.4252C76.9262 18.4165 76.9031 18.4078 76.8828 18.399C76.8915 18.3874 76.9002 18.3729 76.9117 18.3613C76.9262 18.3816 76.9378 18.4049 76.9522 18.4252H76.9494Z" fill="#757CA4"/>
<path d="M79.4083 22.5135L79.3418 22.4932C79.3505 22.4787 79.3592 22.4642 79.3678 22.4497C79.3823 22.47 79.3939 22.4932 79.4083 22.5135Z" fill="#757CA4"/>
<path d="M81.7285 26.4567C81.7285 26.4363 81.7285 26.4131 81.7314 26.3928C81.7314 26.4131 81.7314 26.4363 81.7285 26.4567Z" fill="#757CA4"/>
<path d="M81.7283 27.8484C81.7283 27.8457 81.7337 27.8403 81.7364 27.8376C81.7337 27.8403 81.7283 27.843 81.7256 27.8457L81.7283 27.8484Z" fill="#757CA4"/>
<path d="M81.6934 27.8726C81.7049 27.8639 81.7165 27.8581 81.7281 27.8494C81.7223 27.8639 81.7194 27.8784 81.7136 27.8929C81.7078 27.8871 81.6991 27.8813 81.6934 27.8726Z" fill="#757CA4"/>
<path d="M67.2999 27.8489C67.2972 27.8489 67.2918 27.8462 67.2891 27.8435C67.2918 27.8435 67.2945 27.8462 67.2999 27.8489Z" fill="#9AA3C1"/>
</g>
<defs>
<clipPath id="clip0_83_2274">
<rect width="71" height="51" fill="white" transform="translate(39 8)"/>
</clipPath>
</defs>
</svg>
