<svg width="151" height="70" viewBox="0 0 151 70" fill="none" xmlns="http://www.w3.org/2000/svg">
<rect x="0.412109" width="150.206" height="70" rx="7.77778" fill="white"/>
<g clip-path="url(#clip0_83_2324)">
<path d="M20.3908 47.9574C27.5588 47.9574 33.3696 42.1467 33.3696 34.9787C33.3696 27.8108 27.5588 22 20.3908 22C13.2229 22 7.41211 27.8108 7.41211 34.9787C7.41211 42.1467 13.2229 47.9574 20.3908 47.9574Z" fill="#FF0420"/>
<path d="M16.6031 38.4206C15.9278 38.4494 15.2614 38.258 14.7044 37.8752C14.4637 37.6914 14.2714 37.4517 14.1442 37.1769C14.017 36.9021 13.9586 36.6004 13.9741 36.298C13.9771 36.1218 13.9934 35.946 14.0229 35.7723C14.1073 35.3042 14.2273 34.7427 14.3831 34.0878C14.8245 32.3027 15.9636 31.4101 17.8005 31.4101C18.2609 31.4026 18.7181 31.4887 19.1441 31.6633C19.5224 31.8115 19.8478 32.0692 20.0788 32.4033C20.3118 32.7476 20.4309 33.1563 20.4192 33.5718C20.4159 33.7448 20.3996 33.9173 20.3705 34.0878C20.2731 34.6655 20.1563 35.227 20.0201 35.7723C19.7931 36.6615 19.4004 37.3268 18.842 37.7682C18.2841 38.2031 17.5378 38.4206 16.6031 38.4206ZM16.7395 37.0184C17.0767 37.0278 17.4057 36.9135 17.6646 36.6971C17.9506 36.4377 18.1453 36.0928 18.2195 35.7137C18.3688 35.1038 18.4823 34.5715 18.5599 34.1169C18.586 33.9789 18.599 33.8387 18.5988 33.6982C18.5988 33.1074 18.2905 32.8121 17.6739 32.8123C17.334 32.8041 17.0023 32.9181 16.7392 33.1335C16.4584 33.3957 16.2676 33.7399 16.1939 34.1169C16.077 34.5518 15.9602 35.0841 15.8435 35.7137C15.8171 35.8484 15.804 35.9854 15.8046 36.1227C15.8046 36.7198 16.1162 37.0184 16.7395 37.0184Z" fill="white"/>
<path d="M20.8685 38.3235C20.8376 38.3253 20.8067 38.3201 20.778 38.3083C20.7493 38.2966 20.7237 38.2785 20.703 38.2554C20.6706 38.2031 20.6601 38.1401 20.6739 38.0801L22.0175 31.7512C22.0294 31.6813 22.0674 31.6186 22.1239 31.5759C22.176 31.5328 22.2413 31.5088 22.309 31.5078H24.899C25.5087 31.4778 26.1132 31.634 26.6322 31.9556C26.8455 32.0954 27.0188 32.2883 27.1349 32.5154C27.251 32.7425 27.3059 32.996 27.2943 33.2507C27.2933 33.4212 27.2737 33.591 27.2358 33.7571C27.1284 34.4132 26.7772 35.0044 26.2524 35.4124C25.7656 35.7695 25.097 35.948 24.2466 35.948H22.9324L22.4845 38.0803C22.4726 38.1501 22.4345 38.2128 22.3781 38.2556C22.326 38.2987 22.2608 38.3227 22.1932 38.3237L20.8685 38.3235ZM24.3153 34.6039C24.5705 34.6096 24.8203 34.5309 25.0262 34.3801C25.238 34.2246 25.3839 33.9953 25.4351 33.7376C25.4532 33.6412 25.463 33.5435 25.4643 33.4454C25.4698 33.3662 25.4579 33.2868 25.4292 33.2127C25.4006 33.1387 25.3561 33.0718 25.2987 33.0169C25.1363 32.8969 24.9351 32.8414 24.7341 32.8612H23.5658L23.1958 34.6039H24.3153Z" fill="white"/>
</g>
<g clip-path="url(#clip1_83_2324)">
<path d="M43.8248 43.0639C42.2843 43.0639 41.0222 42.7054 40.0384 41.9882C39.0675 41.2584 38.582 40.2211 38.582 38.8765C38.582 38.5948 38.6144 38.2491 38.6791 37.8393C38.8474 36.9173 39.0869 35.8097 39.3976 34.5163C40.2778 30.9949 42.5497 29.2341 46.2132 29.2341C47.2099 29.2341 48.1032 29.4006 48.8928 29.7335C49.6825 30.0537 50.3038 30.5403 50.7569 31.1933C51.2099 31.8336 51.4365 32.6019 51.4365 33.4983C51.4365 33.7672 51.4042 34.1066 51.3395 34.5163C51.1452 35.656 50.9122 36.7637 50.6404 37.8393C50.1873 39.5937 49.4041 40.9062 48.2909 41.777C47.1775 42.6349 45.6889 43.0639 43.8248 43.0639ZM44.0966 40.298C44.8216 40.298 45.4365 40.0866 45.9413 39.6641C46.4591 39.2415 46.8281 38.5948 47.0481 37.7241C47.3459 36.5204 47.5724 35.4703 47.7278 34.574C47.7796 34.3051 47.8054 34.0297 47.8054 33.748C47.8054 32.5827 47.1905 32.0001 45.9607 32.0001C45.2358 32.0001 44.6144 32.2114 44.0966 32.634C43.5918 33.0565 43.2293 33.7032 43.0093 34.574C42.7762 35.4319 42.5432 36.482 42.3102 37.7241C42.2584 37.9802 42.2325 38.2491 42.2325 38.5308C42.2325 39.7089 42.8539 40.298 44.0966 40.298Z" fill="#FF0420"/>
<path d="M53.4073 42.8716C53.2648 42.8716 53.1548 42.8268 53.0772 42.7372C53.0125 42.6347 52.993 42.5195 53.0189 42.3915L55.6985 29.9062C55.7244 29.7654 55.7957 29.6501 55.9122 29.5605C56.0286 29.4708 56.1517 29.426 56.2811 29.426H61.4461C62.8831 29.426 64.0352 29.7205 64.9025 30.3096C65.7828 30.8986 66.2229 31.7502 66.2229 32.8643C66.2229 33.1844 66.1841 33.5173 66.1064 33.8631C65.7828 35.3357 65.1291 36.4241 64.1452 37.1285C63.1744 37.8328 61.841 38.1849 60.1452 38.1849H57.5238L56.6306 42.3915C56.6047 42.5323 56.5335 42.6475 56.417 42.7372C56.3005 42.8268 56.1775 42.8716 56.048 42.8716H53.4073ZM60.2811 35.5342C60.8248 35.5342 61.2973 35.3869 61.6986 35.0924C62.1129 34.7979 62.3847 34.3753 62.5141 33.8247C62.553 33.607 62.5724 33.4149 62.5724 33.2484C62.5724 32.8771 62.4624 32.5954 62.2423 32.4033C62.0223 32.1984 61.6468 32.0959 61.1161 32.0959H58.786L58.0481 35.5342H60.2811Z" fill="#FF0420"/>
<path d="M70.5984 42.8716C70.456 42.8716 70.346 42.8268 70.2683 42.7372C70.1906 42.6347 70.1648 42.5195 70.1906 42.3915L72.346 32.4417H68.8897C68.7473 32.4417 68.6372 32.3969 68.5595 32.3072C68.4948 32.2048 68.4754 32.0895 68.5013 31.9615L68.9479 29.9062C68.9738 29.7654 69.045 29.6501 69.1615 29.5605C69.278 29.4708 69.401 29.426 69.5304 29.426H79.9772C80.1195 29.426 80.2295 29.4708 80.3073 29.5605C80.359 29.6373 80.3849 29.7141 80.3849 29.791C80.3849 29.8294 80.3784 29.8678 80.3655 29.9062L79.9189 31.9615C79.893 32.1023 79.8218 32.2176 79.7053 32.3072C79.6017 32.3969 79.4788 32.4417 79.3364 32.4417H75.8994L73.744 42.3915C73.7182 42.5323 73.647 42.6475 73.5305 42.7372C73.4139 42.8268 73.291 42.8716 73.1616 42.8716H70.5984Z" fill="#FF0420"/>
<path d="M80.8794 42.8716C80.737 42.8716 80.627 42.8268 80.5494 42.7372C80.4716 42.6347 80.4457 42.5195 80.4716 42.3915L83.1707 29.9062C83.1966 29.7654 83.2678 29.6501 83.3843 29.5605C83.5008 29.4708 83.6238 29.426 83.7533 29.426H86.3746C86.517 29.426 86.6271 29.4708 86.7047 29.5605C86.7565 29.6373 86.7824 29.7141 86.7824 29.791C86.7824 29.8294 86.7759 29.8678 86.7629 29.9062L84.0833 42.3915C84.0574 42.5323 83.9863 42.6475 83.8698 42.7372C83.7533 42.8268 83.6303 42.8716 83.5008 42.8716H80.8794Z" fill="#FF0420"/>
<path d="M88.273 42.8716C88.1306 42.8716 88.0205 42.8268 87.9428 42.7372C87.8652 42.6475 87.8393 42.5323 87.8652 42.3915L90.5448 29.9062C90.5707 29.7654 90.6419 29.6501 90.7584 29.5605C90.8749 29.4708 91.0044 29.426 91.1468 29.426H93.2438C93.5546 29.426 93.7552 29.5669 93.8458 29.8486L95.9623 35.8991L100.681 29.8486C100.746 29.7462 100.836 29.6501 100.953 29.5605C101.082 29.4708 101.237 29.426 101.419 29.426H103.535C103.678 29.426 103.788 29.4708 103.865 29.5605C103.917 29.6373 103.943 29.7141 103.943 29.791C103.943 29.8294 103.937 29.8678 103.924 29.9062L101.244 42.3915C101.218 42.5323 101.147 42.6475 101.03 42.7372C100.914 42.8268 100.791 42.8716 100.661 42.8716H98.3118C98.1695 42.8716 98.0595 42.8268 97.9817 42.7372C97.917 42.6347 97.8976 42.5195 97.9235 42.3915L99.4381 35.3037L96.4672 39.2029C96.3378 39.3438 96.2148 39.4526 96.0983 39.5295C95.9818 39.6063 95.8458 39.6447 95.6905 39.6447H94.6808C94.4089 39.6447 94.2212 39.4974 94.1177 39.2029L92.739 35.1308L91.1856 42.3915C91.1597 42.5323 91.0885 42.6475 90.972 42.7372C90.8555 42.8268 90.7325 42.8716 90.603 42.8716H88.273Z" fill="#FF0420"/>
<path d="M105.413 42.8716C105.27 42.8716 105.16 42.8268 105.082 42.7372C105.005 42.6347 104.979 42.5195 105.005 42.3915L107.704 29.9062C107.73 29.7654 107.801 29.6501 107.917 29.5605C108.034 29.4708 108.157 29.426 108.286 29.426H110.908C111.05 29.426 111.16 29.4708 111.238 29.5605C111.29 29.6373 111.315 29.7141 111.315 29.791C111.315 29.8294 111.309 29.8678 111.296 29.9062L108.617 42.3915C108.591 42.5323 108.52 42.6475 108.403 42.7372C108.286 42.8268 108.163 42.8716 108.034 42.8716H105.413Z" fill="#FF0420"/>
<path d="M117.603 43.0639C116.463 43.0639 115.486 42.9103 114.671 42.6029C113.868 42.2956 113.259 41.8858 112.845 41.3736C112.444 40.8614 112.243 40.2915 112.243 39.6641C112.243 39.5617 112.256 39.408 112.282 39.2031C112.308 39.0879 112.36 38.9918 112.438 38.915C112.528 38.8382 112.631 38.7997 112.748 38.7997H115.233C115.389 38.7997 115.505 38.8254 115.583 38.8765C115.674 38.9278 115.764 39.0174 115.855 39.1455C115.946 39.4784 116.153 39.7538 116.477 39.9714C116.813 40.1891 117.273 40.298 117.855 40.298C118.593 40.298 119.189 40.1827 119.641 39.9522C120.095 39.7217 120.367 39.408 120.457 39.011C120.47 38.9598 120.476 38.883 120.476 38.7806C120.476 38.4604 120.276 38.2107 119.875 38.0314C119.473 37.8393 118.735 37.6153 117.661 37.3591C116.405 37.0902 115.454 36.6869 114.806 36.149C114.159 35.5984 113.836 34.8813 113.836 33.9977C113.836 33.6904 113.875 33.3767 113.952 33.0565C114.211 31.8656 114.852 30.9308 115.874 30.2522C116.91 29.5735 118.243 29.2341 119.875 29.2341C120.858 29.2341 121.733 29.407 122.496 29.7527C123.26 30.0985 123.849 30.5403 124.263 31.0781C124.69 31.6031 124.903 32.1281 124.903 32.6532C124.903 32.8068 124.897 32.9157 124.884 32.9797C124.858 33.0949 124.8 33.191 124.71 33.2678C124.632 33.3447 124.535 33.3831 124.418 33.3831H121.816C121.532 33.3831 121.337 33.2742 121.234 33.0565C121.221 32.762 121.065 32.5123 120.768 32.3074C120.47 32.1025 120.082 32.0001 119.603 32.0001C119.033 32.0001 118.561 32.1025 118.185 32.3074C117.823 32.5123 117.596 32.8132 117.506 33.2102C117.493 33.2742 117.486 33.3575 117.486 33.4599C117.486 33.7672 117.667 34.0233 118.03 34.2282C118.405 34.4203 119.059 34.6188 119.991 34.8237C121.441 35.1054 122.496 35.5088 123.156 36.0338C123.829 36.5588 124.166 37.2567 124.166 38.1274C124.166 38.422 124.127 38.7421 124.049 39.0879C123.765 40.394 123.072 41.3864 121.971 42.0651C120.885 42.731 119.428 43.0639 117.603 43.0639Z" fill="#FF0420"/>
<path d="M126.742 42.8716C126.599 42.8716 126.489 42.8268 126.412 42.7372C126.334 42.6475 126.308 42.5323 126.334 42.3915L129.014 29.9062C129.039 29.7654 129.111 29.6501 129.227 29.5605C129.344 29.4708 129.473 29.426 129.616 29.426H131.712C132.023 29.426 132.224 29.5669 132.315 29.8486L134.431 35.8991L139.149 29.8486C139.215 29.7462 139.305 29.6501 139.421 29.5605C139.551 29.4708 139.706 29.426 139.887 29.426H142.004C142.147 29.426 142.257 29.4708 142.334 29.5605C142.386 29.6373 142.412 29.7141 142.412 29.791C142.412 29.8294 142.406 29.8678 142.392 29.9062L139.713 42.3915C139.687 42.5323 139.615 42.6475 139.499 42.7372C139.383 42.8268 139.26 42.8716 139.13 42.8716H136.781C136.638 42.8716 136.528 42.8268 136.451 42.7372C136.386 42.6347 136.366 42.5195 136.392 42.3915L137.907 35.3037L134.936 39.2029C134.807 39.3438 134.683 39.4526 134.567 39.5295C134.451 39.6063 134.314 39.6447 134.159 39.6447H133.149C132.877 39.6447 132.69 39.4974 132.587 39.2029L131.208 35.1308L129.655 42.3915C129.628 42.5323 129.557 42.6475 129.441 42.7372C129.324 42.8268 129.201 42.8716 129.072 42.8716H126.742Z" fill="#FF0420"/>
</g>
<defs>
<clipPath id="clip0_83_2324">
<rect width="105.285" height="25.9574" fill="white" transform="translate(7.41211 22)"/>
</clipPath>
<clipPath id="clip1_83_2324">
<rect width="103.83" height="13.8298" fill="white" transform="translate(38.582 29.2341)"/>
</clipPath>
</defs>
</svg>
