<svg width="151" height="70" viewBox="0 0 151 70" fill="none" xmlns="http://www.w3.org/2000/svg">
<rect x="0.618164" width="150.206" height="70" rx="7.77778" fill="white"/>
<path d="M63.5233 30.0285C64.2348 30.4812 64.8169 31.0634 65.1834 31.8611C66.0457 33.5643 66.1104 35.8496 65.1402 37.5097C64.7091 38.3074 64.0623 38.9111 63.2431 39.2776C61.9064 39.9675 60.2033 40.1615 58.7588 39.601C58.2198 39.4501 57.7455 39.1267 57.3575 38.7386C57.3575 40.14 57.3575 42.9427 57.3575 44.3441C56.5814 44.3441 55.0076 44.3441 54.2314 44.3441C54.2314 40.6574 54.2314 33.2624 54.2314 29.5757C54.8998 29.5757 56.258 29.5757 56.9263 29.5757C56.991 29.8776 57.1203 30.4597 57.185 30.7615C58.9528 29.317 61.5615 28.7565 63.5233 30.0285ZM61.7986 36.712C64.0838 34.4698 61.2381 30.6968 58.457 32.4C58.0042 32.6372 57.6809 33.0253 57.4437 33.478C57.4437 34.0817 57.4437 35.3106 57.4437 35.8927C57.5946 36.367 57.918 36.7551 58.3061 37.0138C59.3409 37.7253 60.8716 37.5744 61.7986 36.712Z" fill="#8247E5"/>
<path d="M67.6621 31.9256C69.2143 29.4031 72.944 28.6917 75.4664 30.0931C78.9589 31.8609 78.9805 37.5096 75.4664 39.2559C72.944 40.571 69.1712 40.0536 67.6621 37.488C66.735 35.8064 66.735 33.5857 67.6621 31.9256ZM70.8312 36.6041C73.3967 39.1265 76.3072 35.0949 74.2806 32.7233C73.4183 31.6454 71.6936 31.6669 70.7881 32.6587C69.9258 33.7582 69.8826 35.5476 70.8312 36.6041Z" fill="#8247E5"/>
<path d="M83.1846 39.6874C82.4085 39.6874 80.8347 39.6874 80.0586 39.6874C80.0586 35.2676 80.0586 26.3635 80.0586 21.9653C80.8347 21.9653 82.4085 21.9653 83.1846 21.9653C83.1846 26.3635 83.1846 35.2676 83.1846 39.6874Z" fill="#8247E5"/>
<path d="M96.0135 29.8777C94.4181 33.4997 91.2274 40.8084 89.6536 44.4304C88.8991 44.4304 87.3899 44.4304 86.6354 44.4304C87.2175 43.1369 88.4032 40.5066 89.0069 39.213C87.8858 36.8846 85.6006 32.2061 84.4795 29.8992C85.3634 29.8992 87.1528 29.8992 88.0367 29.8992C88.6835 31.3437 89.977 34.2759 90.6238 35.7204C91.2705 34.2759 92.5641 31.3437 93.2108 29.8992C93.9007 29.8777 95.3236 29.8777 96.0135 29.8777Z" fill="#8247E5"/>
<path d="M107.978 29.8775V34.7931C107.827 36.6041 108.495 40.7436 107.159 42.2312C106.598 43.0289 105.887 43.5894 105.003 44.0206C103.451 44.7752 101.575 44.8399 99.9366 44.4087C99.4191 44.2147 98.9233 44.0206 98.4921 43.7619C98.0178 43.4601 97.5866 43.1367 97.1555 42.7271C97.6082 42.1881 98.5352 41.1101 98.988 40.5711C100.476 42.3821 104.68 42.5761 104.809 39.644C104.809 39.2991 104.809 38.5876 104.809 38.2427C104.464 38.7601 104.011 39.1913 103.408 39.4931C101.942 40.183 100.066 40.1615 98.6646 39.2775C97.8885 38.8248 97.3064 38.178 96.8321 37.3803C95.9266 35.7633 95.8835 33.6504 96.8321 32.055C97.3064 31.2573 97.91 30.6105 98.7293 30.1147C100.497 28.9936 103.278 29.166 104.766 30.6537C104.852 30.4596 105.003 30.0931 105.089 29.8991C105.801 29.8775 107.245 29.8775 107.978 29.8775ZM104.809 35.9142C104.809 35.3105 104.809 34.0816 104.809 33.4995C104.593 33.0037 104.248 32.6371 103.774 32.3784C99.4838 30.05 97.2848 37.0138 102.092 37.4449C103.278 37.3587 104.227 36.9275 104.809 35.9142Z" fill="#8247E5"/>
<path d="M110.565 31.9257C111.061 31.1064 111.708 30.5243 112.57 30.05C114.338 29.1445 116.645 29.0798 118.391 30.05C119.21 30.4812 119.857 31.128 120.331 31.9257C121.237 33.5427 121.301 35.6987 120.331 37.3156C119.9 38.1349 119.232 38.7817 118.391 39.2129C116.645 40.1399 114.338 40.1399 112.57 39.256C111.708 38.8248 111.061 38.2427 110.565 37.4234C109.638 35.8065 109.595 33.5642 110.565 31.9257ZM113.691 36.6042C115.179 38.3505 118.024 36.8629 117.787 34.6638C118.003 32.4216 115.222 31.0202 113.691 32.7234C113.195 33.2409 113.001 33.9523 112.98 34.6638C113.044 35.3968 113.238 36.0436 113.691 36.6042Z" fill="#8247E5"/>
<path d="M132.059 30.2008C132.727 30.7398 132.986 31.4513 133.029 32.3137C133.029 34.1462 133.029 37.8545 133.029 39.6871C132.232 39.6871 130.636 39.6871 129.839 39.6871C129.839 38.1348 129.839 35.0302 129.839 33.4995C129.644 30.8907 126.281 32.2274 126.174 34.2325C125.85 35.7848 126.087 38.0701 126.001 39.6871C125.225 39.6871 123.651 39.6871 122.875 39.6871C122.875 37.2508 122.875 32.3137 122.875 29.8774C123.586 29.8774 125.031 29.8774 125.721 29.8774C125.764 30.2655 125.893 31.0632 125.936 31.4297C126.324 30.7829 126.799 30.2871 127.445 29.9206C128.847 29.1875 130.873 29.1229 132.059 30.2008Z" fill="#8247E5"/>
<path d="M40.8652 29.7052C40.3046 29.3818 39.6148 29.3818 39.0327 29.7052C37.9763 30.3304 35.8851 31.5593 34.8287 32.1845C34.1172 32.5942 32.6728 33.3919 31.9829 33.8015C30.9265 34.4267 28.8353 35.6556 27.7789 36.2809C27.2184 36.6043 26.5285 36.6043 25.9464 36.2809C25.1056 35.8065 23.4456 34.8148 22.6048 34.3405C21.3975 33.7584 21.7209 31.9258 21.6993 30.8694C21.7425 29.813 21.3759 27.9373 22.6048 27.3983C23.424 26.924 25.0841 25.9754 25.9033 25.501C26.4638 25.1776 27.1537 25.1776 27.7358 25.501C28.5551 25.9754 30.2151 26.924 31.0128 27.3983C32.3925 28.1744 31.8104 30.1364 31.9182 31.4515C32.6297 31.0419 34.0741 30.201 34.7856 29.7698C34.6562 28.4763 35.2814 26.4712 33.8585 25.7166C32.3494 24.8327 29.2881 23.0432 27.7789 22.1593C27.2184 21.8359 26.5285 21.8359 25.9464 22.1593C24.3942 23.0432 21.2897 24.8327 19.7375 25.7166C18.2499 26.3419 18.9829 29.662 18.8104 30.8694C18.9829 32.0767 18.2284 35.3969 19.7375 36.0221C21.2897 36.9061 24.3942 38.6955 25.9464 39.5795C26.507 39.9029 27.1968 39.9029 27.7789 39.5795C28.8353 38.9758 30.9265 37.7469 31.9829 37.1648C32.6944 36.7552 34.1388 35.9143 34.8287 35.4832C35.8851 34.8795 37.9763 33.6506 39.0327 33.0685C39.5932 32.7451 40.2831 32.7451 40.8652 33.0685C41.6844 33.5428 43.3444 34.4914 44.1421 34.9442C45.3494 35.5263 45.026 37.3588 45.0476 38.4153C45.0045 39.4717 45.371 41.3474 44.1421 41.8864C43.3229 42.3607 41.6628 43.3524 40.8652 43.8267C40.3046 44.1501 39.6148 44.1501 39.0327 43.8267C38.2134 43.3524 36.5534 42.4038 35.7342 41.951C34.3544 41.1749 34.9365 39.213 34.8287 37.8978C34.1172 38.3075 32.6728 39.1483 31.9829 39.5795C32.1123 40.8731 31.4871 42.8781 32.8884 43.6327C34.4406 44.5166 37.5451 46.3061 39.0758 47.19C39.6363 47.5134 40.3262 47.5134 40.9083 47.19C42.4605 46.3061 45.565 44.5166 47.1172 43.6327C48.5832 42.9859 47.8718 39.6873 48.0443 38.4799C47.8718 37.2726 48.6264 33.9524 47.1172 33.3272C45.565 32.4217 42.439 30.6107 40.8652 29.7052Z" fill="#8247E5"/>
</svg>
