<svg width="163" height="114" viewBox="0 0 163 114" fill="none" xmlns="http://www.w3.org/2000/svg">
<mask id="mask0_751_5509" style="mask-type:alpha" maskUnits="userSpaceOnUse" x="0" y="0" width="163" height="114">
<rect x="1.25834" y="1.02445" width="161.144" height="112.174" fill="#F3F3F3" stroke="black" stroke-width="0.569412"/>
</mask>
<g mask="url(#mask0_751_5509)">
<path opacity="0.15" d="M102.207 0.739746V112.914" stroke="black" stroke-width="0.569412"/>
<path opacity="0.15" d="M122.297 0.739746V112.914" stroke="black" stroke-width="0.569412"/>
<path opacity="0.15" d="M142.389 0.739746V112.914" stroke="black" stroke-width="0.569412"/>
<path opacity="0.15" d="M21.8395 0.739746V112.914" stroke="black" stroke-width="0.569412"/>
<path opacity="0.15" d="M41.9313 0.739746V112.914" stroke="black" stroke-width="0.569412"/>
<path opacity="0.15" d="M62.0231 0.739746V112.914" stroke="black" stroke-width="0.569412"/>
<path d="M82.1147 0.739746V112.914" stroke="#4E14D0" stroke-width="1.13882"/>
<path d="M230 57L-2.99999 57" stroke="black" stroke-opacity="0.15" stroke-width="0.569412"/>
<g filter="url(#filter0_d_751_5509)">
<path d="M0 83L34 57" stroke="#EA3325" stroke-width="1.13882"/>
</g>
<path d="M34 57L1 83V57H34Z" fill="#D72F22" fill-opacity="0.24"/>
<g filter="url(#filter1_d_751_5509)">
<path d="M163 92.5L121 57" stroke="#EA3325" stroke-width="1.13882"/>
</g>
<path d="M121 57L163 92.5V57H121Z" fill="#D72F22" fill-opacity="0.24"/>
<g filter="url(#filter2_d_751_5509)">
<path d="M34 57L61.2494 36.3171C63.23 34.8138 65.6481 34 68.1346 34H91.6824C94.55 34 97.312 35.0818 99.4168 37.0293L121 57" stroke="#4DA752" stroke-width="1.13882"/>
</g>
<path d="M61.2494 36.3171L34 57H121L99.4168 37.0293C97.312 35.0818 94.55 34 91.6824 34H68.1346C65.6481 34 63.23 34.8138 61.2494 36.3171Z" fill="#12AD50" fill-opacity="0.2"/>
<rect x="1.25834" y="1.02445" width="161.144" height="112.174" rx="8.82588" stroke="#7E7E7E" stroke-width="0.569412"/>
</g>
<defs>
<filter id="filter0_d_751_5509" x="-1.48477" y="55.4088" width="36.9695" height="29.1824" filterUnits="userSpaceOnUse" color-interpolation-filters="sRGB">
<feFlood flood-opacity="0" result="BackgroundImageFix"/>
<feColorMatrix in="SourceAlpha" type="matrix" values="0 0 0 0 0 0 0 0 0 0 0 0 0 0 0 0 0 0 127 0" result="hardAlpha"/>
<feOffset/>
<feGaussianBlur stdDeviation="0.569412"/>
<feComposite in2="hardAlpha" operator="out"/>
<feColorMatrix type="matrix" values="0 0 0 0 0.843137 0 0 0 0 0.184314 0 0 0 0 0.133333 0 0 0 0.6 0"/>
<feBlend mode="normal" in2="BackgroundImageFix" result="effect1_dropShadow_751_5509"/>
<feBlend mode="normal" in="SourceGraphic" in2="effect1_dropShadow_751_5509" result="shape"/>
</filter>
<filter id="filter1_d_751_5509" x="119.494" y="55.4264" width="45.013" height="38.6473" filterUnits="userSpaceOnUse" color-interpolation-filters="sRGB">
<feFlood flood-opacity="0" result="BackgroundImageFix"/>
<feColorMatrix in="SourceAlpha" type="matrix" values="0 0 0 0 0 0 0 0 0 0 0 0 0 0 0 0 0 0 127 0" result="hardAlpha"/>
<feOffset/>
<feGaussianBlur stdDeviation="0.569412"/>
<feComposite in2="hardAlpha" operator="out"/>
<feColorMatrix type="matrix" values="0 0 0 0 0.843137 0 0 0 0 0.184314 0 0 0 0 0.133333 0 0 0 0.6 0"/>
<feBlend mode="normal" in2="BackgroundImageFix" result="effect1_dropShadow_751_5509"/>
<feBlend mode="normal" in="SourceGraphic" in2="effect1_dropShadow_751_5509" result="shape"/>
</filter>
<filter id="filter2_d_751_5509" x="32.5169" y="32.2918" width="90.0086" height="26.3006" filterUnits="userSpaceOnUse" color-interpolation-filters="sRGB">
<feFlood flood-opacity="0" result="BackgroundImageFix"/>
<feColorMatrix in="SourceAlpha" type="matrix" values="0 0 0 0 0 0 0 0 0 0 0 0 0 0 0 0 0 0 127 0" result="hardAlpha"/>
<feOffset/>
<feGaussianBlur stdDeviation="0.569412"/>
<feComposite in2="hardAlpha" operator="out"/>
<feColorMatrix type="matrix" values="0 0 0 0 0.168627 0 0 0 0 0.831373 0 0 0 0 0 0 0 0 0.6 0"/>
<feBlend mode="normal" in2="BackgroundImageFix" result="effect1_dropShadow_751_5509"/>
<feBlend mode="normal" in="SourceGraphic" in2="effect1_dropShadow_751_5509" result="shape"/>
</filter>
</defs>
</svg>
