<svg width="163" height="114" viewBox="0 0 163 114" fill="none" xmlns="http://www.w3.org/2000/svg">
<mask id="mask0_751_5437" style="mask-type:alpha" maskUnits="userSpaceOnUse" x="0" y="0" width="163" height="114">
<rect x="1.00419" y="1.0247" width="161.144" height="112.174" fill="#F3F3F3" stroke="black" stroke-width="0.569412"/>
</mask>
<g mask="url(#mask0_751_5437)">
<path opacity="0.15" d="M101.952 0.739746V112.914" stroke="black" stroke-width="0.569412"/>
<path opacity="0.15" d="M122.043 0.739746V112.914" stroke="black" stroke-width="0.569412"/>
<path opacity="0.15" d="M142.135 0.739746V112.914" stroke="black" stroke-width="0.569412"/>
<path opacity="0.15" d="M21.5851 0.739746V112.914" stroke="black" stroke-width="0.569412"/>
<path opacity="0.15" d="M41.6769 0.739746V112.914" stroke="black" stroke-width="0.569412"/>
<path opacity="0.15" d="M61.7687 0.739746V112.914" stroke="black" stroke-width="0.569412"/>
<path d="M81.8605 0.739746V112.914" stroke="#4E14D0" stroke-width="1.13882"/>
<path d="M167.332 57.1116L-3.69141 57.1116" stroke="black" stroke-opacity="0.15" stroke-width="0.569412"/>
<g filter="url(#filter0_d_751_5437)">
<path d="M-27.7035 79.9573H36.362C38.4474 79.9573 40.366 78.8173 41.3631 76.9858L52.2557 56.9778" stroke="#EA3325" stroke-width="1.13882"/>
</g>
<path d="M33.6561 79.9573H-22.8024V56.9778H52.2564L42.658 74.6086C40.8632 77.9053 37.4098 79.9573 33.6561 79.9573Z" fill="#D72F22" fill-opacity="0.24"/>
<g filter="url(#filter1_d_751_5437)">
<path d="M162.432 16.3218H77.7724C75.687 16.3218 73.7685 17.4617 72.7714 19.2933L52.2555 56.9778" stroke="#4DA752" stroke-width="1.13882"/>
</g>
<path d="M161.958 16.2874H77.9839C75.9061 16.2874 73.9933 17.4191 72.993 19.2403L52.41 56.7156H161.958V16.2874Z" fill="#12AD50" fill-opacity="0.2"/>
<rect x="1.00419" y="1.0247" width="161.144" height="112.174" rx="8.82588" stroke="#7E7E7E" stroke-width="0.569412"/>
</g>
<defs>
<filter id="filter0_d_751_5437" x="-28.8423" y="55.5667" width="82.7369" height="26.0987" filterUnits="userSpaceOnUse" color-interpolation-filters="sRGB">
<feFlood flood-opacity="0" result="BackgroundImageFix"/>
<feColorMatrix in="SourceAlpha" type="matrix" values="0 0 0 0 0 0 0 0 0 0 0 0 0 0 0 0 0 0 127 0" result="hardAlpha"/>
<feOffset/>
<feGaussianBlur stdDeviation="0.569412"/>
<feComposite in2="hardAlpha" operator="out"/>
<feColorMatrix type="matrix" values="0 0 0 0 0.843137 0 0 0 0 0.184314 0 0 0 0 0.133333 0 0 0 0.6 0"/>
<feBlend mode="normal" in2="BackgroundImageFix" result="effect1_dropShadow_751_5437"/>
<feBlend mode="normal" in="SourceGraphic" in2="effect1_dropShadow_751_5437" result="shape"/>
</filter>
<filter id="filter1_d_751_5437" x="50.6165" y="14.6136" width="112.954" height="43.7752" filterUnits="userSpaceOnUse" color-interpolation-filters="sRGB">
<feFlood flood-opacity="0" result="BackgroundImageFix"/>
<feColorMatrix in="SourceAlpha" type="matrix" values="0 0 0 0 0 0 0 0 0 0 0 0 0 0 0 0 0 0 127 0" result="hardAlpha"/>
<feOffset/>
<feGaussianBlur stdDeviation="0.569412"/>
<feComposite in2="hardAlpha" operator="out"/>
<feColorMatrix type="matrix" values="0 0 0 0 0.168627 0 0 0 0 0.831373 0 0 0 0 0 0 0 0 0.6 0"/>
<feBlend mode="normal" in2="BackgroundImageFix" result="effect1_dropShadow_751_5437"/>
<feBlend mode="normal" in="SourceGraphic" in2="effect1_dropShadow_751_5437" result="shape"/>
</filter>
</defs>
</svg>
