<svg width="38" height="24" viewBox="0 0 38 24" fill="none" xmlns="http://www.w3.org/2000/svg">
<path d="M36.8173 13.8173C37.403 13.2315 37.403 12.2818 36.8173 11.696L27.2713 2.15005C26.6855 1.56426 25.7358 1.56426 25.15 2.15005C24.5642 2.73583 24.5642 3.68558 25.15 4.27137L33.6353 12.7566L25.15 21.2419C24.5642 21.8277 24.5642 22.7775 25.15 23.3633C25.7358 23.949 26.6855 23.949 27.2713 23.3633L36.8173 13.8173ZM12.7566 12.7566L11.6959 13.8173L12.1353 14.2566L12.7566 14.2566L12.7566 12.7566ZM0.939337 3.06066L11.6959 13.8173L13.8173 11.696L3.06066 0.939343L0.939337 3.06066ZM12.7566 14.2566L35.7566 14.2566L35.7566 11.2566L12.7566 11.2566L12.7566 14.2566Z" fill="#4E14D0"/>
</svg>
