<svg width="144" height="178" viewBox="0 0 144 178" fill="none" xmlns="http://www.w3.org/2000/svg">
<path d="M2 36.2887H0.5V36.911L0.940435 37.3505L2 36.2887ZM142.002 177.5C142.83 177.499 143.501 176.827 143.5 175.998L143.486 162.498C143.485 161.67 142.813 160.999 141.985 161C141.156 161.001 140.485 161.673 140.486 162.502L140.498 174.502L128.498 174.514C127.67 174.515 126.999 175.187 127 176.015C127.001 176.844 127.673 177.515 128.502 177.514L142.002 177.5ZM0.5 0V36.2887H3.5V0H0.5ZM0.940435 37.3505L140.94 177.062L143.06 174.938L3.05956 35.227L0.940435 37.3505Z" fill="#F3F3F3"/>
</svg>
