<svg width="622" height="399" viewBox="0 0 622 399" fill="none" xmlns="http://www.w3.org/2000/svg">
<rect x="1.5" y="1" width="619" height="397" rx="13" fill="#F3F3F3" stroke="#4E14D0" stroke-width="2"/>
<path d="M237.086 151.586C236.305 152.367 236.305 153.633 237.086 154.414L249.814 167.142C250.595 167.923 251.861 167.923 252.642 167.142C253.423 166.361 253.423 165.095 252.642 164.314L241.328 153L252.642 141.686C253.423 140.905 253.423 139.639 252.642 138.858C251.861 138.077 250.595 138.077 249.814 138.858L237.086 151.586ZM324.914 154.414C325.695 153.633 325.695 152.367 324.914 151.586L312.186 138.858C311.405 138.077 310.139 138.077 309.358 138.858C308.577 139.639 308.577 140.905 309.358 141.686L320.672 153L309.358 164.314C308.577 165.095 308.577 166.361 309.358 167.142C310.139 167.923 311.405 167.923 312.186 167.142L324.914 154.414ZM238.5 155H323.5V151H238.5V155Z" fill="#8D8E94"/>
<path d="M312.5 2L312.5 397" stroke="#8D8E94"/>
<path d="M619.5 230L5.49998 230" stroke="#8D8E94"/>
<path d="M412.5 2L412.5 397" stroke="#8D8E94"/>
<path d="M512.5 2L512.5 397" stroke="#8D8E94"/>
<path d="M212.5 2L212.5 397" stroke="#8D8E94"/>
<path d="M112.5 2L112.5 397" stroke="#8D8E94"/>
<path d="M620 190H285.5L145.5 330H4.5" stroke="#28CB95" stroke-width="4"/>
</svg>
