<svg width="151" height="70" viewBox="0 0 151 70" fill="none" xmlns="http://www.w3.org/2000/svg">
<rect width="150.206" height="70" rx="7.77778" fill="white"/>
<mask id="mask0_83_2121" style="mask-type:luminance" maskUnits="userSpaceOnUse" x="59" y="8" width="32" height="32">
<path d="M90.4506 8.28613H59.5869V39.1498H90.4506V8.28613Z" fill="white"/>
</mask>
<g mask="url(#mask0_83_2121)">
<path fill-rule="evenodd" clip-rule="evenodd" d="M81.1871 23.7073C82.9325 24.7894 84.8734 25.5991 86.9721 26.09C86.973 26.0893 86.9739 26.0886 86.9747 26.0879C86.9749 26.088 86.9751 26.088 86.9751 26.088C84.3063 28.1398 82.6453 29.641 80.9414 31.453C79.1693 33.3376 77.2847 35.5565 75.0171 39.1311C74.9324 39.0078 74.8011 38.8073 74.6377 38.5577C74.1329 37.7869 73.3215 36.5477 72.6279 35.6659C73.8195 30.5717 76.9015 26.4035 81.1871 23.7073Z" fill="#2E52D0"/>
<path fill-rule="evenodd" clip-rule="evenodd" d="M75.0078 17.5307C76.0929 15.7854 76.8996 13.851 77.3905 11.7523C77.3899 11.7514 77.3892 11.7505 77.3884 11.7496C77.3885 11.7494 77.3886 11.7493 77.3886 11.7493C79.4403 14.4181 80.9415 16.0791 82.7536 17.783C84.6381 19.5551 86.857 21.4396 90.4317 23.7072C90.3082 23.792 90.1078 23.9232 89.8583 24.0867C89.0875 24.5914 87.8483 25.4029 86.9665 26.0964C81.8722 24.9049 77.704 21.8163 75.0078 17.5307Z" fill="#9D63D3"/>
<path fill-rule="evenodd" clip-rule="evenodd" d="M68.8309 23.71C67.0856 22.6278 65.1447 21.8181 63.046 21.3273C63.0451 21.328 63.0442 21.3287 63.0433 21.3293C63.0431 21.3293 63.043 21.3293 63.043 21.3293C65.7118 19.2775 67.3728 17.7763 69.0767 15.9643C70.8488 14.0797 72.7333 11.8607 75.0009 8.28613C75.0857 8.40952 75.217 8.60997 75.3804 8.85949C75.8852 9.63038 76.6966 10.8695 77.3901 11.7513C76.1986 16.8456 73.1166 21.0138 68.8309 23.71Z" fill="#82E0FF"/>
<path fill-rule="evenodd" clip-rule="evenodd" d="M75.0167 29.8809C73.9346 31.6263 73.1189 33.5672 72.628 35.6659C72.6287 35.6667 72.6294 35.6676 72.6302 35.6685C72.6301 35.6688 72.63 35.6689 72.63 35.6689C70.5783 33.0001 69.0771 31.339 67.265 29.6352C65.3805 27.863 63.1615 25.9785 59.5869 23.7109C59.7103 23.6261 59.9107 23.4949 60.1603 23.3315C60.9311 22.8267 62.1703 22.0153 63.0521 21.3218C68.1464 22.5132 72.3206 25.5952 75.0167 29.8809Z" fill="#51AB96"/>
</g>
<mask id="mask1_83_2121" style="mask-type:luminance" maskUnits="userSpaceOnUse" x="53" y="48" width="44" height="11">
<path d="M96.6758 48.5317H53.3613V58.1767H96.6758V48.5317Z" fill="white"/>
</mask>
<g mask="url(#mask1_83_2121)">
<path d="M58.8284 50.8447L55.8375 58.1816H53.3613L57.3956 48.5459H60.2613L64.3095 58.1816H61.7916L58.8284 50.8447ZM61.2629 56.5986H56.3662L56.8809 54.7816H60.7204L61.2629 56.5986Z" fill="#161239"/>
<path d="M65.5566 58.1811V48.5454H70.6204C71.3344 48.5454 71.9466 48.6418 72.4566 48.8345C72.976 49.0272 73.3701 49.3071 73.6391 49.6742C73.9173 50.0321 74.0564 50.468 74.0564 50.9819C74.0564 51.3581 73.9776 51.7068 73.82 52.028C73.6715 52.3492 73.4536 52.62 73.1661 52.8402C72.8786 53.0604 72.5447 53.2164 72.1645 53.3082L72.0949 53.0879C72.8184 53.1981 73.3933 53.478 73.82 53.9277C74.2466 54.3681 74.4599 54.9142 74.4599 55.5657C74.4599 56.1072 74.3115 56.5752 74.0147 56.9698C73.7179 57.3552 73.2867 57.6534 72.721 57.8645C72.1645 58.0756 71.506 58.1811 70.7455 58.1811H65.5566ZM67.7546 54.1754V52.4685H70.1613C70.5137 52.4685 70.8012 52.4318 71.0238 52.3584C71.2556 52.2758 71.4272 52.1611 71.5385 52.0143C71.6498 51.8582 71.7054 51.6656 71.7054 51.4361C71.7054 51.0783 71.5802 50.8213 71.3298 50.6653C71.0794 50.5001 70.6899 50.4175 70.1613 50.4175H67.9076V56.309H70.4256C70.8058 56.309 71.1165 56.2723 71.3577 56.1989C71.5988 56.1164 71.7796 55.997 71.9002 55.841C72.0208 55.685 72.081 55.4877 72.081 55.2491C72.081 54.882 71.9419 54.6114 71.6637 54.437C71.3855 54.2626 70.9589 54.1754 70.3839 54.1754H67.7546Z" fill="#161239"/>
<path d="M76.1279 58.1811V48.5454H80.4543C81.5394 48.5454 82.49 48.7427 83.3061 49.1373C84.1316 49.5319 84.7622 50.0917 85.1981 50.8167C85.6432 51.5417 85.8658 52.386 85.8658 53.3495C85.8658 54.3222 85.6432 55.1757 85.1981 55.9098C84.7622 56.6348 84.1316 57.1946 83.3061 57.5892C82.49 57.9838 81.5394 58.1811 80.4543 58.1811H76.1279ZM80.343 56.1576C80.9737 56.1576 81.5162 56.0475 81.9707 55.8272C82.4251 55.5978 82.7729 55.2766 83.014 54.8637C83.2644 54.4416 83.3896 53.9414 83.3896 53.3632C83.3896 52.7759 83.2644 52.2758 83.014 51.8629C82.7729 51.4407 82.4205 51.1195 81.9568 50.8993C81.5023 50.6791 80.9645 50.5689 80.343 50.5689H78.5206V56.1576H80.343Z" fill="#161239"/>
<path d="M93.7612 58.1767L89.7363 53.5285V53.088L93.6454 48.5317H96.5668L92.4351 53.2807L96.6759 58.1767H93.7612ZM87.5939 58.1812L87.5801 48.5455H89.9867V58.1812H87.5939Z" fill="#161239"/>
</g>
</svg>
