<svg width="151" height="70" viewBox="0 0 151 70" fill="none" xmlns="http://www.w3.org/2000/svg">
<rect width="150.206" height="70" rx="7.77778" fill="white"/>
<g clip-path="url(#clip0_83_2141)">
<path d="M6.07024 45.9945C5.95637 45.9338 6.02144 45.8291 6.02144 45.7464C6.02144 40.6461 6.02144 35.5514 6.02144 30.4511V29.7343C6.03771 29.7343 6.05397 29.7343 6.07024 29.7233C6.13531 29.7233 6.19495 29.7343 6.26002 29.7343C11.5089 29.7343 16.7578 29.7343 22.0067 29.7343C22.191 29.7343 22.2778 29.6627 22.3645 29.5138C22.9881 28.4496 23.6171 27.391 24.2407 26.3268C24.6853 25.5714 25.1191 24.8105 25.5583 24.0551C25.5692 24.0386 25.58 24.0165 25.5963 24C64.9846 24 104.373 24 143.761 24C143.962 24 144.011 24.0441 144.011 24.2536C144.005 31.416 144.005 38.584 144.011 45.7464C144.011 45.9504 143.967 46 143.761 46C104.373 46 64.9846 46 25.5963 46C25.5963 44.1749 25.5963 42.3444 25.6017 40.5193C25.6017 40.3318 25.5583 40.2657 25.3631 40.2657C23.3568 40.2712 21.356 40.2381 19.3497 40.2822C17.7338 40.3208 16.4108 41.0321 15.5215 42.416C14.7732 43.5794 14.1008 44.798 13.3959 45.9945H12.691C12.691 45.8566 12.7832 45.7574 12.8482 45.6526C15.8143 40.6461 18.7858 35.6396 21.7572 30.6331C21.8657 30.4511 21.8657 30.396 21.6325 30.396C20.4504 30.407 19.2629 30.396 18.0808 30.407C17.8368 30.407 17.5928 30.4401 17.3542 30.4842C15.7113 30.7985 14.5075 31.7248 13.6508 33.1805C11.7692 36.3784 9.87134 39.5654 7.97892 42.7579C7.33908 43.8331 6.71008 44.9138 6.07566 45.9945H6.07024ZM39.6132 29.0947C37.6503 29.0947 36.0778 29.7674 35.0584 30.9033C33.9576 32.1328 33.4967 33.5885 33.616 35.2316C33.7407 36.8967 34.4294 38.2862 35.7687 39.2842C37.2978 40.4256 39.0167 40.6957 40.8386 40.2326C44.4662 39.3063 45.8977 35.419 44.4988 32.3699C43.4794 30.1534 41.6412 29.194 39.6132 29.1003V29.0947ZM96.6947 37.9113C96.6947 39.7915 96.6947 41.6772 96.6947 43.5574C96.6947 43.7669 96.7327 43.8496 96.9604 43.8386C97.4213 43.8165 97.8823 43.8386 98.3432 43.8331C98.777 43.8331 98.7173 43.8882 98.7173 43.4526C98.7173 42.1293 98.7173 40.8115 98.7173 39.4882C98.7173 39.389 98.6577 39.2346 98.7661 39.1905C98.8691 39.1519 98.9017 39.3118 98.9613 39.3835C99.265 39.7639 99.6391 40.0341 100.089 40.216C101.461 40.7619 103.158 40.3208 104.085 39.1353C105.116 37.8231 105.278 36.3068 104.899 34.7298C104.563 33.3293 103.717 32.3368 102.312 31.9674C100.984 31.6145 99.7638 31.802 98.8474 32.982C98.8095 33.0261 98.777 33.0702 98.7173 33.0426C98.6631 33.0206 98.6793 32.9654 98.6793 32.9213C98.6793 32.7173 98.6631 32.5133 98.6793 32.3148C98.701 32.0832 98.6414 31.995 98.392 32.006C97.9311 32.0281 97.4702 32.0281 97.0093 32.006C96.7707 31.995 96.6893 32.0501 96.6893 32.3148C96.7002 34.1784 96.6947 36.0421 96.6947 37.9058V37.9113ZM47.2154 37.9058C47.2154 39.797 47.2154 41.6882 47.2154 43.5794C47.2154 43.789 47.2642 43.8441 47.4702 43.8386C47.9691 43.8221 48.4625 43.8221 48.9614 43.8386C49.1946 43.8496 49.2379 43.7669 49.2379 43.5464C49.2271 42.1679 49.2325 40.795 49.2379 39.4165C49.2379 39.3393 49.1946 39.2291 49.2759 39.1905C49.3735 39.1464 49.4006 39.2677 49.4494 39.3283C49.7585 39.7419 50.1543 40.0341 50.6261 40.2216C52.1172 40.8115 53.9608 40.2326 54.8284 38.8431C55.7882 37.3048 55.8587 35.6506 55.17 34.002C54.0639 31.3664 50.5068 31.201 49.3843 32.9764C49.3572 33.0206 49.3247 33.0812 49.2596 33.0481C49.1946 33.0206 49.2163 32.9544 49.2163 32.9048C49.2163 32.6952 49.2054 32.4802 49.2163 32.2707C49.2271 32.0832 49.1729 32.0115 48.9777 32.017C48.4788 32.0281 47.9854 32.0336 47.4865 32.017C47.2642 32.0115 47.2208 32.0832 47.2208 32.2927C47.2262 34.1674 47.2208 36.0366 47.2208 37.9113L47.2154 37.9058ZM107.23 37.9058C107.23 39.797 107.23 41.6882 107.23 43.5794C107.23 43.7835 107.274 43.8441 107.485 43.8386C107.979 43.8221 108.478 43.8221 108.976 43.8386C109.21 43.8496 109.253 43.7669 109.253 43.5464C109.242 42.1679 109.248 40.795 109.253 39.4165C109.253 39.3393 109.21 39.2236 109.291 39.1905C109.405 39.1464 109.427 39.2787 109.475 39.3449C109.779 39.7363 110.159 40.0231 110.614 40.205C112.105 40.8115 113.976 40.2326 114.844 38.8376C115.809 37.2772 115.879 35.612 115.163 33.9469C114.068 31.3995 110.56 31.1845 109.399 32.9654C109.372 33.0095 109.34 33.0702 109.275 33.0426C109.21 33.015 109.226 32.9489 109.226 32.8992C109.226 32.6952 109.21 32.4912 109.226 32.2927C109.248 32.0556 109.155 32.0005 108.939 32.0115C108.461 32.0281 107.979 32.0281 107.502 32.0115C107.285 32.006 107.236 32.0777 107.236 32.2872C107.241 34.1619 107.236 36.0311 107.236 37.9058H107.23ZM80.9102 40.2381C82.2007 40.2381 83.4912 40.2381 84.7872 40.2381C84.9824 40.2381 85.0583 40.194 85.0474 39.9789C85.0312 39.5875 85.0258 39.1905 85.0474 38.7935C85.0637 38.5178 84.9986 38.4241 84.7004 38.4296C83.014 38.4461 81.3223 38.4406 79.6305 38.4351C79.5437 38.4351 79.4298 38.4847 79.381 38.3965C79.3214 38.2862 79.4515 38.2256 79.5003 38.1429C79.522 38.1098 79.5437 38.0822 79.5654 38.0546C81.3168 35.8271 83.0683 33.594 84.8251 31.3664C84.9119 31.2561 85.0095 31.1514 85.0041 30.9805C84.9932 30.4842 84.9932 29.988 85.0041 29.4917C85.0041 29.3373 84.9661 29.2877 84.8089 29.2932C82.2712 29.2932 79.7335 29.2932 77.1958 29.2932C77.0386 29.2932 76.9952 29.3429 76.9952 29.4972C77.006 29.9383 77.0115 30.3794 76.9952 30.8206C76.9843 31.0521 77.0602 31.1073 77.2826 31.1073C78.9093 31.0962 80.536 31.1018 82.1627 31.1073C82.2495 31.1073 82.3742 31.0632 82.4176 31.1404C82.4772 31.2451 82.3525 31.3168 82.2929 31.3885C80.6661 33.4617 79.0503 35.5459 77.3964 37.597C76.9735 38.1208 76.697 38.6336 76.8054 39.3283C76.8379 39.5268 76.8271 39.7363 76.8054 39.9348C76.7729 40.205 76.8867 40.2436 77.1199 40.2436C78.3833 40.2326 79.6467 40.2436 80.9156 40.2436L80.9102 40.2381ZM94.439 37.6797C93.9564 37.6797 93.5064 37.6962 93.0563 37.6797C92.7527 37.6687 92.552 37.7238 92.3568 38.016C91.9447 38.6226 91.2886 38.788 90.6 38.8211C89.4396 38.8817 88.4636 38.0712 88.3551 36.9629C88.3388 36.781 88.3714 36.7203 88.5612 36.7313C88.9245 36.7479 89.2823 36.7313 89.6456 36.7313C91.1802 36.7313 92.7147 36.7313 94.2547 36.7368C94.4824 36.7368 94.5583 36.6707 94.5366 36.4446C94.5095 36.1799 94.5204 35.9098 94.5041 35.6451C94.3468 33.3679 92.7798 31.8516 90.5403 31.8296C89.0871 31.813 87.8996 32.3699 87.0863 33.6271C86.441 34.6251 86.2892 35.7388 86.4464 36.9023C86.5928 37.9719 87.0646 38.8652 87.8942 39.5544C89.3691 40.784 91.7658 40.6461 93.0997 39.6867C93.7829 39.196 94.2276 38.5398 94.4445 37.6742L94.439 37.6797ZM62.268 36.7313C63.2277 36.7313 64.1821 36.7313 65.1418 36.7313C65.3316 36.7313 65.3967 36.6762 65.3804 36.4832C65.3641 36.2737 65.3804 36.0586 65.3696 35.8491C65.3208 33.5002 63.7103 31.8627 61.4058 31.8241C60.1478 31.802 59.0633 32.2211 58.2337 33.208C57.4095 34.195 57.1492 35.3694 57.2577 36.6266C57.3607 37.8175 57.8324 38.8486 58.7922 39.5764C60.1424 40.602 61.6335 40.6516 63.1626 40.0947C64.1983 39.7143 64.8924 38.9589 65.234 37.8892C65.2828 37.7348 65.2774 37.6632 65.0822 37.6687C64.5833 37.6797 64.0899 37.6742 63.591 37.6687C63.4826 37.6687 63.4121 37.6852 63.3524 37.7955C63.0976 38.2807 62.6801 38.5564 62.1758 38.6942C60.8202 39.0637 59.4537 38.5068 59.2043 36.985C59.1663 36.7479 59.2314 36.7148 59.4429 36.7148C60.381 36.7258 61.3245 36.7148 62.2625 36.7148L62.268 36.7313ZM122.283 36.7313C123.243 36.7313 124.197 36.7313 125.157 36.7313C125.347 36.7313 125.412 36.6762 125.396 36.4832C125.379 36.2627 125.396 36.0421 125.385 35.8216C125.32 33.4837 123.715 31.8516 121.421 31.8241C119.772 31.8075 118.493 32.4912 117.734 34.013C117.143 35.204 117.088 36.4612 117.511 37.7293C117.891 38.8596 118.628 39.6757 119.718 40.1168C120.993 40.6241 122.267 40.5524 123.498 39.9569C124.371 39.5378 124.951 38.8321 125.249 37.8947C125.298 37.7348 125.292 37.6687 125.097 37.6742C124.598 37.6852 124.105 37.6797 123.606 37.6742C123.498 37.6742 123.427 37.6907 123.368 37.801C123.113 38.2862 122.695 38.5619 122.191 38.6997C120.835 39.0692 119.48 38.5123 119.225 37.018C119.187 36.7975 119.209 36.7148 119.458 36.7203C120.396 36.7368 121.34 36.7258 122.278 36.7258L122.283 36.7313ZM136.685 36.1193C136.685 37.393 136.69 38.6722 136.68 39.9459C136.68 40.1995 136.755 40.2491 136.983 40.2436C137.455 40.2271 137.921 40.2271 138.393 40.2436C138.632 40.2546 138.718 40.1995 138.713 39.9348C138.697 38.8266 138.702 37.7128 138.707 36.599C138.707 36.1469 138.686 35.6947 138.735 35.2481C138.8 34.5865 139.141 34.0847 139.759 33.8476C140.356 33.616 140.936 33.6767 141.43 34.1233C141.804 34.4652 141.934 34.9118 141.934 35.408C141.934 36.9298 141.934 38.4571 141.934 39.9789C141.934 40.1609 141.966 40.2381 142.167 40.2326C142.693 40.2216 143.214 40.2271 143.739 40.2326C143.875 40.2326 143.951 40.2216 143.951 40.0451C143.94 38.209 143.951 36.3729 143.929 34.5368C143.924 33.9083 143.685 33.3404 143.3 32.8386C142.232 31.4491 139.7 31.4822 138.794 32.8937C138.762 32.9434 138.735 33.0261 138.659 32.993C138.583 32.9599 138.621 32.8827 138.615 32.8221C138.615 32.618 138.604 32.4195 138.615 32.2155C138.626 32.0612 138.572 32.006 138.415 32.0115C137.927 32.0226 137.439 32.0226 136.951 32.0115C136.739 32.006 136.674 32.0667 136.68 32.2872C136.69 33.5609 136.68 34.8401 136.68 36.1138L136.685 36.1193ZM67.5385 36.1193C67.5385 37.3875 67.5494 38.6556 67.5331 39.9183C67.5331 40.194 67.609 40.2546 67.8639 40.2436C68.341 40.2216 68.8236 40.2271 69.3008 40.2436C69.5014 40.2491 69.5611 40.1995 69.5557 39.99C69.5448 38.5564 69.5502 37.1228 69.5557 35.6947C69.5557 35.5018 69.5665 35.3088 69.6045 35.1213C69.7346 34.4982 70.0762 34.0296 70.6889 33.8256C71.2691 33.6326 71.8168 33.7043 72.2831 34.1343C72.6627 34.4817 72.7928 34.9449 72.7928 35.4466C72.7928 36.9519 72.7982 38.4571 72.7874 39.9624C72.7874 40.1995 72.8525 40.2491 73.0748 40.2436C73.5791 40.2271 74.0888 40.2326 74.5931 40.2436C74.7503 40.2436 74.81 40.2105 74.81 40.0341C74.8045 38.2697 74.81 36.5108 74.7991 34.7464C74.7991 34.2556 74.6798 33.787 74.4629 33.3404C73.5086 31.3719 70.5913 31.4216 69.6533 32.8992C69.6207 32.9489 69.599 33.0316 69.5177 32.9985C69.4364 32.9709 69.4689 32.8882 69.4689 32.8331C69.4689 32.6401 69.4581 32.4471 69.4689 32.2541C69.4797 32.0777 69.4255 32.017 69.2412 32.017C68.7531 32.0281 68.2651 32.0281 67.7771 32.017C67.5873 32.017 67.5385 32.0722 67.5385 32.2652C67.5439 33.5499 67.5385 34.8346 67.5385 36.1193ZM127.304 33.4947C127.304 34.1674 127.299 34.8346 127.304 35.5073C127.315 36.4501 127.261 37.3985 127.337 38.3414C127.407 39.2236 127.922 39.8742 128.719 40.1223C129.197 40.2712 129.685 40.2271 130.173 40.2381C130.314 40.2381 130.297 40.1388 130.297 40.0506C130.297 39.6206 130.281 39.185 130.303 38.7549C130.314 38.5178 130.254 38.4406 130.01 38.4461C129.554 38.4627 129.354 38.2476 129.327 37.7845C129.321 37.6742 129.327 37.5639 129.327 37.4536C129.327 34.5699 129.327 31.6862 129.327 28.8025C129.327 28.5709 129.262 28.5103 129.039 28.5158C128.54 28.5323 128.047 28.5323 127.548 28.5158C127.342 28.5103 127.293 28.5709 127.293 28.7749C127.304 30.3464 127.293 31.9178 127.293 33.4837L127.304 33.4947ZM134.234 36.1358C134.234 34.8511 134.234 33.5664 134.234 32.2762C134.234 32.0722 134.191 32.006 133.979 32.0115C133.475 32.0281 132.965 32.0226 132.461 32.0115C132.282 32.0115 132.211 32.0446 132.211 32.2486C132.217 34.8401 132.217 37.4261 132.211 40.0175C132.211 40.1885 132.255 40.2381 132.423 40.2381C132.949 40.2271 133.469 40.2271 133.995 40.2381C134.191 40.2381 134.234 40.1719 134.234 39.99C134.229 38.7053 134.234 37.4206 134.234 36.1303V36.1358ZM133.22 28.582C132.488 28.582 131.995 29.0617 131.995 29.7509C131.995 30.4566 132.504 30.9363 133.242 30.9308C133.974 30.9253 134.462 30.4511 134.473 29.7564C134.478 29.0617 133.968 28.5764 133.225 28.582H133.22Z" fill="#FEFEFE"/>
<path d="M6.07031 45.9945C6.70473 44.9138 7.33373 43.8331 7.97357 42.7579C9.86599 39.5654 11.7638 36.3785 13.6454 33.1805C14.5021 31.7248 15.7059 30.7985 17.3489 30.4842C17.5875 30.4401 17.8315 30.407 18.0755 30.407C19.2576 30.396 20.4451 30.407 21.6272 30.396C21.8603 30.396 21.8603 30.4511 21.7519 30.6331C18.7804 35.6396 15.8144 40.6461 12.8429 45.6526C12.7778 45.7574 12.6856 45.8566 12.6856 45.9945H6.07031Z" fill="#5FBFFE"/>
<path d="M13.3848 45.9946C14.0897 44.7981 14.7621 43.5796 15.5103 42.4162C16.3996 41.0322 17.7227 40.3209 19.3386 40.2823C21.3394 40.2382 23.3457 40.2713 25.352 40.2658C25.5472 40.2658 25.5906 40.332 25.5906 40.5194C25.5852 42.3445 25.5852 44.1751 25.5852 46.0001H13.3848V45.9946Z" fill="#4CDDFD"/>
<path d="M25.5851 24C25.5743 24.0165 25.5634 24.0386 25.5471 24.0551C19.1433 24.0551 12.7394 24.0551 6.33559 24.0496C6.09701 24.0496 6.05363 24.1378 6.05905 24.3529C6.06447 26.1449 6.05905 27.9313 6.05905 29.7233C6.04278 29.7288 6.02652 29.7343 6.01025 29.7343C6.01567 27.8982 6.01567 26.0622 6.01025 24.2261C6.00483 24.0386 6.04278 24 6.23257 24C12.6798 24.0055 19.1325 24 25.5851 24Z" fill="#5FBFFE"/>
<path d="M6.05957 29.7232C6.05957 27.9313 6.06499 26.1448 6.05957 24.3528C6.05957 24.1378 6.10295 24.0496 6.33611 24.0496C12.74 24.0551 19.1438 24.0551 25.5477 24.0551C25.1084 24.8105 24.6692 25.5714 24.23 26.3268C23.6064 27.3909 22.9774 28.4496 22.3539 29.5137C22.2671 29.6626 22.1804 29.7343 21.996 29.7343C16.7471 29.7288 11.4982 29.7343 6.24935 29.7343C6.18429 29.7343 6.12464 29.7232 6.05957 29.7232Z" fill="#5E72F0"/>
<path d="M39.6133 29.0949C41.6413 29.1886 43.4795 30.148 44.4989 32.3645C45.8979 35.4137 44.4664 39.3064 40.8388 40.2272C39.0223 40.6904 37.3034 40.4202 35.7688 39.2788C34.4295 38.2808 33.7409 36.8914 33.6161 35.2262C33.4968 33.5886 33.9523 32.1275 35.0585 30.8979C36.0779 29.762 37.6504 29.0894 39.6133 29.0894V29.0949ZM39.3476 31.0798C37.3468 31.0192 35.7905 32.5796 35.7363 34.6914C35.6821 36.737 37.1515 38.3856 39.0873 38.4407C41.2726 38.5069 42.8071 37.0568 42.8722 34.8623C42.9372 32.745 41.4461 31.1405 39.3476 31.0798Z" fill="#37375C"/>
<path d="M96.6949 37.9112C96.6949 36.0476 96.7003 34.1839 96.6895 32.3203C96.6895 32.0556 96.7708 32.0005 97.0094 32.0115C97.4703 32.028 97.9312 32.0335 98.3921 32.0115C98.6469 32.0005 98.7012 32.0887 98.6795 32.3203C98.6632 32.5187 98.6795 32.7228 98.6795 32.9268C98.6795 32.9709 98.6632 33.026 98.7174 33.0481C98.7771 33.0756 98.815 33.037 98.8476 32.9874C99.764 31.8075 100.984 31.62 102.312 31.9729C103.717 32.3423 104.563 33.3348 104.899 34.7353C105.279 36.3122 105.116 37.823 104.086 39.1408C103.158 40.3208 101.461 40.7619 100.089 40.2215C99.6447 40.0451 99.2651 39.7694 98.9614 39.3889C98.9018 39.3172 98.8693 39.1573 98.7662 39.1959C98.6524 39.2401 98.7174 39.3889 98.7174 39.4937C98.7174 40.817 98.7174 42.1348 98.7174 43.4581C98.7174 43.8937 98.7771 43.833 98.3433 43.8385C97.8824 43.8385 97.4215 43.8275 96.9606 43.8441C96.7328 43.8551 96.6949 43.7724 96.6949 43.5629C96.7003 41.6827 96.6949 39.7969 96.6949 37.9167V37.9112ZM103.017 36.1358C103.017 35.8822 103.001 35.6451 102.952 35.408C102.746 34.3989 102.003 33.7373 100.995 33.6601C100.013 33.5829 99.1783 34.1398 98.8367 35.1047C98.6361 35.6616 98.6198 36.235 98.7337 36.814C98.9397 37.8616 99.7043 38.5343 100.751 38.5949C101.716 38.6501 102.556 38.0601 102.876 37.0952C102.979 36.7809 103.028 36.4556 103.017 36.1358Z" fill="#37375C"/>
<path d="M47.2154 37.9059C47.2154 36.0312 47.2154 34.1621 47.2154 32.2874C47.2154 32.0778 47.2588 32.0006 47.4811 32.0117C47.9745 32.0282 48.4734 32.0282 48.9722 32.0117C49.1674 32.0117 49.2217 32.0778 49.2108 32.2653C49.1946 32.4748 49.2108 32.6899 49.2108 32.8994C49.2108 32.949 49.1891 33.0152 49.2542 33.0428C49.3247 33.0758 49.3572 33.0152 49.3789 32.9711C50.5014 31.2011 54.0584 31.3666 55.1646 33.9966C55.8587 35.6453 55.7882 37.2994 54.823 38.8377C53.9554 40.2217 52.1118 40.8062 50.6206 40.2162C50.1489 40.0287 49.7531 39.7365 49.444 39.323C49.4006 39.2623 49.3735 39.141 49.2705 39.1851C49.1891 39.2237 49.2325 39.334 49.2325 39.4112C49.2325 40.7896 49.2271 42.1626 49.2325 43.541C49.2325 43.7615 49.1946 43.8443 48.956 43.8332C48.4625 43.8112 47.9637 43.8167 47.4648 43.8332C47.2642 43.8387 47.21 43.7836 47.21 43.5741C47.2208 41.6829 47.21 39.7916 47.21 37.9004L47.2154 37.9059ZM53.5487 36.0478C53.5379 35.9485 53.5271 35.7666 53.4999 35.5846C53.3481 34.4708 52.5456 33.7154 51.4665 33.6603C50.4038 33.6052 49.5416 34.2778 49.2759 35.3585C49.1729 35.7831 49.162 36.2077 49.2217 36.6433C49.4169 38.1265 50.8321 38.9866 52.1931 38.4407C53.0282 38.1044 53.5487 37.2222 53.5542 36.0478H53.5487Z" fill="#37375C"/>
<path d="M107.236 37.9002C107.236 36.0255 107.236 34.1564 107.236 32.2817C107.236 32.0721 107.279 32.0005 107.502 32.006C107.979 32.0225 108.461 32.0225 108.939 32.006C109.155 32.0005 109.253 32.0501 109.226 32.2872C109.204 32.4857 109.22 32.6897 109.226 32.8937C109.226 32.9433 109.21 33.0095 109.275 33.0371C109.345 33.0646 109.372 33.004 109.399 32.9599C110.56 31.1789 114.063 31.3995 115.163 33.9413C115.885 35.6065 115.809 37.2716 114.844 38.832C113.976 40.227 112.105 40.806 110.614 40.1995C110.159 40.012 109.779 39.7308 109.475 39.3393C109.427 39.2731 109.399 39.1353 109.291 39.1849C109.21 39.218 109.253 39.3338 109.253 39.411C109.253 40.7894 109.248 42.1624 109.253 43.5408C109.253 43.7614 109.21 43.8441 108.976 43.833C108.483 43.811 107.984 43.8165 107.485 43.833C107.279 43.8386 107.23 43.7779 107.23 43.5739C107.236 41.6827 107.23 39.7914 107.23 37.9002H107.236ZM113.569 36.1303C113.558 35.8436 113.531 35.5624 113.461 35.2867C113.201 34.2997 112.431 33.6822 111.433 33.6546C110.451 33.627 109.66 34.206 109.351 35.1709C109.193 35.6616 109.172 36.1579 109.242 36.6651C109.399 37.7624 110.169 38.5012 111.254 38.5894C112.273 38.6721 113.157 38.0215 113.455 36.9739C113.531 36.6982 113.558 36.417 113.575 36.1303H113.569Z" fill="#37375C"/>
<path d="M80.916 40.2326C79.6526 40.2326 78.3892 40.2271 77.1203 40.2326C76.8872 40.2326 76.7733 40.194 76.8059 39.9238C76.8275 39.7253 76.8384 39.5158 76.8059 39.3173C76.6974 38.6281 76.9739 38.1153 77.3969 37.586C79.0507 35.5349 80.6666 33.4506 82.2933 31.3775C82.353 31.3058 82.4777 31.2341 82.418 31.1293C82.3747 31.0466 82.2499 31.0963 82.1632 31.0963C80.5365 31.0963 78.9097 31.0907 77.283 31.0963C77.0607 31.0963 76.9848 31.0411 76.9956 30.8095C77.0119 30.3684 77.0065 29.9273 76.9956 29.4862C76.9956 29.3319 77.039 29.2822 77.1963 29.2822C79.7339 29.2822 82.2716 29.2822 84.8093 29.2822C84.9666 29.2822 85.0045 29.3319 85.0045 29.4807C84.9937 29.977 84.9937 30.4732 85.0045 30.9694C85.0045 31.1404 84.9123 31.2396 84.8256 31.3554C83.0741 33.5885 81.3227 35.8161 79.5658 38.0436C79.5442 38.0712 79.517 38.0988 79.5008 38.1319C79.452 38.2146 79.3218 38.2752 79.3815 38.3855C79.4303 38.4737 79.5442 38.4241 79.6309 38.4241C81.3227 38.4241 83.0091 38.4351 84.7009 38.4186C84.9937 38.4186 85.0642 38.5068 85.0479 38.7825C85.0262 39.174 85.0316 39.5709 85.0479 39.9679C85.0587 40.183 84.9828 40.2271 84.7876 40.2271C83.4971 40.2161 82.2066 40.2271 80.9106 40.2271L80.916 40.2326Z" fill="#37375C"/>
<path d="M94.4501 37.6743C94.2278 38.5345 93.7886 39.1961 93.1054 39.6868C91.766 40.6407 89.3748 40.7841 87.8999 39.5545C87.0702 38.8653 86.5985 37.9721 86.4521 36.9024C86.2948 35.739 86.4521 34.6252 87.0919 33.6272C87.8999 32.3701 89.0928 31.8132 90.546 31.8297C92.7854 31.8518 94.3525 33.368 94.5098 35.6452C94.526 35.9099 94.5152 36.1801 94.5423 36.4447C94.564 36.6708 94.4935 36.737 94.2603 36.737C92.7258 36.7259 91.1913 36.7315 89.6513 36.7315C89.288 36.7315 88.9301 36.7425 88.5668 36.7315C88.3825 36.7259 88.3445 36.7866 88.3608 36.963C88.4692 38.0658 89.4453 38.8818 90.6056 38.8212C91.2943 38.7826 91.9504 38.6227 92.3625 38.0162C92.5577 37.7239 92.7583 37.6688 93.062 37.6798C93.512 37.7019 93.9621 37.6798 94.4447 37.6798L94.4501 37.6743ZM90.4755 35.2868C91.1045 35.2868 91.7389 35.2758 92.3679 35.2868C92.5957 35.2868 92.6228 35.2152 92.574 35.0167C92.3517 34.0297 91.5329 33.4122 90.4538 33.4342C89.4507 33.4508 88.5831 34.162 88.3987 35.0994C88.3608 35.2979 88.453 35.2868 88.5777 35.2868C89.2067 35.2868 89.8411 35.2868 90.4701 35.2868H90.4755Z" fill="#37375C"/>
<path d="M62.2792 36.7258C61.3411 36.7258 60.3976 36.7313 59.4595 36.7258C59.2481 36.7258 59.183 36.7589 59.221 36.996C59.4704 38.5178 60.8368 39.0747 62.1924 38.7052C62.6967 38.5674 63.1142 38.2862 63.3691 37.8065C63.4287 37.6962 63.4992 37.6797 63.6077 37.6797C64.1065 37.6797 64.6 37.6907 65.0988 37.6797C65.294 37.6797 65.3049 37.7458 65.2507 37.9002C64.9036 38.9754 64.215 39.7253 63.1793 40.1057C61.6502 40.6681 60.159 40.613 58.8089 39.5874C57.8491 38.8596 57.3773 37.8285 57.2743 36.6376C57.1659 35.3804 57.4261 34.206 58.2503 33.219C59.08 32.232 60.1644 31.813 61.4224 31.8351C63.727 31.8737 65.3374 33.5112 65.3862 35.8601C65.3862 36.0696 65.3754 36.2847 65.3971 36.4942C65.4133 36.6872 65.3483 36.7423 65.1585 36.7423C64.1987 36.7313 63.2444 36.7423 62.2846 36.7423L62.2792 36.7258ZM61.3411 35.2867C61.9484 35.2867 62.5503 35.2867 63.1576 35.2867C63.3817 35.2867 63.4685 35.1764 63.4179 34.9559C63.2281 34.1233 62.5828 33.5829 61.6231 33.4506C60.5711 33.3072 59.5734 33.9634 59.286 34.9834C59.2264 35.1985 59.2372 35.2977 59.4975 35.2867C60.1102 35.2701 60.723 35.2867 61.3411 35.2867Z" fill="#37375C"/>
<path d="M122.293 36.7258C121.355 36.7258 120.412 36.7368 119.474 36.7203C119.224 36.7203 119.203 36.803 119.241 37.018C119.495 38.5122 120.851 39.0691 122.207 38.6997C122.711 38.5619 123.128 38.2807 123.383 37.801C123.443 37.6907 123.513 37.6741 123.622 37.6741C124.121 37.6741 124.614 37.6852 125.113 37.6741C125.308 37.6741 125.314 37.7403 125.265 37.8947C124.967 38.832 124.386 39.5378 123.513 39.9569C122.283 40.5468 121.003 40.624 119.734 40.1168C118.639 39.6812 117.907 38.8596 117.527 37.7293C117.104 36.4666 117.158 35.204 117.749 34.013C118.503 32.4967 119.788 31.8075 121.437 31.824C123.73 31.8516 125.335 33.4837 125.4 35.8215C125.406 36.0421 125.395 36.2626 125.411 36.4832C125.428 36.6762 125.363 36.7313 125.173 36.7313C124.213 36.7203 123.259 36.7313 122.299 36.7313L122.293 36.7258ZM121.377 33.4396C120.39 33.4396 119.566 34.0516 119.306 34.9779C119.219 35.2757 119.23 35.2867 119.528 35.2867C120.748 35.2867 121.968 35.2867 123.183 35.2867C123.396 35.2867 123.479 35.1801 123.432 34.9669C123.232 34.0516 122.407 33.4396 121.377 33.434V33.4396Z" fill="#37375C"/>
<path d="M136.696 36.1139C136.696 34.8402 136.696 33.561 136.696 32.2874C136.696 32.0668 136.755 32.0062 136.967 32.0117C137.455 32.0282 137.943 32.0227 138.431 32.0117C138.588 32.0117 138.637 32.0613 138.631 32.2157C138.621 32.4197 138.631 32.6182 138.631 32.8222C138.631 32.8829 138.599 32.9656 138.675 32.9931C138.751 33.0262 138.778 32.9435 138.81 32.8939C139.716 31.4824 142.243 31.4493 143.316 32.8387C143.701 33.3405 143.94 33.9084 143.945 34.537C143.967 36.3731 143.956 38.2092 143.967 40.0453C143.967 40.2217 143.891 40.2327 143.756 40.2327C143.23 40.2327 142.709 40.2217 142.183 40.2327C141.982 40.2327 141.95 40.161 141.95 39.9791C141.955 38.4573 141.95 36.93 141.95 35.4082C141.95 34.9064 141.82 34.4598 141.446 34.1235C140.952 33.6713 140.372 33.6162 139.775 33.8478C139.157 34.0904 138.816 34.5921 138.751 35.2483C138.707 35.6949 138.724 36.147 138.724 36.5991C138.724 37.7129 138.713 38.8212 138.729 39.935C138.729 40.1996 138.648 40.2548 138.409 40.2438C137.937 40.2272 137.471 40.2272 136.999 40.2438C136.771 40.2548 136.69 40.1996 136.696 39.946C136.712 38.6723 136.701 37.3931 136.701 36.1194L136.696 36.1139Z" fill="#38385D"/>
<path d="M67.5496 36.1139C67.5496 34.8291 67.5496 33.5444 67.5496 32.2597C67.5496 32.0667 67.5984 32.0061 67.7882 32.0116C68.2762 32.0226 68.7642 32.0226 69.2522 32.0116C69.4366 32.0116 69.4908 32.0667 69.48 32.2487C69.4691 32.4417 69.48 32.6347 69.48 32.8276C69.48 32.8883 69.4529 32.9655 69.5288 32.9931C69.6101 33.0206 69.6318 32.9379 69.6643 32.8938C70.6024 31.4161 73.5197 31.372 74.474 33.3349C74.6909 33.776 74.8048 34.2502 74.8102 34.7409C74.8156 36.5053 74.8102 38.2642 74.821 40.0286C74.821 40.2051 74.7614 40.2382 74.6041 40.2382C74.0999 40.2271 73.5902 40.2216 73.0859 40.2382C72.8636 40.2437 72.7985 40.1941 72.7985 39.957C72.8093 38.4517 72.8039 36.9464 72.8039 35.4412C72.8039 34.9339 72.6738 34.4763 72.2942 34.1289C71.8279 33.7043 71.2802 33.6327 70.7 33.8201C70.0873 34.0241 69.7457 34.4873 69.6155 35.1159C69.5776 35.3033 69.5667 35.4963 69.5667 35.6893C69.5667 37.1229 69.5613 38.5565 69.5667 39.9845C69.5667 40.1941 69.5125 40.2437 69.3119 40.2382C68.8347 40.2216 68.3521 40.2161 67.8749 40.2382C67.6255 40.2492 67.5388 40.1941 67.5442 39.9129C67.5604 38.6447 67.5496 37.3765 67.5496 36.1139Z" fill="#37375C"/>
<path d="M127.32 33.4893C127.32 31.9179 127.32 30.3464 127.32 28.7805C127.32 28.5765 127.369 28.5158 127.575 28.5214C128.074 28.5379 128.567 28.5379 129.066 28.5214C129.289 28.5158 129.354 28.571 129.354 28.8081C129.343 31.6918 129.348 34.5755 129.354 37.4592C129.354 37.5695 129.354 37.6798 129.354 37.79C129.381 38.2532 129.581 38.4627 130.037 38.4517C130.281 38.4407 130.341 38.5179 130.33 38.7605C130.308 39.1905 130.324 39.6261 130.324 40.0562C130.324 40.1499 130.335 40.2492 130.2 40.2437C129.712 40.2382 129.224 40.2768 128.746 40.1279C127.949 39.8798 127.434 39.2291 127.364 38.3469C127.288 37.4041 127.342 36.4557 127.331 35.5128C127.326 34.8402 127.331 34.173 127.331 33.5003L127.32 33.4893Z" fill="#38385D"/>
<path d="M134.25 36.1303C134.25 37.415 134.25 38.6997 134.25 39.9899C134.25 40.1774 134.212 40.2436 134.012 40.238C133.486 40.227 132.965 40.227 132.439 40.238C132.271 40.238 132.228 40.1884 132.228 40.0175C132.228 37.426 132.233 34.84 132.228 32.2486C132.228 32.0446 132.298 32.006 132.477 32.0115C132.981 32.0225 133.491 32.028 133.995 32.0115C134.207 32.006 134.25 32.0721 134.25 32.2761C134.239 33.5609 134.25 34.8456 134.25 36.1358V36.1303Z" fill="#37375C"/>
<path d="M133.236 28.571C133.979 28.571 134.494 29.0507 134.483 29.7455C134.477 30.4402 133.984 30.9144 133.252 30.9199C132.515 30.9254 132.005 30.4457 132.005 29.74C132.005 29.0507 132.498 28.5766 133.23 28.571H133.236Z" fill="#37375C"/>
<path d="M39.3471 31.0798C41.4456 31.1405 42.9368 32.745 42.8717 34.8623C42.8012 37.0568 41.2667 38.5069 39.0869 38.4407C37.1511 38.3801 35.6816 36.737 35.7358 34.6914C35.7901 32.5796 37.3517 31.0192 39.3471 31.0798Z" fill="#FEFEFE"/>
<path d="M103.017 36.136C103.028 36.4558 102.98 36.7811 102.877 37.0954C102.557 38.0603 101.716 38.6503 100.751 38.5951C99.7044 38.5345 98.9399 37.8618 98.7338 36.8142C98.6199 36.2352 98.6362 35.6673 98.8368 35.1049C99.1839 34.14 100.013 33.5886 100.995 33.6603C102.004 33.7375 102.746 34.3991 102.952 35.4081C103.001 35.6452 103.023 35.8768 103.017 36.136Z" fill="#FEFEFE"/>
<path d="M53.554 36.0423C53.554 37.2167 53.0335 38.0989 52.193 38.4352C50.832 38.9811 49.4167 38.1209 49.2215 36.6377C49.1673 36.2022 49.1727 35.7776 49.2757 35.353C49.5414 34.2668 50.4036 33.5996 51.4664 33.6548C52.5454 33.7099 53.348 34.4653 53.4998 35.5791C53.5269 35.7611 53.5377 35.943 53.5486 36.0423H53.554Z" fill="#FEFEFE"/>
<path d="M113.569 36.1304C113.558 36.4171 113.531 36.6983 113.45 36.974C113.151 38.0271 112.273 38.6722 111.248 38.5895C110.164 38.5013 109.394 37.7624 109.237 36.6652C109.166 36.1579 109.188 35.6617 109.345 35.171C109.654 34.206 110.451 33.6326 111.427 33.6547C112.425 33.6822 113.195 34.2943 113.455 35.2867C113.526 35.5624 113.553 35.8436 113.564 36.1304H113.569Z" fill="#FEFEFE"/>
<path d="M90.4699 35.2868C89.8409 35.2868 89.2065 35.2868 88.5775 35.2868C88.4473 35.2868 88.3552 35.3033 88.3985 35.0993C88.5829 34.162 89.4505 33.4507 90.4536 33.4342C91.5327 33.4121 92.3569 34.0352 92.5738 35.0166C92.6172 35.2151 92.5901 35.2923 92.3677 35.2868C91.7387 35.2703 91.1043 35.2868 90.4753 35.2868H90.4699Z" fill="#FEFEFE"/>
<path d="M61.3402 35.2867C60.7275 35.2867 60.1094 35.2756 59.4966 35.2867C59.2364 35.2922 59.2201 35.1984 59.2852 34.9834C59.5725 33.9633 60.5703 33.3017 61.6222 33.4506C62.582 33.5829 63.2327 34.1232 63.417 34.9558C63.4676 35.1764 63.3809 35.2867 63.1567 35.2867C62.5494 35.2867 61.9475 35.2867 61.3402 35.2867Z" fill="#FEFEFE"/>
<path d="M121.378 33.4397C122.408 33.4397 123.232 34.0572 123.433 34.9725C123.48 35.1857 123.397 35.2923 123.184 35.2923C121.963 35.2923 120.743 35.2923 119.529 35.2923C119.231 35.2923 119.225 35.2813 119.307 34.9836C119.567 34.0572 120.396 33.4397 121.378 33.4452V33.4397Z" fill="#FEFEFE"/>
</g>
<defs>
<clipPath id="clip0_83_2141">
<rect width="138" height="22" fill="white" transform="translate(6 24)"/>
</clipPath>
</defs>
</svg>
