<svg width="151" height="70" viewBox="0 0 151 70" fill="none" xmlns="http://www.w3.org/2000/svg">
<rect width="150.206" height="70" rx="7.77778" fill="white"/>
<g clip-path="url(#clip0_83_2171)">
<path d="M149 14H1V56H149V14Z" fill="white"/>
<path d="M51.8441 38.0088C50.5594 38.0088 49.2643 38.0088 47.9796 38.0088C47.4783 38.0088 47.3738 37.9061 47.3738 37.4338C47.3738 36.7047 47.635 36.4479 48.3765 36.4479C50.8206 36.4479 53.2646 36.4479 55.7086 36.4479C55.7922 36.4479 55.8862 36.4479 55.9697 36.4479C56.1891 36.3966 56.3249 36.2528 56.3144 36.0269C56.3144 35.801 56.1786 35.6572 55.9489 35.6264C55.8549 35.6162 55.7609 35.6264 55.6669 35.6264C53.6093 35.6264 51.5412 35.6264 49.4837 35.6264C49.0032 35.6264 48.5332 35.5545 48.1259 35.267C47.0918 34.5482 47.0083 33.1208 47.9379 32.2274C48.3452 31.8372 48.8256 31.6523 49.3897 31.6523C52.0112 31.6523 54.6328 31.6523 57.244 31.6523C57.6096 31.6523 57.7244 31.7653 57.7244 32.1247C57.7244 32.2377 57.7244 32.3506 57.7244 32.4533C57.714 32.8538 57.4424 33.1413 57.0351 33.1927C56.9202 33.203 56.8053 33.203 56.7009 33.203C54.2464 33.203 51.7919 33.203 49.3374 33.203C49.0868 33.203 48.9196 33.2954 48.8256 33.511C48.7003 33.8088 48.857 34.0964 49.1912 34.1272C49.2852 34.1374 49.3792 34.1272 49.4732 34.1272C51.5621 34.1272 53.651 34.1272 55.74 34.1272C56.5651 34.1272 57.2231 34.4455 57.6304 35.1849C58.2467 36.3042 57.3798 37.8651 56.0951 37.9677C55.8653 37.9883 55.646 37.9883 55.4162 37.9986C54.2255 37.9986 53.0348 37.9986 51.8441 37.9986V38.0088Z" fill="black"/>
<path d="M100.662 38.0088C99.9621 38.0088 99.2727 38.0088 98.573 38.0088C96.7556 37.9986 95.4396 36.715 95.3978 34.9282C95.356 33.3057 96.3169 32.0426 97.8523 31.714C98.0821 31.6626 98.3223 31.6421 98.5521 31.6421C99.9621 31.6421 101.372 31.6421 102.782 31.6421C104.693 31.6421 106.051 33.1311 105.957 35.0206C105.895 36.2837 105.049 37.6802 103.377 37.9575C102.939 38.0294 102.479 37.9986 102.02 38.0088C101.571 38.0088 101.111 38.0088 100.662 38.0088ZM100.672 33.203C99.9308 33.203 99.1892 33.203 98.4581 33.203C98.3223 33.203 98.1761 33.203 98.0403 33.244C97.2152 33.4494 96.7765 34.1683 96.9018 35.1233C97.0063 35.9037 97.6225 36.4377 98.4372 36.4377C99.9203 36.4377 101.393 36.4377 102.876 36.4377C103.733 36.4377 104.338 35.9037 104.432 35.0616C104.579 33.8396 103.701 33.1414 102.761 33.203C102.072 33.244 101.372 33.203 100.672 33.203Z" fill="black"/>
<path d="M110.929 35.6059C110.929 36.1296 110.919 36.6122 110.929 37.0949C110.95 37.8856 110.344 38.1115 109.686 37.9574C109.571 37.9266 109.436 37.7213 109.425 37.598C109.404 36.6841 109.404 35.7702 109.425 34.8562C109.436 34.4044 109.78 34.1374 110.271 34.1374C112.747 34.1374 115.211 34.1374 117.687 34.1374C117.76 34.1374 117.823 34.1374 117.896 34.1374C118.261 34.1374 118.46 33.9834 118.46 33.7164C118.46 33.4083 118.24 33.2029 117.885 33.2029C115.389 33.2029 112.893 33.2029 110.396 33.2029C110.177 33.2029 109.937 33.1516 109.759 33.0489C109.425 32.8538 109.289 32.1658 109.488 31.8371C109.54 31.755 109.655 31.6934 109.749 31.6523C109.822 31.6215 109.916 31.6318 110.01 31.6318C112.611 31.6318 115.211 31.642 117.812 31.6318C118.951 31.6318 119.682 32.4225 119.901 33.1721C120.225 34.3222 119.442 35.4621 118.219 35.575C117.99 35.5956 117.749 35.6059 117.52 35.6059C115.441 35.6059 113.363 35.6059 111.284 35.6059H110.94H110.929Z" fill="black"/>
<path d="M77.8203 33.5109C77.3712 33.8498 76.9743 34.1578 76.567 34.4659C76.1492 34.7843 75.7314 35.1026 75.3032 35.4209C74.4467 36.0679 73.4023 36.0576 72.5667 35.4209C71.8356 34.8561 71.094 34.3016 70.3629 33.7368C70.2898 33.6752 70.2167 33.6239 70.0809 33.5314V33.8395C70.0809 34.9177 70.0704 35.996 70.0809 37.0742C70.0913 37.8444 69.6004 38.1114 68.8693 37.9984C68.6291 37.9574 68.5664 37.7725 68.5664 37.5569C68.5664 36.6635 68.5664 35.7598 68.5664 34.8664C68.5664 33.9627 68.5664 33.0488 68.5664 32.1451C68.5664 31.796 68.6917 31.683 69.0469 31.6522C69.6735 31.6111 70.2167 31.7446 70.718 32.1451C71.6685 32.8948 72.6607 33.5931 73.632 34.3119C73.9558 34.5583 74.008 34.5583 74.3318 34.3119C75.3867 33.5109 76.4416 32.7099 77.4861 31.9089C77.977 31.529 78.5306 31.642 79.0632 31.6933C79.2617 31.7138 79.3139 31.9295 79.3139 32.1246C79.3139 32.5251 79.3139 32.9256 79.3139 33.3261C79.3139 34.6508 79.3139 35.9755 79.3139 37.3001C79.3139 37.5466 79.387 37.8444 79.0841 37.9574C78.7603 38.0703 78.4157 38.0703 78.1128 37.8547C77.883 37.6904 77.7994 37.4542 77.7994 37.1872C77.7994 36.0679 77.7994 34.9486 77.7994 33.8292V33.5314L77.8203 33.5109Z" fill="black"/>
<path d="M88.2958 33.203C88.2958 34.1477 88.2958 35.0617 88.2958 35.9653C88.2958 36.3658 88.2958 36.7663 88.2958 37.1668C88.2958 37.978 87.596 38.091 87.0425 37.9575C86.8545 37.9164 86.8023 37.7316 86.8023 37.5468C86.8023 36.9101 86.8023 36.2631 86.8023 35.6265C86.8023 34.8357 86.8023 34.0348 86.8023 33.203H86.5098C85.3191 33.203 84.1284 33.203 82.9378 33.203C82.3529 33.203 82.2589 33.1208 82.2693 32.5252C82.2693 32.402 82.2797 32.2685 82.3215 32.1453C82.426 31.8167 82.6975 31.6318 83.0735 31.6318C86.1651 31.6318 89.2567 31.6318 92.3379 31.6318C92.6826 31.6318 92.8079 31.7653 92.8079 32.0939C92.8079 32.1658 92.8079 32.2274 92.8079 32.2993C92.8079 32.9052 92.5155 33.1927 91.8992 33.1927C90.8025 33.1927 89.7059 33.1927 88.6092 33.1927C88.5152 33.1927 88.4212 33.1927 88.2958 33.1927V33.203Z" fill="black"/>
<path d="M132.999 33.1413C132.122 34.3017 131.255 35.4519 130.398 36.602C130.158 36.9203 129.918 37.2284 129.688 37.5467C129.469 37.8445 129.187 38.0088 128.8 38.0088C128.591 38.0088 128.383 38.0294 128.174 38.0088C128.048 37.9883 127.871 37.9267 127.839 37.8342C127.787 37.7316 127.819 37.5364 127.892 37.444C128.497 36.6225 129.114 35.801 129.73 34.9897C130.409 34.0861 131.088 33.1927 131.767 32.289C132.404 31.447 133.584 31.4264 134.232 32.2787C135.516 33.9834 136.801 35.688 138.086 37.3927C138.19 37.5262 138.284 37.6494 138.19 37.8342C138.096 38.0191 137.929 37.9986 137.772 38.0191C136.999 38.1218 136.477 37.824 136.028 37.1873C135.119 35.8934 134.137 34.6509 133.187 33.3878C133.135 33.3159 133.072 33.244 132.999 33.1516V33.1413Z" fill="black"/>
<path d="M61.4743 34.9692C61.4743 34.1272 61.4743 33.2954 61.4743 32.4534C61.4743 31.8167 62.1845 31.3854 62.759 31.6832C62.9574 31.7859 62.9783 31.9707 62.9783 32.1658C62.9783 33.3159 62.9783 34.4558 62.9783 35.6059C62.9783 36.1194 62.9783 36.6328 62.9783 37.1463C62.9783 37.9575 62.3203 38.1013 61.7145 37.9678C61.5056 37.9267 61.4639 37.7316 61.4639 37.5365C61.4639 36.6842 61.4639 35.8216 61.4639 34.9692H61.4743Z" fill="black"/>
<path d="M124.727 34.6919C124.727 35.4929 124.716 36.3041 124.727 37.1051C124.748 37.9061 124.131 38.1115 123.484 37.978C123.296 37.9369 123.233 37.7829 123.223 37.6083C123.223 37.331 123.223 37.064 123.223 36.7868C123.223 35.3697 123.233 33.9525 123.223 32.5252C123.223 31.7036 123.87 31.5393 124.476 31.6728C124.685 31.7139 124.727 31.909 124.727 32.1041C124.727 32.9667 124.727 33.8293 124.727 34.6919Z" fill="black"/>
<path d="M19.6953 44.9097C19.9042 45.115 24.6043 51.6872 24.4998 51.4818C24.3954 51.2764 24.4998 44.9097 24.4998 44.9097H19.6953Z" fill="#36475D"/>
<path d="M17.085 40.0831V42.6298L24.1873 41.5208C24.1873 41.5208 24.1873 38.8508 23.9784 38.8508C23.7695 38.8508 17.085 40.0831 17.085 40.0831Z" fill="#36475D"/>
<path d="M14.0552 33.6137C14.0552 33.6137 13.9508 37.8137 14.0552 37.6596C14.1597 37.5056 23.7687 34.3325 23.7687 34.3325V29.6909L14.0552 33.6137Z" fill="#36475D"/>
<path d="M10.0869 28.0684V31.9706L23.456 24.4743V19.8635L10.0869 28.0684Z" fill="#36475D"/>
<path d="M30.9763 42.8557L24.1873 43.7183L17.085 42.6298L24.1873 41.5208L30.9763 42.8557Z" fill="#3F5A73"/>
<path d="M34.4226 37.4132L23.7691 34.3325L14.0557 37.6597L21.2207 39.1281L23.978 38.8509L24.0303 39.4875L34.4226 37.4132Z" fill="#3F5A73"/>
<path d="M33.2739 33.3057L38.7051 31.6626L23.456 24.4744L10.0869 31.9707L16.009 32.823L23.7693 29.691L33.2739 33.3057Z" fill="#3F5A73"/>
<path d="M46.9037 47.0559C47.1022 47.0559 47.1022 46.7478 46.9037 46.7478C46.7053 46.7478 46.7053 47.0559 46.9037 47.0559Z" fill="#36475D"/>
</g>
<defs>
<clipPath id="clip0_83_2171">
<rect width="148" height="42" fill="white" transform="translate(1 14)"/>
</clipPath>
</defs>
</svg>
