<svg width="16" height="15" viewBox="0 0 16 15" fill="none" xmlns="http://www.w3.org/2000/svg">
<g clip-path="url(#clip0_97_8579)">
<path d="M9.37423 7.51229L15.2149 1.67141C15.595 1.29148 15.595 0.677198 15.2149 0.297273C14.835 -0.0826522 14.2207 -0.0826522 13.8408 0.297273L7.99992 6.13815L2.15921 0.297273C1.77911 -0.0826522 1.165 -0.0826522 0.785077 0.297273C0.404974 0.677198 0.404974 1.29148 0.785077 1.67141L6.62578 7.51229L0.785077 13.3532C0.404974 13.7331 0.404974 14.3474 0.785077 14.7273C0.974417 14.9168 1.22337 15.012 1.47215 15.012C1.72092 15.012 1.9697 14.9168 2.15921 14.7273L7.99992 8.88643L13.8408 14.7273C14.0303 14.9168 14.2791 15.012 14.5279 15.012C14.7766 15.012 15.0254 14.9168 15.2149 14.7273C15.595 14.3474 15.595 13.7331 15.2149 13.3532L9.37423 7.51229Z" fill="currentColor"/>
</g>
<defs>
<clipPath id="clip0_97_8579">
<rect width="15" height="15" fill="white" transform="translate(0.5)"/>
</clipPath>
</defs>
</svg>
