<svg width="20" height="20" viewBox="0 0 20 20" fill="none" xmlns="http://www.w3.org/2000/svg">
<g clip-path="url(#clip0_83_2464)">
<path d="M8.87977 10.537C8.87977 11.3392 8.30505 11.9919 7.58246 11.9919C6.87119 11.9919 6.28516 11.3392 6.28516 10.537C6.28516 9.73517 6.85987 9.08203 7.58246 9.08203C8.31052 9.08203 8.89109 9.74102 8.87977 10.537Z" fill="#F3F3F3"/>
<path d="M13.6766 10.537C13.6766 11.3392 13.1078 11.9919 12.3793 11.9919C11.6681 11.9919 11.082 11.3392 11.082 10.537C11.082 9.73517 11.6567 9.08203 12.3793 9.08203C13.1078 9.08203 13.688 9.74102 13.6766 10.537Z" fill="#F3F3F3"/>
<path d="M17.8389 0H2.16114C0.967616 0 0 0.967616 0 2.16114V17.8389C0 19.0324 0.967616 20 2.16114 20H17.8389C19.0324 20 20 19.0324 20 17.8389V2.16114C20 0.967616 19.0324 0 17.8389 0ZM17.1319 13.6325C17.1311 13.6457 17.1241 13.6574 17.1131 13.6656C15.8787 14.5724 14.6824 15.1229 13.5029 15.4877C13.4842 15.4936 13.4639 15.4865 13.4526 15.4705C13.1799 15.0913 12.9325 14.6914 12.7156 14.2716C12.7031 14.247 12.7144 14.2173 12.7401 14.2076C13.133 14.0593 13.5072 13.8814 13.8666 13.6715C13.895 13.6547 13.897 13.6141 13.8705 13.5946C13.7944 13.538 13.7187 13.4783 13.6465 13.4186C13.6329 13.4077 13.6145 13.4054 13.5993 13.4132C11.2645 14.4916 8.70698 14.4916 6.34491 13.4132C6.3293 13.4062 6.31096 13.4085 6.29809 13.4194C6.22591 13.4787 6.15021 13.538 6.07452 13.5946C6.04838 13.6141 6.05072 13.6547 6.07881 13.6715C6.43855 13.8775 6.81233 14.0593 7.20484 14.208C7.23059 14.2177 7.24268 14.247 7.2302 14.2716C7.01795 14.6922 6.77019 15.0921 6.49278 15.4709C6.48069 15.4865 6.46079 15.4936 6.44206 15.4877C5.26804 15.1229 4.07218 14.5724 2.83769 13.6656C2.82716 13.6574 2.81974 13.6449 2.81857 13.6317C2.5673 10.9384 3.07998 8.21147 4.95123 5.41553C4.95591 5.40812 4.96254 5.40226 4.97074 5.39914C5.89114 4.9762 6.87788 4.66524 7.9087 4.48771C7.92782 4.48498 7.94655 4.49356 7.95591 4.50995C8.0835 4.73586 8.22903 5.02497 8.32774 5.26141C9.41436 5.09559 10.5181 5.09559 11.6278 5.26141C11.7261 5.03004 11.8666 4.73586 11.9938 4.50995C12.0031 4.49278 12.0218 4.4842 12.041 4.48771C13.0722 4.66602 14.0589 4.97698 14.9789 5.39914C14.9871 5.40226 14.9938 5.40812 14.9977 5.41631C16.6278 7.81389 17.4331 10.5185 17.1319 13.6325Z" fill="#F3F3F3"/>
</g>
<defs>
<clipPath id="clip0_83_2464">
<rect width="20" height="20" fill="white"/>
</clipPath>
</defs>
</svg>
