<svg width="16" height="17" viewBox="0 0 16 17" fill="none" xmlns="http://www.w3.org/2000/svg">
<path d="M1.41332 5.31501C1.54105 5.39144 1.66878 5.41692 1.79651 5.41692C2.02643 5.41692 2.25634 5.28953 2.40961 5.08571C2.63953 4.70355 2.92053 4.37234 3.20154 4.04113C3.48254 3.76087 3.45699 3.30227 3.17599 3.0475C2.89499 2.76724 2.43516 2.79272 2.1797 3.07297C1.82206 3.45514 1.48996 3.88826 1.20896 4.34686C0.979044 4.67807 1.08123 5.11119 1.41332 5.31501Z" fill="#4E14D0"/>
<path d="M5.37274 14.4874C4.3509 14.0288 3.43125 13.3409 2.76706 12.4492C2.53714 12.1435 2.07732 12.0671 1.77077 12.3218C1.46422 12.5511 1.38758 13.0097 1.64304 13.3155C2.46051 14.3855 3.55898 15.2518 4.81073 15.8123C4.91291 15.8632 4.98955 15.8632 5.09173 15.8632C5.37274 15.8632 5.6282 15.7104 5.75593 15.4301C5.9092 15.0734 5.73038 14.6403 5.37274 14.4874Z" fill="#4E14D0"/>
<path d="M1.64321 10.1049C1.4133 9.26411 1.38776 8.37239 1.48994 7.53162C1.54103 7.14946 1.28557 6.79277 0.876838 6.74181C0.49365 6.69086 0.136007 6.94563 0.0849154 7.35328C-0.0683599 8.39786 -0.0172679 9.44245 0.263737 10.487C0.340374 10.8182 0.646925 11.0221 0.953475 11.0221C1.00457 11.0221 1.08121 11.0221 1.1323 10.9966C1.51549 10.8692 1.7454 10.487 1.64321 10.1049Z" fill="#4E14D0"/>
<path d="M5.79275 2.02465C5.89929 1.6599 5.68918 1.27806 5.32345 1.1718C4.95772 1.06553 4.57486 1.27508 4.46831 1.63984C4.36176 2.0046 4.57188 2.38644 4.93761 2.4927C5.30334 2.59896 5.6862 2.38941 5.79275 2.02465Z" fill="#4E14D0"/>
<path d="M7.97896 0.5C7.59577 0.5 7.26367 0.805732 7.26367 1.21338C7.26367 1.59554 7.57022 1.92675 7.97896 1.92675C11.6065 1.92675 14.5698 4.88216 14.5698 8.5C14.5698 9.1879 14.4676 9.8758 14.2377 10.5637C14.11 10.9459 14.3143 11.328 14.6975 11.4554C14.7742 11.4809 14.8508 11.4809 14.9274 11.4809C15.234 11.4809 15.515 11.3025 15.5916 10.9968C15.8726 10.1815 16.0004 9.34076 16.0004 8.5C16.0004 4.09236 12.3984 0.5 7.97896 0.5Z" fill="#4E14D0"/>
<path d="M12.8327 12.9333C11.5809 14.2836 9.81826 15.0735 7.97896 15.0735C7.59577 15.0735 7.26367 15.3792 7.26367 15.7868C7.26367 16.169 7.57022 16.5002 7.97896 16.5002C10.2014 16.5002 12.3728 15.5575 13.8801 13.9015C14.1355 13.6212 14.1355 13.1626 13.829 12.9078C13.548 12.6276 13.1137 12.6531 12.8327 12.9333Z" fill="#4E14D0"/>
</svg>
