<svg width="57" height="57" viewBox="0 0 57 57" fill="none" xmlns="http://www.w3.org/2000/svg">
<path fill-rule="evenodd" clip-rule="evenodd" d="M11.0907 0.892822C5.39059 0.892822 0.769775 5.51364 0.769775 11.2137V46.5719C0.769775 52.272 5.39059 56.8928 11.0907 56.8928H46.4489C52.149 56.8928 56.7698 52.272 56.7698 46.5719V11.2137C56.7698 5.51364 52.149 0.892822 46.4489 0.892822H11.0907ZM31.1472 24.332C31.1518 24.332 31.1705 24.332 31.1751 24.3507L32.0748 27.3083C32.0748 27.3176 32.0748 27.3223 32.0701 27.3316C32.0654 27.3363 32.0561 27.3409 32.0468 27.3409H30.2475C30.2382 27.3409 30.2289 27.3409 30.2242 27.3316C30.2196 27.3269 30.2149 27.3176 30.2196 27.3083L31.1192 24.3507C31.1285 24.332 31.1425 24.332 31.1472 24.332ZM37.1276 23.9687H36.0182C35.9437 23.9687 35.8831 24.0292 35.8831 24.1038V26.1578C35.8831 26.2323 35.9437 26.2929 36.0182 26.2929H37.1276C37.4819 26.2929 37.7476 26.1951 37.9201 26.0041C38.0972 25.8085 38.1858 25.5197 38.1858 25.1378C38.1858 24.7652 38.0972 24.4717 37.9294 24.2714C37.7616 24.0712 37.4912 23.9687 37.1276 23.9687ZM25.4417 24.3086C25.4743 24.3086 25.5023 24.3226 25.5163 24.3505L26.6863 26.2555C26.7003 26.2835 26.7003 26.3161 26.6863 26.344L25.5303 28.3608C25.5163 28.3888 25.4883 28.4027 25.4557 28.4027C25.4231 28.4027 25.3951 28.3888 25.3811 28.3608L24.1971 26.3394C24.1785 26.3114 24.1785 26.2788 24.1971 26.2509L25.3671 24.3505C25.3858 24.3226 25.4091 24.3086 25.4417 24.3086ZM20.1045 23.9687H18.9951C18.9205 23.9687 18.8599 24.0292 18.8599 24.1038V26.1578C18.8599 26.2323 18.9205 26.2929 18.9951 26.2929H20.1045C20.4587 26.2929 20.7244 26.1951 20.8969 26.0041C21.074 25.8085 21.1626 25.5197 21.1626 25.1378C21.1626 24.7652 21.074 24.4717 20.9062 24.2714C20.7384 24.0712 20.468 23.9687 20.1045 23.9687ZM43.0568 22.93L43.6442 23.9454C44.3807 25.2169 44.3807 26.7959 43.6442 28.0675L43.0568 29.0828C42.7632 29.5952 42.6047 30.1774 42.6047 30.7689V31.9427C42.6047 33.4099 41.8169 34.7746 40.5444 35.5105L39.5282 36.0973C39.0155 36.3908 38.5913 36.8193 38.293 37.3316L37.7056 38.347C36.9738 39.6186 35.6034 40.4057 34.1351 40.4057H32.9604C32.3684 40.4057 31.7858 40.5594 31.273 40.8575L30.2568 41.4444C29.6229 41.8124 28.9097 41.994 28.1965 41.994C27.4833 41.994 26.7702 41.8124 26.1362 41.4444L25.1201 40.8575C24.6073 40.5641 24.0246 40.4057 23.4327 40.4057H22.258C20.7897 40.4057 19.4239 39.6186 18.6874 38.347L18.1001 37.3316C17.8064 36.8193 17.3776 36.3908 16.8648 36.0973L15.8487 35.5105C14.5761 34.7792 13.7884 33.4099 13.7884 31.9427V30.7689C13.7884 30.1774 13.6346 29.5952 13.3362 29.0828L12.7489 28.0675C12.0124 26.7959 12.0124 25.2169 12.7489 23.9454L13.3362 22.93C13.6299 22.4177 13.7884 21.8354 13.7884 21.2439V20.0702C13.7884 18.603 14.5761 17.2383 15.8487 16.5024L16.8648 15.9155C17.3776 15.6221 17.8018 15.1935 18.1001 14.6812L18.6874 13.6658C19.4193 12.3943 20.7897 11.6071 22.258 11.6071H23.4327C24.0246 11.6071 24.6073 11.4534 25.1201 11.1553L26.1316 10.5684C27.4041 9.83718 28.9843 9.83718 30.2568 10.5684L31.273 11.16C31.7858 11.4534 32.3684 11.6118 32.9604 11.6118H34.1351C35.6034 11.6118 36.9738 12.3989 37.7056 13.6705L38.293 14.6812C38.5866 15.1935 39.0155 15.6174 39.5282 15.9155L40.5444 16.5024C41.8169 17.2336 42.6047 18.603 42.6047 20.0702V21.2439C42.6047 21.8354 42.7585 22.4177 43.0568 22.93ZM21.1393 26.9636C21.4236 26.8052 21.6474 26.5723 21.8012 26.2696C21.955 25.9715 22.0343 25.5896 22.0296 25.1378C22.0296 24.686 21.9504 24.2994 21.7965 23.9966C21.638 23.6892 21.419 23.4517 21.1346 23.298C20.8503 23.1443 20.5193 23.0651 20.1371 23.0651H18.6548C18.2912 23.0651 17.9929 23.3632 17.9929 23.7265V29.4927C17.9929 29.5672 18.0115 29.6324 18.0488 29.6837C18.0908 29.7396 18.1514 29.7675 18.226 29.7675H18.6268C18.6968 29.7675 18.762 29.7396 18.804 29.6837C18.8459 29.6324 18.8646 29.5672 18.8646 29.4927V27.3222C18.8646 27.2524 18.9205 27.1965 18.9904 27.1965H20.1418C20.524 27.1965 20.8596 27.1173 21.1393 26.9636ZM25.8705 29.502L27.474 26.6981C27.6325 26.4233 27.6232 26.0833 27.46 25.8131L25.8426 23.1815C25.754 23.0418 25.6048 22.958 25.4417 22.958C25.2739 22.958 25.1247 23.0418 25.0408 23.1815L23.4233 25.8085C23.2555 26.0833 23.2509 26.4233 23.414 26.7027L25.0548 29.5067C25.1434 29.6511 25.2925 29.7396 25.4603 29.7396H25.465C25.6375 29.7349 25.7866 29.6511 25.8705 29.502ZM33.3706 29.7675C33.4265 29.7675 33.4778 29.7396 33.5198 29.6883C33.5617 29.6418 33.5804 29.5812 33.5897 29.5207C33.5897 29.4834 33.585 29.4461 33.571 29.3996L31.7112 23.3119C31.6879 23.2421 31.6552 23.1815 31.6133 23.1396C31.5667 23.0884 31.5014 23.0651 31.4128 23.0651H30.9001C30.8115 23.0651 30.7463 23.0884 30.6997 23.1396C30.6577 23.1815 30.6251 23.2421 30.6018 23.3119L28.7326 29.3996V29.4089L28.731 29.4229C28.7269 29.4592 28.7233 29.4917 28.7233 29.5207C28.7233 29.5859 28.7419 29.6418 28.7792 29.6883C28.8211 29.7396 28.8771 29.7675 28.933 29.7675H29.3153C29.3945 29.7675 29.4551 29.7396 29.497 29.6883C29.5343 29.6464 29.553 29.6045 29.5623 29.5626L29.9305 28.3795C29.9492 28.3143 30.0098 28.2724 30.075 28.2724H32.2332C32.2985 28.2724 32.3591 28.3143 32.3777 28.3795L32.746 29.5672C32.76 29.6045 32.7786 29.6464 32.8112 29.6883C32.8346 29.7256 32.8905 29.7675 32.9884 29.7675H33.3706ZM38.1624 26.9636C38.4468 26.8052 38.6705 26.5723 38.8244 26.2696C38.9782 25.9715 39.0574 25.5896 39.0528 25.1378C39.0528 24.686 38.9735 24.2994 38.8197 23.9966C38.6612 23.6892 38.4421 23.4517 38.1578 23.298C37.8734 23.1443 37.5425 23.0651 37.1603 23.0651H35.678C35.3144 23.0651 35.0161 23.3632 35.0161 23.7265V29.4927C35.0161 29.5672 35.0347 29.6324 35.072 29.6837C35.1139 29.7396 35.1745 29.7675 35.2491 29.7675H35.65C35.7199 29.7675 35.7852 29.7396 35.8271 29.6837C35.8691 29.6324 35.8877 29.5672 35.8877 29.4927V27.3222C35.8877 27.2524 35.9437 27.1965 36.0136 27.1965H37.1649C37.5472 27.1965 37.8828 27.1173 38.1624 26.9636ZM38.7731 46.1393C38.801 46.2185 38.7824 46.3024 38.7218 46.3583C38.6612 46.4141 38.5726 46.4281 38.498 46.3909L35.2911 44.9004C34.797 44.6722 34.2423 44.7187 33.8414 45.0215L33.8264 45.0329C33.8177 45.0396 33.8087 45.0466 33.8 45.0534C33.7933 45.0586 33.7868 45.0636 33.7808 45.0681C33.627 45.1985 33.5058 45.3522 33.4219 45.5338L31.8976 48.7989C31.865 48.8688 31.7904 48.9153 31.7158 48.9153H31.7065C31.6226 48.9107 31.5527 48.8594 31.5247 48.7803L29.3618 42.851C29.1195 42.9069 28.8724 42.9442 28.6254 42.9628L31.0865 49.7071C31.2823 50.2381 32.0188 50.2707 32.2565 49.7584L34.0838 45.8459C34.2329 45.5292 34.6105 45.3895 34.9275 45.5385L38.843 47.3597C39.3557 47.5972 39.9011 47.0988 39.7053 46.5679L37.4306 40.3312C37.2302 40.4756 37.0204 40.6106 36.8013 40.7271L38.7731 46.1393ZM24.7472 48.9108C24.8311 48.9061 24.901 48.8549 24.9289 48.7757L27.0871 42.8557C27.3295 42.907 27.5766 42.9442 27.8236 42.9629L25.3625 49.7072C25.1713 50.2382 24.4302 50.2708 24.1925 49.7585L22.3652 45.8506C22.2161 45.5339 21.8385 45.3942 21.5215 45.5432L17.606 47.3644C17.0979 47.6019 16.5525 47.1036 16.7437 46.5726L19.0137 40.3452C19.2188 40.4896 19.4286 40.62 19.6477 40.7365L17.6759 46.1441C17.6433 46.2233 17.6666 46.3071 17.7272 46.363C17.7878 46.4189 17.8764 46.4282 17.9509 46.3956L21.2185 44.8772C21.4236 44.7794 21.6474 44.7374 21.8711 44.7514C22.3745 44.7747 22.8314 45.0961 23.0598 45.5898L24.556 48.7943C24.5887 48.8642 24.6586 48.9108 24.7378 48.9108H24.7472Z" fill="#F3F3F3"/>
</svg>
