<svg width="57" height="57" viewBox="0 0 57 57" fill="none" xmlns="http://www.w3.org/2000/svg">
<path fill-rule="evenodd" clip-rule="evenodd" d="M11.0907 0.892822C5.39059 0.892822 0.769775 5.51364 0.769775 11.2137V46.5719C0.769775 52.272 5.39059 56.8928 11.0907 56.8928H46.4489C52.149 56.8928 56.7698 52.272 56.7698 46.5719V11.2137C56.7698 5.51364 52.149 0.892822 46.4489 0.892822H11.0907ZM31.7916 18.6468C28.2625 20.1157 21.2044 23.1563 10.6171 27.768C8.89792 28.4517 7.99564 29.1206 7.91621 29.7742C7.77651 30.8784 9.15934 31.3139 11.0383 31.9056C11.296 31.9868 11.5631 32.0709 11.8369 32.1601C13.6922 32.7626 16.1885 33.4679 17.4822 33.4957C18.6623 33.5212 19.9729 33.0361 21.4198 32.0409C31.3149 25.3646 36.4156 21.9898 36.739 21.9171C36.966 21.8661 37.2782 21.8014 37.4881 21.9903C37.7037 22.1787 37.6809 22.5362 37.6582 22.632C37.5244 23.2152 32.1129 28.2466 29.297 30.8647C28.4117 31.6877 27.783 32.2723 27.6554 32.4052C27.3704 32.7013 27.0799 32.9813 26.8006 33.2505C25.0788 34.9103 23.787 36.1556 26.8725 38.1885C28.3686 39.1739 29.5627 39.9873 30.7562 40.8003C32.0385 41.6737 33.32 42.5467 34.9745 43.6319C35.4 43.9107 35.8062 44.2003 36.2018 44.4823C37.7058 45.5545 39.0568 46.5176 40.7279 46.364C41.6981 46.2749 42.7024 45.3625 43.2074 42.6413C44.4102 36.21 46.7762 22.2763 47.3209 16.5344C47.3719 16.0317 47.3095 15.3877 47.2641 15.1052C47.213 14.8226 47.1108 14.4198 46.7477 14.1219C46.3108 13.7684 45.6413 13.6941 45.3406 13.6992C43.9732 13.7236 41.8796 14.4521 31.7916 18.6468Z" fill="#F3F3F3"/>
</svg>
