<?xml version="1.0" encoding="UTF-8"?>
<svg xmlns="http://www.w3.org/2000/svg" xmlns:xlink="http://www.w3.org/1999/xlink" width="20px" height="20px" viewBox="0 0 20 20" version="1.1">
<g id="surface1">
<path style=" stroke:none;fill-rule:evenodd;fill:rgb(95.294118%,95.294118%,95.294118%);fill-opacity:1;" d="M 3.890625 0.3125 C 1.890625 0.3125 0.269531 1.933594 0.269531 3.933594 L 0.269531 16.339844 C 0.269531 18.339844 1.890625 19.960938 3.890625 19.960938 L 16.296875 19.960938 C 18.296875 19.960938 19.917969 18.339844 19.917969 16.339844 L 19.917969 3.933594 C 19.917969 1.933594 18.296875 0.3125 16.296875 0.3125 Z M 11.15625 6.542969 C 9.917969 7.058594 7.441406 8.125 3.726562 9.742188 C 3.121094 9.984375 2.804688 10.21875 2.777344 10.445312 C 2.730469 10.835938 3.214844 10.988281 3.875 11.195312 C 3.964844 11.222656 4.058594 11.253906 4.152344 11.285156 C 4.804688 11.496094 5.679688 11.742188 6.132812 11.753906 C 6.546875 11.761719 7.007812 11.589844 7.515625 11.242188 C 10.988281 8.898438 12.777344 7.714844 12.890625 7.691406 C 12.96875 7.671875 13.078125 7.648438 13.152344 7.714844 C 13.230469 7.78125 13.222656 7.90625 13.214844 7.941406 C 13.167969 8.144531 11.269531 9.910156 10.28125 10.828125 C 9.96875 11.117188 9.75 11.324219 9.703125 11.371094 C 9.605469 11.472656 9.5 11.574219 9.402344 11.667969 C 8.800781 12.25 8.347656 12.6875 9.429688 13.398438 C 9.953125 13.746094 10.371094 14.03125 10.792969 14.316406 C 11.242188 14.621094 11.691406 14.929688 12.273438 15.308594 C 12.421875 15.40625 12.5625 15.507812 12.703125 15.609375 C 13.230469 15.984375 13.703125 16.320312 14.289062 16.269531 C 14.632812 16.238281 14.984375 15.917969 15.160156 14.960938 C 15.582031 12.707031 16.414062 7.816406 16.605469 5.800781 C 16.621094 5.625 16.601562 5.398438 16.582031 5.300781 C 16.566406 5.199219 16.53125 5.058594 16.402344 4.953125 C 16.25 4.832031 16.015625 4.804688 15.910156 4.808594 C 15.429688 4.816406 14.695312 5.070312 11.15625 6.542969 Z M 11.15625 6.542969 "/>
</g>
</svg>
