<svg width="20" height="20" viewBox="0 0 20 20" fill="none" xmlns="http://www.w3.org/2000/svg">
<path d="M14.0144 7.08517L8.94282 11.2306L8.70419 11.4261C8.65176 11.4676 8.61754 11.5279 8.60873 11.5943L8.55532 12.0352L8.40873 13.2738C8.41009 13.2889 8.4054 13.3039 8.39571 13.3155C8.38601 13.3271 8.3721 13.3344 8.35703 13.3357C8.34196 13.3371 8.32697 13.3324 8.31535 13.3227C8.30374 13.313 8.29645 13.2991 8.2951 13.284L7.8826 12.0454L7.45646 10.7783C7.43828 10.7216 7.44061 10.6602 7.46303 10.605C7.48546 10.5497 7.52657 10.5041 7.57919 10.4761L12.8565 7.45108L13.8496 6.88289C13.994 6.7988 14.1417 6.98062 14.0144 7.08517Z" fill="currentColor"/>
<path d="M17.2727 0H2.72727C2.00396 0 1.31026 0.287337 0.7988 0.7988C0.287337 1.31026 0 2.00396 0 2.72727L0 17.2727C0 17.996 0.287337 18.6897 0.7988 19.2012C1.31026 19.7127 2.00396 20 2.72727 20H17.2727C17.996 20 18.6897 19.7127 19.2012 19.2012C19.7127 18.6897 20 17.996 20 17.2727V2.72727C20 2.00396 19.7127 1.31026 19.2012 0.7988C18.6897 0.287337 17.996 0 17.2727 0ZM16.2375 5.78864L14.2852 14.4148C14.1932 14.8193 13.6795 15.0023 13.3193 14.7557L12.0811 13.9156C11.0826 13.2381 9.74727 13.346 8.87045 14.175C8.80924 14.2324 8.73494 14.2741 8.654 14.2963C8.57306 14.3185 8.48791 14.3206 8.40596 14.3025C8.324 14.2844 8.24771 14.2465 8.1837 14.1922C8.11969 14.1379 8.0699 14.0688 8.03864 13.9909L7.49659 12.4C7.15759 11.405 6.34732 10.6429 5.33348 10.3653L4.04886 10.0136C3.96762 9.9959 3.89451 9.95182 3.84091 9.88824C3.7873 9.82467 3.75621 9.74517 3.75245 9.6621C3.74869 9.57903 3.77248 9.49704 3.82013 9.42889C3.86777 9.36073 3.9366 9.31023 4.01591 9.28523L15.2409 5.24091L15.4477 5.16705C15.883 5.01477 16.333 5.36705 16.2375 5.78864Z" fill="currentColor"/>
</svg>
