<svg width="20" height="20" viewBox="0 0 20 20" fill="none" xmlns="http://www.w3.org/2000/svg">
<path d="M18.8998 1.10016C18.1666 0.366765 17.2832 0 16.2503 0H3.75003C2.71712 0 1.83372 0.366765 1.10018 1.10016C0.366771 1.83369 0 2.71703 0 3.74997V16.2499C0 17.2827 0.366771 18.1662 1.10018 18.8997C1.83372 19.6332 2.71712 20 3.75003 20H16.2502C17.2831 20 18.1665 19.6332 18.8997 18.8997C19.6332 18.1662 20 17.2828 20 16.2499V3.74997C20 2.71703 19.6332 1.83355 18.8998 1.10016ZM15.2997 7.69536C15.3084 7.77348 15.3128 7.89046 15.3128 8.04698C15.3128 8.77618 15.2063 9.50752 14.9938 10.2408C14.7812 10.9745 14.4556 11.6776 14.0171 12.3503C13.579 13.0229 13.0559 13.6177 12.4484 14.1342C11.8406 14.6504 11.1116 15.0629 10.2607 15.3709C9.41021 15.6793 8.49858 15.8335 7.52642 15.8335C6.0161 15.8335 4.61852 15.4252 3.33373 14.6096C3.54206 14.6355 3.7592 14.6486 3.98477 14.6486C5.24352 14.6486 6.37635 14.258 7.38335 13.4765C6.79315 13.4681 6.26571 13.2859 5.80134 12.9296C5.33683 12.5738 5.01357 12.1224 4.83123 11.5755C5.05685 11.6102 5.2261 11.6274 5.33893 11.6274C5.52988 11.6274 5.75131 11.5927 6.00296 11.5235C5.3693 11.4017 4.83552 11.0874 4.40148 10.5795C3.96735 10.0717 3.75035 9.49229 3.75035 8.84131V8.81527C4.21029 9.03212 4.64433 9.14495 5.05238 9.15376C4.26242 8.62413 3.86747 7.8647 3.86747 6.87513C3.86747 6.38897 3.99325 5.92894 4.245 5.49491C4.9307 6.33698 5.76421 7.00963 6.74499 7.51307C7.72586 8.01647 8.77632 8.29873 9.89606 8.35943C9.85274 8.19452 9.83098 7.9861 9.83098 7.73444C9.83098 6.97912 10.0979 6.3347 10.6318 5.80079C11.1656 5.26692 11.8102 4.9999 12.5653 4.9999C13.3641 4.9999 14.0283 5.28644 14.5578 5.85939C15.1568 5.74656 15.7386 5.5251 16.3027 5.19537C16.0857 5.86359 15.6818 6.37146 15.0918 6.7187C15.6559 6.64044 16.1809 6.49295 16.667 6.27596C16.3024 6.83149 15.8465 7.30456 15.2997 7.69536Z" fill="#F3F3F3"/>
</svg>
